<?xml version="1.0" encoding="utf-8" standalone="no"?>
<!DOCTYPE svg PUBLIC "-//W3C//DTD SVG 1.1//EN"
  "http://www.w3.org/Graphics/SVG/1.1/DTD/svg11.dtd">
<svg xmlns:xlink="http://www.w3.org/1999/xlink" width="576pt" height="288pt" viewBox="0 0 576 288" xmlns="http://www.w3.org/2000/svg" version="1.1">
 <metadata>
  <rdf:RDF xmlns:dc="http://purl.org/dc/elements/1.1/" xmlns:cc="http://creativecommons.org/ns#" xmlns:rdf="http://www.w3.org/1999/02/22-rdf-syntax-ns#">
   <cc:Work>
    <dc:type rdf:resource="http://purl.org/dc/dcmitype/StillImage"/>
    <dc:date>2024-06-27T12:47:24.681151</dc:date>
    <dc:format>image/svg+xml</dc:format>
    <dc:creator>
     <cc:Agent>
      <dc:title>Matplotlib v3.8.4, https://matplotlib.org/</dc:title>
     </cc:Agent>
    </dc:creator>
   </cc:Work>
  </rdf:RDF>
 </metadata>
 <defs>
  <style type="text/css">*{stroke-linejoin: round; stroke-linecap: butt}</style>
 </defs>
 <g id="figure_1">
  <g id="patch_1">
   <path d="M 0 288 
L 576 288 
L 576 0 
L 0 0 
z
" style="fill: #ffffff"/>
  </g>
  <g id="axes_1">
   <g id="patch_2">
    <path d="M 47.436 244.164 
L 144.702023 244.164 
L 144.702023 44.2185 
L 47.436 44.2185 
z
" style="fill: #eaeaf2"/>
   </g>
   <g id="matplotlib.axis_1">
    <g id="xtick_1">
     <g id="line2d_1">
      <path d="M 47.436 244.164 
L 47.436 44.2185 
" clip-path="url(#p16f7c4c58e)" style="fill: none; stroke: #ffffff; stroke-width: 0.8; stroke-linecap: round"/>
     </g>
     <g id="text_1">
      <!-- 0 -->
      <g style="fill: #262626" transform="translate(44.989187 258.762875) scale(0.088 -0.088)">
       <defs>
        <path id="ArialMT-30" d="M 266 2259 
Q 266 3072 433 3567 
Q 600 4063 929 4331 
Q 1259 4600 1759 4600 
Q 2128 4600 2406 4451 
Q 2684 4303 2865 4023 
Q 3047 3744 3150 3342 
Q 3253 2941 3253 2259 
Q 3253 1453 3087 958 
Q 2922 463 2592 192 
Q 2263 -78 1759 -78 
Q 1097 -78 719 397 
Q 266 969 266 2259 
z
M 844 2259 
Q 844 1131 1108 757 
Q 1372 384 1759 384 
Q 2147 384 2411 759 
Q 2675 1134 2675 2259 
Q 2675 3391 2411 3762 
Q 2147 4134 1753 4134 
Q 1366 4134 1134 3806 
Q 844 3388 844 2259 
z
" transform="scale(0.015625)"/>
       </defs>
       <use xlink:href="#ArialMT-30"/>
      </g>
     </g>
    </g>
    <g id="xtick_2">
     <g id="line2d_2">
      <path d="M 94.070394 244.164 
L 94.070394 44.2185 
" clip-path="url(#p16f7c4c58e)" style="fill: none; stroke: #ffffff; stroke-width: 0.8; stroke-linecap: round"/>
     </g>
     <g id="text_2">
      <!-- 0.5 -->
      <g style="fill: #262626" transform="translate(87.954394 258.762875) scale(0.088 -0.088)">
       <defs>
        <path id="ArialMT-2e" d="M 581 0 
L 581 641 
L 1222 641 
L 1222 0 
L 581 0 
z
" transform="scale(0.015625)"/>
        <path id="ArialMT-35" d="M 266 1200 
L 856 1250 
Q 922 819 1161 601 
Q 1400 384 1738 384 
Q 2144 384 2425 690 
Q 2706 997 2706 1503 
Q 2706 1984 2436 2262 
Q 2166 2541 1728 2541 
Q 1456 2541 1237 2417 
Q 1019 2294 894 2097 
L 366 2166 
L 809 4519 
L 3088 4519 
L 3088 3981 
L 1259 3981 
L 1013 2750 
Q 1425 3038 1878 3038 
Q 2478 3038 2890 2622 
Q 3303 2206 3303 1553 
Q 3303 931 2941 478 
Q 2500 -78 1738 -78 
Q 1113 -78 717 272 
Q 322 622 266 1200 
z
" transform="scale(0.015625)"/>
       </defs>
       <use xlink:href="#ArialMT-30"/>
       <use xlink:href="#ArialMT-2e" x="55.615234"/>
       <use xlink:href="#ArialMT-35" x="83.398438"/>
      </g>
     </g>
    </g>
    <g id="xtick_3">
     <g id="line2d_3">
      <path d="M 140.704789 244.164 
L 140.704789 44.2185 
" clip-path="url(#p16f7c4c58e)" style="fill: none; stroke: #ffffff; stroke-width: 0.8; stroke-linecap: round"/>
     </g>
     <g id="text_3">
      <!-- 1.0 -->
      <g style="fill: #262626" transform="translate(134.588789 258.762875) scale(0.088 -0.088)">
       <defs>
        <path id="ArialMT-31" d="M 2384 0 
L 1822 0 
L 1822 3584 
Q 1619 3391 1289 3197 
Q 959 3003 697 2906 
L 697 3450 
Q 1169 3672 1522 3987 
Q 1875 4303 2022 4600 
L 2384 4600 
L 2384 0 
z
" transform="scale(0.015625)"/>
       </defs>
       <use xlink:href="#ArialMT-31"/>
       <use xlink:href="#ArialMT-2e" x="55.615234"/>
       <use xlink:href="#ArialMT-30" x="83.398438"/>
      </g>
     </g>
    </g>
    <g id="text_4">
     <!-- $\theta / \theta_{max}$ -->
     <g style="fill: #262626" transform="translate(81.093011 271.723875) scale(0.096 -0.096)">
      <defs>
       <path id="DejaVuSans-Oblique-3b8" d="M 2913 2219 
L 925 2219 
Q 791 1284 928 888 
Q 1100 400 1566 400 
Q 2034 400 2391 891 
Q 2703 1322 2913 2219 
z
M 3009 2750 
Q 3094 3638 2984 3950 
Q 2813 4444 2353 4444 
Q 1875 4444 1525 3956 
Q 1250 3563 1034 2750 
L 3009 2750 
z
M 2444 4913 
Q 3194 4913 3494 4250 
Q 3794 3591 3566 2422 
Q 3341 1256 2781 594 
Q 2225 -72 1475 -72 
Q 722 -72 425 594 
Q 128 1256 353 2422 
Q 581 3591 1134 4250 
Q 1691 4913 2444 4913 
z
" transform="scale(0.015625)"/>
       <path id="DejaVuSans-2f" d="M 1625 4666 
L 2156 4666 
L 531 -594 
L 0 -594 
L 1625 4666 
z
" transform="scale(0.015625)"/>
       <path id="DejaVuSans-Oblique-6d" d="M 5747 2113 
L 5338 0 
L 4763 0 
L 5166 2094 
Q 5191 2228 5203 2325 
Q 5216 2422 5216 2491 
Q 5216 2772 5059 2928 
Q 4903 3084 4622 3084 
Q 4203 3084 3875 2770 
Q 3547 2456 3450 1953 
L 3066 0 
L 2491 0 
L 2900 2094 
Q 2925 2209 2937 2307 
Q 2950 2406 2950 2484 
Q 2950 2769 2794 2926 
Q 2638 3084 2363 3084 
Q 1938 3084 1609 2770 
Q 1281 2456 1184 1953 
L 800 0 
L 225 0 
L 909 3500 
L 1484 3500 
L 1375 2956 
Q 1609 3263 1923 3423 
Q 2238 3584 2597 3584 
Q 2978 3584 3223 3384 
Q 3469 3184 3519 2828 
Q 3781 3197 4126 3390 
Q 4472 3584 4856 3584 
Q 5306 3584 5551 3325 
Q 5797 3066 5797 2591 
Q 5797 2488 5784 2364 
Q 5772 2241 5747 2113 
z
" transform="scale(0.015625)"/>
       <path id="DejaVuSans-Oblique-61" d="M 3438 1997 
L 3047 0 
L 2472 0 
L 2578 531 
Q 2325 219 2001 64 
Q 1678 -91 1281 -91 
Q 834 -91 548 182 
Q 263 456 263 884 
Q 263 1497 752 1853 
Q 1241 2209 2100 2209 
L 2900 2209 
L 2931 2363 
Q 2938 2388 2941 2417 
Q 2944 2447 2944 2509 
Q 2944 2788 2717 2942 
Q 2491 3097 2081 3097 
Q 1800 3097 1504 3025 
Q 1209 2953 897 2809 
L 997 3341 
Q 1322 3463 1633 3523 
Q 1944 3584 2234 3584 
Q 2853 3584 3176 3315 
Q 3500 3047 3500 2534 
Q 3500 2431 3484 2292 
Q 3469 2153 3438 1997 
z
M 2816 1759 
L 2241 1759 
Q 1534 1759 1195 1570 
Q 856 1381 856 984 
Q 856 709 1029 553 
Q 1203 397 1509 397 
Q 1978 397 2328 733 
Q 2678 1069 2791 1631 
L 2816 1759 
z
" transform="scale(0.015625)"/>
       <path id="DejaVuSans-Oblique-78" d="M 3841 3500 
L 2234 1784 
L 3219 0 
L 2559 0 
L 1819 1388 
L 531 0 
L -166 0 
L 1556 1844 
L 641 3500 
L 1300 3500 
L 1972 2234 
L 3144 3500 
L 3841 3500 
z
" transform="scale(0.015625)"/>
      </defs>
      <use xlink:href="#DejaVuSans-Oblique-3b8" transform="translate(0 0.234375)"/>
      <use xlink:href="#DejaVuSans-2f" transform="translate(61.181641 0.234375)"/>
      <use xlink:href="#DejaVuSans-Oblique-3b8" transform="translate(94.873047 0.234375)"/>
      <use xlink:href="#DejaVuSans-Oblique-6d" transform="translate(156.054688 -16.171875) scale(0.7)"/>
      <use xlink:href="#DejaVuSans-Oblique-61" transform="translate(224.243164 -16.171875) scale(0.7)"/>
      <use xlink:href="#DejaVuSans-Oblique-78" transform="translate(267.138672 -16.171875) scale(0.7)"/>
     </g>
    </g>
   </g>
   <g id="matplotlib.axis_2">
    <g id="ytick_1">
     <g id="line2d_4">
      <path d="M 47.436 244.164 
L 144.702023 244.164 
" clip-path="url(#p16f7c4c58e)" style="fill: none; stroke: #ffffff; stroke-width: 0.8; stroke-linecap: round"/>
     </g>
     <g id="text_5">
      <!-- 0 -->
      <g style="fill: #262626" transform="translate(34.242375 247.313438) scale(0.088 -0.088)">
       <use xlink:href="#ArialMT-30"/>
      </g>
     </g>
    </g>
    <g id="ytick_2">
     <g id="line2d_5">
      <path d="M 47.436 221.947833 
L 144.702023 221.947833 
" clip-path="url(#p16f7c4c58e)" style="fill: none; stroke: #ffffff; stroke-width: 0.8; stroke-linecap: round"/>
     </g>
     <g id="text_6">
      <!-- 2 -->
      <g style="fill: #262626" transform="translate(34.242375 225.097271) scale(0.088 -0.088)">
       <defs>
        <path id="ArialMT-32" d="M 3222 541 
L 3222 0 
L 194 0 
Q 188 203 259 391 
Q 375 700 629 1000 
Q 884 1300 1366 1694 
Q 2113 2306 2375 2664 
Q 2638 3022 2638 3341 
Q 2638 3675 2398 3904 
Q 2159 4134 1775 4134 
Q 1369 4134 1125 3890 
Q 881 3647 878 3216 
L 300 3275 
Q 359 3922 746 4261 
Q 1134 4600 1788 4600 
Q 2447 4600 2831 4234 
Q 3216 3869 3216 3328 
Q 3216 3053 3103 2787 
Q 2991 2522 2730 2228 
Q 2469 1934 1863 1422 
Q 1356 997 1212 845 
Q 1069 694 975 541 
L 3222 541 
z
" transform="scale(0.015625)"/>
       </defs>
       <use xlink:href="#ArialMT-32"/>
      </g>
     </g>
    </g>
    <g id="ytick_3">
     <g id="line2d_6">
      <path d="M 47.436 199.731667 
L 144.702023 199.731667 
" clip-path="url(#p16f7c4c58e)" style="fill: none; stroke: #ffffff; stroke-width: 0.8; stroke-linecap: round"/>
     </g>
     <g id="text_7">
      <!-- 4 -->
      <g style="fill: #262626" transform="translate(34.242375 202.881104) scale(0.088 -0.088)">
       <defs>
        <path id="ArialMT-34" d="M 2069 0 
L 2069 1097 
L 81 1097 
L 81 1613 
L 2172 4581 
L 2631 4581 
L 2631 1613 
L 3250 1613 
L 3250 1097 
L 2631 1097 
L 2631 0 
L 2069 0 
z
M 2069 1613 
L 2069 3678 
L 634 1613 
L 2069 1613 
z
" transform="scale(0.015625)"/>
       </defs>
       <use xlink:href="#ArialMT-34"/>
      </g>
     </g>
    </g>
    <g id="ytick_4">
     <g id="line2d_7">
      <path d="M 47.436 177.5155 
L 144.702023 177.5155 
" clip-path="url(#p16f7c4c58e)" style="fill: none; stroke: #ffffff; stroke-width: 0.8; stroke-linecap: round"/>
     </g>
     <g id="text_8">
      <!-- 6 -->
      <g style="fill: #262626" transform="translate(34.242375 180.664938) scale(0.088 -0.088)">
       <defs>
        <path id="ArialMT-36" d="M 3184 3459 
L 2625 3416 
Q 2550 3747 2413 3897 
Q 2184 4138 1850 4138 
Q 1581 4138 1378 3988 
Q 1113 3794 959 3422 
Q 806 3050 800 2363 
Q 1003 2672 1297 2822 
Q 1591 2972 1913 2972 
Q 2475 2972 2870 2558 
Q 3266 2144 3266 1488 
Q 3266 1056 3080 686 
Q 2894 316 2569 119 
Q 2244 -78 1831 -78 
Q 1128 -78 684 439 
Q 241 956 241 2144 
Q 241 3472 731 4075 
Q 1159 4600 1884 4600 
Q 2425 4600 2770 4297 
Q 3116 3994 3184 3459 
z
M 888 1484 
Q 888 1194 1011 928 
Q 1134 663 1356 523 
Q 1578 384 1822 384 
Q 2178 384 2434 671 
Q 2691 959 2691 1453 
Q 2691 1928 2437 2201 
Q 2184 2475 1800 2475 
Q 1419 2475 1153 2201 
Q 888 1928 888 1484 
z
" transform="scale(0.015625)"/>
       </defs>
       <use xlink:href="#ArialMT-36"/>
      </g>
     </g>
    </g>
    <g id="ytick_5">
     <g id="line2d_8">
      <path d="M 47.436 155.299333 
L 144.702023 155.299333 
" clip-path="url(#p16f7c4c58e)" style="fill: none; stroke: #ffffff; stroke-width: 0.8; stroke-linecap: round"/>
     </g>
     <g id="text_9">
      <!-- 8 -->
      <g style="fill: #262626" transform="translate(34.242375 158.448771) scale(0.088 -0.088)">
       <defs>
        <path id="ArialMT-38" d="M 1131 2484 
Q 781 2613 612 2850 
Q 444 3088 444 3419 
Q 444 3919 803 4259 
Q 1163 4600 1759 4600 
Q 2359 4600 2725 4251 
Q 3091 3903 3091 3403 
Q 3091 3084 2923 2848 
Q 2756 2613 2416 2484 
Q 2838 2347 3058 2040 
Q 3278 1734 3278 1309 
Q 3278 722 2862 322 
Q 2447 -78 1769 -78 
Q 1091 -78 675 323 
Q 259 725 259 1325 
Q 259 1772 486 2073 
Q 713 2375 1131 2484 
z
M 1019 3438 
Q 1019 3113 1228 2906 
Q 1438 2700 1772 2700 
Q 2097 2700 2305 2904 
Q 2513 3109 2513 3406 
Q 2513 3716 2298 3927 
Q 2084 4138 1766 4138 
Q 1444 4138 1231 3931 
Q 1019 3725 1019 3438 
z
M 838 1322 
Q 838 1081 952 856 
Q 1066 631 1291 507 
Q 1516 384 1775 384 
Q 2178 384 2440 643 
Q 2703 903 2703 1303 
Q 2703 1709 2433 1975 
Q 2163 2241 1756 2241 
Q 1359 2241 1098 1978 
Q 838 1716 838 1322 
z
" transform="scale(0.015625)"/>
       </defs>
       <use xlink:href="#ArialMT-38"/>
      </g>
     </g>
    </g>
    <g id="ytick_6">
     <g id="line2d_9">
      <path d="M 47.436 133.083167 
L 144.702023 133.083167 
" clip-path="url(#p16f7c4c58e)" style="fill: none; stroke: #ffffff; stroke-width: 0.8; stroke-linecap: round"/>
     </g>
     <g id="text_10">
      <!-- 10 -->
      <g style="fill: #262626" transform="translate(29.34875 136.232604) scale(0.088 -0.088)">
       <use xlink:href="#ArialMT-31"/>
       <use xlink:href="#ArialMT-30" x="55.615234"/>
      </g>
     </g>
    </g>
    <g id="ytick_7">
     <g id="line2d_10">
      <path d="M 47.436 110.867 
L 144.702023 110.867 
" clip-path="url(#p16f7c4c58e)" style="fill: none; stroke: #ffffff; stroke-width: 0.8; stroke-linecap: round"/>
     </g>
     <g id="text_11">
      <!-- 12 -->
      <g style="fill: #262626" transform="translate(29.34875 114.016438) scale(0.088 -0.088)">
       <use xlink:href="#ArialMT-31"/>
       <use xlink:href="#ArialMT-32" x="55.615234"/>
      </g>
     </g>
    </g>
    <g id="ytick_8">
     <g id="line2d_11">
      <path d="M 47.436 88.650833 
L 144.702023 88.650833 
" clip-path="url(#p16f7c4c58e)" style="fill: none; stroke: #ffffff; stroke-width: 0.8; stroke-linecap: round"/>
     </g>
     <g id="text_12">
      <!-- 14 -->
      <g style="fill: #262626" transform="translate(29.34875 91.800271) scale(0.088 -0.088)">
       <use xlink:href="#ArialMT-31"/>
       <use xlink:href="#ArialMT-34" x="55.615234"/>
      </g>
     </g>
    </g>
    <g id="ytick_9">
     <g id="line2d_12">
      <path d="M 47.436 66.434667 
L 144.702023 66.434667 
" clip-path="url(#p16f7c4c58e)" style="fill: none; stroke: #ffffff; stroke-width: 0.8; stroke-linecap: round"/>
     </g>
     <g id="text_13">
      <!-- 16 -->
      <g style="fill: #262626" transform="translate(29.34875 69.584104) scale(0.088 -0.088)">
       <use xlink:href="#ArialMT-31"/>
       <use xlink:href="#ArialMT-36" x="55.615234"/>
      </g>
     </g>
    </g>
    <g id="ytick_10">
     <g id="line2d_13">
      <path d="M 47.436 44.2185 
L 144.702023 44.2185 
" clip-path="url(#p16f7c4c58e)" style="fill: none; stroke: #ffffff; stroke-width: 0.8; stroke-linecap: round"/>
     </g>
     <g id="text_14">
      <!-- 18 -->
      <g style="fill: #262626" transform="translate(29.34875 47.367938) scale(0.088 -0.088)">
       <use xlink:href="#ArialMT-31"/>
       <use xlink:href="#ArialMT-38" x="55.615234"/>
      </g>
     </g>
    </g>
    <g id="text_15">
     <!-- $f / f_{stokes}$ -->
     <g style="fill: #262626" transform="translate(23.44075 160.22325) rotate(-90) scale(0.096 -0.096)">
      <defs>
       <path id="DejaVuSans-Oblique-66" d="M 3059 4863 
L 2969 4384 
L 2419 4384 
Q 2106 4384 1964 4261 
Q 1822 4138 1753 3809 
L 1691 3500 
L 2638 3500 
L 2553 3053 
L 1606 3053 
L 1013 0 
L 434 0 
L 1031 3053 
L 481 3053 
L 563 3500 
L 1113 3500 
L 1159 3744 
Q 1278 4363 1576 4613 
Q 1875 4863 2516 4863 
L 3059 4863 
z
" transform="scale(0.015625)"/>
       <path id="DejaVuSans-Oblique-73" d="M 3200 3397 
L 3091 2853 
Q 2863 2978 2609 3040 
Q 2356 3103 2088 3103 
Q 1634 3103 1373 2948 
Q 1113 2794 1113 2528 
Q 1113 2219 1719 2053 
Q 1766 2041 1788 2034 
L 1972 1978 
Q 2547 1819 2739 1644 
Q 2931 1469 2931 1166 
Q 2931 609 2489 259 
Q 2047 -91 1331 -91 
Q 1053 -91 747 -37 
Q 441 16 72 128 
L 184 722 
Q 500 559 806 475 
Q 1113 391 1394 391 
Q 1816 391 2080 572 
Q 2344 753 2344 1031 
Q 2344 1331 1650 1516 
L 1591 1531 
L 1394 1581 
Q 956 1697 753 1886 
Q 550 2075 550 2369 
Q 550 2928 970 3256 
Q 1391 3584 2113 3584 
Q 2397 3584 2667 3537 
Q 2938 3491 3200 3397 
z
" transform="scale(0.015625)"/>
       <path id="DejaVuSans-Oblique-74" d="M 2706 3500 
L 2619 3053 
L 1472 3053 
L 1100 1153 
Q 1081 1047 1072 975 
Q 1063 903 1063 863 
Q 1063 663 1183 572 
Q 1303 481 1569 481 
L 2150 481 
L 2053 0 
L 1503 0 
Q 991 0 739 200 
Q 488 400 488 806 
Q 488 878 497 964 
Q 506 1050 525 1153 
L 897 3053 
L 409 3053 
L 500 3500 
L 978 3500 
L 1172 4494 
L 1747 4494 
L 1556 3500 
L 2706 3500 
z
" transform="scale(0.015625)"/>
       <path id="DejaVuSans-Oblique-6f" d="M 1625 -91 
Q 1009 -91 651 289 
Q 294 669 294 1325 
Q 294 1706 417 2101 
Q 541 2497 738 2766 
Q 1047 3184 1428 3384 
Q 1809 3584 2291 3584 
Q 2888 3584 3255 3212 
Q 3622 2841 3622 2241 
Q 3622 1825 3500 1412 
Q 3378 1000 3181 728 
Q 2875 309 2494 109 
Q 2113 -91 1625 -91 
z
M 891 1344 
Q 891 869 1089 633 
Q 1288 397 1691 397 
Q 2269 397 2648 901 
Q 3028 1406 3028 2181 
Q 3028 2634 2825 2865 
Q 2622 3097 2228 3097 
Q 1903 3097 1650 2945 
Q 1397 2794 1197 2484 
Q 1050 2253 970 1956 
Q 891 1659 891 1344 
z
" transform="scale(0.015625)"/>
       <path id="DejaVuSans-Oblique-6b" d="M 1172 4863 
L 1747 4863 
L 1197 2028 
L 3169 3500 
L 3916 3500 
L 1716 1825 
L 3322 0 
L 2625 0 
L 1131 1709 
L 800 0 
L 225 0 
L 1172 4863 
z
" transform="scale(0.015625)"/>
       <path id="DejaVuSans-Oblique-65" d="M 3078 2063 
Q 3088 2113 3092 2166 
Q 3097 2219 3097 2272 
Q 3097 2653 2873 2875 
Q 2650 3097 2266 3097 
Q 1838 3097 1509 2826 
Q 1181 2556 1013 2059 
L 3078 2063 
z
M 3578 1613 
L 903 1613 
Q 884 1494 878 1425 
Q 872 1356 872 1306 
Q 872 872 1139 634 
Q 1406 397 1894 397 
Q 2269 397 2603 481 
Q 2938 566 3225 728 
L 3116 159 
Q 2806 34 2476 -28 
Q 2147 -91 1806 -91 
Q 1078 -91 686 257 
Q 294 606 294 1247 
Q 294 1794 489 2264 
Q 684 2734 1063 3103 
Q 1306 3334 1642 3459 
Q 1978 3584 2356 3584 
Q 2950 3584 3301 3228 
Q 3653 2872 3653 2272 
Q 3653 2128 3634 1964 
Q 3616 1800 3578 1613 
z
" transform="scale(0.015625)"/>
      </defs>
      <use xlink:href="#DejaVuSans-Oblique-66" transform="translate(0 0.015625)"/>
      <use xlink:href="#DejaVuSans-2f" transform="translate(35.205078 0.015625)"/>
      <use xlink:href="#DejaVuSans-Oblique-66" transform="translate(68.896484 0.015625)"/>
      <use xlink:href="#DejaVuSans-Oblique-73" transform="translate(104.101562 -16.390625) scale(0.7)"/>
      <use xlink:href="#DejaVuSans-Oblique-74" transform="translate(140.571289 -16.390625) scale(0.7)"/>
      <use xlink:href="#DejaVuSans-Oblique-6f" transform="translate(168.017578 -16.390625) scale(0.7)"/>
      <use xlink:href="#DejaVuSans-Oblique-6b" transform="translate(210.844727 -16.390625) scale(0.7)"/>
      <use xlink:href="#DejaVuSans-Oblique-65" transform="translate(251.381836 -16.390625) scale(0.7)"/>
      <use xlink:href="#DejaVuSans-Oblique-73" transform="translate(294.448242 -16.390625) scale(0.7)"/>
     </g>
    </g>
   </g>
   <g id="line2d_14">
    <path d="M 60.760113 233.512413 
L 74.084225 233.531977 
L 87.408338 233.538877 
L 100.732451 233.508468 
L 114.056563 233.4848 
L 127.380676 233.448737 
L 140.704789 233.488404 
" clip-path="url(#p16f7c4c58e)" style="fill: none; stroke: #1f77b4; stroke-width: 1.5; stroke-linecap: round"/>
    <defs>
     <path id="mee9e42c368" d="M 0 2.5 
C 0.663008 2.5 1.29895 2.236584 1.767767 1.767767 
C 2.236584 1.29895 2.5 0.663008 2.5 0 
C 2.5 -0.663008 2.236584 -1.29895 1.767767 -1.767767 
C 1.29895 -2.236584 0.663008 -2.5 0 -2.5 
C -0.663008 -2.5 -1.29895 -2.236584 -1.767767 -1.767767 
C -2.236584 -1.29895 -2.5 -0.663008 -2.5 0 
C -2.5 0.663008 -2.236584 1.29895 -1.767767 1.767767 
C -1.29895 2.236584 -0.663008 2.5 0 2.5 
z
" style="stroke: #ffffff; stroke-width: 0.75"/>
    </defs>
    <g clip-path="url(#p16f7c4c58e)">
     <use xlink:href="#mee9e42c368" x="60.760113" y="233.512413" style="fill: #1f77b4; stroke: #ffffff; stroke-width: 0.75"/>
     <use xlink:href="#mee9e42c368" x="74.084225" y="233.531977" style="fill: #1f77b4; stroke: #ffffff; stroke-width: 0.75"/>
     <use xlink:href="#mee9e42c368" x="87.408338" y="233.538877" style="fill: #1f77b4; stroke: #ffffff; stroke-width: 0.75"/>
     <use xlink:href="#mee9e42c368" x="100.732451" y="233.508468" style="fill: #1f77b4; stroke: #ffffff; stroke-width: 0.75"/>
     <use xlink:href="#mee9e42c368" x="114.056563" y="233.4848" style="fill: #1f77b4; stroke: #ffffff; stroke-width: 0.75"/>
     <use xlink:href="#mee9e42c368" x="127.380676" y="233.448737" style="fill: #1f77b4; stroke: #ffffff; stroke-width: 0.75"/>
     <use xlink:href="#mee9e42c368" x="140.704789" y="233.488404" style="fill: #1f77b4; stroke: #ffffff; stroke-width: 0.75"/>
    </g>
   </g>
   <g id="line2d_15">
    <path d="M 60.760113 233.212369 
L 74.084225 233.293947 
L 87.408338 233.306475 
L 100.732451 233.266297 
L 114.056563 233.276315 
L 127.380676 233.279419 
L 140.704789 233.242216 
" clip-path="url(#p16f7c4c58e)" style="fill: none; stroke: #ff7f0e; stroke-width: 1.5; stroke-linecap: round"/>
    <defs>
     <path id="ma301ae7af5" d="M 0 2.5 
C 0.663008 2.5 1.29895 2.236584 1.767767 1.767767 
C 2.236584 1.29895 2.5 0.663008 2.5 0 
C 2.5 -0.663008 2.236584 -1.29895 1.767767 -1.767767 
C 1.29895 -2.236584 0.663008 -2.5 0 -2.5 
C -0.663008 -2.5 -1.29895 -2.236584 -1.767767 -1.767767 
C -2.236584 -1.29895 -2.5 -0.663008 -2.5 0 
C -2.5 0.663008 -2.236584 1.29895 -1.767767 1.767767 
C -1.29895 2.236584 -0.663008 2.5 0 2.5 
z
" style="stroke: #ffffff; stroke-width: 0.75"/>
    </defs>
    <g clip-path="url(#p16f7c4c58e)">
     <use xlink:href="#ma301ae7af5" x="60.760113" y="233.212369" style="fill: #ff7f0e; stroke: #ffffff; stroke-width: 0.75"/>
     <use xlink:href="#ma301ae7af5" x="74.084225" y="233.293947" style="fill: #ff7f0e; stroke: #ffffff; stroke-width: 0.75"/>
     <use xlink:href="#ma301ae7af5" x="87.408338" y="233.306475" style="fill: #ff7f0e; stroke: #ffffff; stroke-width: 0.75"/>
     <use xlink:href="#ma301ae7af5" x="100.732451" y="233.266297" style="fill: #ff7f0e; stroke: #ffffff; stroke-width: 0.75"/>
     <use xlink:href="#ma301ae7af5" x="114.056563" y="233.276315" style="fill: #ff7f0e; stroke: #ffffff; stroke-width: 0.75"/>
     <use xlink:href="#ma301ae7af5" x="127.380676" y="233.279419" style="fill: #ff7f0e; stroke: #ffffff; stroke-width: 0.75"/>
     <use xlink:href="#ma301ae7af5" x="140.704789" y="233.242216" style="fill: #ff7f0e; stroke: #ffffff; stroke-width: 0.75"/>
    </g>
   </g>
   <g id="line2d_16">
    <path d="M 60.760113 233.206026 
L 74.084225 233.138199 
L 87.408338 233.139436 
L 100.732451 233.141036 
L 114.056563 233.144427 
L 127.380676 233.168804 
L 140.704789 233.149854 
" clip-path="url(#p16f7c4c58e)" style="fill: none; stroke: #2ca02c; stroke-width: 1.5; stroke-linecap: round"/>
    <defs>
     <path id="ma2faa9fa93" d="M 0 2.5 
C 0.663008 2.5 1.29895 2.236584 1.767767 1.767767 
C 2.236584 1.29895 2.5 0.663008 2.5 0 
C 2.5 -0.663008 2.236584 -1.29895 1.767767 -1.767767 
C 1.29895 -2.236584 0.663008 -2.5 0 -2.5 
C -0.663008 -2.5 -1.29895 -2.236584 -1.767767 -1.767767 
C -2.236584 -1.29895 -2.5 -0.663008 -2.5 0 
C -2.5 0.663008 -2.236584 1.29895 -1.767767 1.767767 
C -1.29895 2.236584 -0.663008 2.5 0 2.5 
z
" style="stroke: #ffffff; stroke-width: 0.75"/>
    </defs>
    <g clip-path="url(#p16f7c4c58e)">
     <use xlink:href="#ma2faa9fa93" x="60.760113" y="233.206026" style="fill: #2ca02c; stroke: #ffffff; stroke-width: 0.75"/>
     <use xlink:href="#ma2faa9fa93" x="74.084225" y="233.138199" style="fill: #2ca02c; stroke: #ffffff; stroke-width: 0.75"/>
     <use xlink:href="#ma2faa9fa93" x="87.408338" y="233.139436" style="fill: #2ca02c; stroke: #ffffff; stroke-width: 0.75"/>
     <use xlink:href="#ma2faa9fa93" x="100.732451" y="233.141036" style="fill: #2ca02c; stroke: #ffffff; stroke-width: 0.75"/>
     <use xlink:href="#ma2faa9fa93" x="114.056563" y="233.144427" style="fill: #2ca02c; stroke: #ffffff; stroke-width: 0.75"/>
     <use xlink:href="#ma2faa9fa93" x="127.380676" y="233.168804" style="fill: #2ca02c; stroke: #ffffff; stroke-width: 0.75"/>
     <use xlink:href="#ma2faa9fa93" x="140.704789" y="233.149854" style="fill: #2ca02c; stroke: #ffffff; stroke-width: 0.75"/>
    </g>
   </g>
   <g id="line2d_17">
    <path d="M 60.760113 233.216903 
L 74.084225 233.13641 
L 87.408338 233.055917 
L 100.732451 233.099478 
L 114.056563 233.099996 
L 127.380676 233.124344 
L 140.704789 233.103286 
" clip-path="url(#p16f7c4c58e)" style="fill: none; stroke: #d62728; stroke-width: 1.5; stroke-linecap: round"/>
    <defs>
     <path id="m8e1ee63eb7" d="M 0 2.5 
C 0.663008 2.5 1.29895 2.236584 1.767767 1.767767 
C 2.236584 1.29895 2.5 0.663008 2.5 0 
C 2.5 -0.663008 2.236584 -1.29895 1.767767 -1.767767 
C 1.29895 -2.236584 0.663008 -2.5 0 -2.5 
C -0.663008 -2.5 -1.29895 -2.236584 -1.767767 -1.767767 
C -2.236584 -1.29895 -2.5 -0.663008 -2.5 0 
C -2.5 0.663008 -2.236584 1.29895 -1.767767 1.767767 
C -1.29895 2.236584 -0.663008 2.5 0 2.5 
z
" style="stroke: #ffffff; stroke-width: 0.75"/>
    </defs>
    <g clip-path="url(#p16f7c4c58e)">
     <use xlink:href="#m8e1ee63eb7" x="60.760113" y="233.216903" style="fill: #d62728; stroke: #ffffff; stroke-width: 0.75"/>
     <use xlink:href="#m8e1ee63eb7" x="74.084225" y="233.13641" style="fill: #d62728; stroke: #ffffff; stroke-width: 0.75"/>
     <use xlink:href="#m8e1ee63eb7" x="87.408338" y="233.055917" style="fill: #d62728; stroke: #ffffff; stroke-width: 0.75"/>
     <use xlink:href="#m8e1ee63eb7" x="100.732451" y="233.099478" style="fill: #d62728; stroke: #ffffff; stroke-width: 0.75"/>
     <use xlink:href="#m8e1ee63eb7" x="114.056563" y="233.099996" style="fill: #d62728; stroke: #ffffff; stroke-width: 0.75"/>
     <use xlink:href="#m8e1ee63eb7" x="127.380676" y="233.124344" style="fill: #d62728; stroke: #ffffff; stroke-width: 0.75"/>
     <use xlink:href="#m8e1ee63eb7" x="140.704789" y="233.103286" style="fill: #d62728; stroke: #ffffff; stroke-width: 0.75"/>
    </g>
   </g>
   <g id="line2d_18">
    <path d="M 60.760113 233.055917 
L 74.084225 233.055917 
L 87.408338 233.055917 
L 100.732451 233.055917 
L 114.056563 233.055917 
L 127.380676 233.078494 
L 140.704789 233.079551 
" clip-path="url(#p16f7c4c58e)" style="fill: none; stroke: #9467bd; stroke-width: 1.5; stroke-linecap: round"/>
    <defs>
     <path id="m8dacd64cec" d="M 0 2.5 
C 0.663008 2.5 1.29895 2.236584 1.767767 1.767767 
C 2.236584 1.29895 2.5 0.663008 2.5 0 
C 2.5 -0.663008 2.236584 -1.29895 1.767767 -1.767767 
C 1.29895 -2.236584 0.663008 -2.5 0 -2.5 
C -0.663008 -2.5 -1.29895 -2.236584 -1.767767 -1.767767 
C -2.236584 -1.29895 -2.5 -0.663008 -2.5 0 
C -2.5 0.663008 -2.236584 1.29895 -1.767767 1.767767 
C -1.29895 2.236584 -0.663008 2.5 0 2.5 
z
" style="stroke: #ffffff; stroke-width: 0.75"/>
    </defs>
    <g clip-path="url(#p16f7c4c58e)">
     <use xlink:href="#m8dacd64cec" x="60.760113" y="233.055917" style="fill: #9467bd; stroke: #ffffff; stroke-width: 0.75"/>
     <use xlink:href="#m8dacd64cec" x="74.084225" y="233.055917" style="fill: #9467bd; stroke: #ffffff; stroke-width: 0.75"/>
     <use xlink:href="#m8dacd64cec" x="87.408338" y="233.055917" style="fill: #9467bd; stroke: #ffffff; stroke-width: 0.75"/>
     <use xlink:href="#m8dacd64cec" x="100.732451" y="233.055917" style="fill: #9467bd; stroke: #ffffff; stroke-width: 0.75"/>
     <use xlink:href="#m8dacd64cec" x="114.056563" y="233.055917" style="fill: #9467bd; stroke: #ffffff; stroke-width: 0.75"/>
     <use xlink:href="#m8dacd64cec" x="127.380676" y="233.078494" style="fill: #9467bd; stroke: #ffffff; stroke-width: 0.75"/>
     <use xlink:href="#m8dacd64cec" x="140.704789" y="233.079551" style="fill: #9467bd; stroke: #ffffff; stroke-width: 0.75"/>
    </g>
   </g>
   <g id="line2d_19"/>
   <g id="line2d_20"/>
   <g id="line2d_21"/>
   <g id="line2d_22"/>
   <g id="line2d_23"/>
   <g id="line2d_24">
    <path d="M 47.436 233.055917 
L 144.702023 233.055917 
" clip-path="url(#p16f7c4c58e)" style="fill: none; stroke-dasharray: 4.44,1.92; stroke-dashoffset: 0; stroke: #000000; stroke-width: 1.2"/>
   </g>
   <g id="patch_3">
    <path d="M 47.436 244.164 
L 47.436 44.2185 
" style="fill: none; stroke: #000000; stroke-linejoin: miter; stroke-linecap: square"/>
   </g>
   <g id="patch_4">
    <path d="M 144.702023 244.164 
L 144.702023 44.2185 
" style="fill: none; stroke: #000000; stroke-linejoin: miter; stroke-linecap: square"/>
   </g>
   <g id="patch_5">
    <path d="M 47.436 244.164 
L 144.702023 244.164 
" style="fill: none; stroke: #000000; stroke-linejoin: miter; stroke-linecap: square"/>
   </g>
   <g id="patch_6">
    <path d="M 47.436 44.2185 
L 144.702023 44.2185 
" style="fill: none; stroke: #000000; stroke-linejoin: miter; stroke-linecap: square"/>
   </g>
   <g id="text_16">
    <!-- Mach 1.5 -->
    <g style="fill: #262626" transform="translate(76.326761 38.2185) scale(0.096 -0.096)">
     <defs>
      <path id="ArialMT-4d" d="M 475 0 
L 475 4581 
L 1388 4581 
L 2472 1338 
Q 2622 884 2691 659 
Q 2769 909 2934 1394 
L 4031 4581 
L 4847 4581 
L 4847 0 
L 4263 0 
L 4263 3834 
L 2931 0 
L 2384 0 
L 1059 3900 
L 1059 0 
L 475 0 
z
" transform="scale(0.015625)"/>
      <path id="ArialMT-61" d="M 2588 409 
Q 2275 144 1986 34 
Q 1697 -75 1366 -75 
Q 819 -75 525 192 
Q 231 459 231 875 
Q 231 1119 342 1320 
Q 453 1522 633 1644 
Q 813 1766 1038 1828 
Q 1203 1872 1538 1913 
Q 2219 1994 2541 2106 
Q 2544 2222 2544 2253 
Q 2544 2597 2384 2738 
Q 2169 2928 1744 2928 
Q 1347 2928 1158 2789 
Q 969 2650 878 2297 
L 328 2372 
Q 403 2725 575 2942 
Q 747 3159 1072 3276 
Q 1397 3394 1825 3394 
Q 2250 3394 2515 3294 
Q 2781 3194 2906 3042 
Q 3031 2891 3081 2659 
Q 3109 2516 3109 2141 
L 3109 1391 
Q 3109 606 3145 398 
Q 3181 191 3288 0 
L 2700 0 
Q 2613 175 2588 409 
z
M 2541 1666 
Q 2234 1541 1622 1453 
Q 1275 1403 1131 1340 
Q 988 1278 909 1158 
Q 831 1038 831 891 
Q 831 666 1001 516 
Q 1172 366 1500 366 
Q 1825 366 2078 508 
Q 2331 650 2450 897 
Q 2541 1088 2541 1459 
L 2541 1666 
z
" transform="scale(0.015625)"/>
      <path id="ArialMT-63" d="M 2588 1216 
L 3141 1144 
Q 3050 572 2676 248 
Q 2303 -75 1759 -75 
Q 1078 -75 664 370 
Q 250 816 250 1647 
Q 250 2184 428 2587 
Q 606 2991 970 3192 
Q 1334 3394 1763 3394 
Q 2303 3394 2647 3120 
Q 2991 2847 3088 2344 
L 2541 2259 
Q 2463 2594 2264 2762 
Q 2066 2931 1784 2931 
Q 1359 2931 1093 2626 
Q 828 2322 828 1663 
Q 828 994 1084 691 
Q 1341 388 1753 388 
Q 2084 388 2306 591 
Q 2528 794 2588 1216 
z
" transform="scale(0.015625)"/>
      <path id="ArialMT-68" d="M 422 0 
L 422 4581 
L 984 4581 
L 984 2938 
Q 1378 3394 1978 3394 
Q 2347 3394 2619 3248 
Q 2891 3103 3008 2847 
Q 3125 2591 3125 2103 
L 3125 0 
L 2563 0 
L 2563 2103 
Q 2563 2525 2380 2717 
Q 2197 2909 1863 2909 
Q 1613 2909 1392 2779 
Q 1172 2650 1078 2428 
Q 984 2206 984 1816 
L 984 0 
L 422 0 
z
" transform="scale(0.015625)"/>
      <path id="ArialMT-20" transform="scale(0.015625)"/>
     </defs>
     <use xlink:href="#ArialMT-4d"/>
     <use xlink:href="#ArialMT-61" x="83.300781"/>
     <use xlink:href="#ArialMT-63" x="138.916016"/>
     <use xlink:href="#ArialMT-68" x="188.916016"/>
     <use xlink:href="#ArialMT-20" x="244.53125"/>
     <use xlink:href="#ArialMT-31" x="272.314453"/>
     <use xlink:href="#ArialMT-2e" x="327.929688"/>
     <use xlink:href="#ArialMT-35" x="355.712891"/>
    </g>
   </g>
  </g>
  <g id="axes_2">
   <g id="patch_7">
    <path d="M 159.631934 244.164 
L 256.897957 244.164 
L 256.897957 44.2185 
L 159.631934 44.2185 
z
" style="fill: #eaeaf2"/>
   </g>
   <g id="matplotlib.axis_3">
    <g id="xtick_4">
     <g id="line2d_25">
      <path d="M 159.631934 244.164 
L 159.631934 44.2185 
" clip-path="url(#p90fd3ed0b3)" style="fill: none; stroke: #ffffff; stroke-width: 0.8; stroke-linecap: round"/>
     </g>
     <g id="text_17">
      <!-- 0 -->
      <g style="fill: #262626" transform="translate(157.185122 258.762875) scale(0.088 -0.088)">
       <use xlink:href="#ArialMT-30"/>
      </g>
     </g>
    </g>
    <g id="xtick_5">
     <g id="line2d_26">
      <path d="M 206.266329 244.164 
L 206.266329 44.2185 
" clip-path="url(#p90fd3ed0b3)" style="fill: none; stroke: #ffffff; stroke-width: 0.8; stroke-linecap: round"/>
     </g>
     <g id="text_18">
      <!-- 0.5 -->
      <g style="fill: #262626" transform="translate(200.150329 258.762875) scale(0.088 -0.088)">
       <use xlink:href="#ArialMT-30"/>
       <use xlink:href="#ArialMT-2e" x="55.615234"/>
       <use xlink:href="#ArialMT-35" x="83.398438"/>
      </g>
     </g>
    </g>
    <g id="xtick_6">
     <g id="line2d_27">
      <path d="M 252.900723 244.164 
L 252.900723 44.2185 
" clip-path="url(#p90fd3ed0b3)" style="fill: none; stroke: #ffffff; stroke-width: 0.8; stroke-linecap: round"/>
     </g>
     <g id="text_19">
      <!-- 1.0 -->
      <g style="fill: #262626" transform="translate(246.784723 258.762875) scale(0.088 -0.088)">
       <use xlink:href="#ArialMT-31"/>
       <use xlink:href="#ArialMT-2e" x="55.615234"/>
       <use xlink:href="#ArialMT-30" x="83.398438"/>
      </g>
     </g>
    </g>
    <g id="text_20">
     <!-- $\theta / \theta_{max}$ -->
     <g style="fill: #262626" transform="translate(193.288946 271.723875) scale(0.096 -0.096)">
      <use xlink:href="#DejaVuSans-Oblique-3b8" transform="translate(0 0.234375)"/>
      <use xlink:href="#DejaVuSans-2f" transform="translate(61.181641 0.234375)"/>
      <use xlink:href="#DejaVuSans-Oblique-3b8" transform="translate(94.873047 0.234375)"/>
      <use xlink:href="#DejaVuSans-Oblique-6d" transform="translate(156.054688 -16.171875) scale(0.7)"/>
      <use xlink:href="#DejaVuSans-Oblique-61" transform="translate(224.243164 -16.171875) scale(0.7)"/>
      <use xlink:href="#DejaVuSans-Oblique-78" transform="translate(267.138672 -16.171875) scale(0.7)"/>
     </g>
    </g>
   </g>
   <g id="matplotlib.axis_4">
    <g id="ytick_11">
     <g id="line2d_28">
      <path d="M 159.631934 244.164 
L 256.897957 244.164 
" clip-path="url(#p90fd3ed0b3)" style="fill: none; stroke: #ffffff; stroke-width: 0.8; stroke-linecap: round"/>
     </g>
    </g>
    <g id="ytick_12">
     <g id="line2d_29">
      <path d="M 159.631934 221.947833 
L 256.897957 221.947833 
" clip-path="url(#p90fd3ed0b3)" style="fill: none; stroke: #ffffff; stroke-width: 0.8; stroke-linecap: round"/>
     </g>
    </g>
    <g id="ytick_13">
     <g id="line2d_30">
      <path d="M 159.631934 199.731667 
L 256.897957 199.731667 
" clip-path="url(#p90fd3ed0b3)" style="fill: none; stroke: #ffffff; stroke-width: 0.8; stroke-linecap: round"/>
     </g>
    </g>
    <g id="ytick_14">
     <g id="line2d_31">
      <path d="M 159.631934 177.5155 
L 256.897957 177.5155 
" clip-path="url(#p90fd3ed0b3)" style="fill: none; stroke: #ffffff; stroke-width: 0.8; stroke-linecap: round"/>
     </g>
    </g>
    <g id="ytick_15">
     <g id="line2d_32">
      <path d="M 159.631934 155.299333 
L 256.897957 155.299333 
" clip-path="url(#p90fd3ed0b3)" style="fill: none; stroke: #ffffff; stroke-width: 0.8; stroke-linecap: round"/>
     </g>
    </g>
    <g id="ytick_16">
     <g id="line2d_33">
      <path d="M 159.631934 133.083167 
L 256.897957 133.083167 
" clip-path="url(#p90fd3ed0b3)" style="fill: none; stroke: #ffffff; stroke-width: 0.8; stroke-linecap: round"/>
     </g>
    </g>
    <g id="ytick_17">
     <g id="line2d_34">
      <path d="M 159.631934 110.867 
L 256.897957 110.867 
" clip-path="url(#p90fd3ed0b3)" style="fill: none; stroke: #ffffff; stroke-width: 0.8; stroke-linecap: round"/>
     </g>
    </g>
    <g id="ytick_18">
     <g id="line2d_35">
      <path d="M 159.631934 88.650833 
L 256.897957 88.650833 
" clip-path="url(#p90fd3ed0b3)" style="fill: none; stroke: #ffffff; stroke-width: 0.8; stroke-linecap: round"/>
     </g>
    </g>
    <g id="ytick_19">
     <g id="line2d_36">
      <path d="M 159.631934 66.434667 
L 256.897957 66.434667 
" clip-path="url(#p90fd3ed0b3)" style="fill: none; stroke: #ffffff; stroke-width: 0.8; stroke-linecap: round"/>
     </g>
    </g>
    <g id="ytick_20">
     <g id="line2d_37">
      <path d="M 159.631934 44.2185 
L 256.897957 44.2185 
" clip-path="url(#p90fd3ed0b3)" style="fill: none; stroke: #ffffff; stroke-width: 0.8; stroke-linecap: round"/>
     </g>
    </g>
   </g>
   <g id="line2d_38">
    <path d="M 172.956047 233.960063 
L 186.28016 233.750172 
L 199.604273 233.707205 
L 212.928385 233.66667 
L 226.252498 233.59437 
L 239.576611 233.563715 
L 252.900723 233.49933 
" clip-path="url(#p90fd3ed0b3)" style="fill: none; stroke: #1f77b4; stroke-width: 1.5; stroke-linecap: round"/>
    <g clip-path="url(#p90fd3ed0b3)">
     <use xlink:href="#mee9e42c368" x="172.956047" y="233.960063" style="fill: #1f77b4; stroke: #ffffff; stroke-width: 0.75"/>
     <use xlink:href="#mee9e42c368" x="186.28016" y="233.750172" style="fill: #1f77b4; stroke: #ffffff; stroke-width: 0.75"/>
     <use xlink:href="#mee9e42c368" x="199.604273" y="233.707205" style="fill: #1f77b4; stroke: #ffffff; stroke-width: 0.75"/>
     <use xlink:href="#mee9e42c368" x="212.928385" y="233.66667" style="fill: #1f77b4; stroke: #ffffff; stroke-width: 0.75"/>
     <use xlink:href="#mee9e42c368" x="226.252498" y="233.59437" style="fill: #1f77b4; stroke: #ffffff; stroke-width: 0.75"/>
     <use xlink:href="#mee9e42c368" x="239.576611" y="233.563715" style="fill: #1f77b4; stroke: #ffffff; stroke-width: 0.75"/>
     <use xlink:href="#mee9e42c368" x="252.900723" y="233.49933" style="fill: #1f77b4; stroke: #ffffff; stroke-width: 0.75"/>
    </g>
   </g>
   <g id="line2d_39">
    <path d="M 172.956047 233.47247 
L 186.28016 233.418926 
L 199.604273 233.391396 
L 212.928385 233.372161 
L 226.252498 233.343904 
L 239.576611 233.314244 
L 252.900723 233.287818 
" clip-path="url(#p90fd3ed0b3)" style="fill: none; stroke: #ff7f0e; stroke-width: 1.5; stroke-linecap: round"/>
    <g clip-path="url(#p90fd3ed0b3)">
     <use xlink:href="#ma301ae7af5" x="172.956047" y="233.47247" style="fill: #ff7f0e; stroke: #ffffff; stroke-width: 0.75"/>
     <use xlink:href="#ma301ae7af5" x="186.28016" y="233.418926" style="fill: #ff7f0e; stroke: #ffffff; stroke-width: 0.75"/>
     <use xlink:href="#ma301ae7af5" x="199.604273" y="233.391396" style="fill: #ff7f0e; stroke: #ffffff; stroke-width: 0.75"/>
     <use xlink:href="#ma301ae7af5" x="212.928385" y="233.372161" style="fill: #ff7f0e; stroke: #ffffff; stroke-width: 0.75"/>
     <use xlink:href="#ma301ae7af5" x="226.252498" y="233.343904" style="fill: #ff7f0e; stroke: #ffffff; stroke-width: 0.75"/>
     <use xlink:href="#ma301ae7af5" x="239.576611" y="233.314244" style="fill: #ff7f0e; stroke: #ffffff; stroke-width: 0.75"/>
     <use xlink:href="#ma301ae7af5" x="252.900723" y="233.287818" style="fill: #ff7f0e; stroke: #ffffff; stroke-width: 0.75"/>
    </g>
   </g>
   <g id="line2d_40">
    <path d="M 172.956047 233.340739 
L 186.28016 233.205018 
L 199.604273 233.248098 
L 212.928385 233.216903 
L 226.252498 233.202351 
L 239.576611 233.1866 
L 252.900723 233.173712 
" clip-path="url(#p90fd3ed0b3)" style="fill: none; stroke: #2ca02c; stroke-width: 1.5; stroke-linecap: round"/>
    <g clip-path="url(#p90fd3ed0b3)">
     <use xlink:href="#ma2faa9fa93" x="172.956047" y="233.340739" style="fill: #2ca02c; stroke: #ffffff; stroke-width: 0.75"/>
     <use xlink:href="#ma2faa9fa93" x="186.28016" y="233.205018" style="fill: #2ca02c; stroke: #ffffff; stroke-width: 0.75"/>
     <use xlink:href="#ma2faa9fa93" x="199.604273" y="233.248098" style="fill: #2ca02c; stroke: #ffffff; stroke-width: 0.75"/>
     <use xlink:href="#ma2faa9fa93" x="212.928385" y="233.216903" style="fill: #2ca02c; stroke: #ffffff; stroke-width: 0.75"/>
     <use xlink:href="#ma2faa9fa93" x="226.252498" y="233.202351" style="fill: #2ca02c; stroke: #ffffff; stroke-width: 0.75"/>
     <use xlink:href="#ma2faa9fa93" x="239.576611" y="233.1866" style="fill: #2ca02c; stroke: #ffffff; stroke-width: 0.75"/>
     <use xlink:href="#ma2faa9fa93" x="252.900723" y="233.173712" style="fill: #2ca02c; stroke: #ffffff; stroke-width: 0.75"/>
    </g>
   </g>
   <g id="line2d_41">
    <path d="M 172.956047 233.194768 
L 186.28016 233.204024 
L 199.604273 233.132261 
L 212.928385 233.13641 
L 226.252498 233.139751 
L 239.576611 233.121645 
L 252.900723 233.115191 
" clip-path="url(#p90fd3ed0b3)" style="fill: none; stroke: #d62728; stroke-width: 1.5; stroke-linecap: round"/>
    <g clip-path="url(#p90fd3ed0b3)">
     <use xlink:href="#m8e1ee63eb7" x="172.956047" y="233.194768" style="fill: #d62728; stroke: #ffffff; stroke-width: 0.75"/>
     <use xlink:href="#m8e1ee63eb7" x="186.28016" y="233.204024" style="fill: #d62728; stroke: #ffffff; stroke-width: 0.75"/>
     <use xlink:href="#m8e1ee63eb7" x="199.604273" y="233.132261" style="fill: #d62728; stroke: #ffffff; stroke-width: 0.75"/>
     <use xlink:href="#m8e1ee63eb7" x="212.928385" y="233.13641" style="fill: #d62728; stroke: #ffffff; stroke-width: 0.75"/>
     <use xlink:href="#m8e1ee63eb7" x="226.252498" y="233.139751" style="fill: #d62728; stroke: #ffffff; stroke-width: 0.75"/>
     <use xlink:href="#m8e1ee63eb7" x="239.576611" y="233.121645" style="fill: #d62728; stroke: #ffffff; stroke-width: 0.75"/>
     <use xlink:href="#m8e1ee63eb7" x="252.900723" y="233.115191" style="fill: #d62728; stroke: #ffffff; stroke-width: 0.75"/>
    </g>
   </g>
   <g id="line2d_42">
    <path d="M 172.956047 233.194768 
L 186.28016 233.12948 
L 199.604273 233.094892 
L 212.928385 233.096163 
L 226.252498 233.076836 
L 239.576611 233.077913 
L 252.900723 233.09133 
" clip-path="url(#p90fd3ed0b3)" style="fill: none; stroke: #9467bd; stroke-width: 1.5; stroke-linecap: round"/>
    <g clip-path="url(#p90fd3ed0b3)">
     <use xlink:href="#m8dacd64cec" x="172.956047" y="233.194768" style="fill: #9467bd; stroke: #ffffff; stroke-width: 0.75"/>
     <use xlink:href="#m8dacd64cec" x="186.28016" y="233.12948" style="fill: #9467bd; stroke: #ffffff; stroke-width: 0.75"/>
     <use xlink:href="#m8dacd64cec" x="199.604273" y="233.094892" style="fill: #9467bd; stroke: #ffffff; stroke-width: 0.75"/>
     <use xlink:href="#m8dacd64cec" x="212.928385" y="233.096163" style="fill: #9467bd; stroke: #ffffff; stroke-width: 0.75"/>
     <use xlink:href="#m8dacd64cec" x="226.252498" y="233.076836" style="fill: #9467bd; stroke: #ffffff; stroke-width: 0.75"/>
     <use xlink:href="#m8dacd64cec" x="239.576611" y="233.077913" style="fill: #9467bd; stroke: #ffffff; stroke-width: 0.75"/>
     <use xlink:href="#m8dacd64cec" x="252.900723" y="233.09133" style="fill: #9467bd; stroke: #ffffff; stroke-width: 0.75"/>
    </g>
   </g>
   <g id="line2d_43"/>
   <g id="line2d_44"/>
   <g id="line2d_45"/>
   <g id="line2d_46"/>
   <g id="line2d_47"/>
   <g id="line2d_48">
    <path d="M 159.631934 233.055917 
L 256.897957 233.055917 
" clip-path="url(#p90fd3ed0b3)" style="fill: none; stroke-dasharray: 4.44,1.92; stroke-dashoffset: 0; stroke: #000000; stroke-width: 1.2"/>
   </g>
   <g id="patch_8">
    <path d="M 159.631934 244.164 
L 159.631934 44.2185 
" style="fill: none; stroke: #000000; stroke-linejoin: miter; stroke-linecap: square"/>
   </g>
   <g id="patch_9">
    <path d="M 256.897957 244.164 
L 256.897957 44.2185 
" style="fill: none; stroke: #000000; stroke-linejoin: miter; stroke-linecap: square"/>
   </g>
   <g id="patch_10">
    <path d="M 159.631934 244.164 
L 256.897957 244.164 
" style="fill: none; stroke: #000000; stroke-linejoin: miter; stroke-linecap: square"/>
   </g>
   <g id="patch_11">
    <path d="M 159.631934 44.2185 
L 256.897957 44.2185 
" style="fill: none; stroke: #000000; stroke-linejoin: miter; stroke-linecap: square"/>
   </g>
   <g id="text_21">
    <!-- Mach 2.0 -->
    <g style="fill: #262626" transform="translate(188.522696 38.2185) scale(0.096 -0.096)">
     <use xlink:href="#ArialMT-4d"/>
     <use xlink:href="#ArialMT-61" x="83.300781"/>
     <use xlink:href="#ArialMT-63" x="138.916016"/>
     <use xlink:href="#ArialMT-68" x="188.916016"/>
     <use xlink:href="#ArialMT-20" x="244.53125"/>
     <use xlink:href="#ArialMT-32" x="272.314453"/>
     <use xlink:href="#ArialMT-2e" x="327.929688"/>
     <use xlink:href="#ArialMT-30" x="355.712891"/>
    </g>
   </g>
  </g>
  <g id="axes_3">
   <g id="patch_12">
    <path d="M 271.827869 244.164 
L 369.093892 244.164 
L 369.093892 44.2185 
L 271.827869 44.2185 
z
" style="fill: #eaeaf2"/>
   </g>
   <g id="matplotlib.axis_5">
    <g id="xtick_7">
     <g id="line2d_49">
      <path d="M 271.827869 244.164 
L 271.827869 44.2185 
" clip-path="url(#p5422b56d16)" style="fill: none; stroke: #ffffff; stroke-width: 0.8; stroke-linecap: round"/>
     </g>
     <g id="text_22">
      <!-- 0 -->
      <g style="fill: #262626" transform="translate(269.381056 258.762875) scale(0.088 -0.088)">
       <use xlink:href="#ArialMT-30"/>
      </g>
     </g>
    </g>
    <g id="xtick_8">
     <g id="line2d_50">
      <path d="M 318.462263 244.164 
L 318.462263 44.2185 
" clip-path="url(#p5422b56d16)" style="fill: none; stroke: #ffffff; stroke-width: 0.8; stroke-linecap: round"/>
     </g>
     <g id="text_23">
      <!-- 0.5 -->
      <g style="fill: #262626" transform="translate(312.346263 258.762875) scale(0.088 -0.088)">
       <use xlink:href="#ArialMT-30"/>
       <use xlink:href="#ArialMT-2e" x="55.615234"/>
       <use xlink:href="#ArialMT-35" x="83.398438"/>
      </g>
     </g>
    </g>
    <g id="xtick_9">
     <g id="line2d_51">
      <path d="M 365.096658 244.164 
L 365.096658 44.2185 
" clip-path="url(#p5422b56d16)" style="fill: none; stroke: #ffffff; stroke-width: 0.8; stroke-linecap: round"/>
     </g>
     <g id="text_24">
      <!-- 1.0 -->
      <g style="fill: #262626" transform="translate(358.980658 258.762875) scale(0.088 -0.088)">
       <use xlink:href="#ArialMT-31"/>
       <use xlink:href="#ArialMT-2e" x="55.615234"/>
       <use xlink:href="#ArialMT-30" x="83.398438"/>
      </g>
     </g>
    </g>
    <g id="text_25">
     <!-- $\theta / \theta_{max}$ -->
     <g style="fill: #262626" transform="translate(305.48488 271.723875) scale(0.096 -0.096)">
      <use xlink:href="#DejaVuSans-Oblique-3b8" transform="translate(0 0.234375)"/>
      <use xlink:href="#DejaVuSans-2f" transform="translate(61.181641 0.234375)"/>
      <use xlink:href="#DejaVuSans-Oblique-3b8" transform="translate(94.873047 0.234375)"/>
      <use xlink:href="#DejaVuSans-Oblique-6d" transform="translate(156.054688 -16.171875) scale(0.7)"/>
      <use xlink:href="#DejaVuSans-Oblique-61" transform="translate(224.243164 -16.171875) scale(0.7)"/>
      <use xlink:href="#DejaVuSans-Oblique-78" transform="translate(267.138672 -16.171875) scale(0.7)"/>
     </g>
    </g>
   </g>
   <g id="matplotlib.axis_6">
    <g id="ytick_21">
     <g id="line2d_52">
      <path d="M 271.827869 244.164 
L 369.093892 244.164 
" clip-path="url(#p5422b56d16)" style="fill: none; stroke: #ffffff; stroke-width: 0.8; stroke-linecap: round"/>
     </g>
    </g>
    <g id="ytick_22">
     <g id="line2d_53">
      <path d="M 271.827869 221.947833 
L 369.093892 221.947833 
" clip-path="url(#p5422b56d16)" style="fill: none; stroke: #ffffff; stroke-width: 0.8; stroke-linecap: round"/>
     </g>
    </g>
    <g id="ytick_23">
     <g id="line2d_54">
      <path d="M 271.827869 199.731667 
L 369.093892 199.731667 
" clip-path="url(#p5422b56d16)" style="fill: none; stroke: #ffffff; stroke-width: 0.8; stroke-linecap: round"/>
     </g>
    </g>
    <g id="ytick_24">
     <g id="line2d_55">
      <path d="M 271.827869 177.5155 
L 369.093892 177.5155 
" clip-path="url(#p5422b56d16)" style="fill: none; stroke: #ffffff; stroke-width: 0.8; stroke-linecap: round"/>
     </g>
    </g>
    <g id="ytick_25">
     <g id="line2d_56">
      <path d="M 271.827869 155.299333 
L 369.093892 155.299333 
" clip-path="url(#p5422b56d16)" style="fill: none; stroke: #ffffff; stroke-width: 0.8; stroke-linecap: round"/>
     </g>
    </g>
    <g id="ytick_26">
     <g id="line2d_57">
      <path d="M 271.827869 133.083167 
L 369.093892 133.083167 
" clip-path="url(#p5422b56d16)" style="fill: none; stroke: #ffffff; stroke-width: 0.8; stroke-linecap: round"/>
     </g>
    </g>
    <g id="ytick_27">
     <g id="line2d_58">
      <path d="M 271.827869 110.867 
L 369.093892 110.867 
" clip-path="url(#p5422b56d16)" style="fill: none; stroke: #ffffff; stroke-width: 0.8; stroke-linecap: round"/>
     </g>
    </g>
    <g id="ytick_28">
     <g id="line2d_59">
      <path d="M 271.827869 88.650833 
L 369.093892 88.650833 
" clip-path="url(#p5422b56d16)" style="fill: none; stroke: #ffffff; stroke-width: 0.8; stroke-linecap: round"/>
     </g>
    </g>
    <g id="ytick_29">
     <g id="line2d_60">
      <path d="M 271.827869 66.434667 
L 369.093892 66.434667 
" clip-path="url(#p5422b56d16)" style="fill: none; stroke: #ffffff; stroke-width: 0.8; stroke-linecap: round"/>
     </g>
    </g>
    <g id="ytick_30">
     <g id="line2d_61">
      <path d="M 271.827869 44.2185 
L 369.093892 44.2185 
" clip-path="url(#p5422b56d16)" style="fill: none; stroke: #ffffff; stroke-width: 0.8; stroke-linecap: round"/>
     </g>
    </g>
   </g>
   <g id="line2d_62">
    <path d="M 285.151982 235.267062 
L 298.476094 234.59893 
L 311.800207 234.345402 
L 325.12432 234.287992 
L 338.448432 234.164784 
L 351.772545 233.980445 
L 365.096658 233.970197 
" clip-path="url(#p5422b56d16)" style="fill: none; stroke: #1f77b4; stroke-width: 1.5; stroke-linecap: round"/>
    <g clip-path="url(#p5422b56d16)">
     <use xlink:href="#mee9e42c368" x="285.151982" y="235.267062" style="fill: #1f77b4; stroke: #ffffff; stroke-width: 0.75"/>
     <use xlink:href="#mee9e42c368" x="298.476094" y="234.59893" style="fill: #1f77b4; stroke: #ffffff; stroke-width: 0.75"/>
     <use xlink:href="#mee9e42c368" x="311.800207" y="234.345402" style="fill: #1f77b4; stroke: #ffffff; stroke-width: 0.75"/>
     <use xlink:href="#mee9e42c368" x="325.12432" y="234.287992" style="fill: #1f77b4; stroke: #ffffff; stroke-width: 0.75"/>
     <use xlink:href="#mee9e42c368" x="338.448432" y="234.164784" style="fill: #1f77b4; stroke: #ffffff; stroke-width: 0.75"/>
     <use xlink:href="#mee9e42c368" x="351.772545" y="233.980445" style="fill: #1f77b4; stroke: #ffffff; stroke-width: 0.75"/>
     <use xlink:href="#mee9e42c368" x="365.096658" y="233.970197" style="fill: #1f77b4; stroke: #ffffff; stroke-width: 0.75"/>
    </g>
   </g>
   <g id="line2d_63">
    <path d="M 285.151982 234.279798 
L 298.476094 234.003721 
L 311.800207 233.902653 
L 325.12432 233.741388 
L 338.448432 233.701495 
L 351.772545 233.543226 
L 365.096658 233.533319 
" clip-path="url(#p5422b56d16)" style="fill: none; stroke: #ff7f0e; stroke-width: 1.5; stroke-linecap: round"/>
    <g clip-path="url(#p5422b56d16)">
     <use xlink:href="#ma301ae7af5" x="285.151982" y="234.279798" style="fill: #ff7f0e; stroke: #ffffff; stroke-width: 0.75"/>
     <use xlink:href="#ma301ae7af5" x="298.476094" y="234.003721" style="fill: #ff7f0e; stroke: #ffffff; stroke-width: 0.75"/>
     <use xlink:href="#ma301ae7af5" x="311.800207" y="233.902653" style="fill: #ff7f0e; stroke: #ffffff; stroke-width: 0.75"/>
     <use xlink:href="#ma301ae7af5" x="325.12432" y="233.741388" style="fill: #ff7f0e; stroke: #ffffff; stroke-width: 0.75"/>
     <use xlink:href="#ma301ae7af5" x="338.448432" y="233.701495" style="fill: #ff7f0e; stroke: #ffffff; stroke-width: 0.75"/>
     <use xlink:href="#ma301ae7af5" x="351.772545" y="233.543226" style="fill: #ff7f0e; stroke: #ffffff; stroke-width: 0.75"/>
     <use xlink:href="#ma301ae7af5" x="365.096658" y="233.533319" style="fill: #ff7f0e; stroke: #ffffff; stroke-width: 0.75"/>
    </g>
   </g>
   <g id="line2d_64">
    <path d="M 285.151982 233.740659 
L 298.476094 233.648111 
L 311.800207 233.603576 
L 325.12432 233.458421 
L 338.448432 233.391068 
L 351.772545 233.372533 
L 365.096658 233.348617 
" clip-path="url(#p5422b56d16)" style="fill: none; stroke: #2ca02c; stroke-width: 1.5; stroke-linecap: round"/>
    <g clip-path="url(#p5422b56d16)">
     <use xlink:href="#ma2faa9fa93" x="285.151982" y="233.740659" style="fill: #2ca02c; stroke: #ffffff; stroke-width: 0.75"/>
     <use xlink:href="#ma2faa9fa93" x="298.476094" y="233.648111" style="fill: #2ca02c; stroke: #ffffff; stroke-width: 0.75"/>
     <use xlink:href="#ma2faa9fa93" x="311.800207" y="233.603576" style="fill: #2ca02c; stroke: #ffffff; stroke-width: 0.75"/>
     <use xlink:href="#ma2faa9fa93" x="325.12432" y="233.458421" style="fill: #2ca02c; stroke: #ffffff; stroke-width: 0.75"/>
     <use xlink:href="#ma2faa9fa93" x="338.448432" y="233.391068" style="fill: #2ca02c; stroke: #ffffff; stroke-width: 0.75"/>
     <use xlink:href="#ma2faa9fa93" x="351.772545" y="233.372533" style="fill: #2ca02c; stroke: #ffffff; stroke-width: 0.75"/>
     <use xlink:href="#ma2faa9fa93" x="365.096658" y="233.348617" style="fill: #2ca02c; stroke: #ffffff; stroke-width: 0.75"/>
    </g>
   </g>
   <g id="line2d_65">
    <path d="M 285.151982 233.469677 
L 298.476094 233.433501 
L 311.800207 233.41809 
L 325.12432 233.266325 
L 338.448432 233.240486 
L 351.772545 233.189854 
L 365.096658 233.177668 
" clip-path="url(#p5422b56d16)" style="fill: none; stroke: #d62728; stroke-width: 1.5; stroke-linecap: round"/>
    <g clip-path="url(#p5422b56d16)">
     <use xlink:href="#m8e1ee63eb7" x="285.151982" y="233.469677" style="fill: #d62728; stroke: #ffffff; stroke-width: 0.75"/>
     <use xlink:href="#m8e1ee63eb7" x="298.476094" y="233.433501" style="fill: #d62728; stroke: #ffffff; stroke-width: 0.75"/>
     <use xlink:href="#m8e1ee63eb7" x="311.800207" y="233.41809" style="fill: #d62728; stroke: #ffffff; stroke-width: 0.75"/>
     <use xlink:href="#m8e1ee63eb7" x="325.12432" y="233.266325" style="fill: #d62728; stroke: #ffffff; stroke-width: 0.75"/>
     <use xlink:href="#m8e1ee63eb7" x="338.448432" y="233.240486" style="fill: #d62728; stroke: #ffffff; stroke-width: 0.75"/>
     <use xlink:href="#m8e1ee63eb7" x="351.772545" y="233.189854" style="fill: #d62728; stroke: #ffffff; stroke-width: 0.75"/>
     <use xlink:href="#m8e1ee63eb7" x="365.096658" y="233.177668" style="fill: #d62728; stroke: #ffffff; stroke-width: 0.75"/>
    </g>
   </g>
   <g id="line2d_66">
    <path d="M 285.151982 233.161187 
L 298.476094 233.266705 
L 311.800207 233.183559 
L 325.12432 233.136047 
L 338.448432 233.24431 
L 351.772545 233.111287 
L 365.096658 233.183661 
" clip-path="url(#p5422b56d16)" style="fill: none; stroke: #9467bd; stroke-width: 1.5; stroke-linecap: round"/>
    <g clip-path="url(#p5422b56d16)">
     <use xlink:href="#m8dacd64cec" x="285.151982" y="233.161187" style="fill: #9467bd; stroke: #ffffff; stroke-width: 0.75"/>
     <use xlink:href="#m8dacd64cec" x="298.476094" y="233.266705" style="fill: #9467bd; stroke: #ffffff; stroke-width: 0.75"/>
     <use xlink:href="#m8dacd64cec" x="311.800207" y="233.183559" style="fill: #9467bd; stroke: #ffffff; stroke-width: 0.75"/>
     <use xlink:href="#m8dacd64cec" x="325.12432" y="233.136047" style="fill: #9467bd; stroke: #ffffff; stroke-width: 0.75"/>
     <use xlink:href="#m8dacd64cec" x="338.448432" y="233.24431" style="fill: #9467bd; stroke: #ffffff; stroke-width: 0.75"/>
     <use xlink:href="#m8dacd64cec" x="351.772545" y="233.111287" style="fill: #9467bd; stroke: #ffffff; stroke-width: 0.75"/>
     <use xlink:href="#m8dacd64cec" x="365.096658" y="233.183661" style="fill: #9467bd; stroke: #ffffff; stroke-width: 0.75"/>
    </g>
   </g>
   <g id="line2d_67"/>
   <g id="line2d_68"/>
   <g id="line2d_69"/>
   <g id="line2d_70"/>
   <g id="line2d_71"/>
   <g id="line2d_72">
    <path d="M 271.827869 233.055917 
L 369.093892 233.055917 
" clip-path="url(#p5422b56d16)" style="fill: none; stroke-dasharray: 4.44,1.92; stroke-dashoffset: 0; stroke: #000000; stroke-width: 1.2"/>
   </g>
   <g id="patch_13">
    <path d="M 271.827869 244.164 
L 271.827869 44.2185 
" style="fill: none; stroke: #000000; stroke-linejoin: miter; stroke-linecap: square"/>
   </g>
   <g id="patch_14">
    <path d="M 369.093892 244.164 
L 369.093892 44.2185 
" style="fill: none; stroke: #000000; stroke-linejoin: miter; stroke-linecap: square"/>
   </g>
   <g id="patch_15">
    <path d="M 271.827869 244.164 
L 369.093892 244.164 
" style="fill: none; stroke: #000000; stroke-linejoin: miter; stroke-linecap: square"/>
   </g>
   <g id="patch_16">
    <path d="M 271.827869 44.2185 
L 369.093892 44.2185 
" style="fill: none; stroke: #000000; stroke-linejoin: miter; stroke-linecap: square"/>
   </g>
   <g id="text_26">
    <!-- Mach 3.0 -->
    <g style="fill: #262626" transform="translate(300.71863 38.2185) scale(0.096 -0.096)">
     <defs>
      <path id="ArialMT-33" d="M 269 1209 
L 831 1284 
Q 928 806 1161 595 
Q 1394 384 1728 384 
Q 2125 384 2398 659 
Q 2672 934 2672 1341 
Q 2672 1728 2419 1979 
Q 2166 2231 1775 2231 
Q 1616 2231 1378 2169 
L 1441 2663 
Q 1497 2656 1531 2656 
Q 1891 2656 2178 2843 
Q 2466 3031 2466 3422 
Q 2466 3731 2256 3934 
Q 2047 4138 1716 4138 
Q 1388 4138 1169 3931 
Q 950 3725 888 3313 
L 325 3413 
Q 428 3978 793 4289 
Q 1159 4600 1703 4600 
Q 2078 4600 2393 4439 
Q 2709 4278 2876 4000 
Q 3044 3722 3044 3409 
Q 3044 3113 2884 2869 
Q 2725 2625 2413 2481 
Q 2819 2388 3044 2092 
Q 3269 1797 3269 1353 
Q 3269 753 2831 336 
Q 2394 -81 1725 -81 
Q 1122 -81 723 278 
Q 325 638 269 1209 
z
" transform="scale(0.015625)"/>
     </defs>
     <use xlink:href="#ArialMT-4d"/>
     <use xlink:href="#ArialMT-61" x="83.300781"/>
     <use xlink:href="#ArialMT-63" x="138.916016"/>
     <use xlink:href="#ArialMT-68" x="188.916016"/>
     <use xlink:href="#ArialMT-20" x="244.53125"/>
     <use xlink:href="#ArialMT-33" x="272.314453"/>
     <use xlink:href="#ArialMT-2e" x="327.929688"/>
     <use xlink:href="#ArialMT-30" x="355.712891"/>
    </g>
   </g>
  </g>
  <g id="axes_4">
   <g id="patch_17">
    <path d="M 384.023803 244.164 
L 481.289826 244.164 
L 481.289826 44.2185 
L 384.023803 44.2185 
z
" style="fill: #eaeaf2"/>
   </g>
   <g id="matplotlib.axis_7">
    <g id="xtick_10">
     <g id="line2d_73">
      <path d="M 384.023803 244.164 
L 384.023803 44.2185 
" clip-path="url(#pf823d55cec)" style="fill: none; stroke: #ffffff; stroke-width: 0.8; stroke-linecap: round"/>
     </g>
     <g id="text_27">
      <!-- 0 -->
      <g style="fill: #262626" transform="translate(381.576991 258.762875) scale(0.088 -0.088)">
       <use xlink:href="#ArialMT-30"/>
      </g>
     </g>
    </g>
    <g id="xtick_11">
     <g id="line2d_74">
      <path d="M 430.658198 244.164 
L 430.658198 44.2185 
" clip-path="url(#pf823d55cec)" style="fill: none; stroke: #ffffff; stroke-width: 0.8; stroke-linecap: round"/>
     </g>
     <g id="text_28">
      <!-- 0.5 -->
      <g style="fill: #262626" transform="translate(424.542198 258.762875) scale(0.088 -0.088)">
       <use xlink:href="#ArialMT-30"/>
       <use xlink:href="#ArialMT-2e" x="55.615234"/>
       <use xlink:href="#ArialMT-35" x="83.398438"/>
      </g>
     </g>
    </g>
    <g id="xtick_12">
     <g id="line2d_75">
      <path d="M 477.292592 244.164 
L 477.292592 44.2185 
" clip-path="url(#pf823d55cec)" style="fill: none; stroke: #ffffff; stroke-width: 0.8; stroke-linecap: round"/>
     </g>
     <g id="text_29">
      <!-- 1.0 -->
      <g style="fill: #262626" transform="translate(471.176592 258.762875) scale(0.088 -0.088)">
       <use xlink:href="#ArialMT-31"/>
       <use xlink:href="#ArialMT-2e" x="55.615234"/>
       <use xlink:href="#ArialMT-30" x="83.398438"/>
      </g>
     </g>
    </g>
    <g id="text_30">
     <!-- $\theta / \theta_{max}$ -->
     <g style="fill: #262626" transform="translate(417.680815 271.723875) scale(0.096 -0.096)">
      <use xlink:href="#DejaVuSans-Oblique-3b8" transform="translate(0 0.234375)"/>
      <use xlink:href="#DejaVuSans-2f" transform="translate(61.181641 0.234375)"/>
      <use xlink:href="#DejaVuSans-Oblique-3b8" transform="translate(94.873047 0.234375)"/>
      <use xlink:href="#DejaVuSans-Oblique-6d" transform="translate(156.054688 -16.171875) scale(0.7)"/>
      <use xlink:href="#DejaVuSans-Oblique-61" transform="translate(224.243164 -16.171875) scale(0.7)"/>
      <use xlink:href="#DejaVuSans-Oblique-78" transform="translate(267.138672 -16.171875) scale(0.7)"/>
     </g>
    </g>
   </g>
   <g id="matplotlib.axis_8">
    <g id="ytick_31">
     <g id="line2d_76">
      <path d="M 384.023803 244.164 
L 481.289826 244.164 
" clip-path="url(#pf823d55cec)" style="fill: none; stroke: #ffffff; stroke-width: 0.8; stroke-linecap: round"/>
     </g>
    </g>
    <g id="ytick_32">
     <g id="line2d_77">
      <path d="M 384.023803 221.947833 
L 481.289826 221.947833 
" clip-path="url(#pf823d55cec)" style="fill: none; stroke: #ffffff; stroke-width: 0.8; stroke-linecap: round"/>
     </g>
    </g>
    <g id="ytick_33">
     <g id="line2d_78">
      <path d="M 384.023803 199.731667 
L 481.289826 199.731667 
" clip-path="url(#pf823d55cec)" style="fill: none; stroke: #ffffff; stroke-width: 0.8; stroke-linecap: round"/>
     </g>
    </g>
    <g id="ytick_34">
     <g id="line2d_79">
      <path d="M 384.023803 177.5155 
L 481.289826 177.5155 
" clip-path="url(#pf823d55cec)" style="fill: none; stroke: #ffffff; stroke-width: 0.8; stroke-linecap: round"/>
     </g>
    </g>
    <g id="ytick_35">
     <g id="line2d_80">
      <path d="M 384.023803 155.299333 
L 481.289826 155.299333 
" clip-path="url(#pf823d55cec)" style="fill: none; stroke: #ffffff; stroke-width: 0.8; stroke-linecap: round"/>
     </g>
    </g>
    <g id="ytick_36">
     <g id="line2d_81">
      <path d="M 384.023803 133.083167 
L 481.289826 133.083167 
" clip-path="url(#pf823d55cec)" style="fill: none; stroke: #ffffff; stroke-width: 0.8; stroke-linecap: round"/>
     </g>
    </g>
    <g id="ytick_37">
     <g id="line2d_82">
      <path d="M 384.023803 110.867 
L 481.289826 110.867 
" clip-path="url(#pf823d55cec)" style="fill: none; stroke: #ffffff; stroke-width: 0.8; stroke-linecap: round"/>
     </g>
    </g>
    <g id="ytick_38">
     <g id="line2d_83">
      <path d="M 384.023803 88.650833 
L 481.289826 88.650833 
" clip-path="url(#pf823d55cec)" style="fill: none; stroke: #ffffff; stroke-width: 0.8; stroke-linecap: round"/>
     </g>
    </g>
    <g id="ytick_39">
     <g id="line2d_84">
      <path d="M 384.023803 66.434667 
L 481.289826 66.434667 
" clip-path="url(#pf823d55cec)" style="fill: none; stroke: #ffffff; stroke-width: 0.8; stroke-linecap: round"/>
     </g>
    </g>
    <g id="ytick_40">
     <g id="line2d_85">
      <path d="M 384.023803 44.2185 
L 481.289826 44.2185 
" clip-path="url(#pf823d55cec)" style="fill: none; stroke: #ffffff; stroke-width: 0.8; stroke-linecap: round"/>
     </g>
    </g>
   </g>
   <g id="line2d_86">
    <path d="M 397.347916 238.090735 
L 410.672029 237.299569 
L 423.996142 236.822441 
L 437.320254 236.623258 
L 450.644367 236.425701 
L 463.96848 236.394998 
L 477.292592 236.302341 
" clip-path="url(#pf823d55cec)" style="fill: none; stroke: #1f77b4; stroke-width: 1.5; stroke-linecap: round"/>
    <g clip-path="url(#pf823d55cec)">
     <use xlink:href="#mee9e42c368" x="397.347916" y="238.090735" style="fill: #1f77b4; stroke: #ffffff; stroke-width: 0.75"/>
     <use xlink:href="#mee9e42c368" x="410.672029" y="237.299569" style="fill: #1f77b4; stroke: #ffffff; stroke-width: 0.75"/>
     <use xlink:href="#mee9e42c368" x="423.996142" y="236.822441" style="fill: #1f77b4; stroke: #ffffff; stroke-width: 0.75"/>
     <use xlink:href="#mee9e42c368" x="437.320254" y="236.623258" style="fill: #1f77b4; stroke: #ffffff; stroke-width: 0.75"/>
     <use xlink:href="#mee9e42c368" x="450.644367" y="236.425701" style="fill: #1f77b4; stroke: #ffffff; stroke-width: 0.75"/>
     <use xlink:href="#mee9e42c368" x="463.96848" y="236.394998" style="fill: #1f77b4; stroke: #ffffff; stroke-width: 0.75"/>
     <use xlink:href="#mee9e42c368" x="477.292592" y="236.302341" style="fill: #1f77b4; stroke: #ffffff; stroke-width: 0.75"/>
    </g>
   </g>
   <g id="line2d_87">
    <path d="M 397.347916 236.245814 
L 410.672029 235.683386 
L 423.996142 235.33298 
L 437.320254 235.147627 
L 450.644367 235.098602 
L 463.96848 235.016116 
L 477.292592 234.972543 
" clip-path="url(#pf823d55cec)" style="fill: none; stroke: #ff7f0e; stroke-width: 1.5; stroke-linecap: round"/>
    <g clip-path="url(#pf823d55cec)">
     <use xlink:href="#ma301ae7af5" x="397.347916" y="236.245814" style="fill: #ff7f0e; stroke: #ffffff; stroke-width: 0.75"/>
     <use xlink:href="#ma301ae7af5" x="410.672029" y="235.683386" style="fill: #ff7f0e; stroke: #ffffff; stroke-width: 0.75"/>
     <use xlink:href="#ma301ae7af5" x="423.996142" y="235.33298" style="fill: #ff7f0e; stroke: #ffffff; stroke-width: 0.75"/>
     <use xlink:href="#ma301ae7af5" x="437.320254" y="235.147627" style="fill: #ff7f0e; stroke: #ffffff; stroke-width: 0.75"/>
     <use xlink:href="#ma301ae7af5" x="450.644367" y="235.098602" style="fill: #ff7f0e; stroke: #ffffff; stroke-width: 0.75"/>
     <use xlink:href="#ma301ae7af5" x="463.96848" y="235.016116" style="fill: #ff7f0e; stroke: #ffffff; stroke-width: 0.75"/>
     <use xlink:href="#ma301ae7af5" x="477.292592" y="234.972543" style="fill: #ff7f0e; stroke: #ffffff; stroke-width: 0.75"/>
    </g>
   </g>
   <g id="line2d_88">
    <path d="M 397.347916 234.893638 
L 410.672029 234.674361 
L 423.996142 234.286749 
L 437.320254 234.189672 
L 450.644367 234.158834 
L 463.96848 234.154463 
L 477.292592 234.147331 
" clip-path="url(#pf823d55cec)" style="fill: none; stroke: #2ca02c; stroke-width: 1.5; stroke-linecap: round"/>
    <g clip-path="url(#pf823d55cec)">
     <use xlink:href="#ma2faa9fa93" x="397.347916" y="234.893638" style="fill: #2ca02c; stroke: #ffffff; stroke-width: 0.75"/>
     <use xlink:href="#ma2faa9fa93" x="410.672029" y="234.674361" style="fill: #2ca02c; stroke: #ffffff; stroke-width: 0.75"/>
     <use xlink:href="#ma2faa9fa93" x="423.996142" y="234.286749" style="fill: #2ca02c; stroke: #ffffff; stroke-width: 0.75"/>
     <use xlink:href="#ma2faa9fa93" x="437.320254" y="234.189672" style="fill: #2ca02c; stroke: #ffffff; stroke-width: 0.75"/>
     <use xlink:href="#ma2faa9fa93" x="450.644367" y="234.158834" style="fill: #2ca02c; stroke: #ffffff; stroke-width: 0.75"/>
     <use xlink:href="#ma2faa9fa93" x="463.96848" y="234.154463" style="fill: #2ca02c; stroke: #ffffff; stroke-width: 0.75"/>
     <use xlink:href="#ma2faa9fa93" x="477.292592" y="234.147331" style="fill: #2ca02c; stroke: #ffffff; stroke-width: 0.75"/>
    </g>
   </g>
   <g id="line2d_89">
    <path d="M 397.347916 234.405724 
L 410.672029 234.030197 
L 423.996142 233.849382 
L 437.320254 233.648417 
L 450.644367 233.712921 
L 463.96848 233.662568 
L 477.292592 233.66605 
" clip-path="url(#pf823d55cec)" style="fill: none; stroke: #d62728; stroke-width: 1.5; stroke-linecap: round"/>
    <g clip-path="url(#pf823d55cec)">
     <use xlink:href="#m8e1ee63eb7" x="397.347916" y="234.405724" style="fill: #d62728; stroke: #ffffff; stroke-width: 0.75"/>
     <use xlink:href="#m8e1ee63eb7" x="410.672029" y="234.030197" style="fill: #d62728; stroke: #ffffff; stroke-width: 0.75"/>
     <use xlink:href="#m8e1ee63eb7" x="423.996142" y="233.849382" style="fill: #d62728; stroke: #ffffff; stroke-width: 0.75"/>
     <use xlink:href="#m8e1ee63eb7" x="437.320254" y="233.648417" style="fill: #d62728; stroke: #ffffff; stroke-width: 0.75"/>
     <use xlink:href="#m8e1ee63eb7" x="450.644367" y="233.712921" style="fill: #d62728; stroke: #ffffff; stroke-width: 0.75"/>
     <use xlink:href="#m8e1ee63eb7" x="463.96848" y="233.662568" style="fill: #d62728; stroke: #ffffff; stroke-width: 0.75"/>
     <use xlink:href="#m8e1ee63eb7" x="477.292592" y="233.66605" style="fill: #d62728; stroke: #ffffff; stroke-width: 0.75"/>
    </g>
   </g>
   <g id="line2d_90">
    <path d="M 397.347916 233.65415 
L 410.672029 233.686104 
L 423.996142 233.469573 
L 437.320254 233.454429 
L 450.644367 233.445804 
L 463.96848 233.369133 
L 477.292592 233.353366 
" clip-path="url(#pf823d55cec)" style="fill: none; stroke: #9467bd; stroke-width: 1.5; stroke-linecap: round"/>
    <g clip-path="url(#pf823d55cec)">
     <use xlink:href="#m8dacd64cec" x="397.347916" y="233.65415" style="fill: #9467bd; stroke: #ffffff; stroke-width: 0.75"/>
     <use xlink:href="#m8dacd64cec" x="410.672029" y="233.686104" style="fill: #9467bd; stroke: #ffffff; stroke-width: 0.75"/>
     <use xlink:href="#m8dacd64cec" x="423.996142" y="233.469573" style="fill: #9467bd; stroke: #ffffff; stroke-width: 0.75"/>
     <use xlink:href="#m8dacd64cec" x="437.320254" y="233.454429" style="fill: #9467bd; stroke: #ffffff; stroke-width: 0.75"/>
     <use xlink:href="#m8dacd64cec" x="450.644367" y="233.445804" style="fill: #9467bd; stroke: #ffffff; stroke-width: 0.75"/>
     <use xlink:href="#m8dacd64cec" x="463.96848" y="233.369133" style="fill: #9467bd; stroke: #ffffff; stroke-width: 0.75"/>
     <use xlink:href="#m8dacd64cec" x="477.292592" y="233.353366" style="fill: #9467bd; stroke: #ffffff; stroke-width: 0.75"/>
    </g>
   </g>
   <g id="line2d_91"/>
   <g id="line2d_92"/>
   <g id="line2d_93"/>
   <g id="line2d_94"/>
   <g id="line2d_95"/>
   <g id="line2d_96">
    <path d="M 384.023803 233.055917 
L 481.289826 233.055917 
" clip-path="url(#pf823d55cec)" style="fill: none; stroke-dasharray: 4.44,1.92; stroke-dashoffset: 0; stroke: #000000; stroke-width: 1.2"/>
   </g>
   <g id="patch_18">
    <path d="M 384.023803 244.164 
L 384.023803 44.2185 
" style="fill: none; stroke: #000000; stroke-linejoin: miter; stroke-linecap: square"/>
   </g>
   <g id="patch_19">
    <path d="M 481.289826 244.164 
L 481.289826 44.2185 
" style="fill: none; stroke: #000000; stroke-linejoin: miter; stroke-linecap: square"/>
   </g>
   <g id="patch_20">
    <path d="M 384.023803 244.164 
L 481.289826 244.164 
" style="fill: none; stroke: #000000; stroke-linejoin: miter; stroke-linecap: square"/>
   </g>
   <g id="patch_21">
    <path d="M 384.023803 44.2185 
L 481.289826 44.2185 
" style="fill: none; stroke: #000000; stroke-linejoin: miter; stroke-linecap: square"/>
   </g>
   <g id="text_31">
    <!-- Mach 5.0 -->
    <g style="fill: #262626" transform="translate(412.914565 38.2185) scale(0.096 -0.096)">
     <use xlink:href="#ArialMT-4d"/>
     <use xlink:href="#ArialMT-61" x="83.300781"/>
     <use xlink:href="#ArialMT-63" x="138.916016"/>
     <use xlink:href="#ArialMT-68" x="188.916016"/>
     <use xlink:href="#ArialMT-20" x="244.53125"/>
     <use xlink:href="#ArialMT-35" x="272.314453"/>
     <use xlink:href="#ArialMT-2e" x="327.929688"/>
     <use xlink:href="#ArialMT-30" x="355.712891"/>
    </g>
   </g>
   <g id="legend_1">
    <g id="patch_22">
     <path d="M 487.913127 122.62525 
L 563.457127 122.62525 
Q 565.217127 122.62525 565.217127 120.86525 
L 565.217127 45.9785 
Q 565.217127 44.2185 563.457127 44.2185 
L 487.913127 44.2185 
Q 486.153127 44.2185 486.153127 45.9785 
L 486.153127 120.86525 
Q 486.153127 122.62525 487.913127 122.62525 
z
" style="fill: #eaeaf2; opacity: 0.8; stroke: #cccccc; stroke-width: 0.8; stroke-linejoin: miter"/>
    </g>
    <g id="text_32">
     <!-- Particle diameter -->
     <g style="fill: #262626" transform="translate(489.673127 54.61) scale(0.096 -0.096)">
      <defs>
       <path id="ArialMT-50" d="M 494 0 
L 494 4581 
L 2222 4581 
Q 2678 4581 2919 4538 
Q 3256 4481 3484 4323 
Q 3713 4166 3852 3881 
Q 3991 3597 3991 3256 
Q 3991 2672 3619 2267 
Q 3247 1863 2275 1863 
L 1100 1863 
L 1100 0 
L 494 0 
z
M 1100 2403 
L 2284 2403 
Q 2872 2403 3119 2622 
Q 3366 2841 3366 3238 
Q 3366 3525 3220 3729 
Q 3075 3934 2838 4000 
Q 2684 4041 2272 4041 
L 1100 4041 
L 1100 2403 
z
" transform="scale(0.015625)"/>
       <path id="ArialMT-72" d="M 416 0 
L 416 3319 
L 922 3319 
L 922 2816 
Q 1116 3169 1280 3281 
Q 1444 3394 1641 3394 
Q 1925 3394 2219 3213 
L 2025 2691 
Q 1819 2813 1613 2813 
Q 1428 2813 1281 2702 
Q 1134 2591 1072 2394 
Q 978 2094 978 1738 
L 978 0 
L 416 0 
z
" transform="scale(0.015625)"/>
       <path id="ArialMT-74" d="M 1650 503 
L 1731 6 
Q 1494 -44 1306 -44 
Q 1000 -44 831 53 
Q 663 150 594 308 
Q 525 466 525 972 
L 525 2881 
L 113 2881 
L 113 3319 
L 525 3319 
L 525 4141 
L 1084 4478 
L 1084 3319 
L 1650 3319 
L 1650 2881 
L 1084 2881 
L 1084 941 
Q 1084 700 1114 631 
Q 1144 563 1211 522 
Q 1278 481 1403 481 
Q 1497 481 1650 503 
z
" transform="scale(0.015625)"/>
       <path id="ArialMT-69" d="M 425 3934 
L 425 4581 
L 988 4581 
L 988 3934 
L 425 3934 
z
M 425 0 
L 425 3319 
L 988 3319 
L 988 0 
L 425 0 
z
" transform="scale(0.015625)"/>
       <path id="ArialMT-6c" d="M 409 0 
L 409 4581 
L 972 4581 
L 972 0 
L 409 0 
z
" transform="scale(0.015625)"/>
       <path id="ArialMT-65" d="M 2694 1069 
L 3275 997 
Q 3138 488 2766 206 
Q 2394 -75 1816 -75 
Q 1088 -75 661 373 
Q 234 822 234 1631 
Q 234 2469 665 2931 
Q 1097 3394 1784 3394 
Q 2450 3394 2872 2941 
Q 3294 2488 3294 1666 
Q 3294 1616 3291 1516 
L 816 1516 
Q 847 969 1125 678 
Q 1403 388 1819 388 
Q 2128 388 2347 550 
Q 2566 713 2694 1069 
z
M 847 1978 
L 2700 1978 
Q 2663 2397 2488 2606 
Q 2219 2931 1791 2931 
Q 1403 2931 1139 2672 
Q 875 2413 847 1978 
z
" transform="scale(0.015625)"/>
       <path id="ArialMT-64" d="M 2575 0 
L 2575 419 
Q 2259 -75 1647 -75 
Q 1250 -75 917 144 
Q 584 363 401 755 
Q 219 1147 219 1656 
Q 219 2153 384 2558 
Q 550 2963 881 3178 
Q 1213 3394 1622 3394 
Q 1922 3394 2156 3267 
Q 2391 3141 2538 2938 
L 2538 4581 
L 3097 4581 
L 3097 0 
L 2575 0 
z
M 797 1656 
Q 797 1019 1065 703 
Q 1334 388 1700 388 
Q 2069 388 2326 689 
Q 2584 991 2584 1609 
Q 2584 2291 2321 2609 
Q 2059 2928 1675 2928 
Q 1300 2928 1048 2622 
Q 797 2316 797 1656 
z
" transform="scale(0.015625)"/>
       <path id="ArialMT-6d" d="M 422 0 
L 422 3319 
L 925 3319 
L 925 2853 
Q 1081 3097 1340 3245 
Q 1600 3394 1931 3394 
Q 2300 3394 2536 3241 
Q 2772 3088 2869 2813 
Q 3263 3394 3894 3394 
Q 4388 3394 4653 3120 
Q 4919 2847 4919 2278 
L 4919 0 
L 4359 0 
L 4359 2091 
Q 4359 2428 4304 2576 
Q 4250 2725 4106 2815 
Q 3963 2906 3769 2906 
Q 3419 2906 3187 2673 
Q 2956 2441 2956 1928 
L 2956 0 
L 2394 0 
L 2394 2156 
Q 2394 2531 2256 2718 
Q 2119 2906 1806 2906 
Q 1569 2906 1367 2781 
Q 1166 2656 1075 2415 
Q 984 2175 984 1722 
L 984 0 
L 422 0 
z
" transform="scale(0.015625)"/>
      </defs>
      <use xlink:href="#ArialMT-50"/>
      <use xlink:href="#ArialMT-61" x="66.699219"/>
      <use xlink:href="#ArialMT-72" x="122.314453"/>
      <use xlink:href="#ArialMT-74" x="155.615234"/>
      <use xlink:href="#ArialMT-69" x="183.398438"/>
      <use xlink:href="#ArialMT-63" x="205.615234"/>
      <use xlink:href="#ArialMT-6c" x="255.615234"/>
      <use xlink:href="#ArialMT-65" x="277.832031"/>
      <use xlink:href="#ArialMT-20" x="333.447266"/>
      <use xlink:href="#ArialMT-64" x="361.230469"/>
      <use xlink:href="#ArialMT-69" x="416.845703"/>
      <use xlink:href="#ArialMT-61" x="439.0625"/>
      <use xlink:href="#ArialMT-6d" x="494.677734"/>
      <use xlink:href="#ArialMT-65" x="577.978516"/>
      <use xlink:href="#ArialMT-74" x="633.59375"/>
      <use xlink:href="#ArialMT-65" x="661.376953"/>
      <use xlink:href="#ArialMT-72" x="716.992188"/>
     </g>
    </g>
    <g id="line2d_97">
     <path d="M 504.802315 64.244125 
L 513.602315 64.244125 
L 522.402315 64.244125 
" style="fill: none; stroke: #1f77b4; stroke-width: 1.5; stroke-linecap: round"/>
     <g>
      <use xlink:href="#mee9e42c368" x="513.602315" y="64.244125" style="fill: #1f77b4; stroke: #ffffff; stroke-width: 0.75"/>
     </g>
    </g>
    <g id="text_33">
     <!-- dp/8 -->
     <g style="fill: #262626" transform="translate(529.442315 67.324125) scale(0.088 -0.088)">
      <defs>
       <path id="ArialMT-70" d="M 422 -1272 
L 422 3319 
L 934 3319 
L 934 2888 
Q 1116 3141 1344 3267 
Q 1572 3394 1897 3394 
Q 2322 3394 2647 3175 
Q 2972 2956 3137 2557 
Q 3303 2159 3303 1684 
Q 3303 1175 3120 767 
Q 2938 359 2589 142 
Q 2241 -75 1856 -75 
Q 1575 -75 1351 44 
Q 1128 163 984 344 
L 984 -1272 
L 422 -1272 
z
M 931 1641 
Q 931 1000 1190 694 
Q 1450 388 1819 388 
Q 2194 388 2461 705 
Q 2728 1022 2728 1688 
Q 2728 2322 2467 2637 
Q 2206 2953 1844 2953 
Q 1484 2953 1207 2617 
Q 931 2281 931 1641 
z
" transform="scale(0.015625)"/>
       <path id="ArialMT-2f" d="M 0 -78 
L 1328 4659 
L 1778 4659 
L 453 -78 
L 0 -78 
z
" transform="scale(0.015625)"/>
      </defs>
      <use xlink:href="#ArialMT-64"/>
      <use xlink:href="#ArialMT-70" x="55.615234"/>
      <use xlink:href="#ArialMT-2f" x="111.230469"/>
      <use xlink:href="#ArialMT-38" x="139.013672"/>
     </g>
    </g>
    <g id="line2d_98">
     <path d="M 504.802315 76.79925 
L 513.602315 76.79925 
L 522.402315 76.79925 
" style="fill: none; stroke: #ff7f0e; stroke-width: 1.5; stroke-linecap: round"/>
     <g>
      <use xlink:href="#ma301ae7af5" x="513.602315" y="76.79925" style="fill: #ff7f0e; stroke: #ffffff; stroke-width: 0.75"/>
     </g>
    </g>
    <g id="text_34">
     <!-- dp/4 -->
     <g style="fill: #262626" transform="translate(529.442315 79.87925) scale(0.088 -0.088)">
      <use xlink:href="#ArialMT-64"/>
      <use xlink:href="#ArialMT-70" x="55.615234"/>
      <use xlink:href="#ArialMT-2f" x="111.230469"/>
      <use xlink:href="#ArialMT-34" x="139.013672"/>
     </g>
    </g>
    <g id="line2d_99">
     <path d="M 504.802315 89.354375 
L 513.602315 89.354375 
L 522.402315 89.354375 
" style="fill: none; stroke: #2ca02c; stroke-width: 1.5; stroke-linecap: round"/>
     <g>
      <use xlink:href="#ma2faa9fa93" x="513.602315" y="89.354375" style="fill: #2ca02c; stroke: #ffffff; stroke-width: 0.75"/>
     </g>
    </g>
    <g id="text_35">
     <!-- dp/2 -->
     <g style="fill: #262626" transform="translate(529.442315 92.434375) scale(0.088 -0.088)">
      <use xlink:href="#ArialMT-64"/>
      <use xlink:href="#ArialMT-70" x="55.615234"/>
      <use xlink:href="#ArialMT-2f" x="111.230469"/>
      <use xlink:href="#ArialMT-32" x="139.013672"/>
     </g>
    </g>
    <g id="line2d_100">
     <path d="M 504.802315 101.80225 
L 513.602315 101.80225 
L 522.402315 101.80225 
" style="fill: none; stroke: #d62728; stroke-width: 1.5; stroke-linecap: round"/>
     <g>
      <use xlink:href="#m8e1ee63eb7" x="513.602315" y="101.80225" style="fill: #d62728; stroke: #ffffff; stroke-width: 0.75"/>
     </g>
    </g>
    <g id="text_36">
     <!-- dp -->
     <g style="fill: #262626" transform="translate(529.442315 104.88225) scale(0.088 -0.088)">
      <use xlink:href="#ArialMT-64"/>
      <use xlink:href="#ArialMT-70" x="55.615234"/>
     </g>
    </g>
    <g id="line2d_101">
     <path d="M 504.802315 114.27625 
L 513.602315 114.27625 
L 522.402315 114.27625 
" style="fill: none; stroke: #9467bd; stroke-width: 1.5; stroke-linecap: round"/>
     <g>
      <use xlink:href="#m8dacd64cec" x="513.602315" y="114.27625" style="fill: #9467bd; stroke: #ffffff; stroke-width: 0.75"/>
     </g>
    </g>
    <g id="text_37">
     <!-- 2dp -->
     <g style="fill: #262626" transform="translate(529.442315 117.35625) scale(0.088 -0.088)">
      <use xlink:href="#ArialMT-32"/>
      <use xlink:href="#ArialMT-64" x="55.615234"/>
      <use xlink:href="#ArialMT-70" x="111.230469"/>
     </g>
    </g>
   </g>
  </g>
  <g id="text_38">
   <!-- Melling2 to Stokes ratio -->
   <g style="fill: #262626" transform="translate(228.1338 14.1462) scale(0.1152 -0.1152)">
    <defs>
     <path id="ArialMT-6e" d="M 422 0 
L 422 3319 
L 928 3319 
L 928 2847 
Q 1294 3394 1984 3394 
Q 2284 3394 2536 3286 
Q 2788 3178 2913 3003 
Q 3038 2828 3088 2588 
Q 3119 2431 3119 2041 
L 3119 0 
L 2556 0 
L 2556 2019 
Q 2556 2363 2490 2533 
Q 2425 2703 2258 2804 
Q 2091 2906 1866 2906 
Q 1506 2906 1245 2678 
Q 984 2450 984 1813 
L 984 0 
L 422 0 
z
" transform="scale(0.015625)"/>
     <path id="ArialMT-67" d="M 319 -275 
L 866 -356 
Q 900 -609 1056 -725 
Q 1266 -881 1628 -881 
Q 2019 -881 2231 -725 
Q 2444 -569 2519 -288 
Q 2563 -116 2559 434 
Q 2191 0 1641 0 
Q 956 0 581 494 
Q 206 988 206 1678 
Q 206 2153 378 2554 
Q 550 2956 876 3175 
Q 1203 3394 1644 3394 
Q 2231 3394 2613 2919 
L 2613 3319 
L 3131 3319 
L 3131 450 
Q 3131 -325 2973 -648 
Q 2816 -972 2473 -1159 
Q 2131 -1347 1631 -1347 
Q 1038 -1347 672 -1080 
Q 306 -813 319 -275 
z
M 784 1719 
Q 784 1066 1043 766 
Q 1303 466 1694 466 
Q 2081 466 2343 764 
Q 2606 1063 2606 1700 
Q 2606 2309 2336 2618 
Q 2066 2928 1684 2928 
Q 1309 2928 1046 2623 
Q 784 2319 784 1719 
z
" transform="scale(0.015625)"/>
     <path id="ArialMT-6f" d="M 213 1659 
Q 213 2581 725 3025 
Q 1153 3394 1769 3394 
Q 2453 3394 2887 2945 
Q 3322 2497 3322 1706 
Q 3322 1066 3130 698 
Q 2938 331 2570 128 
Q 2203 -75 1769 -75 
Q 1072 -75 642 372 
Q 213 819 213 1659 
z
M 791 1659 
Q 791 1022 1069 705 
Q 1347 388 1769 388 
Q 2188 388 2466 706 
Q 2744 1025 2744 1678 
Q 2744 2294 2464 2611 
Q 2184 2928 1769 2928 
Q 1347 2928 1069 2612 
Q 791 2297 791 1659 
z
" transform="scale(0.015625)"/>
     <path id="ArialMT-53" d="M 288 1472 
L 859 1522 
Q 900 1178 1048 958 
Q 1197 738 1509 602 
Q 1822 466 2213 466 
Q 2559 466 2825 569 
Q 3091 672 3220 851 
Q 3350 1031 3350 1244 
Q 3350 1459 3225 1620 
Q 3100 1781 2813 1891 
Q 2628 1963 1997 2114 
Q 1366 2266 1113 2400 
Q 784 2572 623 2826 
Q 463 3081 463 3397 
Q 463 3744 659 4045 
Q 856 4347 1234 4503 
Q 1613 4659 2075 4659 
Q 2584 4659 2973 4495 
Q 3363 4331 3572 4012 
Q 3781 3694 3797 3291 
L 3216 3247 
Q 3169 3681 2898 3903 
Q 2628 4125 2100 4125 
Q 1550 4125 1298 3923 
Q 1047 3722 1047 3438 
Q 1047 3191 1225 3031 
Q 1400 2872 2139 2705 
Q 2878 2538 3153 2413 
Q 3553 2228 3743 1945 
Q 3934 1663 3934 1294 
Q 3934 928 3725 604 
Q 3516 281 3123 101 
Q 2731 -78 2241 -78 
Q 1619 -78 1198 103 
Q 778 284 539 648 
Q 300 1013 288 1472 
z
" transform="scale(0.015625)"/>
     <path id="ArialMT-6b" d="M 425 0 
L 425 4581 
L 988 4581 
L 988 1969 
L 2319 3319 
L 3047 3319 
L 1778 2088 
L 3175 0 
L 2481 0 
L 1384 1697 
L 988 1316 
L 988 0 
L 425 0 
z
" transform="scale(0.015625)"/>
     <path id="ArialMT-73" d="M 197 991 
L 753 1078 
Q 800 744 1014 566 
Q 1228 388 1613 388 
Q 2000 388 2187 545 
Q 2375 703 2375 916 
Q 2375 1106 2209 1216 
Q 2094 1291 1634 1406 
Q 1016 1563 777 1677 
Q 538 1791 414 1992 
Q 291 2194 291 2438 
Q 291 2659 392 2848 
Q 494 3038 669 3163 
Q 800 3259 1026 3326 
Q 1253 3394 1513 3394 
Q 1903 3394 2198 3281 
Q 2494 3169 2634 2976 
Q 2775 2784 2828 2463 
L 2278 2388 
Q 2241 2644 2061 2787 
Q 1881 2931 1553 2931 
Q 1166 2931 1000 2803 
Q 834 2675 834 2503 
Q 834 2394 903 2306 
Q 972 2216 1119 2156 
Q 1203 2125 1616 2013 
Q 2213 1853 2448 1751 
Q 2684 1650 2818 1456 
Q 2953 1263 2953 975 
Q 2953 694 2789 445 
Q 2625 197 2315 61 
Q 2006 -75 1616 -75 
Q 969 -75 630 194 
Q 291 463 197 991 
z
" transform="scale(0.015625)"/>
    </defs>
    <use xlink:href="#ArialMT-4d"/>
    <use xlink:href="#ArialMT-65" x="83.300781"/>
    <use xlink:href="#ArialMT-6c" x="138.916016"/>
    <use xlink:href="#ArialMT-6c" x="161.132812"/>
    <use xlink:href="#ArialMT-69" x="183.349609"/>
    <use xlink:href="#ArialMT-6e" x="205.566406"/>
    <use xlink:href="#ArialMT-67" x="261.181641"/>
    <use xlink:href="#ArialMT-32" x="316.796875"/>
    <use xlink:href="#ArialMT-20" x="372.412109"/>
    <use xlink:href="#ArialMT-74" x="400.195312"/>
    <use xlink:href="#ArialMT-6f" x="427.978516"/>
    <use xlink:href="#ArialMT-20" x="483.59375"/>
    <use xlink:href="#ArialMT-53" x="511.376953"/>
    <use xlink:href="#ArialMT-74" x="578.076172"/>
    <use xlink:href="#ArialMT-6f" x="605.859375"/>
    <use xlink:href="#ArialMT-6b" x="661.474609"/>
    <use xlink:href="#ArialMT-65" x="711.474609"/>
    <use xlink:href="#ArialMT-73" x="767.089844"/>
    <use xlink:href="#ArialMT-20" x="817.089844"/>
    <use xlink:href="#ArialMT-72" x="844.873047"/>
    <use xlink:href="#ArialMT-61" x="878.173828"/>
    <use xlink:href="#ArialMT-74" x="933.789062"/>
    <use xlink:href="#ArialMT-69" x="961.572266"/>
    <use xlink:href="#ArialMT-6f" x="983.789062"/>
   </g>
  </g>
 </g>
 <defs>
  <clipPath id="p16f7c4c58e">
   <rect x="47.436" y="44.2185" width="97.266023" height="199.9455"/>
  </clipPath>
  <clipPath id="p90fd3ed0b3">
   <rect x="159.631934" y="44.2185" width="97.266023" height="199.9455"/>
  </clipPath>
  <clipPath id="p5422b56d16">
   <rect x="271.827869" y="44.2185" width="97.266023" height="199.9455"/>
  </clipPath>
  <clipPath id="pf823d55cec">
   <rect x="384.023803" y="44.2185" width="97.266023" height="199.9455"/>
  </clipPath>
 </defs>
</svg>
