<?xml version="1.0" encoding="utf-8" standalone="no"?>
<!DOCTYPE svg PUBLIC "-//W3C//DTD SVG 1.1//EN"
  "http://www.w3.org/Graphics/SVG/1.1/DTD/svg11.dtd">
<svg xmlns:xlink="http://www.w3.org/1999/xlink" width="432pt" height="432pt" viewBox="0 0 432 432" xmlns="http://www.w3.org/2000/svg" version="1.1">
 <metadata>
  <rdf:RDF xmlns:dc="http://purl.org/dc/elements/1.1/" xmlns:cc="http://creativecommons.org/ns#" xmlns:rdf="http://www.w3.org/1999/02/22-rdf-syntax-ns#">
   <cc:Work>
    <dc:type rdf:resource="http://purl.org/dc/dcmitype/StillImage"/>
    <dc:date>2023-12-13T15:06:54.158459</dc:date>
    <dc:format>image/svg+xml</dc:format>
    <dc:creator>
     <cc:Agent>
      <dc:title>Matplotlib v3.8.0, https://matplotlib.org/</dc:title>
     </cc:Agent>
    </dc:creator>
   </cc:Work>
  </rdf:RDF>
 </metadata>
 <defs>
  <style type="text/css">*{stroke-linejoin: round; stroke-linecap: butt}</style>
 </defs>
 <g id="figure_1">
  <g id="patch_1">
   <path d="M 0 432 
L 432 432 
L 432 0 
L 0 0 
z
" style="fill: #ffffff"/>
  </g>
  <g id="axes_1">
   <g id="patch_2">
    <path d="M 59.955 381.18 
L 404.2575 381.18 
L 404.2575 34.44 
L 59.955 34.44 
z
" style="fill: #eaeaf2"/>
   </g>
   <g id="matplotlib.axis_1">
    <g id="xtick_1">
     <g id="line2d_1">
      <path d="M 86.439808 381.18 
L 86.439808 34.44 
" clip-path="url(#pa713ac5a80)" style="fill: none; stroke: #ffffff; stroke-width: 0.8; stroke-linecap: round"/>
     </g>
     <g id="text_1">
      <!-- 0.0 -->
      <g style="fill: #262626" transform="translate(80.323808 395.778875) scale(0.088 -0.088)">
       <defs>
        <path id="ArialMT-30" d="M 266 2259 
Q 266 3072 433 3567 
Q 600 4063 929 4331 
Q 1259 4600 1759 4600 
Q 2128 4600 2406 4451 
Q 2684 4303 2865 4023 
Q 3047 3744 3150 3342 
Q 3253 2941 3253 2259 
Q 3253 1453 3087 958 
Q 2922 463 2592 192 
Q 2263 -78 1759 -78 
Q 1097 -78 719 397 
Q 266 969 266 2259 
z
M 844 2259 
Q 844 1131 1108 757 
Q 1372 384 1759 384 
Q 2147 384 2411 759 
Q 2675 1134 2675 2259 
Q 2675 3391 2411 3762 
Q 2147 4134 1753 4134 
Q 1366 4134 1134 3806 
Q 844 3388 844 2259 
z
" transform="scale(0.015625)"/>
        <path id="ArialMT-2e" d="M 581 0 
L 581 641 
L 1222 641 
L 1222 0 
L 581 0 
z
" transform="scale(0.015625)"/>
       </defs>
       <use xlink:href="#ArialMT-30"/>
       <use xlink:href="#ArialMT-2e" x="55.615234"/>
       <use xlink:href="#ArialMT-30" x="83.398438"/>
      </g>
     </g>
    </g>
    <g id="xtick_2">
     <g id="line2d_2">
      <path d="M 139.409423 381.18 
L 139.409423 34.44 
" clip-path="url(#pa713ac5a80)" style="fill: none; stroke: #ffffff; stroke-width: 0.8; stroke-linecap: round"/>
     </g>
     <g id="text_2">
      <!-- 1.0 -->
      <g style="fill: #262626" transform="translate(133.293423 395.778875) scale(0.088 -0.088)">
       <defs>
        <path id="ArialMT-31" d="M 2384 0 
L 1822 0 
L 1822 3584 
Q 1619 3391 1289 3197 
Q 959 3003 697 2906 
L 697 3450 
Q 1169 3672 1522 3987 
Q 1875 4303 2022 4600 
L 2384 4600 
L 2384 0 
z
" transform="scale(0.015625)"/>
       </defs>
       <use xlink:href="#ArialMT-31"/>
       <use xlink:href="#ArialMT-2e" x="55.615234"/>
       <use xlink:href="#ArialMT-30" x="83.398438"/>
      </g>
     </g>
    </g>
    <g id="xtick_3">
     <g id="line2d_3">
      <path d="M 192.379038 381.18 
L 192.379038 34.44 
" clip-path="url(#pa713ac5a80)" style="fill: none; stroke: #ffffff; stroke-width: 0.8; stroke-linecap: round"/>
     </g>
     <g id="text_3">
      <!-- 2.0 -->
      <g style="fill: #262626" transform="translate(186.263038 395.778875) scale(0.088 -0.088)">
       <defs>
        <path id="ArialMT-32" d="M 3222 541 
L 3222 0 
L 194 0 
Q 188 203 259 391 
Q 375 700 629 1000 
Q 884 1300 1366 1694 
Q 2113 2306 2375 2664 
Q 2638 3022 2638 3341 
Q 2638 3675 2398 3904 
Q 2159 4134 1775 4134 
Q 1369 4134 1125 3890 
Q 881 3647 878 3216 
L 300 3275 
Q 359 3922 746 4261 
Q 1134 4600 1788 4600 
Q 2447 4600 2831 4234 
Q 3216 3869 3216 3328 
Q 3216 3053 3103 2787 
Q 2991 2522 2730 2228 
Q 2469 1934 1863 1422 
Q 1356 997 1212 845 
Q 1069 694 975 541 
L 3222 541 
z
" transform="scale(0.015625)"/>
       </defs>
       <use xlink:href="#ArialMT-32"/>
       <use xlink:href="#ArialMT-2e" x="55.615234"/>
       <use xlink:href="#ArialMT-30" x="83.398438"/>
      </g>
     </g>
    </g>
    <g id="xtick_4">
     <g id="line2d_4">
      <path d="M 245.348654 381.18 
L 245.348654 34.44 
" clip-path="url(#pa713ac5a80)" style="fill: none; stroke: #ffffff; stroke-width: 0.8; stroke-linecap: round"/>
     </g>
     <g id="text_4">
      <!-- 3.0 -->
      <g style="fill: #262626" transform="translate(239.232654 395.778875) scale(0.088 -0.088)">
       <defs>
        <path id="ArialMT-33" d="M 269 1209 
L 831 1284 
Q 928 806 1161 595 
Q 1394 384 1728 384 
Q 2125 384 2398 659 
Q 2672 934 2672 1341 
Q 2672 1728 2419 1979 
Q 2166 2231 1775 2231 
Q 1616 2231 1378 2169 
L 1441 2663 
Q 1497 2656 1531 2656 
Q 1891 2656 2178 2843 
Q 2466 3031 2466 3422 
Q 2466 3731 2256 3934 
Q 2047 4138 1716 4138 
Q 1388 4138 1169 3931 
Q 950 3725 888 3313 
L 325 3413 
Q 428 3978 793 4289 
Q 1159 4600 1703 4600 
Q 2078 4600 2393 4439 
Q 2709 4278 2876 4000 
Q 3044 3722 3044 3409 
Q 3044 3113 2884 2869 
Q 2725 2625 2413 2481 
Q 2819 2388 3044 2092 
Q 3269 1797 3269 1353 
Q 3269 753 2831 336 
Q 2394 -81 1725 -81 
Q 1122 -81 723 278 
Q 325 638 269 1209 
z
" transform="scale(0.015625)"/>
       </defs>
       <use xlink:href="#ArialMT-33"/>
       <use xlink:href="#ArialMT-2e" x="55.615234"/>
       <use xlink:href="#ArialMT-30" x="83.398438"/>
      </g>
     </g>
    </g>
    <g id="xtick_5">
     <g id="line2d_5">
      <path d="M 298.318269 381.18 
L 298.318269 34.44 
" clip-path="url(#pa713ac5a80)" style="fill: none; stroke: #ffffff; stroke-width: 0.8; stroke-linecap: round"/>
     </g>
     <g id="text_5">
      <!-- 4.0 -->
      <g style="fill: #262626" transform="translate(292.202269 395.778875) scale(0.088 -0.088)">
       <defs>
        <path id="ArialMT-34" d="M 2069 0 
L 2069 1097 
L 81 1097 
L 81 1613 
L 2172 4581 
L 2631 4581 
L 2631 1613 
L 3250 1613 
L 3250 1097 
L 2631 1097 
L 2631 0 
L 2069 0 
z
M 2069 1613 
L 2069 3678 
L 634 1613 
L 2069 1613 
z
" transform="scale(0.015625)"/>
       </defs>
       <use xlink:href="#ArialMT-34"/>
       <use xlink:href="#ArialMT-2e" x="55.615234"/>
       <use xlink:href="#ArialMT-30" x="83.398438"/>
      </g>
     </g>
    </g>
    <g id="xtick_6">
     <g id="line2d_6">
      <path d="M 351.287885 381.18 
L 351.287885 34.44 
" clip-path="url(#pa713ac5a80)" style="fill: none; stroke: #ffffff; stroke-width: 0.8; stroke-linecap: round"/>
     </g>
     <g id="text_6">
      <!-- 5.0 -->
      <g style="fill: #262626" transform="translate(345.171885 395.778875) scale(0.088 -0.088)">
       <defs>
        <path id="ArialMT-35" d="M 266 1200 
L 856 1250 
Q 922 819 1161 601 
Q 1400 384 1738 384 
Q 2144 384 2425 690 
Q 2706 997 2706 1503 
Q 2706 1984 2436 2262 
Q 2166 2541 1728 2541 
Q 1456 2541 1237 2417 
Q 1019 2294 894 2097 
L 366 2166 
L 809 4519 
L 3088 4519 
L 3088 3981 
L 1259 3981 
L 1013 2750 
Q 1425 3038 1878 3038 
Q 2478 3038 2890 2622 
Q 3303 2206 3303 1553 
Q 3303 931 2941 478 
Q 2500 -78 1738 -78 
Q 1113 -78 717 272 
Q 322 622 266 1200 
z
" transform="scale(0.015625)"/>
       </defs>
       <use xlink:href="#ArialMT-35"/>
       <use xlink:href="#ArialMT-2e" x="55.615234"/>
       <use xlink:href="#ArialMT-30" x="83.398438"/>
      </g>
     </g>
    </g>
    <g id="xtick_7">
     <g id="line2d_7">
      <path d="M 404.2575 381.18 
L 404.2575 34.44 
" clip-path="url(#pa713ac5a80)" style="fill: none; stroke: #ffffff; stroke-width: 0.8; stroke-linecap: round"/>
     </g>
     <g id="text_7">
      <!-- 6.0 -->
      <g style="fill: #262626" transform="translate(398.1415 395.778875) scale(0.088 -0.088)">
       <defs>
        <path id="ArialMT-36" d="M 3184 3459 
L 2625 3416 
Q 2550 3747 2413 3897 
Q 2184 4138 1850 4138 
Q 1581 4138 1378 3988 
Q 1113 3794 959 3422 
Q 806 3050 800 2363 
Q 1003 2672 1297 2822 
Q 1591 2972 1913 2972 
Q 2475 2972 2870 2558 
Q 3266 2144 3266 1488 
Q 3266 1056 3080 686 
Q 2894 316 2569 119 
Q 2244 -78 1831 -78 
Q 1128 -78 684 439 
Q 241 956 241 2144 
Q 241 3472 731 4075 
Q 1159 4600 1884 4600 
Q 2425 4600 2770 4297 
Q 3116 3994 3184 3459 
z
M 888 1484 
Q 888 1194 1011 928 
Q 1134 663 1356 523 
Q 1578 384 1822 384 
Q 2178 384 2434 671 
Q 2691 959 2691 1453 
Q 2691 1928 2437 2201 
Q 2184 2475 1800 2475 
Q 1419 2475 1153 2201 
Q 888 1928 888 1484 
z
" transform="scale(0.015625)"/>
       </defs>
       <use xlink:href="#ArialMT-36"/>
       <use xlink:href="#ArialMT-2e" x="55.615234"/>
       <use xlink:href="#ArialMT-30" x="83.398438"/>
      </g>
     </g>
    </g>
    <g id="text_8">
     <!-- Shock normal distance (mm) -->
     <g style="fill: #262626" transform="translate(171.02475 408.516375) scale(0.096 -0.096)">
      <defs>
       <path id="ArialMT-53" d="M 288 1472 
L 859 1522 
Q 900 1178 1048 958 
Q 1197 738 1509 602 
Q 1822 466 2213 466 
Q 2559 466 2825 569 
Q 3091 672 3220 851 
Q 3350 1031 3350 1244 
Q 3350 1459 3225 1620 
Q 3100 1781 2813 1891 
Q 2628 1963 1997 2114 
Q 1366 2266 1113 2400 
Q 784 2572 623 2826 
Q 463 3081 463 3397 
Q 463 3744 659 4045 
Q 856 4347 1234 4503 
Q 1613 4659 2075 4659 
Q 2584 4659 2973 4495 
Q 3363 4331 3572 4012 
Q 3781 3694 3797 3291 
L 3216 3247 
Q 3169 3681 2898 3903 
Q 2628 4125 2100 4125 
Q 1550 4125 1298 3923 
Q 1047 3722 1047 3438 
Q 1047 3191 1225 3031 
Q 1400 2872 2139 2705 
Q 2878 2538 3153 2413 
Q 3553 2228 3743 1945 
Q 3934 1663 3934 1294 
Q 3934 928 3725 604 
Q 3516 281 3123 101 
Q 2731 -78 2241 -78 
Q 1619 -78 1198 103 
Q 778 284 539 648 
Q 300 1013 288 1472 
z
" transform="scale(0.015625)"/>
       <path id="ArialMT-68" d="M 422 0 
L 422 4581 
L 984 4581 
L 984 2938 
Q 1378 3394 1978 3394 
Q 2347 3394 2619 3248 
Q 2891 3103 3008 2847 
Q 3125 2591 3125 2103 
L 3125 0 
L 2563 0 
L 2563 2103 
Q 2563 2525 2380 2717 
Q 2197 2909 1863 2909 
Q 1613 2909 1392 2779 
Q 1172 2650 1078 2428 
Q 984 2206 984 1816 
L 984 0 
L 422 0 
z
" transform="scale(0.015625)"/>
       <path id="ArialMT-6f" d="M 213 1659 
Q 213 2581 725 3025 
Q 1153 3394 1769 3394 
Q 2453 3394 2887 2945 
Q 3322 2497 3322 1706 
Q 3322 1066 3130 698 
Q 2938 331 2570 128 
Q 2203 -75 1769 -75 
Q 1072 -75 642 372 
Q 213 819 213 1659 
z
M 791 1659 
Q 791 1022 1069 705 
Q 1347 388 1769 388 
Q 2188 388 2466 706 
Q 2744 1025 2744 1678 
Q 2744 2294 2464 2611 
Q 2184 2928 1769 2928 
Q 1347 2928 1069 2612 
Q 791 2297 791 1659 
z
" transform="scale(0.015625)"/>
       <path id="ArialMT-63" d="M 2588 1216 
L 3141 1144 
Q 3050 572 2676 248 
Q 2303 -75 1759 -75 
Q 1078 -75 664 370 
Q 250 816 250 1647 
Q 250 2184 428 2587 
Q 606 2991 970 3192 
Q 1334 3394 1763 3394 
Q 2303 3394 2647 3120 
Q 2991 2847 3088 2344 
L 2541 2259 
Q 2463 2594 2264 2762 
Q 2066 2931 1784 2931 
Q 1359 2931 1093 2626 
Q 828 2322 828 1663 
Q 828 994 1084 691 
Q 1341 388 1753 388 
Q 2084 388 2306 591 
Q 2528 794 2588 1216 
z
" transform="scale(0.015625)"/>
       <path id="ArialMT-6b" d="M 425 0 
L 425 4581 
L 988 4581 
L 988 1969 
L 2319 3319 
L 3047 3319 
L 1778 2088 
L 3175 0 
L 2481 0 
L 1384 1697 
L 988 1316 
L 988 0 
L 425 0 
z
" transform="scale(0.015625)"/>
       <path id="ArialMT-20" transform="scale(0.015625)"/>
       <path id="ArialMT-6e" d="M 422 0 
L 422 3319 
L 928 3319 
L 928 2847 
Q 1294 3394 1984 3394 
Q 2284 3394 2536 3286 
Q 2788 3178 2913 3003 
Q 3038 2828 3088 2588 
Q 3119 2431 3119 2041 
L 3119 0 
L 2556 0 
L 2556 2019 
Q 2556 2363 2490 2533 
Q 2425 2703 2258 2804 
Q 2091 2906 1866 2906 
Q 1506 2906 1245 2678 
Q 984 2450 984 1813 
L 984 0 
L 422 0 
z
" transform="scale(0.015625)"/>
       <path id="ArialMT-72" d="M 416 0 
L 416 3319 
L 922 3319 
L 922 2816 
Q 1116 3169 1280 3281 
Q 1444 3394 1641 3394 
Q 1925 3394 2219 3213 
L 2025 2691 
Q 1819 2813 1613 2813 
Q 1428 2813 1281 2702 
Q 1134 2591 1072 2394 
Q 978 2094 978 1738 
L 978 0 
L 416 0 
z
" transform="scale(0.015625)"/>
       <path id="ArialMT-6d" d="M 422 0 
L 422 3319 
L 925 3319 
L 925 2853 
Q 1081 3097 1340 3245 
Q 1600 3394 1931 3394 
Q 2300 3394 2536 3241 
Q 2772 3088 2869 2813 
Q 3263 3394 3894 3394 
Q 4388 3394 4653 3120 
Q 4919 2847 4919 2278 
L 4919 0 
L 4359 0 
L 4359 2091 
Q 4359 2428 4304 2576 
Q 4250 2725 4106 2815 
Q 3963 2906 3769 2906 
Q 3419 2906 3187 2673 
Q 2956 2441 2956 1928 
L 2956 0 
L 2394 0 
L 2394 2156 
Q 2394 2531 2256 2718 
Q 2119 2906 1806 2906 
Q 1569 2906 1367 2781 
Q 1166 2656 1075 2415 
Q 984 2175 984 1722 
L 984 0 
L 422 0 
z
" transform="scale(0.015625)"/>
       <path id="ArialMT-61" d="M 2588 409 
Q 2275 144 1986 34 
Q 1697 -75 1366 -75 
Q 819 -75 525 192 
Q 231 459 231 875 
Q 231 1119 342 1320 
Q 453 1522 633 1644 
Q 813 1766 1038 1828 
Q 1203 1872 1538 1913 
Q 2219 1994 2541 2106 
Q 2544 2222 2544 2253 
Q 2544 2597 2384 2738 
Q 2169 2928 1744 2928 
Q 1347 2928 1158 2789 
Q 969 2650 878 2297 
L 328 2372 
Q 403 2725 575 2942 
Q 747 3159 1072 3276 
Q 1397 3394 1825 3394 
Q 2250 3394 2515 3294 
Q 2781 3194 2906 3042 
Q 3031 2891 3081 2659 
Q 3109 2516 3109 2141 
L 3109 1391 
Q 3109 606 3145 398 
Q 3181 191 3288 0 
L 2700 0 
Q 2613 175 2588 409 
z
M 2541 1666 
Q 2234 1541 1622 1453 
Q 1275 1403 1131 1340 
Q 988 1278 909 1158 
Q 831 1038 831 891 
Q 831 666 1001 516 
Q 1172 366 1500 366 
Q 1825 366 2078 508 
Q 2331 650 2450 897 
Q 2541 1088 2541 1459 
L 2541 1666 
z
" transform="scale(0.015625)"/>
       <path id="ArialMT-6c" d="M 409 0 
L 409 4581 
L 972 4581 
L 972 0 
L 409 0 
z
" transform="scale(0.015625)"/>
       <path id="ArialMT-64" d="M 2575 0 
L 2575 419 
Q 2259 -75 1647 -75 
Q 1250 -75 917 144 
Q 584 363 401 755 
Q 219 1147 219 1656 
Q 219 2153 384 2558 
Q 550 2963 881 3178 
Q 1213 3394 1622 3394 
Q 1922 3394 2156 3267 
Q 2391 3141 2538 2938 
L 2538 4581 
L 3097 4581 
L 3097 0 
L 2575 0 
z
M 797 1656 
Q 797 1019 1065 703 
Q 1334 388 1700 388 
Q 2069 388 2326 689 
Q 2584 991 2584 1609 
Q 2584 2291 2321 2609 
Q 2059 2928 1675 2928 
Q 1300 2928 1048 2622 
Q 797 2316 797 1656 
z
" transform="scale(0.015625)"/>
       <path id="ArialMT-69" d="M 425 3934 
L 425 4581 
L 988 4581 
L 988 3934 
L 425 3934 
z
M 425 0 
L 425 3319 
L 988 3319 
L 988 0 
L 425 0 
z
" transform="scale(0.015625)"/>
       <path id="ArialMT-73" d="M 197 991 
L 753 1078 
Q 800 744 1014 566 
Q 1228 388 1613 388 
Q 2000 388 2187 545 
Q 2375 703 2375 916 
Q 2375 1106 2209 1216 
Q 2094 1291 1634 1406 
Q 1016 1563 777 1677 
Q 538 1791 414 1992 
Q 291 2194 291 2438 
Q 291 2659 392 2848 
Q 494 3038 669 3163 
Q 800 3259 1026 3326 
Q 1253 3394 1513 3394 
Q 1903 3394 2198 3281 
Q 2494 3169 2634 2976 
Q 2775 2784 2828 2463 
L 2278 2388 
Q 2241 2644 2061 2787 
Q 1881 2931 1553 2931 
Q 1166 2931 1000 2803 
Q 834 2675 834 2503 
Q 834 2394 903 2306 
Q 972 2216 1119 2156 
Q 1203 2125 1616 2013 
Q 2213 1853 2448 1751 
Q 2684 1650 2818 1456 
Q 2953 1263 2953 975 
Q 2953 694 2789 445 
Q 2625 197 2315 61 
Q 2006 -75 1616 -75 
Q 969 -75 630 194 
Q 291 463 197 991 
z
" transform="scale(0.015625)"/>
       <path id="ArialMT-74" d="M 1650 503 
L 1731 6 
Q 1494 -44 1306 -44 
Q 1000 -44 831 53 
Q 663 150 594 308 
Q 525 466 525 972 
L 525 2881 
L 113 2881 
L 113 3319 
L 525 3319 
L 525 4141 
L 1084 4478 
L 1084 3319 
L 1650 3319 
L 1650 2881 
L 1084 2881 
L 1084 941 
Q 1084 700 1114 631 
Q 1144 563 1211 522 
Q 1278 481 1403 481 
Q 1497 481 1650 503 
z
" transform="scale(0.015625)"/>
       <path id="ArialMT-65" d="M 2694 1069 
L 3275 997 
Q 3138 488 2766 206 
Q 2394 -75 1816 -75 
Q 1088 -75 661 373 
Q 234 822 234 1631 
Q 234 2469 665 2931 
Q 1097 3394 1784 3394 
Q 2450 3394 2872 2941 
Q 3294 2488 3294 1666 
Q 3294 1616 3291 1516 
L 816 1516 
Q 847 969 1125 678 
Q 1403 388 1819 388 
Q 2128 388 2347 550 
Q 2566 713 2694 1069 
z
M 847 1978 
L 2700 1978 
Q 2663 2397 2488 2606 
Q 2219 2931 1791 2931 
Q 1403 2931 1139 2672 
Q 875 2413 847 1978 
z
" transform="scale(0.015625)"/>
       <path id="ArialMT-28" d="M 1497 -1347 
Q 1031 -759 709 28 
Q 388 816 388 1659 
Q 388 2403 628 3084 
Q 909 3875 1497 4659 
L 1900 4659 
Q 1522 4009 1400 3731 
Q 1209 3300 1100 2831 
Q 966 2247 966 1656 
Q 966 153 1900 -1347 
L 1497 -1347 
z
" transform="scale(0.015625)"/>
       <path id="ArialMT-29" d="M 791 -1347 
L 388 -1347 
Q 1322 153 1322 1656 
Q 1322 2244 1188 2822 
Q 1081 3291 891 3722 
Q 769 4003 388 4659 
L 791 4659 
Q 1378 3875 1659 3084 
Q 1900 2403 1900 1659 
Q 1900 816 1576 28 
Q 1253 -759 791 -1347 
z
" transform="scale(0.015625)"/>
      </defs>
      <use xlink:href="#ArialMT-53"/>
      <use xlink:href="#ArialMT-68" x="66.699219"/>
      <use xlink:href="#ArialMT-6f" x="122.314453"/>
      <use xlink:href="#ArialMT-63" x="177.929688"/>
      <use xlink:href="#ArialMT-6b" x="227.929688"/>
      <use xlink:href="#ArialMT-20" x="277.929688"/>
      <use xlink:href="#ArialMT-6e" x="305.712891"/>
      <use xlink:href="#ArialMT-6f" x="361.328125"/>
      <use xlink:href="#ArialMT-72" x="416.943359"/>
      <use xlink:href="#ArialMT-6d" x="450.244141"/>
      <use xlink:href="#ArialMT-61" x="533.544922"/>
      <use xlink:href="#ArialMT-6c" x="589.160156"/>
      <use xlink:href="#ArialMT-20" x="611.376953"/>
      <use xlink:href="#ArialMT-64" x="639.160156"/>
      <use xlink:href="#ArialMT-69" x="694.775391"/>
      <use xlink:href="#ArialMT-73" x="716.992188"/>
      <use xlink:href="#ArialMT-74" x="766.992188"/>
      <use xlink:href="#ArialMT-61" x="794.775391"/>
      <use xlink:href="#ArialMT-6e" x="850.390625"/>
      <use xlink:href="#ArialMT-63" x="906.005859"/>
      <use xlink:href="#ArialMT-65" x="956.005859"/>
      <use xlink:href="#ArialMT-20" x="1011.621094"/>
      <use xlink:href="#ArialMT-28" x="1039.404297"/>
      <use xlink:href="#ArialMT-6d" x="1072.705078"/>
      <use xlink:href="#ArialMT-6d" x="1156.005859"/>
      <use xlink:href="#ArialMT-29" x="1239.306641"/>
     </g>
    </g>
   </g>
   <g id="matplotlib.axis_2">
    <g id="ytick_1">
     <g id="line2d_8">
      <path d="M 59.955 376.296338 
L 404.2575 376.296338 
" clip-path="url(#pa713ac5a80)" style="fill: none; stroke: #ffffff; stroke-width: 0.8; stroke-linecap: round"/>
     </g>
     <g id="text_9">
      <!-- −0.2 -->
      <g style="fill: #262626" transform="translate(34.28325 379.445776) scale(0.088 -0.088)">
       <defs>
        <path id="ArialMT-2212" d="M 3381 1997 
L 356 1997 
L 356 2522 
L 3381 2522 
L 3381 1997 
z
" transform="scale(0.015625)"/>
       </defs>
       <use xlink:href="#ArialMT-2212"/>
       <use xlink:href="#ArialMT-30" x="58.398438"/>
       <use xlink:href="#ArialMT-2e" x="114.013672"/>
       <use xlink:href="#ArialMT-32" x="141.796875"/>
      </g>
     </g>
    </g>
    <g id="ytick_2">
     <g id="line2d_9">
      <path d="M 59.955 327.459718 
L 404.2575 327.459718 
" clip-path="url(#pa713ac5a80)" style="fill: none; stroke: #ffffff; stroke-width: 0.8; stroke-linecap: round"/>
     </g>
     <g id="text_10">
      <!-- 0.0 -->
      <g style="fill: #262626" transform="translate(39.423 330.609156) scale(0.088 -0.088)">
       <use xlink:href="#ArialMT-30"/>
       <use xlink:href="#ArialMT-2e" x="55.615234"/>
       <use xlink:href="#ArialMT-30" x="83.398438"/>
      </g>
     </g>
    </g>
    <g id="ytick_3">
     <g id="line2d_10">
      <path d="M 59.955 278.623099 
L 404.2575 278.623099 
" clip-path="url(#pa713ac5a80)" style="fill: none; stroke: #ffffff; stroke-width: 0.8; stroke-linecap: round"/>
     </g>
     <g id="text_11">
      <!-- 0.2 -->
      <g style="fill: #262626" transform="translate(39.423 281.772536) scale(0.088 -0.088)">
       <use xlink:href="#ArialMT-30"/>
       <use xlink:href="#ArialMT-2e" x="55.615234"/>
       <use xlink:href="#ArialMT-32" x="83.398438"/>
      </g>
     </g>
    </g>
    <g id="ytick_4">
     <g id="line2d_11">
      <path d="M 59.955 229.786479 
L 404.2575 229.786479 
" clip-path="url(#pa713ac5a80)" style="fill: none; stroke: #ffffff; stroke-width: 0.8; stroke-linecap: round"/>
     </g>
     <g id="text_12">
      <!-- 0.4 -->
      <g style="fill: #262626" transform="translate(39.423 232.935916) scale(0.088 -0.088)">
       <use xlink:href="#ArialMT-30"/>
       <use xlink:href="#ArialMT-2e" x="55.615234"/>
       <use xlink:href="#ArialMT-34" x="83.398438"/>
      </g>
     </g>
    </g>
    <g id="ytick_5">
     <g id="line2d_12">
      <path d="M 59.955 180.949859 
L 404.2575 180.949859 
" clip-path="url(#pa713ac5a80)" style="fill: none; stroke: #ffffff; stroke-width: 0.8; stroke-linecap: round"/>
     </g>
     <g id="text_13">
      <!-- 0.6 -->
      <g style="fill: #262626" transform="translate(39.423 184.099297) scale(0.088 -0.088)">
       <use xlink:href="#ArialMT-30"/>
       <use xlink:href="#ArialMT-2e" x="55.615234"/>
       <use xlink:href="#ArialMT-36" x="83.398438"/>
      </g>
     </g>
    </g>
    <g id="ytick_6">
     <g id="line2d_13">
      <path d="M 59.955 132.113239 
L 404.2575 132.113239 
" clip-path="url(#pa713ac5a80)" style="fill: none; stroke: #ffffff; stroke-width: 0.8; stroke-linecap: round"/>
     </g>
     <g id="text_14">
      <!-- 0.8 -->
      <g style="fill: #262626" transform="translate(39.423 135.262677) scale(0.088 -0.088)">
       <defs>
        <path id="ArialMT-38" d="M 1131 2484 
Q 781 2613 612 2850 
Q 444 3088 444 3419 
Q 444 3919 803 4259 
Q 1163 4600 1759 4600 
Q 2359 4600 2725 4251 
Q 3091 3903 3091 3403 
Q 3091 3084 2923 2848 
Q 2756 2613 2416 2484 
Q 2838 2347 3058 2040 
Q 3278 1734 3278 1309 
Q 3278 722 2862 322 
Q 2447 -78 1769 -78 
Q 1091 -78 675 323 
Q 259 725 259 1325 
Q 259 1772 486 2073 
Q 713 2375 1131 2484 
z
M 1019 3438 
Q 1019 3113 1228 2906 
Q 1438 2700 1772 2700 
Q 2097 2700 2305 2904 
Q 2513 3109 2513 3406 
Q 2513 3716 2298 3927 
Q 2084 4138 1766 4138 
Q 1444 4138 1231 3931 
Q 1019 3725 1019 3438 
z
M 838 1322 
Q 838 1081 952 856 
Q 1066 631 1291 507 
Q 1516 384 1775 384 
Q 2178 384 2440 643 
Q 2703 903 2703 1303 
Q 2703 1709 2433 1975 
Q 2163 2241 1756 2241 
Q 1359 2241 1098 1978 
Q 838 1716 838 1322 
z
" transform="scale(0.015625)"/>
       </defs>
       <use xlink:href="#ArialMT-30"/>
       <use xlink:href="#ArialMT-2e" x="55.615234"/>
       <use xlink:href="#ArialMT-38" x="83.398438"/>
      </g>
     </g>
    </g>
    <g id="ytick_7">
     <g id="line2d_14">
      <path d="M 59.955 83.27662 
L 404.2575 83.27662 
" clip-path="url(#pa713ac5a80)" style="fill: none; stroke: #ffffff; stroke-width: 0.8; stroke-linecap: round"/>
     </g>
     <g id="text_15">
      <!-- 1.0 -->
      <g style="fill: #262626" transform="translate(39.423 86.426057) scale(0.088 -0.088)">
       <use xlink:href="#ArialMT-31"/>
       <use xlink:href="#ArialMT-2e" x="55.615234"/>
       <use xlink:href="#ArialMT-30" x="83.398438"/>
      </g>
     </g>
    </g>
    <g id="ytick_8">
     <g id="line2d_15">
      <path d="M 59.955 34.44 
L 404.2575 34.44 
" clip-path="url(#pa713ac5a80)" style="fill: none; stroke: #ffffff; stroke-width: 0.8; stroke-linecap: round"/>
     </g>
     <g id="text_16">
      <!-- 1.2 -->
      <g style="fill: #262626" transform="translate(39.423 37.589437) scale(0.088 -0.088)">
       <use xlink:href="#ArialMT-31"/>
       <use xlink:href="#ArialMT-2e" x="55.615234"/>
       <use xlink:href="#ArialMT-32" x="83.398438"/>
      </g>
     </g>
    </g>
    <g id="text_17">
     <!-- Normalized shock normal velocity lag -->
     <g style="fill: #262626" transform="translate(28.26275 287.03625) rotate(-90) scale(0.096 -0.096)">
      <defs>
       <path id="ArialMT-4e" d="M 488 0 
L 488 4581 
L 1109 4581 
L 3516 984 
L 3516 4581 
L 4097 4581 
L 4097 0 
L 3475 0 
L 1069 3600 
L 1069 0 
L 488 0 
z
" transform="scale(0.015625)"/>
       <path id="ArialMT-7a" d="M 125 0 
L 125 456 
L 2238 2881 
Q 1878 2863 1603 2863 
L 250 2863 
L 250 3319 
L 2963 3319 
L 2963 2947 
L 1166 841 
L 819 456 
Q 1197 484 1528 484 
L 3063 484 
L 3063 0 
L 125 0 
z
" transform="scale(0.015625)"/>
       <path id="ArialMT-76" d="M 1344 0 
L 81 3319 
L 675 3319 
L 1388 1331 
Q 1503 1009 1600 663 
Q 1675 925 1809 1294 
L 2547 3319 
L 3125 3319 
L 1869 0 
L 1344 0 
z
" transform="scale(0.015625)"/>
       <path id="ArialMT-79" d="M 397 -1278 
L 334 -750 
Q 519 -800 656 -800 
Q 844 -800 956 -737 
Q 1069 -675 1141 -563 
Q 1194 -478 1313 -144 
Q 1328 -97 1363 -6 
L 103 3319 
L 709 3319 
L 1400 1397 
Q 1534 1031 1641 628 
Q 1738 1016 1872 1384 
L 2581 3319 
L 3144 3319 
L 1881 -56 
Q 1678 -603 1566 -809 
Q 1416 -1088 1222 -1217 
Q 1028 -1347 759 -1347 
Q 597 -1347 397 -1278 
z
" transform="scale(0.015625)"/>
       <path id="ArialMT-67" d="M 319 -275 
L 866 -356 
Q 900 -609 1056 -725 
Q 1266 -881 1628 -881 
Q 2019 -881 2231 -725 
Q 2444 -569 2519 -288 
Q 2563 -116 2559 434 
Q 2191 0 1641 0 
Q 956 0 581 494 
Q 206 988 206 1678 
Q 206 2153 378 2554 
Q 550 2956 876 3175 
Q 1203 3394 1644 3394 
Q 2231 3394 2613 2919 
L 2613 3319 
L 3131 3319 
L 3131 450 
Q 3131 -325 2973 -648 
Q 2816 -972 2473 -1159 
Q 2131 -1347 1631 -1347 
Q 1038 -1347 672 -1080 
Q 306 -813 319 -275 
z
M 784 1719 
Q 784 1066 1043 766 
Q 1303 466 1694 466 
Q 2081 466 2343 764 
Q 2606 1063 2606 1700 
Q 2606 2309 2336 2618 
Q 2066 2928 1684 2928 
Q 1309 2928 1046 2623 
Q 784 2319 784 1719 
z
" transform="scale(0.015625)"/>
      </defs>
      <use xlink:href="#ArialMT-4e"/>
      <use xlink:href="#ArialMT-6f" x="72.216797"/>
      <use xlink:href="#ArialMT-72" x="127.832031"/>
      <use xlink:href="#ArialMT-6d" x="161.132812"/>
      <use xlink:href="#ArialMT-61" x="244.433594"/>
      <use xlink:href="#ArialMT-6c" x="300.048828"/>
      <use xlink:href="#ArialMT-69" x="322.265625"/>
      <use xlink:href="#ArialMT-7a" x="344.482422"/>
      <use xlink:href="#ArialMT-65" x="394.482422"/>
      <use xlink:href="#ArialMT-64" x="450.097656"/>
      <use xlink:href="#ArialMT-20" x="505.712891"/>
      <use xlink:href="#ArialMT-73" x="533.496094"/>
      <use xlink:href="#ArialMT-68" x="583.496094"/>
      <use xlink:href="#ArialMT-6f" x="639.111328"/>
      <use xlink:href="#ArialMT-63" x="694.726562"/>
      <use xlink:href="#ArialMT-6b" x="744.726562"/>
      <use xlink:href="#ArialMT-20" x="794.726562"/>
      <use xlink:href="#ArialMT-6e" x="822.509766"/>
      <use xlink:href="#ArialMT-6f" x="878.125"/>
      <use xlink:href="#ArialMT-72" x="933.740234"/>
      <use xlink:href="#ArialMT-6d" x="967.041016"/>
      <use xlink:href="#ArialMT-61" x="1050.341797"/>
      <use xlink:href="#ArialMT-6c" x="1105.957031"/>
      <use xlink:href="#ArialMT-20" x="1128.173828"/>
      <use xlink:href="#ArialMT-76" x="1155.957031"/>
      <use xlink:href="#ArialMT-65" x="1205.957031"/>
      <use xlink:href="#ArialMT-6c" x="1261.572266"/>
      <use xlink:href="#ArialMT-6f" x="1283.789062"/>
      <use xlink:href="#ArialMT-63" x="1339.404297"/>
      <use xlink:href="#ArialMT-69" x="1389.404297"/>
      <use xlink:href="#ArialMT-74" x="1411.621094"/>
      <use xlink:href="#ArialMT-79" x="1439.404297"/>
      <use xlink:href="#ArialMT-20" x="1489.404297"/>
      <use xlink:href="#ArialMT-6c" x="1517.1875"/>
      <use xlink:href="#ArialMT-61" x="1539.404297"/>
      <use xlink:href="#ArialMT-67" x="1595.019531"/>
     </g>
    </g>
   </g>
   <g id="line2d_16">
    <path d="M 59.955 83.27662 
L 82.522032 83.336084 
L 82.703958 83.940491 
L 82.963477 85.851444 
L 83.344786 90.618336 
L 83.873401 100.397379 
L 84.610518 118.600596 
L 85.735757 152.56878 
L 89.976124 285.269975 
L 90.914232 307.967212 
L 91.458865 315.533586 
L 91.998197 320.162934 
L 92.536612 323.004841 
L 93.077668 324.751494 
L 93.631378 325.834292 
L 94.218991 326.514929 
L 94.886962 326.950114 
L 95.737028 327.227528 
L 97.013975 327.38846 
L 99.682835 327.453687 
L 111.429008 327.459457 
L 135.069083 327.459502 
L 404.565935 327.458686 
L 404.565935 327.458686 
" clip-path="url(#pa713ac5a80)" style="fill: none; stroke: #8000ff; stroke-width: 1.2; stroke-linecap: round"/>
   </g>
   <g id="line2d_17">
    <path d="M 59.955 83.27662 
L 82.418038 83.27662 
L 82.574012 83.645656 
L 82.762251 85.388637 
L 83.072548 90.739361 
L 83.574504 103.831255 
L 84.498814 134.823823 
L 87.189795 226.69056 
L 88.809455 273.335405 
L 90.465067 314.724971 
L 90.865875 321.133978 
L 91.265967 324.325216 
L 91.666855 325.911579 
L 92.078541 326.710202 
L 92.529107 327.121051 
L 93.108771 327.337877 
L 94.101565 327.438574 
L 97.185876 327.459624 
L 155.104041 327.44019 
L 157.467955 327.341724 
L 159.832059 327.443954 
L 170.470105 327.455963 
L 183.472149 327.459599 
L 257.938365 327.437955 
L 260.302268 327.328218 
L 262.666383 327.442149 
L 273.30443 327.455533 
L 285.124471 327.459354 
L 405.688853 327.459246 
L 405.688853 327.459246 
" clip-path="url(#pa713ac5a80)" style="fill: none; stroke: #4062fa; stroke-width: 1.2; stroke-linecap: round"/>
   </g>
   <g id="line2d_18">
    <path d="M 59.955 83.27662 
L 82.418038 83.27662 
L 82.574012 83.646943 
L 82.76225 85.399628 
L 83.072537 90.78487 
L 83.574443 103.953202 
L 84.507692 135.379733 
L 87.134673 225.217453 
L 88.755022 272.048696 
L 90.416073 313.727519 
L 90.829011 320.810709 
L 91.226931 324.163579 
L 91.625579 325.829108 
L 92.034993 326.66836 
L 92.480961 327.099632 
L 93.046783 327.327089 
L 93.991103 327.434663 
L 96.576759 327.459456 
L 137.355873 327.442682 
L 140.901864 327.421968 
L 147.993923 327.459628 
L 155.085926 327.439814 
L 157.449839 327.339186 
L 159.813945 327.443578 
L 170.45199 327.45587 
L 183.454035 327.459595 
L 257.92025 327.436836 
L 260.284148 327.321121 
L 262.648269 327.441155 
L 273.286316 327.455292 
L 282.74235 327.459654 
L 343.02452 327.437223 
L 345.38842 327.323474 
L 347.752539 327.441471 
L 358.390586 327.455367 
L 367.84662 327.459655 
L 405.670739 327.459201 
L 405.670739 327.459201 
" clip-path="url(#pa713ac5a80)" style="fill: none; stroke: #00b5eb; stroke-width: 1.2; stroke-linecap: round"/>
   </g>
   <g id="line2d_19">
    <path d="M 59.955 83.27662 
L 82.522033 83.320071 
L 82.703976 83.768049 
L 82.963613 85.218708 
L 83.326061 88.724597 
L 83.814874 95.885301 
L 84.466161 109.048661 
L 85.348809 131.829151 
L 86.71218 173.510879 
L 90.308083 285.358587 
L 91.016922 302.164533 
L 91.613828 311.095808 
L 92.208477 316.878254 
L 92.803252 320.626873 
L 93.39971 323.056505 
L 94.003507 324.638944 
L 94.626865 325.679154 
L 95.293304 326.37119 
L 96.051579 326.837994 
L 96.998812 327.150914 
L 98.354402 327.346297 
L 100.806351 327.44119 
L 109.726827 327.459677 
L 133.36679 327.410059 
L 138.094613 327.325045 
L 142.822908 327.449274 
L 171.190958 327.431641 
L 178.282997 327.438521 
L 194.831097 327.459622 
L 256.295143 327.393814 
L 261.022903 327.28094 
L 263.387243 327.428005 
L 270.479336 327.459541 
L 296.483284 327.39995 
L 301.211068 327.297602 
L 305.939421 327.447146 
L 329.579496 327.447246 
L 350.855591 327.459565 
L 376.859557 327.407935 
L 381.587372 327.31928 
L 386.31568 327.448827 
L 409.955755 327.448914 
L 409.955755 327.448914 
" clip-path="url(#pa713ac5a80)" style="fill: none; stroke: #40ecd4; stroke-width: 1.2; stroke-linecap: round"/>
   </g>
   <g id="line2d_20">
    <path d="M 59.955 83.27662 
L 82.418038 83.27662 
L 82.574012 83.645656 
L 82.762251 85.388637 
L 83.072548 90.739361 
L 83.574504 103.831255 
L 84.498814 134.823823 
L 87.189795 226.69056 
L 88.809455 273.335405 
L 90.465067 314.724971 
L 90.865875 321.133978 
L 91.265967 324.325216 
L 91.666855 325.911579 
L 92.078541 326.710202 
L 92.529107 327.121056 
L 93.108771 327.337892 
L 94.101565 327.438578 
L 97.185876 327.459624 
L 155.104041 327.440175 
L 157.467955 327.341607 
L 159.832059 327.443935 
L 170.470105 327.455958 
L 183.472149 327.459599 
L 257.938365 327.437883 
L 260.302268 327.327751 
L 262.666383 327.442083 
L 273.30443 327.455517 
L 285.124471 327.459352 
L 405.688853 327.459243 
L 405.688853 327.459243 
" clip-path="url(#pa713ac5a80)" style="fill: none; stroke: #80ffb4; stroke-width: 1.2; stroke-linecap: round"/>
   </g>
   <g id="line2d_21">
    <path d="M 59.955 83.27662 
L 82.418038 83.27662 
L 82.574012 83.645167 
L 82.762252 85.382527 
L 83.075777 90.773946 
L 83.580896 103.905978 
L 84.505187 134.786033 
L 87.250312 228.31038 
L 88.868928 274.761457 
L 90.504642 315.465028 
L 90.907439 321.506538 
L 91.307356 324.505047 
L 91.708158 325.999223 
L 92.122113 326.755222 
L 92.579585 327.145198 
L 93.180016 327.350637 
L 94.248986 327.443169 
L 98.37678 327.459684 
L 155.112942 327.440203 
L 157.476856 327.341801 
L 159.84096 327.443964 
L 170.479005 327.455965 
L 183.48105 327.459599 
L 257.947265 327.437969 
L 260.311169 327.328304 
L 262.675284 327.442161 
L 273.313331 327.455536 
L 285.133372 327.459354 
L 405.697754 327.459247 
L 405.697754 327.459247 
" clip-path="url(#pa713ac5a80)" style="fill: none; stroke: #c0eb8d; stroke-width: 1.2; stroke-linecap: round"/>
   </g>
   <g id="line2d_22">
    <path d="M 59.955 83.27662 
L 82.574027 83.37357 
L 82.781935 83.937065 
L 83.080423 85.587922 
L 83.481487 89.257953 
L 84.008565 96.351981 
L 84.694653 108.882934 
L 85.594062 129.758851 
L 86.852949 164.674632 
L 91.365773 294.526398 
L 92.053882 304.836323 
L 92.737308 311.926851 
L 93.416559 316.791624 
L 94.095987 320.142565 
L 94.779282 322.455489 
L 95.474337 324.061131 
L 96.191032 325.179799 
L 96.955232 325.970372 
L 97.808792 326.534097 
L 98.830396 326.935852 
L 100.172519 327.211689 
L 102.197665 327.379431 
L 106.242549 327.451275 
L 129.21777 327.458764 
L 195.409979 327.458699 
L 412.898631 327.44624 
L 412.898631 327.44624 
" clip-path="url(#pa713ac5a80)" style="fill: none; stroke: #ffb360; stroke-width: 1.2; stroke-linecap: round"/>
   </g>
   <g id="line2d_23">
    <path d="M 59.955 83.27662 
L 82.418038 83.27662 
L 82.574012 83.645167 
L 82.762252 85.382527 
L 83.075777 90.773946 
L 83.580896 103.905978 
L 84.505187 134.786033 
L 87.250312 228.31038 
L 88.868928 274.761457 
L 90.504642 315.465028 
L 90.907439 321.506538 
L 91.307356 324.505047 
L 91.708158 325.999223 
L 92.122113 326.755222 
L 92.579585 327.145198 
L 93.180016 327.350637 
L 94.248986 327.443169 
L 98.37678 327.459684 
L 155.112942 327.440203 
L 157.476856 327.341801 
L 159.84096 327.443964 
L 170.479005 327.455965 
L 183.48105 327.459599 
L 257.947265 327.437969 
L 260.311169 327.328304 
L 262.675284 327.442161 
L 273.313331 327.455536 
L 285.133372 327.459354 
L 405.697754 327.459247 
L 405.697754 327.459247 
" clip-path="url(#pa713ac5a80)" style="fill: none; stroke: #ff5f30; stroke-width: 1.2; stroke-linecap: round"/>
   </g>
   <g id="line2d_24">
    <path d="M 59.955 83.27662 
L 82.522033 83.30152 
L 82.729987 83.618254 
L 83.015705 84.631195 
L 83.404551 87.026159 
L 83.901509 91.667734 
L 84.52921 99.816397 
L 85.313247 113.108535 
L 86.306956 134.029414 
L 87.608775 166.515808 
L 89.64676 223.712141 
L 91.298582 268.218604 
L 92.145095 284.23223 
L 92.976142 295.946565 
L 93.794064 304.4864 
L 94.602419 310.712002 
L 95.406154 315.261889 
L 96.209465 318.59225 
L 97.016016 321.031332 
L 97.833753 322.825518 
L 98.674955 324.153028 
L 99.558619 325.14169 
L 100.517449 325.88399 
L 101.607116 326.444022 
L 102.920128 326.861625 
L 104.629725 327.159714 
L 107.128419 327.350322 
L 111.718299 327.442578 
L 129.005175 327.459685 
L 422.141983 327.430592 
L 422.141983 327.430592 
" clip-path="url(#pa713ac5a80)" style="fill: none; stroke: #ff0000; stroke-width: 1.2; stroke-linecap: round"/>
   </g>
   <g id="line2d_25">
    <defs>
     <path id="m7a9ee8d079" d="M 0 -2.4 
L -0.538834 -0.741641 
L -2.282536 -0.741641 
L -0.871851 0.283282 
L -1.410685 1.941641 
L -0 0.916718 
L 1.410685 1.941641 
L 0.871851 0.283282 
L 2.282536 -0.741641 
L 0.538834 -0.741641 
z
" style="stroke: #1a1a1a; stroke-linejoin: bevel"/>
    </defs>
    <g clip-path="url(#pa713ac5a80)">
     <use xlink:href="#m7a9ee8d079" x="116.849666" y="243.205975" style="fill: #1a1a1a; stroke: #1a1a1a; stroke-linejoin: bevel"/>
     <use xlink:href="#m7a9ee8d079" x="120.594885" y="254.295086" style="fill: #1a1a1a; stroke: #1a1a1a; stroke-linejoin: bevel"/>
     <use xlink:href="#m7a9ee8d079" x="122.935647" y="261.727326" style="fill: #1a1a1a; stroke: #1a1a1a; stroke-linejoin: bevel"/>
     <use xlink:href="#m7a9ee8d079" x="127.617171" y="270.632259" style="fill: #1a1a1a; stroke: #1a1a1a; stroke-linejoin: bevel"/>
     <use xlink:href="#m7a9ee8d079" x="131.830543" y="278.6644" style="fill: #1a1a1a; stroke: #1a1a1a; stroke-linejoin: bevel"/>
     <use xlink:href="#m7a9ee8d079" x="136.980219" y="286.553951" style="fill: #1a1a1a; stroke: #1a1a1a; stroke-linejoin: bevel"/>
     <use xlink:href="#m7a9ee8d079" x="143.0662" y="294.412179" style="fill: #1a1a1a; stroke: #1a1a1a; stroke-linejoin: bevel"/>
     <use xlink:href="#m7a9ee8d079" x="150.556639" y="302.215555" style="fill: #1a1a1a; stroke: #1a1a1a; stroke-linejoin: bevel"/>
     <use xlink:href="#m7a9ee8d079" x="159.919686" y="309.204183" style="fill: #1a1a1a; stroke: #1a1a1a; stroke-linejoin: bevel"/>
     <use xlink:href="#m7a9ee8d079" x="170.219039" y="314.986693" style="fill: #1a1a1a; stroke: #1a1a1a; stroke-linejoin: bevel"/>
     <use xlink:href="#m7a9ee8d079" x="180.518392" y="318.902485" style="fill: #1a1a1a; stroke: #1a1a1a; stroke-linejoin: bevel"/>
     <use xlink:href="#m7a9ee8d079" x="190.817744" y="321.498702" style="fill: #1a1a1a; stroke: #1a1a1a; stroke-linejoin: bevel"/>
     <use xlink:href="#m7a9ee8d079" x="201.117097" y="323.322484" style="fill: #1a1a1a; stroke: #1a1a1a; stroke-linejoin: bevel"/>
     <use xlink:href="#m7a9ee8d079" x="211.41645" y="324.599125" style="fill: #1a1a1a; stroke: #1a1a1a; stroke-linejoin: bevel"/>
     <use xlink:href="#m7a9ee8d079" x="221.715802" y="325.521733" style="fill: #1a1a1a; stroke: #1a1a1a; stroke-linejoin: bevel"/>
     <use xlink:href="#m7a9ee8d079" x="232.015155" y="325.993754" style="fill: #1a1a1a; stroke: #1a1a1a; stroke-linejoin: bevel"/>
     <use xlink:href="#m7a9ee8d079" x="242.314507" y="326.369221" style="fill: #1a1a1a; stroke: #1a1a1a; stroke-linejoin: bevel"/>
     <use xlink:href="#m7a9ee8d079" x="252.61386" y="326.905611" style="fill: #1a1a1a; stroke: #1a1a1a; stroke-linejoin: bevel"/>
     <use xlink:href="#m7a9ee8d079" x="262.913213" y="327.08797" style="fill: #1a1a1a; stroke: #1a1a1a; stroke-linejoin: bevel"/>
     <use xlink:href="#m7a9ee8d079" x="273.212565" y="327.302513" style="fill: #1a1a1a; stroke: #1a1a1a; stroke-linejoin: bevel"/>
     <use xlink:href="#m7a9ee8d079" x="283.511918" y="327.291762" style="fill: #1a1a1a; stroke: #1a1a1a; stroke-linejoin: bevel"/>
     <use xlink:href="#m7a9ee8d079" x="293.811271" y="327.281012" style="fill: #1a1a1a; stroke: #1a1a1a; stroke-linejoin: bevel"/>
     <use xlink:href="#m7a9ee8d079" x="304.110623" y="327.270261" style="fill: #1a1a1a; stroke: #1a1a1a; stroke-linejoin: bevel"/>
     <use xlink:href="#m7a9ee8d079" x="314.409976" y="327.259511" style="fill: #1a1a1a; stroke: #1a1a1a; stroke-linejoin: bevel"/>
     <use xlink:href="#m7a9ee8d079" x="324.709329" y="327.24876" style="fill: #1a1a1a; stroke: #1a1a1a; stroke-linejoin: bevel"/>
     <use xlink:href="#m7a9ee8d079" x="335.008681" y="327.23801" style="fill: #1a1a1a; stroke: #1a1a1a; stroke-linejoin: bevel"/>
     <use xlink:href="#m7a9ee8d079" x="345.308034" y="327.227259" style="fill: #1a1a1a; stroke: #1a1a1a; stroke-linejoin: bevel"/>
     <use xlink:href="#m7a9ee8d079" x="355.607386" y="327.216509" style="fill: #1a1a1a; stroke: #1a1a1a; stroke-linejoin: bevel"/>
     <use xlink:href="#m7a9ee8d079" x="365.906739" y="327.205758" style="fill: #1a1a1a; stroke: #1a1a1a; stroke-linejoin: bevel"/>
     <use xlink:href="#m7a9ee8d079" x="376.206092" y="327.195008" style="fill: #1a1a1a; stroke: #1a1a1a; stroke-linejoin: bevel"/>
     <use xlink:href="#m7a9ee8d079" x="386.505444" y="327.184257" style="fill: #1a1a1a; stroke: #1a1a1a; stroke-linejoin: bevel"/>
     <use xlink:href="#m7a9ee8d079" x="396.804797" y="327.173507" style="fill: #1a1a1a; stroke: #1a1a1a; stroke-linejoin: bevel"/>
     <use xlink:href="#m7a9ee8d079" x="404.669757" y="327.306911" style="fill: #1a1a1a; stroke: #1a1a1a; stroke-linejoin: bevel"/>
     <use xlink:href="#m7a9ee8d079" x="86.768812" y="86.024622" style="fill: #1a1a1a; stroke: #1a1a1a; stroke-linejoin: bevel"/>
     <use xlink:href="#m7a9ee8d079" x="87.426819" y="89.507187" style="fill: #1a1a1a; stroke: #1a1a1a; stroke-linejoin: bevel"/>
     <use xlink:href="#m7a9ee8d079" x="88.084827" y="93.984968" style="fill: #1a1a1a; stroke: #1a1a1a; stroke-linejoin: bevel"/>
     <use xlink:href="#m7a9ee8d079" x="88.084827" y="99.956258" style="fill: #1a1a1a; stroke: #1a1a1a; stroke-linejoin: bevel"/>
     <use xlink:href="#m7a9ee8d079" x="89.400842" y="105.926174" style="fill: #1a1a1a; stroke: #1a1a1a; stroke-linejoin: bevel"/>
     <use xlink:href="#m7a9ee8d079" x="90.05885" y="113.389599" style="fill: #1a1a1a; stroke: #1a1a1a; stroke-linejoin: bevel"/>
     <use xlink:href="#m7a9ee8d079" x="93.348888" y="131.797642" style="fill: #1a1a1a; stroke: #1a1a1a; stroke-linejoin: bevel"/>
     <use xlink:href="#m7a9ee8d079" x="95.980919" y="153.689623" style="fill: #1a1a1a; stroke: #1a1a1a; stroke-linejoin: bevel"/>
     <use xlink:href="#m7a9ee8d079" x="99.928964" y="174.087409" style="fill: #1a1a1a; stroke: #1a1a1a; stroke-linejoin: bevel"/>
     <use xlink:href="#m7a9ee8d079" x="104.206014" y="197.968104" style="fill: #1a1a1a; stroke: #1a1a1a; stroke-linejoin: bevel"/>
     <use xlink:href="#m7a9ee8d079" x="109.141071" y="218.364859" style="fill: #1a1a1a; stroke: #1a1a1a; stroke-linejoin: bevel"/>
     <use xlink:href="#m7a9ee8d079" x="112.43111" y="230.304004" style="fill: #1a1a1a; stroke: #1a1a1a; stroke-linejoin: bevel"/>
    </g>
   </g>
   <g id="patch_3">
    <path d="M 59.955 381.18 
L 59.955 34.44 
" style="fill: none; stroke: #000000; stroke-linejoin: miter; stroke-linecap: square"/>
   </g>
   <g id="patch_4">
    <path d="M 404.2575 381.18 
L 404.2575 34.44 
" style="fill: none; stroke: #000000; stroke-linejoin: miter; stroke-linecap: square"/>
   </g>
   <g id="patch_5">
    <path d="M 59.955 381.18 
L 404.2575 381.18 
" style="fill: none; stroke: #000000; stroke-linejoin: miter; stroke-linecap: square"/>
   </g>
   <g id="patch_6">
    <path d="M 59.955 34.44 
L 404.2575 34.44 
" style="fill: none; stroke: #000000; stroke-linejoin: miter; stroke-linecap: square"/>
   </g>
   <g id="text_18">
    <!-- Manufacturer provided particle specifications using different drag models -->
    <g style="fill: #262626" transform="translate(77.98725 28.44) scale(0.096 -0.096)">
     <defs>
      <path id="ArialMT-4d" d="M 475 0 
L 475 4581 
L 1388 4581 
L 2472 1338 
Q 2622 884 2691 659 
Q 2769 909 2934 1394 
L 4031 4581 
L 4847 4581 
L 4847 0 
L 4263 0 
L 4263 3834 
L 2931 0 
L 2384 0 
L 1059 3900 
L 1059 0 
L 475 0 
z
" transform="scale(0.015625)"/>
      <path id="ArialMT-75" d="M 2597 0 
L 2597 488 
Q 2209 -75 1544 -75 
Q 1250 -75 995 37 
Q 741 150 617 320 
Q 494 491 444 738 
Q 409 903 409 1263 
L 409 3319 
L 972 3319 
L 972 1478 
Q 972 1038 1006 884 
Q 1059 663 1231 536 
Q 1403 409 1656 409 
Q 1909 409 2131 539 
Q 2353 669 2445 892 
Q 2538 1116 2538 1541 
L 2538 3319 
L 3100 3319 
L 3100 0 
L 2597 0 
z
" transform="scale(0.015625)"/>
      <path id="ArialMT-66" d="M 556 0 
L 556 2881 
L 59 2881 
L 59 3319 
L 556 3319 
L 556 3672 
Q 556 4006 616 4169 
Q 697 4388 901 4523 
Q 1106 4659 1475 4659 
Q 1713 4659 2000 4603 
L 1916 4113 
Q 1741 4144 1584 4144 
Q 1328 4144 1222 4034 
Q 1116 3925 1116 3625 
L 1116 3319 
L 1763 3319 
L 1763 2881 
L 1116 2881 
L 1116 0 
L 556 0 
z
" transform="scale(0.015625)"/>
      <path id="ArialMT-70" d="M 422 -1272 
L 422 3319 
L 934 3319 
L 934 2888 
Q 1116 3141 1344 3267 
Q 1572 3394 1897 3394 
Q 2322 3394 2647 3175 
Q 2972 2956 3137 2557 
Q 3303 2159 3303 1684 
Q 3303 1175 3120 767 
Q 2938 359 2589 142 
Q 2241 -75 1856 -75 
Q 1575 -75 1351 44 
Q 1128 163 984 344 
L 984 -1272 
L 422 -1272 
z
M 931 1641 
Q 931 1000 1190 694 
Q 1450 388 1819 388 
Q 2194 388 2461 705 
Q 2728 1022 2728 1688 
Q 2728 2322 2467 2637 
Q 2206 2953 1844 2953 
Q 1484 2953 1207 2617 
Q 931 2281 931 1641 
z
" transform="scale(0.015625)"/>
     </defs>
     <use xlink:href="#ArialMT-4d"/>
     <use xlink:href="#ArialMT-61" x="83.300781"/>
     <use xlink:href="#ArialMT-6e" x="138.916016"/>
     <use xlink:href="#ArialMT-75" x="194.53125"/>
     <use xlink:href="#ArialMT-66" x="250.146484"/>
     <use xlink:href="#ArialMT-61" x="277.929688"/>
     <use xlink:href="#ArialMT-63" x="333.544922"/>
     <use xlink:href="#ArialMT-74" x="383.544922"/>
     <use xlink:href="#ArialMT-75" x="411.328125"/>
     <use xlink:href="#ArialMT-72" x="466.943359"/>
     <use xlink:href="#ArialMT-65" x="500.244141"/>
     <use xlink:href="#ArialMT-72" x="555.859375"/>
     <use xlink:href="#ArialMT-20" x="589.160156"/>
     <use xlink:href="#ArialMT-70" x="616.943359"/>
     <use xlink:href="#ArialMT-72" x="672.558594"/>
     <use xlink:href="#ArialMT-6f" x="705.859375"/>
     <use xlink:href="#ArialMT-76" x="761.474609"/>
     <use xlink:href="#ArialMT-69" x="811.474609"/>
     <use xlink:href="#ArialMT-64" x="833.691406"/>
     <use xlink:href="#ArialMT-65" x="889.306641"/>
     <use xlink:href="#ArialMT-64" x="944.921875"/>
     <use xlink:href="#ArialMT-20" x="1000.537109"/>
     <use xlink:href="#ArialMT-70" x="1028.320312"/>
     <use xlink:href="#ArialMT-61" x="1083.935547"/>
     <use xlink:href="#ArialMT-72" x="1139.550781"/>
     <use xlink:href="#ArialMT-74" x="1172.851562"/>
     <use xlink:href="#ArialMT-69" x="1200.634766"/>
     <use xlink:href="#ArialMT-63" x="1222.851562"/>
     <use xlink:href="#ArialMT-6c" x="1272.851562"/>
     <use xlink:href="#ArialMT-65" x="1295.068359"/>
     <use xlink:href="#ArialMT-20" x="1350.683594"/>
     <use xlink:href="#ArialMT-73" x="1378.466797"/>
     <use xlink:href="#ArialMT-70" x="1428.466797"/>
     <use xlink:href="#ArialMT-65" x="1484.082031"/>
     <use xlink:href="#ArialMT-63" x="1539.697266"/>
     <use xlink:href="#ArialMT-69" x="1589.697266"/>
     <use xlink:href="#ArialMT-66" x="1611.914062"/>
     <use xlink:href="#ArialMT-69" x="1639.697266"/>
     <use xlink:href="#ArialMT-63" x="1661.914062"/>
     <use xlink:href="#ArialMT-61" x="1711.914062"/>
     <use xlink:href="#ArialMT-74" x="1767.529297"/>
     <use xlink:href="#ArialMT-69" x="1795.3125"/>
     <use xlink:href="#ArialMT-6f" x="1817.529297"/>
     <use xlink:href="#ArialMT-6e" x="1873.144531"/>
     <use xlink:href="#ArialMT-73" x="1928.759766"/>
     <use xlink:href="#ArialMT-20" x="1978.759766"/>
     <use xlink:href="#ArialMT-75" x="2006.542969"/>
     <use xlink:href="#ArialMT-73" x="2062.158203"/>
     <use xlink:href="#ArialMT-69" x="2112.158203"/>
     <use xlink:href="#ArialMT-6e" x="2134.375"/>
     <use xlink:href="#ArialMT-67" x="2189.990234"/>
     <use xlink:href="#ArialMT-20" x="2245.605469"/>
     <use xlink:href="#ArialMT-64" x="2273.388672"/>
     <use xlink:href="#ArialMT-69" x="2329.003906"/>
     <use xlink:href="#ArialMT-66" x="2351.220703"/>
     <use xlink:href="#ArialMT-66" x="2377.253906"/>
     <use xlink:href="#ArialMT-65" x="2405.037109"/>
     <use xlink:href="#ArialMT-72" x="2460.652344"/>
     <use xlink:href="#ArialMT-65" x="2493.953125"/>
     <use xlink:href="#ArialMT-6e" x="2549.568359"/>
     <use xlink:href="#ArialMT-74" x="2605.183594"/>
     <use xlink:href="#ArialMT-20" x="2632.966797"/>
     <use xlink:href="#ArialMT-64" x="2660.75"/>
     <use xlink:href="#ArialMT-72" x="2716.365234"/>
     <use xlink:href="#ArialMT-61" x="2749.666016"/>
     <use xlink:href="#ArialMT-67" x="2805.28125"/>
     <use xlink:href="#ArialMT-20" x="2860.896484"/>
     <use xlink:href="#ArialMT-6d" x="2888.679688"/>
     <use xlink:href="#ArialMT-6f" x="2971.980469"/>
     <use xlink:href="#ArialMT-64" x="3027.595703"/>
     <use xlink:href="#ArialMT-65" x="3083.210938"/>
     <use xlink:href="#ArialMT-6c" x="3138.826172"/>
     <use xlink:href="#ArialMT-73" x="3161.042969"/>
    </g>
   </g>
   <g id="legend_1">
    <g id="patch_7">
     <path d="M 265.265625 166.165 
L 398.0975 166.165 
Q 399.8575 166.165 399.8575 164.405 
L 399.8575 40.6 
Q 399.8575 38.84 398.0975 38.84 
L 265.265625 38.84 
Q 263.505625 38.84 263.505625 40.6 
L 263.505625 164.405 
Q 263.505625 166.165 265.265625 166.165 
z
" style="fill: #eaeaf2; opacity: 0.8; stroke: #cccccc; stroke-width: 0.8; stroke-linejoin: miter"/>
    </g>
    <g id="line2d_26">
     <path d="M 267.025625 45.578875 
L 275.825625 45.578875 
L 284.625625 45.578875 
" style="fill: none; stroke: #8000ff; stroke-width: 1.2; stroke-linecap: round"/>
    </g>
    <g id="text_19">
     <!-- melling -->
     <g style="fill: #262626" transform="translate(291.665625 48.658875) scale(0.088 -0.088)">
      <use xlink:href="#ArialMT-6d"/>
      <use xlink:href="#ArialMT-65" x="83.300781"/>
      <use xlink:href="#ArialMT-6c" x="138.916016"/>
      <use xlink:href="#ArialMT-6c" x="161.132812"/>
      <use xlink:href="#ArialMT-69" x="183.349609"/>
      <use xlink:href="#ArialMT-6e" x="205.566406"/>
      <use xlink:href="#ArialMT-67" x="261.181641"/>
     </g>
    </g>
    <g id="line2d_27">
     <path d="M 267.025625 58.129875 
L 275.825625 58.129875 
L 284.625625 58.129875 
" style="fill: none; stroke: #4062fa; stroke-width: 1.2; stroke-linecap: round"/>
    </g>
    <g id="text_20">
     <!-- sphere -->
     <g style="fill: #262626" transform="translate(291.665625 61.209875) scale(0.088 -0.088)">
      <use xlink:href="#ArialMT-73"/>
      <use xlink:href="#ArialMT-70" x="50"/>
      <use xlink:href="#ArialMT-68" x="105.615234"/>
      <use xlink:href="#ArialMT-65" x="161.230469"/>
      <use xlink:href="#ArialMT-72" x="216.845703"/>
      <use xlink:href="#ArialMT-65" x="250.146484"/>
     </g>
    </g>
    <g id="line2d_28">
     <path d="M 267.025625 70.57775 
L 275.825625 70.57775 
L 284.625625 70.57775 
" style="fill: none; stroke: #00b5eb; stroke-width: 1.2; stroke-linecap: round"/>
    </g>
    <g id="text_21">
     <!-- schiller-nauman -->
     <g style="fill: #262626" transform="translate(291.665625 73.65775) scale(0.088 -0.088)">
      <defs>
       <path id="ArialMT-2d" d="M 203 1375 
L 203 1941 
L 1931 1941 
L 1931 1375 
L 203 1375 
z
" transform="scale(0.015625)"/>
      </defs>
      <use xlink:href="#ArialMT-73"/>
      <use xlink:href="#ArialMT-63" x="50"/>
      <use xlink:href="#ArialMT-68" x="100"/>
      <use xlink:href="#ArialMT-69" x="155.615234"/>
      <use xlink:href="#ArialMT-6c" x="177.832031"/>
      <use xlink:href="#ArialMT-6c" x="200.048828"/>
      <use xlink:href="#ArialMT-65" x="222.265625"/>
      <use xlink:href="#ArialMT-72" x="277.880859"/>
      <use xlink:href="#ArialMT-2d" x="311.181641"/>
      <use xlink:href="#ArialMT-6e" x="344.482422"/>
      <use xlink:href="#ArialMT-61" x="400.097656"/>
      <use xlink:href="#ArialMT-75" x="455.712891"/>
      <use xlink:href="#ArialMT-6d" x="511.328125"/>
      <use xlink:href="#ArialMT-61" x="594.628906"/>
      <use xlink:href="#ArialMT-6e" x="650.244141"/>
     </g>
    </g>
    <g id="line2d_29">
     <path d="M 267.025625 83.025625 
L 275.825625 83.025625 
L 284.625625 83.025625 
" style="fill: none; stroke: #40ecd4; stroke-width: 1.2; stroke-linecap: round"/>
    </g>
    <g id="text_22">
     <!-- henderson -->
     <g style="fill: #262626" transform="translate(291.665625 86.105625) scale(0.088 -0.088)">
      <use xlink:href="#ArialMT-68"/>
      <use xlink:href="#ArialMT-65" x="55.615234"/>
      <use xlink:href="#ArialMT-6e" x="111.230469"/>
      <use xlink:href="#ArialMT-64" x="166.845703"/>
      <use xlink:href="#ArialMT-65" x="222.460938"/>
      <use xlink:href="#ArialMT-72" x="278.076172"/>
      <use xlink:href="#ArialMT-73" x="311.376953"/>
      <use xlink:href="#ArialMT-6f" x="361.376953"/>
      <use xlink:href="#ArialMT-6e" x="416.992188"/>
     </g>
    </g>
    <g id="line2d_30">
     <path d="M 267.025625 95.4735 
L 275.825625 95.4735 
L 284.625625 95.4735 
" style="fill: none; stroke: #80ffb4; stroke-width: 1.2; stroke-linecap: round"/>
    </g>
    <g id="text_23">
     <!-- oseen -->
     <g style="fill: #262626" transform="translate(291.665625 98.5535) scale(0.088 -0.088)">
      <use xlink:href="#ArialMT-6f"/>
      <use xlink:href="#ArialMT-73" x="55.615234"/>
      <use xlink:href="#ArialMT-65" x="105.615234"/>
      <use xlink:href="#ArialMT-65" x="161.230469"/>
      <use xlink:href="#ArialMT-6e" x="216.845703"/>
     </g>
    </g>
    <g id="line2d_31">
     <path d="M 267.025625 107.921375 
L 275.825625 107.921375 
L 284.625625 107.921375 
" style="fill: none; stroke: #c0eb8d; stroke-width: 1.2; stroke-linecap: round"/>
    </g>
    <g id="text_24">
     <!-- stokes -->
     <g style="fill: #262626" transform="translate(291.665625 111.001375) scale(0.088 -0.088)">
      <use xlink:href="#ArialMT-73"/>
      <use xlink:href="#ArialMT-74" x="50"/>
      <use xlink:href="#ArialMT-6f" x="77.783203"/>
      <use xlink:href="#ArialMT-6b" x="133.398438"/>
      <use xlink:href="#ArialMT-65" x="183.398438"/>
      <use xlink:href="#ArialMT-73" x="239.013672"/>
     </g>
    </g>
    <g id="line2d_32">
     <path d="M 267.025625 120.36925 
L 275.825625 120.36925 
L 284.625625 120.36925 
" style="fill: none; stroke: #ffb360; stroke-width: 1.2; stroke-linecap: round"/>
    </g>
    <g id="text_25">
     <!-- loth -->
     <g style="fill: #262626" transform="translate(291.665625 123.44925) scale(0.088 -0.088)">
      <use xlink:href="#ArialMT-6c"/>
      <use xlink:href="#ArialMT-6f" x="22.216797"/>
      <use xlink:href="#ArialMT-74" x="77.832031"/>
      <use xlink:href="#ArialMT-68" x="105.615234"/>
     </g>
    </g>
    <g id="line2d_33">
     <path d="M 267.025625 132.817125 
L 275.825625 132.817125 
L 284.625625 132.817125 
" style="fill: none; stroke: #ff5f30; stroke-width: 1.2; stroke-linecap: round"/>
    </g>
    <g id="text_26">
     <!-- subramaniam-balachandar -->
     <g style="fill: #262626" transform="translate(291.665625 135.897125) scale(0.088 -0.088)">
      <defs>
       <path id="ArialMT-62" d="M 941 0 
L 419 0 
L 419 4581 
L 981 4581 
L 981 2947 
Q 1338 3394 1891 3394 
Q 2197 3394 2470 3270 
Q 2744 3147 2920 2923 
Q 3097 2700 3197 2384 
Q 3297 2069 3297 1709 
Q 3297 856 2875 390 
Q 2453 -75 1863 -75 
Q 1275 -75 941 416 
L 941 0 
z
M 934 1684 
Q 934 1088 1097 822 
Q 1363 388 1816 388 
Q 2184 388 2453 708 
Q 2722 1028 2722 1663 
Q 2722 2313 2464 2622 
Q 2206 2931 1841 2931 
Q 1472 2931 1203 2611 
Q 934 2291 934 1684 
z
" transform="scale(0.015625)"/>
      </defs>
      <use xlink:href="#ArialMT-73"/>
      <use xlink:href="#ArialMT-75" x="50"/>
      <use xlink:href="#ArialMT-62" x="105.615234"/>
      <use xlink:href="#ArialMT-72" x="161.230469"/>
      <use xlink:href="#ArialMT-61" x="194.53125"/>
      <use xlink:href="#ArialMT-6d" x="250.146484"/>
      <use xlink:href="#ArialMT-61" x="333.447266"/>
      <use xlink:href="#ArialMT-6e" x="389.0625"/>
      <use xlink:href="#ArialMT-69" x="444.677734"/>
      <use xlink:href="#ArialMT-61" x="466.894531"/>
      <use xlink:href="#ArialMT-6d" x="522.509766"/>
      <use xlink:href="#ArialMT-2d" x="605.810547"/>
      <use xlink:href="#ArialMT-62" x="639.111328"/>
      <use xlink:href="#ArialMT-61" x="694.726562"/>
      <use xlink:href="#ArialMT-6c" x="750.341797"/>
      <use xlink:href="#ArialMT-61" x="772.558594"/>
      <use xlink:href="#ArialMT-63" x="828.173828"/>
      <use xlink:href="#ArialMT-68" x="878.173828"/>
      <use xlink:href="#ArialMT-61" x="933.789062"/>
      <use xlink:href="#ArialMT-6e" x="989.404297"/>
      <use xlink:href="#ArialMT-64" x="1045.019531"/>
      <use xlink:href="#ArialMT-61" x="1100.634766"/>
      <use xlink:href="#ArialMT-72" x="1156.25"/>
     </g>
    </g>
    <g id="line2d_34">
     <path d="M 267.025625 145.265 
L 275.825625 145.265 
L 284.625625 145.265 
" style="fill: none; stroke: #ff0000; stroke-width: 1.2; stroke-linecap: round"/>
    </g>
    <g id="text_27">
     <!-- cunningham -->
     <g style="fill: #262626" transform="translate(291.665625 148.345) scale(0.088 -0.088)">
      <use xlink:href="#ArialMT-63"/>
      <use xlink:href="#ArialMT-75" x="50"/>
      <use xlink:href="#ArialMT-6e" x="105.615234"/>
      <use xlink:href="#ArialMT-6e" x="161.230469"/>
      <use xlink:href="#ArialMT-69" x="216.845703"/>
      <use xlink:href="#ArialMT-6e" x="239.0625"/>
      <use xlink:href="#ArialMT-67" x="294.677734"/>
      <use xlink:href="#ArialMT-68" x="350.292969"/>
      <use xlink:href="#ArialMT-61" x="405.908203"/>
      <use xlink:href="#ArialMT-6d" x="461.523438"/>
     </g>
    </g>
    <g id="line2d_35">
     <g>
      <use xlink:href="#m7a9ee8d079" x="275.825625" y="157.816" style="fill: #1a1a1a; stroke: #1a1a1a; stroke-linejoin: bevel"/>
     </g>
    </g>
    <g id="text_28">
     <!-- experiment -->
     <g style="fill: #262626" transform="translate(291.665625 160.896) scale(0.088 -0.088)">
      <defs>
       <path id="ArialMT-78" d="M 47 0 
L 1259 1725 
L 138 3319 
L 841 3319 
L 1350 2541 
Q 1494 2319 1581 2169 
Q 1719 2375 1834 2534 
L 2394 3319 
L 3066 3319 
L 1919 1756 
L 3153 0 
L 2463 0 
L 1781 1031 
L 1600 1309 
L 728 0 
L 47 0 
z
" transform="scale(0.015625)"/>
      </defs>
      <use xlink:href="#ArialMT-65"/>
      <use xlink:href="#ArialMT-78" x="55.615234"/>
      <use xlink:href="#ArialMT-70" x="105.615234"/>
      <use xlink:href="#ArialMT-65" x="161.230469"/>
      <use xlink:href="#ArialMT-72" x="216.845703"/>
      <use xlink:href="#ArialMT-69" x="250.146484"/>
      <use xlink:href="#ArialMT-6d" x="272.363281"/>
      <use xlink:href="#ArialMT-65" x="355.664062"/>
      <use xlink:href="#ArialMT-6e" x="411.279297"/>
      <use xlink:href="#ArialMT-74" x="466.894531"/>
     </g>
    </g>
   </g>
  </g>
 </g>
 <defs>
  <clipPath id="pa713ac5a80">
   <rect x="59.955" y="34.44" width="344.3025" height="346.74"/>
  </clipPath>
 </defs>
</svg>
