<?xml version="1.0" encoding="utf-8" standalone="no"?>
<!DOCTYPE svg PUBLIC "-//W3C//DTD SVG 1.1//EN"
  "http://www.w3.org/Graphics/SVG/1.1/DTD/svg11.dtd">
<svg xmlns:xlink="http://www.w3.org/1999/xlink" width="842.726562pt" height="611.145375pt" viewBox="0 0 842.726562 611.145375" xmlns="http://www.w3.org/2000/svg" version="1.1">
 <metadata>
  <rdf:RDF xmlns:dc="http://purl.org/dc/elements/1.1/" xmlns:cc="http://creativecommons.org/ns#" xmlns:rdf="http://www.w3.org/1999/02/22-rdf-syntax-ns#">
   <cc:Work>
    <dc:type rdf:resource="http://purl.org/dc/dcmitype/StillImage"/>
    <dc:date>2023-12-07T18:12:28.630226</dc:date>
    <dc:format>image/svg+xml</dc:format>
    <dc:creator>
     <cc:Agent>
      <dc:title>Matplotlib v3.8.0, https://matplotlib.org/</dc:title>
     </cc:Agent>
    </dc:creator>
   </cc:Work>
  </rdf:RDF>
 </metadata>
 <defs>
  <style type="text/css">*{stroke-linejoin: round; stroke-linecap: butt}</style>
 </defs>
 <g id="figure_1">
  <g id="patch_1">
   <path d="M 0 611.145375 
L 842.726562 611.145375 
L 842.726562 0 
L 0 0 
z
" style="fill: #ffffff"/>
  </g>
  <g id="axes_1">
   <g id="patch_2">
    <path d="M 45.76375 574.5885 
L 826.96375 574.5885 
L 826.96375 20.1885 
L 45.76375 20.1885 
z
" style="fill: #eaeaf2"/>
   </g>
   <g id="matplotlib.axis_1">
    <g id="xtick_1">
     <g id="line2d_1">
      <path d="M 82.96375 574.5885 
L 82.96375 20.1885 
" clip-path="url(#p43904d2986)" style="fill: none; stroke: #ffffff; stroke-width: 0.8; stroke-linecap: round"/>
     </g>
     <g id="text_1">
      <!-- 0.0 -->
      <g style="fill: #262626" transform="translate(76.84775 589.187375) scale(0.088 -0.088)">
       <defs>
        <path id="ArialMT-30" d="M 266 2259 
Q 266 3072 433 3567 
Q 600 4063 929 4331 
Q 1259 4600 1759 4600 
Q 2128 4600 2406 4451 
Q 2684 4303 2865 4023 
Q 3047 3744 3150 3342 
Q 3253 2941 3253 2259 
Q 3253 1453 3087 958 
Q 2922 463 2592 192 
Q 2263 -78 1759 -78 
Q 1097 -78 719 397 
Q 266 969 266 2259 
z
M 844 2259 
Q 844 1131 1108 757 
Q 1372 384 1759 384 
Q 2147 384 2411 759 
Q 2675 1134 2675 2259 
Q 2675 3391 2411 3762 
Q 2147 4134 1753 4134 
Q 1366 4134 1134 3806 
Q 844 3388 844 2259 
z
" transform="scale(0.015625)"/>
        <path id="ArialMT-2e" d="M 581 0 
L 581 641 
L 1222 641 
L 1222 0 
L 581 0 
z
" transform="scale(0.015625)"/>
       </defs>
       <use xlink:href="#ArialMT-30"/>
       <use xlink:href="#ArialMT-2e" x="55.615234"/>
       <use xlink:href="#ArialMT-30" x="83.398438"/>
      </g>
     </g>
    </g>
    <g id="xtick_2">
     <g id="line2d_2">
      <path d="M 175.96375 574.5885 
L 175.96375 20.1885 
" clip-path="url(#p43904d2986)" style="fill: none; stroke: #ffffff; stroke-width: 0.8; stroke-linecap: round"/>
     </g>
     <g id="text_2">
      <!-- 2.5 -->
      <g style="fill: #262626" transform="translate(169.84775 589.187375) scale(0.088 -0.088)">
       <defs>
        <path id="ArialMT-32" d="M 3222 541 
L 3222 0 
L 194 0 
Q 188 203 259 391 
Q 375 700 629 1000 
Q 884 1300 1366 1694 
Q 2113 2306 2375 2664 
Q 2638 3022 2638 3341 
Q 2638 3675 2398 3904 
Q 2159 4134 1775 4134 
Q 1369 4134 1125 3890 
Q 881 3647 878 3216 
L 300 3275 
Q 359 3922 746 4261 
Q 1134 4600 1788 4600 
Q 2447 4600 2831 4234 
Q 3216 3869 3216 3328 
Q 3216 3053 3103 2787 
Q 2991 2522 2730 2228 
Q 2469 1934 1863 1422 
Q 1356 997 1212 845 
Q 1069 694 975 541 
L 3222 541 
z
" transform="scale(0.015625)"/>
        <path id="ArialMT-35" d="M 266 1200 
L 856 1250 
Q 922 819 1161 601 
Q 1400 384 1738 384 
Q 2144 384 2425 690 
Q 2706 997 2706 1503 
Q 2706 1984 2436 2262 
Q 2166 2541 1728 2541 
Q 1456 2541 1237 2417 
Q 1019 2294 894 2097 
L 366 2166 
L 809 4519 
L 3088 4519 
L 3088 3981 
L 1259 3981 
L 1013 2750 
Q 1425 3038 1878 3038 
Q 2478 3038 2890 2622 
Q 3303 2206 3303 1553 
Q 3303 931 2941 478 
Q 2500 -78 1738 -78 
Q 1113 -78 717 272 
Q 322 622 266 1200 
z
" transform="scale(0.015625)"/>
       </defs>
       <use xlink:href="#ArialMT-32"/>
       <use xlink:href="#ArialMT-2e" x="55.615234"/>
       <use xlink:href="#ArialMT-35" x="83.398438"/>
      </g>
     </g>
    </g>
    <g id="xtick_3">
     <g id="line2d_3">
      <path d="M 268.96375 574.5885 
L 268.96375 20.1885 
" clip-path="url(#p43904d2986)" style="fill: none; stroke: #ffffff; stroke-width: 0.8; stroke-linecap: round"/>
     </g>
     <g id="text_3">
      <!-- 5.0 -->
      <g style="fill: #262626" transform="translate(262.84775 589.187375) scale(0.088 -0.088)">
       <use xlink:href="#ArialMT-35"/>
       <use xlink:href="#ArialMT-2e" x="55.615234"/>
       <use xlink:href="#ArialMT-30" x="83.398438"/>
      </g>
     </g>
    </g>
    <g id="xtick_4">
     <g id="line2d_4">
      <path d="M 361.96375 574.5885 
L 361.96375 20.1885 
" clip-path="url(#p43904d2986)" style="fill: none; stroke: #ffffff; stroke-width: 0.8; stroke-linecap: round"/>
     </g>
     <g id="text_4">
      <!-- 7.5 -->
      <g style="fill: #262626" transform="translate(355.84775 589.187375) scale(0.088 -0.088)">
       <defs>
        <path id="ArialMT-37" d="M 303 3981 
L 303 4522 
L 3269 4522 
L 3269 4084 
Q 2831 3619 2401 2847 
Q 1972 2075 1738 1259 
Q 1569 684 1522 0 
L 944 0 
Q 953 541 1156 1306 
Q 1359 2072 1739 2783 
Q 2119 3494 2547 3981 
L 303 3981 
z
" transform="scale(0.015625)"/>
       </defs>
       <use xlink:href="#ArialMT-37"/>
       <use xlink:href="#ArialMT-2e" x="55.615234"/>
       <use xlink:href="#ArialMT-35" x="83.398438"/>
      </g>
     </g>
    </g>
    <g id="xtick_5">
     <g id="line2d_5">
      <path d="M 454.96375 574.5885 
L 454.96375 20.1885 
" clip-path="url(#p43904d2986)" style="fill: none; stroke: #ffffff; stroke-width: 0.8; stroke-linecap: round"/>
     </g>
     <g id="text_5">
      <!-- 10.0 -->
      <g style="fill: #262626" transform="translate(446.400937 589.187375) scale(0.088 -0.088)">
       <defs>
        <path id="ArialMT-31" d="M 2384 0 
L 1822 0 
L 1822 3584 
Q 1619 3391 1289 3197 
Q 959 3003 697 2906 
L 697 3450 
Q 1169 3672 1522 3987 
Q 1875 4303 2022 4600 
L 2384 4600 
L 2384 0 
z
" transform="scale(0.015625)"/>
       </defs>
       <use xlink:href="#ArialMT-31"/>
       <use xlink:href="#ArialMT-30" x="55.615234"/>
       <use xlink:href="#ArialMT-2e" x="111.230469"/>
       <use xlink:href="#ArialMT-30" x="139.013672"/>
      </g>
     </g>
    </g>
    <g id="xtick_6">
     <g id="line2d_6">
      <path d="M 547.96375 574.5885 
L 547.96375 20.1885 
" clip-path="url(#p43904d2986)" style="fill: none; stroke: #ffffff; stroke-width: 0.8; stroke-linecap: round"/>
     </g>
     <g id="text_6">
      <!-- 12.5 -->
      <g style="fill: #262626" transform="translate(539.400938 589.187375) scale(0.088 -0.088)">
       <use xlink:href="#ArialMT-31"/>
       <use xlink:href="#ArialMT-32" x="55.615234"/>
       <use xlink:href="#ArialMT-2e" x="111.230469"/>
       <use xlink:href="#ArialMT-35" x="139.013672"/>
      </g>
     </g>
    </g>
    <g id="xtick_7">
     <g id="line2d_7">
      <path d="M 640.96375 574.5885 
L 640.96375 20.1885 
" clip-path="url(#p43904d2986)" style="fill: none; stroke: #ffffff; stroke-width: 0.8; stroke-linecap: round"/>
     </g>
     <g id="text_7">
      <!-- 15.0 -->
      <g style="fill: #262626" transform="translate(632.400938 589.187375) scale(0.088 -0.088)">
       <use xlink:href="#ArialMT-31"/>
       <use xlink:href="#ArialMT-35" x="55.615234"/>
       <use xlink:href="#ArialMT-2e" x="111.230469"/>
       <use xlink:href="#ArialMT-30" x="139.013672"/>
      </g>
     </g>
    </g>
    <g id="xtick_8">
     <g id="line2d_8">
      <path d="M 733.96375 574.5885 
L 733.96375 20.1885 
" clip-path="url(#p43904d2986)" style="fill: none; stroke: #ffffff; stroke-width: 0.8; stroke-linecap: round"/>
     </g>
     <g id="text_8">
      <!-- 17.5 -->
      <g style="fill: #262626" transform="translate(725.400938 589.187375) scale(0.088 -0.088)">
       <use xlink:href="#ArialMT-31"/>
       <use xlink:href="#ArialMT-37" x="55.615234"/>
       <use xlink:href="#ArialMT-2e" x="111.230469"/>
       <use xlink:href="#ArialMT-35" x="139.013672"/>
      </g>
     </g>
    </g>
    <g id="xtick_9">
     <g id="line2d_9">
      <path d="M 826.96375 574.5885 
L 826.96375 20.1885 
" clip-path="url(#p43904d2986)" style="fill: none; stroke: #ffffff; stroke-width: 0.8; stroke-linecap: round"/>
     </g>
     <g id="text_9">
      <!-- 20.0 -->
      <g style="fill: #262626" transform="translate(818.400938 589.187375) scale(0.088 -0.088)">
       <use xlink:href="#ArialMT-32"/>
       <use xlink:href="#ArialMT-30" x="55.615234"/>
       <use xlink:href="#ArialMT-2e" x="111.230469"/>
       <use xlink:href="#ArialMT-30" x="139.013672"/>
      </g>
     </g>
    </g>
    <g id="text_10">
     <!-- Shock normal distance (mm) -->
     <g style="fill: #262626" transform="translate(375.28225 601.924875) scale(0.096 -0.096)">
      <defs>
       <path id="ArialMT-53" d="M 288 1472 
L 859 1522 
Q 900 1178 1048 958 
Q 1197 738 1509 602 
Q 1822 466 2213 466 
Q 2559 466 2825 569 
Q 3091 672 3220 851 
Q 3350 1031 3350 1244 
Q 3350 1459 3225 1620 
Q 3100 1781 2813 1891 
Q 2628 1963 1997 2114 
Q 1366 2266 1113 2400 
Q 784 2572 623 2826 
Q 463 3081 463 3397 
Q 463 3744 659 4045 
Q 856 4347 1234 4503 
Q 1613 4659 2075 4659 
Q 2584 4659 2973 4495 
Q 3363 4331 3572 4012 
Q 3781 3694 3797 3291 
L 3216 3247 
Q 3169 3681 2898 3903 
Q 2628 4125 2100 4125 
Q 1550 4125 1298 3923 
Q 1047 3722 1047 3438 
Q 1047 3191 1225 3031 
Q 1400 2872 2139 2705 
Q 2878 2538 3153 2413 
Q 3553 2228 3743 1945 
Q 3934 1663 3934 1294 
Q 3934 928 3725 604 
Q 3516 281 3123 101 
Q 2731 -78 2241 -78 
Q 1619 -78 1198 103 
Q 778 284 539 648 
Q 300 1013 288 1472 
z
" transform="scale(0.015625)"/>
       <path id="ArialMT-68" d="M 422 0 
L 422 4581 
L 984 4581 
L 984 2938 
Q 1378 3394 1978 3394 
Q 2347 3394 2619 3248 
Q 2891 3103 3008 2847 
Q 3125 2591 3125 2103 
L 3125 0 
L 2563 0 
L 2563 2103 
Q 2563 2525 2380 2717 
Q 2197 2909 1863 2909 
Q 1613 2909 1392 2779 
Q 1172 2650 1078 2428 
Q 984 2206 984 1816 
L 984 0 
L 422 0 
z
" transform="scale(0.015625)"/>
       <path id="ArialMT-6f" d="M 213 1659 
Q 213 2581 725 3025 
Q 1153 3394 1769 3394 
Q 2453 3394 2887 2945 
Q 3322 2497 3322 1706 
Q 3322 1066 3130 698 
Q 2938 331 2570 128 
Q 2203 -75 1769 -75 
Q 1072 -75 642 372 
Q 213 819 213 1659 
z
M 791 1659 
Q 791 1022 1069 705 
Q 1347 388 1769 388 
Q 2188 388 2466 706 
Q 2744 1025 2744 1678 
Q 2744 2294 2464 2611 
Q 2184 2928 1769 2928 
Q 1347 2928 1069 2612 
Q 791 2297 791 1659 
z
" transform="scale(0.015625)"/>
       <path id="ArialMT-63" d="M 2588 1216 
L 3141 1144 
Q 3050 572 2676 248 
Q 2303 -75 1759 -75 
Q 1078 -75 664 370 
Q 250 816 250 1647 
Q 250 2184 428 2587 
Q 606 2991 970 3192 
Q 1334 3394 1763 3394 
Q 2303 3394 2647 3120 
Q 2991 2847 3088 2344 
L 2541 2259 
Q 2463 2594 2264 2762 
Q 2066 2931 1784 2931 
Q 1359 2931 1093 2626 
Q 828 2322 828 1663 
Q 828 994 1084 691 
Q 1341 388 1753 388 
Q 2084 388 2306 591 
Q 2528 794 2588 1216 
z
" transform="scale(0.015625)"/>
       <path id="ArialMT-6b" d="M 425 0 
L 425 4581 
L 988 4581 
L 988 1969 
L 2319 3319 
L 3047 3319 
L 1778 2088 
L 3175 0 
L 2481 0 
L 1384 1697 
L 988 1316 
L 988 0 
L 425 0 
z
" transform="scale(0.015625)"/>
       <path id="ArialMT-20" transform="scale(0.015625)"/>
       <path id="ArialMT-6e" d="M 422 0 
L 422 3319 
L 928 3319 
L 928 2847 
Q 1294 3394 1984 3394 
Q 2284 3394 2536 3286 
Q 2788 3178 2913 3003 
Q 3038 2828 3088 2588 
Q 3119 2431 3119 2041 
L 3119 0 
L 2556 0 
L 2556 2019 
Q 2556 2363 2490 2533 
Q 2425 2703 2258 2804 
Q 2091 2906 1866 2906 
Q 1506 2906 1245 2678 
Q 984 2450 984 1813 
L 984 0 
L 422 0 
z
" transform="scale(0.015625)"/>
       <path id="ArialMT-72" d="M 416 0 
L 416 3319 
L 922 3319 
L 922 2816 
Q 1116 3169 1280 3281 
Q 1444 3394 1641 3394 
Q 1925 3394 2219 3213 
L 2025 2691 
Q 1819 2813 1613 2813 
Q 1428 2813 1281 2702 
Q 1134 2591 1072 2394 
Q 978 2094 978 1738 
L 978 0 
L 416 0 
z
" transform="scale(0.015625)"/>
       <path id="ArialMT-6d" d="M 422 0 
L 422 3319 
L 925 3319 
L 925 2853 
Q 1081 3097 1340 3245 
Q 1600 3394 1931 3394 
Q 2300 3394 2536 3241 
Q 2772 3088 2869 2813 
Q 3263 3394 3894 3394 
Q 4388 3394 4653 3120 
Q 4919 2847 4919 2278 
L 4919 0 
L 4359 0 
L 4359 2091 
Q 4359 2428 4304 2576 
Q 4250 2725 4106 2815 
Q 3963 2906 3769 2906 
Q 3419 2906 3187 2673 
Q 2956 2441 2956 1928 
L 2956 0 
L 2394 0 
L 2394 2156 
Q 2394 2531 2256 2718 
Q 2119 2906 1806 2906 
Q 1569 2906 1367 2781 
Q 1166 2656 1075 2415 
Q 984 2175 984 1722 
L 984 0 
L 422 0 
z
" transform="scale(0.015625)"/>
       <path id="ArialMT-61" d="M 2588 409 
Q 2275 144 1986 34 
Q 1697 -75 1366 -75 
Q 819 -75 525 192 
Q 231 459 231 875 
Q 231 1119 342 1320 
Q 453 1522 633 1644 
Q 813 1766 1038 1828 
Q 1203 1872 1538 1913 
Q 2219 1994 2541 2106 
Q 2544 2222 2544 2253 
Q 2544 2597 2384 2738 
Q 2169 2928 1744 2928 
Q 1347 2928 1158 2789 
Q 969 2650 878 2297 
L 328 2372 
Q 403 2725 575 2942 
Q 747 3159 1072 3276 
Q 1397 3394 1825 3394 
Q 2250 3394 2515 3294 
Q 2781 3194 2906 3042 
Q 3031 2891 3081 2659 
Q 3109 2516 3109 2141 
L 3109 1391 
Q 3109 606 3145 398 
Q 3181 191 3288 0 
L 2700 0 
Q 2613 175 2588 409 
z
M 2541 1666 
Q 2234 1541 1622 1453 
Q 1275 1403 1131 1340 
Q 988 1278 909 1158 
Q 831 1038 831 891 
Q 831 666 1001 516 
Q 1172 366 1500 366 
Q 1825 366 2078 508 
Q 2331 650 2450 897 
Q 2541 1088 2541 1459 
L 2541 1666 
z
" transform="scale(0.015625)"/>
       <path id="ArialMT-6c" d="M 409 0 
L 409 4581 
L 972 4581 
L 972 0 
L 409 0 
z
" transform="scale(0.015625)"/>
       <path id="ArialMT-64" d="M 2575 0 
L 2575 419 
Q 2259 -75 1647 -75 
Q 1250 -75 917 144 
Q 584 363 401 755 
Q 219 1147 219 1656 
Q 219 2153 384 2558 
Q 550 2963 881 3178 
Q 1213 3394 1622 3394 
Q 1922 3394 2156 3267 
Q 2391 3141 2538 2938 
L 2538 4581 
L 3097 4581 
L 3097 0 
L 2575 0 
z
M 797 1656 
Q 797 1019 1065 703 
Q 1334 388 1700 388 
Q 2069 388 2326 689 
Q 2584 991 2584 1609 
Q 2584 2291 2321 2609 
Q 2059 2928 1675 2928 
Q 1300 2928 1048 2622 
Q 797 2316 797 1656 
z
" transform="scale(0.015625)"/>
       <path id="ArialMT-69" d="M 425 3934 
L 425 4581 
L 988 4581 
L 988 3934 
L 425 3934 
z
M 425 0 
L 425 3319 
L 988 3319 
L 988 0 
L 425 0 
z
" transform="scale(0.015625)"/>
       <path id="ArialMT-73" d="M 197 991 
L 753 1078 
Q 800 744 1014 566 
Q 1228 388 1613 388 
Q 2000 388 2187 545 
Q 2375 703 2375 916 
Q 2375 1106 2209 1216 
Q 2094 1291 1634 1406 
Q 1016 1563 777 1677 
Q 538 1791 414 1992 
Q 291 2194 291 2438 
Q 291 2659 392 2848 
Q 494 3038 669 3163 
Q 800 3259 1026 3326 
Q 1253 3394 1513 3394 
Q 1903 3394 2198 3281 
Q 2494 3169 2634 2976 
Q 2775 2784 2828 2463 
L 2278 2388 
Q 2241 2644 2061 2787 
Q 1881 2931 1553 2931 
Q 1166 2931 1000 2803 
Q 834 2675 834 2503 
Q 834 2394 903 2306 
Q 972 2216 1119 2156 
Q 1203 2125 1616 2013 
Q 2213 1853 2448 1751 
Q 2684 1650 2818 1456 
Q 2953 1263 2953 975 
Q 2953 694 2789 445 
Q 2625 197 2315 61 
Q 2006 -75 1616 -75 
Q 969 -75 630 194 
Q 291 463 197 991 
z
" transform="scale(0.015625)"/>
       <path id="ArialMT-74" d="M 1650 503 
L 1731 6 
Q 1494 -44 1306 -44 
Q 1000 -44 831 53 
Q 663 150 594 308 
Q 525 466 525 972 
L 525 2881 
L 113 2881 
L 113 3319 
L 525 3319 
L 525 4141 
L 1084 4478 
L 1084 3319 
L 1650 3319 
L 1650 2881 
L 1084 2881 
L 1084 941 
Q 1084 700 1114 631 
Q 1144 563 1211 522 
Q 1278 481 1403 481 
Q 1497 481 1650 503 
z
" transform="scale(0.015625)"/>
       <path id="ArialMT-65" d="M 2694 1069 
L 3275 997 
Q 3138 488 2766 206 
Q 2394 -75 1816 -75 
Q 1088 -75 661 373 
Q 234 822 234 1631 
Q 234 2469 665 2931 
Q 1097 3394 1784 3394 
Q 2450 3394 2872 2941 
Q 3294 2488 3294 1666 
Q 3294 1616 3291 1516 
L 816 1516 
Q 847 969 1125 678 
Q 1403 388 1819 388 
Q 2128 388 2347 550 
Q 2566 713 2694 1069 
z
M 847 1978 
L 2700 1978 
Q 2663 2397 2488 2606 
Q 2219 2931 1791 2931 
Q 1403 2931 1139 2672 
Q 875 2413 847 1978 
z
" transform="scale(0.015625)"/>
       <path id="ArialMT-28" d="M 1497 -1347 
Q 1031 -759 709 28 
Q 388 816 388 1659 
Q 388 2403 628 3084 
Q 909 3875 1497 4659 
L 1900 4659 
Q 1522 4009 1400 3731 
Q 1209 3300 1100 2831 
Q 966 2247 966 1656 
Q 966 153 1900 -1347 
L 1497 -1347 
z
" transform="scale(0.015625)"/>
       <path id="ArialMT-29" d="M 791 -1347 
L 388 -1347 
Q 1322 153 1322 1656 
Q 1322 2244 1188 2822 
Q 1081 3291 891 3722 
Q 769 4003 388 4659 
L 791 4659 
Q 1378 3875 1659 3084 
Q 1900 2403 1900 1659 
Q 1900 816 1576 28 
Q 1253 -759 791 -1347 
z
" transform="scale(0.015625)"/>
      </defs>
      <use xlink:href="#ArialMT-53"/>
      <use xlink:href="#ArialMT-68" x="66.699219"/>
      <use xlink:href="#ArialMT-6f" x="122.314453"/>
      <use xlink:href="#ArialMT-63" x="177.929688"/>
      <use xlink:href="#ArialMT-6b" x="227.929688"/>
      <use xlink:href="#ArialMT-20" x="277.929688"/>
      <use xlink:href="#ArialMT-6e" x="305.712891"/>
      <use xlink:href="#ArialMT-6f" x="361.328125"/>
      <use xlink:href="#ArialMT-72" x="416.943359"/>
      <use xlink:href="#ArialMT-6d" x="450.244141"/>
      <use xlink:href="#ArialMT-61" x="533.544922"/>
      <use xlink:href="#ArialMT-6c" x="589.160156"/>
      <use xlink:href="#ArialMT-20" x="611.376953"/>
      <use xlink:href="#ArialMT-64" x="639.160156"/>
      <use xlink:href="#ArialMT-69" x="694.775391"/>
      <use xlink:href="#ArialMT-73" x="716.992188"/>
      <use xlink:href="#ArialMT-74" x="766.992188"/>
      <use xlink:href="#ArialMT-61" x="794.775391"/>
      <use xlink:href="#ArialMT-6e" x="850.390625"/>
      <use xlink:href="#ArialMT-63" x="906.005859"/>
      <use xlink:href="#ArialMT-65" x="956.005859"/>
      <use xlink:href="#ArialMT-20" x="1011.621094"/>
      <use xlink:href="#ArialMT-28" x="1039.404297"/>
      <use xlink:href="#ArialMT-6d" x="1072.705078"/>
      <use xlink:href="#ArialMT-6d" x="1156.005859"/>
      <use xlink:href="#ArialMT-29" x="1239.306641"/>
     </g>
    </g>
   </g>
   <g id="matplotlib.axis_2">
    <g id="ytick_1">
     <g id="line2d_10">
      <path d="M 45.76375 574.5885 
L 826.96375 574.5885 
" clip-path="url(#p43904d2986)" style="fill: none; stroke: #ffffff; stroke-width: 0.8; stroke-linecap: round"/>
     </g>
     <g id="text_11">
      <!-- −0.2 -->
      <g style="fill: #262626" transform="translate(20.092 577.737938) scale(0.088 -0.088)">
       <defs>
        <path id="ArialMT-2212" d="M 3381 1997 
L 356 1997 
L 356 2522 
L 3381 2522 
L 3381 1997 
z
" transform="scale(0.015625)"/>
       </defs>
       <use xlink:href="#ArialMT-2212"/>
       <use xlink:href="#ArialMT-30" x="58.398438"/>
       <use xlink:href="#ArialMT-2e" x="114.013672"/>
       <use xlink:href="#ArialMT-32" x="141.796875"/>
      </g>
     </g>
    </g>
    <g id="ytick_2">
     <g id="line2d_11">
      <path d="M 45.76375 495.3885 
L 826.96375 495.3885 
" clip-path="url(#p43904d2986)" style="fill: none; stroke: #ffffff; stroke-width: 0.8; stroke-linecap: round"/>
     </g>
     <g id="text_12">
      <!-- 0.0 -->
      <g style="fill: #262626" transform="translate(25.23175 498.537938) scale(0.088 -0.088)">
       <use xlink:href="#ArialMT-30"/>
       <use xlink:href="#ArialMT-2e" x="55.615234"/>
       <use xlink:href="#ArialMT-30" x="83.398438"/>
      </g>
     </g>
    </g>
    <g id="ytick_3">
     <g id="line2d_12">
      <path d="M 45.76375 416.1885 
L 826.96375 416.1885 
" clip-path="url(#p43904d2986)" style="fill: none; stroke: #ffffff; stroke-width: 0.8; stroke-linecap: round"/>
     </g>
     <g id="text_13">
      <!-- 0.2 -->
      <g style="fill: #262626" transform="translate(25.23175 419.337938) scale(0.088 -0.088)">
       <use xlink:href="#ArialMT-30"/>
       <use xlink:href="#ArialMT-2e" x="55.615234"/>
       <use xlink:href="#ArialMT-32" x="83.398438"/>
      </g>
     </g>
    </g>
    <g id="ytick_4">
     <g id="line2d_13">
      <path d="M 45.76375 336.9885 
L 826.96375 336.9885 
" clip-path="url(#p43904d2986)" style="fill: none; stroke: #ffffff; stroke-width: 0.8; stroke-linecap: round"/>
     </g>
     <g id="text_14">
      <!-- 0.4 -->
      <g style="fill: #262626" transform="translate(25.23175 340.137937) scale(0.088 -0.088)">
       <defs>
        <path id="ArialMT-34" d="M 2069 0 
L 2069 1097 
L 81 1097 
L 81 1613 
L 2172 4581 
L 2631 4581 
L 2631 1613 
L 3250 1613 
L 3250 1097 
L 2631 1097 
L 2631 0 
L 2069 0 
z
M 2069 1613 
L 2069 3678 
L 634 1613 
L 2069 1613 
z
" transform="scale(0.015625)"/>
       </defs>
       <use xlink:href="#ArialMT-30"/>
       <use xlink:href="#ArialMT-2e" x="55.615234"/>
       <use xlink:href="#ArialMT-34" x="83.398438"/>
      </g>
     </g>
    </g>
    <g id="ytick_5">
     <g id="line2d_14">
      <path d="M 45.76375 257.7885 
L 826.96375 257.7885 
" clip-path="url(#p43904d2986)" style="fill: none; stroke: #ffffff; stroke-width: 0.8; stroke-linecap: round"/>
     </g>
     <g id="text_15">
      <!-- 0.6 -->
      <g style="fill: #262626" transform="translate(25.23175 260.937937) scale(0.088 -0.088)">
       <defs>
        <path id="ArialMT-36" d="M 3184 3459 
L 2625 3416 
Q 2550 3747 2413 3897 
Q 2184 4138 1850 4138 
Q 1581 4138 1378 3988 
Q 1113 3794 959 3422 
Q 806 3050 800 2363 
Q 1003 2672 1297 2822 
Q 1591 2972 1913 2972 
Q 2475 2972 2870 2558 
Q 3266 2144 3266 1488 
Q 3266 1056 3080 686 
Q 2894 316 2569 119 
Q 2244 -78 1831 -78 
Q 1128 -78 684 439 
Q 241 956 241 2144 
Q 241 3472 731 4075 
Q 1159 4600 1884 4600 
Q 2425 4600 2770 4297 
Q 3116 3994 3184 3459 
z
M 888 1484 
Q 888 1194 1011 928 
Q 1134 663 1356 523 
Q 1578 384 1822 384 
Q 2178 384 2434 671 
Q 2691 959 2691 1453 
Q 2691 1928 2437 2201 
Q 2184 2475 1800 2475 
Q 1419 2475 1153 2201 
Q 888 1928 888 1484 
z
" transform="scale(0.015625)"/>
       </defs>
       <use xlink:href="#ArialMT-30"/>
       <use xlink:href="#ArialMT-2e" x="55.615234"/>
       <use xlink:href="#ArialMT-36" x="83.398438"/>
      </g>
     </g>
    </g>
    <g id="ytick_6">
     <g id="line2d_15">
      <path d="M 45.76375 178.5885 
L 826.96375 178.5885 
" clip-path="url(#p43904d2986)" style="fill: none; stroke: #ffffff; stroke-width: 0.8; stroke-linecap: round"/>
     </g>
     <g id="text_16">
      <!-- 0.8 -->
      <g style="fill: #262626" transform="translate(25.23175 181.737937) scale(0.088 -0.088)">
       <defs>
        <path id="ArialMT-38" d="M 1131 2484 
Q 781 2613 612 2850 
Q 444 3088 444 3419 
Q 444 3919 803 4259 
Q 1163 4600 1759 4600 
Q 2359 4600 2725 4251 
Q 3091 3903 3091 3403 
Q 3091 3084 2923 2848 
Q 2756 2613 2416 2484 
Q 2838 2347 3058 2040 
Q 3278 1734 3278 1309 
Q 3278 722 2862 322 
Q 2447 -78 1769 -78 
Q 1091 -78 675 323 
Q 259 725 259 1325 
Q 259 1772 486 2073 
Q 713 2375 1131 2484 
z
M 1019 3438 
Q 1019 3113 1228 2906 
Q 1438 2700 1772 2700 
Q 2097 2700 2305 2904 
Q 2513 3109 2513 3406 
Q 2513 3716 2298 3927 
Q 2084 4138 1766 4138 
Q 1444 4138 1231 3931 
Q 1019 3725 1019 3438 
z
M 838 1322 
Q 838 1081 952 856 
Q 1066 631 1291 507 
Q 1516 384 1775 384 
Q 2178 384 2440 643 
Q 2703 903 2703 1303 
Q 2703 1709 2433 1975 
Q 2163 2241 1756 2241 
Q 1359 2241 1098 1978 
Q 838 1716 838 1322 
z
" transform="scale(0.015625)"/>
       </defs>
       <use xlink:href="#ArialMT-30"/>
       <use xlink:href="#ArialMT-2e" x="55.615234"/>
       <use xlink:href="#ArialMT-38" x="83.398438"/>
      </g>
     </g>
    </g>
    <g id="ytick_7">
     <g id="line2d_16">
      <path d="M 45.76375 99.3885 
L 826.96375 99.3885 
" clip-path="url(#p43904d2986)" style="fill: none; stroke: #ffffff; stroke-width: 0.8; stroke-linecap: round"/>
     </g>
     <g id="text_17">
      <!-- 1.0 -->
      <g style="fill: #262626" transform="translate(25.23175 102.537937) scale(0.088 -0.088)">
       <use xlink:href="#ArialMT-31"/>
       <use xlink:href="#ArialMT-2e" x="55.615234"/>
       <use xlink:href="#ArialMT-30" x="83.398438"/>
      </g>
     </g>
    </g>
    <g id="ytick_8">
     <g id="line2d_17">
      <path d="M 45.76375 20.1885 
L 826.96375 20.1885 
" clip-path="url(#p43904d2986)" style="fill: none; stroke: #ffffff; stroke-width: 0.8; stroke-linecap: round"/>
     </g>
     <g id="text_18">
      <!-- 1.2 -->
      <g style="fill: #262626" transform="translate(25.23175 23.337937) scale(0.088 -0.088)">
       <use xlink:href="#ArialMT-31"/>
       <use xlink:href="#ArialMT-2e" x="55.615234"/>
       <use xlink:href="#ArialMT-32" x="83.398438"/>
      </g>
     </g>
    </g>
    <g id="text_19">
     <!-- Normalized shock-normal velocity -->
     <g style="fill: #262626" transform="translate(14.0715 369.141) rotate(-90) scale(0.096 -0.096)">
      <defs>
       <path id="ArialMT-4e" d="M 488 0 
L 488 4581 
L 1109 4581 
L 3516 984 
L 3516 4581 
L 4097 4581 
L 4097 0 
L 3475 0 
L 1069 3600 
L 1069 0 
L 488 0 
z
" transform="scale(0.015625)"/>
       <path id="ArialMT-7a" d="M 125 0 
L 125 456 
L 2238 2881 
Q 1878 2863 1603 2863 
L 250 2863 
L 250 3319 
L 2963 3319 
L 2963 2947 
L 1166 841 
L 819 456 
Q 1197 484 1528 484 
L 3063 484 
L 3063 0 
L 125 0 
z
" transform="scale(0.015625)"/>
       <path id="ArialMT-2d" d="M 203 1375 
L 203 1941 
L 1931 1941 
L 1931 1375 
L 203 1375 
z
" transform="scale(0.015625)"/>
       <path id="ArialMT-76" d="M 1344 0 
L 81 3319 
L 675 3319 
L 1388 1331 
Q 1503 1009 1600 663 
Q 1675 925 1809 1294 
L 2547 3319 
L 3125 3319 
L 1869 0 
L 1344 0 
z
" transform="scale(0.015625)"/>
       <path id="ArialMT-79" d="M 397 -1278 
L 334 -750 
Q 519 -800 656 -800 
Q 844 -800 956 -737 
Q 1069 -675 1141 -563 
Q 1194 -478 1313 -144 
Q 1328 -97 1363 -6 
L 103 3319 
L 709 3319 
L 1400 1397 
Q 1534 1031 1641 628 
Q 1738 1016 1872 1384 
L 2581 3319 
L 3144 3319 
L 1881 -56 
Q 1678 -603 1566 -809 
Q 1416 -1088 1222 -1217 
Q 1028 -1347 759 -1347 
Q 597 -1347 397 -1278 
z
" transform="scale(0.015625)"/>
      </defs>
      <use xlink:href="#ArialMT-4e"/>
      <use xlink:href="#ArialMT-6f" x="72.216797"/>
      <use xlink:href="#ArialMT-72" x="127.832031"/>
      <use xlink:href="#ArialMT-6d" x="161.132812"/>
      <use xlink:href="#ArialMT-61" x="244.433594"/>
      <use xlink:href="#ArialMT-6c" x="300.048828"/>
      <use xlink:href="#ArialMT-69" x="322.265625"/>
      <use xlink:href="#ArialMT-7a" x="344.482422"/>
      <use xlink:href="#ArialMT-65" x="394.482422"/>
      <use xlink:href="#ArialMT-64" x="450.097656"/>
      <use xlink:href="#ArialMT-20" x="505.712891"/>
      <use xlink:href="#ArialMT-73" x="533.496094"/>
      <use xlink:href="#ArialMT-68" x="583.496094"/>
      <use xlink:href="#ArialMT-6f" x="639.111328"/>
      <use xlink:href="#ArialMT-63" x="694.726562"/>
      <use xlink:href="#ArialMT-6b" x="744.726562"/>
      <use xlink:href="#ArialMT-2d" x="794.726562"/>
      <use xlink:href="#ArialMT-6e" x="828.027344"/>
      <use xlink:href="#ArialMT-6f" x="883.642578"/>
      <use xlink:href="#ArialMT-72" x="939.257812"/>
      <use xlink:href="#ArialMT-6d" x="972.558594"/>
      <use xlink:href="#ArialMT-61" x="1055.859375"/>
      <use xlink:href="#ArialMT-6c" x="1111.474609"/>
      <use xlink:href="#ArialMT-20" x="1133.691406"/>
      <use xlink:href="#ArialMT-76" x="1161.474609"/>
      <use xlink:href="#ArialMT-65" x="1211.474609"/>
      <use xlink:href="#ArialMT-6c" x="1267.089844"/>
      <use xlink:href="#ArialMT-6f" x="1289.306641"/>
      <use xlink:href="#ArialMT-63" x="1344.921875"/>
      <use xlink:href="#ArialMT-69" x="1394.921875"/>
      <use xlink:href="#ArialMT-74" x="1417.138672"/>
      <use xlink:href="#ArialMT-79" x="1444.921875"/>
     </g>
    </g>
   </g>
   <g id="patch_3">
    <path d="M 64.36375 138.9885 
L 101.56375 138.9885 
L 101.56375 79.5885 
L 64.36375 79.5885 
L 64.36375 138.9885 
z
" clip-path="url(#p43904d2986)" style="fill: none; stroke: #808080; stroke-width: 0.8; stroke-linejoin: miter"/>
   </g>
   <g id="line2d_18">
    <path d="M 44.94695 99.498834 
L 57.740398 99.524269 
L 64.138373 99.394089 
L 70.53694 99.394004 
L 76.92831 100.575033 
L 80.114953 102.416962 
L 83.286736 105.609522 
L 86.437475 109.660053 
L 89.559608 114.559187 
L 92.648322 120.01983 
L 101.694171 138.272722 
L 110.414589 155.245778 
L 118.832504 171.030541 
L 126.968691 185.744216 
L 134.84173 199.515862 
L 142.4682 212.438961 
L 149.862984 224.596445 
L 157.039598 236.056033 
L 164.010401 246.876318 
L 173.004147 260.397385 
L 181.676212 273.002609 
L 190.048378 284.745165 
L 198.140609 295.729882 
L 205.970859 306.009844 
L 213.55578 315.647397 
L 220.910645 324.690286 
L 228.04953 333.179704 
L 234.985552 341.159857 
L 241.730824 348.668319 
L 249.91129 357.430635 
L 257.831556 365.564538 
L 263.992982 371.660775 
L 271.49071 378.792248 
L 278.776405 385.43219 
L 287.259831 392.799972 
L 294.128667 398.493534 
L 302.148639 404.8256 
L 309.943642 410.669859 
L 316.280114 415.201588 
L 324.926259 421.062883 
L 332.143879 425.688549 
L 339.196832 429.977821 
L 347.233021 434.591388 
L 353.968665 438.248722 
L 361.662821 442.194677 
L 369.193627 445.827339 
L 377.616732 449.633693 
L 384.839367 452.689766 
L 391.935245 455.514549 
L 399.901793 458.486883 
L 407.728103 461.210791 
L 415.425809 463.710256 
L 423.945088 466.279868 
L 434.174191 469.108219 
L 443.3155 471.415795 
L 454.10768 473.896405 
L 465.604816 476.268785 
L 476.923519 478.358315 
L 488.937495 480.335005 
L 500.791805 482.067137 
L 512.506132 483.587199 
L 526.566842 485.186105 
L 539.658154 486.483879 
L 556.662357 487.927127 
L 572.697919 489.074869 
L 592.562459 490.254113 
L 613.048498 491.241208 
L 636.511874 492.139535 
L 663.702574 492.939222 
L 692.284957 493.568315 
L 728.418365 494.136889 
L 773.589018 494.603779 
L 827.010296 494.935979 
L 827.010296 494.935979 
" clip-path="url(#p43904d2986)" style="fill: none; stroke: #4c72b0; stroke-width: 1.2; stroke-linecap: round"/>
   </g>
   <g id="line2d_19">
    <path d="M 44.946999 99.498819 
L 54.542098 99.580108 
L 67.337564 99.393585 
L 70.536809 99.409608 
L 73.735391 99.564691 
L 76.931234 100.845239 
L 80.116637 102.340571 
L 83.286544 105.956964 
L 86.435502 109.813781 
L 89.55474 114.696348 
L 92.643408 120.381939 
L 95.695135 126.234983 
L 104.630119 144.062739 
L 113.247612 160.600129 
L 121.569845 176.019587 
L 129.616815 190.423298 
L 137.40621 203.895983 
L 144.954122 216.575886 
L 154.667147 232.306131 
L 164.007087 246.866787 
L 173.001039 260.388802 
L 179.534159 269.930944 
L 190.045702 284.744806 
L 200.119588 298.364183 
L 209.790793 310.910064 
L 219.090714 322.484815 
L 228.047771 333.173022 
L 234.983928 341.158251 
L 243.387283 350.468608 
L 251.514295 359.097964 
L 259.385024 367.126648 
L 268.517113 375.997701 
L 275.885958 382.820563 
L 283.051732 389.189246 
L 290.028115 395.120305 
L 298.16783 401.723484 
L 304.771065 406.825987 
L 313.762412 413.431796 
L 323.706779 420.265134 
L 333.331043 426.430486 
L 341.514056 431.331654 
L 348.365928 435.22783 
L 357.288027 439.979036 
L 363.831593 443.266615 
L 373.429826 447.779705 
L 383.816899 452.26977 
L 393.942186 456.283272 
L 403.833323 459.878449 
L 414.471988 463.405517 
L 423.946958 466.27548 
L 434.176181 469.105066 
L 445.12924 471.846658 
L 455.001188 474.085925 
L 465.607188 476.266407 
L 476.061138 478.20502 
L 486.37978 479.933198 
L 496.577751 481.474634 
L 507.504342 482.960931 
L 523.276031 484.831522 
L 538.846422 486.406815 
L 555.05363 487.799583 
L 571.103493 488.968389 
L 587.814199 489.993586 
L 609.123889 491.067039 
L 631.05467 491.94993 
L 656.729853 492.75564 
L 688.433677 493.493807 
L 723.049926 494.064938 
L 765.182775 494.532622 
L 820.914951 494.906685 
L 827.013516 494.935905 
L 827.013516 494.935905 
" clip-path="url(#p43904d2986)" style="fill: none; stroke: #dd8452; stroke-width: 1.2; stroke-linecap: round"/>
   </g>
   <g id="line2d_20">
    <path d="M 44.946787 99.498842 
L 54.542179 99.517175 
L 67.337427 99.405745 
L 70.536054 99.69767 
L 73.731306 100.490596 
L 76.922082 100.992953 
L 80.10905 102.759676 
L 83.273825 106.915992 
L 86.41773 109.681586 
L 89.535072 115.719058 
L 95.669826 126.150504 
L 104.606208 143.969533 
L 110.385814 155.161822 
L 118.805369 170.933365 
L 126.943043 185.659308 
L 134.817345 199.440682 
L 142.444894 212.36977 
L 149.840709 224.527259 
L 157.018391 235.987494 
L 163.990239 246.811479 
L 172.98526 260.341404 
L 179.519047 269.871813 
L 187.965402 281.829865 
L 194.112114 290.278362 
L 202.072167 300.905406 
L 209.778743 310.859197 
L 217.247703 320.195472 
L 224.493694 328.958547 
L 231.530352 337.190329 
L 238.370278 344.931399 
L 246.661355 353.964011 
L 253.100117 360.723139 
L 260.922467 368.620016 
L 268.510204 375.961783 
L 275.879688 382.794417 
L 283.046002 389.159924 
L 291.396844 396.22918 
L 298.163312 401.693532 
L 306.069317 407.777833 
L 313.759139 413.395228 
L 321.249272 418.587441 
L 328.5547 423.394091 
L 335.689059 427.84893 
L 342.664841 431.98155 
L 350.617898 436.432835 
L 358.386887 440.522921 
L 365.986612 444.287045 
L 373.430472 447.755251 
L 380.730641 450.955291 
L 388.911939 454.31352 
L 395.940145 457.017722 
L 403.835529 459.86198 
L 411.596608 462.472843 
L 419.234466 464.868496 
L 426.759103 467.070833 
L 435.100288 469.341937 
L 442.413517 471.188765 
L 450.536685 473.099144 
L 458.558734 474.845325 
L 468.238623 476.76982 
L 481.241171 479.097765 
L 495.737321 481.352918 
L 506.673311 482.845501 
L 520.80563 484.553539 
L 536.405807 486.172461 
L 552.639335 487.6033 
L 568.711261 488.803643 
L 585.441312 489.858888 
L 605.984436 490.92197 
L 625.592649 491.746585 
L 651.303769 492.601827 
L 676.09026 493.234815 
L 711.53539 493.89583 
L 744.526185 494.328092 
L 794.221995 494.754099 
L 827.020704 494.935721 
L 827.020704 494.935721 
" clip-path="url(#p43904d2986)" style="fill: none; stroke: #55a868; stroke-width: 1.2; stroke-linecap: round"/>
   </g>
   <g id="line2d_21">
    <path d="M 44.946718 99.502245 
L 57.740203 99.52952 
L 60.938717 99.515572 
L 67.334104 99.828162 
L 70.530004 100.064819 
L 73.72477 100.162652 
L 76.915527 103.785933 
L 80.070431 108.908406 
L 83.20094 111.982378 
L 86.315857 114.073989 
L 89.419719 115.618235 
L 92.507607 120.435487 
L 98.570336 132.67791 
L 104.488607 143.906216 
L 124.155841 180.55703 
L 134.720153 199.290967 
L 149.752981 224.412081 
L 163.910839 246.685893 
L 170.691272 256.821848 
L 181.58782 272.812544 
L 196.063662 292.905627 
L 211.612007 313.144706 
L 226.223348 330.985881 
L 240.008929 346.762057 
L 256.223277 363.887386 
L 269.972131 377.352051 
L 285.836258 391.541613 
L 300.807122 403.743202 
L 315.009823 414.283331 
L 329.749511 424.1645 
L 344.956096 433.289513 
L 360.578901 441.613726 
L 375.538769 448.682323 
L 390.944377 455.088207 
L 405.803973 460.520165 
L 421.145268 465.415235 
L 436.041872 469.559233 
L 451.458023 473.274286 
L 466.515903 476.412644 
L 482.1304 479.211369 
L 497.45939 481.570223 
L 513.379551 483.662748 
L 529.074742 485.42169 
L 545.392236 486.975086 
L 560.731018 488.215973 
L 577.529861 489.368455 
L 594.192678 490.331189 
L 610.741944 491.135572 
L 627.977699 491.836412 
L 660.654523 492.855631 
L 695.418795 493.62166 
L 730.005006 494.155692 
L 765.997062 494.537444 
L 824.014395 494.920927 
L 827.063517 494.935022 
L 827.063517 494.935022 
" clip-path="url(#p43904d2986)" style="fill: none; stroke: #c44e52; stroke-width: 1.2; stroke-linecap: round"/>
   </g>
   <g id="line2d_22">
    <path d="M 44.948001 99.3885 
L 73.741838 99.391785 
L 76.939949 99.973021 
L 80.130701 101.786282 
L 83.306596 104.785458 
L 86.460538 108.898237 
L 89.585948 114.03001 
L 92.676874 120.052984 
L 101.721611 138.346067 
L 110.440813 155.303801 
L 118.857734 171.076723 
L 126.993053 185.79367 
L 134.865241 199.565199 
L 142.490872 212.486365 
L 149.88489 224.639033 
L 157.060829 236.093822 
L 166.310659 250.385587 
L 175.220945 263.667017 
L 183.815291 276.040238 
L 192.114993 287.591005 
L 200.139399 298.392171 
L 207.906193 308.506454 
L 215.431614 317.988599 
L 222.730632 326.887024 
L 231.557016 337.254788 
L 240.076036 346.853477 
L 248.310326 355.750407 
L 256.280559 364.005981 
L 264.00564 371.674662 
L 271.502878 378.805706 
L 278.788137 385.44373 
L 285.875971 391.629199 
L 292.779747 397.39883 
L 300.838556 403.820203 
L 308.669356 409.742479 
L 316.289728 415.21192 
L 323.715634 420.269837 
L 330.961592 424.953164 
L 338.040826 429.294967 
L 346.105254 433.968138 
L 353.976526 438.258624 
L 361.670332 442.203496 
L 369.200854 445.835608 
L 377.623653 449.640902 
L 385.867218 453.114178 
L 393.947064 456.289229 
L 402.858511 459.541604 
L 411.598161 462.491266 
L 421.126634 465.452925 
L 430.481907 468.119463 
L 440.593043 470.751612 
L 450.535416 473.105559 
L 461.209915 475.394986 
L 471.724775 477.429538 
L 482.956141 479.382534 
L 494.887461 481.231842 
L 507.505678 482.961101 
L 520.801154 484.559333 
L 534.767466 486.020394 
L 550.209928 487.409747 
L 567.104775 488.696311 
L 585.435155 489.859363 
L 605.190862 490.887712 
L 627.149241 491.807577 
L 652.073215 492.625427 
L 680.717308 493.336574 
L 714.601738 493.944488 
L 755.237071 494.440102 
L 806.423786 494.829261 
L 827.012561 494.936129 
L 827.012561 494.936129 
" clip-path="url(#p43904d2986)" style="fill: none; stroke: #8172b3; stroke-width: 1.2; stroke-linecap: round"/>
   </g>
   <g id="line2d_23">
    <path d="M 44.948001 99.3885 
L 80.140469 99.3885 
L 83.339784 495.3885 
L 826.96929 495.3885 
L 826.96929 495.3885 
" clip-path="url(#p43904d2986)" style="fill: none; stroke: #937860; stroke-width: 1.2; stroke-linecap: round"/>
   </g>
   <g id="patch_4">
    <path d="M 45.76375 574.5885 
L 45.76375 20.1885 
" style="fill: none; stroke: #000000; stroke-linejoin: miter; stroke-linecap: square"/>
   </g>
   <g id="patch_5">
    <path d="M 826.96375 574.5885 
L 826.96375 20.1885 
" style="fill: none; stroke: #000000; stroke-linejoin: miter; stroke-linecap: square"/>
   </g>
   <g id="patch_6">
    <path d="M 45.76375 574.5885 
L 826.96375 574.5885 
" style="fill: none; stroke: #000000; stroke-linejoin: miter; stroke-linecap: square"/>
   </g>
   <g id="patch_7">
    <path d="M 45.76375 20.1885 
L 826.96375 20.1885 
" style="fill: none; stroke: #000000; stroke-linejoin: miter; stroke-linecap: square"/>
   </g>
   <g id="text_20">
    <!-- Grid convergence analysis for Lagrangian to Eulerian transformation -->
    <g style="fill: #262626" transform="translate(291.22825 14.1885) scale(0.096 -0.096)">
     <defs>
      <path id="ArialMT-47" d="M 2638 1797 
L 2638 2334 
L 4578 2338 
L 4578 638 
Q 4131 281 3656 101 
Q 3181 -78 2681 -78 
Q 2006 -78 1454 211 
Q 903 500 622 1047 
Q 341 1594 341 2269 
Q 341 2938 620 3517 
Q 900 4097 1425 4378 
Q 1950 4659 2634 4659 
Q 3131 4659 3532 4498 
Q 3934 4338 4162 4050 
Q 4391 3763 4509 3300 
L 3963 3150 
Q 3859 3500 3706 3700 
Q 3553 3900 3268 4020 
Q 2984 4141 2638 4141 
Q 2222 4141 1919 4014 
Q 1616 3888 1430 3681 
Q 1244 3475 1141 3228 
Q 966 2803 966 2306 
Q 966 1694 1177 1281 
Q 1388 869 1791 669 
Q 2194 469 2647 469 
Q 3041 469 3416 620 
Q 3791 772 3984 944 
L 3984 1797 
L 2638 1797 
z
" transform="scale(0.015625)"/>
      <path id="ArialMT-67" d="M 319 -275 
L 866 -356 
Q 900 -609 1056 -725 
Q 1266 -881 1628 -881 
Q 2019 -881 2231 -725 
Q 2444 -569 2519 -288 
Q 2563 -116 2559 434 
Q 2191 0 1641 0 
Q 956 0 581 494 
Q 206 988 206 1678 
Q 206 2153 378 2554 
Q 550 2956 876 3175 
Q 1203 3394 1644 3394 
Q 2231 3394 2613 2919 
L 2613 3319 
L 3131 3319 
L 3131 450 
Q 3131 -325 2973 -648 
Q 2816 -972 2473 -1159 
Q 2131 -1347 1631 -1347 
Q 1038 -1347 672 -1080 
Q 306 -813 319 -275 
z
M 784 1719 
Q 784 1066 1043 766 
Q 1303 466 1694 466 
Q 2081 466 2343 764 
Q 2606 1063 2606 1700 
Q 2606 2309 2336 2618 
Q 2066 2928 1684 2928 
Q 1309 2928 1046 2623 
Q 784 2319 784 1719 
z
" transform="scale(0.015625)"/>
      <path id="ArialMT-66" d="M 556 0 
L 556 2881 
L 59 2881 
L 59 3319 
L 556 3319 
L 556 3672 
Q 556 4006 616 4169 
Q 697 4388 901 4523 
Q 1106 4659 1475 4659 
Q 1713 4659 2000 4603 
L 1916 4113 
Q 1741 4144 1584 4144 
Q 1328 4144 1222 4034 
Q 1116 3925 1116 3625 
L 1116 3319 
L 1763 3319 
L 1763 2881 
L 1116 2881 
L 1116 0 
L 556 0 
z
" transform="scale(0.015625)"/>
      <path id="ArialMT-4c" d="M 469 0 
L 469 4581 
L 1075 4581 
L 1075 541 
L 3331 541 
L 3331 0 
L 469 0 
z
" transform="scale(0.015625)"/>
      <path id="ArialMT-45" d="M 506 0 
L 506 4581 
L 3819 4581 
L 3819 4041 
L 1113 4041 
L 1113 2638 
L 3647 2638 
L 3647 2100 
L 1113 2100 
L 1113 541 
L 3925 541 
L 3925 0 
L 506 0 
z
" transform="scale(0.015625)"/>
      <path id="ArialMT-75" d="M 2597 0 
L 2597 488 
Q 2209 -75 1544 -75 
Q 1250 -75 995 37 
Q 741 150 617 320 
Q 494 491 444 738 
Q 409 903 409 1263 
L 409 3319 
L 972 3319 
L 972 1478 
Q 972 1038 1006 884 
Q 1059 663 1231 536 
Q 1403 409 1656 409 
Q 1909 409 2131 539 
Q 2353 669 2445 892 
Q 2538 1116 2538 1541 
L 2538 3319 
L 3100 3319 
L 3100 0 
L 2597 0 
z
" transform="scale(0.015625)"/>
     </defs>
     <use xlink:href="#ArialMT-47"/>
     <use xlink:href="#ArialMT-72" x="77.783203"/>
     <use xlink:href="#ArialMT-69" x="111.083984"/>
     <use xlink:href="#ArialMT-64" x="133.300781"/>
     <use xlink:href="#ArialMT-20" x="188.916016"/>
     <use xlink:href="#ArialMT-63" x="216.699219"/>
     <use xlink:href="#ArialMT-6f" x="266.699219"/>
     <use xlink:href="#ArialMT-6e" x="322.314453"/>
     <use xlink:href="#ArialMT-76" x="377.929688"/>
     <use xlink:href="#ArialMT-65" x="427.929688"/>
     <use xlink:href="#ArialMT-72" x="483.544922"/>
     <use xlink:href="#ArialMT-67" x="516.845703"/>
     <use xlink:href="#ArialMT-65" x="572.460938"/>
     <use xlink:href="#ArialMT-6e" x="628.076172"/>
     <use xlink:href="#ArialMT-63" x="683.691406"/>
     <use xlink:href="#ArialMT-65" x="733.691406"/>
     <use xlink:href="#ArialMT-20" x="789.306641"/>
     <use xlink:href="#ArialMT-61" x="817.089844"/>
     <use xlink:href="#ArialMT-6e" x="872.705078"/>
     <use xlink:href="#ArialMT-61" x="928.320312"/>
     <use xlink:href="#ArialMT-6c" x="983.935547"/>
     <use xlink:href="#ArialMT-79" x="1006.152344"/>
     <use xlink:href="#ArialMT-73" x="1056.152344"/>
     <use xlink:href="#ArialMT-69" x="1106.152344"/>
     <use xlink:href="#ArialMT-73" x="1128.369141"/>
     <use xlink:href="#ArialMT-20" x="1178.369141"/>
     <use xlink:href="#ArialMT-66" x="1206.152344"/>
     <use xlink:href="#ArialMT-6f" x="1233.935547"/>
     <use xlink:href="#ArialMT-72" x="1289.550781"/>
     <use xlink:href="#ArialMT-20" x="1322.851562"/>
     <use xlink:href="#ArialMT-4c" x="1350.634766"/>
     <use xlink:href="#ArialMT-61" x="1406.25"/>
     <use xlink:href="#ArialMT-67" x="1461.865234"/>
     <use xlink:href="#ArialMT-72" x="1517.480469"/>
     <use xlink:href="#ArialMT-61" x="1550.78125"/>
     <use xlink:href="#ArialMT-6e" x="1606.396484"/>
     <use xlink:href="#ArialMT-67" x="1662.011719"/>
     <use xlink:href="#ArialMT-69" x="1717.626953"/>
     <use xlink:href="#ArialMT-61" x="1739.84375"/>
     <use xlink:href="#ArialMT-6e" x="1795.458984"/>
     <use xlink:href="#ArialMT-20" x="1851.074219"/>
     <use xlink:href="#ArialMT-74" x="1878.857422"/>
     <use xlink:href="#ArialMT-6f" x="1906.640625"/>
     <use xlink:href="#ArialMT-20" x="1962.255859"/>
     <use xlink:href="#ArialMT-45" x="1990.039062"/>
     <use xlink:href="#ArialMT-75" x="2056.738281"/>
     <use xlink:href="#ArialMT-6c" x="2112.353516"/>
     <use xlink:href="#ArialMT-65" x="2134.570312"/>
     <use xlink:href="#ArialMT-72" x="2190.185547"/>
     <use xlink:href="#ArialMT-69" x="2223.486328"/>
     <use xlink:href="#ArialMT-61" x="2245.703125"/>
     <use xlink:href="#ArialMT-6e" x="2301.318359"/>
     <use xlink:href="#ArialMT-20" x="2356.933594"/>
     <use xlink:href="#ArialMT-74" x="2384.716797"/>
     <use xlink:href="#ArialMT-72" x="2412.5"/>
     <use xlink:href="#ArialMT-61" x="2445.800781"/>
     <use xlink:href="#ArialMT-6e" x="2501.416016"/>
     <use xlink:href="#ArialMT-73" x="2557.03125"/>
     <use xlink:href="#ArialMT-66" x="2607.03125"/>
     <use xlink:href="#ArialMT-6f" x="2634.814453"/>
     <use xlink:href="#ArialMT-72" x="2690.429688"/>
     <use xlink:href="#ArialMT-6d" x="2723.730469"/>
     <use xlink:href="#ArialMT-61" x="2807.03125"/>
     <use xlink:href="#ArialMT-74" x="2862.646484"/>
     <use xlink:href="#ArialMT-69" x="2890.429688"/>
     <use xlink:href="#ArialMT-6f" x="2912.646484"/>
     <use xlink:href="#ArialMT-6e" x="2968.261719"/>
    </g>
   </g>
   <g id="legend_1">
    <g id="patch_8">
     <path d="M 708.990125 101.91575 
L 820.80375 101.91575 
Q 822.56375 101.91575 822.56375 100.15575 
L 822.56375 26.3485 
Q 822.56375 24.5885 820.80375 24.5885 
L 708.990125 24.5885 
Q 707.230125 24.5885 707.230125 26.3485 
L 707.230125 100.15575 
Q 707.230125 101.91575 708.990125 101.91575 
z
" style="fill: #eaeaf2; opacity: 0.8; stroke: #cccccc; stroke-width: 0.8; stroke-linejoin: miter"/>
    </g>
    <g id="line2d_24">
     <path d="M 710.750125 31.327375 
L 719.550125 31.327375 
L 728.350125 31.327375 
" style="fill: none; stroke: #4c72b0; stroke-width: 1.2; stroke-linecap: round"/>
    </g>
    <g id="text_21">
     <!-- Eulerian - 2000x2000 -->
     <g style="fill: #262626" transform="translate(735.390125 34.407375) scale(0.088 -0.088)">
      <defs>
       <path id="ArialMT-78" d="M 47 0 
L 1259 1725 
L 138 3319 
L 841 3319 
L 1350 2541 
Q 1494 2319 1581 2169 
Q 1719 2375 1834 2534 
L 2394 3319 
L 3066 3319 
L 1919 1756 
L 3153 0 
L 2463 0 
L 1781 1031 
L 1600 1309 
L 728 0 
L 47 0 
z
" transform="scale(0.015625)"/>
      </defs>
      <use xlink:href="#ArialMT-45"/>
      <use xlink:href="#ArialMT-75" x="66.699219"/>
      <use xlink:href="#ArialMT-6c" x="122.314453"/>
      <use xlink:href="#ArialMT-65" x="144.53125"/>
      <use xlink:href="#ArialMT-72" x="200.146484"/>
      <use xlink:href="#ArialMT-69" x="233.447266"/>
      <use xlink:href="#ArialMT-61" x="255.664062"/>
      <use xlink:href="#ArialMT-6e" x="311.279297"/>
      <use xlink:href="#ArialMT-20" x="366.894531"/>
      <use xlink:href="#ArialMT-2d" x="394.677734"/>
      <use xlink:href="#ArialMT-20" x="427.978516"/>
      <use xlink:href="#ArialMT-32" x="455.761719"/>
      <use xlink:href="#ArialMT-30" x="511.376953"/>
      <use xlink:href="#ArialMT-30" x="566.992188"/>
      <use xlink:href="#ArialMT-30" x="622.607422"/>
      <use xlink:href="#ArialMT-78" x="678.222656"/>
      <use xlink:href="#ArialMT-32" x="728.222656"/>
      <use xlink:href="#ArialMT-30" x="783.837891"/>
      <use xlink:href="#ArialMT-30" x="839.453125"/>
      <use xlink:href="#ArialMT-30" x="895.068359"/>
     </g>
    </g>
    <g id="line2d_25">
     <path d="M 710.750125 43.77525 
L 719.550125 43.77525 
L 728.350125 43.77525 
" style="fill: none; stroke: #dd8452; stroke-width: 1.2; stroke-linecap: round"/>
    </g>
    <g id="text_22">
     <!-- Eulerian - 1500x1500 -->
     <g style="fill: #262626" transform="translate(735.390125 46.85525) scale(0.088 -0.088)">
      <use xlink:href="#ArialMT-45"/>
      <use xlink:href="#ArialMT-75" x="66.699219"/>
      <use xlink:href="#ArialMT-6c" x="122.314453"/>
      <use xlink:href="#ArialMT-65" x="144.53125"/>
      <use xlink:href="#ArialMT-72" x="200.146484"/>
      <use xlink:href="#ArialMT-69" x="233.447266"/>
      <use xlink:href="#ArialMT-61" x="255.664062"/>
      <use xlink:href="#ArialMT-6e" x="311.279297"/>
      <use xlink:href="#ArialMT-20" x="366.894531"/>
      <use xlink:href="#ArialMT-2d" x="394.677734"/>
      <use xlink:href="#ArialMT-20" x="427.978516"/>
      <use xlink:href="#ArialMT-31" x="455.761719"/>
      <use xlink:href="#ArialMT-35" x="511.376953"/>
      <use xlink:href="#ArialMT-30" x="566.992188"/>
      <use xlink:href="#ArialMT-30" x="622.607422"/>
      <use xlink:href="#ArialMT-78" x="678.222656"/>
      <use xlink:href="#ArialMT-31" x="728.222656"/>
      <use xlink:href="#ArialMT-35" x="783.837891"/>
      <use xlink:href="#ArialMT-30" x="839.453125"/>
      <use xlink:href="#ArialMT-30" x="895.068359"/>
     </g>
    </g>
    <g id="line2d_26">
     <path d="M 710.750125 56.223125 
L 719.550125 56.223125 
L 728.350125 56.223125 
" style="fill: none; stroke: #55a868; stroke-width: 1.2; stroke-linecap: round"/>
    </g>
    <g id="text_23">
     <!-- Eulerian - 1000x1000 -->
     <g style="fill: #262626" transform="translate(735.390125 59.303125) scale(0.088 -0.088)">
      <use xlink:href="#ArialMT-45"/>
      <use xlink:href="#ArialMT-75" x="66.699219"/>
      <use xlink:href="#ArialMT-6c" x="122.314453"/>
      <use xlink:href="#ArialMT-65" x="144.53125"/>
      <use xlink:href="#ArialMT-72" x="200.146484"/>
      <use xlink:href="#ArialMT-69" x="233.447266"/>
      <use xlink:href="#ArialMT-61" x="255.664062"/>
      <use xlink:href="#ArialMT-6e" x="311.279297"/>
      <use xlink:href="#ArialMT-20" x="366.894531"/>
      <use xlink:href="#ArialMT-2d" x="394.677734"/>
      <use xlink:href="#ArialMT-20" x="427.978516"/>
      <use xlink:href="#ArialMT-31" x="455.761719"/>
      <use xlink:href="#ArialMT-30" x="511.376953"/>
      <use xlink:href="#ArialMT-30" x="566.992188"/>
      <use xlink:href="#ArialMT-30" x="622.607422"/>
      <use xlink:href="#ArialMT-78" x="678.222656"/>
      <use xlink:href="#ArialMT-31" x="728.222656"/>
      <use xlink:href="#ArialMT-30" x="783.837891"/>
      <use xlink:href="#ArialMT-30" x="839.453125"/>
      <use xlink:href="#ArialMT-30" x="895.068359"/>
     </g>
    </g>
    <g id="line2d_27">
     <path d="M 710.750125 68.671 
L 719.550125 68.671 
L 728.350125 68.671 
" style="fill: none; stroke: #c44e52; stroke-width: 1.2; stroke-linecap: round"/>
    </g>
    <g id="text_24">
     <!-- Eulerian - 500x500 -->
     <g style="fill: #262626" transform="translate(735.390125 71.751) scale(0.088 -0.088)">
      <use xlink:href="#ArialMT-45"/>
      <use xlink:href="#ArialMT-75" x="66.699219"/>
      <use xlink:href="#ArialMT-6c" x="122.314453"/>
      <use xlink:href="#ArialMT-65" x="144.53125"/>
      <use xlink:href="#ArialMT-72" x="200.146484"/>
      <use xlink:href="#ArialMT-69" x="233.447266"/>
      <use xlink:href="#ArialMT-61" x="255.664062"/>
      <use xlink:href="#ArialMT-6e" x="311.279297"/>
      <use xlink:href="#ArialMT-20" x="366.894531"/>
      <use xlink:href="#ArialMT-2d" x="394.677734"/>
      <use xlink:href="#ArialMT-20" x="427.978516"/>
      <use xlink:href="#ArialMT-35" x="455.761719"/>
      <use xlink:href="#ArialMT-30" x="511.376953"/>
      <use xlink:href="#ArialMT-30" x="566.992188"/>
      <use xlink:href="#ArialMT-78" x="622.607422"/>
      <use xlink:href="#ArialMT-35" x="672.607422"/>
      <use xlink:href="#ArialMT-30" x="728.222656"/>
      <use xlink:href="#ArialMT-30" x="783.837891"/>
     </g>
    </g>
    <g id="line2d_28">
     <path d="M 710.750125 81.118875 
L 719.550125 81.118875 
L 728.350125 81.118875 
" style="fill: none; stroke: #8172b3; stroke-width: 1.2; stroke-linecap: round"/>
    </g>
    <g id="text_25">
     <!-- LPT data -->
     <g style="fill: #262626" transform="translate(735.390125 84.198875) scale(0.088 -0.088)">
      <defs>
       <path id="ArialMT-50" d="M 494 0 
L 494 4581 
L 2222 4581 
Q 2678 4581 2919 4538 
Q 3256 4481 3484 4323 
Q 3713 4166 3852 3881 
Q 3991 3597 3991 3256 
Q 3991 2672 3619 2267 
Q 3247 1863 2275 1863 
L 1100 1863 
L 1100 0 
L 494 0 
z
M 1100 2403 
L 2284 2403 
Q 2872 2403 3119 2622 
Q 3366 2841 3366 3238 
Q 3366 3525 3220 3729 
Q 3075 3934 2838 4000 
Q 2684 4041 2272 4041 
L 1100 4041 
L 1100 2403 
z
" transform="scale(0.015625)"/>
       <path id="ArialMT-54" d="M 1659 0 
L 1659 4041 
L 150 4041 
L 150 4581 
L 3781 4581 
L 3781 4041 
L 2266 4041 
L 2266 0 
L 1659 0 
z
" transform="scale(0.015625)"/>
      </defs>
      <use xlink:href="#ArialMT-4c"/>
      <use xlink:href="#ArialMT-50" x="55.615234"/>
      <use xlink:href="#ArialMT-54" x="122.314453"/>
      <use xlink:href="#ArialMT-20" x="181.648438"/>
      <use xlink:href="#ArialMT-64" x="209.431641"/>
      <use xlink:href="#ArialMT-61" x="265.046875"/>
      <use xlink:href="#ArialMT-74" x="320.662109"/>
      <use xlink:href="#ArialMT-61" x="348.445312"/>
     </g>
    </g>
    <g id="line2d_29">
     <path d="M 710.750125 93.56675 
L 719.550125 93.56675 
L 728.350125 93.56675 
" style="fill: none; stroke: #937860; stroke-width: 1.2; stroke-linecap: round"/>
    </g>
    <g id="text_26">
     <!-- Numerical fluid data -->
     <g style="fill: #262626" transform="translate(735.390125 96.64675) scale(0.088 -0.088)">
      <use xlink:href="#ArialMT-4e"/>
      <use xlink:href="#ArialMT-75" x="72.216797"/>
      <use xlink:href="#ArialMT-6d" x="127.832031"/>
      <use xlink:href="#ArialMT-65" x="211.132812"/>
      <use xlink:href="#ArialMT-72" x="266.748047"/>
      <use xlink:href="#ArialMT-69" x="300.048828"/>
      <use xlink:href="#ArialMT-63" x="322.265625"/>
      <use xlink:href="#ArialMT-61" x="372.265625"/>
      <use xlink:href="#ArialMT-6c" x="427.880859"/>
      <use xlink:href="#ArialMT-20" x="450.097656"/>
      <use xlink:href="#ArialMT-66" x="477.880859"/>
      <use xlink:href="#ArialMT-6c" x="505.664062"/>
      <use xlink:href="#ArialMT-75" x="527.880859"/>
      <use xlink:href="#ArialMT-69" x="583.496094"/>
      <use xlink:href="#ArialMT-64" x="605.712891"/>
      <use xlink:href="#ArialMT-20" x="661.328125"/>
      <use xlink:href="#ArialMT-64" x="689.111328"/>
      <use xlink:href="#ArialMT-61" x="744.726562"/>
      <use xlink:href="#ArialMT-74" x="800.341797"/>
      <use xlink:href="#ArialMT-61" x="828.125"/>
     </g>
    </g>
   </g>
  </g>
  <g id="axes_2">
   <g id="patch_9">
    <path d="M 306.16375 427.5885 
L 566.56375 427.5885 
L 566.56375 167.1885 
L 306.16375 167.1885 
z
" style="fill: #eaeaf2"/>
   </g>
   <g id="matplotlib.axis_3">
    <g id="xtick_10">
     <g id="line2d_30">
      <path d="M 306.16375 427.5885 
L 306.16375 167.1885 
" clip-path="url(#p1bbbdd459a)" style="fill: none; stroke: #ffffff; stroke-width: 0.8; stroke-linecap: round"/>
     </g>
     <g id="text_27">
      <!-- -0.5 -->
      <g style="fill: #262626" transform="translate(299.271875 441.61475) scale(0.08 -0.08)">
       <use xlink:href="#ArialMT-2d"/>
       <use xlink:href="#ArialMT-30" x="33.300781"/>
       <use xlink:href="#ArialMT-2e" x="88.916016"/>
       <use xlink:href="#ArialMT-35" x="116.699219"/>
      </g>
     </g>
    </g>
    <g id="xtick_11">
     <g id="line2d_31">
      <path d="M 371.26375 427.5885 
L 371.26375 167.1885 
" clip-path="url(#p1bbbdd459a)" style="fill: none; stroke: #ffffff; stroke-width: 0.8; stroke-linecap: round"/>
     </g>
     <g id="text_28">
      <!-- -0.25 -->
      <g style="fill: #262626" transform="translate(362.1475 441.61475) scale(0.08 -0.08)">
       <use xlink:href="#ArialMT-2d"/>
       <use xlink:href="#ArialMT-30" x="33.300781"/>
       <use xlink:href="#ArialMT-2e" x="88.916016"/>
       <use xlink:href="#ArialMT-32" x="116.699219"/>
       <use xlink:href="#ArialMT-35" x="172.314453"/>
      </g>
     </g>
    </g>
    <g id="xtick_12">
     <g id="line2d_32">
      <path d="M 436.36375 427.5885 
L 436.36375 167.1885 
" clip-path="url(#p1bbbdd459a)" style="fill: none; stroke: #ffffff; stroke-width: 0.8; stroke-linecap: round"/>
     </g>
     <g id="text_29">
      <!-- 0 -->
      <g style="fill: #262626" transform="translate(434.139375 441.61475) scale(0.08 -0.08)">
       <use xlink:href="#ArialMT-30"/>
      </g>
     </g>
    </g>
    <g id="xtick_13">
     <g id="line2d_33">
      <path d="M 501.46375 427.5885 
L 501.46375 167.1885 
" clip-path="url(#p1bbbdd459a)" style="fill: none; stroke: #ffffff; stroke-width: 0.8; stroke-linecap: round"/>
     </g>
     <g id="text_30">
      <!-- 0.25 -->
      <g style="fill: #262626" transform="translate(493.679375 441.61475) scale(0.08 -0.08)">
       <use xlink:href="#ArialMT-30"/>
       <use xlink:href="#ArialMT-2e" x="55.615234"/>
       <use xlink:href="#ArialMT-32" x="83.398438"/>
       <use xlink:href="#ArialMT-35" x="139.013672"/>
      </g>
     </g>
    </g>
    <g id="xtick_14">
     <g id="line2d_34">
      <path d="M 566.56375 427.5885 
L 566.56375 167.1885 
" clip-path="url(#p1bbbdd459a)" style="fill: none; stroke: #ffffff; stroke-width: 0.8; stroke-linecap: round"/>
     </g>
     <g id="text_31">
      <!-- 0.5 -->
      <g style="fill: #262626" transform="translate(561.00375 441.61475) scale(0.08 -0.08)">
       <use xlink:href="#ArialMT-30"/>
       <use xlink:href="#ArialMT-2e" x="55.615234"/>
       <use xlink:href="#ArialMT-35" x="83.398438"/>
      </g>
     </g>
    </g>
   </g>
   <g id="matplotlib.axis_4">
    <g id="ytick_9">
     <g id="line2d_35">
      <path d="M 306.16375 427.5885 
L 566.56375 427.5885 
" clip-path="url(#p1bbbdd459a)" style="fill: none; stroke: #ffffff; stroke-width: 0.8; stroke-linecap: round"/>
     </g>
     <g id="text_32">
      <!-- 0.90 -->
      <g style="fill: #262626" transform="translate(282.295 430.451625) scale(0.08 -0.08)">
       <defs>
        <path id="ArialMT-39" d="M 350 1059 
L 891 1109 
Q 959 728 1153 556 
Q 1347 384 1650 384 
Q 1909 384 2104 503 
Q 2300 622 2425 820 
Q 2550 1019 2634 1356 
Q 2719 1694 2719 2044 
Q 2719 2081 2716 2156 
Q 2547 1888 2255 1720 
Q 1963 1553 1622 1553 
Q 1053 1553 659 1965 
Q 266 2378 266 3053 
Q 266 3750 677 4175 
Q 1088 4600 1706 4600 
Q 2153 4600 2523 4359 
Q 2894 4119 3086 3673 
Q 3278 3228 3278 2384 
Q 3278 1506 3087 986 
Q 2897 466 2520 194 
Q 2144 -78 1638 -78 
Q 1100 -78 759 220 
Q 419 519 350 1059 
z
M 2653 3081 
Q 2653 3566 2395 3850 
Q 2138 4134 1775 4134 
Q 1400 4134 1122 3828 
Q 844 3522 844 3034 
Q 844 2597 1108 2323 
Q 1372 2050 1759 2050 
Q 2150 2050 2401 2323 
Q 2653 2597 2653 3081 
z
" transform="scale(0.015625)"/>
       </defs>
       <use xlink:href="#ArialMT-30"/>
       <use xlink:href="#ArialMT-2e" x="55.615234"/>
       <use xlink:href="#ArialMT-39" x="83.398438"/>
       <use xlink:href="#ArialMT-30" x="139.013672"/>
      </g>
     </g>
    </g>
    <g id="ytick_10">
     <g id="line2d_36">
      <path d="M 306.16375 340.7885 
L 566.56375 340.7885 
" clip-path="url(#p1bbbdd459a)" style="fill: none; stroke: #ffffff; stroke-width: 0.8; stroke-linecap: round"/>
     </g>
     <g id="text_33">
      <!-- 0.95 -->
      <g style="fill: #262626" transform="translate(282.295 343.651625) scale(0.08 -0.08)">
       <use xlink:href="#ArialMT-30"/>
       <use xlink:href="#ArialMT-2e" x="55.615234"/>
       <use xlink:href="#ArialMT-39" x="83.398438"/>
       <use xlink:href="#ArialMT-35" x="139.013672"/>
      </g>
     </g>
    </g>
    <g id="ytick_11">
     <g id="line2d_37">
      <path d="M 306.16375 253.9885 
L 566.56375 253.9885 
" clip-path="url(#p1bbbdd459a)" style="fill: none; stroke: #ffffff; stroke-width: 0.8; stroke-linecap: round"/>
     </g>
     <g id="text_34">
      <!-- 1.00 -->
      <g style="fill: #262626" transform="translate(282.295 256.851625) scale(0.08 -0.08)">
       <use xlink:href="#ArialMT-31"/>
       <use xlink:href="#ArialMT-2e" x="55.615234"/>
       <use xlink:href="#ArialMT-30" x="83.398438"/>
       <use xlink:href="#ArialMT-30" x="139.013672"/>
      </g>
     </g>
    </g>
    <g id="ytick_12">
     <g id="line2d_38">
      <path d="M 306.16375 167.1885 
L 566.56375 167.1885 
" clip-path="url(#p1bbbdd459a)" style="fill: none; stroke: #ffffff; stroke-width: 0.8; stroke-linecap: round"/>
     </g>
     <g id="text_35">
      <!-- 1.05 -->
      <g style="fill: #262626" transform="translate(282.295 170.051625) scale(0.08 -0.08)">
       <use xlink:href="#ArialMT-31"/>
       <use xlink:href="#ArialMT-2e" x="55.615234"/>
       <use xlink:href="#ArialMT-30" x="83.398438"/>
       <use xlink:href="#ArialMT-35" x="139.013672"/>
      </g>
     </g>
    </g>
   </g>
   <g id="patch_10">
    <path d="M 566.56375 167.1885 
L 101.56375 79.5885 
" style="fill: none; stroke: #808080; stroke-width: 0.8; stroke-linejoin: miter"/>
   </g>
   <g id="patch_11">
    <path d="M 306.16375 427.5885 
L 64.36375 138.9885 
" style="fill: none; stroke: #808080; stroke-width: 0.8; stroke-linejoin: miter"/>
   </g>
   <g id="line2d_39">
    <path d="M 304.586111 254.013001 
L 326.981093 254.01006 
L 349.376082 254.01263 
L 371.763639 256.404496 
L 394.115671 259.190068 
L 416.422174 267.264787 
L 438.624652 281.260455 
L 460.679822 299.017329 
L 482.534754 320.49434 
L 504.155754 344.432915 
L 525.526115 371.759888 
L 546.631183 398.418253 
L 567.476695 424.450646 
" clip-path="url(#p1bbbdd459a)" style="fill: none; stroke: #4c72b0; stroke-width: 1.2; stroke-linecap: round"/>
   </g>
   <g id="line2d_40">
    <path d="M 304.585858 254.0883 
L 326.980445 254.010791 
L 349.375163 254.081034 
L 371.765234 254.760894 
L 394.136137 260.374607 
L 416.433957 266.929903 
L 438.623311 282.783583 
L 460.666011 299.691248 
L 482.500682 321.09563 
L 504.121359 346.020345 
L 525.483448 371.679141 
L 546.589273 398.35291 
L 567.434985 424.394305 
" clip-path="url(#p1bbbdd459a)" style="fill: none; stroke: #dd8452; stroke-width: 1.2; stroke-linecap: round"/>
   </g>
   <g id="line2d_41">
    <path d="M 304.585854 254.228289 
L 326.979488 254.064098 
L 349.369877 255.343849 
L 371.736642 258.819911 
L 394.072073 261.022164 
L 416.380848 268.76719 
L 438.534273 286.987809 
L 460.541612 299.111728 
L 482.363004 325.579026 
L 503.939053 348.135017 
L 525.306283 371.308801 
L 546.415883 397.962503 
L 567.264941 424.259522 
" clip-path="url(#p1bbbdd459a)" style="fill: none; stroke: #55a868; stroke-width: 1.2; stroke-linecap: round"/>
   </g>
   <g id="line2d_42">
    <path d="M 304.575757 255.098201 
L 326.956226 255.915906 
L 349.327526 256.953375 
L 371.690893 257.382256 
L 394.026191 273.266135 
L 416.11052 295.722231 
L 438.024083 309.198025 
L 459.828498 318.36731 
L 481.555536 325.137035 
L 503.17075 346.25509 
L 524.522266 373.686712 
L 545.609853 399.923891 
L 566.444836 425.051699 
L 587.037747 449.14697 
" clip-path="url(#p1bbbdd459a)" style="fill: none; stroke: #c44e52; stroke-width: 1.2; stroke-linecap: round"/>
   </g>
   <g id="line2d_43">
    <path d="M 304.624748 253.9885 
L 327.019955 253.9885 
L 349.415162 253.9885 
L 371.810369 254.0029 
L 394.197142 256.550945 
L 416.532407 264.499987 
L 438.76367 277.647894 
L 460.841263 295.677651 
L 482.719133 318.174514 
L 504.355615 344.57826 
L 525.724076 372.00519 
L 546.826198 398.726976 
L 567.668777 424.772178 
" clip-path="url(#p1bbbdd459a)" style="fill: none; stroke: #8172b3; stroke-width: 1.2; stroke-linecap: round"/>
   </g>
   <g id="line2d_44">
    <path d="M 304.624748 253.9885 
L 327.019955 253.9885 
L 349.415162 253.9885 
L 371.810369 253.9885 
L 394.205575 253.9885 
L 416.600782 253.9885 
L 421.221172 612.145375 
" clip-path="url(#p1bbbdd459a)" style="fill: none; stroke: #937860; stroke-width: 1.2; stroke-linecap: round"/>
   </g>
   <g id="patch_12">
    <path d="M 306.16375 427.5885 
L 306.16375 167.1885 
" style="fill: none; stroke: #000000; stroke-linejoin: miter; stroke-linecap: square"/>
   </g>
   <g id="patch_13">
    <path d="M 566.56375 427.5885 
L 566.56375 167.1885 
" style="fill: none; stroke: #000000; stroke-linejoin: miter; stroke-linecap: square"/>
   </g>
   <g id="patch_14">
    <path d="M 306.16375 427.5885 
L 566.56375 427.5885 
" style="fill: none; stroke: #000000; stroke-linejoin: miter; stroke-linecap: square"/>
   </g>
   <g id="patch_15">
    <path d="M 306.16375 167.1885 
L 566.56375 167.1885 
" style="fill: none; stroke: #000000; stroke-linejoin: miter; stroke-linecap: square"/>
   </g>
  </g>
 </g>
 <defs>
  <clipPath id="p43904d2986">
   <rect x="45.76375" y="20.1885" width="781.2" height="554.4"/>
  </clipPath>
  <clipPath id="p1bbbdd459a">
   <rect x="306.16375" y="167.1885" width="260.4" height="260.4"/>
  </clipPath>
 </defs>
</svg>
