<?xml version="1.0" encoding="utf-8" standalone="no"?>
<!DOCTYPE svg PUBLIC "-//W3C//DTD SVG 1.1//EN"
  "http://www.w3.org/Graphics/SVG/1.1/DTD/svg11.dtd">
<svg xmlns:xlink="http://www.w3.org/1999/xlink" width="460.8pt" height="345.6pt" viewBox="0 0 460.8 345.6" xmlns="http://www.w3.org/2000/svg" version="1.1">
 <metadata>
  <rdf:RDF xmlns:dc="http://purl.org/dc/elements/1.1/" xmlns:cc="http://creativecommons.org/ns#" xmlns:rdf="http://www.w3.org/1999/02/22-rdf-syntax-ns#">
   <cc:Work>
    <dc:type rdf:resource="http://purl.org/dc/dcmitype/StillImage"/>
    <dc:date>2023-11-08T11:49:58.532375</dc:date>
    <dc:format>image/svg+xml</dc:format>
    <dc:creator>
     <cc:Agent>
      <dc:title>Matplotlib v3.8.0, https://matplotlib.org/</dc:title>
     </cc:Agent>
    </dc:creator>
   </cc:Work>
  </rdf:RDF>
 </metadata>
 <defs>
  <style type="text/css">*{stroke-linejoin: round; stroke-linecap: butt}</style>
 </defs>
 <g id="figure_1">
  <g id="patch_1">
   <path d="M 0 345.6 
L 460.8 345.6 
L 460.8 0 
L 0 0 
z
" style="fill: #ffffff"/>
  </g>
  <g id="axes_1">
   <g id="patch_2">
    <path d="M 57.6 307.584 
L 414.72 307.584 
L 414.72 41.472 
L 57.6 41.472 
z
" style="fill: #eaeaf2"/>
   </g>
   <g id="matplotlib.axis_1">
    <g id="xtick_1">
     <g id="line2d_1">
      <path d="M 104.18087 307.584 
L 104.18087 41.472 
" clip-path="url(#p877458b74c)" style="fill: none; stroke: #ffffff; stroke-width: 0.8; stroke-linecap: round"/>
     </g>
     <g id="text_1">
      <!-- 0.0 -->
      <g style="fill: #262626" transform="translate(98.06487 322.182875) scale(0.088 -0.088)">
       <defs>
        <path id="ArialMT-30" d="M 266 2259 
Q 266 3072 433 3567 
Q 600 4063 929 4331 
Q 1259 4600 1759 4600 
Q 2128 4600 2406 4451 
Q 2684 4303 2865 4023 
Q 3047 3744 3150 3342 
Q 3253 2941 3253 2259 
Q 3253 1453 3087 958 
Q 2922 463 2592 192 
Q 2263 -78 1759 -78 
Q 1097 -78 719 397 
Q 266 969 266 2259 
z
M 844 2259 
Q 844 1131 1108 757 
Q 1372 384 1759 384 
Q 2147 384 2411 759 
Q 2675 1134 2675 2259 
Q 2675 3391 2411 3762 
Q 2147 4134 1753 4134 
Q 1366 4134 1134 3806 
Q 844 3388 844 2259 
z
" transform="scale(0.015625)"/>
        <path id="ArialMT-2e" d="M 581 0 
L 581 641 
L 1222 641 
L 1222 0 
L 581 0 
z
" transform="scale(0.015625)"/>
       </defs>
       <use xlink:href="#ArialMT-30"/>
       <use xlink:href="#ArialMT-2e" x="55.615234"/>
       <use xlink:href="#ArialMT-30" x="83.398438"/>
      </g>
     </g>
    </g>
    <g id="xtick_2">
     <g id="line2d_2">
      <path d="M 181.815652 307.584 
L 181.815652 41.472 
" clip-path="url(#p877458b74c)" style="fill: none; stroke: #ffffff; stroke-width: 0.8; stroke-linecap: round"/>
     </g>
     <g id="text_2">
      <!-- 5.0 -->
      <g style="fill: #262626" transform="translate(175.699652 322.182875) scale(0.088 -0.088)">
       <defs>
        <path id="ArialMT-35" d="M 266 1200 
L 856 1250 
Q 922 819 1161 601 
Q 1400 384 1738 384 
Q 2144 384 2425 690 
Q 2706 997 2706 1503 
Q 2706 1984 2436 2262 
Q 2166 2541 1728 2541 
Q 1456 2541 1237 2417 
Q 1019 2294 894 2097 
L 366 2166 
L 809 4519 
L 3088 4519 
L 3088 3981 
L 1259 3981 
L 1013 2750 
Q 1425 3038 1878 3038 
Q 2478 3038 2890 2622 
Q 3303 2206 3303 1553 
Q 3303 931 2941 478 
Q 2500 -78 1738 -78 
Q 1113 -78 717 272 
Q 322 622 266 1200 
z
" transform="scale(0.015625)"/>
       </defs>
       <use xlink:href="#ArialMT-35"/>
       <use xlink:href="#ArialMT-2e" x="55.615234"/>
       <use xlink:href="#ArialMT-30" x="83.398438"/>
      </g>
     </g>
    </g>
    <g id="xtick_3">
     <g id="line2d_3">
      <path d="M 259.450435 307.584 
L 259.450435 41.472 
" clip-path="url(#p877458b74c)" style="fill: none; stroke: #ffffff; stroke-width: 0.8; stroke-linecap: round"/>
     </g>
     <g id="text_3">
      <!-- 10.0 -->
      <g style="fill: #262626" transform="translate(250.887622 322.182875) scale(0.088 -0.088)">
       <defs>
        <path id="ArialMT-31" d="M 2384 0 
L 1822 0 
L 1822 3584 
Q 1619 3391 1289 3197 
Q 959 3003 697 2906 
L 697 3450 
Q 1169 3672 1522 3987 
Q 1875 4303 2022 4600 
L 2384 4600 
L 2384 0 
z
" transform="scale(0.015625)"/>
       </defs>
       <use xlink:href="#ArialMT-31"/>
       <use xlink:href="#ArialMT-30" x="55.615234"/>
       <use xlink:href="#ArialMT-2e" x="111.230469"/>
       <use xlink:href="#ArialMT-30" x="139.013672"/>
      </g>
     </g>
    </g>
    <g id="xtick_4">
     <g id="line2d_4">
      <path d="M 337.085217 307.584 
L 337.085217 41.472 
" clip-path="url(#p877458b74c)" style="fill: none; stroke: #ffffff; stroke-width: 0.8; stroke-linecap: round"/>
     </g>
     <g id="text_4">
      <!-- 15.0 -->
      <g style="fill: #262626" transform="translate(328.522405 322.182875) scale(0.088 -0.088)">
       <use xlink:href="#ArialMT-31"/>
       <use xlink:href="#ArialMT-35" x="55.615234"/>
       <use xlink:href="#ArialMT-2e" x="111.230469"/>
       <use xlink:href="#ArialMT-30" x="139.013672"/>
      </g>
     </g>
    </g>
    <g id="xtick_5">
     <g id="line2d_5">
      <path d="M 414.72 307.584 
L 414.72 41.472 
" clip-path="url(#p877458b74c)" style="fill: none; stroke: #ffffff; stroke-width: 0.8; stroke-linecap: round"/>
     </g>
     <g id="text_5">
      <!-- 20.0 -->
      <g style="fill: #262626" transform="translate(406.157188 322.182875) scale(0.088 -0.088)">
       <defs>
        <path id="ArialMT-32" d="M 3222 541 
L 3222 0 
L 194 0 
Q 188 203 259 391 
Q 375 700 629 1000 
Q 884 1300 1366 1694 
Q 2113 2306 2375 2664 
Q 2638 3022 2638 3341 
Q 2638 3675 2398 3904 
Q 2159 4134 1775 4134 
Q 1369 4134 1125 3890 
Q 881 3647 878 3216 
L 300 3275 
Q 359 3922 746 4261 
Q 1134 4600 1788 4600 
Q 2447 4600 2831 4234 
Q 3216 3869 3216 3328 
Q 3216 3053 3103 2787 
Q 2991 2522 2730 2228 
Q 2469 1934 1863 1422 
Q 1356 997 1212 845 
Q 1069 694 975 541 
L 3222 541 
z
" transform="scale(0.015625)"/>
       </defs>
       <use xlink:href="#ArialMT-32"/>
       <use xlink:href="#ArialMT-30" x="55.615234"/>
       <use xlink:href="#ArialMT-2e" x="111.230469"/>
       <use xlink:href="#ArialMT-30" x="139.013672"/>
      </g>
     </g>
    </g>
    <g id="text_6">
     <!-- Shock normal distance (mm) -->
     <g style="fill: #262626" transform="translate(175.0785 334.920375) scale(0.096 -0.096)">
      <defs>
       <path id="ArialMT-53" d="M 288 1472 
L 859 1522 
Q 900 1178 1048 958 
Q 1197 738 1509 602 
Q 1822 466 2213 466 
Q 2559 466 2825 569 
Q 3091 672 3220 851 
Q 3350 1031 3350 1244 
Q 3350 1459 3225 1620 
Q 3100 1781 2813 1891 
Q 2628 1963 1997 2114 
Q 1366 2266 1113 2400 
Q 784 2572 623 2826 
Q 463 3081 463 3397 
Q 463 3744 659 4045 
Q 856 4347 1234 4503 
Q 1613 4659 2075 4659 
Q 2584 4659 2973 4495 
Q 3363 4331 3572 4012 
Q 3781 3694 3797 3291 
L 3216 3247 
Q 3169 3681 2898 3903 
Q 2628 4125 2100 4125 
Q 1550 4125 1298 3923 
Q 1047 3722 1047 3438 
Q 1047 3191 1225 3031 
Q 1400 2872 2139 2705 
Q 2878 2538 3153 2413 
Q 3553 2228 3743 1945 
Q 3934 1663 3934 1294 
Q 3934 928 3725 604 
Q 3516 281 3123 101 
Q 2731 -78 2241 -78 
Q 1619 -78 1198 103 
Q 778 284 539 648 
Q 300 1013 288 1472 
z
" transform="scale(0.015625)"/>
       <path id="ArialMT-68" d="M 422 0 
L 422 4581 
L 984 4581 
L 984 2938 
Q 1378 3394 1978 3394 
Q 2347 3394 2619 3248 
Q 2891 3103 3008 2847 
Q 3125 2591 3125 2103 
L 3125 0 
L 2563 0 
L 2563 2103 
Q 2563 2525 2380 2717 
Q 2197 2909 1863 2909 
Q 1613 2909 1392 2779 
Q 1172 2650 1078 2428 
Q 984 2206 984 1816 
L 984 0 
L 422 0 
z
" transform="scale(0.015625)"/>
       <path id="ArialMT-6f" d="M 213 1659 
Q 213 2581 725 3025 
Q 1153 3394 1769 3394 
Q 2453 3394 2887 2945 
Q 3322 2497 3322 1706 
Q 3322 1066 3130 698 
Q 2938 331 2570 128 
Q 2203 -75 1769 -75 
Q 1072 -75 642 372 
Q 213 819 213 1659 
z
M 791 1659 
Q 791 1022 1069 705 
Q 1347 388 1769 388 
Q 2188 388 2466 706 
Q 2744 1025 2744 1678 
Q 2744 2294 2464 2611 
Q 2184 2928 1769 2928 
Q 1347 2928 1069 2612 
Q 791 2297 791 1659 
z
" transform="scale(0.015625)"/>
       <path id="ArialMT-63" d="M 2588 1216 
L 3141 1144 
Q 3050 572 2676 248 
Q 2303 -75 1759 -75 
Q 1078 -75 664 370 
Q 250 816 250 1647 
Q 250 2184 428 2587 
Q 606 2991 970 3192 
Q 1334 3394 1763 3394 
Q 2303 3394 2647 3120 
Q 2991 2847 3088 2344 
L 2541 2259 
Q 2463 2594 2264 2762 
Q 2066 2931 1784 2931 
Q 1359 2931 1093 2626 
Q 828 2322 828 1663 
Q 828 994 1084 691 
Q 1341 388 1753 388 
Q 2084 388 2306 591 
Q 2528 794 2588 1216 
z
" transform="scale(0.015625)"/>
       <path id="ArialMT-6b" d="M 425 0 
L 425 4581 
L 988 4581 
L 988 1969 
L 2319 3319 
L 3047 3319 
L 1778 2088 
L 3175 0 
L 2481 0 
L 1384 1697 
L 988 1316 
L 988 0 
L 425 0 
z
" transform="scale(0.015625)"/>
       <path id="ArialMT-20" transform="scale(0.015625)"/>
       <path id="ArialMT-6e" d="M 422 0 
L 422 3319 
L 928 3319 
L 928 2847 
Q 1294 3394 1984 3394 
Q 2284 3394 2536 3286 
Q 2788 3178 2913 3003 
Q 3038 2828 3088 2588 
Q 3119 2431 3119 2041 
L 3119 0 
L 2556 0 
L 2556 2019 
Q 2556 2363 2490 2533 
Q 2425 2703 2258 2804 
Q 2091 2906 1866 2906 
Q 1506 2906 1245 2678 
Q 984 2450 984 1813 
L 984 0 
L 422 0 
z
" transform="scale(0.015625)"/>
       <path id="ArialMT-72" d="M 416 0 
L 416 3319 
L 922 3319 
L 922 2816 
Q 1116 3169 1280 3281 
Q 1444 3394 1641 3394 
Q 1925 3394 2219 3213 
L 2025 2691 
Q 1819 2813 1613 2813 
Q 1428 2813 1281 2702 
Q 1134 2591 1072 2394 
Q 978 2094 978 1738 
L 978 0 
L 416 0 
z
" transform="scale(0.015625)"/>
       <path id="ArialMT-6d" d="M 422 0 
L 422 3319 
L 925 3319 
L 925 2853 
Q 1081 3097 1340 3245 
Q 1600 3394 1931 3394 
Q 2300 3394 2536 3241 
Q 2772 3088 2869 2813 
Q 3263 3394 3894 3394 
Q 4388 3394 4653 3120 
Q 4919 2847 4919 2278 
L 4919 0 
L 4359 0 
L 4359 2091 
Q 4359 2428 4304 2576 
Q 4250 2725 4106 2815 
Q 3963 2906 3769 2906 
Q 3419 2906 3187 2673 
Q 2956 2441 2956 1928 
L 2956 0 
L 2394 0 
L 2394 2156 
Q 2394 2531 2256 2718 
Q 2119 2906 1806 2906 
Q 1569 2906 1367 2781 
Q 1166 2656 1075 2415 
Q 984 2175 984 1722 
L 984 0 
L 422 0 
z
" transform="scale(0.015625)"/>
       <path id="ArialMT-61" d="M 2588 409 
Q 2275 144 1986 34 
Q 1697 -75 1366 -75 
Q 819 -75 525 192 
Q 231 459 231 875 
Q 231 1119 342 1320 
Q 453 1522 633 1644 
Q 813 1766 1038 1828 
Q 1203 1872 1538 1913 
Q 2219 1994 2541 2106 
Q 2544 2222 2544 2253 
Q 2544 2597 2384 2738 
Q 2169 2928 1744 2928 
Q 1347 2928 1158 2789 
Q 969 2650 878 2297 
L 328 2372 
Q 403 2725 575 2942 
Q 747 3159 1072 3276 
Q 1397 3394 1825 3394 
Q 2250 3394 2515 3294 
Q 2781 3194 2906 3042 
Q 3031 2891 3081 2659 
Q 3109 2516 3109 2141 
L 3109 1391 
Q 3109 606 3145 398 
Q 3181 191 3288 0 
L 2700 0 
Q 2613 175 2588 409 
z
M 2541 1666 
Q 2234 1541 1622 1453 
Q 1275 1403 1131 1340 
Q 988 1278 909 1158 
Q 831 1038 831 891 
Q 831 666 1001 516 
Q 1172 366 1500 366 
Q 1825 366 2078 508 
Q 2331 650 2450 897 
Q 2541 1088 2541 1459 
L 2541 1666 
z
" transform="scale(0.015625)"/>
       <path id="ArialMT-6c" d="M 409 0 
L 409 4581 
L 972 4581 
L 972 0 
L 409 0 
z
" transform="scale(0.015625)"/>
       <path id="ArialMT-64" d="M 2575 0 
L 2575 419 
Q 2259 -75 1647 -75 
Q 1250 -75 917 144 
Q 584 363 401 755 
Q 219 1147 219 1656 
Q 219 2153 384 2558 
Q 550 2963 881 3178 
Q 1213 3394 1622 3394 
Q 1922 3394 2156 3267 
Q 2391 3141 2538 2938 
L 2538 4581 
L 3097 4581 
L 3097 0 
L 2575 0 
z
M 797 1656 
Q 797 1019 1065 703 
Q 1334 388 1700 388 
Q 2069 388 2326 689 
Q 2584 991 2584 1609 
Q 2584 2291 2321 2609 
Q 2059 2928 1675 2928 
Q 1300 2928 1048 2622 
Q 797 2316 797 1656 
z
" transform="scale(0.015625)"/>
       <path id="ArialMT-69" d="M 425 3934 
L 425 4581 
L 988 4581 
L 988 3934 
L 425 3934 
z
M 425 0 
L 425 3319 
L 988 3319 
L 988 0 
L 425 0 
z
" transform="scale(0.015625)"/>
       <path id="ArialMT-73" d="M 197 991 
L 753 1078 
Q 800 744 1014 566 
Q 1228 388 1613 388 
Q 2000 388 2187 545 
Q 2375 703 2375 916 
Q 2375 1106 2209 1216 
Q 2094 1291 1634 1406 
Q 1016 1563 777 1677 
Q 538 1791 414 1992 
Q 291 2194 291 2438 
Q 291 2659 392 2848 
Q 494 3038 669 3163 
Q 800 3259 1026 3326 
Q 1253 3394 1513 3394 
Q 1903 3394 2198 3281 
Q 2494 3169 2634 2976 
Q 2775 2784 2828 2463 
L 2278 2388 
Q 2241 2644 2061 2787 
Q 1881 2931 1553 2931 
Q 1166 2931 1000 2803 
Q 834 2675 834 2503 
Q 834 2394 903 2306 
Q 972 2216 1119 2156 
Q 1203 2125 1616 2013 
Q 2213 1853 2448 1751 
Q 2684 1650 2818 1456 
Q 2953 1263 2953 975 
Q 2953 694 2789 445 
Q 2625 197 2315 61 
Q 2006 -75 1616 -75 
Q 969 -75 630 194 
Q 291 463 197 991 
z
" transform="scale(0.015625)"/>
       <path id="ArialMT-74" d="M 1650 503 
L 1731 6 
Q 1494 -44 1306 -44 
Q 1000 -44 831 53 
Q 663 150 594 308 
Q 525 466 525 972 
L 525 2881 
L 113 2881 
L 113 3319 
L 525 3319 
L 525 4141 
L 1084 4478 
L 1084 3319 
L 1650 3319 
L 1650 2881 
L 1084 2881 
L 1084 941 
Q 1084 700 1114 631 
Q 1144 563 1211 522 
Q 1278 481 1403 481 
Q 1497 481 1650 503 
z
" transform="scale(0.015625)"/>
       <path id="ArialMT-65" d="M 2694 1069 
L 3275 997 
Q 3138 488 2766 206 
Q 2394 -75 1816 -75 
Q 1088 -75 661 373 
Q 234 822 234 1631 
Q 234 2469 665 2931 
Q 1097 3394 1784 3394 
Q 2450 3394 2872 2941 
Q 3294 2488 3294 1666 
Q 3294 1616 3291 1516 
L 816 1516 
Q 847 969 1125 678 
Q 1403 388 1819 388 
Q 2128 388 2347 550 
Q 2566 713 2694 1069 
z
M 847 1978 
L 2700 1978 
Q 2663 2397 2488 2606 
Q 2219 2931 1791 2931 
Q 1403 2931 1139 2672 
Q 875 2413 847 1978 
z
" transform="scale(0.015625)"/>
       <path id="ArialMT-28" d="M 1497 -1347 
Q 1031 -759 709 28 
Q 388 816 388 1659 
Q 388 2403 628 3084 
Q 909 3875 1497 4659 
L 1900 4659 
Q 1522 4009 1400 3731 
Q 1209 3300 1100 2831 
Q 966 2247 966 1656 
Q 966 153 1900 -1347 
L 1497 -1347 
z
" transform="scale(0.015625)"/>
       <path id="ArialMT-29" d="M 791 -1347 
L 388 -1347 
Q 1322 153 1322 1656 
Q 1322 2244 1188 2822 
Q 1081 3291 891 3722 
Q 769 4003 388 4659 
L 791 4659 
Q 1378 3875 1659 3084 
Q 1900 2403 1900 1659 
Q 1900 816 1576 28 
Q 1253 -759 791 -1347 
z
" transform="scale(0.015625)"/>
      </defs>
      <use xlink:href="#ArialMT-53"/>
      <use xlink:href="#ArialMT-68" x="66.699219"/>
      <use xlink:href="#ArialMT-6f" x="122.314453"/>
      <use xlink:href="#ArialMT-63" x="177.929688"/>
      <use xlink:href="#ArialMT-6b" x="227.929688"/>
      <use xlink:href="#ArialMT-20" x="277.929688"/>
      <use xlink:href="#ArialMT-6e" x="305.712891"/>
      <use xlink:href="#ArialMT-6f" x="361.328125"/>
      <use xlink:href="#ArialMT-72" x="416.943359"/>
      <use xlink:href="#ArialMT-6d" x="450.244141"/>
      <use xlink:href="#ArialMT-61" x="533.544922"/>
      <use xlink:href="#ArialMT-6c" x="589.160156"/>
      <use xlink:href="#ArialMT-20" x="611.376953"/>
      <use xlink:href="#ArialMT-64" x="639.160156"/>
      <use xlink:href="#ArialMT-69" x="694.775391"/>
      <use xlink:href="#ArialMT-73" x="716.992188"/>
      <use xlink:href="#ArialMT-74" x="766.992188"/>
      <use xlink:href="#ArialMT-61" x="794.775391"/>
      <use xlink:href="#ArialMT-6e" x="850.390625"/>
      <use xlink:href="#ArialMT-63" x="906.005859"/>
      <use xlink:href="#ArialMT-65" x="956.005859"/>
      <use xlink:href="#ArialMT-20" x="1011.621094"/>
      <use xlink:href="#ArialMT-28" x="1039.404297"/>
      <use xlink:href="#ArialMT-6d" x="1072.705078"/>
      <use xlink:href="#ArialMT-6d" x="1156.005859"/>
      <use xlink:href="#ArialMT-29" x="1239.306641"/>
     </g>
    </g>
   </g>
   <g id="matplotlib.axis_2">
    <g id="ytick_1">
     <g id="line2d_6">
      <path d="M 57.6 295.488 
L 414.72 295.488 
" clip-path="url(#p877458b74c)" style="fill: none; stroke: #ffffff; stroke-width: 0.8; stroke-linecap: round"/>
     </g>
     <g id="text_7">
      <!-- 0.0 -->
      <g style="fill: #262626" transform="translate(37.068 298.637438) scale(0.088 -0.088)">
       <use xlink:href="#ArialMT-30"/>
       <use xlink:href="#ArialMT-2e" x="55.615234"/>
       <use xlink:href="#ArialMT-30" x="83.398438"/>
      </g>
     </g>
    </g>
    <g id="ytick_2">
     <g id="line2d_7">
      <path d="M 57.6 247.219475 
L 414.72 247.219475 
" clip-path="url(#p877458b74c)" style="fill: none; stroke: #ffffff; stroke-width: 0.8; stroke-linecap: round"/>
     </g>
     <g id="text_8">
      <!-- 0.2 -->
      <g style="fill: #262626" transform="translate(37.068 250.368912) scale(0.088 -0.088)">
       <use xlink:href="#ArialMT-30"/>
       <use xlink:href="#ArialMT-2e" x="55.615234"/>
       <use xlink:href="#ArialMT-32" x="83.398438"/>
      </g>
     </g>
    </g>
    <g id="ytick_3">
     <g id="line2d_8">
      <path d="M 57.6 198.95095 
L 414.72 198.95095 
" clip-path="url(#p877458b74c)" style="fill: none; stroke: #ffffff; stroke-width: 0.8; stroke-linecap: round"/>
     </g>
     <g id="text_9">
      <!-- 0.4 -->
      <g style="fill: #262626" transform="translate(37.068 202.100387) scale(0.088 -0.088)">
       <defs>
        <path id="ArialMT-34" d="M 2069 0 
L 2069 1097 
L 81 1097 
L 81 1613 
L 2172 4581 
L 2631 4581 
L 2631 1613 
L 3250 1613 
L 3250 1097 
L 2631 1097 
L 2631 0 
L 2069 0 
z
M 2069 1613 
L 2069 3678 
L 634 1613 
L 2069 1613 
z
" transform="scale(0.015625)"/>
       </defs>
       <use xlink:href="#ArialMT-30"/>
       <use xlink:href="#ArialMT-2e" x="55.615234"/>
       <use xlink:href="#ArialMT-34" x="83.398438"/>
      </g>
     </g>
    </g>
    <g id="ytick_4">
     <g id="line2d_9">
      <path d="M 57.6 150.682425 
L 414.72 150.682425 
" clip-path="url(#p877458b74c)" style="fill: none; stroke: #ffffff; stroke-width: 0.8; stroke-linecap: round"/>
     </g>
     <g id="text_10">
      <!-- 0.6 -->
      <g style="fill: #262626" transform="translate(37.068 153.831862) scale(0.088 -0.088)">
       <defs>
        <path id="ArialMT-36" d="M 3184 3459 
L 2625 3416 
Q 2550 3747 2413 3897 
Q 2184 4138 1850 4138 
Q 1581 4138 1378 3988 
Q 1113 3794 959 3422 
Q 806 3050 800 2363 
Q 1003 2672 1297 2822 
Q 1591 2972 1913 2972 
Q 2475 2972 2870 2558 
Q 3266 2144 3266 1488 
Q 3266 1056 3080 686 
Q 2894 316 2569 119 
Q 2244 -78 1831 -78 
Q 1128 -78 684 439 
Q 241 956 241 2144 
Q 241 3472 731 4075 
Q 1159 4600 1884 4600 
Q 2425 4600 2770 4297 
Q 3116 3994 3184 3459 
z
M 888 1484 
Q 888 1194 1011 928 
Q 1134 663 1356 523 
Q 1578 384 1822 384 
Q 2178 384 2434 671 
Q 2691 959 2691 1453 
Q 2691 1928 2437 2201 
Q 2184 2475 1800 2475 
Q 1419 2475 1153 2201 
Q 888 1928 888 1484 
z
" transform="scale(0.015625)"/>
       </defs>
       <use xlink:href="#ArialMT-30"/>
       <use xlink:href="#ArialMT-2e" x="55.615234"/>
       <use xlink:href="#ArialMT-36" x="83.398438"/>
      </g>
     </g>
    </g>
    <g id="ytick_5">
     <g id="line2d_10">
      <path d="M 57.6 102.4139 
L 414.72 102.4139 
" clip-path="url(#p877458b74c)" style="fill: none; stroke: #ffffff; stroke-width: 0.8; stroke-linecap: round"/>
     </g>
     <g id="text_11">
      <!-- 0.8 -->
      <g style="fill: #262626" transform="translate(37.068 105.563337) scale(0.088 -0.088)">
       <defs>
        <path id="ArialMT-38" d="M 1131 2484 
Q 781 2613 612 2850 
Q 444 3088 444 3419 
Q 444 3919 803 4259 
Q 1163 4600 1759 4600 
Q 2359 4600 2725 4251 
Q 3091 3903 3091 3403 
Q 3091 3084 2923 2848 
Q 2756 2613 2416 2484 
Q 2838 2347 3058 2040 
Q 3278 1734 3278 1309 
Q 3278 722 2862 322 
Q 2447 -78 1769 -78 
Q 1091 -78 675 323 
Q 259 725 259 1325 
Q 259 1772 486 2073 
Q 713 2375 1131 2484 
z
M 1019 3438 
Q 1019 3113 1228 2906 
Q 1438 2700 1772 2700 
Q 2097 2700 2305 2904 
Q 2513 3109 2513 3406 
Q 2513 3716 2298 3927 
Q 2084 4138 1766 4138 
Q 1444 4138 1231 3931 
Q 1019 3725 1019 3438 
z
M 838 1322 
Q 838 1081 952 856 
Q 1066 631 1291 507 
Q 1516 384 1775 384 
Q 2178 384 2440 643 
Q 2703 903 2703 1303 
Q 2703 1709 2433 1975 
Q 2163 2241 1756 2241 
Q 1359 2241 1098 1978 
Q 838 1716 838 1322 
z
" transform="scale(0.015625)"/>
       </defs>
       <use xlink:href="#ArialMT-30"/>
       <use xlink:href="#ArialMT-2e" x="55.615234"/>
       <use xlink:href="#ArialMT-38" x="83.398438"/>
      </g>
     </g>
    </g>
    <g id="ytick_6">
     <g id="line2d_11">
      <path d="M 57.6 54.145375 
L 414.72 54.145375 
" clip-path="url(#p877458b74c)" style="fill: none; stroke: #ffffff; stroke-width: 0.8; stroke-linecap: round"/>
     </g>
     <g id="text_12">
      <!-- 1.0 -->
      <g style="fill: #262626" transform="translate(37.068 57.294812) scale(0.088 -0.088)">
       <use xlink:href="#ArialMT-31"/>
       <use xlink:href="#ArialMT-2e" x="55.615234"/>
       <use xlink:href="#ArialMT-30" x="83.398438"/>
      </g>
     </g>
    </g>
    <g id="text_13">
     <!-- Normalized shock-normal velocity -->
     <g style="fill: #262626" transform="translate(31.0475 246.2805) rotate(-90) scale(0.096 -0.096)">
      <defs>
       <path id="ArialMT-4e" d="M 488 0 
L 488 4581 
L 1109 4581 
L 3516 984 
L 3516 4581 
L 4097 4581 
L 4097 0 
L 3475 0 
L 1069 3600 
L 1069 0 
L 488 0 
z
" transform="scale(0.015625)"/>
       <path id="ArialMT-7a" d="M 125 0 
L 125 456 
L 2238 2881 
Q 1878 2863 1603 2863 
L 250 2863 
L 250 3319 
L 2963 3319 
L 2963 2947 
L 1166 841 
L 819 456 
Q 1197 484 1528 484 
L 3063 484 
L 3063 0 
L 125 0 
z
" transform="scale(0.015625)"/>
       <path id="ArialMT-2d" d="M 203 1375 
L 203 1941 
L 1931 1941 
L 1931 1375 
L 203 1375 
z
" transform="scale(0.015625)"/>
       <path id="ArialMT-76" d="M 1344 0 
L 81 3319 
L 675 3319 
L 1388 1331 
Q 1503 1009 1600 663 
Q 1675 925 1809 1294 
L 2547 3319 
L 3125 3319 
L 1869 0 
L 1344 0 
z
" transform="scale(0.015625)"/>
       <path id="ArialMT-79" d="M 397 -1278 
L 334 -750 
Q 519 -800 656 -800 
Q 844 -800 956 -737 
Q 1069 -675 1141 -563 
Q 1194 -478 1313 -144 
Q 1328 -97 1363 -6 
L 103 3319 
L 709 3319 
L 1400 1397 
Q 1534 1031 1641 628 
Q 1738 1016 1872 1384 
L 2581 3319 
L 3144 3319 
L 1881 -56 
Q 1678 -603 1566 -809 
Q 1416 -1088 1222 -1217 
Q 1028 -1347 759 -1347 
Q 597 -1347 397 -1278 
z
" transform="scale(0.015625)"/>
      </defs>
      <use xlink:href="#ArialMT-4e"/>
      <use xlink:href="#ArialMT-6f" x="72.216797"/>
      <use xlink:href="#ArialMT-72" x="127.832031"/>
      <use xlink:href="#ArialMT-6d" x="161.132812"/>
      <use xlink:href="#ArialMT-61" x="244.433594"/>
      <use xlink:href="#ArialMT-6c" x="300.048828"/>
      <use xlink:href="#ArialMT-69" x="322.265625"/>
      <use xlink:href="#ArialMT-7a" x="344.482422"/>
      <use xlink:href="#ArialMT-65" x="394.482422"/>
      <use xlink:href="#ArialMT-64" x="450.097656"/>
      <use xlink:href="#ArialMT-20" x="505.712891"/>
      <use xlink:href="#ArialMT-73" x="533.496094"/>
      <use xlink:href="#ArialMT-68" x="583.496094"/>
      <use xlink:href="#ArialMT-6f" x="639.111328"/>
      <use xlink:href="#ArialMT-63" x="694.726562"/>
      <use xlink:href="#ArialMT-6b" x="744.726562"/>
      <use xlink:href="#ArialMT-2d" x="794.726562"/>
      <use xlink:href="#ArialMT-6e" x="828.027344"/>
      <use xlink:href="#ArialMT-6f" x="883.642578"/>
      <use xlink:href="#ArialMT-72" x="939.257812"/>
      <use xlink:href="#ArialMT-6d" x="972.558594"/>
      <use xlink:href="#ArialMT-61" x="1055.859375"/>
      <use xlink:href="#ArialMT-6c" x="1111.474609"/>
      <use xlink:href="#ArialMT-20" x="1133.691406"/>
      <use xlink:href="#ArialMT-76" x="1161.474609"/>
      <use xlink:href="#ArialMT-65" x="1211.474609"/>
      <use xlink:href="#ArialMT-6c" x="1267.089844"/>
      <use xlink:href="#ArialMT-6f" x="1289.306641"/>
      <use xlink:href="#ArialMT-63" x="1344.921875"/>
      <use xlink:href="#ArialMT-69" x="1394.921875"/>
      <use xlink:href="#ArialMT-74" x="1417.138672"/>
      <use xlink:href="#ArialMT-79" x="1444.921875"/>
     </g>
    </g>
   </g>
   <g id="line2d_12">
    <defs>
     <path id="m9456309f89" d="M 0 -2.4 
L -0.538834 -0.741641 
L -2.282536 -0.741641 
L -0.871851 0.283282 
L -1.410685 1.941641 
L -0 0.916718 
L 1.410685 1.941641 
L 0.871851 0.283282 
L 2.282536 -0.741641 
L 0.538834 -0.741641 
z
" style="stroke: #1a1a1a; stroke-linejoin: bevel"/>
    </defs>
    <g clip-path="url(#p877458b74c)">
     <use xlink:href="#m9456309f89" x="58.019647" y="53.952916" style="fill: #1a1a1a; stroke: #1a1a1a; stroke-linejoin: bevel"/>
     <use xlink:href="#m9456309f89" x="63.450379" y="53.952916" style="fill: #1a1a1a; stroke: #1a1a1a; stroke-linejoin: bevel"/>
     <use xlink:href="#m9456309f89" x="69.868517" y="53.952916" style="fill: #1a1a1a; stroke: #1a1a1a; stroke-linejoin: bevel"/>
     <use xlink:href="#m9456309f89" x="77.274061" y="53.952916" style="fill: #1a1a1a; stroke: #1a1a1a; stroke-linejoin: bevel"/>
     <use xlink:href="#m9456309f89" x="85.66701" y="53.568" style="fill: #1a1a1a; stroke: #1a1a1a; stroke-linejoin: bevel"/>
     <use xlink:href="#m9456309f89" x="94.553663" y="54.337833" style="fill: #1a1a1a; stroke: #1a1a1a; stroke-linejoin: bevel"/>
     <use xlink:href="#m9456309f89" x="101.465504" y="54.337833" style="fill: #1a1a1a; stroke: #1a1a1a; stroke-linejoin: bevel"/>
     <use xlink:href="#m9456309f89" x="107.389938" y="60.11158" style="fill: #1a1a1a; stroke: #1a1a1a; stroke-linejoin: bevel"/>
     <use xlink:href="#m9456309f89" x="113.808076" y="73.968573" style="fill: #1a1a1a; stroke: #1a1a1a; stroke-linejoin: bevel"/>
     <use xlink:href="#m9456309f89" x="120.719917" y="87.440649" style="fill: #1a1a1a; stroke: #1a1a1a; stroke-linejoin: bevel"/>
     <use xlink:href="#m9456309f89" x="127.138055" y="99.757976" style="fill: #1a1a1a; stroke: #1a1a1a; stroke-linejoin: bevel"/>
     <use xlink:href="#m9456309f89" x="134.049896" y="112.845136" style="fill: #1a1a1a; stroke: #1a1a1a; stroke-linejoin: bevel"/>
     <use xlink:href="#m9456309f89" x="141.455439" y="126.317212" style="fill: #1a1a1a; stroke: #1a1a1a; stroke-linejoin: bevel"/>
     <use xlink:href="#m9456309f89" x="149.354686" y="139.404372" style="fill: #1a1a1a; stroke: #1a1a1a; stroke-linejoin: bevel"/>
     <use xlink:href="#m9456309f89" x="157.747635" y="152.491532" style="fill: #1a1a1a; stroke: #1a1a1a; stroke-linejoin: bevel"/>
     <use xlink:href="#m9456309f89" x="164.165773" y="161.729527" style="fill: #1a1a1a; stroke: #1a1a1a; stroke-linejoin: bevel"/>
     <use xlink:href="#m9456309f89" x="173.052426" y="174.431771" style="fill: #1a1a1a; stroke: #1a1a1a; stroke-linejoin: bevel"/>
     <use xlink:href="#m9456309f89" x="182.432781" y="186.749098" style="fill: #1a1a1a; stroke: #1a1a1a; stroke-linejoin: bevel"/>
     <use xlink:href="#m9456309f89" x="192.306839" y="199.451341" style="fill: #1a1a1a; stroke: #1a1a1a; stroke-linejoin: bevel"/>
     <use xlink:href="#m9456309f89" x="201.193491" y="209.074253" style="fill: #1a1a1a; stroke: #1a1a1a; stroke-linejoin: bevel"/>
     <use xlink:href="#m9456309f89" x="213.042361" y="221.006663" style="fill: #1a1a1a; stroke: #1a1a1a; stroke-linejoin: bevel"/>
     <use xlink:href="#m9456309f89" x="225.384934" y="231.784325" style="fill: #1a1a1a; stroke: #1a1a1a; stroke-linejoin: bevel"/>
     <use xlink:href="#m9456309f89" x="238.714913" y="242.177069" style="fill: #1a1a1a; stroke: #1a1a1a; stroke-linejoin: bevel"/>
     <use xlink:href="#m9456309f89" x="253.032297" y="251.415064" style="fill: #1a1a1a; stroke: #1a1a1a; stroke-linejoin: bevel"/>
     <use xlink:href="#m9456309f89" x="268.337087" y="259.49831" style="fill: #1a1a1a; stroke: #1a1a1a; stroke-linejoin: bevel"/>
     <use xlink:href="#m9456309f89" x="276.236334" y="263.347475" style="fill: #1a1a1a; stroke: #1a1a1a; stroke-linejoin: bevel"/>
     <use xlink:href="#m9456309f89" x="292.52853" y="269.891055" style="fill: #1a1a1a; stroke: #1a1a1a; stroke-linejoin: bevel"/>
     <use xlink:href="#m9456309f89" x="311.28924" y="276.049718" style="fill: #1a1a1a; stroke: #1a1a1a; stroke-linejoin: bevel"/>
     <use xlink:href="#m9456309f89" x="331.037357" y="280.668716" style="fill: #1a1a1a; stroke: #1a1a1a; stroke-linejoin: bevel"/>
     <use xlink:href="#m9456309f89" x="349.798067" y="284.132964" style="fill: #1a1a1a; stroke: #1a1a1a; stroke-linejoin: bevel"/>
     <use xlink:href="#m9456309f89" x="369.052481" y="287.212296" style="fill: #1a1a1a; stroke: #1a1a1a; stroke-linejoin: bevel"/>
     <use xlink:href="#m9456309f89" x="387.319488" y="288.751962" style="fill: #1a1a1a; stroke: #1a1a1a; stroke-linejoin: bevel"/>
     <use xlink:href="#m9456309f89" x="406.573902" y="290.676544" style="fill: #1a1a1a; stroke: #1a1a1a; stroke-linejoin: bevel"/>
    </g>
   </g>
   <g id="line2d_13">
    <path d="M 58.019647 54.145375 
L 63.450379 54.145375 
L 69.868517 54.145375 
L 77.274061 54.145375 
L 85.66701 54.145375 
L 94.553663 54.145375 
L 101.465504 54.145375 
L 107.389938 65.284117 
L 113.808076 81.790482 
L 120.719917 98.245416 
L 127.138055 112.388349 
L 134.049896 126.487215 
L 141.455439 140.390678 
L 149.354686 153.962647 
L 157.747635 167.083996 
L 164.165773 176.290979 
L 173.052426 187.959375 
L 182.432781 199.039127 
L 192.306839 209.47094 
L 201.193491 217.891294 
L 213.042361 227.850397 
L 225.384934 236.867772 
L 238.714913 245.261196 
L 253.032297 252.942628 
L 268.337087 259.859474 
L 276.236334 262.977189 
L 292.52853 268.572524 
L 311.28924 273.833498 
L 331.037357 278.264434 
L 349.798067 281.631001 
L 369.052481 284.403153 
L 387.319488 286.51864 
L 406.573902 288.312999 
" clip-path="url(#p877458b74c)" style="fill: none; stroke: #c44e52; stroke-width: 1.2; stroke-linecap: round"/>
   </g>
   <g id="line2d_14">
    <defs>
     <path id="m22ea51987f" d="M 0 1.2 
C 0.318244 1.2 0.623496 1.07356 0.848528 0.848528 
C 1.07356 0.623496 1.2 0.318244 1.2 0 
C 1.2 -0.318244 1.07356 -0.623496 0.848528 -0.848528 
C 0.623496 -1.07356 0.318244 -1.2 0 -1.2 
C -0.318244 -1.2 -0.623496 -1.07356 -0.848528 -0.848528 
C -1.07356 -0.623496 -1.2 -0.318244 -1.2 0 
C -1.2 0.318244 -1.07356 0.623496 -0.848528 0.848528 
C -0.623496 1.07356 -0.318244 1.2 0 1.2 
z
" style="stroke: #4c72b0"/>
    </defs>
    <g clip-path="url(#p877458b74c)">
     <use xlink:href="#m22ea51987f" x="26.546087" y="54.145375" style="fill: #4c72b0; stroke: #4c72b0"/>
     <use xlink:href="#m22ea51987f" x="91.260059" y="54.145375" style="fill: #4c72b0; stroke: #4c72b0"/>
     <use xlink:href="#m22ea51987f" x="111.028395" y="69.050139" style="fill: #4c72b0; stroke: #4c72b0"/>
     <use xlink:href="#m22ea51987f" x="119.09899" y="85.886356" style="fill: #4c72b0; stroke: #4c72b0"/>
     <use xlink:href="#m22ea51987f" x="126.80351" y="101.18774" style="fill: #4c72b0; stroke: #4c72b0"/>
     <use xlink:href="#m22ea51987f" x="134.17472" y="115.143365" style="fill: #4c72b0; stroke: #4c72b0"/>
     <use xlink:href="#m22ea51987f" x="141.241524" y="127.904722" style="fill: #4c72b0; stroke: #4c72b0"/>
     <use xlink:href="#m22ea51987f" x="148.029695" y="139.596659" style="fill: #4c72b0; stroke: #4c72b0"/>
     <use xlink:href="#m22ea51987f" x="154.562384" y="150.32503" style="fill: #4c72b0; stroke: #4c72b0"/>
     <use xlink:href="#m22ea51987f" x="160.860496" y="160.181759" style="fill: #4c72b0; stroke: #4c72b0"/>
     <use xlink:href="#m22ea51987f" x="166.942967" y="169.248093" style="fill: #4c72b0; stroke: #4c72b0"/>
     <use xlink:href="#m22ea51987f" x="172.826979" y="177.596637" style="fill: #4c72b0; stroke: #4c72b0"/>
     <use xlink:href="#m22ea51987f" x="178.528146" y="185.292681" style="fill: #4c72b0; stroke: #4c72b0"/>
     <use xlink:href="#m22ea51987f" x="184.060666" y="192.3951" style="fill: #4c72b0; stroke: #4c72b0"/>
     <use xlink:href="#m22ea51987f" x="189.437461" y="198.957044" style="fill: #4c72b0; stroke: #4c72b0"/>
     <use xlink:href="#m22ea51987f" x="194.670303" y="205.026493" style="fill: #4c72b0; stroke: #4c72b0"/>
     <use xlink:href="#m22ea51987f" x="199.76992" y="210.646753" style="fill: #4c72b0; stroke: #4c72b0"/>
     <use xlink:href="#m22ea51987f" x="204.746104" y="215.856905" style="fill: #4c72b0; stroke: #4c72b0"/>
     <use xlink:href="#m22ea51987f" x="209.607798" y="220.692214" style="fill: #4c72b0; stroke: #4c72b0"/>
     <use xlink:href="#m22ea51987f" x="214.363184" y="225.184511" style="fill: #4c72b0; stroke: #4c72b0"/>
     <use xlink:href="#m22ea51987f" x="219.019751" y="229.362539" style="fill: #4c72b0; stroke: #4c72b0"/>
     <use xlink:href="#m22ea51987f" x="223.584364" y="233.252273" style="fill: #4c72b0; stroke: #4c72b0"/>
     <use xlink:href="#m22ea51987f" x="228.063327" y="236.877204" style="fill: #4c72b0; stroke: #4c72b0"/>
     <use xlink:href="#m22ea51987f" x="232.462432" y="240.258602" style="fill: #4c72b0; stroke: #4c72b0"/>
     <use xlink:href="#m22ea51987f" x="236.787011" y="243.415745" style="fill: #4c72b0; stroke: #4c72b0"/>
     <use xlink:href="#m22ea51987f" x="241.041974" y="246.366129" style="fill: #4c72b0; stroke: #4c72b0"/>
     <use xlink:href="#m22ea51987f" x="245.231854" y="249.125651" style="fill: #4c72b0; stroke: #4c72b0"/>
     <use xlink:href="#m22ea51987f" x="249.360836" y="251.708778" style="fill: #4c72b0; stroke: #4c72b0"/>
     <use xlink:href="#m22ea51987f" x="253.43279" y="254.12869" style="fill: #4c72b0; stroke: #4c72b0"/>
     <use xlink:href="#m22ea51987f" x="257.4513" y="256.397413" style="fill: #4c72b0; stroke: #4c72b0"/>
     <use xlink:href="#m22ea51987f" x="261.419685" y="258.525932" style="fill: #4c72b0; stroke: #4c72b0"/>
     <use xlink:href="#m22ea51987f" x="265.341029" y="260.5243" style="fill: #4c72b0; stroke: #4c72b0"/>
     <use xlink:href="#m22ea51987f" x="269.218192" y="262.401723" style="fill: #4c72b0; stroke: #4c72b0"/>
     <use xlink:href="#m22ea51987f" x="273.053835" y="264.166647" style="fill: #4c72b0; stroke: #4c72b0"/>
     <use xlink:href="#m22ea51987f" x="276.850435" y="265.826826" style="fill: #4c72b0; stroke: #4c72b0"/>
     <use xlink:href="#m22ea51987f" x="280.610297" y="267.389394" style="fill: #4c72b0; stroke: #4c72b0"/>
     <use xlink:href="#m22ea51987f" x="284.335572" y="268.860916" style="fill: #4c72b0; stroke: #4c72b0"/>
     <use xlink:href="#m22ea51987f" x="288.028266" y="270.247444" style="fill: #4c72b0; stroke: #4c72b0"/>
     <use xlink:href="#m22ea51987f" x="291.690255" y="271.554564" style="fill: #4c72b0; stroke: #4c72b0"/>
     <use xlink:href="#m22ea51987f" x="295.323287" y="272.787435" style="fill: #4c72b0; stroke: #4c72b0"/>
     <use xlink:href="#m22ea51987f" x="298.929004" y="273.950829" style="fill: #4c72b0; stroke: #4c72b0"/>
     <use xlink:href="#m22ea51987f" x="302.508936" y="275.049163" style="fill: #4c72b0; stroke: #4c72b0"/>
     <use xlink:href="#m22ea51987f" x="306.064522" y="276.086531" style="fill: #4c72b0; stroke: #4c72b0"/>
     <use xlink:href="#m22ea51987f" x="309.597108" y="277.06673" style="fill: #4c72b0; stroke: #4c72b0"/>
     <use xlink:href="#m22ea51987f" x="313.107957" y="277.993286" style="fill: #4c72b0; stroke: #4c72b0"/>
     <use xlink:href="#m22ea51987f" x="316.598254" y="278.869477" style="fill: #4c72b0; stroke: #4c72b0"/>
     <use xlink:href="#m22ea51987f" x="320.069113" y="279.69835" style="fill: #4c72b0; stroke: #4c72b0"/>
     <use xlink:href="#m22ea51987f" x="323.521581" y="280.482742" style="fill: #4c72b0; stroke: #4c72b0"/>
     <use xlink:href="#m22ea51987f" x="326.956641" y="281.225299" style="fill: #4c72b0; stroke: #4c72b0"/>
     <use xlink:href="#m22ea51987f" x="330.375219" y="281.928485" style="fill: #4c72b0; stroke: #4c72b0"/>
     <use xlink:href="#m22ea51987f" x="333.778187" y="282.594602" style="fill: #4c72b0; stroke: #4c72b0"/>
     <use xlink:href="#m22ea51987f" x="337.166365" y="283.225798" style="fill: #4c72b0; stroke: #4c72b0"/>
     <use xlink:href="#m22ea51987f" x="340.540526" y="283.824082" style="fill: #4c72b0; stroke: #4c72b0"/>
     <use xlink:href="#m22ea51987f" x="343.9014" y="284.391332" style="fill: #4c72b0; stroke: #4c72b0"/>
     <use xlink:href="#m22ea51987f" x="347.249674" y="284.929305" style="fill: #4c72b0; stroke: #4c72b0"/>
     <use xlink:href="#m22ea51987f" x="350.585996" y="285.43965" style="fill: #4c72b0; stroke: #4c72b0"/>
     <use xlink:href="#m22ea51987f" x="353.910979" y="285.923907" style="fill: #4c72b0; stroke: #4c72b0"/>
     <use xlink:href="#m22ea51987f" x="357.225202" y="286.383524" style="fill: #4c72b0; stroke: #4c72b0"/>
     <use xlink:href="#m22ea51987f" x="360.52921" y="286.819859" style="fill: #4c72b0; stroke: #4c72b0"/>
     <use xlink:href="#m22ea51987f" x="363.82352" y="287.234185" style="fill: #4c72b0; stroke: #4c72b0"/>
     <use xlink:href="#m22ea51987f" x="367.10862" y="287.6277" style="fill: #4c72b0; stroke: #4c72b0"/>
     <use xlink:href="#m22ea51987f" x="370.384972" y="288.001528" style="fill: #4c72b0; stroke: #4c72b0"/>
     <use xlink:href="#m22ea51987f" x="374.740584" y="288.471162" style="fill: #4c72b0; stroke: #4c72b0"/>
     <use xlink:href="#m22ea51987f" x="381.248399" y="289.118564" style="fill: #4c72b0; stroke: #4c72b0"/>
     <use xlink:href="#m22ea51987f" x="387.728127" y="289.703788" style="fill: #4c72b0; stroke: #4c72b0"/>
     <use xlink:href="#m22ea51987f" x="394.182456" y="290.233173" style="fill: #4c72b0; stroke: #4c72b0"/>
     <use xlink:href="#m22ea51987f" x="400.613804" y="290.712355" style="fill: #4c72b0; stroke: #4c72b0"/>
     <use xlink:href="#m22ea51987f" x="407.024343" y="291.146357" style="fill: #4c72b0; stroke: #4c72b0"/>
     <use xlink:href="#m22ea51987f" x="413.41603" y="291.53966" style="fill: #4c72b0; stroke: #4c72b0"/>
     <use xlink:href="#m22ea51987f" x="422.124018" y="292.018548" style="fill: #4c72b0; stroke: #4c72b0"/>
     <use xlink:href="#m22ea51987f" x="434.818017" y="292.614085" style="fill: #4c72b0; stroke: #4c72b0"/>
     <use xlink:href="#m22ea51987f" x="447.462611" y="293.105157" style="fill: #4c72b0; stroke: #4c72b0"/>
     <use xlink:href="#m22ea51987f" x="460.066436" y="293.510703" style="fill: #4c72b0; stroke: #4c72b0"/>
     <use xlink:href="#m22ea51987f" x="482.087387" y="294.059998" style="fill: #4c72b0; stroke: #4c72b0"/>
     <use xlink:href="#m22ea51987f" x="507.116275" y="294.500839" style="fill: #4c72b0; stroke: #4c72b0"/>
     <use xlink:href="#m22ea51987f" x="532.078037" y="294.804487" style="fill: #4c72b0; stroke: #4c72b0"/>
     <use xlink:href="#m22ea51987f" x="556.993503" y="295.014207" style="fill: #4c72b0; stroke: #4c72b0"/>
     <use xlink:href="#m22ea51987f" x="581.876961" y="295.159358" style="fill: #4c72b0; stroke: #4c72b0"/>
     <use xlink:href="#m22ea51987f" x="606.738247" y="295.259983" style="fill: #4c72b0; stroke: #4c72b0"/>
     <use xlink:href="#m22ea51987f" x="631.584153" y="295.32983" style="fill: #4c72b0; stroke: #4c72b0"/>
     <use xlink:href="#m22ea51987f" x="656.419378" y="295.378361" style="fill: #4c72b0; stroke: #4c72b0"/>
     <use xlink:href="#m22ea51987f" x="681.247179" y="295.412106" style="fill: #4c72b0; stroke: #4c72b0"/>
     <use xlink:href="#m22ea51987f" x="706.069817" y="295.435585" style="fill: #4c72b0; stroke: #4c72b0"/>
     <use xlink:href="#m22ea51987f" x="730.888862" y="295.451928" style="fill: #4c72b0; stroke: #4c72b0"/>
     <use xlink:href="#m22ea51987f" x="755.705404" y="295.463308" style="fill: #4c72b0; stroke: #4c72b0"/>
     <use xlink:href="#m22ea51987f" x="780.520204" y="295.471235" style="fill: #4c72b0; stroke: #4c72b0"/>
     <use xlink:href="#m22ea51987f" x="805.333791" y="295.476757" style="fill: #4c72b0; stroke: #4c72b0"/>
     <use xlink:href="#m22ea51987f" x="830.146531" y="295.480605" style="fill: #4c72b0; stroke: #4c72b0"/>
     <use xlink:href="#m22ea51987f" x="854.958683" y="295.483287" style="fill: #4c72b0; stroke: #4c72b0"/>
     <use xlink:href="#m22ea51987f" x="879.770424" y="295.485156" style="fill: #4c72b0; stroke: #4c72b0"/>
     <use xlink:href="#m22ea51987f" x="904.581878" y="295.486459" style="fill: #4c72b0; stroke: #4c72b0"/>
     <use xlink:href="#m22ea51987f" x="929.393133" y="295.487367" style="fill: #4c72b0; stroke: #4c72b0"/>
     <use xlink:href="#m22ea51987f" x="954.038842" y="295.487997" style="fill: #4c72b0; stroke: #4c72b0"/>
     <use xlink:href="#m22ea51987f" x="954.196832" y="295.488" style="fill: #4c72b0; stroke: #4c72b0"/>
    </g>
   </g>
   <g id="line2d_15">
    <path d="M 58.019647 54.145375 
L 63.450379 54.145375 
L 69.868517 54.145375 
L 77.274061 54.145375 
L 85.66701 54.145375 
L 94.553663 54.145375 
L 101.465504 54.145363 
L 107.389938 61.17938 
L 113.808076 74.944361 
L 120.719917 89.16715 
L 127.138055 101.835492 
L 134.049896 114.912536 
L 141.455439 128.281629 
L 149.354686 141.81416 
L 157.747635 155.369724 
L 164.165773 165.163638 
L 173.052426 177.908293 
L 182.432781 190.342439 
L 192.306839 202.32348 
L 201.193491 212.164614 
L 213.042361 223.959915 
L 225.384934 234.732004 
L 238.714913 244.771377 
L 253.032297 253.89616 
L 268.337087 261.983455 
L 276.236334 265.563994 
L 292.52853 271.84458 
L 311.28924 277.519097 
L 331.037357 282.060694 
L 349.798067 285.321374 
L 369.052481 287.851682 
L 387.319488 289.668527 
L 406.573902 291.117199 
" clip-path="url(#p877458b74c)" style="fill: none; stroke: #55a868; stroke-width: 1.2; stroke-linecap: round"/>
   </g>
   <g id="patch_3">
    <path d="M 57.6 307.584 
L 57.6 41.472 
" style="fill: none; stroke: #000000; stroke-linejoin: miter; stroke-linecap: square"/>
   </g>
   <g id="patch_4">
    <path d="M 414.72 307.584 
L 414.72 41.472 
" style="fill: none; stroke: #000000; stroke-linejoin: miter; stroke-linecap: square"/>
   </g>
   <g id="patch_5">
    <path d="M 57.6 307.584 
L 414.72 307.584 
" style="fill: none; stroke: #000000; stroke-linejoin: miter; stroke-linecap: square"/>
   </g>
   <g id="patch_6">
    <path d="M 57.6 41.472 
L 414.72 41.472 
" style="fill: none; stroke: #000000; stroke-linejoin: miter; stroke-linecap: square"/>
   </g>
   <g id="text_14">
    <!-- Comparison of experimental and numerical data -->
    <g style="fill: #262626" transform="translate(133.98 35.472) scale(0.096 -0.096)">
     <defs>
      <path id="ArialMT-43" d="M 3763 1606 
L 4369 1453 
Q 4178 706 3683 314 
Q 3188 -78 2472 -78 
Q 1731 -78 1267 223 
Q 803 525 561 1097 
Q 319 1669 319 2325 
Q 319 3041 592 3573 
Q 866 4106 1370 4382 
Q 1875 4659 2481 4659 
Q 3169 4659 3637 4309 
Q 4106 3959 4291 3325 
L 3694 3184 
Q 3534 3684 3231 3912 
Q 2928 4141 2469 4141 
Q 1941 4141 1586 3887 
Q 1231 3634 1087 3207 
Q 944 2781 944 2328 
Q 944 1744 1114 1308 
Q 1284 872 1643 656 
Q 2003 441 2422 441 
Q 2931 441 3284 734 
Q 3638 1028 3763 1606 
z
" transform="scale(0.015625)"/>
      <path id="ArialMT-70" d="M 422 -1272 
L 422 3319 
L 934 3319 
L 934 2888 
Q 1116 3141 1344 3267 
Q 1572 3394 1897 3394 
Q 2322 3394 2647 3175 
Q 2972 2956 3137 2557 
Q 3303 2159 3303 1684 
Q 3303 1175 3120 767 
Q 2938 359 2589 142 
Q 2241 -75 1856 -75 
Q 1575 -75 1351 44 
Q 1128 163 984 344 
L 984 -1272 
L 422 -1272 
z
M 931 1641 
Q 931 1000 1190 694 
Q 1450 388 1819 388 
Q 2194 388 2461 705 
Q 2728 1022 2728 1688 
Q 2728 2322 2467 2637 
Q 2206 2953 1844 2953 
Q 1484 2953 1207 2617 
Q 931 2281 931 1641 
z
" transform="scale(0.015625)"/>
      <path id="ArialMT-66" d="M 556 0 
L 556 2881 
L 59 2881 
L 59 3319 
L 556 3319 
L 556 3672 
Q 556 4006 616 4169 
Q 697 4388 901 4523 
Q 1106 4659 1475 4659 
Q 1713 4659 2000 4603 
L 1916 4113 
Q 1741 4144 1584 4144 
Q 1328 4144 1222 4034 
Q 1116 3925 1116 3625 
L 1116 3319 
L 1763 3319 
L 1763 2881 
L 1116 2881 
L 1116 0 
L 556 0 
z
" transform="scale(0.015625)"/>
      <path id="ArialMT-78" d="M 47 0 
L 1259 1725 
L 138 3319 
L 841 3319 
L 1350 2541 
Q 1494 2319 1581 2169 
Q 1719 2375 1834 2534 
L 2394 3319 
L 3066 3319 
L 1919 1756 
L 3153 0 
L 2463 0 
L 1781 1031 
L 1600 1309 
L 728 0 
L 47 0 
z
" transform="scale(0.015625)"/>
      <path id="ArialMT-75" d="M 2597 0 
L 2597 488 
Q 2209 -75 1544 -75 
Q 1250 -75 995 37 
Q 741 150 617 320 
Q 494 491 444 738 
Q 409 903 409 1263 
L 409 3319 
L 972 3319 
L 972 1478 
Q 972 1038 1006 884 
Q 1059 663 1231 536 
Q 1403 409 1656 409 
Q 1909 409 2131 539 
Q 2353 669 2445 892 
Q 2538 1116 2538 1541 
L 2538 3319 
L 3100 3319 
L 3100 0 
L 2597 0 
z
" transform="scale(0.015625)"/>
     </defs>
     <use xlink:href="#ArialMT-43"/>
     <use xlink:href="#ArialMT-6f" x="72.216797"/>
     <use xlink:href="#ArialMT-6d" x="127.832031"/>
     <use xlink:href="#ArialMT-70" x="211.132812"/>
     <use xlink:href="#ArialMT-61" x="266.748047"/>
     <use xlink:href="#ArialMT-72" x="322.363281"/>
     <use xlink:href="#ArialMT-69" x="355.664062"/>
     <use xlink:href="#ArialMT-73" x="377.880859"/>
     <use xlink:href="#ArialMT-6f" x="427.880859"/>
     <use xlink:href="#ArialMT-6e" x="483.496094"/>
     <use xlink:href="#ArialMT-20" x="539.111328"/>
     <use xlink:href="#ArialMT-6f" x="566.894531"/>
     <use xlink:href="#ArialMT-66" x="622.509766"/>
     <use xlink:href="#ArialMT-20" x="650.292969"/>
     <use xlink:href="#ArialMT-65" x="678.076172"/>
     <use xlink:href="#ArialMT-78" x="733.691406"/>
     <use xlink:href="#ArialMT-70" x="783.691406"/>
     <use xlink:href="#ArialMT-65" x="839.306641"/>
     <use xlink:href="#ArialMT-72" x="894.921875"/>
     <use xlink:href="#ArialMT-69" x="928.222656"/>
     <use xlink:href="#ArialMT-6d" x="950.439453"/>
     <use xlink:href="#ArialMT-65" x="1033.740234"/>
     <use xlink:href="#ArialMT-6e" x="1089.355469"/>
     <use xlink:href="#ArialMT-74" x="1144.970703"/>
     <use xlink:href="#ArialMT-61" x="1172.753906"/>
     <use xlink:href="#ArialMT-6c" x="1228.369141"/>
     <use xlink:href="#ArialMT-20" x="1250.585938"/>
     <use xlink:href="#ArialMT-61" x="1278.369141"/>
     <use xlink:href="#ArialMT-6e" x="1333.984375"/>
     <use xlink:href="#ArialMT-64" x="1389.599609"/>
     <use xlink:href="#ArialMT-20" x="1445.214844"/>
     <use xlink:href="#ArialMT-6e" x="1472.998047"/>
     <use xlink:href="#ArialMT-75" x="1528.613281"/>
     <use xlink:href="#ArialMT-6d" x="1584.228516"/>
     <use xlink:href="#ArialMT-65" x="1667.529297"/>
     <use xlink:href="#ArialMT-72" x="1723.144531"/>
     <use xlink:href="#ArialMT-69" x="1756.445312"/>
     <use xlink:href="#ArialMT-63" x="1778.662109"/>
     <use xlink:href="#ArialMT-61" x="1828.662109"/>
     <use xlink:href="#ArialMT-6c" x="1884.277344"/>
     <use xlink:href="#ArialMT-20" x="1906.494141"/>
     <use xlink:href="#ArialMT-64" x="1934.277344"/>
     <use xlink:href="#ArialMT-61" x="1989.892578"/>
     <use xlink:href="#ArialMT-74" x="2045.507812"/>
     <use xlink:href="#ArialMT-61" x="2073.291016"/>
    </g>
   </g>
   <g id="legend_1">
    <g id="patch_7">
     <path d="M 274.261 98.513875 
L 408.56 98.513875 
Q 410.32 98.513875 410.32 96.753875 
L 410.32 47.632 
Q 410.32 45.872 408.56 45.872 
L 274.261 45.872 
Q 272.501 45.872 272.501 47.632 
L 272.501 96.753875 
Q 272.501 98.513875 274.261 98.513875 
z
" style="fill: #eaeaf2; opacity: 0.8; stroke: #cccccc; stroke-width: 0.8; stroke-linejoin: miter"/>
    </g>
    <g id="line2d_16">
     <g>
      <use xlink:href="#m9456309f89" x="284.821" y="52.610875" style="fill: #1a1a1a; stroke: #1a1a1a; stroke-linejoin: bevel"/>
     </g>
    </g>
    <g id="text_15">
     <!-- Digitized experimental data -->
     <g style="fill: #262626" transform="translate(300.661 55.690875) scale(0.088 -0.088)">
      <defs>
       <path id="ArialMT-44" d="M 494 0 
L 494 4581 
L 2072 4581 
Q 2606 4581 2888 4516 
Q 3281 4425 3559 4188 
Q 3922 3881 4101 3404 
Q 4281 2928 4281 2316 
Q 4281 1794 4159 1391 
Q 4038 988 3847 723 
Q 3656 459 3429 307 
Q 3203 156 2883 78 
Q 2563 0 2147 0 
L 494 0 
z
M 1100 541 
L 2078 541 
Q 2531 541 2789 625 
Q 3047 709 3200 863 
Q 3416 1078 3536 1442 
Q 3656 1806 3656 2325 
Q 3656 3044 3420 3430 
Q 3184 3816 2847 3947 
Q 2603 4041 2063 4041 
L 1100 4041 
L 1100 541 
z
" transform="scale(0.015625)"/>
       <path id="ArialMT-67" d="M 319 -275 
L 866 -356 
Q 900 -609 1056 -725 
Q 1266 -881 1628 -881 
Q 2019 -881 2231 -725 
Q 2444 -569 2519 -288 
Q 2563 -116 2559 434 
Q 2191 0 1641 0 
Q 956 0 581 494 
Q 206 988 206 1678 
Q 206 2153 378 2554 
Q 550 2956 876 3175 
Q 1203 3394 1644 3394 
Q 2231 3394 2613 2919 
L 2613 3319 
L 3131 3319 
L 3131 450 
Q 3131 -325 2973 -648 
Q 2816 -972 2473 -1159 
Q 2131 -1347 1631 -1347 
Q 1038 -1347 672 -1080 
Q 306 -813 319 -275 
z
M 784 1719 
Q 784 1066 1043 766 
Q 1303 466 1694 466 
Q 2081 466 2343 764 
Q 2606 1063 2606 1700 
Q 2606 2309 2336 2618 
Q 2066 2928 1684 2928 
Q 1309 2928 1046 2623 
Q 784 2319 784 1719 
z
" transform="scale(0.015625)"/>
      </defs>
      <use xlink:href="#ArialMT-44"/>
      <use xlink:href="#ArialMT-69" x="72.216797"/>
      <use xlink:href="#ArialMT-67" x="94.433594"/>
      <use xlink:href="#ArialMT-69" x="150.048828"/>
      <use xlink:href="#ArialMT-74" x="172.265625"/>
      <use xlink:href="#ArialMT-69" x="200.048828"/>
      <use xlink:href="#ArialMT-7a" x="222.265625"/>
      <use xlink:href="#ArialMT-65" x="272.265625"/>
      <use xlink:href="#ArialMT-64" x="327.880859"/>
      <use xlink:href="#ArialMT-20" x="383.496094"/>
      <use xlink:href="#ArialMT-65" x="411.279297"/>
      <use xlink:href="#ArialMT-78" x="466.894531"/>
      <use xlink:href="#ArialMT-70" x="516.894531"/>
      <use xlink:href="#ArialMT-65" x="572.509766"/>
      <use xlink:href="#ArialMT-72" x="628.125"/>
      <use xlink:href="#ArialMT-69" x="661.425781"/>
      <use xlink:href="#ArialMT-6d" x="683.642578"/>
      <use xlink:href="#ArialMT-65" x="766.943359"/>
      <use xlink:href="#ArialMT-6e" x="822.558594"/>
      <use xlink:href="#ArialMT-74" x="878.173828"/>
      <use xlink:href="#ArialMT-61" x="905.957031"/>
      <use xlink:href="#ArialMT-6c" x="961.572266"/>
      <use xlink:href="#ArialMT-20" x="983.789062"/>
      <use xlink:href="#ArialMT-64" x="1011.572266"/>
      <use xlink:href="#ArialMT-61" x="1067.1875"/>
      <use xlink:href="#ArialMT-74" x="1122.802734"/>
      <use xlink:href="#ArialMT-61" x="1150.585938"/>
     </g>
    </g>
    <g id="line2d_17">
     <path d="M 276.021 65.161875 
L 284.821 65.161875 
L 293.621 65.161875 
" style="fill: none; stroke: #c44e52; stroke-width: 1.2; stroke-linecap: round"/>
    </g>
    <g id="text_16">
     <!-- Non-linear curve fit -->
     <g style="fill: #262626" transform="translate(300.661 68.241875) scale(0.088 -0.088)">
      <use xlink:href="#ArialMT-4e"/>
      <use xlink:href="#ArialMT-6f" x="72.216797"/>
      <use xlink:href="#ArialMT-6e" x="127.832031"/>
      <use xlink:href="#ArialMT-2d" x="183.447266"/>
      <use xlink:href="#ArialMT-6c" x="216.748047"/>
      <use xlink:href="#ArialMT-69" x="238.964844"/>
      <use xlink:href="#ArialMT-6e" x="261.181641"/>
      <use xlink:href="#ArialMT-65" x="316.796875"/>
      <use xlink:href="#ArialMT-61" x="372.412109"/>
      <use xlink:href="#ArialMT-72" x="428.027344"/>
      <use xlink:href="#ArialMT-20" x="461.328125"/>
      <use xlink:href="#ArialMT-63" x="489.111328"/>
      <use xlink:href="#ArialMT-75" x="539.111328"/>
      <use xlink:href="#ArialMT-72" x="594.726562"/>
      <use xlink:href="#ArialMT-76" x="628.027344"/>
      <use xlink:href="#ArialMT-65" x="678.027344"/>
      <use xlink:href="#ArialMT-20" x="733.642578"/>
      <use xlink:href="#ArialMT-66" x="761.425781"/>
      <use xlink:href="#ArialMT-69" x="789.208984"/>
      <use xlink:href="#ArialMT-74" x="811.425781"/>
     </g>
    </g>
    <g id="line2d_18">
     <g>
      <use xlink:href="#m22ea51987f" x="284.821" y="77.60975" style="fill: #4c72b0; stroke: #4c72b0"/>
     </g>
    </g>
    <g id="text_17">
     <!-- Numerical data -->
     <g style="fill: #262626" transform="translate(300.661 80.68975) scale(0.088 -0.088)">
      <use xlink:href="#ArialMT-4e"/>
      <use xlink:href="#ArialMT-75" x="72.216797"/>
      <use xlink:href="#ArialMT-6d" x="127.832031"/>
      <use xlink:href="#ArialMT-65" x="211.132812"/>
      <use xlink:href="#ArialMT-72" x="266.748047"/>
      <use xlink:href="#ArialMT-69" x="300.048828"/>
      <use xlink:href="#ArialMT-63" x="322.265625"/>
      <use xlink:href="#ArialMT-61" x="372.265625"/>
      <use xlink:href="#ArialMT-6c" x="427.880859"/>
      <use xlink:href="#ArialMT-20" x="450.097656"/>
      <use xlink:href="#ArialMT-64" x="477.880859"/>
      <use xlink:href="#ArialMT-61" x="533.496094"/>
      <use xlink:href="#ArialMT-74" x="589.111328"/>
      <use xlink:href="#ArialMT-61" x="616.894531"/>
     </g>
    </g>
    <g id="line2d_19">
     <path d="M 276.021 90.164875 
L 284.821 90.164875 
L 293.621 90.164875 
" style="fill: none; stroke: #55a868; stroke-width: 1.2; stroke-linecap: round"/>
    </g>
    <g id="text_18">
     <!-- Cubic spline interpolation -->
     <g style="fill: #262626" transform="translate(300.661 93.244875) scale(0.088 -0.088)">
      <defs>
       <path id="ArialMT-62" d="M 941 0 
L 419 0 
L 419 4581 
L 981 4581 
L 981 2947 
Q 1338 3394 1891 3394 
Q 2197 3394 2470 3270 
Q 2744 3147 2920 2923 
Q 3097 2700 3197 2384 
Q 3297 2069 3297 1709 
Q 3297 856 2875 390 
Q 2453 -75 1863 -75 
Q 1275 -75 941 416 
L 941 0 
z
M 934 1684 
Q 934 1088 1097 822 
Q 1363 388 1816 388 
Q 2184 388 2453 708 
Q 2722 1028 2722 1663 
Q 2722 2313 2464 2622 
Q 2206 2931 1841 2931 
Q 1472 2931 1203 2611 
Q 934 2291 934 1684 
z
" transform="scale(0.015625)"/>
      </defs>
      <use xlink:href="#ArialMT-43"/>
      <use xlink:href="#ArialMT-75" x="72.216797"/>
      <use xlink:href="#ArialMT-62" x="127.832031"/>
      <use xlink:href="#ArialMT-69" x="183.447266"/>
      <use xlink:href="#ArialMT-63" x="205.664062"/>
      <use xlink:href="#ArialMT-20" x="255.664062"/>
      <use xlink:href="#ArialMT-73" x="283.447266"/>
      <use xlink:href="#ArialMT-70" x="333.447266"/>
      <use xlink:href="#ArialMT-6c" x="389.0625"/>
      <use xlink:href="#ArialMT-69" x="411.279297"/>
      <use xlink:href="#ArialMT-6e" x="433.496094"/>
      <use xlink:href="#ArialMT-65" x="489.111328"/>
      <use xlink:href="#ArialMT-20" x="544.726562"/>
      <use xlink:href="#ArialMT-69" x="572.509766"/>
      <use xlink:href="#ArialMT-6e" x="594.726562"/>
      <use xlink:href="#ArialMT-74" x="650.341797"/>
      <use xlink:href="#ArialMT-65" x="678.125"/>
      <use xlink:href="#ArialMT-72" x="733.740234"/>
      <use xlink:href="#ArialMT-70" x="767.041016"/>
      <use xlink:href="#ArialMT-6f" x="822.65625"/>
      <use xlink:href="#ArialMT-6c" x="878.271484"/>
      <use xlink:href="#ArialMT-61" x="900.488281"/>
      <use xlink:href="#ArialMT-74" x="956.103516"/>
      <use xlink:href="#ArialMT-69" x="983.886719"/>
      <use xlink:href="#ArialMT-6f" x="1006.103516"/>
      <use xlink:href="#ArialMT-6e" x="1061.71875"/>
     </g>
    </g>
   </g>
  </g>
 </g>
 <defs>
  <clipPath id="p877458b74c">
   <rect x="57.6" y="41.472" width="357.12" height="266.112"/>
  </clipPath>
 </defs>
</svg>
