<?xml version="1.0" encoding="utf-8" standalone="no"?>
<!DOCTYPE svg PUBLIC "-//W3C//DTD SVG 1.1//EN"
  "http://www.w3.org/Graphics/SVG/1.1/DTD/svg11.dtd">
<svg xmlns:xlink="http://www.w3.org/1999/xlink" width="460.8pt" height="345.6pt" viewBox="0 0 460.8 345.6" xmlns="http://www.w3.org/2000/svg" version="1.1">
 <metadata>
  <rdf:RDF xmlns:dc="http://purl.org/dc/elements/1.1/" xmlns:cc="http://creativecommons.org/ns#" xmlns:rdf="http://www.w3.org/1999/02/22-rdf-syntax-ns#">
   <cc:Work>
    <dc:type rdf:resource="http://purl.org/dc/dcmitype/StillImage"/>
    <dc:date>2023-08-28T10:24:57.399635</dc:date>
    <dc:format>image/svg+xml</dc:format>
    <dc:creator>
     <cc:Agent>
      <dc:title>Matplotlib v3.7.2, https://matplotlib.org/</dc:title>
     </cc:Agent>
    </dc:creator>
   </cc:Work>
  </rdf:RDF>
 </metadata>
 <defs>
  <style type="text/css">*{stroke-linejoin: round; stroke-linecap: butt}</style>
 </defs>
 <g id="figure_1">
  <g id="patch_1">
   <path d="M 0 345.6 
L 460.8 345.6 
L 460.8 0 
L 0 0 
z
" style="fill: #ffffff"/>
  </g>
  <g id="axes_1">
   <g id="patch_2">
    <path d="M 57.6 307.584 
L 414.72 307.584 
L 414.72 41.472 
L 57.6 41.472 
z
" style="fill: #eaeaf2"/>
   </g>
   <g id="matplotlib.axis_1">
    <g id="xtick_1">
     <g id="line2d_1">
      <path d="M 73.832727 307.584 
L 73.832727 41.472 
" clip-path="url(#p19d60df21b)" style="fill: none; stroke: #ffffff; stroke-linecap: round"/>
     </g>
     <g id="text_1">
      <!-- 0 -->
      <g style="fill: #262626" transform="translate(70.774212 324.957594) scale(0.11 -0.11)">
       <defs>
        <path id="ArialMT-30" d="M 266 2259 
Q 266 3072 433 3567 
Q 600 4063 929 4331 
Q 1259 4600 1759 4600 
Q 2128 4600 2406 4451 
Q 2684 4303 2865 4023 
Q 3047 3744 3150 3342 
Q 3253 2941 3253 2259 
Q 3253 1453 3087 958 
Q 2922 463 2592 192 
Q 2263 -78 1759 -78 
Q 1097 -78 719 397 
Q 266 969 266 2259 
z
M 844 2259 
Q 844 1131 1108 757 
Q 1372 384 1759 384 
Q 2147 384 2411 759 
Q 2675 1134 2675 2259 
Q 2675 3391 2411 3762 
Q 2147 4134 1753 4134 
Q 1366 4134 1134 3806 
Q 844 3388 844 2259 
z
" transform="scale(0.015625)"/>
       </defs>
       <use xlink:href="#ArialMT-30"/>
      </g>
     </g>
    </g>
    <g id="xtick_2">
     <g id="line2d_2">
      <path d="M 107.751859 307.584 
L 107.751859 41.472 
" clip-path="url(#p19d60df21b)" style="fill: none; stroke: #ffffff; stroke-linecap: round"/>
     </g>
     <g id="text_2">
      <!-- 1 -->
      <g style="fill: #262626" transform="translate(104.693343 324.957594) scale(0.11 -0.11)">
       <defs>
        <path id="ArialMT-31" d="M 2384 0 
L 1822 0 
L 1822 3584 
Q 1619 3391 1289 3197 
Q 959 3003 697 2906 
L 697 3450 
Q 1169 3672 1522 3987 
Q 1875 4303 2022 4600 
L 2384 4600 
L 2384 0 
z
" transform="scale(0.015625)"/>
       </defs>
       <use xlink:href="#ArialMT-31"/>
      </g>
     </g>
    </g>
    <g id="xtick_3">
     <g id="line2d_3">
      <path d="M 140.055794 307.584 
L 140.055794 41.472 
" clip-path="url(#p19d60df21b)" style="fill: none; stroke: #ffffff; stroke-linecap: round"/>
     </g>
     <g id="text_3">
      <!-- 21 -->
      <g style="fill: #262626" transform="translate(133.938763 324.957594) scale(0.11 -0.11)">
       <defs>
        <path id="ArialMT-32" d="M 3222 541 
L 3222 0 
L 194 0 
Q 188 203 259 391 
Q 375 700 629 1000 
Q 884 1300 1366 1694 
Q 2113 2306 2375 2664 
Q 2638 3022 2638 3341 
Q 2638 3675 2398 3904 
Q 2159 4134 1775 4134 
Q 1369 4134 1125 3890 
Q 881 3647 878 3216 
L 300 3275 
Q 359 3922 746 4261 
Q 1134 4600 1788 4600 
Q 2447 4600 2831 4234 
Q 3216 3869 3216 3328 
Q 3216 3053 3103 2787 
Q 2991 2522 2730 2228 
Q 2469 1934 1863 1422 
Q 1356 997 1212 845 
Q 1069 694 975 541 
L 3222 541 
z
" transform="scale(0.015625)"/>
       </defs>
       <use xlink:href="#ArialMT-32"/>
       <use xlink:href="#ArialMT-31" x="55.615234"/>
      </g>
     </g>
    </g>
    <g id="xtick_4">
     <g id="line2d_4">
      <path d="M 172.359729 307.584 
L 172.359729 41.472 
" clip-path="url(#p19d60df21b)" style="fill: none; stroke: #ffffff; stroke-linecap: round"/>
     </g>
     <g id="text_4">
      <!-- 41 -->
      <g style="fill: #262626" transform="translate(166.242697 324.957594) scale(0.11 -0.11)">
       <defs>
        <path id="ArialMT-34" d="M 2069 0 
L 2069 1097 
L 81 1097 
L 81 1613 
L 2172 4581 
L 2631 4581 
L 2631 1613 
L 3250 1613 
L 3250 1097 
L 2631 1097 
L 2631 0 
L 2069 0 
z
M 2069 1613 
L 2069 3678 
L 634 1613 
L 2069 1613 
z
" transform="scale(0.015625)"/>
       </defs>
       <use xlink:href="#ArialMT-34"/>
       <use xlink:href="#ArialMT-31" x="55.615234"/>
      </g>
     </g>
    </g>
    <g id="xtick_5">
     <g id="line2d_5">
      <path d="M 204.663664 307.584 
L 204.663664 41.472 
" clip-path="url(#p19d60df21b)" style="fill: none; stroke: #ffffff; stroke-linecap: round"/>
     </g>
     <g id="text_5">
      <!-- 61 -->
      <g style="fill: #262626" transform="translate(198.546632 324.957594) scale(0.11 -0.11)">
       <defs>
        <path id="ArialMT-36" d="M 3184 3459 
L 2625 3416 
Q 2550 3747 2413 3897 
Q 2184 4138 1850 4138 
Q 1581 4138 1378 3988 
Q 1113 3794 959 3422 
Q 806 3050 800 2363 
Q 1003 2672 1297 2822 
Q 1591 2972 1913 2972 
Q 2475 2972 2870 2558 
Q 3266 2144 3266 1488 
Q 3266 1056 3080 686 
Q 2894 316 2569 119 
Q 2244 -78 1831 -78 
Q 1128 -78 684 439 
Q 241 956 241 2144 
Q 241 3472 731 4075 
Q 1159 4600 1884 4600 
Q 2425 4600 2770 4297 
Q 3116 3994 3184 3459 
z
M 888 1484 
Q 888 1194 1011 928 
Q 1134 663 1356 523 
Q 1578 384 1822 384 
Q 2178 384 2434 671 
Q 2691 959 2691 1453 
Q 2691 1928 2437 2201 
Q 2184 2475 1800 2475 
Q 1419 2475 1153 2201 
Q 888 1928 888 1484 
z
" transform="scale(0.015625)"/>
       </defs>
       <use xlink:href="#ArialMT-36"/>
       <use xlink:href="#ArialMT-31" x="55.615234"/>
      </g>
     </g>
    </g>
    <g id="xtick_6">
     <g id="line2d_6">
      <path d="M 236.967598 307.584 
L 236.967598 41.472 
" clip-path="url(#p19d60df21b)" style="fill: none; stroke: #ffffff; stroke-linecap: round"/>
     </g>
     <g id="text_6">
      <!-- 81 -->
      <g style="fill: #262626" transform="translate(230.850567 324.957594) scale(0.11 -0.11)">
       <defs>
        <path id="ArialMT-38" d="M 1131 2484 
Q 781 2613 612 2850 
Q 444 3088 444 3419 
Q 444 3919 803 4259 
Q 1163 4600 1759 4600 
Q 2359 4600 2725 4251 
Q 3091 3903 3091 3403 
Q 3091 3084 2923 2848 
Q 2756 2613 2416 2484 
Q 2838 2347 3058 2040 
Q 3278 1734 3278 1309 
Q 3278 722 2862 322 
Q 2447 -78 1769 -78 
Q 1091 -78 675 323 
Q 259 725 259 1325 
Q 259 1772 486 2073 
Q 713 2375 1131 2484 
z
M 1019 3438 
Q 1019 3113 1228 2906 
Q 1438 2700 1772 2700 
Q 2097 2700 2305 2904 
Q 2513 3109 2513 3406 
Q 2513 3716 2298 3927 
Q 2084 4138 1766 4138 
Q 1444 4138 1231 3931 
Q 1019 3725 1019 3438 
z
M 838 1322 
Q 838 1081 952 856 
Q 1066 631 1291 507 
Q 1516 384 1775 384 
Q 2178 384 2440 643 
Q 2703 903 2703 1303 
Q 2703 1709 2433 1975 
Q 2163 2241 1756 2241 
Q 1359 2241 1098 1978 
Q 838 1716 838 1322 
z
" transform="scale(0.015625)"/>
       </defs>
       <use xlink:href="#ArialMT-38"/>
       <use xlink:href="#ArialMT-31" x="55.615234"/>
      </g>
     </g>
    </g>
    <g id="xtick_7">
     <g id="line2d_7">
      <path d="M 269.271533 307.584 
L 269.271533 41.472 
" clip-path="url(#p19d60df21b)" style="fill: none; stroke: #ffffff; stroke-linecap: round"/>
     </g>
     <g id="text_7">
      <!-- 101 -->
      <g style="fill: #262626" transform="translate(260.095986 324.957594) scale(0.11 -0.11)">
       <use xlink:href="#ArialMT-31"/>
       <use xlink:href="#ArialMT-30" x="55.615234"/>
       <use xlink:href="#ArialMT-31" x="111.230469"/>
      </g>
     </g>
    </g>
    <g id="xtick_8">
     <g id="line2d_8">
      <path d="M 301.575468 307.584 
L 301.575468 41.472 
" clip-path="url(#p19d60df21b)" style="fill: none; stroke: #ffffff; stroke-linecap: round"/>
     </g>
     <g id="text_8">
      <!-- 121 -->
      <g style="fill: #262626" transform="translate(292.399921 324.957594) scale(0.11 -0.11)">
       <use xlink:href="#ArialMT-31"/>
       <use xlink:href="#ArialMT-32" x="55.615234"/>
       <use xlink:href="#ArialMT-31" x="111.230469"/>
      </g>
     </g>
    </g>
    <g id="xtick_9">
     <g id="line2d_9">
      <path d="M 333.879403 307.584 
L 333.879403 41.472 
" clip-path="url(#p19d60df21b)" style="fill: none; stroke: #ffffff; stroke-linecap: round"/>
     </g>
     <g id="text_9">
      <!-- 141 -->
      <g style="fill: #262626" transform="translate(324.703856 324.957594) scale(0.11 -0.11)">
       <use xlink:href="#ArialMT-31"/>
       <use xlink:href="#ArialMT-34" x="55.615234"/>
       <use xlink:href="#ArialMT-31" x="111.230469"/>
      </g>
     </g>
    </g>
    <g id="xtick_10">
     <g id="line2d_10">
      <path d="M 366.183338 307.584 
L 366.183338 41.472 
" clip-path="url(#p19d60df21b)" style="fill: none; stroke: #ffffff; stroke-linecap: round"/>
     </g>
     <g id="text_10">
      <!-- 161 -->
      <g style="fill: #262626" transform="translate(357.007791 324.957594) scale(0.11 -0.11)">
       <use xlink:href="#ArialMT-31"/>
       <use xlink:href="#ArialMT-36" x="55.615234"/>
       <use xlink:href="#ArialMT-31" x="111.230469"/>
      </g>
     </g>
    </g>
    <g id="xtick_11">
     <g id="line2d_11">
      <path d="M 398.487273 307.584 
L 398.487273 41.472 
" clip-path="url(#p19d60df21b)" style="fill: none; stroke: #ffffff; stroke-linecap: round"/>
     </g>
     <g id="text_11">
      <!-- 181 -->
      <g style="fill: #262626" transform="translate(389.311726 324.957594) scale(0.11 -0.11)">
       <use xlink:href="#ArialMT-31"/>
       <use xlink:href="#ArialMT-38" x="55.615234"/>
       <use xlink:href="#ArialMT-31" x="111.230469"/>
      </g>
     </g>
    </g>
    <g id="text_12">
     <!-- Levels of grid -->
     <g style="fill: #262626" transform="translate(200.475937 339.879469) scale(0.12 -0.12)">
      <defs>
       <path id="ArialMT-4c" d="M 469 0 
L 469 4581 
L 1075 4581 
L 1075 541 
L 3331 541 
L 3331 0 
L 469 0 
z
" transform="scale(0.015625)"/>
       <path id="ArialMT-65" d="M 2694 1069 
L 3275 997 
Q 3138 488 2766 206 
Q 2394 -75 1816 -75 
Q 1088 -75 661 373 
Q 234 822 234 1631 
Q 234 2469 665 2931 
Q 1097 3394 1784 3394 
Q 2450 3394 2872 2941 
Q 3294 2488 3294 1666 
Q 3294 1616 3291 1516 
L 816 1516 
Q 847 969 1125 678 
Q 1403 388 1819 388 
Q 2128 388 2347 550 
Q 2566 713 2694 1069 
z
M 847 1978 
L 2700 1978 
Q 2663 2397 2488 2606 
Q 2219 2931 1791 2931 
Q 1403 2931 1139 2672 
Q 875 2413 847 1978 
z
" transform="scale(0.015625)"/>
       <path id="ArialMT-76" d="M 1344 0 
L 81 3319 
L 675 3319 
L 1388 1331 
Q 1503 1009 1600 663 
Q 1675 925 1809 1294 
L 2547 3319 
L 3125 3319 
L 1869 0 
L 1344 0 
z
" transform="scale(0.015625)"/>
       <path id="ArialMT-6c" d="M 409 0 
L 409 4581 
L 972 4581 
L 972 0 
L 409 0 
z
" transform="scale(0.015625)"/>
       <path id="ArialMT-73" d="M 197 991 
L 753 1078 
Q 800 744 1014 566 
Q 1228 388 1613 388 
Q 2000 388 2187 545 
Q 2375 703 2375 916 
Q 2375 1106 2209 1216 
Q 2094 1291 1634 1406 
Q 1016 1563 777 1677 
Q 538 1791 414 1992 
Q 291 2194 291 2438 
Q 291 2659 392 2848 
Q 494 3038 669 3163 
Q 800 3259 1026 3326 
Q 1253 3394 1513 3394 
Q 1903 3394 2198 3281 
Q 2494 3169 2634 2976 
Q 2775 2784 2828 2463 
L 2278 2388 
Q 2241 2644 2061 2787 
Q 1881 2931 1553 2931 
Q 1166 2931 1000 2803 
Q 834 2675 834 2503 
Q 834 2394 903 2306 
Q 972 2216 1119 2156 
Q 1203 2125 1616 2013 
Q 2213 1853 2448 1751 
Q 2684 1650 2818 1456 
Q 2953 1263 2953 975 
Q 2953 694 2789 445 
Q 2625 197 2315 61 
Q 2006 -75 1616 -75 
Q 969 -75 630 194 
Q 291 463 197 991 
z
" transform="scale(0.015625)"/>
       <path id="ArialMT-20" transform="scale(0.015625)"/>
       <path id="ArialMT-6f" d="M 213 1659 
Q 213 2581 725 3025 
Q 1153 3394 1769 3394 
Q 2453 3394 2887 2945 
Q 3322 2497 3322 1706 
Q 3322 1066 3130 698 
Q 2938 331 2570 128 
Q 2203 -75 1769 -75 
Q 1072 -75 642 372 
Q 213 819 213 1659 
z
M 791 1659 
Q 791 1022 1069 705 
Q 1347 388 1769 388 
Q 2188 388 2466 706 
Q 2744 1025 2744 1678 
Q 2744 2294 2464 2611 
Q 2184 2928 1769 2928 
Q 1347 2928 1069 2612 
Q 791 2297 791 1659 
z
" transform="scale(0.015625)"/>
       <path id="ArialMT-66" d="M 556 0 
L 556 2881 
L 59 2881 
L 59 3319 
L 556 3319 
L 556 3672 
Q 556 4006 616 4169 
Q 697 4388 901 4523 
Q 1106 4659 1475 4659 
Q 1713 4659 2000 4603 
L 1916 4113 
Q 1741 4144 1584 4144 
Q 1328 4144 1222 4034 
Q 1116 3925 1116 3625 
L 1116 3319 
L 1763 3319 
L 1763 2881 
L 1116 2881 
L 1116 0 
L 556 0 
z
" transform="scale(0.015625)"/>
       <path id="ArialMT-67" d="M 319 -275 
L 866 -356 
Q 900 -609 1056 -725 
Q 1266 -881 1628 -881 
Q 2019 -881 2231 -725 
Q 2444 -569 2519 -288 
Q 2563 -116 2559 434 
Q 2191 0 1641 0 
Q 956 0 581 494 
Q 206 988 206 1678 
Q 206 2153 378 2554 
Q 550 2956 876 3175 
Q 1203 3394 1644 3394 
Q 2231 3394 2613 2919 
L 2613 3319 
L 3131 3319 
L 3131 450 
Q 3131 -325 2973 -648 
Q 2816 -972 2473 -1159 
Q 2131 -1347 1631 -1347 
Q 1038 -1347 672 -1080 
Q 306 -813 319 -275 
z
M 784 1719 
Q 784 1066 1043 766 
Q 1303 466 1694 466 
Q 2081 466 2343 764 
Q 2606 1063 2606 1700 
Q 2606 2309 2336 2618 
Q 2066 2928 1684 2928 
Q 1309 2928 1046 2623 
Q 784 2319 784 1719 
z
" transform="scale(0.015625)"/>
       <path id="ArialMT-72" d="M 416 0 
L 416 3319 
L 922 3319 
L 922 2816 
Q 1116 3169 1280 3281 
Q 1444 3394 1641 3394 
Q 1925 3394 2219 3213 
L 2025 2691 
Q 1819 2813 1613 2813 
Q 1428 2813 1281 2702 
Q 1134 2591 1072 2394 
Q 978 2094 978 1738 
L 978 0 
L 416 0 
z
" transform="scale(0.015625)"/>
       <path id="ArialMT-69" d="M 425 3934 
L 425 4581 
L 988 4581 
L 988 3934 
L 425 3934 
z
M 425 0 
L 425 3319 
L 988 3319 
L 988 0 
L 425 0 
z
" transform="scale(0.015625)"/>
       <path id="ArialMT-64" d="M 2575 0 
L 2575 419 
Q 2259 -75 1647 -75 
Q 1250 -75 917 144 
Q 584 363 401 755 
Q 219 1147 219 1656 
Q 219 2153 384 2558 
Q 550 2963 881 3178 
Q 1213 3394 1622 3394 
Q 1922 3394 2156 3267 
Q 2391 3141 2538 2938 
L 2538 4581 
L 3097 4581 
L 3097 0 
L 2575 0 
z
M 797 1656 
Q 797 1019 1065 703 
Q 1334 388 1700 388 
Q 2069 388 2326 689 
Q 2584 991 2584 1609 
Q 2584 2291 2321 2609 
Q 2059 2928 1675 2928 
Q 1300 2928 1048 2622 
Q 797 2316 797 1656 
z
" transform="scale(0.015625)"/>
      </defs>
      <use xlink:href="#ArialMT-4c"/>
      <use xlink:href="#ArialMT-65" x="55.615234"/>
      <use xlink:href="#ArialMT-76" x="111.230469"/>
      <use xlink:href="#ArialMT-65" x="161.230469"/>
      <use xlink:href="#ArialMT-6c" x="216.845703"/>
      <use xlink:href="#ArialMT-73" x="239.0625"/>
      <use xlink:href="#ArialMT-20" x="289.0625"/>
      <use xlink:href="#ArialMT-6f" x="316.845703"/>
      <use xlink:href="#ArialMT-66" x="372.460938"/>
      <use xlink:href="#ArialMT-20" x="400.244141"/>
      <use xlink:href="#ArialMT-67" x="428.027344"/>
      <use xlink:href="#ArialMT-72" x="483.642578"/>
      <use xlink:href="#ArialMT-69" x="516.943359"/>
      <use xlink:href="#ArialMT-64" x="539.160156"/>
     </g>
    </g>
   </g>
   <g id="matplotlib.axis_2">
    <g id="ytick_1">
     <g id="line2d_12">
      <path d="M 57.6 295.489028 
L 414.72 295.489028 
" clip-path="url(#p19d60df21b)" style="fill: none; stroke: #ffffff; stroke-linecap: round"/>
     </g>
     <g id="text_13">
      <!-- 0.0 -->
      <g style="fill: #262626" transform="translate(32.81 299.425825) scale(0.11 -0.11)">
       <defs>
        <path id="ArialMT-2e" d="M 581 0 
L 581 641 
L 1222 641 
L 1222 0 
L 581 0 
z
" transform="scale(0.015625)"/>
       </defs>
       <use xlink:href="#ArialMT-30"/>
       <use xlink:href="#ArialMT-2e" x="55.615234"/>
       <use xlink:href="#ArialMT-30" x="83.398438"/>
      </g>
     </g>
    </g>
    <g id="ytick_2">
     <g id="line2d_13">
      <path d="M 57.6 258.707056 
L 414.72 258.707056 
" clip-path="url(#p19d60df21b)" style="fill: none; stroke: #ffffff; stroke-linecap: round"/>
     </g>
     <g id="text_14">
      <!-- 0.1 -->
      <g style="fill: #262626" transform="translate(32.81 262.643853) scale(0.11 -0.11)">
       <use xlink:href="#ArialMT-30"/>
       <use xlink:href="#ArialMT-2e" x="55.615234"/>
       <use xlink:href="#ArialMT-31" x="83.398438"/>
      </g>
     </g>
    </g>
    <g id="ytick_3">
     <g id="line2d_14">
      <path d="M 57.6 221.925084 
L 414.72 221.925084 
" clip-path="url(#p19d60df21b)" style="fill: none; stroke: #ffffff; stroke-linecap: round"/>
     </g>
     <g id="text_15">
      <!-- 0.2 -->
      <g style="fill: #262626" transform="translate(32.81 225.86188) scale(0.11 -0.11)">
       <use xlink:href="#ArialMT-30"/>
       <use xlink:href="#ArialMT-2e" x="55.615234"/>
       <use xlink:href="#ArialMT-32" x="83.398438"/>
      </g>
     </g>
    </g>
    <g id="ytick_4">
     <g id="line2d_15">
      <path d="M 57.6 185.143111 
L 414.72 185.143111 
" clip-path="url(#p19d60df21b)" style="fill: none; stroke: #ffffff; stroke-linecap: round"/>
     </g>
     <g id="text_16">
      <!-- 0.3 -->
      <g style="fill: #262626" transform="translate(32.81 189.079908) scale(0.11 -0.11)">
       <defs>
        <path id="ArialMT-33" d="M 269 1209 
L 831 1284 
Q 928 806 1161 595 
Q 1394 384 1728 384 
Q 2125 384 2398 659 
Q 2672 934 2672 1341 
Q 2672 1728 2419 1979 
Q 2166 2231 1775 2231 
Q 1616 2231 1378 2169 
L 1441 2663 
Q 1497 2656 1531 2656 
Q 1891 2656 2178 2843 
Q 2466 3031 2466 3422 
Q 2466 3731 2256 3934 
Q 2047 4138 1716 4138 
Q 1388 4138 1169 3931 
Q 950 3725 888 3313 
L 325 3413 
Q 428 3978 793 4289 
Q 1159 4600 1703 4600 
Q 2078 4600 2393 4439 
Q 2709 4278 2876 4000 
Q 3044 3722 3044 3409 
Q 3044 3113 2884 2869 
Q 2725 2625 2413 2481 
Q 2819 2388 3044 2092 
Q 3269 1797 3269 1353 
Q 3269 753 2831 336 
Q 2394 -81 1725 -81 
Q 1122 -81 723 278 
Q 325 638 269 1209 
z
" transform="scale(0.015625)"/>
       </defs>
       <use xlink:href="#ArialMT-30"/>
       <use xlink:href="#ArialMT-2e" x="55.615234"/>
       <use xlink:href="#ArialMT-33" x="83.398438"/>
      </g>
     </g>
    </g>
    <g id="ytick_5">
     <g id="line2d_16">
      <path d="M 57.6 148.361139 
L 414.72 148.361139 
" clip-path="url(#p19d60df21b)" style="fill: none; stroke: #ffffff; stroke-linecap: round"/>
     </g>
     <g id="text_17">
      <!-- 0.4 -->
      <g style="fill: #262626" transform="translate(32.81 152.297936) scale(0.11 -0.11)">
       <use xlink:href="#ArialMT-30"/>
       <use xlink:href="#ArialMT-2e" x="55.615234"/>
       <use xlink:href="#ArialMT-34" x="83.398438"/>
      </g>
     </g>
    </g>
    <g id="ytick_6">
     <g id="line2d_17">
      <path d="M 57.6 111.579167 
L 414.72 111.579167 
" clip-path="url(#p19d60df21b)" style="fill: none; stroke: #ffffff; stroke-linecap: round"/>
     </g>
     <g id="text_18">
      <!-- 0.5 -->
      <g style="fill: #262626" transform="translate(32.81 115.515964) scale(0.11 -0.11)">
       <defs>
        <path id="ArialMT-35" d="M 266 1200 
L 856 1250 
Q 922 819 1161 601 
Q 1400 384 1738 384 
Q 2144 384 2425 690 
Q 2706 997 2706 1503 
Q 2706 1984 2436 2262 
Q 2166 2541 1728 2541 
Q 1456 2541 1237 2417 
Q 1019 2294 894 2097 
L 366 2166 
L 809 4519 
L 3088 4519 
L 3088 3981 
L 1259 3981 
L 1013 2750 
Q 1425 3038 1878 3038 
Q 2478 3038 2890 2622 
Q 3303 2206 3303 1553 
Q 3303 931 2941 478 
Q 2500 -78 1738 -78 
Q 1113 -78 717 272 
Q 322 622 266 1200 
z
" transform="scale(0.015625)"/>
       </defs>
       <use xlink:href="#ArialMT-30"/>
       <use xlink:href="#ArialMT-2e" x="55.615234"/>
       <use xlink:href="#ArialMT-35" x="83.398438"/>
      </g>
     </g>
    </g>
    <g id="ytick_7">
     <g id="line2d_18">
      <path d="M 57.6 74.797195 
L 414.72 74.797195 
" clip-path="url(#p19d60df21b)" style="fill: none; stroke: #ffffff; stroke-linecap: round"/>
     </g>
     <g id="text_19">
      <!-- 0.6 -->
      <g style="fill: #262626" transform="translate(32.81 78.733992) scale(0.11 -0.11)">
       <use xlink:href="#ArialMT-30"/>
       <use xlink:href="#ArialMT-2e" x="55.615234"/>
       <use xlink:href="#ArialMT-36" x="83.398438"/>
      </g>
     </g>
    </g>
    <g id="text_20">
     <!-- Normalized Error -->
     <g style="fill: #262626" transform="translate(26.425 219.868313) rotate(-90) scale(0.12 -0.12)">
      <defs>
       <path id="ArialMT-4e" d="M 488 0 
L 488 4581 
L 1109 4581 
L 3516 984 
L 3516 4581 
L 4097 4581 
L 4097 0 
L 3475 0 
L 1069 3600 
L 1069 0 
L 488 0 
z
" transform="scale(0.015625)"/>
       <path id="ArialMT-6d" d="M 422 0 
L 422 3319 
L 925 3319 
L 925 2853 
Q 1081 3097 1340 3245 
Q 1600 3394 1931 3394 
Q 2300 3394 2536 3241 
Q 2772 3088 2869 2813 
Q 3263 3394 3894 3394 
Q 4388 3394 4653 3120 
Q 4919 2847 4919 2278 
L 4919 0 
L 4359 0 
L 4359 2091 
Q 4359 2428 4304 2576 
Q 4250 2725 4106 2815 
Q 3963 2906 3769 2906 
Q 3419 2906 3187 2673 
Q 2956 2441 2956 1928 
L 2956 0 
L 2394 0 
L 2394 2156 
Q 2394 2531 2256 2718 
Q 2119 2906 1806 2906 
Q 1569 2906 1367 2781 
Q 1166 2656 1075 2415 
Q 984 2175 984 1722 
L 984 0 
L 422 0 
z
" transform="scale(0.015625)"/>
       <path id="ArialMT-61" d="M 2588 409 
Q 2275 144 1986 34 
Q 1697 -75 1366 -75 
Q 819 -75 525 192 
Q 231 459 231 875 
Q 231 1119 342 1320 
Q 453 1522 633 1644 
Q 813 1766 1038 1828 
Q 1203 1872 1538 1913 
Q 2219 1994 2541 2106 
Q 2544 2222 2544 2253 
Q 2544 2597 2384 2738 
Q 2169 2928 1744 2928 
Q 1347 2928 1158 2789 
Q 969 2650 878 2297 
L 328 2372 
Q 403 2725 575 2942 
Q 747 3159 1072 3276 
Q 1397 3394 1825 3394 
Q 2250 3394 2515 3294 
Q 2781 3194 2906 3042 
Q 3031 2891 3081 2659 
Q 3109 2516 3109 2141 
L 3109 1391 
Q 3109 606 3145 398 
Q 3181 191 3288 0 
L 2700 0 
Q 2613 175 2588 409 
z
M 2541 1666 
Q 2234 1541 1622 1453 
Q 1275 1403 1131 1340 
Q 988 1278 909 1158 
Q 831 1038 831 891 
Q 831 666 1001 516 
Q 1172 366 1500 366 
Q 1825 366 2078 508 
Q 2331 650 2450 897 
Q 2541 1088 2541 1459 
L 2541 1666 
z
" transform="scale(0.015625)"/>
       <path id="ArialMT-7a" d="M 125 0 
L 125 456 
L 2238 2881 
Q 1878 2863 1603 2863 
L 250 2863 
L 250 3319 
L 2963 3319 
L 2963 2947 
L 1166 841 
L 819 456 
Q 1197 484 1528 484 
L 3063 484 
L 3063 0 
L 125 0 
z
" transform="scale(0.015625)"/>
       <path id="ArialMT-45" d="M 506 0 
L 506 4581 
L 3819 4581 
L 3819 4041 
L 1113 4041 
L 1113 2638 
L 3647 2638 
L 3647 2100 
L 1113 2100 
L 1113 541 
L 3925 541 
L 3925 0 
L 506 0 
z
" transform="scale(0.015625)"/>
      </defs>
      <use xlink:href="#ArialMT-4e"/>
      <use xlink:href="#ArialMT-6f" x="72.216797"/>
      <use xlink:href="#ArialMT-72" x="127.832031"/>
      <use xlink:href="#ArialMT-6d" x="161.132812"/>
      <use xlink:href="#ArialMT-61" x="244.433594"/>
      <use xlink:href="#ArialMT-6c" x="300.048828"/>
      <use xlink:href="#ArialMT-69" x="322.265625"/>
      <use xlink:href="#ArialMT-7a" x="344.482422"/>
      <use xlink:href="#ArialMT-65" x="394.482422"/>
      <use xlink:href="#ArialMT-64" x="450.097656"/>
      <use xlink:href="#ArialMT-20" x="505.712891"/>
      <use xlink:href="#ArialMT-45" x="533.496094"/>
      <use xlink:href="#ArialMT-72" x="600.195312"/>
      <use xlink:href="#ArialMT-72" x="633.496094"/>
      <use xlink:href="#ArialMT-6f" x="666.796875"/>
      <use xlink:href="#ArialMT-72" x="722.412109"/>
     </g>
    </g>
   </g>
   <g id="PolyCollection_1">
    <defs>
     <path id="mc2ea961911" d="M 73.832727 -50.11502 
L 73.832727 -50.113478 
L 107.751859 -50.113469 
L 140.055794 -51.167208 
L 172.359729 -54.221246 
L 204.663664 -59.468602 
L 236.967598 -66.377001 
L 269.271533 -80.83113 
L 301.575468 -87.145809 
L 333.879403 -99.911642 
L 366.183338 -114.363905 
L 398.487273 -156.987127 
L 398.487273 -281.332951 
L 398.487273 -281.332951 
L 366.183338 -183.129904 
L 333.879403 -137.401262 
L 301.575468 -133.673808 
L 269.271533 -113.978737 
L 236.967598 -86.862472 
L 204.663664 -69.887008 
L 172.359729 -56.957752 
L 140.055794 -51.698273 
L 107.751859 -50.115065 
L 73.832727 -50.11502 
z
" style="stroke: #4c72b0; stroke-opacity: 0.2"/>
    </defs>
    <g clip-path="url(#p19d60df21b)">
     <use xlink:href="#mc2ea961911" x="0" y="345.6" style="fill: #4c72b0; fill-opacity: 0.2; stroke: #4c72b0; stroke-opacity: 0.2"/>
    </g>
   </g>
   <g id="PolyCollection_2">
    <defs>
     <path id="m7c187d9cf1" d="M 73.832727 -50.115061 
L 73.832727 -50.113475 
L 107.751859 -50.113475 
L 140.055794 -51.162309 
L 172.359729 -54.20608 
L 204.663664 -59.486034 
L 236.967598 -66.82387 
L 269.271533 -80.992723 
L 301.575468 -88.87952 
L 333.879403 -99.929131 
L 366.183338 -113.387773 
L 398.487273 -154.796487 
L 398.487273 -292.032 
L 398.487273 -292.032 
L 366.183338 -185.821666 
L 333.879403 -134.469571 
L 301.575468 -131.708882 
L 269.271533 -114.9494 
L 236.967598 -86.629978 
L 204.663664 -68.870747 
L 172.359729 -57.05967 
L 140.055794 -51.673518 
L 107.751859 -50.115149 
L 73.832727 -50.115061 
z
" style="stroke: #dd8452; stroke-opacity: 0.2"/>
    </defs>
    <g clip-path="url(#p19d60df21b)">
     <use xlink:href="#m7c187d9cf1" x="0" y="345.6" style="fill: #dd8452; fill-opacity: 0.2; stroke: #dd8452; stroke-opacity: 0.2"/>
    </g>
   </g>
   <g id="PolyCollection_3">
    <defs>
     <path id="m2547140210" d="M 73.832727 -50.193727 
L 73.832727 -50.161494 
L 107.751859 -50.163826 
L 140.055794 -50.855448 
L 172.359729 -52.157924 
L 204.663664 -54.609368 
L 236.967598 -57.964533 
L 269.271533 -64.509646 
L 301.575468 -67.442716 
L 333.879403 -74.347328 
L 366.183338 -85.264556 
L 398.487273 -117.798561 
L 398.487273 -163.309544 
L 398.487273 -163.309544 
L 366.183338 -110.552237 
L 333.879403 -88.037205 
L 301.575468 -86.684955 
L 269.271533 -81.742402 
L 236.967598 -67.550542 
L 204.663664 -60.410426 
L 172.359729 -54.183608 
L 140.055794 -51.338478 
L 107.751859 -50.193693 
L 73.832727 -50.193727 
z
" style="stroke: #55a868; stroke-opacity: 0.2"/>
    </defs>
    <g clip-path="url(#p19d60df21b)">
     <use xlink:href="#m2547140210" x="0" y="345.6" style="fill: #55a868; fill-opacity: 0.2; stroke: #55a868; stroke-opacity: 0.2"/>
    </g>
   </g>
   <g id="PolyCollection_4">
    <defs>
     <path id="m291f4e8f91" d="M 73.832727 -50.113072 
L 73.832727 -50.112084 
L 107.751859 -50.11212 
L 140.055794 -50.61309 
L 172.359729 -52.09668 
L 204.663664 -54.751053 
L 236.967598 -58.84458 
L 269.271533 -66.303124 
L 301.575468 -70.490952 
L 333.879403 -78.855021 
L 366.183338 -90.112839 
L 398.487273 -124.743058 
L 398.487273 -207.671764 
L 398.487273 -207.671764 
L 366.183338 -141.875811 
L 333.879403 -101.207403 
L 301.575468 -101.303328 
L 269.271533 -92.700289 
L 236.967598 -71.418408 
L 204.663664 -60.888665 
L 172.359729 -53.925958 
L 140.055794 -50.971953 
L 107.751859 -50.113042 
L 73.832727 -50.113072 
z
" style="stroke: #c44e52; stroke-opacity: 0.2"/>
    </defs>
    <g clip-path="url(#p19d60df21b)">
     <use xlink:href="#m291f4e8f91" x="0" y="345.6" style="fill: #c44e52; fill-opacity: 0.2; stroke: #c44e52; stroke-opacity: 0.2"/>
    </g>
   </g>
   <g id="PolyCollection_5">
    <defs>
     <path id="me365916346" d="M 73.832727 -50.113413 
L 73.832727 -50.112011 
L 107.751859 -50.112 
L 140.055794 -50.576483 
L 172.359729 -52.118299 
L 204.663664 -55.047241 
L 236.967598 -58.980284 
L 269.271533 -68.50726 
L 301.575468 -72.912081 
L 333.879403 -82.130476 
L 366.183338 -99.638096 
L 398.487273 -147.298642 
L 398.487273 -271.939564 
L 398.487273 -271.939564 
L 366.183338 -168.633863 
L 333.879403 -114.208762 
L 301.575468 -115.181931 
L 269.271533 -100.910397 
L 236.967598 -78.125863 
L 204.663664 -64.215399 
L 172.359729 -54.619376 
L 140.055794 -51.001618 
L 107.751859 -50.11337 
L 73.832727 -50.113413 
z
" style="stroke: #8172b3; stroke-opacity: 0.2"/>
    </defs>
    <g clip-path="url(#p19d60df21b)">
     <use xlink:href="#me365916346" x="0" y="345.6" style="fill: #8172b3; fill-opacity: 0.2; stroke: #8172b3; stroke-opacity: 0.2"/>
    </g>
   </g>
   <g id="PolyCollection_6">
    <defs>
     <path id="m7b4a56bafc" d="M 73.832727 -50.113381 
L 73.832727 -50.112076 
L 107.751859 -50.112023 
L 140.055794 -50.573191 
L 172.359729 -52.105969 
L 204.663664 -54.796369 
L 236.967598 -59.097406 
L 269.271533 -68.609307 
L 301.575468 -72.62311 
L 333.879403 -81.806746 
L 366.183338 -99.98177 
L 398.487273 -147.552679 
L 398.487273 -276.780623 
L 398.487273 -276.780623 
L 366.183338 -166.754804 
L 333.879403 -114.518041 
L 301.575468 -116.353033 
L 269.271533 -101.564524 
L 236.967598 -77.711681 
L 204.663664 -65.215212 
L 172.359729 -54.437141 
L 140.055794 -50.995061 
L 107.751859 -50.113402 
L 73.832727 -50.113381 
z
" style="stroke: #937860; stroke-opacity: 0.2"/>
    </defs>
    <g clip-path="url(#p19d60df21b)">
     <use xlink:href="#m7b4a56bafc" x="0" y="345.6" style="fill: #937860; fill-opacity: 0.2; stroke: #937860; stroke-opacity: 0.2"/>
    </g>
   </g>
   <g id="line2d_19">
    <path d="M 73.832727 295.485795 
L 107.751859 295.485795 
L 140.055794 294.195325 
L 172.359729 290.148393 
L 204.663664 281.944408 
L 236.967598 270.488307 
L 269.271533 250.082975 
L 301.575468 239.45624 
L 333.879403 228.983754 
L 366.183338 201.976061 
L 398.487273 136.243075 
" clip-path="url(#p19d60df21b)" style="fill: none; stroke: #4c72b0; stroke-width: 1.5; stroke-linecap: round"/>
    <defs>
     <path id="mf740f46f9f" d="M 0 5 
C 1.326016 5 2.597899 4.473168 3.535534 3.535534 
C 4.473168 2.597899 5 1.326016 5 0 
C 5 -1.326016 4.473168 -2.597899 3.535534 -3.535534 
C 2.597899 -4.473168 1.326016 -5 0 -5 
C -1.326016 -5 -2.597899 -4.473168 -3.535534 -3.535534 
C -4.473168 -2.597899 -5 -1.326016 -5 0 
C -5 1.326016 -4.473168 2.597899 -3.535534 3.535534 
C -2.597899 4.473168 -1.326016 5 0 5 
z
" style="stroke: #ffffff; stroke-width: 0.75"/>
    </defs>
    <g clip-path="url(#p19d60df21b)">
     <use xlink:href="#mf740f46f9f" x="73.832727" y="295.485795" style="fill: #4c72b0; stroke: #ffffff; stroke-width: 0.75"/>
     <use xlink:href="#mf740f46f9f" x="107.751859" y="295.485795" style="fill: #4c72b0; stroke: #ffffff; stroke-width: 0.75"/>
     <use xlink:href="#mf740f46f9f" x="140.055794" y="294.195325" style="fill: #4c72b0; stroke: #ffffff; stroke-width: 0.75"/>
     <use xlink:href="#mf740f46f9f" x="172.359729" y="290.148393" style="fill: #4c72b0; stroke: #ffffff; stroke-width: 0.75"/>
     <use xlink:href="#mf740f46f9f" x="204.663664" y="281.944408" style="fill: #4c72b0; stroke: #ffffff; stroke-width: 0.75"/>
     <use xlink:href="#mf740f46f9f" x="236.967598" y="270.488307" style="fill: #4c72b0; stroke: #ffffff; stroke-width: 0.75"/>
     <use xlink:href="#mf740f46f9f" x="269.271533" y="250.082975" style="fill: #4c72b0; stroke: #ffffff; stroke-width: 0.75"/>
     <use xlink:href="#mf740f46f9f" x="301.575468" y="239.45624" style="fill: #4c72b0; stroke: #ffffff; stroke-width: 0.75"/>
     <use xlink:href="#mf740f46f9f" x="333.879403" y="228.983754" style="fill: #4c72b0; stroke: #ffffff; stroke-width: 0.75"/>
     <use xlink:href="#mf740f46f9f" x="366.183338" y="201.976061" style="fill: #4c72b0; stroke: #ffffff; stroke-width: 0.75"/>
     <use xlink:href="#mf740f46f9f" x="398.487273" y="136.243075" style="fill: #4c72b0; stroke: #ffffff; stroke-width: 0.75"/>
    </g>
   </g>
   <g id="line2d_20">
    <path d="M 73.832727 295.485795 
L 107.751859 295.485795 
L 140.055794 294.195325 
L 172.359729 290.148393 
L 204.663664 281.944408 
L 236.967598 270.488307 
L 269.271533 250.082975 
L 301.575468 239.45624 
L 333.879403 228.983754 
L 366.183338 201.976061 
L 398.487273 136.243075 
" clip-path="url(#p19d60df21b)" style="fill: none; stroke: #dd8452; stroke-width: 1.5; stroke-linecap: round"/>
    <defs>
     <path id="m9ae35e6c8f" d="M -2.5 5 
L 0 2.5 
L 2.5 5 
L 5 2.5 
L 2.5 0 
L 5 -2.5 
L 2.5 -5 
L 0 -2.5 
L -2.5 -5 
L -5 -2.5 
L -2.5 0 
L -5 2.5 
z
" style="stroke: #ffffff; stroke-width: 0.75; stroke-linejoin: miter"/>
    </defs>
    <g clip-path="url(#p19d60df21b)">
     <use xlink:href="#m9ae35e6c8f" x="73.832727" y="295.485795" style="fill: #dd8452; stroke: #ffffff; stroke-width: 0.75; stroke-linejoin: miter"/>
     <use xlink:href="#m9ae35e6c8f" x="107.751859" y="295.485795" style="fill: #dd8452; stroke: #ffffff; stroke-width: 0.75; stroke-linejoin: miter"/>
     <use xlink:href="#m9ae35e6c8f" x="140.055794" y="294.195325" style="fill: #dd8452; stroke: #ffffff; stroke-width: 0.75; stroke-linejoin: miter"/>
     <use xlink:href="#m9ae35e6c8f" x="172.359729" y="290.148393" style="fill: #dd8452; stroke: #ffffff; stroke-width: 0.75; stroke-linejoin: miter"/>
     <use xlink:href="#m9ae35e6c8f" x="204.663664" y="281.944408" style="fill: #dd8452; stroke: #ffffff; stroke-width: 0.75; stroke-linejoin: miter"/>
     <use xlink:href="#m9ae35e6c8f" x="236.967598" y="270.488307" style="fill: #dd8452; stroke: #ffffff; stroke-width: 0.75; stroke-linejoin: miter"/>
     <use xlink:href="#m9ae35e6c8f" x="269.271533" y="250.082975" style="fill: #dd8452; stroke: #ffffff; stroke-width: 0.75; stroke-linejoin: miter"/>
     <use xlink:href="#m9ae35e6c8f" x="301.575468" y="239.45624" style="fill: #dd8452; stroke: #ffffff; stroke-width: 0.75; stroke-linejoin: miter"/>
     <use xlink:href="#m9ae35e6c8f" x="333.879403" y="228.983754" style="fill: #dd8452; stroke: #ffffff; stroke-width: 0.75; stroke-linejoin: miter"/>
     <use xlink:href="#m9ae35e6c8f" x="366.183338" y="201.976061" style="fill: #dd8452; stroke: #ffffff; stroke-width: 0.75; stroke-linejoin: miter"/>
     <use xlink:href="#m9ae35e6c8f" x="398.487273" y="136.243075" style="fill: #dd8452; stroke: #ffffff; stroke-width: 0.75; stroke-linejoin: miter"/>
    </g>
   </g>
   <g id="line2d_21">
    <path d="M 73.832727 295.423299 
L 107.751859 295.423299 
L 140.055794 294.523561 
L 172.359729 292.504245 
L 204.663664 288.523163 
L 236.967598 283.502321 
L 269.271533 274.140925 
L 301.575468 270.228054 
L 333.879403 264.818317 
L 366.183338 249.85636 
L 398.487273 208.884524 
" clip-path="url(#p19d60df21b)" style="fill: none; stroke: #55a868; stroke-width: 1.5; stroke-linecap: round"/>
    <defs>
     <path id="m50c47ab433" d="M -3.535534 -3.535534 
L -3.535534 3.535534 
L 3.535534 3.535534 
L 3.535534 -3.535534 
z
" style="stroke: #ffffff; stroke-width: 0.75; stroke-linejoin: miter"/>
    </defs>
    <g clip-path="url(#p19d60df21b)">
     <use xlink:href="#m50c47ab433" x="73.832727" y="295.423299" style="fill: #55a868; stroke: #ffffff; stroke-width: 0.75; stroke-linejoin: miter"/>
     <use xlink:href="#m50c47ab433" x="107.751859" y="295.423299" style="fill: #55a868; stroke: #ffffff; stroke-width: 0.75; stroke-linejoin: miter"/>
     <use xlink:href="#m50c47ab433" x="140.055794" y="294.523561" style="fill: #55a868; stroke: #ffffff; stroke-width: 0.75; stroke-linejoin: miter"/>
     <use xlink:href="#m50c47ab433" x="172.359729" y="292.504245" style="fill: #55a868; stroke: #ffffff; stroke-width: 0.75; stroke-linejoin: miter"/>
     <use xlink:href="#m50c47ab433" x="204.663664" y="288.523163" style="fill: #55a868; stroke: #ffffff; stroke-width: 0.75; stroke-linejoin: miter"/>
     <use xlink:href="#m50c47ab433" x="236.967598" y="283.502321" style="fill: #55a868; stroke: #ffffff; stroke-width: 0.75; stroke-linejoin: miter"/>
     <use xlink:href="#m50c47ab433" x="269.271533" y="274.140925" style="fill: #55a868; stroke: #ffffff; stroke-width: 0.75; stroke-linejoin: miter"/>
     <use xlink:href="#m50c47ab433" x="301.575468" y="270.228054" style="fill: #55a868; stroke: #ffffff; stroke-width: 0.75; stroke-linejoin: miter"/>
     <use xlink:href="#m50c47ab433" x="333.879403" y="264.818317" style="fill: #55a868; stroke: #ffffff; stroke-width: 0.75; stroke-linejoin: miter"/>
     <use xlink:href="#m50c47ab433" x="366.183338" y="249.85636" style="fill: #55a868; stroke: #ffffff; stroke-width: 0.75; stroke-linejoin: miter"/>
     <use xlink:href="#m50c47ab433" x="398.487273" y="208.884524" style="fill: #55a868; stroke: #ffffff; stroke-width: 0.75; stroke-linejoin: miter"/>
    </g>
   </g>
   <g id="line2d_22">
    <path d="M 73.832727 295.487458 
L 107.751859 295.487458 
L 140.055794 294.820601 
L 172.359729 292.716351 
L 204.663664 288.292012 
L 236.967598 281.759625 
L 269.271533 268.614447 
L 301.575468 262.769251 
L 333.879403 257.212746 
L 366.183338 234.033788 
L 398.487273 186.320648 
" clip-path="url(#p19d60df21b)" style="fill: none; stroke: #c44e52; stroke-width: 1.5; stroke-linecap: round"/>
    <defs>
     <path id="m54cd794ec8" d="M -1.666667 5 
L 1.666667 5 
L 1.666667 1.666667 
L 5 1.666667 
L 5 -1.666667 
L 1.666667 -1.666667 
L 1.666667 -5 
L -1.666667 -5 
L -1.666667 -1.666667 
L -5 -1.666667 
L -5 1.666667 
L -1.666667 1.666667 
z
" style="stroke: #ffffff; stroke-width: 0.75; stroke-linejoin: miter"/>
    </defs>
    <g clip-path="url(#p19d60df21b)">
     <use xlink:href="#m54cd794ec8" x="73.832727" y="295.487458" style="fill: #c44e52; stroke: #ffffff; stroke-width: 0.75; stroke-linejoin: miter"/>
     <use xlink:href="#m54cd794ec8" x="107.751859" y="295.487458" style="fill: #c44e52; stroke: #ffffff; stroke-width: 0.75; stroke-linejoin: miter"/>
     <use xlink:href="#m54cd794ec8" x="140.055794" y="294.820601" style="fill: #c44e52; stroke: #ffffff; stroke-width: 0.75; stroke-linejoin: miter"/>
     <use xlink:href="#m54cd794ec8" x="172.359729" y="292.716351" style="fill: #c44e52; stroke: #ffffff; stroke-width: 0.75; stroke-linejoin: miter"/>
     <use xlink:href="#m54cd794ec8" x="204.663664" y="288.292012" style="fill: #c44e52; stroke: #ffffff; stroke-width: 0.75; stroke-linejoin: miter"/>
     <use xlink:href="#m54cd794ec8" x="236.967598" y="281.759625" style="fill: #c44e52; stroke: #ffffff; stroke-width: 0.75; stroke-linejoin: miter"/>
     <use xlink:href="#m54cd794ec8" x="269.271533" y="268.614447" style="fill: #c44e52; stroke: #ffffff; stroke-width: 0.75; stroke-linejoin: miter"/>
     <use xlink:href="#m54cd794ec8" x="301.575468" y="262.769251" style="fill: #c44e52; stroke: #ffffff; stroke-width: 0.75; stroke-linejoin: miter"/>
     <use xlink:href="#m54cd794ec8" x="333.879403" y="257.212746" style="fill: #c44e52; stroke: #ffffff; stroke-width: 0.75; stroke-linejoin: miter"/>
     <use xlink:href="#m54cd794ec8" x="366.183338" y="234.033788" style="fill: #c44e52; stroke: #ffffff; stroke-width: 0.75; stroke-linejoin: miter"/>
     <use xlink:href="#m54cd794ec8" x="398.487273" y="186.320648" style="fill: #c44e52; stroke: #ffffff; stroke-width: 0.75; stroke-linejoin: miter"/>
    </g>
   </g>
   <g id="line2d_23">
    <path d="M 73.832727 295.487363 
L 107.751859 295.487363 
L 140.055794 294.826382 
L 172.359729 292.473883 
L 204.663664 286.931582 
L 236.967598 278.886874 
L 269.271533 263.753581 
L 301.575468 255.136688 
L 333.879403 249.76851 
L 366.183338 218.015858 
L 398.487273 146.087958 
" clip-path="url(#p19d60df21b)" style="fill: none; stroke: #8172b3; stroke-width: 1.5; stroke-linecap: round"/>
    <defs>
     <path id="m27889d46bd" d="M 0 -5 
L -5 -0 
L -0 5 
L 5 0 
z
" style="stroke: #ffffff; stroke-width: 0.75; stroke-linejoin: miter"/>
    </defs>
    <g clip-path="url(#p19d60df21b)">
     <use xlink:href="#m27889d46bd" x="73.832727" y="295.487363" style="fill: #8172b3; stroke: #ffffff; stroke-width: 0.75; stroke-linejoin: miter"/>
     <use xlink:href="#m27889d46bd" x="107.751859" y="295.487363" style="fill: #8172b3; stroke: #ffffff; stroke-width: 0.75; stroke-linejoin: miter"/>
     <use xlink:href="#m27889d46bd" x="140.055794" y="294.826382" style="fill: #8172b3; stroke: #ffffff; stroke-width: 0.75; stroke-linejoin: miter"/>
     <use xlink:href="#m27889d46bd" x="172.359729" y="292.473883" style="fill: #8172b3; stroke: #ffffff; stroke-width: 0.75; stroke-linejoin: miter"/>
     <use xlink:href="#m27889d46bd" x="204.663664" y="286.931582" style="fill: #8172b3; stroke: #ffffff; stroke-width: 0.75; stroke-linejoin: miter"/>
     <use xlink:href="#m27889d46bd" x="236.967598" y="278.886874" style="fill: #8172b3; stroke: #ffffff; stroke-width: 0.75; stroke-linejoin: miter"/>
     <use xlink:href="#m27889d46bd" x="269.271533" y="263.753581" style="fill: #8172b3; stroke: #ffffff; stroke-width: 0.75; stroke-linejoin: miter"/>
     <use xlink:href="#m27889d46bd" x="301.575468" y="255.136688" style="fill: #8172b3; stroke: #ffffff; stroke-width: 0.75; stroke-linejoin: miter"/>
     <use xlink:href="#m27889d46bd" x="333.879403" y="249.76851" style="fill: #8172b3; stroke: #ffffff; stroke-width: 0.75; stroke-linejoin: miter"/>
     <use xlink:href="#m27889d46bd" x="366.183338" y="218.015858" style="fill: #8172b3; stroke: #ffffff; stroke-width: 0.75; stroke-linejoin: miter"/>
     <use xlink:href="#m27889d46bd" x="398.487273" y="146.087958" style="fill: #8172b3; stroke: #ffffff; stroke-width: 0.75; stroke-linejoin: miter"/>
    </g>
   </g>
   <g id="line2d_24">
    <path d="M 73.832727 295.487363 
L 107.751859 295.487363 
L 140.055794 294.826383 
L 172.359729 292.473883 
L 204.663664 286.931583 
L 236.967598 278.886875 
L 269.271533 263.753582 
L 301.575468 255.136689 
L 333.879403 249.76851 
L 366.183338 218.015859 
L 398.487273 146.08796 
" clip-path="url(#p19d60df21b)" style="fill: none; stroke: #937860; stroke-width: 1.5; stroke-linecap: round"/>
    <defs>
     <path id="mfe7955df7a" d="M 0 -5 
L -1.767767 -1.767767 
L -5 -0 
L -1.767767 1.767767 
L -0 5 
L 1.767767 1.767767 
L 5 0 
L 1.767767 -1.767767 
z
" style="stroke: #ffffff; stroke-width: 0.75; stroke-linejoin: bevel"/>
    </defs>
    <g clip-path="url(#p19d60df21b)">
     <use xlink:href="#mfe7955df7a" x="73.832727" y="295.487363" style="fill: #937860; stroke: #ffffff; stroke-width: 0.75; stroke-linejoin: bevel"/>
     <use xlink:href="#mfe7955df7a" x="107.751859" y="295.487363" style="fill: #937860; stroke: #ffffff; stroke-width: 0.75; stroke-linejoin: bevel"/>
     <use xlink:href="#mfe7955df7a" x="140.055794" y="294.826383" style="fill: #937860; stroke: #ffffff; stroke-width: 0.75; stroke-linejoin: bevel"/>
     <use xlink:href="#mfe7955df7a" x="172.359729" y="292.473883" style="fill: #937860; stroke: #ffffff; stroke-width: 0.75; stroke-linejoin: bevel"/>
     <use xlink:href="#mfe7955df7a" x="204.663664" y="286.931583" style="fill: #937860; stroke: #ffffff; stroke-width: 0.75; stroke-linejoin: bevel"/>
     <use xlink:href="#mfe7955df7a" x="236.967598" y="278.886875" style="fill: #937860; stroke: #ffffff; stroke-width: 0.75; stroke-linejoin: bevel"/>
     <use xlink:href="#mfe7955df7a" x="269.271533" y="263.753582" style="fill: #937860; stroke: #ffffff; stroke-width: 0.75; stroke-linejoin: bevel"/>
     <use xlink:href="#mfe7955df7a" x="301.575468" y="255.136689" style="fill: #937860; stroke: #ffffff; stroke-width: 0.75; stroke-linejoin: bevel"/>
     <use xlink:href="#mfe7955df7a" x="333.879403" y="249.76851" style="fill: #937860; stroke: #ffffff; stroke-width: 0.75; stroke-linejoin: bevel"/>
     <use xlink:href="#mfe7955df7a" x="366.183338" y="218.015859" style="fill: #937860; stroke: #ffffff; stroke-width: 0.75; stroke-linejoin: bevel"/>
     <use xlink:href="#mfe7955df7a" x="398.487273" y="146.08796" style="fill: #937860; stroke: #ffffff; stroke-width: 0.75; stroke-linejoin: bevel"/>
    </g>
   </g>
   <g id="line2d_25"/>
   <g id="line2d_26"/>
   <g id="line2d_27"/>
   <g id="line2d_28"/>
   <g id="line2d_29"/>
   <g id="line2d_30"/>
   <g id="patch_3">
    <path d="M 57.6 307.584 
L 57.6 41.472 
" style="fill: none; stroke: #ffffff; stroke-width: 1.25; stroke-linejoin: miter; stroke-linecap: square"/>
   </g>
   <g id="patch_4">
    <path d="M 414.72 307.584 
L 414.72 41.472 
" style="fill: none; stroke: #ffffff; stroke-width: 1.25; stroke-linejoin: miter; stroke-linecap: square"/>
   </g>
   <g id="patch_5">
    <path d="M 57.6 307.584 
L 414.72 307.584 
" style="fill: none; stroke: #ffffff; stroke-width: 1.25; stroke-linejoin: miter; stroke-linecap: square"/>
   </g>
   <g id="patch_6">
    <path d="M 57.6 41.472 
L 414.72 41.472 
" style="fill: none; stroke: #ffffff; stroke-width: 1.25; stroke-linejoin: miter; stroke-linecap: square"/>
   </g>
   <g id="text_21">
    <!-- Error - Linear scale -->
    <g style="fill: #262626" transform="translate(185.145938 35.472) scale(0.12 -0.12)">
     <defs>
      <path id="ArialMT-2d" d="M 203 1375 
L 203 1941 
L 1931 1941 
L 1931 1375 
L 203 1375 
z
" transform="scale(0.015625)"/>
      <path id="ArialMT-6e" d="M 422 0 
L 422 3319 
L 928 3319 
L 928 2847 
Q 1294 3394 1984 3394 
Q 2284 3394 2536 3286 
Q 2788 3178 2913 3003 
Q 3038 2828 3088 2588 
Q 3119 2431 3119 2041 
L 3119 0 
L 2556 0 
L 2556 2019 
Q 2556 2363 2490 2533 
Q 2425 2703 2258 2804 
Q 2091 2906 1866 2906 
Q 1506 2906 1245 2678 
Q 984 2450 984 1813 
L 984 0 
L 422 0 
z
" transform="scale(0.015625)"/>
      <path id="ArialMT-63" d="M 2588 1216 
L 3141 1144 
Q 3050 572 2676 248 
Q 2303 -75 1759 -75 
Q 1078 -75 664 370 
Q 250 816 250 1647 
Q 250 2184 428 2587 
Q 606 2991 970 3192 
Q 1334 3394 1763 3394 
Q 2303 3394 2647 3120 
Q 2991 2847 3088 2344 
L 2541 2259 
Q 2463 2594 2264 2762 
Q 2066 2931 1784 2931 
Q 1359 2931 1093 2626 
Q 828 2322 828 1663 
Q 828 994 1084 691 
Q 1341 388 1753 388 
Q 2084 388 2306 591 
Q 2528 794 2588 1216 
z
" transform="scale(0.015625)"/>
     </defs>
     <use xlink:href="#ArialMT-45"/>
     <use xlink:href="#ArialMT-72" x="66.699219"/>
     <use xlink:href="#ArialMT-72" x="100"/>
     <use xlink:href="#ArialMT-6f" x="133.300781"/>
     <use xlink:href="#ArialMT-72" x="188.916016"/>
     <use xlink:href="#ArialMT-20" x="222.216797"/>
     <use xlink:href="#ArialMT-2d" x="250"/>
     <use xlink:href="#ArialMT-20" x="283.300781"/>
     <use xlink:href="#ArialMT-4c" x="311.083984"/>
     <use xlink:href="#ArialMT-69" x="366.699219"/>
     <use xlink:href="#ArialMT-6e" x="388.916016"/>
     <use xlink:href="#ArialMT-65" x="444.53125"/>
     <use xlink:href="#ArialMT-61" x="500.146484"/>
     <use xlink:href="#ArialMT-72" x="555.761719"/>
     <use xlink:href="#ArialMT-20" x="589.0625"/>
     <use xlink:href="#ArialMT-73" x="616.845703"/>
     <use xlink:href="#ArialMT-63" x="666.845703"/>
     <use xlink:href="#ArialMT-61" x="716.845703"/>
     <use xlink:href="#ArialMT-6c" x="772.460938"/>
     <use xlink:href="#ArialMT-65" x="794.677734"/>
    </g>
   </g>
   <g id="legend_1">
    <g id="patch_7">
     <path d="M 65.3 144.222312 
L 192.193594 144.222312 
Q 194.393594 144.222312 194.393594 142.022312 
L 194.393594 49.172 
Q 194.393594 46.972 192.193594 46.972 
L 65.3 46.972 
Q 63.1 46.972 63.1 49.172 
L 63.1 142.022312 
Q 63.1 144.222312 65.3 144.222312 
z
" style="fill: #eaeaf2; opacity: 0.8; stroke: #cccccc; stroke-linejoin: miter"/>
    </g>
    <g id="line2d_31">
     <path d="M 67.5 55.395594 
L 78.5 55.395594 
L 89.5 55.395594 
" style="fill: none; stroke: #4c72b0; stroke-width: 1.5; stroke-linecap: round"/>
     <defs>
      <path id="m6fb2a08f6e" d="M 0 3 
C 0.795609 3 1.55874 2.683901 2.12132 2.12132 
C 2.683901 1.55874 3 0.795609 3 0 
C 3 -0.795609 2.683901 -1.55874 2.12132 -2.12132 
C 1.55874 -2.683901 0.795609 -3 0 -3 
C -0.795609 -3 -1.55874 -2.683901 -2.12132 -2.12132 
C -2.683901 -1.55874 -3 -0.795609 -3 0 
C -3 0.795609 -2.683901 1.55874 -2.12132 2.12132 
C -1.55874 2.683901 -0.795609 3 0 3 
z
" style="stroke: #4c72b0"/>
     </defs>
     <g>
      <use xlink:href="#m6fb2a08f6e" x="78.5" y="55.395594" style="fill: #4c72b0; stroke: #4c72b0"/>
     </g>
    </g>
    <g id="text_22">
     <!-- p-space -->
     <g style="fill: #262626" transform="translate(98.3 59.245594) scale(0.11 -0.11)">
      <defs>
       <path id="ArialMT-70" d="M 422 -1272 
L 422 3319 
L 934 3319 
L 934 2888 
Q 1116 3141 1344 3267 
Q 1572 3394 1897 3394 
Q 2322 3394 2647 3175 
Q 2972 2956 3137 2557 
Q 3303 2159 3303 1684 
Q 3303 1175 3120 767 
Q 2938 359 2589 142 
Q 2241 -75 1856 -75 
Q 1575 -75 1351 44 
Q 1128 163 984 344 
L 984 -1272 
L 422 -1272 
z
M 931 1641 
Q 931 1000 1190 694 
Q 1450 388 1819 388 
Q 2194 388 2461 705 
Q 2728 1022 2728 1688 
Q 2728 2322 2467 2637 
Q 2206 2953 1844 2953 
Q 1484 2953 1207 2617 
Q 931 2281 931 1641 
z
" transform="scale(0.015625)"/>
      </defs>
      <use xlink:href="#ArialMT-70"/>
      <use xlink:href="#ArialMT-2d" x="55.615234"/>
      <use xlink:href="#ArialMT-73" x="88.916016"/>
      <use xlink:href="#ArialMT-70" x="138.916016"/>
      <use xlink:href="#ArialMT-61" x="194.53125"/>
      <use xlink:href="#ArialMT-63" x="250.146484"/>
      <use xlink:href="#ArialMT-65" x="300.146484"/>
     </g>
    </g>
    <g id="line2d_32">
     <path d="M 67.5 70.955437 
L 78.5 70.955437 
L 89.5 70.955437 
" style="fill: none; stroke: #dd8452; stroke-width: 1.5; stroke-linecap: round"/>
     <defs>
      <path id="mec3f5d32ab" d="M -1.5 3 
L 0 1.5 
L 1.5 3 
L 3 1.5 
L 1.5 0 
L 3 -1.5 
L 1.5 -3 
L 0 -1.5 
L -1.5 -3 
L -3 -1.5 
L -1.5 0 
L -3 1.5 
z
" style="stroke: #dd8452; stroke-linejoin: miter"/>
     </defs>
     <g>
      <use xlink:href="#mec3f5d32ab" x="78.5" y="70.955437" style="fill: #dd8452; stroke: #dd8452; stroke-linejoin: miter"/>
     </g>
    </g>
    <g id="text_23">
     <!-- c-space -->
     <g style="fill: #262626" transform="translate(98.3 74.805437) scale(0.11 -0.11)">
      <use xlink:href="#ArialMT-63"/>
      <use xlink:href="#ArialMT-2d" x="50"/>
      <use xlink:href="#ArialMT-73" x="83.300781"/>
      <use xlink:href="#ArialMT-70" x="133.300781"/>
      <use xlink:href="#ArialMT-61" x="188.916016"/>
      <use xlink:href="#ArialMT-63" x="244.53125"/>
      <use xlink:href="#ArialMT-65" x="294.53125"/>
     </g>
    </g>
    <g id="line2d_33">
     <path d="M 67.5 86.649344 
L 78.5 86.649344 
L 89.5 86.649344 
" style="fill: none; stroke: #55a868; stroke-width: 1.5; stroke-linecap: round"/>
     <defs>
      <path id="mba4e7d1d31" d="M -2.12132 -2.12132 
L -2.12132 2.12132 
L 2.12132 2.12132 
L 2.12132 -2.12132 
z
" style="stroke: #55a868; stroke-linejoin: miter"/>
     </defs>
     <g>
      <use xlink:href="#mba4e7d1d31" x="78.5" y="86.649344" style="fill: #55a868; stroke: #55a868; stroke-linejoin: miter"/>
     </g>
    </g>
    <g id="text_24">
     <!-- rbf-p-space-level-1 -->
     <g style="fill: #262626" transform="translate(98.3 90.499344) scale(0.11 -0.11)">
      <defs>
       <path id="ArialMT-62" d="M 941 0 
L 419 0 
L 419 4581 
L 981 4581 
L 981 2947 
Q 1338 3394 1891 3394 
Q 2197 3394 2470 3270 
Q 2744 3147 2920 2923 
Q 3097 2700 3197 2384 
Q 3297 2069 3297 1709 
Q 3297 856 2875 390 
Q 2453 -75 1863 -75 
Q 1275 -75 941 416 
L 941 0 
z
M 934 1684 
Q 934 1088 1097 822 
Q 1363 388 1816 388 
Q 2184 388 2453 708 
Q 2722 1028 2722 1663 
Q 2722 2313 2464 2622 
Q 2206 2931 1841 2931 
Q 1472 2931 1203 2611 
Q 934 2291 934 1684 
z
" transform="scale(0.015625)"/>
      </defs>
      <use xlink:href="#ArialMT-72"/>
      <use xlink:href="#ArialMT-62" x="33.300781"/>
      <use xlink:href="#ArialMT-66" x="88.916016"/>
      <use xlink:href="#ArialMT-2d" x="116.699219"/>
      <use xlink:href="#ArialMT-70" x="150"/>
      <use xlink:href="#ArialMT-2d" x="205.615234"/>
      <use xlink:href="#ArialMT-73" x="238.916016"/>
      <use xlink:href="#ArialMT-70" x="288.916016"/>
      <use xlink:href="#ArialMT-61" x="344.53125"/>
      <use xlink:href="#ArialMT-63" x="400.146484"/>
      <use xlink:href="#ArialMT-65" x="450.146484"/>
      <use xlink:href="#ArialMT-2d" x="505.761719"/>
      <use xlink:href="#ArialMT-6c" x="539.0625"/>
      <use xlink:href="#ArialMT-65" x="561.279297"/>
      <use xlink:href="#ArialMT-76" x="616.894531"/>
      <use xlink:href="#ArialMT-65" x="666.894531"/>
      <use xlink:href="#ArialMT-6c" x="722.509766"/>
      <use xlink:href="#ArialMT-2d" x="744.726562"/>
      <use xlink:href="#ArialMT-31" x="778.027344"/>
     </g>
    </g>
    <g id="line2d_34">
     <path d="M 67.5 102.34325 
L 78.5 102.34325 
L 89.5 102.34325 
" style="fill: none; stroke: #c44e52; stroke-width: 1.5; stroke-linecap: round"/>
     <defs>
      <path id="m0a387f74d3" d="M -1 3 
L 1 3 
L 1 1 
L 3 1 
L 3 -1 
L 1 -1 
L 1 -3 
L -1 -3 
L -1 -1 
L -3 -1 
L -3 1 
L -1 1 
z
" style="stroke: #c44e52; stroke-linejoin: miter"/>
     </defs>
     <g>
      <use xlink:href="#m0a387f74d3" x="78.5" y="102.34325" style="fill: #c44e52; stroke: #c44e52; stroke-linejoin: miter"/>
     </g>
    </g>
    <g id="text_25">
     <!-- rbf-c-space-level-1 -->
     <g style="fill: #262626" transform="translate(98.3 106.19325) scale(0.11 -0.11)">
      <use xlink:href="#ArialMT-72"/>
      <use xlink:href="#ArialMT-62" x="33.300781"/>
      <use xlink:href="#ArialMT-66" x="88.916016"/>
      <use xlink:href="#ArialMT-2d" x="116.699219"/>
      <use xlink:href="#ArialMT-63" x="150"/>
      <use xlink:href="#ArialMT-2d" x="200"/>
      <use xlink:href="#ArialMT-73" x="233.300781"/>
      <use xlink:href="#ArialMT-70" x="283.300781"/>
      <use xlink:href="#ArialMT-61" x="338.916016"/>
      <use xlink:href="#ArialMT-63" x="394.53125"/>
      <use xlink:href="#ArialMT-65" x="444.53125"/>
      <use xlink:href="#ArialMT-2d" x="500.146484"/>
      <use xlink:href="#ArialMT-6c" x="533.447266"/>
      <use xlink:href="#ArialMT-65" x="555.664062"/>
      <use xlink:href="#ArialMT-76" x="611.279297"/>
      <use xlink:href="#ArialMT-65" x="661.279297"/>
      <use xlink:href="#ArialMT-6c" x="716.894531"/>
      <use xlink:href="#ArialMT-2d" x="739.111328"/>
      <use xlink:href="#ArialMT-31" x="772.412109"/>
     </g>
    </g>
    <g id="line2d_35">
     <path d="M 67.5 117.93575 
L 78.5 117.93575 
L 89.5 117.93575 
" style="fill: none; stroke: #8172b3; stroke-width: 1.5; stroke-linecap: round"/>
     <defs>
      <path id="m2354cb66e0" d="M 0 -3 
L -3 -0 
L -0 3 
L 3 0 
z
" style="stroke: #8172b3; stroke-linejoin: miter"/>
     </defs>
     <g>
      <use xlink:href="#m2354cb66e0" x="78.5" y="117.93575" style="fill: #8172b3; stroke: #8172b3; stroke-linejoin: miter"/>
     </g>
    </g>
    <g id="text_26">
     <!-- rgi-p-space-level-1 -->
     <g style="fill: #262626" transform="translate(98.3 121.78575) scale(0.11 -0.11)">
      <use xlink:href="#ArialMT-72"/>
      <use xlink:href="#ArialMT-67" x="33.300781"/>
      <use xlink:href="#ArialMT-69" x="88.916016"/>
      <use xlink:href="#ArialMT-2d" x="111.132812"/>
      <use xlink:href="#ArialMT-70" x="144.433594"/>
      <use xlink:href="#ArialMT-2d" x="200.048828"/>
      <use xlink:href="#ArialMT-73" x="233.349609"/>
      <use xlink:href="#ArialMT-70" x="283.349609"/>
      <use xlink:href="#ArialMT-61" x="338.964844"/>
      <use xlink:href="#ArialMT-63" x="394.580078"/>
      <use xlink:href="#ArialMT-65" x="444.580078"/>
      <use xlink:href="#ArialMT-2d" x="500.195312"/>
      <use xlink:href="#ArialMT-6c" x="533.496094"/>
      <use xlink:href="#ArialMT-65" x="555.712891"/>
      <use xlink:href="#ArialMT-76" x="611.328125"/>
      <use xlink:href="#ArialMT-65" x="661.328125"/>
      <use xlink:href="#ArialMT-6c" x="716.943359"/>
      <use xlink:href="#ArialMT-2d" x="739.160156"/>
      <use xlink:href="#ArialMT-31" x="772.460938"/>
     </g>
    </g>
    <g id="line2d_36">
     <path d="M 67.5 133.657156 
L 78.5 133.657156 
L 89.5 133.657156 
" style="fill: none; stroke: #937860; stroke-width: 1.5; stroke-linecap: round"/>
     <defs>
      <path id="m405fea764d" d="M 0 -3 
L -1.06066 -1.06066 
L -3 -0 
L -1.06066 1.06066 
L -0 3 
L 1.06066 1.06066 
L 3 0 
L 1.06066 -1.06066 
z
" style="stroke: #937860; stroke-linejoin: bevel"/>
     </defs>
     <g>
      <use xlink:href="#m405fea764d" x="78.5" y="133.657156" style="fill: #937860; stroke: #937860; stroke-linejoin: bevel"/>
     </g>
    </g>
    <g id="text_27">
     <!-- rgi-c-space-level-1 -->
     <g style="fill: #262626" transform="translate(98.3 137.507156) scale(0.11 -0.11)">
      <use xlink:href="#ArialMT-72"/>
      <use xlink:href="#ArialMT-67" x="33.300781"/>
      <use xlink:href="#ArialMT-69" x="88.916016"/>
      <use xlink:href="#ArialMT-2d" x="111.132812"/>
      <use xlink:href="#ArialMT-63" x="144.433594"/>
      <use xlink:href="#ArialMT-2d" x="194.433594"/>
      <use xlink:href="#ArialMT-73" x="227.734375"/>
      <use xlink:href="#ArialMT-70" x="277.734375"/>
      <use xlink:href="#ArialMT-61" x="333.349609"/>
      <use xlink:href="#ArialMT-63" x="388.964844"/>
      <use xlink:href="#ArialMT-65" x="438.964844"/>
      <use xlink:href="#ArialMT-2d" x="494.580078"/>
      <use xlink:href="#ArialMT-6c" x="527.880859"/>
      <use xlink:href="#ArialMT-65" x="550.097656"/>
      <use xlink:href="#ArialMT-76" x="605.712891"/>
      <use xlink:href="#ArialMT-65" x="655.712891"/>
      <use xlink:href="#ArialMT-6c" x="711.328125"/>
      <use xlink:href="#ArialMT-2d" x="733.544922"/>
      <use xlink:href="#ArialMT-31" x="766.845703"/>
     </g>
    </g>
   </g>
  </g>
 </g>
 <defs>
  <clipPath id="p19d60df21b">
   <rect x="57.6" y="41.472" width="357.12" height="266.112"/>
  </clipPath>
 </defs>
</svg>
