<?xml version="1.0" encoding="utf-8" standalone="no"?>
<!DOCTYPE svg PUBLIC "-//W3C//DTD SVG 1.1//EN"
  "http://www.w3.org/Graphics/SVG/1.1/DTD/svg11.dtd">
<svg xmlns:xlink="http://www.w3.org/1999/xlink" width="460.8pt" height="345.6pt" viewBox="0 0 460.8 345.6" xmlns="http://www.w3.org/2000/svg" version="1.1">
 <metadata>
  <rdf:RDF xmlns:dc="http://purl.org/dc/elements/1.1/" xmlns:cc="http://creativecommons.org/ns#" xmlns:rdf="http://www.w3.org/1999/02/22-rdf-syntax-ns#">
   <cc:Work>
    <dc:type rdf:resource="http://purl.org/dc/dcmitype/StillImage"/>
    <dc:date>2023-08-28T10:25:07.411005</dc:date>
    <dc:format>image/svg+xml</dc:format>
    <dc:creator>
     <cc:Agent>
      <dc:title>Matplotlib v3.7.2, https://matplotlib.org/</dc:title>
     </cc:Agent>
    </dc:creator>
   </cc:Work>
  </rdf:RDF>
 </metadata>
 <defs>
  <style type="text/css">*{stroke-linejoin: round; stroke-linecap: butt}</style>
 </defs>
 <g id="figure_1">
  <g id="patch_1">
   <path d="M 0 345.6 
L 460.8 345.6 
L 460.8 0 
L 0 0 
z
" style="fill: #ffffff"/>
  </g>
  <g id="axes_1">
   <g id="patch_2">
    <path d="M 57.6 307.584 
L 414.72 307.584 
L 414.72 41.472 
L 57.6 41.472 
z
" style="fill: #eaeaf2"/>
   </g>
   <g id="matplotlib.axis_1">
    <g id="xtick_1">
     <g id="line2d_1">
      <path d="M 73.832727 307.584 
L 73.832727 41.472 
" clip-path="url(#p8fd2c062a3)" style="fill: none; stroke: #ffffff; stroke-linecap: round"/>
     </g>
     <g id="text_1">
      <!-- 0 -->
      <g style="fill: #262626" transform="translate(70.774212 324.957594) scale(0.11 -0.11)">
       <defs>
        <path id="ArialMT-30" d="M 266 2259 
Q 266 3072 433 3567 
Q 600 4063 929 4331 
Q 1259 4600 1759 4600 
Q 2128 4600 2406 4451 
Q 2684 4303 2865 4023 
Q 3047 3744 3150 3342 
Q 3253 2941 3253 2259 
Q 3253 1453 3087 958 
Q 2922 463 2592 192 
Q 2263 -78 1759 -78 
Q 1097 -78 719 397 
Q 266 969 266 2259 
z
M 844 2259 
Q 844 1131 1108 757 
Q 1372 384 1759 384 
Q 2147 384 2411 759 
Q 2675 1134 2675 2259 
Q 2675 3391 2411 3762 
Q 2147 4134 1753 4134 
Q 1366 4134 1134 3806 
Q 844 3388 844 2259 
z
" transform="scale(0.015625)"/>
       </defs>
       <use xlink:href="#ArialMT-30"/>
      </g>
     </g>
    </g>
    <g id="xtick_2">
     <g id="line2d_2">
      <path d="M 107.751859 307.584 
L 107.751859 41.472 
" clip-path="url(#p8fd2c062a3)" style="fill: none; stroke: #ffffff; stroke-linecap: round"/>
     </g>
     <g id="text_2">
      <!-- 1 -->
      <g style="fill: #262626" transform="translate(104.693343 324.957594) scale(0.11 -0.11)">
       <defs>
        <path id="ArialMT-31" d="M 2384 0 
L 1822 0 
L 1822 3584 
Q 1619 3391 1289 3197 
Q 959 3003 697 2906 
L 697 3450 
Q 1169 3672 1522 3987 
Q 1875 4303 2022 4600 
L 2384 4600 
L 2384 0 
z
" transform="scale(0.015625)"/>
       </defs>
       <use xlink:href="#ArialMT-31"/>
      </g>
     </g>
    </g>
    <g id="xtick_3">
     <g id="line2d_3">
      <path d="M 140.055794 307.584 
L 140.055794 41.472 
" clip-path="url(#p8fd2c062a3)" style="fill: none; stroke: #ffffff; stroke-linecap: round"/>
     </g>
     <g id="text_3">
      <!-- 21 -->
      <g style="fill: #262626" transform="translate(133.938763 324.957594) scale(0.11 -0.11)">
       <defs>
        <path id="ArialMT-32" d="M 3222 541 
L 3222 0 
L 194 0 
Q 188 203 259 391 
Q 375 700 629 1000 
Q 884 1300 1366 1694 
Q 2113 2306 2375 2664 
Q 2638 3022 2638 3341 
Q 2638 3675 2398 3904 
Q 2159 4134 1775 4134 
Q 1369 4134 1125 3890 
Q 881 3647 878 3216 
L 300 3275 
Q 359 3922 746 4261 
Q 1134 4600 1788 4600 
Q 2447 4600 2831 4234 
Q 3216 3869 3216 3328 
Q 3216 3053 3103 2787 
Q 2991 2522 2730 2228 
Q 2469 1934 1863 1422 
Q 1356 997 1212 845 
Q 1069 694 975 541 
L 3222 541 
z
" transform="scale(0.015625)"/>
       </defs>
       <use xlink:href="#ArialMT-32"/>
       <use xlink:href="#ArialMT-31" x="55.615234"/>
      </g>
     </g>
    </g>
    <g id="xtick_4">
     <g id="line2d_4">
      <path d="M 172.359729 307.584 
L 172.359729 41.472 
" clip-path="url(#p8fd2c062a3)" style="fill: none; stroke: #ffffff; stroke-linecap: round"/>
     </g>
     <g id="text_4">
      <!-- 41 -->
      <g style="fill: #262626" transform="translate(166.242697 324.957594) scale(0.11 -0.11)">
       <defs>
        <path id="ArialMT-34" d="M 2069 0 
L 2069 1097 
L 81 1097 
L 81 1613 
L 2172 4581 
L 2631 4581 
L 2631 1613 
L 3250 1613 
L 3250 1097 
L 2631 1097 
L 2631 0 
L 2069 0 
z
M 2069 1613 
L 2069 3678 
L 634 1613 
L 2069 1613 
z
" transform="scale(0.015625)"/>
       </defs>
       <use xlink:href="#ArialMT-34"/>
       <use xlink:href="#ArialMT-31" x="55.615234"/>
      </g>
     </g>
    </g>
    <g id="xtick_5">
     <g id="line2d_5">
      <path d="M 204.663664 307.584 
L 204.663664 41.472 
" clip-path="url(#p8fd2c062a3)" style="fill: none; stroke: #ffffff; stroke-linecap: round"/>
     </g>
     <g id="text_5">
      <!-- 61 -->
      <g style="fill: #262626" transform="translate(198.546632 324.957594) scale(0.11 -0.11)">
       <defs>
        <path id="ArialMT-36" d="M 3184 3459 
L 2625 3416 
Q 2550 3747 2413 3897 
Q 2184 4138 1850 4138 
Q 1581 4138 1378 3988 
Q 1113 3794 959 3422 
Q 806 3050 800 2363 
Q 1003 2672 1297 2822 
Q 1591 2972 1913 2972 
Q 2475 2972 2870 2558 
Q 3266 2144 3266 1488 
Q 3266 1056 3080 686 
Q 2894 316 2569 119 
Q 2244 -78 1831 -78 
Q 1128 -78 684 439 
Q 241 956 241 2144 
Q 241 3472 731 4075 
Q 1159 4600 1884 4600 
Q 2425 4600 2770 4297 
Q 3116 3994 3184 3459 
z
M 888 1484 
Q 888 1194 1011 928 
Q 1134 663 1356 523 
Q 1578 384 1822 384 
Q 2178 384 2434 671 
Q 2691 959 2691 1453 
Q 2691 1928 2437 2201 
Q 2184 2475 1800 2475 
Q 1419 2475 1153 2201 
Q 888 1928 888 1484 
z
" transform="scale(0.015625)"/>
       </defs>
       <use xlink:href="#ArialMT-36"/>
       <use xlink:href="#ArialMT-31" x="55.615234"/>
      </g>
     </g>
    </g>
    <g id="xtick_6">
     <g id="line2d_6">
      <path d="M 236.967598 307.584 
L 236.967598 41.472 
" clip-path="url(#p8fd2c062a3)" style="fill: none; stroke: #ffffff; stroke-linecap: round"/>
     </g>
     <g id="text_6">
      <!-- 81 -->
      <g style="fill: #262626" transform="translate(230.850567 324.957594) scale(0.11 -0.11)">
       <defs>
        <path id="ArialMT-38" d="M 1131 2484 
Q 781 2613 612 2850 
Q 444 3088 444 3419 
Q 444 3919 803 4259 
Q 1163 4600 1759 4600 
Q 2359 4600 2725 4251 
Q 3091 3903 3091 3403 
Q 3091 3084 2923 2848 
Q 2756 2613 2416 2484 
Q 2838 2347 3058 2040 
Q 3278 1734 3278 1309 
Q 3278 722 2862 322 
Q 2447 -78 1769 -78 
Q 1091 -78 675 323 
Q 259 725 259 1325 
Q 259 1772 486 2073 
Q 713 2375 1131 2484 
z
M 1019 3438 
Q 1019 3113 1228 2906 
Q 1438 2700 1772 2700 
Q 2097 2700 2305 2904 
Q 2513 3109 2513 3406 
Q 2513 3716 2298 3927 
Q 2084 4138 1766 4138 
Q 1444 4138 1231 3931 
Q 1019 3725 1019 3438 
z
M 838 1322 
Q 838 1081 952 856 
Q 1066 631 1291 507 
Q 1516 384 1775 384 
Q 2178 384 2440 643 
Q 2703 903 2703 1303 
Q 2703 1709 2433 1975 
Q 2163 2241 1756 2241 
Q 1359 2241 1098 1978 
Q 838 1716 838 1322 
z
" transform="scale(0.015625)"/>
       </defs>
       <use xlink:href="#ArialMT-38"/>
       <use xlink:href="#ArialMT-31" x="55.615234"/>
      </g>
     </g>
    </g>
    <g id="xtick_7">
     <g id="line2d_7">
      <path d="M 269.271533 307.584 
L 269.271533 41.472 
" clip-path="url(#p8fd2c062a3)" style="fill: none; stroke: #ffffff; stroke-linecap: round"/>
     </g>
     <g id="text_7">
      <!-- 101 -->
      <g style="fill: #262626" transform="translate(260.095986 324.957594) scale(0.11 -0.11)">
       <use xlink:href="#ArialMT-31"/>
       <use xlink:href="#ArialMT-30" x="55.615234"/>
       <use xlink:href="#ArialMT-31" x="111.230469"/>
      </g>
     </g>
    </g>
    <g id="xtick_8">
     <g id="line2d_8">
      <path d="M 301.575468 307.584 
L 301.575468 41.472 
" clip-path="url(#p8fd2c062a3)" style="fill: none; stroke: #ffffff; stroke-linecap: round"/>
     </g>
     <g id="text_8">
      <!-- 121 -->
      <g style="fill: #262626" transform="translate(292.399921 324.957594) scale(0.11 -0.11)">
       <use xlink:href="#ArialMT-31"/>
       <use xlink:href="#ArialMT-32" x="55.615234"/>
       <use xlink:href="#ArialMT-31" x="111.230469"/>
      </g>
     </g>
    </g>
    <g id="xtick_9">
     <g id="line2d_9">
      <path d="M 333.879403 307.584 
L 333.879403 41.472 
" clip-path="url(#p8fd2c062a3)" style="fill: none; stroke: #ffffff; stroke-linecap: round"/>
     </g>
     <g id="text_9">
      <!-- 141 -->
      <g style="fill: #262626" transform="translate(324.703856 324.957594) scale(0.11 -0.11)">
       <use xlink:href="#ArialMT-31"/>
       <use xlink:href="#ArialMT-34" x="55.615234"/>
       <use xlink:href="#ArialMT-31" x="111.230469"/>
      </g>
     </g>
    </g>
    <g id="xtick_10">
     <g id="line2d_10">
      <path d="M 366.183338 307.584 
L 366.183338 41.472 
" clip-path="url(#p8fd2c062a3)" style="fill: none; stroke: #ffffff; stroke-linecap: round"/>
     </g>
     <g id="text_10">
      <!-- 161 -->
      <g style="fill: #262626" transform="translate(357.007791 324.957594) scale(0.11 -0.11)">
       <use xlink:href="#ArialMT-31"/>
       <use xlink:href="#ArialMT-36" x="55.615234"/>
       <use xlink:href="#ArialMT-31" x="111.230469"/>
      </g>
     </g>
    </g>
    <g id="xtick_11">
     <g id="line2d_11">
      <path d="M 398.487273 307.584 
L 398.487273 41.472 
" clip-path="url(#p8fd2c062a3)" style="fill: none; stroke: #ffffff; stroke-linecap: round"/>
     </g>
     <g id="text_11">
      <!-- 181 -->
      <g style="fill: #262626" transform="translate(389.311726 324.957594) scale(0.11 -0.11)">
       <use xlink:href="#ArialMT-31"/>
       <use xlink:href="#ArialMT-38" x="55.615234"/>
       <use xlink:href="#ArialMT-31" x="111.230469"/>
      </g>
     </g>
    </g>
    <g id="text_12">
     <!-- Levels of grid -->
     <g style="fill: #262626" transform="translate(200.475937 339.879469) scale(0.12 -0.12)">
      <defs>
       <path id="ArialMT-4c" d="M 469 0 
L 469 4581 
L 1075 4581 
L 1075 541 
L 3331 541 
L 3331 0 
L 469 0 
z
" transform="scale(0.015625)"/>
       <path id="ArialMT-65" d="M 2694 1069 
L 3275 997 
Q 3138 488 2766 206 
Q 2394 -75 1816 -75 
Q 1088 -75 661 373 
Q 234 822 234 1631 
Q 234 2469 665 2931 
Q 1097 3394 1784 3394 
Q 2450 3394 2872 2941 
Q 3294 2488 3294 1666 
Q 3294 1616 3291 1516 
L 816 1516 
Q 847 969 1125 678 
Q 1403 388 1819 388 
Q 2128 388 2347 550 
Q 2566 713 2694 1069 
z
M 847 1978 
L 2700 1978 
Q 2663 2397 2488 2606 
Q 2219 2931 1791 2931 
Q 1403 2931 1139 2672 
Q 875 2413 847 1978 
z
" transform="scale(0.015625)"/>
       <path id="ArialMT-76" d="M 1344 0 
L 81 3319 
L 675 3319 
L 1388 1331 
Q 1503 1009 1600 663 
Q 1675 925 1809 1294 
L 2547 3319 
L 3125 3319 
L 1869 0 
L 1344 0 
z
" transform="scale(0.015625)"/>
       <path id="ArialMT-6c" d="M 409 0 
L 409 4581 
L 972 4581 
L 972 0 
L 409 0 
z
" transform="scale(0.015625)"/>
       <path id="ArialMT-73" d="M 197 991 
L 753 1078 
Q 800 744 1014 566 
Q 1228 388 1613 388 
Q 2000 388 2187 545 
Q 2375 703 2375 916 
Q 2375 1106 2209 1216 
Q 2094 1291 1634 1406 
Q 1016 1563 777 1677 
Q 538 1791 414 1992 
Q 291 2194 291 2438 
Q 291 2659 392 2848 
Q 494 3038 669 3163 
Q 800 3259 1026 3326 
Q 1253 3394 1513 3394 
Q 1903 3394 2198 3281 
Q 2494 3169 2634 2976 
Q 2775 2784 2828 2463 
L 2278 2388 
Q 2241 2644 2061 2787 
Q 1881 2931 1553 2931 
Q 1166 2931 1000 2803 
Q 834 2675 834 2503 
Q 834 2394 903 2306 
Q 972 2216 1119 2156 
Q 1203 2125 1616 2013 
Q 2213 1853 2448 1751 
Q 2684 1650 2818 1456 
Q 2953 1263 2953 975 
Q 2953 694 2789 445 
Q 2625 197 2315 61 
Q 2006 -75 1616 -75 
Q 969 -75 630 194 
Q 291 463 197 991 
z
" transform="scale(0.015625)"/>
       <path id="ArialMT-20" transform="scale(0.015625)"/>
       <path id="ArialMT-6f" d="M 213 1659 
Q 213 2581 725 3025 
Q 1153 3394 1769 3394 
Q 2453 3394 2887 2945 
Q 3322 2497 3322 1706 
Q 3322 1066 3130 698 
Q 2938 331 2570 128 
Q 2203 -75 1769 -75 
Q 1072 -75 642 372 
Q 213 819 213 1659 
z
M 791 1659 
Q 791 1022 1069 705 
Q 1347 388 1769 388 
Q 2188 388 2466 706 
Q 2744 1025 2744 1678 
Q 2744 2294 2464 2611 
Q 2184 2928 1769 2928 
Q 1347 2928 1069 2612 
Q 791 2297 791 1659 
z
" transform="scale(0.015625)"/>
       <path id="ArialMT-66" d="M 556 0 
L 556 2881 
L 59 2881 
L 59 3319 
L 556 3319 
L 556 3672 
Q 556 4006 616 4169 
Q 697 4388 901 4523 
Q 1106 4659 1475 4659 
Q 1713 4659 2000 4603 
L 1916 4113 
Q 1741 4144 1584 4144 
Q 1328 4144 1222 4034 
Q 1116 3925 1116 3625 
L 1116 3319 
L 1763 3319 
L 1763 2881 
L 1116 2881 
L 1116 0 
L 556 0 
z
" transform="scale(0.015625)"/>
       <path id="ArialMT-67" d="M 319 -275 
L 866 -356 
Q 900 -609 1056 -725 
Q 1266 -881 1628 -881 
Q 2019 -881 2231 -725 
Q 2444 -569 2519 -288 
Q 2563 -116 2559 434 
Q 2191 0 1641 0 
Q 956 0 581 494 
Q 206 988 206 1678 
Q 206 2153 378 2554 
Q 550 2956 876 3175 
Q 1203 3394 1644 3394 
Q 2231 3394 2613 2919 
L 2613 3319 
L 3131 3319 
L 3131 450 
Q 3131 -325 2973 -648 
Q 2816 -972 2473 -1159 
Q 2131 -1347 1631 -1347 
Q 1038 -1347 672 -1080 
Q 306 -813 319 -275 
z
M 784 1719 
Q 784 1066 1043 766 
Q 1303 466 1694 466 
Q 2081 466 2343 764 
Q 2606 1063 2606 1700 
Q 2606 2309 2336 2618 
Q 2066 2928 1684 2928 
Q 1309 2928 1046 2623 
Q 784 2319 784 1719 
z
" transform="scale(0.015625)"/>
       <path id="ArialMT-72" d="M 416 0 
L 416 3319 
L 922 3319 
L 922 2816 
Q 1116 3169 1280 3281 
Q 1444 3394 1641 3394 
Q 1925 3394 2219 3213 
L 2025 2691 
Q 1819 2813 1613 2813 
Q 1428 2813 1281 2702 
Q 1134 2591 1072 2394 
Q 978 2094 978 1738 
L 978 0 
L 416 0 
z
" transform="scale(0.015625)"/>
       <path id="ArialMT-69" d="M 425 3934 
L 425 4581 
L 988 4581 
L 988 3934 
L 425 3934 
z
M 425 0 
L 425 3319 
L 988 3319 
L 988 0 
L 425 0 
z
" transform="scale(0.015625)"/>
       <path id="ArialMT-64" d="M 2575 0 
L 2575 419 
Q 2259 -75 1647 -75 
Q 1250 -75 917 144 
Q 584 363 401 755 
Q 219 1147 219 1656 
Q 219 2153 384 2558 
Q 550 2963 881 3178 
Q 1213 3394 1622 3394 
Q 1922 3394 2156 3267 
Q 2391 3141 2538 2938 
L 2538 4581 
L 3097 4581 
L 3097 0 
L 2575 0 
z
M 797 1656 
Q 797 1019 1065 703 
Q 1334 388 1700 388 
Q 2069 388 2326 689 
Q 2584 991 2584 1609 
Q 2584 2291 2321 2609 
Q 2059 2928 1675 2928 
Q 1300 2928 1048 2622 
Q 797 2316 797 1656 
z
" transform="scale(0.015625)"/>
      </defs>
      <use xlink:href="#ArialMT-4c"/>
      <use xlink:href="#ArialMT-65" x="55.615234"/>
      <use xlink:href="#ArialMT-76" x="111.230469"/>
      <use xlink:href="#ArialMT-65" x="161.230469"/>
      <use xlink:href="#ArialMT-6c" x="216.845703"/>
      <use xlink:href="#ArialMT-73" x="239.0625"/>
      <use xlink:href="#ArialMT-20" x="289.0625"/>
      <use xlink:href="#ArialMT-6f" x="316.845703"/>
      <use xlink:href="#ArialMT-66" x="372.460938"/>
      <use xlink:href="#ArialMT-20" x="400.244141"/>
      <use xlink:href="#ArialMT-67" x="428.027344"/>
      <use xlink:href="#ArialMT-72" x="483.642578"/>
      <use xlink:href="#ArialMT-69" x="516.943359"/>
      <use xlink:href="#ArialMT-64" x="539.160156"/>
     </g>
    </g>
   </g>
   <g id="matplotlib.axis_2">
    <g id="ytick_1">
     <g id="line2d_12">
      <path d="M 57.6 211.442655 
L 414.72 211.442655 
" clip-path="url(#p8fd2c062a3)" style="fill: none; stroke: #ffffff; stroke-linecap: round"/>
     </g>
     <g id="text_13">
      <!-- $\mathdefault{10^{-3}}$ -->
      <g style="fill: #262626" transform="translate(26.32 217.11453) scale(0.11 -0.11)">
       <defs>
        <path id="ArialMT-2212" d="M 3381 1997 
L 356 1997 
L 356 2522 
L 3381 2522 
L 3381 1997 
z
" transform="scale(0.015625)"/>
        <path id="ArialMT-33" d="M 269 1209 
L 831 1284 
Q 928 806 1161 595 
Q 1394 384 1728 384 
Q 2125 384 2398 659 
Q 2672 934 2672 1341 
Q 2672 1728 2419 1979 
Q 2166 2231 1775 2231 
Q 1616 2231 1378 2169 
L 1441 2663 
Q 1497 2656 1531 2656 
Q 1891 2656 2178 2843 
Q 2466 3031 2466 3422 
Q 2466 3731 2256 3934 
Q 2047 4138 1716 4138 
Q 1388 4138 1169 3931 
Q 950 3725 888 3313 
L 325 3413 
Q 428 3978 793 4289 
Q 1159 4600 1703 4600 
Q 2078 4600 2393 4439 
Q 2709 4278 2876 4000 
Q 3044 3722 3044 3409 
Q 3044 3113 2884 2869 
Q 2725 2625 2413 2481 
Q 2819 2388 3044 2092 
Q 3269 1797 3269 1353 
Q 3269 753 2831 336 
Q 2394 -81 1725 -81 
Q 1122 -81 723 278 
Q 325 638 269 1209 
z
" transform="scale(0.015625)"/>
       </defs>
       <use xlink:href="#ArialMT-31" transform="translate(0 0.99375)"/>
       <use xlink:href="#ArialMT-30" transform="translate(55.615234 0.99375)"/>
       <use xlink:href="#ArialMT-2212" transform="translate(112.972813 70.6875) scale(0.7)"/>
       <use xlink:href="#ArialMT-33" transform="translate(153.851719 70.6875) scale(0.7)"/>
      </g>
     </g>
    </g>
    <g id="ytick_2">
     <g id="line2d_13">
      <path d="M 57.6 100.908725 
L 414.72 100.908725 
" clip-path="url(#p8fd2c062a3)" style="fill: none; stroke: #ffffff; stroke-linecap: round"/>
     </g>
     <g id="text_14">
      <!-- $\mathdefault{10^{-2}}$ -->
      <g style="fill: #262626" transform="translate(26.32 106.5806) scale(0.11 -0.11)">
       <use xlink:href="#ArialMT-31" transform="translate(0 0.99375)"/>
       <use xlink:href="#ArialMT-30" transform="translate(55.615234 0.99375)"/>
       <use xlink:href="#ArialMT-2212" transform="translate(112.972813 70.6875) scale(0.7)"/>
       <use xlink:href="#ArialMT-32" transform="translate(153.851719 70.6875) scale(0.7)"/>
      </g>
     </g>
    </g>
    <g id="ytick_3"/>
    <g id="ytick_4"/>
    <g id="ytick_5"/>
    <g id="ytick_6"/>
    <g id="ytick_7"/>
    <g id="ytick_8"/>
    <g id="ytick_9"/>
    <g id="ytick_10"/>
    <g id="ytick_11"/>
    <g id="ytick_12"/>
    <g id="ytick_13"/>
    <g id="ytick_14"/>
    <g id="ytick_15"/>
    <g id="ytick_16"/>
    <g id="ytick_17"/>
    <g id="ytick_18"/>
    <g id="ytick_19"/>
    <g id="ytick_20"/>
    <g id="text_15">
     <!-- Time taken (s) -->
     <g style="fill: #262626" transform="translate(19.794375 212.641125) rotate(-90) scale(0.12 -0.12)">
      <defs>
       <path id="ArialMT-54" d="M 1659 0 
L 1659 4041 
L 150 4041 
L 150 4581 
L 3781 4581 
L 3781 4041 
L 2266 4041 
L 2266 0 
L 1659 0 
z
" transform="scale(0.015625)"/>
       <path id="ArialMT-6d" d="M 422 0 
L 422 3319 
L 925 3319 
L 925 2853 
Q 1081 3097 1340 3245 
Q 1600 3394 1931 3394 
Q 2300 3394 2536 3241 
Q 2772 3088 2869 2813 
Q 3263 3394 3894 3394 
Q 4388 3394 4653 3120 
Q 4919 2847 4919 2278 
L 4919 0 
L 4359 0 
L 4359 2091 
Q 4359 2428 4304 2576 
Q 4250 2725 4106 2815 
Q 3963 2906 3769 2906 
Q 3419 2906 3187 2673 
Q 2956 2441 2956 1928 
L 2956 0 
L 2394 0 
L 2394 2156 
Q 2394 2531 2256 2718 
Q 2119 2906 1806 2906 
Q 1569 2906 1367 2781 
Q 1166 2656 1075 2415 
Q 984 2175 984 1722 
L 984 0 
L 422 0 
z
" transform="scale(0.015625)"/>
       <path id="ArialMT-74" d="M 1650 503 
L 1731 6 
Q 1494 -44 1306 -44 
Q 1000 -44 831 53 
Q 663 150 594 308 
Q 525 466 525 972 
L 525 2881 
L 113 2881 
L 113 3319 
L 525 3319 
L 525 4141 
L 1084 4478 
L 1084 3319 
L 1650 3319 
L 1650 2881 
L 1084 2881 
L 1084 941 
Q 1084 700 1114 631 
Q 1144 563 1211 522 
Q 1278 481 1403 481 
Q 1497 481 1650 503 
z
" transform="scale(0.015625)"/>
       <path id="ArialMT-61" d="M 2588 409 
Q 2275 144 1986 34 
Q 1697 -75 1366 -75 
Q 819 -75 525 192 
Q 231 459 231 875 
Q 231 1119 342 1320 
Q 453 1522 633 1644 
Q 813 1766 1038 1828 
Q 1203 1872 1538 1913 
Q 2219 1994 2541 2106 
Q 2544 2222 2544 2253 
Q 2544 2597 2384 2738 
Q 2169 2928 1744 2928 
Q 1347 2928 1158 2789 
Q 969 2650 878 2297 
L 328 2372 
Q 403 2725 575 2942 
Q 747 3159 1072 3276 
Q 1397 3394 1825 3394 
Q 2250 3394 2515 3294 
Q 2781 3194 2906 3042 
Q 3031 2891 3081 2659 
Q 3109 2516 3109 2141 
L 3109 1391 
Q 3109 606 3145 398 
Q 3181 191 3288 0 
L 2700 0 
Q 2613 175 2588 409 
z
M 2541 1666 
Q 2234 1541 1622 1453 
Q 1275 1403 1131 1340 
Q 988 1278 909 1158 
Q 831 1038 831 891 
Q 831 666 1001 516 
Q 1172 366 1500 366 
Q 1825 366 2078 508 
Q 2331 650 2450 897 
Q 2541 1088 2541 1459 
L 2541 1666 
z
" transform="scale(0.015625)"/>
       <path id="ArialMT-6b" d="M 425 0 
L 425 4581 
L 988 4581 
L 988 1969 
L 2319 3319 
L 3047 3319 
L 1778 2088 
L 3175 0 
L 2481 0 
L 1384 1697 
L 988 1316 
L 988 0 
L 425 0 
z
" transform="scale(0.015625)"/>
       <path id="ArialMT-6e" d="M 422 0 
L 422 3319 
L 928 3319 
L 928 2847 
Q 1294 3394 1984 3394 
Q 2284 3394 2536 3286 
Q 2788 3178 2913 3003 
Q 3038 2828 3088 2588 
Q 3119 2431 3119 2041 
L 3119 0 
L 2556 0 
L 2556 2019 
Q 2556 2363 2490 2533 
Q 2425 2703 2258 2804 
Q 2091 2906 1866 2906 
Q 1506 2906 1245 2678 
Q 984 2450 984 1813 
L 984 0 
L 422 0 
z
" transform="scale(0.015625)"/>
       <path id="ArialMT-28" d="M 1497 -1347 
Q 1031 -759 709 28 
Q 388 816 388 1659 
Q 388 2403 628 3084 
Q 909 3875 1497 4659 
L 1900 4659 
Q 1522 4009 1400 3731 
Q 1209 3300 1100 2831 
Q 966 2247 966 1656 
Q 966 153 1900 -1347 
L 1497 -1347 
z
" transform="scale(0.015625)"/>
       <path id="ArialMT-29" d="M 791 -1347 
L 388 -1347 
Q 1322 153 1322 1656 
Q 1322 2244 1188 2822 
Q 1081 3291 891 3722 
Q 769 4003 388 4659 
L 791 4659 
Q 1378 3875 1659 3084 
Q 1900 2403 1900 1659 
Q 1900 816 1576 28 
Q 1253 -759 791 -1347 
z
" transform="scale(0.015625)"/>
      </defs>
      <use xlink:href="#ArialMT-54"/>
      <use xlink:href="#ArialMT-69" x="57.333984"/>
      <use xlink:href="#ArialMT-6d" x="79.550781"/>
      <use xlink:href="#ArialMT-65" x="162.851562"/>
      <use xlink:href="#ArialMT-20" x="218.466797"/>
      <use xlink:href="#ArialMT-74" x="246.25"/>
      <use xlink:href="#ArialMT-61" x="274.033203"/>
      <use xlink:href="#ArialMT-6b" x="329.648438"/>
      <use xlink:href="#ArialMT-65" x="379.648438"/>
      <use xlink:href="#ArialMT-6e" x="435.263672"/>
      <use xlink:href="#ArialMT-20" x="490.878906"/>
      <use xlink:href="#ArialMT-28" x="518.662109"/>
      <use xlink:href="#ArialMT-73" x="551.962891"/>
      <use xlink:href="#ArialMT-29" x="601.962891"/>
     </g>
    </g>
   </g>
   <g id="PolyCollection_1">
    <defs>
     <path id="mc76810a252" d="M 73.832727 -65.213069 
L 73.832727 -63.284443 
L 107.751859 -66.089649 
L 140.055794 -63.291176 
L 172.359729 -63.618452 
L 204.663664 -66.510796 
L 236.967598 -65.175456 
L 269.271533 -65.100055 
L 301.575468 -64.769741 
L 333.879403 -65.54591 
L 366.183338 -66.55506 
L 398.487273 -67.544945 
L 398.487273 -69.573443 
L 398.487273 -69.573443 
L 366.183338 -68.438541 
L 333.879403 -67.517498 
L 301.575468 -66.707401 
L 269.271533 -67.096826 
L 236.967598 -67.166239 
L 204.663664 -68.436953 
L 172.359729 -65.542468 
L 140.055794 -65.266113 
L 107.751859 -68.329147 
L 73.832727 -65.213069 
z
" style="stroke: #4c72b0; stroke-opacity: 0.2"/>
    </defs>
    <g clip-path="url(#p8fd2c062a3)">
     <use xlink:href="#mc76810a252" x="0" y="345.6" style="fill: #4c72b0; fill-opacity: 0.2; stroke: #4c72b0; stroke-opacity: 0.2"/>
    </g>
   </g>
   <g id="PolyCollection_2">
    <defs>
     <path id="m6eb83c2a21" d="M 73.832727 -52.388737 
L 73.832727 -50.428456 
L 107.751859 -53.549753 
L 140.055794 -50.112 
L 172.359729 -50.812938 
L 204.663664 -53.24505 
L 236.967598 -52.860111 
L 269.271533 -52.379563 
L 301.575468 -51.554372 
L 333.879403 -52.421773 
L 366.183338 -53.18336 
L 398.487273 -54.416454 
L 398.487273 -56.320917 
L 398.487273 -56.320917 
L 366.183338 -55.066436 
L 333.879403 -54.345903 
L 301.575468 -53.443147 
L 269.271533 -54.28484 
L 236.967598 -54.672011 
L 204.663664 -55.227065 
L 172.359729 -52.598253 
L 140.055794 -51.999898 
L 107.751859 -55.570551 
L 73.832727 -52.388737 
z
" style="stroke: #dd8452; stroke-opacity: 0.2"/>
    </defs>
    <g clip-path="url(#p8fd2c062a3)">
     <use xlink:href="#m6eb83c2a21" x="0" y="345.6" style="fill: #dd8452; fill-opacity: 0.2; stroke: #dd8452; stroke-opacity: 0.2"/>
    </g>
   </g>
   <g id="PolyCollection_3">
    <defs>
     <path id="m53a7bfe9ae" d="M 73.832727 -123.660129 
L 73.832727 -116.846869 
L 107.751859 -128.848348 
L 140.055794 -117.075041 
L 172.359729 -123.075911 
L 204.663664 -117.935136 
L 236.967598 -112.24895 
L 269.271533 -111.973901 
L 301.575468 -109.5634 
L 333.879403 -106.161372 
L 366.183338 -104.400709 
L 398.487273 -102.865003 
L 398.487273 -107.624592 
L 398.487273 -107.624592 
L 366.183338 -110.170485 
L 333.879403 -110.316085 
L 301.575468 -116.299966 
L 269.271533 -120.348971 
L 236.967598 -122.932904 
L 204.663664 -127.997298 
L 172.359729 -137.949865 
L 140.055794 -128.431435 
L 107.751859 -142.08072 
L 73.832727 -123.660129 
z
" style="stroke: #55a868; stroke-opacity: 0.2"/>
    </defs>
    <g clip-path="url(#p8fd2c062a3)">
     <use xlink:href="#m53a7bfe9ae" x="0" y="345.6" style="fill: #55a868; fill-opacity: 0.2; stroke: #55a868; stroke-opacity: 0.2"/>
    </g>
   </g>
   <g id="PolyCollection_4">
    <defs>
     <path id="maf76612874" d="M 73.832727 -152.731462 
L 73.832727 -144.33389 
L 107.751859 -152.937798 
L 140.055794 -143.48452 
L 172.359729 -142.940547 
L 204.663664 -142.088003 
L 236.967598 -137.553837 
L 269.271533 -137.402362 
L 301.575468 -133.303056 
L 333.879403 -133.097248 
L 366.183338 -129.624407 
L 398.487273 -127.25961 
L 398.487273 -131.826486 
L 398.487273 -131.826486 
L 366.183338 -134.859187 
L 333.879403 -139.589924 
L 301.575468 -137.613712 
L 269.271533 -145.513942 
L 236.967598 -143.928701 
L 204.663664 -149.237214 
L 172.359729 -152.390566 
L 140.055794 -153.105342 
L 107.751859 -166.281759 
L 73.832727 -152.731462 
z
" style="stroke: #c44e52; stroke-opacity: 0.2"/>
    </defs>
    <g clip-path="url(#p8fd2c062a3)">
     <use xlink:href="#maf76612874" x="0" y="345.6" style="fill: #c44e52; fill-opacity: 0.2; stroke: #c44e52; stroke-opacity: 0.2"/>
    </g>
   </g>
   <g id="PolyCollection_5">
    <defs>
     <path id="mdb59056760" d="M 73.832727 -196.885894 
L 73.832727 -193.636419 
L 107.751859 -195.521882 
L 140.055794 -191.529962 
L 172.359729 -188.063007 
L 204.663664 -187.931662 
L 236.967598 -184.470534 
L 269.271533 -181.649225 
L 301.575468 -180.30763 
L 333.879403 -179.608356 
L 366.183338 -176.833483 
L 398.487273 -176.138741 
L 398.487273 -177.956093 
L 398.487273 -177.956093 
L 366.183338 -179.45178 
L 333.879403 -182.959153 
L 301.575468 -183.936616 
L 269.271533 -184.76862 
L 236.967598 -188.199195 
L 204.663664 -191.931052 
L 172.359729 -191.568148 
L 140.055794 -194.84273 
L 107.751859 -198.953435 
L 73.832727 -196.885894 
z
" style="stroke: #8172b3; stroke-opacity: 0.2"/>
    </defs>
    <g clip-path="url(#p8fd2c062a3)">
     <use xlink:href="#mdb59056760" x="0" y="345.6" style="fill: #8172b3; fill-opacity: 0.2; stroke: #8172b3; stroke-opacity: 0.2"/>
    </g>
   </g>
   <g id="PolyCollection_6">
    <defs>
     <path id="m9500cefec9" d="M 73.832727 -288.407187 
L 73.832727 -284.298266 
L 107.751859 -287.774443 
L 140.055794 -281.508078 
L 172.359729 -276.901578 
L 204.663664 -274.784625 
L 236.967598 -268.509791 
L 269.271533 -262.72169 
L 301.575468 -259.460982 
L 333.879403 -256.480408 
L 366.183338 -250.678485 
L 398.487273 -245.984522 
L 398.487273 -249.042616 
L 398.487273 -249.042616 
L 366.183338 -255.140383 
L 333.879403 -261.701079 
L 301.575468 -265.10223 
L 269.271533 -268.321823 
L 236.967598 -273.70309 
L 204.663664 -279.880804 
L 172.359729 -281.824595 
L 140.055794 -285.734195 
L 107.751859 -292.032 
L 73.832727 -288.407187 
z
" style="stroke: #937860; stroke-opacity: 0.2"/>
    </defs>
    <g clip-path="url(#p8fd2c062a3)">
     <use xlink:href="#m9500cefec9" x="0" y="345.6" style="fill: #937860; fill-opacity: 0.2; stroke: #937860; stroke-opacity: 0.2"/>
    </g>
   </g>
   <g id="line2d_14">
    <path d="M 73.832727 281.368519 
L 107.751859 278.396629 
L 140.055794 281.285963 
L 172.359729 281.026877 
L 204.663664 278.100309 
L 236.967598 279.482609 
L 269.271533 279.518853 
L 301.575468 279.829581 
L 333.879403 279.066261 
L 366.183338 278.084692 
L 398.487273 277.078411 
" clip-path="url(#p8fd2c062a3)" style="fill: none; stroke: #4c72b0; stroke-width: 1.5; stroke-linecap: round"/>
    <defs>
     <path id="m746dfc3d72" d="M 0 5 
C 1.326016 5 2.597899 4.473168 3.535534 3.535534 
C 4.473168 2.597899 5 1.326016 5 0 
C 5 -1.326016 4.473168 -2.597899 3.535534 -3.535534 
C 2.597899 -4.473168 1.326016 -5 0 -5 
C -1.326016 -5 -2.597899 -4.473168 -3.535534 -3.535534 
C -4.473168 -2.597899 -5 -1.326016 -5 0 
C -5 1.326016 -4.473168 2.597899 -3.535534 3.535534 
C -2.597899 4.473168 -1.326016 5 0 5 
z
" style="stroke: #ffffff; stroke-width: 0.75"/>
    </defs>
    <g clip-path="url(#p8fd2c062a3)">
     <use xlink:href="#m746dfc3d72" x="73.832727" y="281.368519" style="fill: #4c72b0; stroke: #ffffff; stroke-width: 0.75"/>
     <use xlink:href="#m746dfc3d72" x="107.751859" y="278.396629" style="fill: #4c72b0; stroke: #ffffff; stroke-width: 0.75"/>
     <use xlink:href="#m746dfc3d72" x="140.055794" y="281.285963" style="fill: #4c72b0; stroke: #ffffff; stroke-width: 0.75"/>
     <use xlink:href="#m746dfc3d72" x="172.359729" y="281.026877" style="fill: #4c72b0; stroke: #ffffff; stroke-width: 0.75"/>
     <use xlink:href="#m746dfc3d72" x="204.663664" y="278.100309" style="fill: #4c72b0; stroke: #ffffff; stroke-width: 0.75"/>
     <use xlink:href="#m746dfc3d72" x="236.967598" y="279.482609" style="fill: #4c72b0; stroke: #ffffff; stroke-width: 0.75"/>
     <use xlink:href="#m746dfc3d72" x="269.271533" y="279.518853" style="fill: #4c72b0; stroke: #ffffff; stroke-width: 0.75"/>
     <use xlink:href="#m746dfc3d72" x="301.575468" y="279.829581" style="fill: #4c72b0; stroke: #ffffff; stroke-width: 0.75"/>
     <use xlink:href="#m746dfc3d72" x="333.879403" y="279.066261" style="fill: #4c72b0; stroke: #ffffff; stroke-width: 0.75"/>
     <use xlink:href="#m746dfc3d72" x="366.183338" y="278.084692" style="fill: #4c72b0; stroke: #ffffff; stroke-width: 0.75"/>
     <use xlink:href="#m746dfc3d72" x="398.487273" y="277.078411" style="fill: #4c72b0; stroke: #ffffff; stroke-width: 0.75"/>
    </g>
   </g>
   <g id="line2d_15">
    <path d="M 73.832727 294.184117 
L 107.751859 291.016938 
L 140.055794 294.481052 
L 172.359729 293.925452 
L 204.663664 291.366572 
L 236.967598 291.851282 
L 269.271533 292.307515 
L 301.575468 293.143195 
L 333.879403 292.181734 
L 366.183338 291.475722 
L 398.487273 290.176947 
" clip-path="url(#p8fd2c062a3)" style="fill: none; stroke: #dd8452; stroke-width: 1.5; stroke-linecap: round"/>
    <defs>
     <path id="m8ab4c4825b" d="M -2.5 5 
L 0 2.5 
L 2.5 5 
L 5 2.5 
L 2.5 0 
L 5 -2.5 
L 2.5 -5 
L 0 -2.5 
L -2.5 -5 
L -5 -2.5 
L -2.5 0 
L -5 2.5 
z
" style="stroke: #ffffff; stroke-width: 0.75; stroke-linejoin: miter"/>
    </defs>
    <g clip-path="url(#p8fd2c062a3)">
     <use xlink:href="#m8ab4c4825b" x="73.832727" y="294.184117" style="fill: #dd8452; stroke: #ffffff; stroke-width: 0.75; stroke-linejoin: miter"/>
     <use xlink:href="#m8ab4c4825b" x="107.751859" y="291.016938" style="fill: #dd8452; stroke: #ffffff; stroke-width: 0.75; stroke-linejoin: miter"/>
     <use xlink:href="#m8ab4c4825b" x="140.055794" y="294.481052" style="fill: #dd8452; stroke: #ffffff; stroke-width: 0.75; stroke-linejoin: miter"/>
     <use xlink:href="#m8ab4c4825b" x="172.359729" y="293.925452" style="fill: #dd8452; stroke: #ffffff; stroke-width: 0.75; stroke-linejoin: miter"/>
     <use xlink:href="#m8ab4c4825b" x="204.663664" y="291.366572" style="fill: #dd8452; stroke: #ffffff; stroke-width: 0.75; stroke-linejoin: miter"/>
     <use xlink:href="#m8ab4c4825b" x="236.967598" y="291.851282" style="fill: #dd8452; stroke: #ffffff; stroke-width: 0.75; stroke-linejoin: miter"/>
     <use xlink:href="#m8ab4c4825b" x="269.271533" y="292.307515" style="fill: #dd8452; stroke: #ffffff; stroke-width: 0.75; stroke-linejoin: miter"/>
     <use xlink:href="#m8ab4c4825b" x="301.575468" y="293.143195" style="fill: #dd8452; stroke: #ffffff; stroke-width: 0.75; stroke-linejoin: miter"/>
     <use xlink:href="#m8ab4c4825b" x="333.879403" y="292.181734" style="fill: #dd8452; stroke: #ffffff; stroke-width: 0.75; stroke-linejoin: miter"/>
     <use xlink:href="#m8ab4c4825b" x="366.183338" y="291.475722" style="fill: #dd8452; stroke: #ffffff; stroke-width: 0.75; stroke-linejoin: miter"/>
     <use xlink:href="#m8ab4c4825b" x="398.487273" y="290.176947" style="fill: #dd8452; stroke: #ffffff; stroke-width: 0.75; stroke-linejoin: miter"/>
    </g>
   </g>
   <g id="line2d_16">
    <path d="M 73.832727 225.576254 
L 107.751859 209.947419 
L 140.055794 223.216609 
L 172.359729 215.161636 
L 204.663664 222.971599 
L 236.967598 228.80078 
L 269.271533 229.744453 
L 301.575468 232.67127 
L 333.879403 237.422704 
L 366.183338 238.574196 
L 398.487273 240.513405 
" clip-path="url(#p8fd2c062a3)" style="fill: none; stroke: #55a868; stroke-width: 1.5; stroke-linecap: round"/>
    <defs>
     <path id="m94b856e9dc" d="M -3.535534 -3.535534 
L -3.535534 3.535534 
L 3.535534 3.535534 
L 3.535534 -3.535534 
z
" style="stroke: #ffffff; stroke-width: 0.75; stroke-linejoin: miter"/>
    </defs>
    <g clip-path="url(#p8fd2c062a3)">
     <use xlink:href="#m94b856e9dc" x="73.832727" y="225.576254" style="fill: #55a868; stroke: #ffffff; stroke-width: 0.75; stroke-linejoin: miter"/>
     <use xlink:href="#m94b856e9dc" x="107.751859" y="209.947419" style="fill: #55a868; stroke: #ffffff; stroke-width: 0.75; stroke-linejoin: miter"/>
     <use xlink:href="#m94b856e9dc" x="140.055794" y="223.216609" style="fill: #55a868; stroke: #ffffff; stroke-width: 0.75; stroke-linejoin: miter"/>
     <use xlink:href="#m94b856e9dc" x="172.359729" y="215.161636" style="fill: #55a868; stroke: #ffffff; stroke-width: 0.75; stroke-linejoin: miter"/>
     <use xlink:href="#m94b856e9dc" x="204.663664" y="222.971599" style="fill: #55a868; stroke: #ffffff; stroke-width: 0.75; stroke-linejoin: miter"/>
     <use xlink:href="#m94b856e9dc" x="236.967598" y="228.80078" style="fill: #55a868; stroke: #ffffff; stroke-width: 0.75; stroke-linejoin: miter"/>
     <use xlink:href="#m94b856e9dc" x="269.271533" y="229.744453" style="fill: #55a868; stroke: #ffffff; stroke-width: 0.75; stroke-linejoin: miter"/>
     <use xlink:href="#m94b856e9dc" x="301.575468" y="232.67127" style="fill: #55a868; stroke: #ffffff; stroke-width: 0.75; stroke-linejoin: miter"/>
     <use xlink:href="#m94b856e9dc" x="333.879403" y="237.422704" style="fill: #55a868; stroke: #ffffff; stroke-width: 0.75; stroke-linejoin: miter"/>
     <use xlink:href="#m94b856e9dc" x="366.183338" y="238.574196" style="fill: #55a868; stroke: #ffffff; stroke-width: 0.75; stroke-linejoin: miter"/>
     <use xlink:href="#m94b856e9dc" x="398.487273" y="240.513405" style="fill: #55a868; stroke: #ffffff; stroke-width: 0.75; stroke-linejoin: miter"/>
    </g>
   </g>
   <g id="line2d_17">
    <path d="M 73.832727 197.342589 
L 107.751859 185.782388 
L 140.055794 197.316012 
L 172.359729 197.932467 
L 204.663664 200.111954 
L 236.967598 204.99612 
L 269.271533 204.240937 
L 301.575468 210.155915 
L 333.879403 209.562193 
L 366.183338 213.436046 
L 398.487273 216.136205 
" clip-path="url(#p8fd2c062a3)" style="fill: none; stroke: #c44e52; stroke-width: 1.5; stroke-linecap: round"/>
    <defs>
     <path id="m3e8ff68f8c" d="M -1.666667 5 
L 1.666667 5 
L 1.666667 1.666667 
L 5 1.666667 
L 5 -1.666667 
L 1.666667 -1.666667 
L 1.666667 -5 
L -1.666667 -5 
L -1.666667 -1.666667 
L -5 -1.666667 
L -5 1.666667 
L -1.666667 1.666667 
z
" style="stroke: #ffffff; stroke-width: 0.75; stroke-linejoin: miter"/>
    </defs>
    <g clip-path="url(#p8fd2c062a3)">
     <use xlink:href="#m3e8ff68f8c" x="73.832727" y="197.342589" style="fill: #c44e52; stroke: #ffffff; stroke-width: 0.75; stroke-linejoin: miter"/>
     <use xlink:href="#m3e8ff68f8c" x="107.751859" y="185.782388" style="fill: #c44e52; stroke: #ffffff; stroke-width: 0.75; stroke-linejoin: miter"/>
     <use xlink:href="#m3e8ff68f8c" x="140.055794" y="197.316012" style="fill: #c44e52; stroke: #ffffff; stroke-width: 0.75; stroke-linejoin: miter"/>
     <use xlink:href="#m3e8ff68f8c" x="172.359729" y="197.932467" style="fill: #c44e52; stroke: #ffffff; stroke-width: 0.75; stroke-linejoin: miter"/>
     <use xlink:href="#m3e8ff68f8c" x="204.663664" y="200.111954" style="fill: #c44e52; stroke: #ffffff; stroke-width: 0.75; stroke-linejoin: miter"/>
     <use xlink:href="#m3e8ff68f8c" x="236.967598" y="204.99612" style="fill: #c44e52; stroke: #ffffff; stroke-width: 0.75; stroke-linejoin: miter"/>
     <use xlink:href="#m3e8ff68f8c" x="269.271533" y="204.240937" style="fill: #c44e52; stroke: #ffffff; stroke-width: 0.75; stroke-linejoin: miter"/>
     <use xlink:href="#m3e8ff68f8c" x="301.575468" y="210.155915" style="fill: #c44e52; stroke: #ffffff; stroke-width: 0.75; stroke-linejoin: miter"/>
     <use xlink:href="#m3e8ff68f8c" x="333.879403" y="209.562193" style="fill: #c44e52; stroke: #ffffff; stroke-width: 0.75; stroke-linejoin: miter"/>
     <use xlink:href="#m3e8ff68f8c" x="366.183338" y="213.436046" style="fill: #c44e52; stroke: #ffffff; stroke-width: 0.75; stroke-linejoin: miter"/>
     <use xlink:href="#m3e8ff68f8c" x="398.487273" y="216.136205" style="fill: #c44e52; stroke: #ffffff; stroke-width: 0.75; stroke-linejoin: miter"/>
    </g>
   </g>
   <g id="line2d_18">
    <path d="M 73.832727 150.337226 
L 107.751859 148.297938 
L 140.055794 152.376405 
L 172.359729 155.696252 
L 204.663664 155.688188 
L 236.967598 159.300861 
L 269.271533 162.420896 
L 301.575468 163.484763 
L 333.879403 164.339737 
L 366.183338 167.443771 
L 398.487273 168.545983 
" clip-path="url(#p8fd2c062a3)" style="fill: none; stroke: #8172b3; stroke-width: 1.5; stroke-linecap: round"/>
    <defs>
     <path id="m1d1163d4b2" d="M 0 -5 
L -5 -0 
L -0 5 
L 5 0 
z
" style="stroke: #ffffff; stroke-width: 0.75; stroke-linejoin: miter"/>
    </defs>
    <g clip-path="url(#p8fd2c062a3)">
     <use xlink:href="#m1d1163d4b2" x="73.832727" y="150.337226" style="fill: #8172b3; stroke: #ffffff; stroke-width: 0.75; stroke-linejoin: miter"/>
     <use xlink:href="#m1d1163d4b2" x="107.751859" y="148.297938" style="fill: #8172b3; stroke: #ffffff; stroke-width: 0.75; stroke-linejoin: miter"/>
     <use xlink:href="#m1d1163d4b2" x="140.055794" y="152.376405" style="fill: #8172b3; stroke: #ffffff; stroke-width: 0.75; stroke-linejoin: miter"/>
     <use xlink:href="#m1d1163d4b2" x="172.359729" y="155.696252" style="fill: #8172b3; stroke: #ffffff; stroke-width: 0.75; stroke-linejoin: miter"/>
     <use xlink:href="#m1d1163d4b2" x="204.663664" y="155.688188" style="fill: #8172b3; stroke: #ffffff; stroke-width: 0.75; stroke-linejoin: miter"/>
     <use xlink:href="#m1d1163d4b2" x="236.967598" y="159.300861" style="fill: #8172b3; stroke: #ffffff; stroke-width: 0.75; stroke-linejoin: miter"/>
     <use xlink:href="#m1d1163d4b2" x="269.271533" y="162.420896" style="fill: #8172b3; stroke: #ffffff; stroke-width: 0.75; stroke-linejoin: miter"/>
     <use xlink:href="#m1d1163d4b2" x="301.575468" y="163.484763" style="fill: #8172b3; stroke: #ffffff; stroke-width: 0.75; stroke-linejoin: miter"/>
     <use xlink:href="#m1d1163d4b2" x="333.879403" y="164.339737" style="fill: #8172b3; stroke: #ffffff; stroke-width: 0.75; stroke-linejoin: miter"/>
     <use xlink:href="#m1d1163d4b2" x="366.183338" y="167.443771" style="fill: #8172b3; stroke: #ffffff; stroke-width: 0.75; stroke-linejoin: miter"/>
     <use xlink:href="#m1d1163d4b2" x="398.487273" y="168.545983" style="fill: #8172b3; stroke: #ffffff; stroke-width: 0.75; stroke-linejoin: miter"/>
    </g>
   </g>
   <g id="line2d_19">
    <path d="M 73.832727 59.231273 
L 107.751859 55.600374 
L 140.055794 61.80862 
L 172.359729 66.082164 
L 204.663664 68.246534 
L 236.967598 74.47786 
L 269.271533 79.961963 
L 301.575468 83.32387 
L 333.879403 86.559234 
L 366.183338 92.716668 
L 398.487273 98.23938 
" clip-path="url(#p8fd2c062a3)" style="fill: none; stroke: #937860; stroke-width: 1.5; stroke-linecap: round"/>
    <defs>
     <path id="m93d7ab077d" d="M 0 -5 
L -1.767767 -1.767767 
L -5 -0 
L -1.767767 1.767767 
L -0 5 
L 1.767767 1.767767 
L 5 0 
L 1.767767 -1.767767 
z
" style="stroke: #ffffff; stroke-width: 0.75; stroke-linejoin: bevel"/>
    </defs>
    <g clip-path="url(#p8fd2c062a3)">
     <use xlink:href="#m93d7ab077d" x="73.832727" y="59.231273" style="fill: #937860; stroke: #ffffff; stroke-width: 0.75; stroke-linejoin: bevel"/>
     <use xlink:href="#m93d7ab077d" x="107.751859" y="55.600374" style="fill: #937860; stroke: #ffffff; stroke-width: 0.75; stroke-linejoin: bevel"/>
     <use xlink:href="#m93d7ab077d" x="140.055794" y="61.80862" style="fill: #937860; stroke: #ffffff; stroke-width: 0.75; stroke-linejoin: bevel"/>
     <use xlink:href="#m93d7ab077d" x="172.359729" y="66.082164" style="fill: #937860; stroke: #ffffff; stroke-width: 0.75; stroke-linejoin: bevel"/>
     <use xlink:href="#m93d7ab077d" x="204.663664" y="68.246534" style="fill: #937860; stroke: #ffffff; stroke-width: 0.75; stroke-linejoin: bevel"/>
     <use xlink:href="#m93d7ab077d" x="236.967598" y="74.47786" style="fill: #937860; stroke: #ffffff; stroke-width: 0.75; stroke-linejoin: bevel"/>
     <use xlink:href="#m93d7ab077d" x="269.271533" y="79.961963" style="fill: #937860; stroke: #ffffff; stroke-width: 0.75; stroke-linejoin: bevel"/>
     <use xlink:href="#m93d7ab077d" x="301.575468" y="83.32387" style="fill: #937860; stroke: #ffffff; stroke-width: 0.75; stroke-linejoin: bevel"/>
     <use xlink:href="#m93d7ab077d" x="333.879403" y="86.559234" style="fill: #937860; stroke: #ffffff; stroke-width: 0.75; stroke-linejoin: bevel"/>
     <use xlink:href="#m93d7ab077d" x="366.183338" y="92.716668" style="fill: #937860; stroke: #ffffff; stroke-width: 0.75; stroke-linejoin: bevel"/>
     <use xlink:href="#m93d7ab077d" x="398.487273" y="98.23938" style="fill: #937860; stroke: #ffffff; stroke-width: 0.75; stroke-linejoin: bevel"/>
    </g>
   </g>
   <g id="line2d_20"/>
   <g id="line2d_21"/>
   <g id="line2d_22"/>
   <g id="line2d_23"/>
   <g id="line2d_24"/>
   <g id="line2d_25"/>
   <g id="patch_3">
    <path d="M 57.6 307.584 
L 57.6 41.472 
" style="fill: none; stroke: #ffffff; stroke-width: 1.25; stroke-linejoin: miter; stroke-linecap: square"/>
   </g>
   <g id="patch_4">
    <path d="M 414.72 307.584 
L 414.72 41.472 
" style="fill: none; stroke: #ffffff; stroke-width: 1.25; stroke-linejoin: miter; stroke-linecap: square"/>
   </g>
   <g id="patch_5">
    <path d="M 57.6 307.584 
L 414.72 307.584 
" style="fill: none; stroke: #ffffff; stroke-width: 1.25; stroke-linejoin: miter; stroke-linecap: square"/>
   </g>
   <g id="patch_6">
    <path d="M 57.6 41.472 
L 414.72 41.472 
" style="fill: none; stroke: #ffffff; stroke-width: 1.25; stroke-linejoin: miter; stroke-linecap: square"/>
   </g>
   <g id="text_16">
    <!-- Time taken - log scale -->
    <g style="fill: #262626" transform="translate(177.698438 35.472) scale(0.12 -0.12)">
     <defs>
      <path id="ArialMT-2d" d="M 203 1375 
L 203 1941 
L 1931 1941 
L 1931 1375 
L 203 1375 
z
" transform="scale(0.015625)"/>
      <path id="ArialMT-63" d="M 2588 1216 
L 3141 1144 
Q 3050 572 2676 248 
Q 2303 -75 1759 -75 
Q 1078 -75 664 370 
Q 250 816 250 1647 
Q 250 2184 428 2587 
Q 606 2991 970 3192 
Q 1334 3394 1763 3394 
Q 2303 3394 2647 3120 
Q 2991 2847 3088 2344 
L 2541 2259 
Q 2463 2594 2264 2762 
Q 2066 2931 1784 2931 
Q 1359 2931 1093 2626 
Q 828 2322 828 1663 
Q 828 994 1084 691 
Q 1341 388 1753 388 
Q 2084 388 2306 591 
Q 2528 794 2588 1216 
z
" transform="scale(0.015625)"/>
     </defs>
     <use xlink:href="#ArialMT-54"/>
     <use xlink:href="#ArialMT-69" x="57.333984"/>
     <use xlink:href="#ArialMT-6d" x="79.550781"/>
     <use xlink:href="#ArialMT-65" x="162.851562"/>
     <use xlink:href="#ArialMT-20" x="218.466797"/>
     <use xlink:href="#ArialMT-74" x="246.25"/>
     <use xlink:href="#ArialMT-61" x="274.033203"/>
     <use xlink:href="#ArialMT-6b" x="329.648438"/>
     <use xlink:href="#ArialMT-65" x="379.648438"/>
     <use xlink:href="#ArialMT-6e" x="435.263672"/>
     <use xlink:href="#ArialMT-20" x="490.878906"/>
     <use xlink:href="#ArialMT-2d" x="518.662109"/>
     <use xlink:href="#ArialMT-20" x="551.962891"/>
     <use xlink:href="#ArialMT-6c" x="579.746094"/>
     <use xlink:href="#ArialMT-6f" x="601.962891"/>
     <use xlink:href="#ArialMT-67" x="657.578125"/>
     <use xlink:href="#ArialMT-20" x="713.193359"/>
     <use xlink:href="#ArialMT-73" x="740.976562"/>
     <use xlink:href="#ArialMT-63" x="790.976562"/>
     <use xlink:href="#ArialMT-61" x="840.976562"/>
     <use xlink:href="#ArialMT-6c" x="896.591797"/>
     <use xlink:href="#ArialMT-65" x="918.808594"/>
    </g>
   </g>
  </g>
 </g>
 <defs>
  <clipPath id="p8fd2c062a3">
   <rect x="57.6" y="41.472" width="357.12" height="266.112"/>
  </clipPath>
 </defs>
</svg>
