<?xml version="1.0" encoding="utf-8" standalone="no"?>
<!DOCTYPE svg PUBLIC "-//W3C//DTD SVG 1.1//EN"
  "http://www.w3.org/Graphics/SVG/1.1/DTD/svg11.dtd">
<svg xmlns:xlink="http://www.w3.org/1999/xlink" width="648pt" height="648pt" viewBox="0 0 648 648" xmlns="http://www.w3.org/2000/svg" version="1.1">
 <metadata>
  <rdf:RDF xmlns:dc="http://purl.org/dc/elements/1.1/" xmlns:cc="http://creativecommons.org/ns#" xmlns:rdf="http://www.w3.org/1999/02/22-rdf-syntax-ns#">
   <cc:Work>
    <dc:type rdf:resource="http://purl.org/dc/dcmitype/StillImage"/>
    <dc:date>2023-10-02T17:15:42.047583</dc:date>
    <dc:format>image/svg+xml</dc:format>
    <dc:creator>
     <cc:Agent>
      <dc:title>Matplotlib v3.8.0, https://matplotlib.org/</dc:title>
     </cc:Agent>
    </dc:creator>
   </cc:Work>
  </rdf:RDF>
 </metadata>
 <defs>
  <style type="text/css">*{stroke-linejoin: round; stroke-linecap: butt}</style>
 </defs>
 <g id="figure_1">
  <g id="patch_1">
   <path d="M 0 648 
L 648 648 
L 648 0 
L 0 0 
z
" style="fill: #ffffff"/>
  </g>
  <g id="axes_1">
   <g id="patch_2">
    <path d="M 81 576.72 
L 583.2 576.72 
L 583.2 77.76 
L 81 77.76 
z
" style="fill: #eaeaf2"/>
   </g>
   <g id="matplotlib.axis_1">
    <g id="xtick_1">
     <g id="line2d_1">
      <path d="M 136.8 576.72 
L 136.8 77.76 
" clip-path="url(#pc416312a1e)" style="fill: none; stroke: #ffffff; stroke-width: 0.8; stroke-linecap: round"/>
     </g>
     <g id="text_1">
      <!-- -2.0 -->
      <g style="fill: #262626" transform="translate(128.185156 590.877813) scale(0.1 -0.1)">
       <defs>
        <path id="ArialMT-2d" d="M 203 1375 
L 203 1941 
L 1931 1941 
L 1931 1375 
L 203 1375 
z
" transform="scale(0.015625)"/>
        <path id="ArialMT-32" d="M 3222 541 
L 3222 0 
L 194 0 
Q 188 203 259 391 
Q 375 700 629 1000 
Q 884 1300 1366 1694 
Q 2113 2306 2375 2664 
Q 2638 3022 2638 3341 
Q 2638 3675 2398 3904 
Q 2159 4134 1775 4134 
Q 1369 4134 1125 3890 
Q 881 3647 878 3216 
L 300 3275 
Q 359 3922 746 4261 
Q 1134 4600 1788 4600 
Q 2447 4600 2831 4234 
Q 3216 3869 3216 3328 
Q 3216 3053 3103 2787 
Q 2991 2522 2730 2228 
Q 2469 1934 1863 1422 
Q 1356 997 1212 845 
Q 1069 694 975 541 
L 3222 541 
z
" transform="scale(0.015625)"/>
        <path id="ArialMT-2e" d="M 581 0 
L 581 641 
L 1222 641 
L 1222 0 
L 581 0 
z
" transform="scale(0.015625)"/>
        <path id="ArialMT-30" d="M 266 2259 
Q 266 3072 433 3567 
Q 600 4063 929 4331 
Q 1259 4600 1759 4600 
Q 2128 4600 2406 4451 
Q 2684 4303 2865 4023 
Q 3047 3744 3150 3342 
Q 3253 2941 3253 2259 
Q 3253 1453 3087 958 
Q 2922 463 2592 192 
Q 2263 -78 1759 -78 
Q 1097 -78 719 397 
Q 266 969 266 2259 
z
M 844 2259 
Q 844 1131 1108 757 
Q 1372 384 1759 384 
Q 2147 384 2411 759 
Q 2675 1134 2675 2259 
Q 2675 3391 2411 3762 
Q 2147 4134 1753 4134 
Q 1366 4134 1134 3806 
Q 844 3388 844 2259 
z
" transform="scale(0.015625)"/>
       </defs>
       <use xlink:href="#ArialMT-2d"/>
       <use xlink:href="#ArialMT-32" x="33.300781"/>
       <use xlink:href="#ArialMT-2e" x="88.916016"/>
       <use xlink:href="#ArialMT-30" x="116.699219"/>
      </g>
     </g>
    </g>
    <g id="xtick_2">
     <g id="line2d_2">
      <path d="M 248.4 576.72 
L 248.4 77.76 
" clip-path="url(#pc416312a1e)" style="fill: none; stroke: #ffffff; stroke-width: 0.8; stroke-linecap: round"/>
     </g>
     <g id="text_2">
      <!-- 0.0 -->
      <g style="fill: #262626" transform="translate(241.45 590.877813) scale(0.1 -0.1)">
       <use xlink:href="#ArialMT-30"/>
       <use xlink:href="#ArialMT-2e" x="55.615234"/>
       <use xlink:href="#ArialMT-30" x="83.398438"/>
      </g>
     </g>
    </g>
    <g id="xtick_3">
     <g id="line2d_3">
      <path d="M 360 576.72 
L 360 77.76 
" clip-path="url(#pc416312a1e)" style="fill: none; stroke: #ffffff; stroke-width: 0.8; stroke-linecap: round"/>
     </g>
     <g id="text_3">
      <!-- 2.0 -->
      <g style="fill: #262626" transform="translate(353.05 590.877813) scale(0.1 -0.1)">
       <use xlink:href="#ArialMT-32"/>
       <use xlink:href="#ArialMT-2e" x="55.615234"/>
       <use xlink:href="#ArialMT-30" x="83.398438"/>
      </g>
     </g>
    </g>
    <g id="xtick_4">
     <g id="line2d_4">
      <path d="M 471.6 576.72 
L 471.6 77.76 
" clip-path="url(#pc416312a1e)" style="fill: none; stroke: #ffffff; stroke-width: 0.8; stroke-linecap: round"/>
     </g>
     <g id="text_4">
      <!-- 4.0 -->
      <g style="fill: #262626" transform="translate(464.65 590.877813) scale(0.1 -0.1)">
       <defs>
        <path id="ArialMT-34" d="M 2069 0 
L 2069 1097 
L 81 1097 
L 81 1613 
L 2172 4581 
L 2631 4581 
L 2631 1613 
L 3250 1613 
L 3250 1097 
L 2631 1097 
L 2631 0 
L 2069 0 
z
M 2069 1613 
L 2069 3678 
L 634 1613 
L 2069 1613 
z
" transform="scale(0.015625)"/>
       </defs>
       <use xlink:href="#ArialMT-34"/>
       <use xlink:href="#ArialMT-2e" x="55.615234"/>
       <use xlink:href="#ArialMT-30" x="83.398438"/>
      </g>
     </g>
    </g>
    <g id="xtick_5">
     <g id="line2d_5">
      <path d="M 583.2 576.72 
L 583.2 77.76 
" clip-path="url(#pc416312a1e)" style="fill: none; stroke: #ffffff; stroke-width: 0.8; stroke-linecap: round"/>
     </g>
     <g id="text_5">
      <!-- 6.0 -->
      <g style="fill: #262626" transform="translate(576.25 590.877813) scale(0.1 -0.1)">
       <defs>
        <path id="ArialMT-36" d="M 3184 3459 
L 2625 3416 
Q 2550 3747 2413 3897 
Q 2184 4138 1850 4138 
Q 1581 4138 1378 3988 
Q 1113 3794 959 3422 
Q 806 3050 800 2363 
Q 1003 2672 1297 2822 
Q 1591 2972 1913 2972 
Q 2475 2972 2870 2558 
Q 3266 2144 3266 1488 
Q 3266 1056 3080 686 
Q 2894 316 2569 119 
Q 2244 -78 1831 -78 
Q 1128 -78 684 439 
Q 241 956 241 2144 
Q 241 3472 731 4075 
Q 1159 4600 1884 4600 
Q 2425 4600 2770 4297 
Q 3116 3994 3184 3459 
z
M 888 1484 
Q 888 1194 1011 928 
Q 1134 663 1356 523 
Q 1578 384 1822 384 
Q 2178 384 2434 671 
Q 2691 959 2691 1453 
Q 2691 1928 2437 2201 
Q 2184 2475 1800 2475 
Q 1419 2475 1153 2201 
Q 888 1928 888 1484 
z
" transform="scale(0.015625)"/>
       </defs>
       <use xlink:href="#ArialMT-36"/>
       <use xlink:href="#ArialMT-2e" x="55.615234"/>
       <use xlink:href="#ArialMT-30" x="83.398438"/>
      </g>
     </g>
    </g>
    <g id="text_6">
     <!-- Shock normal distance (mm) -->
     <g style="fill: #262626" transform="translate(268.473438 604.145) scale(0.1 -0.1)">
      <defs>
       <path id="ArialMT-53" d="M 288 1472 
L 859 1522 
Q 900 1178 1048 958 
Q 1197 738 1509 602 
Q 1822 466 2213 466 
Q 2559 466 2825 569 
Q 3091 672 3220 851 
Q 3350 1031 3350 1244 
Q 3350 1459 3225 1620 
Q 3100 1781 2813 1891 
Q 2628 1963 1997 2114 
Q 1366 2266 1113 2400 
Q 784 2572 623 2826 
Q 463 3081 463 3397 
Q 463 3744 659 4045 
Q 856 4347 1234 4503 
Q 1613 4659 2075 4659 
Q 2584 4659 2973 4495 
Q 3363 4331 3572 4012 
Q 3781 3694 3797 3291 
L 3216 3247 
Q 3169 3681 2898 3903 
Q 2628 4125 2100 4125 
Q 1550 4125 1298 3923 
Q 1047 3722 1047 3438 
Q 1047 3191 1225 3031 
Q 1400 2872 2139 2705 
Q 2878 2538 3153 2413 
Q 3553 2228 3743 1945 
Q 3934 1663 3934 1294 
Q 3934 928 3725 604 
Q 3516 281 3123 101 
Q 2731 -78 2241 -78 
Q 1619 -78 1198 103 
Q 778 284 539 648 
Q 300 1013 288 1472 
z
" transform="scale(0.015625)"/>
       <path id="ArialMT-68" d="M 422 0 
L 422 4581 
L 984 4581 
L 984 2938 
Q 1378 3394 1978 3394 
Q 2347 3394 2619 3248 
Q 2891 3103 3008 2847 
Q 3125 2591 3125 2103 
L 3125 0 
L 2563 0 
L 2563 2103 
Q 2563 2525 2380 2717 
Q 2197 2909 1863 2909 
Q 1613 2909 1392 2779 
Q 1172 2650 1078 2428 
Q 984 2206 984 1816 
L 984 0 
L 422 0 
z
" transform="scale(0.015625)"/>
       <path id="ArialMT-6f" d="M 213 1659 
Q 213 2581 725 3025 
Q 1153 3394 1769 3394 
Q 2453 3394 2887 2945 
Q 3322 2497 3322 1706 
Q 3322 1066 3130 698 
Q 2938 331 2570 128 
Q 2203 -75 1769 -75 
Q 1072 -75 642 372 
Q 213 819 213 1659 
z
M 791 1659 
Q 791 1022 1069 705 
Q 1347 388 1769 388 
Q 2188 388 2466 706 
Q 2744 1025 2744 1678 
Q 2744 2294 2464 2611 
Q 2184 2928 1769 2928 
Q 1347 2928 1069 2612 
Q 791 2297 791 1659 
z
" transform="scale(0.015625)"/>
       <path id="ArialMT-63" d="M 2588 1216 
L 3141 1144 
Q 3050 572 2676 248 
Q 2303 -75 1759 -75 
Q 1078 -75 664 370 
Q 250 816 250 1647 
Q 250 2184 428 2587 
Q 606 2991 970 3192 
Q 1334 3394 1763 3394 
Q 2303 3394 2647 3120 
Q 2991 2847 3088 2344 
L 2541 2259 
Q 2463 2594 2264 2762 
Q 2066 2931 1784 2931 
Q 1359 2931 1093 2626 
Q 828 2322 828 1663 
Q 828 994 1084 691 
Q 1341 388 1753 388 
Q 2084 388 2306 591 
Q 2528 794 2588 1216 
z
" transform="scale(0.015625)"/>
       <path id="ArialMT-6b" d="M 425 0 
L 425 4581 
L 988 4581 
L 988 1969 
L 2319 3319 
L 3047 3319 
L 1778 2088 
L 3175 0 
L 2481 0 
L 1384 1697 
L 988 1316 
L 988 0 
L 425 0 
z
" transform="scale(0.015625)"/>
       <path id="ArialMT-20" transform="scale(0.015625)"/>
       <path id="ArialMT-6e" d="M 422 0 
L 422 3319 
L 928 3319 
L 928 2847 
Q 1294 3394 1984 3394 
Q 2284 3394 2536 3286 
Q 2788 3178 2913 3003 
Q 3038 2828 3088 2588 
Q 3119 2431 3119 2041 
L 3119 0 
L 2556 0 
L 2556 2019 
Q 2556 2363 2490 2533 
Q 2425 2703 2258 2804 
Q 2091 2906 1866 2906 
Q 1506 2906 1245 2678 
Q 984 2450 984 1813 
L 984 0 
L 422 0 
z
" transform="scale(0.015625)"/>
       <path id="ArialMT-72" d="M 416 0 
L 416 3319 
L 922 3319 
L 922 2816 
Q 1116 3169 1280 3281 
Q 1444 3394 1641 3394 
Q 1925 3394 2219 3213 
L 2025 2691 
Q 1819 2813 1613 2813 
Q 1428 2813 1281 2702 
Q 1134 2591 1072 2394 
Q 978 2094 978 1738 
L 978 0 
L 416 0 
z
" transform="scale(0.015625)"/>
       <path id="ArialMT-6d" d="M 422 0 
L 422 3319 
L 925 3319 
L 925 2853 
Q 1081 3097 1340 3245 
Q 1600 3394 1931 3394 
Q 2300 3394 2536 3241 
Q 2772 3088 2869 2813 
Q 3263 3394 3894 3394 
Q 4388 3394 4653 3120 
Q 4919 2847 4919 2278 
L 4919 0 
L 4359 0 
L 4359 2091 
Q 4359 2428 4304 2576 
Q 4250 2725 4106 2815 
Q 3963 2906 3769 2906 
Q 3419 2906 3187 2673 
Q 2956 2441 2956 1928 
L 2956 0 
L 2394 0 
L 2394 2156 
Q 2394 2531 2256 2718 
Q 2119 2906 1806 2906 
Q 1569 2906 1367 2781 
Q 1166 2656 1075 2415 
Q 984 2175 984 1722 
L 984 0 
L 422 0 
z
" transform="scale(0.015625)"/>
       <path id="ArialMT-61" d="M 2588 409 
Q 2275 144 1986 34 
Q 1697 -75 1366 -75 
Q 819 -75 525 192 
Q 231 459 231 875 
Q 231 1119 342 1320 
Q 453 1522 633 1644 
Q 813 1766 1038 1828 
Q 1203 1872 1538 1913 
Q 2219 1994 2541 2106 
Q 2544 2222 2544 2253 
Q 2544 2597 2384 2738 
Q 2169 2928 1744 2928 
Q 1347 2928 1158 2789 
Q 969 2650 878 2297 
L 328 2372 
Q 403 2725 575 2942 
Q 747 3159 1072 3276 
Q 1397 3394 1825 3394 
Q 2250 3394 2515 3294 
Q 2781 3194 2906 3042 
Q 3031 2891 3081 2659 
Q 3109 2516 3109 2141 
L 3109 1391 
Q 3109 606 3145 398 
Q 3181 191 3288 0 
L 2700 0 
Q 2613 175 2588 409 
z
M 2541 1666 
Q 2234 1541 1622 1453 
Q 1275 1403 1131 1340 
Q 988 1278 909 1158 
Q 831 1038 831 891 
Q 831 666 1001 516 
Q 1172 366 1500 366 
Q 1825 366 2078 508 
Q 2331 650 2450 897 
Q 2541 1088 2541 1459 
L 2541 1666 
z
" transform="scale(0.015625)"/>
       <path id="ArialMT-6c" d="M 409 0 
L 409 4581 
L 972 4581 
L 972 0 
L 409 0 
z
" transform="scale(0.015625)"/>
       <path id="ArialMT-64" d="M 2575 0 
L 2575 419 
Q 2259 -75 1647 -75 
Q 1250 -75 917 144 
Q 584 363 401 755 
Q 219 1147 219 1656 
Q 219 2153 384 2558 
Q 550 2963 881 3178 
Q 1213 3394 1622 3394 
Q 1922 3394 2156 3267 
Q 2391 3141 2538 2938 
L 2538 4581 
L 3097 4581 
L 3097 0 
L 2575 0 
z
M 797 1656 
Q 797 1019 1065 703 
Q 1334 388 1700 388 
Q 2069 388 2326 689 
Q 2584 991 2584 1609 
Q 2584 2291 2321 2609 
Q 2059 2928 1675 2928 
Q 1300 2928 1048 2622 
Q 797 2316 797 1656 
z
" transform="scale(0.015625)"/>
       <path id="ArialMT-69" d="M 425 3934 
L 425 4581 
L 988 4581 
L 988 3934 
L 425 3934 
z
M 425 0 
L 425 3319 
L 988 3319 
L 988 0 
L 425 0 
z
" transform="scale(0.015625)"/>
       <path id="ArialMT-73" d="M 197 991 
L 753 1078 
Q 800 744 1014 566 
Q 1228 388 1613 388 
Q 2000 388 2187 545 
Q 2375 703 2375 916 
Q 2375 1106 2209 1216 
Q 2094 1291 1634 1406 
Q 1016 1563 777 1677 
Q 538 1791 414 1992 
Q 291 2194 291 2438 
Q 291 2659 392 2848 
Q 494 3038 669 3163 
Q 800 3259 1026 3326 
Q 1253 3394 1513 3394 
Q 1903 3394 2198 3281 
Q 2494 3169 2634 2976 
Q 2775 2784 2828 2463 
L 2278 2388 
Q 2241 2644 2061 2787 
Q 1881 2931 1553 2931 
Q 1166 2931 1000 2803 
Q 834 2675 834 2503 
Q 834 2394 903 2306 
Q 972 2216 1119 2156 
Q 1203 2125 1616 2013 
Q 2213 1853 2448 1751 
Q 2684 1650 2818 1456 
Q 2953 1263 2953 975 
Q 2953 694 2789 445 
Q 2625 197 2315 61 
Q 2006 -75 1616 -75 
Q 969 -75 630 194 
Q 291 463 197 991 
z
" transform="scale(0.015625)"/>
       <path id="ArialMT-74" d="M 1650 503 
L 1731 6 
Q 1494 -44 1306 -44 
Q 1000 -44 831 53 
Q 663 150 594 308 
Q 525 466 525 972 
L 525 2881 
L 113 2881 
L 113 3319 
L 525 3319 
L 525 4141 
L 1084 4478 
L 1084 3319 
L 1650 3319 
L 1650 2881 
L 1084 2881 
L 1084 941 
Q 1084 700 1114 631 
Q 1144 563 1211 522 
Q 1278 481 1403 481 
Q 1497 481 1650 503 
z
" transform="scale(0.015625)"/>
       <path id="ArialMT-65" d="M 2694 1069 
L 3275 997 
Q 3138 488 2766 206 
Q 2394 -75 1816 -75 
Q 1088 -75 661 373 
Q 234 822 234 1631 
Q 234 2469 665 2931 
Q 1097 3394 1784 3394 
Q 2450 3394 2872 2941 
Q 3294 2488 3294 1666 
Q 3294 1616 3291 1516 
L 816 1516 
Q 847 969 1125 678 
Q 1403 388 1819 388 
Q 2128 388 2347 550 
Q 2566 713 2694 1069 
z
M 847 1978 
L 2700 1978 
Q 2663 2397 2488 2606 
Q 2219 2931 1791 2931 
Q 1403 2931 1139 2672 
Q 875 2413 847 1978 
z
" transform="scale(0.015625)"/>
       <path id="ArialMT-28" d="M 1497 -1347 
Q 1031 -759 709 28 
Q 388 816 388 1659 
Q 388 2403 628 3084 
Q 909 3875 1497 4659 
L 1900 4659 
Q 1522 4009 1400 3731 
Q 1209 3300 1100 2831 
Q 966 2247 966 1656 
Q 966 153 1900 -1347 
L 1497 -1347 
z
" transform="scale(0.015625)"/>
       <path id="ArialMT-29" d="M 791 -1347 
L 388 -1347 
Q 1322 153 1322 1656 
Q 1322 2244 1188 2822 
Q 1081 3291 891 3722 
Q 769 4003 388 4659 
L 791 4659 
Q 1378 3875 1659 3084 
Q 1900 2403 1900 1659 
Q 1900 816 1576 28 
Q 1253 -759 791 -1347 
z
" transform="scale(0.015625)"/>
      </defs>
      <use xlink:href="#ArialMT-53"/>
      <use xlink:href="#ArialMT-68" x="66.699219"/>
      <use xlink:href="#ArialMT-6f" x="122.314453"/>
      <use xlink:href="#ArialMT-63" x="177.929688"/>
      <use xlink:href="#ArialMT-6b" x="227.929688"/>
      <use xlink:href="#ArialMT-20" x="277.929688"/>
      <use xlink:href="#ArialMT-6e" x="305.712891"/>
      <use xlink:href="#ArialMT-6f" x="361.328125"/>
      <use xlink:href="#ArialMT-72" x="416.943359"/>
      <use xlink:href="#ArialMT-6d" x="450.244141"/>
      <use xlink:href="#ArialMT-61" x="533.544922"/>
      <use xlink:href="#ArialMT-6c" x="589.160156"/>
      <use xlink:href="#ArialMT-20" x="611.376953"/>
      <use xlink:href="#ArialMT-64" x="639.160156"/>
      <use xlink:href="#ArialMT-69" x="694.775391"/>
      <use xlink:href="#ArialMT-73" x="716.992188"/>
      <use xlink:href="#ArialMT-74" x="766.992188"/>
      <use xlink:href="#ArialMT-61" x="794.775391"/>
      <use xlink:href="#ArialMT-6e" x="850.390625"/>
      <use xlink:href="#ArialMT-63" x="906.005859"/>
      <use xlink:href="#ArialMT-65" x="956.005859"/>
      <use xlink:href="#ArialMT-20" x="1011.621094"/>
      <use xlink:href="#ArialMT-28" x="1039.404297"/>
      <use xlink:href="#ArialMT-6d" x="1072.705078"/>
      <use xlink:href="#ArialMT-6d" x="1156.005859"/>
      <use xlink:href="#ArialMT-29" x="1239.306641"/>
     </g>
    </g>
   </g>
   <g id="matplotlib.axis_2">
    <g id="ytick_1">
     <g id="line2d_6">
      <path d="M 81 569.692394 
L 583.2 569.692394 
" clip-path="url(#pc416312a1e)" style="fill: none; stroke: #ffffff; stroke-width: 0.8; stroke-linecap: round"/>
     </g>
     <g id="text_7">
      <!-- −0.2 -->
      <g style="fill: #262626" transform="translate(54.259375 573.271301) scale(0.1 -0.1)">
       <defs>
        <path id="ArialMT-2212" d="M 3381 1997 
L 356 1997 
L 356 2522 
L 3381 2522 
L 3381 1997 
z
" transform="scale(0.015625)"/>
       </defs>
       <use xlink:href="#ArialMT-2212"/>
       <use xlink:href="#ArialMT-30" x="58.398438"/>
       <use xlink:href="#ArialMT-2e" x="114.013672"/>
       <use xlink:href="#ArialMT-32" x="141.796875"/>
      </g>
     </g>
    </g>
    <g id="ytick_2">
     <g id="line2d_7">
      <path d="M 81 499.416338 
L 583.2 499.416338 
" clip-path="url(#pc416312a1e)" style="fill: none; stroke: #ffffff; stroke-width: 0.8; stroke-linecap: round"/>
     </g>
     <g id="text_8">
      <!-- 0.0 -->
      <g style="fill: #262626" transform="translate(60.1 502.995244) scale(0.1 -0.1)">
       <use xlink:href="#ArialMT-30"/>
       <use xlink:href="#ArialMT-2e" x="55.615234"/>
       <use xlink:href="#ArialMT-30" x="83.398438"/>
      </g>
     </g>
    </g>
    <g id="ytick_3">
     <g id="line2d_8">
      <path d="M 81 429.140282 
L 583.2 429.140282 
" clip-path="url(#pc416312a1e)" style="fill: none; stroke: #ffffff; stroke-width: 0.8; stroke-linecap: round"/>
     </g>
     <g id="text_9">
      <!-- 0.2 -->
      <g style="fill: #262626" transform="translate(60.1 432.719188) scale(0.1 -0.1)">
       <use xlink:href="#ArialMT-30"/>
       <use xlink:href="#ArialMT-2e" x="55.615234"/>
       <use xlink:href="#ArialMT-32" x="83.398438"/>
      </g>
     </g>
    </g>
    <g id="ytick_4">
     <g id="line2d_9">
      <path d="M 81 358.864225 
L 583.2 358.864225 
" clip-path="url(#pc416312a1e)" style="fill: none; stroke: #ffffff; stroke-width: 0.8; stroke-linecap: round"/>
     </g>
     <g id="text_10">
      <!-- 0.4 -->
      <g style="fill: #262626" transform="translate(60.1 362.443132) scale(0.1 -0.1)">
       <use xlink:href="#ArialMT-30"/>
       <use xlink:href="#ArialMT-2e" x="55.615234"/>
       <use xlink:href="#ArialMT-34" x="83.398438"/>
      </g>
     </g>
    </g>
    <g id="ytick_5">
     <g id="line2d_10">
      <path d="M 81 288.588169 
L 583.2 288.588169 
" clip-path="url(#pc416312a1e)" style="fill: none; stroke: #ffffff; stroke-width: 0.8; stroke-linecap: round"/>
     </g>
     <g id="text_11">
      <!-- 0.6 -->
      <g style="fill: #262626" transform="translate(60.1 292.167075) scale(0.1 -0.1)">
       <use xlink:href="#ArialMT-30"/>
       <use xlink:href="#ArialMT-2e" x="55.615234"/>
       <use xlink:href="#ArialMT-36" x="83.398438"/>
      </g>
     </g>
    </g>
    <g id="ytick_6">
     <g id="line2d_11">
      <path d="M 81 218.312113 
L 583.2 218.312113 
" clip-path="url(#pc416312a1e)" style="fill: none; stroke: #ffffff; stroke-width: 0.8; stroke-linecap: round"/>
     </g>
     <g id="text_12">
      <!-- 0.8 -->
      <g style="fill: #262626" transform="translate(60.1 221.891019) scale(0.1 -0.1)">
       <defs>
        <path id="ArialMT-38" d="M 1131 2484 
Q 781 2613 612 2850 
Q 444 3088 444 3419 
Q 444 3919 803 4259 
Q 1163 4600 1759 4600 
Q 2359 4600 2725 4251 
Q 3091 3903 3091 3403 
Q 3091 3084 2923 2848 
Q 2756 2613 2416 2484 
Q 2838 2347 3058 2040 
Q 3278 1734 3278 1309 
Q 3278 722 2862 322 
Q 2447 -78 1769 -78 
Q 1091 -78 675 323 
Q 259 725 259 1325 
Q 259 1772 486 2073 
Q 713 2375 1131 2484 
z
M 1019 3438 
Q 1019 3113 1228 2906 
Q 1438 2700 1772 2700 
Q 2097 2700 2305 2904 
Q 2513 3109 2513 3406 
Q 2513 3716 2298 3927 
Q 2084 4138 1766 4138 
Q 1444 4138 1231 3931 
Q 1019 3725 1019 3438 
z
M 838 1322 
Q 838 1081 952 856 
Q 1066 631 1291 507 
Q 1516 384 1775 384 
Q 2178 384 2440 643 
Q 2703 903 2703 1303 
Q 2703 1709 2433 1975 
Q 2163 2241 1756 2241 
Q 1359 2241 1098 1978 
Q 838 1716 838 1322 
z
" transform="scale(0.015625)"/>
       </defs>
       <use xlink:href="#ArialMT-30"/>
       <use xlink:href="#ArialMT-2e" x="55.615234"/>
       <use xlink:href="#ArialMT-38" x="83.398438"/>
      </g>
     </g>
    </g>
    <g id="ytick_7">
     <g id="line2d_12">
      <path d="M 81 148.036056 
L 583.2 148.036056 
" clip-path="url(#pc416312a1e)" style="fill: none; stroke: #ffffff; stroke-width: 0.8; stroke-linecap: round"/>
     </g>
     <g id="text_13">
      <!-- 1.0 -->
      <g style="fill: #262626" transform="translate(60.1 151.614963) scale(0.1 -0.1)">
       <defs>
        <path id="ArialMT-31" d="M 2384 0 
L 1822 0 
L 1822 3584 
Q 1619 3391 1289 3197 
Q 959 3003 697 2906 
L 697 3450 
Q 1169 3672 1522 3987 
Q 1875 4303 2022 4600 
L 2384 4600 
L 2384 0 
z
" transform="scale(0.015625)"/>
       </defs>
       <use xlink:href="#ArialMT-31"/>
       <use xlink:href="#ArialMT-2e" x="55.615234"/>
       <use xlink:href="#ArialMT-30" x="83.398438"/>
      </g>
     </g>
    </g>
    <g id="ytick_8">
     <g id="line2d_13">
      <path d="M 81 77.76 
L 583.2 77.76 
" clip-path="url(#pc416312a1e)" style="fill: none; stroke: #ffffff; stroke-width: 0.8; stroke-linecap: round"/>
     </g>
     <g id="text_14">
      <!-- 1.2 -->
      <g style="fill: #262626" transform="translate(60.1 81.338906) scale(0.1 -0.1)">
       <use xlink:href="#ArialMT-31"/>
       <use xlink:href="#ArialMT-2e" x="55.615234"/>
       <use xlink:href="#ArialMT-32" x="83.398438"/>
      </g>
     </g>
    </g>
    <g id="text_15">
     <!-- Normalized shock-normal velocity -->
     <g style="fill: #262626" transform="translate(48.154687 401.982188) rotate(-90) scale(0.1 -0.1)">
      <defs>
       <path id="ArialMT-4e" d="M 488 0 
L 488 4581 
L 1109 4581 
L 3516 984 
L 3516 4581 
L 4097 4581 
L 4097 0 
L 3475 0 
L 1069 3600 
L 1069 0 
L 488 0 
z
" transform="scale(0.015625)"/>
       <path id="ArialMT-7a" d="M 125 0 
L 125 456 
L 2238 2881 
Q 1878 2863 1603 2863 
L 250 2863 
L 250 3319 
L 2963 3319 
L 2963 2947 
L 1166 841 
L 819 456 
Q 1197 484 1528 484 
L 3063 484 
L 3063 0 
L 125 0 
z
" transform="scale(0.015625)"/>
       <path id="ArialMT-76" d="M 1344 0 
L 81 3319 
L 675 3319 
L 1388 1331 
Q 1503 1009 1600 663 
Q 1675 925 1809 1294 
L 2547 3319 
L 3125 3319 
L 1869 0 
L 1344 0 
z
" transform="scale(0.015625)"/>
       <path id="ArialMT-79" d="M 397 -1278 
L 334 -750 
Q 519 -800 656 -800 
Q 844 -800 956 -737 
Q 1069 -675 1141 -563 
Q 1194 -478 1313 -144 
Q 1328 -97 1363 -6 
L 103 3319 
L 709 3319 
L 1400 1397 
Q 1534 1031 1641 628 
Q 1738 1016 1872 1384 
L 2581 3319 
L 3144 3319 
L 1881 -56 
Q 1678 -603 1566 -809 
Q 1416 -1088 1222 -1217 
Q 1028 -1347 759 -1347 
Q 597 -1347 397 -1278 
z
" transform="scale(0.015625)"/>
      </defs>
      <use xlink:href="#ArialMT-4e"/>
      <use xlink:href="#ArialMT-6f" x="72.216797"/>
      <use xlink:href="#ArialMT-72" x="127.832031"/>
      <use xlink:href="#ArialMT-6d" x="161.132812"/>
      <use xlink:href="#ArialMT-61" x="244.433594"/>
      <use xlink:href="#ArialMT-6c" x="300.048828"/>
      <use xlink:href="#ArialMT-69" x="322.265625"/>
      <use xlink:href="#ArialMT-7a" x="344.482422"/>
      <use xlink:href="#ArialMT-65" x="394.482422"/>
      <use xlink:href="#ArialMT-64" x="450.097656"/>
      <use xlink:href="#ArialMT-20" x="505.712891"/>
      <use xlink:href="#ArialMT-73" x="533.496094"/>
      <use xlink:href="#ArialMT-68" x="583.496094"/>
      <use xlink:href="#ArialMT-6f" x="639.111328"/>
      <use xlink:href="#ArialMT-63" x="694.726562"/>
      <use xlink:href="#ArialMT-6b" x="744.726562"/>
      <use xlink:href="#ArialMT-2d" x="794.726562"/>
      <use xlink:href="#ArialMT-6e" x="828.027344"/>
      <use xlink:href="#ArialMT-6f" x="883.642578"/>
      <use xlink:href="#ArialMT-72" x="939.257812"/>
      <use xlink:href="#ArialMT-6d" x="972.558594"/>
      <use xlink:href="#ArialMT-61" x="1055.859375"/>
      <use xlink:href="#ArialMT-6c" x="1111.474609"/>
      <use xlink:href="#ArialMT-20" x="1133.691406"/>
      <use xlink:href="#ArialMT-76" x="1161.474609"/>
      <use xlink:href="#ArialMT-65" x="1211.474609"/>
      <use xlink:href="#ArialMT-6c" x="1267.089844"/>
      <use xlink:href="#ArialMT-6f" x="1289.306641"/>
      <use xlink:href="#ArialMT-63" x="1344.921875"/>
      <use xlink:href="#ArialMT-69" x="1394.921875"/>
      <use xlink:href="#ArialMT-74" x="1417.138672"/>
      <use xlink:href="#ArialMT-79" x="1444.921875"/>
     </g>
    </g>
   </g>
   <g id="line2d_14">
    <path d="M 220.5 148.036056 
L 248.406777 148.087653 
L 251.218554 178.605859 
L 254.001477 206.423909 
L 256.759787 231.793634 
L 259.497394 254.942261 
L 262.205666 275.983429 
L 264.900627 295.210755 
L 267.585308 312.787694 
L 270.262518 328.861731 
L 272.923373 343.505553 
L 275.582078 356.911673 
L 278.229638 369.137808 
L 280.87955 380.340018 
L 283.533688 390.60512 
L 286.182945 399.975396 
L 288.83999 408.566345 
L 291.506313 416.442502 
L 294.172723 423.635532 
L 296.851249 430.231691 
L 299.553525 436.301928 
L 302.2701 441.864136 
L 305.012352 446.978069 
L 307.78111 451.676467 
L 310.58738 456.004923 
L 313.431782 459.987633 
L 316.325047 463.659903 
L 319.277742 467.051078 
L 322.300289 470.185604 
L 325.402996 473.083918 
L 328.596079 475.763197 
L 331.89964 478.245068 
L 335.32368 480.539622 
L 338.897996 482.666838 
L 342.642293 484.635597 
L 346.586076 486.456722 
L 350.758721 488.137189 
L 355.209195 489.687631 
L 359.976456 491.110514 
L 365.119012 492.410901 
L 370.714827 493.593779 
L 376.861266 494.662462 
L 383.684839 495.619196 
L 391.35093 496.465031 
L 400.102773 497.201735 
L 410.290573 497.830089 
L 422.47857 498.351478 
L 437.590898 498.76615 
L 457.427245 499.075746 
L 486.073358 499.282308 
L 535.88372 499.389864 
L 584.445833 499.41095 
L 584.445833 499.41095 
" clip-path="url(#pc416312a1e)" style="fill: none; stroke: #8000ff; stroke-width: 1.5; stroke-linecap: round"/>
   </g>
   <g id="line2d_15">
    <path d="M 220.5 148.036056 
L 248.324613 148.036056 
L 248.447856 148.372488 
L 251.688178 181.306056 
L 254.843535 211.149925 
L 257.934576 238.301161 
L 260.955293 262.895076 
L 263.91231 285.172539 
L 266.811626 305.351733 
L 269.658677 323.63029 
L 272.458385 340.187225 
L 275.226565 355.243887 
L 277.955593 368.876795 
L 280.649171 381.220579 
L 283.321588 392.441057 
L 285.964713 402.596361 
L 288.592044 411.82357 
L 291.205815 420.203922 
L 293.808075 427.811889 
L 296.400699 434.715712 
L 298.995793 441.001869 
L 301.584415 446.698922 
L 304.188552 451.898902 
L 306.799007 456.621109 
L 309.427044 460.921463 
L 312.083672 464.846494 
L 314.769606 468.422251 
L 317.495575 471.685119 
L 320.282151 474.675682 
L 323.129695 477.40707 
L 326.058483 479.909108 
L 329.078675 482.197535 
L 332.210272 484.292183 
L 335.483022 486.21356 
L 338.916636 487.97099 
L 342.550444 489.579646 
L 346.413782 491.045078 
L 350.555542 492.376497 
L 355.044068 493.582998 
L 359.947531 494.667292 
L 365.363316 495.633242 
L 371.42771 496.484469 
L 378.325598 497.222973 
L 386.339153 497.851114 
L 395.906168 498.370367 
L 407.765989 498.781896 
L 423.319464 499.087091 
L 445.854688 499.289089 
L 485.391455 499.392342 
L 594.343877 499.416097 
L 594.343877 499.416097 
" clip-path="url(#pc416312a1e)" style="fill: none; stroke: #ff0000; stroke-width: 1.5; stroke-linecap: round"/>
   </g>
   <g id="line2d_16">
    <defs>
     <path id="m670c74b696" d="M 0 -3 
L -0.673542 -0.927051 
L -2.85317 -0.927051 
L -1.089814 0.354102 
L -1.763356 2.427051 
L -0 1.145898 
L 1.763356 2.427051 
L 1.089814 0.354102 
L 2.85317 -0.927051 
L 0.673542 -0.927051 
z
" style="stroke: #000000; stroke-linejoin: bevel"/>
    </defs>
    <g clip-path="url(#pc416312a1e)">
     <use xlink:href="#m670c74b696" x="249.344966" y="154.957737" style="stroke: #000000; stroke-linejoin: bevel"/>
     <use xlink:href="#m670c74b696" x="250.099325" y="166.889644" style="stroke: #000000; stroke-linejoin: bevel"/>
     <use xlink:href="#m670c74b696" x="251.499842" y="178.779246" style="stroke: #000000; stroke-linejoin: bevel"/>
     <use xlink:href="#m670c74b696" x="252.408068" y="189.819565" style="stroke: #000000; stroke-linejoin: bevel"/>
     <use xlink:href="#m670c74b696" x="253.687785" y="202.770596" style="stroke: #000000; stroke-linejoin: bevel"/>
     <use xlink:href="#m670c74b696" x="255.089874" y="214.801495" style="stroke: #000000; stroke-linejoin: bevel"/>
     <use xlink:href="#m670c74b696" x="256.139761" y="227.44124" style="stroke: #000000; stroke-linejoin: bevel"/>
     <use xlink:href="#m670c74b696" x="257.384357" y="238.478955" style="stroke: #000000; stroke-linejoin: bevel"/>
     <use xlink:href="#m670c74b696" x="258.560931" y="251.126722" style="stroke: #000000; stroke-linejoin: bevel"/>
     <use xlink:href="#m670c74b696" x="260.265203" y="262.51483" style="stroke: #000000; stroke-linejoin: bevel"/>
     <use xlink:href="#m670c74b696" x="262.097275" y="274.80676" style="stroke: #000000; stroke-linejoin: bevel"/>
     <use xlink:href="#m670c74b696" x="263.602543" y="286.942958" style="stroke: #000000; stroke-linejoin: bevel"/>
     <use xlink:href="#m670c74b696" x="265.97628" y="303.2651" style="stroke: #000000; stroke-linejoin: bevel"/>
     <use xlink:href="#m670c74b696" x="268.285993" y="319.403484" style="stroke: #000000; stroke-linejoin: bevel"/>
     <use xlink:href="#m670c74b696" x="270.925607" y="332.430212" style="stroke: #000000; stroke-linejoin: bevel"/>
     <use xlink:href="#m670c74b696" x="272.907166" y="344.389626" style="stroke: #000000; stroke-linejoin: bevel"/>
     <use xlink:href="#m670c74b696" x="275.102427" y="356.141457" style="stroke: #000000; stroke-linejoin: bevel"/>
     <use xlink:href="#m670c74b696" x="278.016681" y="368.74247" style="stroke: #000000; stroke-linejoin: bevel"/>
     <use xlink:href="#m670c74b696" x="280.966812" y="381.62889" style="stroke: #000000; stroke-linejoin: bevel"/>
     <use xlink:href="#m670c74b696" x="283.689133" y="393.378382" style="stroke: #000000; stroke-linejoin: bevel"/>
     <use xlink:href="#m670c74b696" x="287.483657" y="405.837129" style="stroke: #000000; stroke-linejoin: bevel"/>
     <use xlink:href="#m670c74b696" x="291.825175" y="417.663838" style="stroke: #000000; stroke-linejoin: bevel"/>
     <use xlink:href="#m670c74b696" x="296.253976" y="429.228856" style="stroke: #000000; stroke-linejoin: bevel"/>
     <use xlink:href="#m670c74b696" x="301.668242" y="440.589523" style="stroke: #000000; stroke-linejoin: bevel"/>
     <use xlink:href="#m670c74b696" x="308.0679" y="451.90599" style="stroke: #000000; stroke-linejoin: bevel"/>
     <use xlink:href="#m670c74b696" x="315.945729" y="462.974976" style="stroke: #000000; stroke-linejoin: bevel"/>
     <use xlink:href="#m670c74b696" x="325.794685" y="473.212746" style="stroke: #000000; stroke-linejoin: bevel"/>
     <use xlink:href="#m670c74b696" x="336.629897" y="481.54552" style="stroke: #000000; stroke-linejoin: bevel"/>
     <use xlink:href="#m670c74b696" x="347.466356" y="487.191441" style="stroke: #000000; stroke-linejoin: bevel"/>
     <use xlink:href="#m670c74b696" x="358.303696" y="490.938035" style="stroke: #000000; stroke-linejoin: bevel"/>
     <use xlink:href="#m670c74b696" x="369.141552" y="493.572829" style="stroke: #000000; stroke-linejoin: bevel"/>
     <use xlink:href="#m670c74b696" x="379.979774" y="495.420096" style="stroke: #000000; stroke-linejoin: bevel"/>
     <use xlink:href="#m670c74b696" x="390.818232" y="496.757788" style="stroke: #000000; stroke-linejoin: bevel"/>
     <use xlink:href="#m670c74b696" x="401.656992" y="497.446929" style="stroke: #000000; stroke-linejoin: bevel"/>
     <use xlink:href="#m670c74b696" x="412.495816" y="497.997096" style="stroke: #000000; stroke-linejoin: bevel"/>
     <use xlink:href="#m670c74b696" x="423.334642" y="498.542722" style="stroke: #000000; stroke-linejoin: bevel"/>
     <use xlink:href="#m670c74b696" x="434.173704" y="498.578772" style="stroke: #000000; stroke-linejoin: bevel"/>
     <use xlink:href="#m670c74b696" x="445.012636" y="498.897313" style="stroke: #000000; stroke-linejoin: bevel"/>
     <use xlink:href="#m670c74b696" x="455.851718" y="498.891579" style="stroke: #000000; stroke-linejoin: bevel"/>
     <use xlink:href="#m670c74b696" x="466.69069" y="499.12201" style="stroke: #000000; stroke-linejoin: bevel"/>
     <use xlink:href="#m670c74b696" x="477.529772" y="499.116276" style="stroke: #000000; stroke-linejoin: bevel"/>
     <use xlink:href="#m670c74b696" x="488.368854" y="499.110541" style="stroke: #000000; stroke-linejoin: bevel"/>
     <use xlink:href="#m670c74b696" x="499.207936" y="499.104807" style="stroke: #000000; stroke-linejoin: bevel"/>
     <use xlink:href="#m670c74b696" x="510.047018" y="499.099072" style="stroke: #000000; stroke-linejoin: bevel"/>
     <use xlink:href="#m670c74b696" x="520.8861" y="499.093338" style="stroke: #000000; stroke-linejoin: bevel"/>
     <use xlink:href="#m670c74b696" x="531.725182" y="499.087604" style="stroke: #000000; stroke-linejoin: bevel"/>
     <use xlink:href="#m670c74b696" x="542.564264" y="499.081869" style="stroke: #000000; stroke-linejoin: bevel"/>
     <use xlink:href="#m670c74b696" x="553.403346" y="499.076135" style="stroke: #000000; stroke-linejoin: bevel"/>
     <use xlink:href="#m670c74b696" x="564.242318" y="499.306566" style="stroke: #000000; stroke-linejoin: bevel"/>
     <use xlink:href="#m670c74b696" x="575.0814" y="499.300832" style="stroke: #000000; stroke-linejoin: bevel"/>
     <use xlink:href="#m670c74b696" x="582.327647" y="499.285994" style="stroke: #000000; stroke-linejoin: bevel"/>
    </g>
   </g>
   <g id="patch_3">
    <path d="M 81 576.72 
L 81 77.76 
" style="fill: none; stroke: #ffffff; stroke-width: 0.8; stroke-linejoin: miter; stroke-linecap: square"/>
   </g>
   <g id="patch_4">
    <path d="M 583.2 576.72 
L 583.2 77.76 
" style="fill: none; stroke: #ffffff; stroke-width: 0.8; stroke-linejoin: miter; stroke-linecap: square"/>
   </g>
   <g id="patch_5">
    <path d="M 81 576.72 
L 583.2 576.72 
" style="fill: none; stroke: #ffffff; stroke-width: 0.8; stroke-linejoin: miter; stroke-linecap: square"/>
   </g>
   <g id="patch_6">
    <path d="M 81 77.76 
L 583.2 77.76 
" style="fill: none; stroke: #ffffff; stroke-width: 0.8; stroke-linejoin: miter; stroke-linecap: square"/>
   </g>
   <g id="legend_1">
    <g id="patch_7">
     <path d="M 462.673438 128.435 
L 576.2 128.435 
Q 578.2 128.435 578.2 126.435 
L 578.2 84.76 
Q 578.2 82.76 576.2 82.76 
L 462.673438 82.76 
Q 460.673438 82.76 460.673438 84.76 
L 460.673438 126.435 
Q 460.673438 128.435 462.673438 128.435 
z
" style="fill: #eaeaf2; opacity: 0.8; stroke: #cccccc; stroke-linejoin: miter"/>
    </g>
    <g id="line2d_17">
     <path d="M 464.673438 90.417812 
L 474.673438 90.417812 
L 484.673438 90.417812 
" style="fill: none; stroke: #8000ff; stroke-width: 1.5; stroke-linecap: round"/>
    </g>
    <g id="text_16">
     <!-- loth -->
     <g style="fill: #262626" transform="translate(492.673438 93.917812) scale(0.1 -0.1)">
      <use xlink:href="#ArialMT-6c"/>
      <use xlink:href="#ArialMT-6f" x="22.216797"/>
      <use xlink:href="#ArialMT-74" x="77.832031"/>
      <use xlink:href="#ArialMT-68" x="105.615234"/>
     </g>
    </g>
    <g id="line2d_18">
     <path d="M 464.673438 104.563125 
L 474.673438 104.563125 
L 484.673438 104.563125 
" style="fill: none; stroke: #ff0000; stroke-width: 1.5; stroke-linecap: round"/>
    </g>
    <g id="text_17">
     <!-- stokes -->
     <g style="fill: #262626" transform="translate(492.673438 108.063125) scale(0.1 -0.1)">
      <use xlink:href="#ArialMT-73"/>
      <use xlink:href="#ArialMT-74" x="50"/>
      <use xlink:href="#ArialMT-6f" x="77.783203"/>
      <use xlink:href="#ArialMT-6b" x="133.398438"/>
      <use xlink:href="#ArialMT-65" x="183.398438"/>
      <use xlink:href="#ArialMT-73" x="239.013672"/>
     </g>
    </g>
    <g id="line2d_19">
     <g>
      <use xlink:href="#m670c74b696" x="474.673438" y="118.830312" style="stroke: #000000; stroke-linejoin: bevel"/>
     </g>
    </g>
    <g id="text_18">
     <!-- Ragni et al. (2011) -->
     <g style="fill: #262626" transform="translate(492.673438 122.330312) scale(0.1 -0.1)">
      <defs>
       <path id="ArialMT-52" d="M 503 0 
L 503 4581 
L 2534 4581 
Q 3147 4581 3465 4457 
Q 3784 4334 3975 4021 
Q 4166 3709 4166 3331 
Q 4166 2844 3850 2509 
Q 3534 2175 2875 2084 
Q 3116 1969 3241 1856 
Q 3506 1613 3744 1247 
L 4541 0 
L 3778 0 
L 3172 953 
Q 2906 1366 2734 1584 
Q 2563 1803 2427 1890 
Q 2291 1978 2150 2013 
Q 2047 2034 1813 2034 
L 1109 2034 
L 1109 0 
L 503 0 
z
M 1109 2559 
L 2413 2559 
Q 2828 2559 3062 2645 
Q 3297 2731 3419 2920 
Q 3541 3109 3541 3331 
Q 3541 3656 3305 3865 
Q 3069 4075 2559 4075 
L 1109 4075 
L 1109 2559 
z
" transform="scale(0.015625)"/>
       <path id="ArialMT-67" d="M 319 -275 
L 866 -356 
Q 900 -609 1056 -725 
Q 1266 -881 1628 -881 
Q 2019 -881 2231 -725 
Q 2444 -569 2519 -288 
Q 2563 -116 2559 434 
Q 2191 0 1641 0 
Q 956 0 581 494 
Q 206 988 206 1678 
Q 206 2153 378 2554 
Q 550 2956 876 3175 
Q 1203 3394 1644 3394 
Q 2231 3394 2613 2919 
L 2613 3319 
L 3131 3319 
L 3131 450 
Q 3131 -325 2973 -648 
Q 2816 -972 2473 -1159 
Q 2131 -1347 1631 -1347 
Q 1038 -1347 672 -1080 
Q 306 -813 319 -275 
z
M 784 1719 
Q 784 1066 1043 766 
Q 1303 466 1694 466 
Q 2081 466 2343 764 
Q 2606 1063 2606 1700 
Q 2606 2309 2336 2618 
Q 2066 2928 1684 2928 
Q 1309 2928 1046 2623 
Q 784 2319 784 1719 
z
" transform="scale(0.015625)"/>
      </defs>
      <use xlink:href="#ArialMT-52"/>
      <use xlink:href="#ArialMT-61" x="72.216797"/>
      <use xlink:href="#ArialMT-67" x="127.832031"/>
      <use xlink:href="#ArialMT-6e" x="183.447266"/>
      <use xlink:href="#ArialMT-69" x="239.0625"/>
      <use xlink:href="#ArialMT-20" x="261.279297"/>
      <use xlink:href="#ArialMT-65" x="289.0625"/>
      <use xlink:href="#ArialMT-74" x="344.677734"/>
      <use xlink:href="#ArialMT-20" x="372.460938"/>
      <use xlink:href="#ArialMT-61" x="400.244141"/>
      <use xlink:href="#ArialMT-6c" x="455.859375"/>
      <use xlink:href="#ArialMT-2e" x="478.076172"/>
      <use xlink:href="#ArialMT-20" x="505.859375"/>
      <use xlink:href="#ArialMT-28" x="533.642578"/>
      <use xlink:href="#ArialMT-32" x="566.943359"/>
      <use xlink:href="#ArialMT-30" x="622.558594"/>
      <use xlink:href="#ArialMT-31" x="678.173828"/>
      <use xlink:href="#ArialMT-31" x="726.414062"/>
      <use xlink:href="#ArialMT-29" x="782.029297"/>
     </g>
    </g>
   </g>
  </g>
 </g>
 <defs>
  <clipPath id="pc416312a1e">
   <rect x="81" y="77.76" width="502.2" height="498.96"/>
  </clipPath>
 </defs>
</svg>
