<?xml version="1.0" encoding="utf-8" standalone="no"?>
<!DOCTYPE svg PUBLIC "-//W3C//DTD SVG 1.1//EN"
  "http://www.w3.org/Graphics/SVG/1.1/DTD/svg11.dtd">
<svg xmlns:xlink="http://www.w3.org/1999/xlink" width="460.8pt" height="345.6pt" viewBox="0 0 460.8 345.6" xmlns="http://www.w3.org/2000/svg" version="1.1">
 <metadata>
  <rdf:RDF xmlns:dc="http://purl.org/dc/elements/1.1/" xmlns:cc="http://creativecommons.org/ns#" xmlns:rdf="http://www.w3.org/1999/02/22-rdf-syntax-ns#">
   <cc:Work>
    <dc:type rdf:resource="http://purl.org/dc/dcmitype/StillImage"/>
    <dc:date>2023-09-20T14:18:18.973007</dc:date>
    <dc:format>image/svg+xml</dc:format>
    <dc:creator>
     <cc:Agent>
      <dc:title>Matplotlib v3.8.0rc1, https://matplotlib.org/</dc:title>
     </cc:Agent>
    </dc:creator>
   </cc:Work>
  </rdf:RDF>
 </metadata>
 <defs>
  <style type="text/css">*{stroke-linejoin: round; stroke-linecap: butt}</style>
 </defs>
 <g id="figure_1">
  <g id="patch_1">
   <path d="M 0 345.6 
L 460.8 345.6 
L 460.8 0 
L 0 0 
z
" style="fill: #ffffff"/>
  </g>
  <g id="axes_1">
   <g id="patch_2">
    <path d="M 57.6 307.584 
L 414.72 307.584 
L 414.72 41.472 
L 57.6 41.472 
z
" style="fill: #eaeaf2"/>
   </g>
   <g id="matplotlib.axis_1">
    <g id="xtick_1">
     <g id="line2d_1">
      <path d="M 84.320234 307.584 
L 84.320234 41.472 
" clip-path="url(#p5148e42969)" style="fill: none; stroke: #ffffff; stroke-width: 0.8; stroke-linecap: round"/>
     </g>
     <g id="text_1">
      <!-- 0.0 -->
      <g style="fill: #262626" transform="translate(77.370234 321.741812) scale(0.1 -0.1)">
       <defs>
        <path id="ArialMT-30" d="M 266 2259 
Q 266 3072 433 3567 
Q 600 4063 929 4331 
Q 1259 4600 1759 4600 
Q 2128 4600 2406 4451 
Q 2684 4303 2865 4023 
Q 3047 3744 3150 3342 
Q 3253 2941 3253 2259 
Q 3253 1453 3087 958 
Q 2922 463 2592 192 
Q 2263 -78 1759 -78 
Q 1097 -78 719 397 
Q 266 969 266 2259 
z
M 844 2259 
Q 844 1131 1108 757 
Q 1372 384 1759 384 
Q 2147 384 2411 759 
Q 2675 1134 2675 2259 
Q 2675 3391 2411 3762 
Q 2147 4134 1753 4134 
Q 1366 4134 1134 3806 
Q 844 3388 844 2259 
z
" transform="scale(0.015625)"/>
        <path id="ArialMT-2e" d="M 581 0 
L 581 641 
L 1222 641 
L 1222 0 
L 581 0 
z
" transform="scale(0.015625)"/>
       </defs>
       <use xlink:href="#ArialMT-30"/>
       <use xlink:href="#ArialMT-2e" x="55.615234"/>
       <use xlink:href="#ArialMT-30" x="83.398438"/>
      </g>
     </g>
    </g>
    <g id="xtick_2">
     <g id="line2d_2">
      <path d="M 126.270259 307.584 
L 126.270259 41.472 
" clip-path="url(#p5148e42969)" style="fill: none; stroke: #ffffff; stroke-width: 0.8; stroke-linecap: round"/>
     </g>
     <g id="text_2">
      <!-- 2.0 -->
      <g style="fill: #262626" transform="translate(119.320259 321.741812) scale(0.1 -0.1)">
       <defs>
        <path id="ArialMT-32" d="M 3222 541 
L 3222 0 
L 194 0 
Q 188 203 259 391 
Q 375 700 629 1000 
Q 884 1300 1366 1694 
Q 2113 2306 2375 2664 
Q 2638 3022 2638 3341 
Q 2638 3675 2398 3904 
Q 2159 4134 1775 4134 
Q 1369 4134 1125 3890 
Q 881 3647 878 3216 
L 300 3275 
Q 359 3922 746 4261 
Q 1134 4600 1788 4600 
Q 2447 4600 2831 4234 
Q 3216 3869 3216 3328 
Q 3216 3053 3103 2787 
Q 2991 2522 2730 2228 
Q 2469 1934 1863 1422 
Q 1356 997 1212 845 
Q 1069 694 975 541 
L 3222 541 
z
" transform="scale(0.015625)"/>
       </defs>
       <use xlink:href="#ArialMT-32"/>
       <use xlink:href="#ArialMT-2e" x="55.615234"/>
       <use xlink:href="#ArialMT-30" x="83.398438"/>
      </g>
     </g>
    </g>
    <g id="xtick_3">
     <g id="line2d_3">
      <path d="M 168.220285 307.584 
L 168.220285 41.472 
" clip-path="url(#p5148e42969)" style="fill: none; stroke: #ffffff; stroke-width: 0.8; stroke-linecap: round"/>
     </g>
     <g id="text_3">
      <!-- 4.0 -->
      <g style="fill: #262626" transform="translate(161.270285 321.741812) scale(0.1 -0.1)">
       <defs>
        <path id="ArialMT-34" d="M 2069 0 
L 2069 1097 
L 81 1097 
L 81 1613 
L 2172 4581 
L 2631 4581 
L 2631 1613 
L 3250 1613 
L 3250 1097 
L 2631 1097 
L 2631 0 
L 2069 0 
z
M 2069 1613 
L 2069 3678 
L 634 1613 
L 2069 1613 
z
" transform="scale(0.015625)"/>
       </defs>
       <use xlink:href="#ArialMT-34"/>
       <use xlink:href="#ArialMT-2e" x="55.615234"/>
       <use xlink:href="#ArialMT-30" x="83.398438"/>
      </g>
     </g>
    </g>
    <g id="xtick_4">
     <g id="line2d_4">
      <path d="M 210.17031 307.584 
L 210.17031 41.472 
" clip-path="url(#p5148e42969)" style="fill: none; stroke: #ffffff; stroke-width: 0.8; stroke-linecap: round"/>
     </g>
     <g id="text_4">
      <!-- 6.0 -->
      <g style="fill: #262626" transform="translate(203.22031 321.741812) scale(0.1 -0.1)">
       <defs>
        <path id="ArialMT-36" d="M 3184 3459 
L 2625 3416 
Q 2550 3747 2413 3897 
Q 2184 4138 1850 4138 
Q 1581 4138 1378 3988 
Q 1113 3794 959 3422 
Q 806 3050 800 2363 
Q 1003 2672 1297 2822 
Q 1591 2972 1913 2972 
Q 2475 2972 2870 2558 
Q 3266 2144 3266 1488 
Q 3266 1056 3080 686 
Q 2894 316 2569 119 
Q 2244 -78 1831 -78 
Q 1128 -78 684 439 
Q 241 956 241 2144 
Q 241 3472 731 4075 
Q 1159 4600 1884 4600 
Q 2425 4600 2770 4297 
Q 3116 3994 3184 3459 
z
M 888 1484 
Q 888 1194 1011 928 
Q 1134 663 1356 523 
Q 1578 384 1822 384 
Q 2178 384 2434 671 
Q 2691 959 2691 1453 
Q 2691 1928 2437 2201 
Q 2184 2475 1800 2475 
Q 1419 2475 1153 2201 
Q 888 1928 888 1484 
z
" transform="scale(0.015625)"/>
       </defs>
       <use xlink:href="#ArialMT-36"/>
       <use xlink:href="#ArialMT-2e" x="55.615234"/>
       <use xlink:href="#ArialMT-30" x="83.398438"/>
      </g>
     </g>
    </g>
    <g id="xtick_5">
     <g id="line2d_5">
      <path d="M 252.120336 307.584 
L 252.120336 41.472 
" clip-path="url(#p5148e42969)" style="fill: none; stroke: #ffffff; stroke-width: 0.8; stroke-linecap: round"/>
     </g>
     <g id="text_5">
      <!-- 8.0 -->
      <g style="fill: #262626" transform="translate(245.170336 321.741812) scale(0.1 -0.1)">
       <defs>
        <path id="ArialMT-38" d="M 1131 2484 
Q 781 2613 612 2850 
Q 444 3088 444 3419 
Q 444 3919 803 4259 
Q 1163 4600 1759 4600 
Q 2359 4600 2725 4251 
Q 3091 3903 3091 3403 
Q 3091 3084 2923 2848 
Q 2756 2613 2416 2484 
Q 2838 2347 3058 2040 
Q 3278 1734 3278 1309 
Q 3278 722 2862 322 
Q 2447 -78 1769 -78 
Q 1091 -78 675 323 
Q 259 725 259 1325 
Q 259 1772 486 2073 
Q 713 2375 1131 2484 
z
M 1019 3438 
Q 1019 3113 1228 2906 
Q 1438 2700 1772 2700 
Q 2097 2700 2305 2904 
Q 2513 3109 2513 3406 
Q 2513 3716 2298 3927 
Q 2084 4138 1766 4138 
Q 1444 4138 1231 3931 
Q 1019 3725 1019 3438 
z
M 838 1322 
Q 838 1081 952 856 
Q 1066 631 1291 507 
Q 1516 384 1775 384 
Q 2178 384 2440 643 
Q 2703 903 2703 1303 
Q 2703 1709 2433 1975 
Q 2163 2241 1756 2241 
Q 1359 2241 1098 1978 
Q 838 1716 838 1322 
z
" transform="scale(0.015625)"/>
       </defs>
       <use xlink:href="#ArialMT-38"/>
       <use xlink:href="#ArialMT-2e" x="55.615234"/>
       <use xlink:href="#ArialMT-30" x="83.398438"/>
      </g>
     </g>
    </g>
    <g id="xtick_6">
     <g id="line2d_6">
      <path d="M 294.070361 307.584 
L 294.070361 41.472 
" clip-path="url(#p5148e42969)" style="fill: none; stroke: #ffffff; stroke-width: 0.8; stroke-linecap: round"/>
     </g>
     <g id="text_6">
      <!-- 10.0 -->
      <g style="fill: #262626" transform="translate(284.339893 321.741812) scale(0.1 -0.1)">
       <defs>
        <path id="ArialMT-31" d="M 2384 0 
L 1822 0 
L 1822 3584 
Q 1619 3391 1289 3197 
Q 959 3003 697 2906 
L 697 3450 
Q 1169 3672 1522 3987 
Q 1875 4303 2022 4600 
L 2384 4600 
L 2384 0 
z
" transform="scale(0.015625)"/>
       </defs>
       <use xlink:href="#ArialMT-31"/>
       <use xlink:href="#ArialMT-30" x="55.615234"/>
       <use xlink:href="#ArialMT-2e" x="111.230469"/>
       <use xlink:href="#ArialMT-30" x="139.013672"/>
      </g>
     </g>
    </g>
    <g id="xtick_7">
     <g id="line2d_7">
      <path d="M 336.020387 307.584 
L 336.020387 41.472 
" clip-path="url(#p5148e42969)" style="fill: none; stroke: #ffffff; stroke-width: 0.8; stroke-linecap: round"/>
     </g>
     <g id="text_7">
      <!-- 12.0 -->
      <g style="fill: #262626" transform="translate(326.289918 321.741812) scale(0.1 -0.1)">
       <use xlink:href="#ArialMT-31"/>
       <use xlink:href="#ArialMT-32" x="55.615234"/>
       <use xlink:href="#ArialMT-2e" x="111.230469"/>
       <use xlink:href="#ArialMT-30" x="139.013672"/>
      </g>
     </g>
    </g>
    <g id="xtick_8">
     <g id="line2d_8">
      <path d="M 377.970413 307.584 
L 377.970413 41.472 
" clip-path="url(#p5148e42969)" style="fill: none; stroke: #ffffff; stroke-width: 0.8; stroke-linecap: round"/>
     </g>
     <g id="text_8">
      <!-- 14.0 -->
      <g style="fill: #262626" transform="translate(368.239944 321.741812) scale(0.1 -0.1)">
       <use xlink:href="#ArialMT-31"/>
       <use xlink:href="#ArialMT-34" x="55.615234"/>
       <use xlink:href="#ArialMT-2e" x="111.230469"/>
       <use xlink:href="#ArialMT-30" x="139.013672"/>
      </g>
     </g>
    </g>
    <g id="text_9">
     <!-- Normal distance from the shock front (mm) -->
     <g style="fill: #262626" transform="translate(141.417812 335.009) scale(0.1 -0.1)">
      <defs>
       <path id="ArialMT-4e" d="M 488 0 
L 488 4581 
L 1109 4581 
L 3516 984 
L 3516 4581 
L 4097 4581 
L 4097 0 
L 3475 0 
L 1069 3600 
L 1069 0 
L 488 0 
z
" transform="scale(0.015625)"/>
       <path id="ArialMT-6f" d="M 213 1659 
Q 213 2581 725 3025 
Q 1153 3394 1769 3394 
Q 2453 3394 2887 2945 
Q 3322 2497 3322 1706 
Q 3322 1066 3130 698 
Q 2938 331 2570 128 
Q 2203 -75 1769 -75 
Q 1072 -75 642 372 
Q 213 819 213 1659 
z
M 791 1659 
Q 791 1022 1069 705 
Q 1347 388 1769 388 
Q 2188 388 2466 706 
Q 2744 1025 2744 1678 
Q 2744 2294 2464 2611 
Q 2184 2928 1769 2928 
Q 1347 2928 1069 2612 
Q 791 2297 791 1659 
z
" transform="scale(0.015625)"/>
       <path id="ArialMT-72" d="M 416 0 
L 416 3319 
L 922 3319 
L 922 2816 
Q 1116 3169 1280 3281 
Q 1444 3394 1641 3394 
Q 1925 3394 2219 3213 
L 2025 2691 
Q 1819 2813 1613 2813 
Q 1428 2813 1281 2702 
Q 1134 2591 1072 2394 
Q 978 2094 978 1738 
L 978 0 
L 416 0 
z
" transform="scale(0.015625)"/>
       <path id="ArialMT-6d" d="M 422 0 
L 422 3319 
L 925 3319 
L 925 2853 
Q 1081 3097 1340 3245 
Q 1600 3394 1931 3394 
Q 2300 3394 2536 3241 
Q 2772 3088 2869 2813 
Q 3263 3394 3894 3394 
Q 4388 3394 4653 3120 
Q 4919 2847 4919 2278 
L 4919 0 
L 4359 0 
L 4359 2091 
Q 4359 2428 4304 2576 
Q 4250 2725 4106 2815 
Q 3963 2906 3769 2906 
Q 3419 2906 3187 2673 
Q 2956 2441 2956 1928 
L 2956 0 
L 2394 0 
L 2394 2156 
Q 2394 2531 2256 2718 
Q 2119 2906 1806 2906 
Q 1569 2906 1367 2781 
Q 1166 2656 1075 2415 
Q 984 2175 984 1722 
L 984 0 
L 422 0 
z
" transform="scale(0.015625)"/>
       <path id="ArialMT-61" d="M 2588 409 
Q 2275 144 1986 34 
Q 1697 -75 1366 -75 
Q 819 -75 525 192 
Q 231 459 231 875 
Q 231 1119 342 1320 
Q 453 1522 633 1644 
Q 813 1766 1038 1828 
Q 1203 1872 1538 1913 
Q 2219 1994 2541 2106 
Q 2544 2222 2544 2253 
Q 2544 2597 2384 2738 
Q 2169 2928 1744 2928 
Q 1347 2928 1158 2789 
Q 969 2650 878 2297 
L 328 2372 
Q 403 2725 575 2942 
Q 747 3159 1072 3276 
Q 1397 3394 1825 3394 
Q 2250 3394 2515 3294 
Q 2781 3194 2906 3042 
Q 3031 2891 3081 2659 
Q 3109 2516 3109 2141 
L 3109 1391 
Q 3109 606 3145 398 
Q 3181 191 3288 0 
L 2700 0 
Q 2613 175 2588 409 
z
M 2541 1666 
Q 2234 1541 1622 1453 
Q 1275 1403 1131 1340 
Q 988 1278 909 1158 
Q 831 1038 831 891 
Q 831 666 1001 516 
Q 1172 366 1500 366 
Q 1825 366 2078 508 
Q 2331 650 2450 897 
Q 2541 1088 2541 1459 
L 2541 1666 
z
" transform="scale(0.015625)"/>
       <path id="ArialMT-6c" d="M 409 0 
L 409 4581 
L 972 4581 
L 972 0 
L 409 0 
z
" transform="scale(0.015625)"/>
       <path id="ArialMT-20" transform="scale(0.015625)"/>
       <path id="ArialMT-64" d="M 2575 0 
L 2575 419 
Q 2259 -75 1647 -75 
Q 1250 -75 917 144 
Q 584 363 401 755 
Q 219 1147 219 1656 
Q 219 2153 384 2558 
Q 550 2963 881 3178 
Q 1213 3394 1622 3394 
Q 1922 3394 2156 3267 
Q 2391 3141 2538 2938 
L 2538 4581 
L 3097 4581 
L 3097 0 
L 2575 0 
z
M 797 1656 
Q 797 1019 1065 703 
Q 1334 388 1700 388 
Q 2069 388 2326 689 
Q 2584 991 2584 1609 
Q 2584 2291 2321 2609 
Q 2059 2928 1675 2928 
Q 1300 2928 1048 2622 
Q 797 2316 797 1656 
z
" transform="scale(0.015625)"/>
       <path id="ArialMT-69" d="M 425 3934 
L 425 4581 
L 988 4581 
L 988 3934 
L 425 3934 
z
M 425 0 
L 425 3319 
L 988 3319 
L 988 0 
L 425 0 
z
" transform="scale(0.015625)"/>
       <path id="ArialMT-73" d="M 197 991 
L 753 1078 
Q 800 744 1014 566 
Q 1228 388 1613 388 
Q 2000 388 2187 545 
Q 2375 703 2375 916 
Q 2375 1106 2209 1216 
Q 2094 1291 1634 1406 
Q 1016 1563 777 1677 
Q 538 1791 414 1992 
Q 291 2194 291 2438 
Q 291 2659 392 2848 
Q 494 3038 669 3163 
Q 800 3259 1026 3326 
Q 1253 3394 1513 3394 
Q 1903 3394 2198 3281 
Q 2494 3169 2634 2976 
Q 2775 2784 2828 2463 
L 2278 2388 
Q 2241 2644 2061 2787 
Q 1881 2931 1553 2931 
Q 1166 2931 1000 2803 
Q 834 2675 834 2503 
Q 834 2394 903 2306 
Q 972 2216 1119 2156 
Q 1203 2125 1616 2013 
Q 2213 1853 2448 1751 
Q 2684 1650 2818 1456 
Q 2953 1263 2953 975 
Q 2953 694 2789 445 
Q 2625 197 2315 61 
Q 2006 -75 1616 -75 
Q 969 -75 630 194 
Q 291 463 197 991 
z
" transform="scale(0.015625)"/>
       <path id="ArialMT-74" d="M 1650 503 
L 1731 6 
Q 1494 -44 1306 -44 
Q 1000 -44 831 53 
Q 663 150 594 308 
Q 525 466 525 972 
L 525 2881 
L 113 2881 
L 113 3319 
L 525 3319 
L 525 4141 
L 1084 4478 
L 1084 3319 
L 1650 3319 
L 1650 2881 
L 1084 2881 
L 1084 941 
Q 1084 700 1114 631 
Q 1144 563 1211 522 
Q 1278 481 1403 481 
Q 1497 481 1650 503 
z
" transform="scale(0.015625)"/>
       <path id="ArialMT-6e" d="M 422 0 
L 422 3319 
L 928 3319 
L 928 2847 
Q 1294 3394 1984 3394 
Q 2284 3394 2536 3286 
Q 2788 3178 2913 3003 
Q 3038 2828 3088 2588 
Q 3119 2431 3119 2041 
L 3119 0 
L 2556 0 
L 2556 2019 
Q 2556 2363 2490 2533 
Q 2425 2703 2258 2804 
Q 2091 2906 1866 2906 
Q 1506 2906 1245 2678 
Q 984 2450 984 1813 
L 984 0 
L 422 0 
z
" transform="scale(0.015625)"/>
       <path id="ArialMT-63" d="M 2588 1216 
L 3141 1144 
Q 3050 572 2676 248 
Q 2303 -75 1759 -75 
Q 1078 -75 664 370 
Q 250 816 250 1647 
Q 250 2184 428 2587 
Q 606 2991 970 3192 
Q 1334 3394 1763 3394 
Q 2303 3394 2647 3120 
Q 2991 2847 3088 2344 
L 2541 2259 
Q 2463 2594 2264 2762 
Q 2066 2931 1784 2931 
Q 1359 2931 1093 2626 
Q 828 2322 828 1663 
Q 828 994 1084 691 
Q 1341 388 1753 388 
Q 2084 388 2306 591 
Q 2528 794 2588 1216 
z
" transform="scale(0.015625)"/>
       <path id="ArialMT-65" d="M 2694 1069 
L 3275 997 
Q 3138 488 2766 206 
Q 2394 -75 1816 -75 
Q 1088 -75 661 373 
Q 234 822 234 1631 
Q 234 2469 665 2931 
Q 1097 3394 1784 3394 
Q 2450 3394 2872 2941 
Q 3294 2488 3294 1666 
Q 3294 1616 3291 1516 
L 816 1516 
Q 847 969 1125 678 
Q 1403 388 1819 388 
Q 2128 388 2347 550 
Q 2566 713 2694 1069 
z
M 847 1978 
L 2700 1978 
Q 2663 2397 2488 2606 
Q 2219 2931 1791 2931 
Q 1403 2931 1139 2672 
Q 875 2413 847 1978 
z
" transform="scale(0.015625)"/>
       <path id="ArialMT-66" d="M 556 0 
L 556 2881 
L 59 2881 
L 59 3319 
L 556 3319 
L 556 3672 
Q 556 4006 616 4169 
Q 697 4388 901 4523 
Q 1106 4659 1475 4659 
Q 1713 4659 2000 4603 
L 1916 4113 
Q 1741 4144 1584 4144 
Q 1328 4144 1222 4034 
Q 1116 3925 1116 3625 
L 1116 3319 
L 1763 3319 
L 1763 2881 
L 1116 2881 
L 1116 0 
L 556 0 
z
" transform="scale(0.015625)"/>
       <path id="ArialMT-68" d="M 422 0 
L 422 4581 
L 984 4581 
L 984 2938 
Q 1378 3394 1978 3394 
Q 2347 3394 2619 3248 
Q 2891 3103 3008 2847 
Q 3125 2591 3125 2103 
L 3125 0 
L 2563 0 
L 2563 2103 
Q 2563 2525 2380 2717 
Q 2197 2909 1863 2909 
Q 1613 2909 1392 2779 
Q 1172 2650 1078 2428 
Q 984 2206 984 1816 
L 984 0 
L 422 0 
z
" transform="scale(0.015625)"/>
       <path id="ArialMT-6b" d="M 425 0 
L 425 4581 
L 988 4581 
L 988 1969 
L 2319 3319 
L 3047 3319 
L 1778 2088 
L 3175 0 
L 2481 0 
L 1384 1697 
L 988 1316 
L 988 0 
L 425 0 
z
" transform="scale(0.015625)"/>
       <path id="ArialMT-28" d="M 1497 -1347 
Q 1031 -759 709 28 
Q 388 816 388 1659 
Q 388 2403 628 3084 
Q 909 3875 1497 4659 
L 1900 4659 
Q 1522 4009 1400 3731 
Q 1209 3300 1100 2831 
Q 966 2247 966 1656 
Q 966 153 1900 -1347 
L 1497 -1347 
z
" transform="scale(0.015625)"/>
       <path id="ArialMT-29" d="M 791 -1347 
L 388 -1347 
Q 1322 153 1322 1656 
Q 1322 2244 1188 2822 
Q 1081 3291 891 3722 
Q 769 4003 388 4659 
L 791 4659 
Q 1378 3875 1659 3084 
Q 1900 2403 1900 1659 
Q 1900 816 1576 28 
Q 1253 -759 791 -1347 
z
" transform="scale(0.015625)"/>
      </defs>
      <use xlink:href="#ArialMT-4e"/>
      <use xlink:href="#ArialMT-6f" x="72.216797"/>
      <use xlink:href="#ArialMT-72" x="127.832031"/>
      <use xlink:href="#ArialMT-6d" x="161.132812"/>
      <use xlink:href="#ArialMT-61" x="244.433594"/>
      <use xlink:href="#ArialMT-6c" x="300.048828"/>
      <use xlink:href="#ArialMT-20" x="322.265625"/>
      <use xlink:href="#ArialMT-64" x="350.048828"/>
      <use xlink:href="#ArialMT-69" x="405.664062"/>
      <use xlink:href="#ArialMT-73" x="427.880859"/>
      <use xlink:href="#ArialMT-74" x="477.880859"/>
      <use xlink:href="#ArialMT-61" x="505.664062"/>
      <use xlink:href="#ArialMT-6e" x="561.279297"/>
      <use xlink:href="#ArialMT-63" x="616.894531"/>
      <use xlink:href="#ArialMT-65" x="666.894531"/>
      <use xlink:href="#ArialMT-20" x="722.509766"/>
      <use xlink:href="#ArialMT-66" x="750.292969"/>
      <use xlink:href="#ArialMT-72" x="778.076172"/>
      <use xlink:href="#ArialMT-6f" x="811.376953"/>
      <use xlink:href="#ArialMT-6d" x="866.992188"/>
      <use xlink:href="#ArialMT-20" x="950.292969"/>
      <use xlink:href="#ArialMT-74" x="978.076172"/>
      <use xlink:href="#ArialMT-68" x="1005.859375"/>
      <use xlink:href="#ArialMT-65" x="1061.474609"/>
      <use xlink:href="#ArialMT-20" x="1117.089844"/>
      <use xlink:href="#ArialMT-73" x="1144.873047"/>
      <use xlink:href="#ArialMT-68" x="1194.873047"/>
      <use xlink:href="#ArialMT-6f" x="1250.488281"/>
      <use xlink:href="#ArialMT-63" x="1306.103516"/>
      <use xlink:href="#ArialMT-6b" x="1356.103516"/>
      <use xlink:href="#ArialMT-20" x="1406.103516"/>
      <use xlink:href="#ArialMT-66" x="1433.886719"/>
      <use xlink:href="#ArialMT-72" x="1461.669922"/>
      <use xlink:href="#ArialMT-6f" x="1494.970703"/>
      <use xlink:href="#ArialMT-6e" x="1550.585938"/>
      <use xlink:href="#ArialMT-74" x="1606.201172"/>
      <use xlink:href="#ArialMT-20" x="1633.984375"/>
      <use xlink:href="#ArialMT-28" x="1661.767578"/>
      <use xlink:href="#ArialMT-6d" x="1695.068359"/>
      <use xlink:href="#ArialMT-6d" x="1778.369141"/>
      <use xlink:href="#ArialMT-29" x="1861.669922"/>
     </g>
    </g>
   </g>
   <g id="matplotlib.axis_2">
    <g id="ytick_1">
     <g id="line2d_9">
      <path d="M 57.6 268.013768 
L 414.72 268.013768 
" clip-path="url(#p5148e42969)" style="fill: none; stroke: #ffffff; stroke-width: 0.8; stroke-linecap: round"/>
     </g>
     <g id="text_10">
      <!-- 320 -->
      <g style="fill: #262626" transform="translate(33.917187 271.592674) scale(0.1 -0.1)">
       <defs>
        <path id="ArialMT-33" d="M 269 1209 
L 831 1284 
Q 928 806 1161 595 
Q 1394 384 1728 384 
Q 2125 384 2398 659 
Q 2672 934 2672 1341 
Q 2672 1728 2419 1979 
Q 2166 2231 1775 2231 
Q 1616 2231 1378 2169 
L 1441 2663 
Q 1497 2656 1531 2656 
Q 1891 2656 2178 2843 
Q 2466 3031 2466 3422 
Q 2466 3731 2256 3934 
Q 2047 4138 1716 4138 
Q 1388 4138 1169 3931 
Q 950 3725 888 3313 
L 325 3413 
Q 428 3978 793 4289 
Q 1159 4600 1703 4600 
Q 2078 4600 2393 4439 
Q 2709 4278 2876 4000 
Q 3044 3722 3044 3409 
Q 3044 3113 2884 2869 
Q 2725 2625 2413 2481 
Q 2819 2388 3044 2092 
Q 3269 1797 3269 1353 
Q 3269 753 2831 336 
Q 2394 -81 1725 -81 
Q 1122 -81 723 278 
Q 325 638 269 1209 
z
" transform="scale(0.015625)"/>
       </defs>
       <use xlink:href="#ArialMT-33"/>
       <use xlink:href="#ArialMT-32" x="55.615234"/>
       <use xlink:href="#ArialMT-30" x="111.230469"/>
      </g>
     </g>
    </g>
    <g id="ytick_2">
     <g id="line2d_10">
      <path d="M 57.6 227.770526 
L 414.72 227.770526 
" clip-path="url(#p5148e42969)" style="fill: none; stroke: #ffffff; stroke-width: 0.8; stroke-linecap: round"/>
     </g>
     <g id="text_11">
      <!-- 340 -->
      <g style="fill: #262626" transform="translate(33.917187 231.349432) scale(0.1 -0.1)">
       <use xlink:href="#ArialMT-33"/>
       <use xlink:href="#ArialMT-34" x="55.615234"/>
       <use xlink:href="#ArialMT-30" x="111.230469"/>
      </g>
     </g>
    </g>
    <g id="ytick_3">
     <g id="line2d_11">
      <path d="M 57.6 187.527284 
L 414.72 187.527284 
" clip-path="url(#p5148e42969)" style="fill: none; stroke: #ffffff; stroke-width: 0.8; stroke-linecap: round"/>
     </g>
     <g id="text_12">
      <!-- 360 -->
      <g style="fill: #262626" transform="translate(33.917187 191.10619) scale(0.1 -0.1)">
       <use xlink:href="#ArialMT-33"/>
       <use xlink:href="#ArialMT-36" x="55.615234"/>
       <use xlink:href="#ArialMT-30" x="111.230469"/>
      </g>
     </g>
    </g>
    <g id="ytick_4">
     <g id="line2d_12">
      <path d="M 57.6 147.284042 
L 414.72 147.284042 
" clip-path="url(#p5148e42969)" style="fill: none; stroke: #ffffff; stroke-width: 0.8; stroke-linecap: round"/>
     </g>
     <g id="text_13">
      <!-- 380 -->
      <g style="fill: #262626" transform="translate(33.917187 150.862948) scale(0.1 -0.1)">
       <use xlink:href="#ArialMT-33"/>
       <use xlink:href="#ArialMT-38" x="55.615234"/>
       <use xlink:href="#ArialMT-30" x="111.230469"/>
      </g>
     </g>
    </g>
    <g id="ytick_5">
     <g id="line2d_13">
      <path d="M 57.6 107.0408 
L 414.72 107.0408 
" clip-path="url(#p5148e42969)" style="fill: none; stroke: #ffffff; stroke-width: 0.8; stroke-linecap: round"/>
     </g>
     <g id="text_14">
      <!-- 400 -->
      <g style="fill: #262626" transform="translate(33.917187 110.619707) scale(0.1 -0.1)">
       <use xlink:href="#ArialMT-34"/>
       <use xlink:href="#ArialMT-30" x="55.615234"/>
       <use xlink:href="#ArialMT-30" x="111.230469"/>
      </g>
     </g>
    </g>
    <g id="ytick_6">
     <g id="line2d_14">
      <path d="M 57.6 66.797559 
L 414.72 66.797559 
" clip-path="url(#p5148e42969)" style="fill: none; stroke: #ffffff; stroke-width: 0.8; stroke-linecap: round"/>
     </g>
     <g id="text_15">
      <!-- 420 -->
      <g style="fill: #262626" transform="translate(33.917187 70.376465) scale(0.1 -0.1)">
       <use xlink:href="#ArialMT-34"/>
       <use xlink:href="#ArialMT-32" x="55.615234"/>
       <use xlink:href="#ArialMT-30" x="111.230469"/>
      </g>
     </g>
    </g>
    <g id="text_16">
     <!-- Normal velocity component (m/s) -->
     <g style="fill: #262626" transform="translate(27.8125 247.599875) rotate(-90) scale(0.1 -0.1)">
      <defs>
       <path id="ArialMT-76" d="M 1344 0 
L 81 3319 
L 675 3319 
L 1388 1331 
Q 1503 1009 1600 663 
Q 1675 925 1809 1294 
L 2547 3319 
L 3125 3319 
L 1869 0 
L 1344 0 
z
" transform="scale(0.015625)"/>
       <path id="ArialMT-79" d="M 397 -1278 
L 334 -750 
Q 519 -800 656 -800 
Q 844 -800 956 -737 
Q 1069 -675 1141 -563 
Q 1194 -478 1313 -144 
Q 1328 -97 1363 -6 
L 103 3319 
L 709 3319 
L 1400 1397 
Q 1534 1031 1641 628 
Q 1738 1016 1872 1384 
L 2581 3319 
L 3144 3319 
L 1881 -56 
Q 1678 -603 1566 -809 
Q 1416 -1088 1222 -1217 
Q 1028 -1347 759 -1347 
Q 597 -1347 397 -1278 
z
" transform="scale(0.015625)"/>
       <path id="ArialMT-70" d="M 422 -1272 
L 422 3319 
L 934 3319 
L 934 2888 
Q 1116 3141 1344 3267 
Q 1572 3394 1897 3394 
Q 2322 3394 2647 3175 
Q 2972 2956 3137 2557 
Q 3303 2159 3303 1684 
Q 3303 1175 3120 767 
Q 2938 359 2589 142 
Q 2241 -75 1856 -75 
Q 1575 -75 1351 44 
Q 1128 163 984 344 
L 984 -1272 
L 422 -1272 
z
M 931 1641 
Q 931 1000 1190 694 
Q 1450 388 1819 388 
Q 2194 388 2461 705 
Q 2728 1022 2728 1688 
Q 2728 2322 2467 2637 
Q 2206 2953 1844 2953 
Q 1484 2953 1207 2617 
Q 931 2281 931 1641 
z
" transform="scale(0.015625)"/>
       <path id="ArialMT-2f" d="M 0 -78 
L 1328 4659 
L 1778 4659 
L 453 -78 
L 0 -78 
z
" transform="scale(0.015625)"/>
      </defs>
      <use xlink:href="#ArialMT-4e"/>
      <use xlink:href="#ArialMT-6f" x="72.216797"/>
      <use xlink:href="#ArialMT-72" x="127.832031"/>
      <use xlink:href="#ArialMT-6d" x="161.132812"/>
      <use xlink:href="#ArialMT-61" x="244.433594"/>
      <use xlink:href="#ArialMT-6c" x="300.048828"/>
      <use xlink:href="#ArialMT-20" x="322.265625"/>
      <use xlink:href="#ArialMT-76" x="350.048828"/>
      <use xlink:href="#ArialMT-65" x="400.048828"/>
      <use xlink:href="#ArialMT-6c" x="455.664062"/>
      <use xlink:href="#ArialMT-6f" x="477.880859"/>
      <use xlink:href="#ArialMT-63" x="533.496094"/>
      <use xlink:href="#ArialMT-69" x="583.496094"/>
      <use xlink:href="#ArialMT-74" x="605.712891"/>
      <use xlink:href="#ArialMT-79" x="633.496094"/>
      <use xlink:href="#ArialMT-20" x="683.496094"/>
      <use xlink:href="#ArialMT-63" x="711.279297"/>
      <use xlink:href="#ArialMT-6f" x="761.279297"/>
      <use xlink:href="#ArialMT-6d" x="816.894531"/>
      <use xlink:href="#ArialMT-70" x="900.195312"/>
      <use xlink:href="#ArialMT-6f" x="955.810547"/>
      <use xlink:href="#ArialMT-6e" x="1011.425781"/>
      <use xlink:href="#ArialMT-65" x="1067.041016"/>
      <use xlink:href="#ArialMT-6e" x="1122.65625"/>
      <use xlink:href="#ArialMT-74" x="1178.271484"/>
      <use xlink:href="#ArialMT-20" x="1206.054688"/>
      <use xlink:href="#ArialMT-28" x="1233.837891"/>
      <use xlink:href="#ArialMT-6d" x="1267.138672"/>
      <use xlink:href="#ArialMT-2f" x="1350.439453"/>
      <use xlink:href="#ArialMT-73" x="1378.222656"/>
      <use xlink:href="#ArialMT-29" x="1428.222656"/>
     </g>
    </g>
   </g>
   <g id="line2d_15">
    <path d="M 73.832727 53.568 
L 81.885398 53.568 
L 82.780139 53.760518 
L 83.670222 65.655214 
L 84.538562 94.122801 
L 85.371732 132.07735 
L 86.162824 173.372025 
L 86.91455 206.392337 
L 87.63678 230.442847 
L 88.337527 247.960157 
L 89.022626 260.718978 
L 89.696329 270.011929 
L 90.36173 276.780497 
L 91.021085 281.710418 
L 91.676036 285.30115 
L 92.32778 287.916478 
L 92.977188 289.821365 
L 93.624894 291.2088 
L 94.271361 292.219344 
L 94.916925 292.95538 
L 95.561831 293.491475 
L 96.850338 294.166341 
L 98.137803 294.524358 
L 100.068051 294.772584 
L 103.284178 294.896852 
L 113.574583 294.928692 
L 398.487273 294.928893 
L 398.487273 294.928893 
" clip-path="url(#p5148e42969)" style="fill: none; stroke: #8000ff; stroke-width: 1.5; stroke-linecap: round"/>
   </g>
   <g id="line2d_16">
    <path d="M 73.832727 53.568 
L 82.780139 53.57046 
L 83.674816 53.739346 
L 84.569166 54.191542 
L 85.462912 54.890048 
L 104.019385 73.314232 
L 114.446915 83.209296 
L 124.753453 92.662546 
L 134.944401 101.69371 
L 145.024919 110.321634 
L 154.99994 118.564322 
L 164.874172 126.438975 
L 174.652117 133.962027 
L 184.338073 141.149175 
L 194.732145 148.573573 
L 205.028055 155.639525 
L 215.230542 162.364338 
L 225.344117 168.76448 
L 235.373072 174.855627 
L 245.321493 180.652696 
L 255.949568 186.583085 
L 266.493362 192.205716 
L 276.957249 197.536558 
L 287.345375 202.590755 
L 298.395901 207.71527 
L 309.368545 212.555389 
L 320.267627 217.126894 
L 331.81683 221.723875 
L 343.29165 226.049241 
L 354.696482 230.119039 
L 366.742051 234.180049 
L 378.717934 237.986594 
L 391.327173 241.7574 
L 398.30246 243.743309 
L 398.30246 243.743309 
" clip-path="url(#p5148e42969)" style="fill: none; stroke: #80ffb4; stroke-width: 1.5; stroke-linecap: round"/>
   </g>
   <g id="line2d_17">
    <path d="M 73.832727 53.568 
L 82.780139 53.577545 
L 83.674631 54.229797 
L 84.567861 55.972937 
L 85.458771 58.655058 
L 91.598524 81.980118 
L 95.883825 97.261876 
L 100.092371 111.446976 
L 104.229668 124.614116 
L 108.300831 136.836348 
L 112.310604 148.18148 
L 116.263395 158.712456 
L 120.163291 168.487702 
L 124.014089 177.561451 
L 127.819312 185.984045 
L 131.58223 193.80221 
L 135.30588 201.059324 
L 138.99308 207.795649 
L 142.646445 214.048557 
L 146.268403 219.852741 
L 149.861208 225.240401 
L 153.426953 230.241428 
L 156.967579 234.883569 
L 161.185702 240.016539 
L 165.373114 244.710717 
L 169.53244 249.003613 
L 173.666081 252.929532 
L 177.776232 256.519844 
L 181.864902 259.803238 
L 185.933927 262.805952 
L 189.984987 265.551978 
L 194.690557 268.460421 
L 199.375974 271.080916 
L 204.043233 273.441969 
L 208.69413 275.569269 
L 213.991479 277.743818 
L 219.271732 279.674114 
L 225.193965 281.587775 
L 231.099395 283.261373 
L 237.643833 284.87587 
L 244.82474 286.395012 
L 251.98958 287.684591 
L 259.790288 288.870209 
L 268.225801 289.936695 
L 277.942911 290.936171 
L 288.938864 291.829263 
L 301.212064 292.593208 
L 315.406901 293.245777 
L 332.166462 293.786169 
L 352.777384 294.219382 
L 379.812515 294.54932 
L 398.473002 294.682449 
L 398.473002 294.682449 
" clip-path="url(#p5148e42969)" style="fill: none; stroke: #ff0000; stroke-width: 1.5; stroke-linecap: round"/>
   </g>
   <g id="line2d_18">
    <defs>
     <path id="me3f14ea741" d="M 0 1.5 
C 0.397805 1.5 0.77937 1.341951 1.06066 1.06066 
C 1.341951 0.77937 1.5 0.397805 1.5 0 
C 1.5 -0.397805 1.341951 -0.77937 1.06066 -1.06066 
C 0.77937 -1.341951 0.397805 -1.5 0 -1.5 
C -0.397805 -1.5 -0.77937 -1.341951 -1.06066 -1.06066 
C -1.341951 -0.77937 -1.5 -0.397805 -1.5 0 
C -1.5 0.397805 -1.341951 0.77937 -1.06066 1.06066 
C -0.77937 1.341951 -0.397805 1.5 0 1.5 
z
" style="stroke: #000000"/>
    </defs>
    <g clip-path="url(#p5148e42969)">
     <use xlink:href="#me3f14ea741" x="84.049101" y="57.181468" style="stroke: #000000"/>
     <use xlink:href="#me3f14ea741" x="84.010152" y="70.195218" style="stroke: #000000"/>
     <use xlink:href="#me3f14ea741" x="83.985944" y="82.632459" style="stroke: #000000"/>
     <use xlink:href="#me3f14ea741" x="84.121347" y="97.92276" style="stroke: #000000"/>
     <use xlink:href="#me3f14ea741" x="84.143221" y="112.147083" style="stroke: #000000"/>
     <use xlink:href="#me3f14ea741" x="83.940042" y="125.876856" style="stroke: #000000"/>
     <use xlink:href="#me3f14ea741" x="83.743356" y="137.834508" style="stroke: #000000"/>
     <use xlink:href="#me3f14ea741" x="84.003496" y="152.454085" style="stroke: #000000"/>
     <use xlink:href="#me3f14ea741" x="84.351905" y="167.66159" style="stroke: #000000"/>
     <use xlink:href="#me3f14ea741" x="84.795929" y="187.638467" style="stroke: #000000"/>
     <use xlink:href="#me3f14ea741" x="85.31118" y="207.054664" style="stroke: #000000"/>
     <use xlink:href="#me3f14ea741" x="85.396869" y="228.009593" style="stroke: #000000"/>
     <use xlink:href="#me3f14ea741" x="86.626146" y="251.120248" style="stroke: #000000"/>
     <use xlink:href="#me3f14ea741" x="94.385201" y="292.436818" style="stroke: #000000"/>
     <use xlink:href="#me3f14ea741" x="120.716964" y="294.855128" style="stroke: #000000"/>
     <use xlink:href="#me3f14ea741" x="155.198625" y="295.170469" style="stroke: #000000"/>
     <use xlink:href="#me3f14ea741" x="217.939032" y="294.765528" style="stroke: #000000"/>
     <use xlink:href="#me3f14ea741" x="274.307954" y="294.731871" style="stroke: #000000"/>
     <use xlink:href="#me3f14ea741" x="317.144731" y="294.876192" style="stroke: #000000"/>
     <use xlink:href="#me3f14ea741" x="354.624518" y="295.384744" style="stroke: #000000"/>
     <use xlink:href="#me3f14ea741" x="393.252676" y="295.488" style="stroke: #000000"/>
     <use xlink:href="#me3f14ea741" x="89.180774" y="75.496791" style="stroke: #000000"/>
     <use xlink:href="#me3f14ea741" x="93.191999" y="89.716347" style="stroke: #000000"/>
     <use xlink:href="#me3f14ea741" x="98.561724" y="107.14333" style="stroke: #000000"/>
     <use xlink:href="#me3f14ea741" x="104.589942" y="127.006685" style="stroke: #000000"/>
     <use xlink:href="#me3f14ea741" x="111.574592" y="146.297242" style="stroke: #000000"/>
     <use xlink:href="#me3f14ea741" x="119.814404" y="166.249609" style="stroke: #000000"/>
     <use xlink:href="#me3f14ea741" x="126.316097" y="182.744855" style="stroke: #000000"/>
     <use xlink:href="#me3f14ea741" x="135.696324" y="200.633851" style="stroke: #000000"/>
     <use xlink:href="#me3f14ea741" x="146.758676" y="218.696798" style="stroke: #000000"/>
     <use xlink:href="#me3f14ea741" x="160.211773" y="238.138697" style="stroke: #000000"/>
     <use xlink:href="#me3f14ea741" x="176.417467" y="254.646261" style="stroke: #000000"/>
     <use xlink:href="#me3f14ea741" x="198.661191" y="270.079667" style="stroke: #000000"/>
     <use xlink:href="#me3f14ea741" x="223.529323" y="281.069379" style="stroke: #000000"/>
     <use xlink:href="#me3f14ea741" x="249.686897" y="286.874793" style="stroke: #000000"/>
     <use xlink:href="#me3f14ea741" x="278.364094" y="291.3839" style="stroke: #000000"/>
     <use xlink:href="#me3f14ea741" x="304.767199" y="295.292502" style="stroke: #000000"/>
     <use xlink:href="#me3f14ea741" x="335.993009" y="295.365613" style="stroke: #000000"/>
     <use xlink:href="#me3f14ea741" x="375.084453" y="295.110789" style="stroke: #000000"/>
     <use xlink:href="#me3f14ea741" x="92.641627" y="63.310597" style="stroke: #000000"/>
     <use xlink:href="#me3f14ea741" x="106.060689" y="76.24585" style="stroke: #000000"/>
     <use xlink:href="#me3f14ea741" x="122.492865" y="90.974135" style="stroke: #000000"/>
     <use xlink:href="#me3f14ea741" x="136.097816" y="103.397447" style="stroke: #000000"/>
     <use xlink:href="#me3f14ea741" x="151.400637" y="116.180972" style="stroke: #000000"/>
     <use xlink:href="#me3f14ea741" x="167.12385" y="128.629043" style="stroke: #000000"/>
     <use xlink:href="#me3f14ea741" x="183.30315" y="140.284736" style="stroke: #000000"/>
     <use xlink:href="#me3f14ea741" x="202.96171" y="154.760524" style="stroke: #000000"/>
     <use xlink:href="#me3f14ea741" x="222.492378" y="167.817408" style="stroke: #000000"/>
     <use xlink:href="#me3f14ea741" x="240.126911" y="178.424225" style="stroke: #000000"/>
     <use xlink:href="#me3f14ea741" x="256.278996" y="186.966769" style="stroke: #000000"/>
     <use xlink:href="#me3f14ea741" x="273.750993" y="196.076418" style="stroke: #000000"/>
     <use xlink:href="#me3f14ea741" x="292.055918" y="205.02028" style="stroke: #000000"/>
     <use xlink:href="#me3f14ea741" x="311.364852" y="213.592583" style="stroke: #000000"/>
     <use xlink:href="#me3f14ea741" x="332.028869" y="222.225033" style="stroke: #000000"/>
     <use xlink:href="#me3f14ea741" x="352.037548" y="229.82331" style="stroke: #000000"/>
     <use xlink:href="#me3f14ea741" x="373.273875" y="236.947594" style="stroke: #000000"/>
     <use xlink:href="#me3f14ea741" x="392.045077" y="242.514868" style="stroke: #000000"/>
     <use xlink:href="#me3f14ea741" x="89.367731" y="270.682103" style="stroke: #000000"/>
    </g>
   </g>
   <g id="patch_3">
    <path d="M 57.6 307.584 
L 57.6 41.472 
" style="fill: none; stroke: #ffffff; stroke-width: 0.8; stroke-linejoin: miter; stroke-linecap: square"/>
   </g>
   <g id="patch_4">
    <path d="M 414.72 307.584 
L 414.72 41.472 
" style="fill: none; stroke: #ffffff; stroke-width: 0.8; stroke-linejoin: miter; stroke-linecap: square"/>
   </g>
   <g id="patch_5">
    <path d="M 57.6 307.584 
L 414.72 307.584 
" style="fill: none; stroke: #ffffff; stroke-width: 0.8; stroke-linejoin: miter; stroke-linecap: square"/>
   </g>
   <g id="patch_6">
    <path d="M 57.6 41.472 
L 414.72 41.472 
" style="fill: none; stroke: #ffffff; stroke-width: 0.8; stroke-linejoin: miter; stroke-linecap: square"/>
   </g>
   <g id="text_17">
    <!-- Tracer particle response to oblique shock -->
    <g style="fill: #262626" transform="translate(126.670312 35.472) scale(0.12 -0.12)">
     <defs>
      <path id="ArialMT-54" d="M 1659 0 
L 1659 4041 
L 150 4041 
L 150 4581 
L 3781 4581 
L 3781 4041 
L 2266 4041 
L 2266 0 
L 1659 0 
z
" transform="scale(0.015625)"/>
      <path id="ArialMT-62" d="M 941 0 
L 419 0 
L 419 4581 
L 981 4581 
L 981 2947 
Q 1338 3394 1891 3394 
Q 2197 3394 2470 3270 
Q 2744 3147 2920 2923 
Q 3097 2700 3197 2384 
Q 3297 2069 3297 1709 
Q 3297 856 2875 390 
Q 2453 -75 1863 -75 
Q 1275 -75 941 416 
L 941 0 
z
M 934 1684 
Q 934 1088 1097 822 
Q 1363 388 1816 388 
Q 2184 388 2453 708 
Q 2722 1028 2722 1663 
Q 2722 2313 2464 2622 
Q 2206 2931 1841 2931 
Q 1472 2931 1203 2611 
Q 934 2291 934 1684 
z
" transform="scale(0.015625)"/>
      <path id="ArialMT-71" d="M 2538 -1272 
L 2538 353 
Q 2406 169 2170 47 
Q 1934 -75 1669 -75 
Q 1078 -75 651 397 
Q 225 869 225 1691 
Q 225 2191 398 2587 
Q 572 2984 901 3189 
Q 1231 3394 1625 3394 
Q 2241 3394 2594 2875 
L 2594 3319 
L 3100 3319 
L 3100 -1272 
L 2538 -1272 
z
M 803 1669 
Q 803 1028 1072 708 
Q 1341 388 1716 388 
Q 2075 388 2334 692 
Q 2594 997 2594 1619 
Q 2594 2281 2320 2615 
Q 2047 2950 1678 2950 
Q 1313 2950 1058 2639 
Q 803 2328 803 1669 
z
" transform="scale(0.015625)"/>
      <path id="ArialMT-75" d="M 2597 0 
L 2597 488 
Q 2209 -75 1544 -75 
Q 1250 -75 995 37 
Q 741 150 617 320 
Q 494 491 444 738 
Q 409 903 409 1263 
L 409 3319 
L 972 3319 
L 972 1478 
Q 972 1038 1006 884 
Q 1059 663 1231 536 
Q 1403 409 1656 409 
Q 1909 409 2131 539 
Q 2353 669 2445 892 
Q 2538 1116 2538 1541 
L 2538 3319 
L 3100 3319 
L 3100 0 
L 2597 0 
z
" transform="scale(0.015625)"/>
     </defs>
     <use xlink:href="#ArialMT-54"/>
     <use xlink:href="#ArialMT-72" x="57.333984"/>
     <use xlink:href="#ArialMT-61" x="90.634766"/>
     <use xlink:href="#ArialMT-63" x="146.25"/>
     <use xlink:href="#ArialMT-65" x="196.25"/>
     <use xlink:href="#ArialMT-72" x="251.865234"/>
     <use xlink:href="#ArialMT-20" x="285.166016"/>
     <use xlink:href="#ArialMT-70" x="312.949219"/>
     <use xlink:href="#ArialMT-61" x="368.564453"/>
     <use xlink:href="#ArialMT-72" x="424.179688"/>
     <use xlink:href="#ArialMT-74" x="457.480469"/>
     <use xlink:href="#ArialMT-69" x="485.263672"/>
     <use xlink:href="#ArialMT-63" x="507.480469"/>
     <use xlink:href="#ArialMT-6c" x="557.480469"/>
     <use xlink:href="#ArialMT-65" x="579.697266"/>
     <use xlink:href="#ArialMT-20" x="635.3125"/>
     <use xlink:href="#ArialMT-72" x="663.095703"/>
     <use xlink:href="#ArialMT-65" x="696.396484"/>
     <use xlink:href="#ArialMT-73" x="752.011719"/>
     <use xlink:href="#ArialMT-70" x="802.011719"/>
     <use xlink:href="#ArialMT-6f" x="857.626953"/>
     <use xlink:href="#ArialMT-6e" x="913.242188"/>
     <use xlink:href="#ArialMT-73" x="968.857422"/>
     <use xlink:href="#ArialMT-65" x="1018.857422"/>
     <use xlink:href="#ArialMT-20" x="1074.472656"/>
     <use xlink:href="#ArialMT-74" x="1102.255859"/>
     <use xlink:href="#ArialMT-6f" x="1130.039062"/>
     <use xlink:href="#ArialMT-20" x="1185.654297"/>
     <use xlink:href="#ArialMT-6f" x="1213.4375"/>
     <use xlink:href="#ArialMT-62" x="1269.052734"/>
     <use xlink:href="#ArialMT-6c" x="1324.667969"/>
     <use xlink:href="#ArialMT-69" x="1346.884766"/>
     <use xlink:href="#ArialMT-71" x="1369.101562"/>
     <use xlink:href="#ArialMT-75" x="1424.716797"/>
     <use xlink:href="#ArialMT-65" x="1480.332031"/>
     <use xlink:href="#ArialMT-20" x="1535.947266"/>
     <use xlink:href="#ArialMT-73" x="1563.730469"/>
     <use xlink:href="#ArialMT-68" x="1613.730469"/>
     <use xlink:href="#ArialMT-6f" x="1669.345703"/>
     <use xlink:href="#ArialMT-63" x="1724.960938"/>
     <use xlink:href="#ArialMT-6b" x="1774.960938"/>
    </g>
   </g>
   <g id="legend_1">
    <g id="patch_7">
     <path d="M 314.010625 106.170438 
L 407.72 106.170438 
Q 409.72 106.170438 409.72 104.170438 
L 409.72 48.472 
Q 409.72 46.472 407.72 46.472 
L 314.010625 46.472 
Q 312.010625 46.472 312.010625 48.472 
L 312.010625 104.170438 
Q 312.010625 106.170438 314.010625 106.170438 
z
" style="fill: #eaeaf2; opacity: 0.8; stroke: #cccccc; stroke-linejoin: miter"/>
    </g>
    <g id="line2d_19">
     <path d="M 316.010625 54.129813 
L 326.010625 54.129813 
L 336.010625 54.129813 
" style="fill: none; stroke: #8000ff; stroke-width: 1.5; stroke-linecap: round"/>
    </g>
    <g id="text_18">
     <!-- 2e-07m -->
     <g style="fill: #262626" transform="translate(344.010625 57.629813) scale(0.1 -0.1)">
      <defs>
       <path id="ArialMT-2d" d="M 203 1375 
L 203 1941 
L 1931 1941 
L 1931 1375 
L 203 1375 
z
" transform="scale(0.015625)"/>
       <path id="ArialMT-37" d="M 303 3981 
L 303 4522 
L 3269 4522 
L 3269 4084 
Q 2831 3619 2401 2847 
Q 1972 2075 1738 1259 
Q 1569 684 1522 0 
L 944 0 
Q 953 541 1156 1306 
Q 1359 2072 1739 2783 
Q 2119 3494 2547 3981 
L 303 3981 
z
" transform="scale(0.015625)"/>
      </defs>
      <use xlink:href="#ArialMT-32"/>
      <use xlink:href="#ArialMT-65" x="55.615234"/>
      <use xlink:href="#ArialMT-2d" x="111.230469"/>
      <use xlink:href="#ArialMT-30" x="144.53125"/>
      <use xlink:href="#ArialMT-37" x="200.146484"/>
      <use xlink:href="#ArialMT-6d" x="255.761719"/>
     </g>
    </g>
    <g id="line2d_20">
     <path d="M 316.010625 68.275125 
L 326.010625 68.275125 
L 336.010625 68.275125 
" style="fill: none; stroke: #80ffb4; stroke-width: 1.5; stroke-linecap: round"/>
    </g>
    <g id="text_19">
     <!-- 2e-06m -->
     <g style="fill: #262626" transform="translate(344.010625 71.775125) scale(0.1 -0.1)">
      <use xlink:href="#ArialMT-32"/>
      <use xlink:href="#ArialMT-65" x="55.615234"/>
      <use xlink:href="#ArialMT-2d" x="111.230469"/>
      <use xlink:href="#ArialMT-30" x="144.53125"/>
      <use xlink:href="#ArialMT-36" x="200.146484"/>
      <use xlink:href="#ArialMT-6d" x="255.761719"/>
     </g>
    </g>
    <g id="line2d_21">
     <path d="M 316.010625 82.420437 
L 326.010625 82.420437 
L 336.010625 82.420437 
" style="fill: none; stroke: #ff0000; stroke-width: 1.5; stroke-linecap: round"/>
    </g>
    <g id="text_20">
     <!-- 1e-06m -->
     <g style="fill: #262626" transform="translate(344.010625 85.920437) scale(0.1 -0.1)">
      <use xlink:href="#ArialMT-31"/>
      <use xlink:href="#ArialMT-65" x="55.615234"/>
      <use xlink:href="#ArialMT-2d" x="111.230469"/>
      <use xlink:href="#ArialMT-30" x="144.53125"/>
      <use xlink:href="#ArialMT-36" x="200.146484"/>
      <use xlink:href="#ArialMT-6d" x="255.761719"/>
     </g>
    </g>
    <g id="line2d_22">
     <g>
      <use xlink:href="#me3f14ea741" x="326.010625" y="96.56575" style="stroke: #000000"/>
     </g>
    </g>
    <g id="text_21">
     <!-- digitized_data -->
     <g style="fill: #262626" transform="translate(344.010625 100.06575) scale(0.1 -0.1)">
      <defs>
       <path id="ArialMT-67" d="M 319 -275 
L 866 -356 
Q 900 -609 1056 -725 
Q 1266 -881 1628 -881 
Q 2019 -881 2231 -725 
Q 2444 -569 2519 -288 
Q 2563 -116 2559 434 
Q 2191 0 1641 0 
Q 956 0 581 494 
Q 206 988 206 1678 
Q 206 2153 378 2554 
Q 550 2956 876 3175 
Q 1203 3394 1644 3394 
Q 2231 3394 2613 2919 
L 2613 3319 
L 3131 3319 
L 3131 450 
Q 3131 -325 2973 -648 
Q 2816 -972 2473 -1159 
Q 2131 -1347 1631 -1347 
Q 1038 -1347 672 -1080 
Q 306 -813 319 -275 
z
M 784 1719 
Q 784 1066 1043 766 
Q 1303 466 1694 466 
Q 2081 466 2343 764 
Q 2606 1063 2606 1700 
Q 2606 2309 2336 2618 
Q 2066 2928 1684 2928 
Q 1309 2928 1046 2623 
Q 784 2319 784 1719 
z
" transform="scale(0.015625)"/>
       <path id="ArialMT-7a" d="M 125 0 
L 125 456 
L 2238 2881 
Q 1878 2863 1603 2863 
L 250 2863 
L 250 3319 
L 2963 3319 
L 2963 2947 
L 1166 841 
L 819 456 
Q 1197 484 1528 484 
L 3063 484 
L 3063 0 
L 125 0 
z
" transform="scale(0.015625)"/>
       <path id="ArialMT-5f" d="M -97 -1272 
L -97 -866 
L 3631 -866 
L 3631 -1272 
L -97 -1272 
z
" transform="scale(0.015625)"/>
      </defs>
      <use xlink:href="#ArialMT-64"/>
      <use xlink:href="#ArialMT-69" x="55.615234"/>
      <use xlink:href="#ArialMT-67" x="77.832031"/>
      <use xlink:href="#ArialMT-69" x="133.447266"/>
      <use xlink:href="#ArialMT-74" x="155.664062"/>
      <use xlink:href="#ArialMT-69" x="183.447266"/>
      <use xlink:href="#ArialMT-7a" x="205.664062"/>
      <use xlink:href="#ArialMT-65" x="255.664062"/>
      <use xlink:href="#ArialMT-64" x="311.279297"/>
      <use xlink:href="#ArialMT-5f" x="366.894531"/>
      <use xlink:href="#ArialMT-64" x="422.509766"/>
      <use xlink:href="#ArialMT-61" x="478.125"/>
      <use xlink:href="#ArialMT-74" x="533.740234"/>
      <use xlink:href="#ArialMT-61" x="561.523438"/>
     </g>
    </g>
   </g>
  </g>
 </g>
 <defs>
  <clipPath id="p5148e42969">
   <rect x="57.6" y="41.472" width="357.12" height="266.112"/>
  </clipPath>
 </defs>
</svg>
