<?xml version="1.0" encoding="utf-8" standalone="no"?>
<!DOCTYPE svg PUBLIC "-//W3C//DTD SVG 1.1//EN"
  "http://www.w3.org/Graphics/SVG/1.1/DTD/svg11.dtd">
<svg xmlns:xlink="http://www.w3.org/1999/xlink" width="460.8pt" height="345.6pt" viewBox="0 0 460.8 345.6" xmlns="http://www.w3.org/2000/svg" version="1.1">
 <metadata>
  <rdf:RDF xmlns:dc="http://purl.org/dc/elements/1.1/" xmlns:cc="http://creativecommons.org/ns#" xmlns:rdf="http://www.w3.org/1999/02/22-rdf-syntax-ns#">
   <cc:Work>
    <dc:type rdf:resource="http://purl.org/dc/dcmitype/StillImage"/>
    <dc:date>2023-12-02T15:41:52.588643</dc:date>
    <dc:format>image/svg+xml</dc:format>
    <dc:creator>
     <cc:Agent>
      <dc:title>Matplotlib v3.8.0, https://matplotlib.org/</dc:title>
     </cc:Agent>
    </dc:creator>
   </cc:Work>
  </rdf:RDF>
 </metadata>
 <defs>
  <style type="text/css">*{stroke-linejoin: round; stroke-linecap: butt}</style>
 </defs>
 <g id="figure_1">
  <g id="patch_1">
   <path d="M 0 345.6 
L 460.8 345.6 
L 460.8 0 
L 0 0 
z
" style="fill: #ffffff"/>
  </g>
  <g id="axes_1">
   <g id="patch_2">
    <path d="M 57.6 307.584 
L 414.72 307.584 
L 414.72 41.472 
L 57.6 41.472 
z
" style="fill: #eaeaf2"/>
   </g>
   <g id="matplotlib.axis_1">
    <g id="xtick_1">
     <g id="line2d_1">
      <path d="M 57.6 307.584 
L 57.6 41.472 
" clip-path="url(#p8c3c4caea7)" style="fill: none; stroke: #ffffff; stroke-width: 0.8; stroke-linecap: round"/>
     </g>
     <g id="text_1">
      <!-- −1.00 -->
      <g style="fill: #262626" transform="translate(46.467312 322.182875) scale(0.088 -0.088)">
       <defs>
        <path id="ArialMT-2212" d="M 3381 1997 
L 356 1997 
L 356 2522 
L 3381 2522 
L 3381 1997 
z
" transform="scale(0.015625)"/>
        <path id="ArialMT-31" d="M 2384 0 
L 1822 0 
L 1822 3584 
Q 1619 3391 1289 3197 
Q 959 3003 697 2906 
L 697 3450 
Q 1169 3672 1522 3987 
Q 1875 4303 2022 4600 
L 2384 4600 
L 2384 0 
z
" transform="scale(0.015625)"/>
        <path id="ArialMT-2e" d="M 581 0 
L 581 641 
L 1222 641 
L 1222 0 
L 581 0 
z
" transform="scale(0.015625)"/>
        <path id="ArialMT-30" d="M 266 2259 
Q 266 3072 433 3567 
Q 600 4063 929 4331 
Q 1259 4600 1759 4600 
Q 2128 4600 2406 4451 
Q 2684 4303 2865 4023 
Q 3047 3744 3150 3342 
Q 3253 2941 3253 2259 
Q 3253 1453 3087 958 
Q 2922 463 2592 192 
Q 2263 -78 1759 -78 
Q 1097 -78 719 397 
Q 266 969 266 2259 
z
M 844 2259 
Q 844 1131 1108 757 
Q 1372 384 1759 384 
Q 2147 384 2411 759 
Q 2675 1134 2675 2259 
Q 2675 3391 2411 3762 
Q 2147 4134 1753 4134 
Q 1366 4134 1134 3806 
Q 844 3388 844 2259 
z
" transform="scale(0.015625)"/>
       </defs>
       <use xlink:href="#ArialMT-2212"/>
       <use xlink:href="#ArialMT-31" x="58.398438"/>
       <use xlink:href="#ArialMT-2e" x="114.013672"/>
       <use xlink:href="#ArialMT-30" x="141.796875"/>
       <use xlink:href="#ArialMT-30" x="197.412109"/>
      </g>
     </g>
    </g>
    <g id="xtick_2">
     <g id="line2d_2">
      <path d="M 102.24 307.584 
L 102.24 41.472 
" clip-path="url(#p8c3c4caea7)" style="fill: none; stroke: #ffffff; stroke-width: 0.8; stroke-linecap: round"/>
     </g>
     <g id="text_2">
      <!-- −0.75 -->
      <g style="fill: #262626" transform="translate(91.107312 322.182875) scale(0.088 -0.088)">
       <defs>
        <path id="ArialMT-37" d="M 303 3981 
L 303 4522 
L 3269 4522 
L 3269 4084 
Q 2831 3619 2401 2847 
Q 1972 2075 1738 1259 
Q 1569 684 1522 0 
L 944 0 
Q 953 541 1156 1306 
Q 1359 2072 1739 2783 
Q 2119 3494 2547 3981 
L 303 3981 
z
" transform="scale(0.015625)"/>
        <path id="ArialMT-35" d="M 266 1200 
L 856 1250 
Q 922 819 1161 601 
Q 1400 384 1738 384 
Q 2144 384 2425 690 
Q 2706 997 2706 1503 
Q 2706 1984 2436 2262 
Q 2166 2541 1728 2541 
Q 1456 2541 1237 2417 
Q 1019 2294 894 2097 
L 366 2166 
L 809 4519 
L 3088 4519 
L 3088 3981 
L 1259 3981 
L 1013 2750 
Q 1425 3038 1878 3038 
Q 2478 3038 2890 2622 
Q 3303 2206 3303 1553 
Q 3303 931 2941 478 
Q 2500 -78 1738 -78 
Q 1113 -78 717 272 
Q 322 622 266 1200 
z
" transform="scale(0.015625)"/>
       </defs>
       <use xlink:href="#ArialMT-2212"/>
       <use xlink:href="#ArialMT-30" x="58.398438"/>
       <use xlink:href="#ArialMT-2e" x="114.013672"/>
       <use xlink:href="#ArialMT-37" x="141.796875"/>
       <use xlink:href="#ArialMT-35" x="197.412109"/>
      </g>
     </g>
    </g>
    <g id="xtick_3">
     <g id="line2d_3">
      <path d="M 146.88 307.584 
L 146.88 41.472 
" clip-path="url(#p8c3c4caea7)" style="fill: none; stroke: #ffffff; stroke-width: 0.8; stroke-linecap: round"/>
     </g>
     <g id="text_3">
      <!-- −0.50 -->
      <g style="fill: #262626" transform="translate(135.747312 322.182875) scale(0.088 -0.088)">
       <use xlink:href="#ArialMT-2212"/>
       <use xlink:href="#ArialMT-30" x="58.398438"/>
       <use xlink:href="#ArialMT-2e" x="114.013672"/>
       <use xlink:href="#ArialMT-35" x="141.796875"/>
       <use xlink:href="#ArialMT-30" x="197.412109"/>
      </g>
     </g>
    </g>
    <g id="xtick_4">
     <g id="line2d_4">
      <path d="M 191.52 307.584 
L 191.52 41.472 
" clip-path="url(#p8c3c4caea7)" style="fill: none; stroke: #ffffff; stroke-width: 0.8; stroke-linecap: round"/>
     </g>
     <g id="text_4">
      <!-- −0.25 -->
      <g style="fill: #262626" transform="translate(180.387312 322.182875) scale(0.088 -0.088)">
       <defs>
        <path id="ArialMT-32" d="M 3222 541 
L 3222 0 
L 194 0 
Q 188 203 259 391 
Q 375 700 629 1000 
Q 884 1300 1366 1694 
Q 2113 2306 2375 2664 
Q 2638 3022 2638 3341 
Q 2638 3675 2398 3904 
Q 2159 4134 1775 4134 
Q 1369 4134 1125 3890 
Q 881 3647 878 3216 
L 300 3275 
Q 359 3922 746 4261 
Q 1134 4600 1788 4600 
Q 2447 4600 2831 4234 
Q 3216 3869 3216 3328 
Q 3216 3053 3103 2787 
Q 2991 2522 2730 2228 
Q 2469 1934 1863 1422 
Q 1356 997 1212 845 
Q 1069 694 975 541 
L 3222 541 
z
" transform="scale(0.015625)"/>
       </defs>
       <use xlink:href="#ArialMT-2212"/>
       <use xlink:href="#ArialMT-30" x="58.398438"/>
       <use xlink:href="#ArialMT-2e" x="114.013672"/>
       <use xlink:href="#ArialMT-32" x="141.796875"/>
       <use xlink:href="#ArialMT-35" x="197.412109"/>
      </g>
     </g>
    </g>
    <g id="xtick_5">
     <g id="line2d_5">
      <path d="M 236.16 307.584 
L 236.16 41.472 
" clip-path="url(#p8c3c4caea7)" style="fill: none; stroke: #ffffff; stroke-width: 0.8; stroke-linecap: round"/>
     </g>
     <g id="text_5">
      <!-- 0.00 -->
      <g style="fill: #262626" transform="translate(227.597187 322.182875) scale(0.088 -0.088)">
       <use xlink:href="#ArialMT-30"/>
       <use xlink:href="#ArialMT-2e" x="55.615234"/>
       <use xlink:href="#ArialMT-30" x="83.398438"/>
       <use xlink:href="#ArialMT-30" x="139.013672"/>
      </g>
     </g>
    </g>
    <g id="xtick_6">
     <g id="line2d_6">
      <path d="M 280.8 307.584 
L 280.8 41.472 
" clip-path="url(#p8c3c4caea7)" style="fill: none; stroke: #ffffff; stroke-width: 0.8; stroke-linecap: round"/>
     </g>
     <g id="text_6">
      <!-- 0.25 -->
      <g style="fill: #262626" transform="translate(272.237188 322.182875) scale(0.088 -0.088)">
       <use xlink:href="#ArialMT-30"/>
       <use xlink:href="#ArialMT-2e" x="55.615234"/>
       <use xlink:href="#ArialMT-32" x="83.398438"/>
       <use xlink:href="#ArialMT-35" x="139.013672"/>
      </g>
     </g>
    </g>
    <g id="xtick_7">
     <g id="line2d_7">
      <path d="M 325.44 307.584 
L 325.44 41.472 
" clip-path="url(#p8c3c4caea7)" style="fill: none; stroke: #ffffff; stroke-width: 0.8; stroke-linecap: round"/>
     </g>
     <g id="text_7">
      <!-- 0.50 -->
      <g style="fill: #262626" transform="translate(316.877187 322.182875) scale(0.088 -0.088)">
       <use xlink:href="#ArialMT-30"/>
       <use xlink:href="#ArialMT-2e" x="55.615234"/>
       <use xlink:href="#ArialMT-35" x="83.398438"/>
       <use xlink:href="#ArialMT-30" x="139.013672"/>
      </g>
     </g>
    </g>
    <g id="xtick_8">
     <g id="line2d_8">
      <path d="M 370.08 307.584 
L 370.08 41.472 
" clip-path="url(#p8c3c4caea7)" style="fill: none; stroke: #ffffff; stroke-width: 0.8; stroke-linecap: round"/>
     </g>
     <g id="text_8">
      <!-- 0.75 -->
      <g style="fill: #262626" transform="translate(361.517188 322.182875) scale(0.088 -0.088)">
       <use xlink:href="#ArialMT-30"/>
       <use xlink:href="#ArialMT-2e" x="55.615234"/>
       <use xlink:href="#ArialMT-37" x="83.398438"/>
       <use xlink:href="#ArialMT-35" x="139.013672"/>
      </g>
     </g>
    </g>
    <g id="xtick_9">
     <g id="line2d_9">
      <path d="M 414.72 307.584 
L 414.72 41.472 
" clip-path="url(#p8c3c4caea7)" style="fill: none; stroke: #ffffff; stroke-width: 0.8; stroke-linecap: round"/>
     </g>
     <g id="text_9">
      <!-- 1.00 -->
      <g style="fill: #262626" transform="translate(406.157188 322.182875) scale(0.088 -0.088)">
       <use xlink:href="#ArialMT-31"/>
       <use xlink:href="#ArialMT-2e" x="55.615234"/>
       <use xlink:href="#ArialMT-30" x="83.398438"/>
       <use xlink:href="#ArialMT-30" x="139.013672"/>
      </g>
     </g>
    </g>
    <g id="text_10">
     <!-- x (m) -->
     <g style="fill: #262626" transform="translate(225.23175 334.920375) scale(0.096 -0.096)">
      <defs>
       <path id="ArialMT-78" d="M 47 0 
L 1259 1725 
L 138 3319 
L 841 3319 
L 1350 2541 
Q 1494 2319 1581 2169 
Q 1719 2375 1834 2534 
L 2394 3319 
L 3066 3319 
L 1919 1756 
L 3153 0 
L 2463 0 
L 1781 1031 
L 1600 1309 
L 728 0 
L 47 0 
z
" transform="scale(0.015625)"/>
       <path id="ArialMT-20" transform="scale(0.015625)"/>
       <path id="ArialMT-28" d="M 1497 -1347 
Q 1031 -759 709 28 
Q 388 816 388 1659 
Q 388 2403 628 3084 
Q 909 3875 1497 4659 
L 1900 4659 
Q 1522 4009 1400 3731 
Q 1209 3300 1100 2831 
Q 966 2247 966 1656 
Q 966 153 1900 -1347 
L 1497 -1347 
z
" transform="scale(0.015625)"/>
       <path id="ArialMT-6d" d="M 422 0 
L 422 3319 
L 925 3319 
L 925 2853 
Q 1081 3097 1340 3245 
Q 1600 3394 1931 3394 
Q 2300 3394 2536 3241 
Q 2772 3088 2869 2813 
Q 3263 3394 3894 3394 
Q 4388 3394 4653 3120 
Q 4919 2847 4919 2278 
L 4919 0 
L 4359 0 
L 4359 2091 
Q 4359 2428 4304 2576 
Q 4250 2725 4106 2815 
Q 3963 2906 3769 2906 
Q 3419 2906 3187 2673 
Q 2956 2441 2956 1928 
L 2956 0 
L 2394 0 
L 2394 2156 
Q 2394 2531 2256 2718 
Q 2119 2906 1806 2906 
Q 1569 2906 1367 2781 
Q 1166 2656 1075 2415 
Q 984 2175 984 1722 
L 984 0 
L 422 0 
z
" transform="scale(0.015625)"/>
       <path id="ArialMT-29" d="M 791 -1347 
L 388 -1347 
Q 1322 153 1322 1656 
Q 1322 2244 1188 2822 
Q 1081 3291 891 3722 
Q 769 4003 388 4659 
L 791 4659 
Q 1378 3875 1659 3084 
Q 1900 2403 1900 1659 
Q 1900 816 1576 28 
Q 1253 -759 791 -1347 
z
" transform="scale(0.015625)"/>
      </defs>
      <use xlink:href="#ArialMT-78"/>
      <use xlink:href="#ArialMT-20" x="50"/>
      <use xlink:href="#ArialMT-28" x="77.783203"/>
      <use xlink:href="#ArialMT-6d" x="111.083984"/>
      <use xlink:href="#ArialMT-29" x="194.384766"/>
     </g>
    </g>
   </g>
   <g id="matplotlib.axis_2">
    <g id="ytick_1">
     <g id="line2d_10">
      <path d="M 57.6 307.584 
L 414.72 307.584 
" clip-path="url(#p8c3c4caea7)" style="fill: none; stroke: #ffffff; stroke-width: 0.8; stroke-linecap: round"/>
     </g>
     <g id="text_11">
      <!-- −1.00 -->
      <g style="fill: #262626" transform="translate(27.034625 310.733437) scale(0.088 -0.088)">
       <use xlink:href="#ArialMT-2212"/>
       <use xlink:href="#ArialMT-31" x="58.398438"/>
       <use xlink:href="#ArialMT-2e" x="114.013672"/>
       <use xlink:href="#ArialMT-30" x="141.796875"/>
       <use xlink:href="#ArialMT-30" x="197.412109"/>
      </g>
     </g>
    </g>
    <g id="ytick_2">
     <g id="line2d_11">
      <path d="M 57.6 274.32 
L 414.72 274.32 
" clip-path="url(#p8c3c4caea7)" style="fill: none; stroke: #ffffff; stroke-width: 0.8; stroke-linecap: round"/>
     </g>
     <g id="text_12">
      <!-- −0.75 -->
      <g style="fill: #262626" transform="translate(27.034625 277.469437) scale(0.088 -0.088)">
       <use xlink:href="#ArialMT-2212"/>
       <use xlink:href="#ArialMT-30" x="58.398438"/>
       <use xlink:href="#ArialMT-2e" x="114.013672"/>
       <use xlink:href="#ArialMT-37" x="141.796875"/>
       <use xlink:href="#ArialMT-35" x="197.412109"/>
      </g>
     </g>
    </g>
    <g id="ytick_3">
     <g id="line2d_12">
      <path d="M 57.6 241.056 
L 414.72 241.056 
" clip-path="url(#p8c3c4caea7)" style="fill: none; stroke: #ffffff; stroke-width: 0.8; stroke-linecap: round"/>
     </g>
     <g id="text_13">
      <!-- −0.50 -->
      <g style="fill: #262626" transform="translate(27.034625 244.205437) scale(0.088 -0.088)">
       <use xlink:href="#ArialMT-2212"/>
       <use xlink:href="#ArialMT-30" x="58.398438"/>
       <use xlink:href="#ArialMT-2e" x="114.013672"/>
       <use xlink:href="#ArialMT-35" x="141.796875"/>
       <use xlink:href="#ArialMT-30" x="197.412109"/>
      </g>
     </g>
    </g>
    <g id="ytick_4">
     <g id="line2d_13">
      <path d="M 57.6 207.792 
L 414.72 207.792 
" clip-path="url(#p8c3c4caea7)" style="fill: none; stroke: #ffffff; stroke-width: 0.8; stroke-linecap: round"/>
     </g>
     <g id="text_14">
      <!-- −0.25 -->
      <g style="fill: #262626" transform="translate(27.034625 210.941437) scale(0.088 -0.088)">
       <use xlink:href="#ArialMT-2212"/>
       <use xlink:href="#ArialMT-30" x="58.398438"/>
       <use xlink:href="#ArialMT-2e" x="114.013672"/>
       <use xlink:href="#ArialMT-32" x="141.796875"/>
       <use xlink:href="#ArialMT-35" x="197.412109"/>
      </g>
     </g>
    </g>
    <g id="ytick_5">
     <g id="line2d_14">
      <path d="M 57.6 174.528 
L 414.72 174.528 
" clip-path="url(#p8c3c4caea7)" style="fill: none; stroke: #ffffff; stroke-width: 0.8; stroke-linecap: round"/>
     </g>
     <g id="text_15">
      <!-- 0.00 -->
      <g style="fill: #262626" transform="translate(32.174375 177.677437) scale(0.088 -0.088)">
       <use xlink:href="#ArialMT-30"/>
       <use xlink:href="#ArialMT-2e" x="55.615234"/>
       <use xlink:href="#ArialMT-30" x="83.398438"/>
       <use xlink:href="#ArialMT-30" x="139.013672"/>
      </g>
     </g>
    </g>
    <g id="ytick_6">
     <g id="line2d_15">
      <path d="M 57.6 141.264 
L 414.72 141.264 
" clip-path="url(#p8c3c4caea7)" style="fill: none; stroke: #ffffff; stroke-width: 0.8; stroke-linecap: round"/>
     </g>
     <g id="text_16">
      <!-- 0.25 -->
      <g style="fill: #262626" transform="translate(32.174375 144.413438) scale(0.088 -0.088)">
       <use xlink:href="#ArialMT-30"/>
       <use xlink:href="#ArialMT-2e" x="55.615234"/>
       <use xlink:href="#ArialMT-32" x="83.398438"/>
       <use xlink:href="#ArialMT-35" x="139.013672"/>
      </g>
     </g>
    </g>
    <g id="ytick_7">
     <g id="line2d_16">
      <path d="M 57.6 108 
L 414.72 108 
" clip-path="url(#p8c3c4caea7)" style="fill: none; stroke: #ffffff; stroke-width: 0.8; stroke-linecap: round"/>
     </g>
     <g id="text_17">
      <!-- 0.50 -->
      <g style="fill: #262626" transform="translate(32.174375 111.149438) scale(0.088 -0.088)">
       <use xlink:href="#ArialMT-30"/>
       <use xlink:href="#ArialMT-2e" x="55.615234"/>
       <use xlink:href="#ArialMT-35" x="83.398438"/>
       <use xlink:href="#ArialMT-30" x="139.013672"/>
      </g>
     </g>
    </g>
    <g id="ytick_8">
     <g id="line2d_17">
      <path d="M 57.6 74.736 
L 414.72 74.736 
" clip-path="url(#p8c3c4caea7)" style="fill: none; stroke: #ffffff; stroke-width: 0.8; stroke-linecap: round"/>
     </g>
     <g id="text_18">
      <!-- 0.75 -->
      <g style="fill: #262626" transform="translate(32.174375 77.885437) scale(0.088 -0.088)">
       <use xlink:href="#ArialMT-30"/>
       <use xlink:href="#ArialMT-2e" x="55.615234"/>
       <use xlink:href="#ArialMT-37" x="83.398438"/>
       <use xlink:href="#ArialMT-35" x="139.013672"/>
      </g>
     </g>
    </g>
    <g id="ytick_9">
     <g id="line2d_18">
      <path d="M 57.6 41.472 
L 414.72 41.472 
" clip-path="url(#p8c3c4caea7)" style="fill: none; stroke: #ffffff; stroke-width: 0.8; stroke-linecap: round"/>
     </g>
     <g id="text_19">
      <!-- 1.00 -->
      <g style="fill: #262626" transform="translate(32.174375 44.621438) scale(0.088 -0.088)">
       <use xlink:href="#ArialMT-31"/>
       <use xlink:href="#ArialMT-2e" x="55.615234"/>
       <use xlink:href="#ArialMT-30" x="83.398438"/>
       <use xlink:href="#ArialMT-30" x="139.013672"/>
      </g>
     </g>
    </g>
    <g id="text_20">
     <!-- y (m) -->
     <g style="fill: #262626" transform="translate(21.014125 185.45625) rotate(-90) scale(0.096 -0.096)">
      <defs>
       <path id="ArialMT-79" d="M 397 -1278 
L 334 -750 
Q 519 -800 656 -800 
Q 844 -800 956 -737 
Q 1069 -675 1141 -563 
Q 1194 -478 1313 -144 
Q 1328 -97 1363 -6 
L 103 3319 
L 709 3319 
L 1400 1397 
Q 1534 1031 1641 628 
Q 1738 1016 1872 1384 
L 2581 3319 
L 3144 3319 
L 1881 -56 
Q 1678 -603 1566 -809 
Q 1416 -1088 1222 -1217 
Q 1028 -1347 759 -1347 
Q 597 -1347 397 -1278 
z
" transform="scale(0.015625)"/>
      </defs>
      <use xlink:href="#ArialMT-79"/>
      <use xlink:href="#ArialMT-20" x="50"/>
      <use xlink:href="#ArialMT-28" x="77.783203"/>
      <use xlink:href="#ArialMT-6d" x="111.083984"/>
      <use xlink:href="#ArialMT-29" x="194.384766"/>
     </g>
    </g>
   </g>
   <g id="line2d_19">
    <path d="M 227.232 167.8752 
L 225.726783 168.786747 
L 224.382991 169.882533 
L 223.242327 171.148794 
L 222.501839 172.271007 
L 221.933835 173.476758 
L 221.554477 174.751623 
L 221.377809 176.079501 
L 221.415448 177.442785 
L 221.676303 178.822554 
L 222.166328 180.198806 
L 222.888291 181.550705 
L 223.841601 182.856861 
L 225.022163 184.095624 
L 226.422288 185.2454 
L 228.030646 186.284979 
L 229.832276 187.193865 
L 231.808656 187.952624 
L 233.937813 188.543215 
L 236.194512 188.949327 
L 238.550482 189.156701 
L 240.974713 189.153433 
L 243.433796 188.930258 
L 245.892322 188.480803 
L 248.313323 187.801818 
L 250.658764 186.893355 
L 252.890058 185.758917 
L 254.968633 184.405557 
L 256.8565 182.843932 
L 258.12505 181.54448 
L 259.250699 180.143151 
L 260.219265 178.648372 
L 261.017421 177.069633 
L 261.632833 175.417442 
L 262.054297 173.703274 
L 262.27187 171.939501 
L 262.276998 170.139321 
L 262.062629 168.316676 
L 261.623328 166.486154 
L 260.955369 164.662891 
L 260.056828 162.862462 
L 258.927657 161.100763 
L 257.569747 159.39389 
L 255.986973 157.758005 
L 254.185231 156.209211 
L 252.172452 154.763407 
L 249.958604 153.43615 
L 247.555676 152.242513 
L 244.977641 151.196943 
L 242.240407 150.313119 
L 239.361745 149.603809 
L 236.361202 149.080736 
L 233.259995 148.754441 
L 230.080887 148.634161 
L 226.848048 148.727701 
L 223.586896 149.041328 
L 220.323925 149.579664 
L 217.086522 150.345593 
L 213.902757 151.340179 
L 210.801178 152.5626 
L 207.810583 154.010089 
L 204.959786 155.677895 
L 202.277376 157.559258 
L 199.791468 159.645398 
L 197.529452 161.925523 
L 195.517738 164.386854 
L 193.781504 167.014668 
L 192.788826 168.850905 
L 191.935748 170.748418 
L 191.228496 172.701487 
L 190.67289 174.704065 
L 190.274314 176.749785 
L 190.037684 178.831984 
L 189.967422 180.943713 
L 190.067428 183.077765 
L 190.341054 185.226691 
L 190.791079 187.382823 
L 191.419687 189.538301 
L 192.228447 191.685092 
L 193.21829 193.815022 
L 194.389495 195.9198 
L 195.741672 197.991049 
L 197.273751 200.02033 
L 198.983967 201.999179 
L 200.869856 203.919134 
L 202.928246 205.771763 
L 205.155253 207.548706 
L 207.546283 209.241698 
L 210.096029 210.842605 
L 212.79848 212.343459 
L 215.646924 213.736491 
L 218.633959 215.014161 
L 221.751508 216.169193 
L 224.990829 217.19461 
L 228.342537 218.083764 
L 231.796625 218.830366 
L 235.342485 219.428522 
L 238.968936 219.872762 
L 242.664252 220.158066 
L 246.416195 220.279897 
L 250.21205 220.234227 
L 254.038659 220.017563 
L 257.882462 219.626971 
L 261.729538 219.060099 
L 265.565651 218.3152 
L 269.376294 217.391151 
L 273.146736 216.287472 
L 276.862075 215.004338 
L 280.507287 213.542597 
L 284.067281 211.90378 
L 287.526951 210.090108 
L 290.871237 208.104503 
L 294.085177 205.950591 
L 297.153966 203.632701 
L 300.063016 201.155868 
L 302.798013 198.525827 
L 305.344978 195.749011 
L 307.690327 192.832536 
L 309.820927 189.784196 
L 311.724156 186.612445 
L 313.387963 183.326379 
L 314.800924 179.935721 
L 315.952298 176.450794 
L 316.83208 172.882499 
L 317.431059 169.242283 
L 317.740865 165.542112 
L 317.754023 161.794437 
L 317.463995 158.012159 
L 316.865229 154.208587 
L 315.953199 150.397403 
L 314.724447 146.592615 
L 313.176616 142.808515 
L 311.308485 139.059629 
L 309.119995 135.36067 
L 306.612281 131.726488 
L 303.787687 128.172016 
L 300.64979 124.712218 
L 297.203407 121.362033 
L 293.454611 118.136318 
L 289.410729 115.049792 
L 285.080349 112.116981 
L 280.473311 109.352153 
L 275.600699 106.769265 
L 270.474827 104.381905 
L 265.109223 102.203226 
L 259.518598 100.245897 
L 253.718825 98.522038 
L 247.7269 97.043166 
L 241.560907 95.820142 
L 235.239973 94.863108 
L 228.784218 94.181441 
L 222.214704 93.7837 
L 215.553378 93.677574 
L 208.823007 93.869834 
L 202.047113 94.366292 
L 195.249903 95.171754 
L 188.456191 96.289982 
L 181.691321 97.723659 
L 174.981085 99.47435 
L 168.351637 101.542478 
L 161.829398 103.927292 
L 155.440972 106.626851 
L 149.213047 109.637995 
L 143.172296 112.956342 
L 137.345281 116.576267 
L 131.758347 120.490902 
L 126.437526 124.692134 
L 121.408427 129.170604 
L 116.696136 133.91572 
L 112.325107 138.915664 
L 108.319062 144.157413 
L 106.460094 146.86457 
L 104.700882 149.62676 
L 103.044138 152.442026 
L 101.492508 155.308341 
L 100.048572 158.223609 
L 98.714835 161.185665 
L 97.493731 164.192279 
L 96.387614 167.241155 
L 95.398758 170.32993 
L 94.529352 173.456183 
L 93.781501 176.617429 
L 93.157218 179.811125 
L 92.658424 183.034669 
L 92.286945 186.285404 
L 92.044511 189.560618 
L 91.932748 192.857549 
L 91.953182 196.173383 
L 92.107231 199.505259 
L 92.396206 202.850268 
L 92.821307 206.205459 
L 93.383621 209.56784 
L 94.084121 212.934379 
L 94.923662 216.302007 
L 95.902978 219.667619 
L 97.022686 223.028082 
L 98.283275 226.380231 
L 99.685112 229.720875 
L 101.228436 233.046798 
L 102.913359 236.354763 
L 104.739862 239.641516 
L 106.707796 242.903786 
L 108.816878 246.138288 
L 111.066693 249.341729 
L 113.45669 252.510808 
L 115.986182 255.642218 
L 118.654348 258.732656 
L 121.460228 261.778814 
L 124.402723 264.777396 
L 127.480599 267.725108 
L 130.692479 270.618672 
L 134.036851 273.454823 
L 137.512062 276.230311 
L 141.116321 278.941909 
L 144.847696 281.586416 
L 148.70412 284.160655 
L 152.683384 286.661479 
L 156.783144 289.085779 
L 161.000918 291.430478 
L 165.334089 293.692542 
L 169.779903 295.868981 
L 174.335472 297.956849 
L 178.997777 299.953252 
L 183.763666 301.855348 
L 188.629856 303.660353 
L 193.592938 305.36554 
L 200.710721 307.583999 
L 200.710721 307.583999 
" clip-path="url(#p8c3c4caea7)" style="fill: none; stroke: #c44e52; stroke-width: 1.2; stroke-linecap: round"/>
   </g>
   <g id="line2d_20">
    <path d="M 119.29248 174.528 
L 118.251607 179.784882 
L 117.60984 185.131783 
L 117.392518 190.555544 
L 117.61182 196.038243 
L 118.276784 201.56084 
L 118.778737 204.330977 
L 119.394728 207.103675 
L 120.125428 209.876397 
L 120.971408 212.646577 
L 121.93314 215.411627 
L 123.010993 218.168931 
L 124.205233 220.915856 
L 125.516021 223.649748 
L 126.943412 226.367936 
L 128.487355 229.067734 
L 130.147688 231.746447 
L 133.816336 237.029776 
L 137.945868 242.196191 
L 142.531004 247.22392 
L 147.564655 252.09123 
L 153.037909 256.776509 
L 158.940023 261.25835 
L 165.258425 265.515635 
L 171.97872 269.527618 
L 179.084702 273.274012 
L 186.558377 276.735075 
L 194.379989 279.891694 
L 202.528059 282.72547 
L 210.979419 285.218802 
L 219.70927 287.354971 
L 228.691234 289.118221 
L 237.897417 290.493837 
L 247.298484 291.468226 
L 256.86373 292.028988 
L 266.56117 292.164992 
L 276.357628 291.866442 
L 286.218834 291.124944 
L 291.162733 290.585865 
L 296.109525 289.933568 
L 301.054665 289.167426 
L 305.993561 288.286908 
L 310.921577 287.291585 
L 315.834035 286.181129 
L 320.726222 284.955315 
L 325.593392 283.614022 
L 330.430772 282.157236 
L 335.233563 280.585047 
L 339.996946 278.897654 
L 344.716085 277.095367 
L 349.386135 275.178601 
L 354.002241 273.147885 
L 358.559548 271.003858 
L 363.0532 268.747271 
L 367.478348 266.378987 
L 371.830153 263.899982 
L 376.103793 261.311345 
L 380.294464 258.614278 
L 384.397388 255.810097 
L 388.407814 252.900229 
L 392.321028 249.886219 
L 396.132351 246.76972 
L 399.837151 243.552501 
L 403.430841 240.236443 
L 406.90889 236.823538 
L 410.266821 233.31589 
L 414.719998 228.2948 
L 414.719998 228.2948 
" clip-path="url(#p8c3c4caea7)" style="fill: none; stroke: #55a868; stroke-width: 1.2; stroke-linecap: round"/>
   </g>
   <g id="line2d_21">
    <path d="M 227.232 167.8752 
L 225.78284 168.772485 
L 224.529477 169.807378 
L 223.489665 170.951377 
L 222.672437 172.177996 
L 222.081426 173.462081 
L 221.714302 174.787828 
L 221.570224 176.137153 
L 221.648095 177.498877 
L 221.949132 178.860432 
L 222.476391 180.209456 
L 223.233233 181.530381 
L 224.221017 182.804117 
L 225.441799 184.012823 
L 226.891119 185.132663 
L 228.560213 186.139392 
L 230.432054 187.007279 
L 232.483658 187.712377 
L 234.686482 188.233366 
L 237.002627 188.551947 
L 239.389625 188.655584 
L 241.802179 188.538215 
L 244.198699 188.19977 
L 246.53383 187.646676 
L 248.769246 186.890315 
L 250.870244 185.946587 
L 252.81064 184.832791 
L 254.561239 183.573709 
L 256.109636 182.188413 
L 257.443705 180.698656 
L 258.555611 179.126263 
L 259.443416 177.488765 
L 260.106928 175.80224 
L 260.547997 174.077107 
L 260.76682 172.326472 
L 260.763922 170.562556 
L 260.539037 168.792411 
L 260.089463 167.022655 
L 259.413884 165.26895 
L 258.507784 163.538443 
L 257.370348 161.847742 
L 255.999139 160.209803 
L 254.391699 158.638681 
L 252.555451 157.156897 
L 250.497192 155.782933 
L 248.220532 154.532362 
L 245.74879 153.429586 
L 243.098185 152.491249 
L 240.287435 151.733115 
L 237.352299 151.172107 
L 234.317664 150.818511 
L 231.217553 150.680924 
L 228.079792 150.764351 
L 224.948393 151.06969 
L 221.851744 151.594494 
L 218.825049 152.332121 
L 215.894208 153.274523 
L 213.090618 154.408694 
L 210.435601 155.721811 
L 207.954615 157.195609 
L 205.662812 158.813732 
L 203.56686 160.564432 
L 201.683007 162.426181 
L 200.018239 164.381635 
L 198.572929 166.419849 
L 197.350849 168.524859 
L 196.350855 170.687796 
L 195.574525 172.894089 
L 195.020237 175.13672 
L 194.687484 177.409706 
L 194.577122 179.700358 
L 194.688649 181.996167 
L 195.023187 184.300017 
L 195.582127 186.599949 
L 196.36866 188.891445 
L 197.384104 191.16221 
L 198.633074 193.407051 
L 200.111531 195.605726 
L 201.829082 197.759249 
L 203.779827 199.846638 
L 205.968357 201.860362 
L 208.384383 203.77941 
L 211.022077 205.589646 
L 213.883501 207.282165 
L 216.951505 208.836918 
L 220.215446 210.240095 
L 223.651934 211.474603 
L 227.245675 212.529183 
L 230.980099 213.393322 
L 234.837415 214.057328 
L 238.786011 214.51131 
L 242.805188 214.749534 
L 246.873673 214.767418 
L 250.956571 214.562583 
L 255.01855 214.136769 
L 259.050977 213.490928 
L 263.01945 212.630714 
L 266.90362 211.561905 
L 270.684122 210.29134 
L 274.330385 208.832163 
L 277.826415 207.195105 
L 281.169263 205.384913 
L 284.333671 203.41893 
L 287.308295 201.309614 
L 290.083414 199.069747 
L 292.650918 196.712323 
L 295.004278 194.250441 
L 297.138504 191.69721 
L 299.050093 189.065652 
L 300.743221 186.357802 
L 302.209315 183.59635 
L 303.453493 180.78218 
L 304.478674 177.914633 
L 305.279597 175.015924 
L 305.859405 172.084556 
L 306.217509 169.130453 
L 306.354267 166.150825 
L 306.268749 163.167687 
L 305.960989 160.177832 
L 305.427943 157.177721 
L 304.670836 154.189363 
L 303.686075 151.209307 
L 302.472531 148.247003 
L 301.029769 145.312017 
L 299.350424 142.401716 
L 297.441175 139.538555 
L 295.29419 136.720609 
L 292.90909 133.958683 
L 290.286336 131.263814 
L 287.427266 128.647237 
L 284.347469 126.130656 
L 281.038581 123.714322 
L 277.504696 121.409714 
L 273.7509 119.22836 
L 269.800021 117.189902 
L 265.644005 115.296406 
L 261.309131 113.565915 
L 256.787699 112.001328 
L 252.10927 110.618755 
L 247.286694 109.426389 
L 242.333558 108.431936 
L 237.285146 107.645385 
L 232.136192 107.068797 
L 226.923786 106.709171 
L 221.664658 106.569108 
L 216.375663 106.650471 
L 211.073726 106.954387 
L 205.775775 107.481248 
L 200.520937 108.227083 
L 195.32568 109.187989 
L 190.183914 110.364895 
L 185.133342 111.748905 
L 180.188741 113.33414 
L 175.364166 115.11415 
L 170.672918 117.081961 
L 166.147641 119.220053 
L 161.7788 121.5289 
L 157.577098 124.000305 
L 153.570702 126.613189 
L 149.748904 129.369745 
L 146.119732 132.261012 
L 142.70637 135.263054 
L 139.497457 138.380004 
L 136.498385 141.602565 
L 133.727056 144.904651 
L 131.172003 148.292461 
L 128.836135 151.756742 
L 126.72161 155.288295 
L 124.829854 158.878003 
L 123.153399 162.536135 
L 121.702682 166.235359 
L 120.477141 169.966873 
L 119.470773 173.742415 
L 118.685256 177.554446 
L 118.124233 181.374556 
L 117.783556 185.215705 
L 117.66336 189.091816 
L 117.765869 192.974614 
L 118.090387 196.856783 
L 118.639426 200.752653 
L 119.415161 204.655161 
L 120.413197 208.535592 
L 121.638556 212.40834 
L 123.092203 216.266162 
L 124.774691 220.101742 
L 126.697422 223.928748 
L 128.851403 227.718248 
L 131.235918 231.46265 
L 133.864883 235.174573 
L 136.724133 238.825444 
L 139.811584 242.407515 
L 143.143509 245.93209 
L 146.720563 249.39001 
L 150.521574 252.753894 
L 154.564911 256.033339 
L 158.825893 259.20192 
L 163.324147 262.268005 
L 168.031521 265.206372 
L 172.941818 268.009371 
L 178.076319 270.683411 
L 183.401878 273.205604 
L 188.910717 275.568703 
L 194.62543 277.776956 
L 200.508173 279.81037 
L 206.549612 281.66227 
L 212.73995 283.32625 
L 219.06895 284.796184 
L 225.525944 286.066247 
L 232.06459 287.125819 
L 238.707606 287.977092 
L 245.443319 288.615307 
L 252.223056 289.034396 
L 259.070432 289.234368 
L 265.935733 289.212347 
L 272.805608 288.968766 
L 279.704412 288.501368 
L 286.581682 287.812197 
L 293.424396 286.903025 
L 300.21977 285.776059 
L 306.955275 284.433923 
L 313.618668 282.879648 
L 320.198008 281.11665 
L 326.681687 279.148721 
L 333.022427 276.992926 
L 339.246335 274.643197 
L 345.34309 272.104298 
L 351.302761 269.381285 
L 357.082176 266.497026 
L 362.707366 263.441797 
L 368.137717 260.241075 
L 373.398982 256.883248 
L 378.483695 253.374429 
L 383.355429 249.743677 
L 388.039014 245.976598 
L 392.501107 242.104358 
L 396.765704 238.110709 
L 400.827835 234.002274 
L 404.658999 229.813025 
L 408.281482 225.524064 
L 411.691727 221.142104 
L 414.72 216.916713 
L 414.72 216.916713 
" clip-path="url(#p8c3c4caea7)" style="fill: none; stroke: #4c72b0; stroke-width: 1.2; stroke-linecap: round"/>
   </g>
   <g id="patch_3">
    <path d="M 57.6 307.584 
L 57.6 41.472 
" style="fill: none; stroke: #1a1a1a; stroke-linejoin: miter; stroke-linecap: square"/>
   </g>
   <g id="patch_4">
    <path d="M 414.72 307.584 
L 414.72 41.472 
" style="fill: none; stroke: #1a1a1a; stroke-linejoin: miter; stroke-linecap: square"/>
   </g>
   <g id="patch_5">
    <path d="M 57.6 307.584 
L 414.72 307.584 
" style="fill: none; stroke: #1a1a1a; stroke-linejoin: miter; stroke-linecap: square"/>
   </g>
   <g id="patch_6">
    <path d="M 57.6 41.472 
L 414.72 41.472 
" style="fill: none; stroke: #1a1a1a; stroke-linejoin: miter; stroke-linecap: square"/>
   </g>
   <g id="text_21">
    <!-- Demonstration of PDH -->
    <g style="fill: #262626" transform="translate(188.1435 35.472) scale(0.096 -0.096)">
     <defs>
      <path id="ArialMT-44" d="M 494 0 
L 494 4581 
L 2072 4581 
Q 2606 4581 2888 4516 
Q 3281 4425 3559 4188 
Q 3922 3881 4101 3404 
Q 4281 2928 4281 2316 
Q 4281 1794 4159 1391 
Q 4038 988 3847 723 
Q 3656 459 3429 307 
Q 3203 156 2883 78 
Q 2563 0 2147 0 
L 494 0 
z
M 1100 541 
L 2078 541 
Q 2531 541 2789 625 
Q 3047 709 3200 863 
Q 3416 1078 3536 1442 
Q 3656 1806 3656 2325 
Q 3656 3044 3420 3430 
Q 3184 3816 2847 3947 
Q 2603 4041 2063 4041 
L 1100 4041 
L 1100 541 
z
" transform="scale(0.015625)"/>
      <path id="ArialMT-65" d="M 2694 1069 
L 3275 997 
Q 3138 488 2766 206 
Q 2394 -75 1816 -75 
Q 1088 -75 661 373 
Q 234 822 234 1631 
Q 234 2469 665 2931 
Q 1097 3394 1784 3394 
Q 2450 3394 2872 2941 
Q 3294 2488 3294 1666 
Q 3294 1616 3291 1516 
L 816 1516 
Q 847 969 1125 678 
Q 1403 388 1819 388 
Q 2128 388 2347 550 
Q 2566 713 2694 1069 
z
M 847 1978 
L 2700 1978 
Q 2663 2397 2488 2606 
Q 2219 2931 1791 2931 
Q 1403 2931 1139 2672 
Q 875 2413 847 1978 
z
" transform="scale(0.015625)"/>
      <path id="ArialMT-6f" d="M 213 1659 
Q 213 2581 725 3025 
Q 1153 3394 1769 3394 
Q 2453 3394 2887 2945 
Q 3322 2497 3322 1706 
Q 3322 1066 3130 698 
Q 2938 331 2570 128 
Q 2203 -75 1769 -75 
Q 1072 -75 642 372 
Q 213 819 213 1659 
z
M 791 1659 
Q 791 1022 1069 705 
Q 1347 388 1769 388 
Q 2188 388 2466 706 
Q 2744 1025 2744 1678 
Q 2744 2294 2464 2611 
Q 2184 2928 1769 2928 
Q 1347 2928 1069 2612 
Q 791 2297 791 1659 
z
" transform="scale(0.015625)"/>
      <path id="ArialMT-6e" d="M 422 0 
L 422 3319 
L 928 3319 
L 928 2847 
Q 1294 3394 1984 3394 
Q 2284 3394 2536 3286 
Q 2788 3178 2913 3003 
Q 3038 2828 3088 2588 
Q 3119 2431 3119 2041 
L 3119 0 
L 2556 0 
L 2556 2019 
Q 2556 2363 2490 2533 
Q 2425 2703 2258 2804 
Q 2091 2906 1866 2906 
Q 1506 2906 1245 2678 
Q 984 2450 984 1813 
L 984 0 
L 422 0 
z
" transform="scale(0.015625)"/>
      <path id="ArialMT-73" d="M 197 991 
L 753 1078 
Q 800 744 1014 566 
Q 1228 388 1613 388 
Q 2000 388 2187 545 
Q 2375 703 2375 916 
Q 2375 1106 2209 1216 
Q 2094 1291 1634 1406 
Q 1016 1563 777 1677 
Q 538 1791 414 1992 
Q 291 2194 291 2438 
Q 291 2659 392 2848 
Q 494 3038 669 3163 
Q 800 3259 1026 3326 
Q 1253 3394 1513 3394 
Q 1903 3394 2198 3281 
Q 2494 3169 2634 2976 
Q 2775 2784 2828 2463 
L 2278 2388 
Q 2241 2644 2061 2787 
Q 1881 2931 1553 2931 
Q 1166 2931 1000 2803 
Q 834 2675 834 2503 
Q 834 2394 903 2306 
Q 972 2216 1119 2156 
Q 1203 2125 1616 2013 
Q 2213 1853 2448 1751 
Q 2684 1650 2818 1456 
Q 2953 1263 2953 975 
Q 2953 694 2789 445 
Q 2625 197 2315 61 
Q 2006 -75 1616 -75 
Q 969 -75 630 194 
Q 291 463 197 991 
z
" transform="scale(0.015625)"/>
      <path id="ArialMT-74" d="M 1650 503 
L 1731 6 
Q 1494 -44 1306 -44 
Q 1000 -44 831 53 
Q 663 150 594 308 
Q 525 466 525 972 
L 525 2881 
L 113 2881 
L 113 3319 
L 525 3319 
L 525 4141 
L 1084 4478 
L 1084 3319 
L 1650 3319 
L 1650 2881 
L 1084 2881 
L 1084 941 
Q 1084 700 1114 631 
Q 1144 563 1211 522 
Q 1278 481 1403 481 
Q 1497 481 1650 503 
z
" transform="scale(0.015625)"/>
      <path id="ArialMT-72" d="M 416 0 
L 416 3319 
L 922 3319 
L 922 2816 
Q 1116 3169 1280 3281 
Q 1444 3394 1641 3394 
Q 1925 3394 2219 3213 
L 2025 2691 
Q 1819 2813 1613 2813 
Q 1428 2813 1281 2702 
Q 1134 2591 1072 2394 
Q 978 2094 978 1738 
L 978 0 
L 416 0 
z
" transform="scale(0.015625)"/>
      <path id="ArialMT-61" d="M 2588 409 
Q 2275 144 1986 34 
Q 1697 -75 1366 -75 
Q 819 -75 525 192 
Q 231 459 231 875 
Q 231 1119 342 1320 
Q 453 1522 633 1644 
Q 813 1766 1038 1828 
Q 1203 1872 1538 1913 
Q 2219 1994 2541 2106 
Q 2544 2222 2544 2253 
Q 2544 2597 2384 2738 
Q 2169 2928 1744 2928 
Q 1347 2928 1158 2789 
Q 969 2650 878 2297 
L 328 2372 
Q 403 2725 575 2942 
Q 747 3159 1072 3276 
Q 1397 3394 1825 3394 
Q 2250 3394 2515 3294 
Q 2781 3194 2906 3042 
Q 3031 2891 3081 2659 
Q 3109 2516 3109 2141 
L 3109 1391 
Q 3109 606 3145 398 
Q 3181 191 3288 0 
L 2700 0 
Q 2613 175 2588 409 
z
M 2541 1666 
Q 2234 1541 1622 1453 
Q 1275 1403 1131 1340 
Q 988 1278 909 1158 
Q 831 1038 831 891 
Q 831 666 1001 516 
Q 1172 366 1500 366 
Q 1825 366 2078 508 
Q 2331 650 2450 897 
Q 2541 1088 2541 1459 
L 2541 1666 
z
" transform="scale(0.015625)"/>
      <path id="ArialMT-69" d="M 425 3934 
L 425 4581 
L 988 4581 
L 988 3934 
L 425 3934 
z
M 425 0 
L 425 3319 
L 988 3319 
L 988 0 
L 425 0 
z
" transform="scale(0.015625)"/>
      <path id="ArialMT-66" d="M 556 0 
L 556 2881 
L 59 2881 
L 59 3319 
L 556 3319 
L 556 3672 
Q 556 4006 616 4169 
Q 697 4388 901 4523 
Q 1106 4659 1475 4659 
Q 1713 4659 2000 4603 
L 1916 4113 
Q 1741 4144 1584 4144 
Q 1328 4144 1222 4034 
Q 1116 3925 1116 3625 
L 1116 3319 
L 1763 3319 
L 1763 2881 
L 1116 2881 
L 1116 0 
L 556 0 
z
" transform="scale(0.015625)"/>
      <path id="ArialMT-50" d="M 494 0 
L 494 4581 
L 2222 4581 
Q 2678 4581 2919 4538 
Q 3256 4481 3484 4323 
Q 3713 4166 3852 3881 
Q 3991 3597 3991 3256 
Q 3991 2672 3619 2267 
Q 3247 1863 2275 1863 
L 1100 1863 
L 1100 0 
L 494 0 
z
M 1100 2403 
L 2284 2403 
Q 2872 2403 3119 2622 
Q 3366 2841 3366 3238 
Q 3366 3525 3220 3729 
Q 3075 3934 2838 4000 
Q 2684 4041 2272 4041 
L 1100 4041 
L 1100 2403 
z
" transform="scale(0.015625)"/>
      <path id="ArialMT-48" d="M 513 0 
L 513 4581 
L 1119 4581 
L 1119 2700 
L 3500 2700 
L 3500 4581 
L 4106 4581 
L 4106 0 
L 3500 0 
L 3500 2159 
L 1119 2159 
L 1119 0 
L 513 0 
z
" transform="scale(0.015625)"/>
     </defs>
     <use xlink:href="#ArialMT-44"/>
     <use xlink:href="#ArialMT-65" x="72.216797"/>
     <use xlink:href="#ArialMT-6d" x="127.832031"/>
     <use xlink:href="#ArialMT-6f" x="211.132812"/>
     <use xlink:href="#ArialMT-6e" x="266.748047"/>
     <use xlink:href="#ArialMT-73" x="322.363281"/>
     <use xlink:href="#ArialMT-74" x="372.363281"/>
     <use xlink:href="#ArialMT-72" x="400.146484"/>
     <use xlink:href="#ArialMT-61" x="433.447266"/>
     <use xlink:href="#ArialMT-74" x="489.0625"/>
     <use xlink:href="#ArialMT-69" x="516.845703"/>
     <use xlink:href="#ArialMT-6f" x="539.0625"/>
     <use xlink:href="#ArialMT-6e" x="594.677734"/>
     <use xlink:href="#ArialMT-20" x="650.292969"/>
     <use xlink:href="#ArialMT-6f" x="678.076172"/>
     <use xlink:href="#ArialMT-66" x="733.691406"/>
     <use xlink:href="#ArialMT-20" x="761.474609"/>
     <use xlink:href="#ArialMT-50" x="789.257812"/>
     <use xlink:href="#ArialMT-44" x="855.957031"/>
     <use xlink:href="#ArialMT-48" x="928.173828"/>
    </g>
   </g>
   <g id="legend_1">
    <g id="patch_7">
     <path d="M 306.541875 86.066 
L 408.56 86.066 
Q 410.32 86.066 410.32 84.306 
L 410.32 47.632 
Q 410.32 45.872 408.56 45.872 
L 306.541875 45.872 
Q 304.781875 45.872 304.781875 47.632 
L 304.781875 84.306 
Q 304.781875 86.066 306.541875 86.066 
z
" style="fill: #eaeaf2; opacity: 0.8; stroke: #cccccc; stroke-width: 0.8; stroke-linejoin: miter"/>
    </g>
    <g id="line2d_22">
     <path d="M 308.301875 52.610875 
L 317.101875 52.610875 
L 325.901875 52.610875 
" style="fill: none; stroke: #c44e52; stroke-width: 1.2; stroke-linecap: round"/>
    </g>
    <g id="text_22">
     <!-- Close to the center -->
     <g style="fill: #262626" transform="translate(332.941875 55.690875) scale(0.088 -0.088)">
      <defs>
       <path id="ArialMT-43" d="M 3763 1606 
L 4369 1453 
Q 4178 706 3683 314 
Q 3188 -78 2472 -78 
Q 1731 -78 1267 223 
Q 803 525 561 1097 
Q 319 1669 319 2325 
Q 319 3041 592 3573 
Q 866 4106 1370 4382 
Q 1875 4659 2481 4659 
Q 3169 4659 3637 4309 
Q 4106 3959 4291 3325 
L 3694 3184 
Q 3534 3684 3231 3912 
Q 2928 4141 2469 4141 
Q 1941 4141 1586 3887 
Q 1231 3634 1087 3207 
Q 944 2781 944 2328 
Q 944 1744 1114 1308 
Q 1284 872 1643 656 
Q 2003 441 2422 441 
Q 2931 441 3284 734 
Q 3638 1028 3763 1606 
z
" transform="scale(0.015625)"/>
       <path id="ArialMT-6c" d="M 409 0 
L 409 4581 
L 972 4581 
L 972 0 
L 409 0 
z
" transform="scale(0.015625)"/>
       <path id="ArialMT-68" d="M 422 0 
L 422 4581 
L 984 4581 
L 984 2938 
Q 1378 3394 1978 3394 
Q 2347 3394 2619 3248 
Q 2891 3103 3008 2847 
Q 3125 2591 3125 2103 
L 3125 0 
L 2563 0 
L 2563 2103 
Q 2563 2525 2380 2717 
Q 2197 2909 1863 2909 
Q 1613 2909 1392 2779 
Q 1172 2650 1078 2428 
Q 984 2206 984 1816 
L 984 0 
L 422 0 
z
" transform="scale(0.015625)"/>
       <path id="ArialMT-63" d="M 2588 1216 
L 3141 1144 
Q 3050 572 2676 248 
Q 2303 -75 1759 -75 
Q 1078 -75 664 370 
Q 250 816 250 1647 
Q 250 2184 428 2587 
Q 606 2991 970 3192 
Q 1334 3394 1763 3394 
Q 2303 3394 2647 3120 
Q 2991 2847 3088 2344 
L 2541 2259 
Q 2463 2594 2264 2762 
Q 2066 2931 1784 2931 
Q 1359 2931 1093 2626 
Q 828 2322 828 1663 
Q 828 994 1084 691 
Q 1341 388 1753 388 
Q 2084 388 2306 591 
Q 2528 794 2588 1216 
z
" transform="scale(0.015625)"/>
      </defs>
      <use xlink:href="#ArialMT-43"/>
      <use xlink:href="#ArialMT-6c" x="72.216797"/>
      <use xlink:href="#ArialMT-6f" x="94.433594"/>
      <use xlink:href="#ArialMT-73" x="150.048828"/>
      <use xlink:href="#ArialMT-65" x="200.048828"/>
      <use xlink:href="#ArialMT-20" x="255.664062"/>
      <use xlink:href="#ArialMT-74" x="283.447266"/>
      <use xlink:href="#ArialMT-6f" x="311.230469"/>
      <use xlink:href="#ArialMT-20" x="366.845703"/>
      <use xlink:href="#ArialMT-74" x="394.628906"/>
      <use xlink:href="#ArialMT-68" x="422.412109"/>
      <use xlink:href="#ArialMT-65" x="478.027344"/>
      <use xlink:href="#ArialMT-20" x="533.642578"/>
      <use xlink:href="#ArialMT-63" x="561.425781"/>
      <use xlink:href="#ArialMT-65" x="611.425781"/>
      <use xlink:href="#ArialMT-6e" x="667.041016"/>
      <use xlink:href="#ArialMT-74" x="722.65625"/>
      <use xlink:href="#ArialMT-65" x="750.439453"/>
      <use xlink:href="#ArialMT-72" x="806.054688"/>
     </g>
    </g>
    <g id="line2d_23">
     <path d="M 308.301875 65.166 
L 317.101875 65.166 
L 325.901875 65.166 
" style="fill: none; stroke: #55a868; stroke-width: 1.2; stroke-linecap: round"/>
    </g>
    <g id="text_23">
     <!-- Half-way location -->
     <g style="fill: #262626" transform="translate(332.941875 68.246) scale(0.088 -0.088)">
      <defs>
       <path id="ArialMT-2d" d="M 203 1375 
L 203 1941 
L 1931 1941 
L 1931 1375 
L 203 1375 
z
" transform="scale(0.015625)"/>
       <path id="ArialMT-77" d="M 1034 0 
L 19 3319 
L 600 3319 
L 1128 1403 
L 1325 691 
Q 1338 744 1497 1375 
L 2025 3319 
L 2603 3319 
L 3100 1394 
L 3266 759 
L 3456 1400 
L 4025 3319 
L 4572 3319 
L 3534 0 
L 2950 0 
L 2422 1988 
L 2294 2553 
L 1622 0 
L 1034 0 
z
" transform="scale(0.015625)"/>
      </defs>
      <use xlink:href="#ArialMT-48"/>
      <use xlink:href="#ArialMT-61" x="72.216797"/>
      <use xlink:href="#ArialMT-6c" x="127.832031"/>
      <use xlink:href="#ArialMT-66" x="150.048828"/>
      <use xlink:href="#ArialMT-2d" x="177.832031"/>
      <use xlink:href="#ArialMT-77" x="211.132812"/>
      <use xlink:href="#ArialMT-61" x="283.349609"/>
      <use xlink:href="#ArialMT-79" x="338.964844"/>
      <use xlink:href="#ArialMT-20" x="388.964844"/>
      <use xlink:href="#ArialMT-6c" x="416.748047"/>
      <use xlink:href="#ArialMT-6f" x="438.964844"/>
      <use xlink:href="#ArialMT-63" x="494.580078"/>
      <use xlink:href="#ArialMT-61" x="544.580078"/>
      <use xlink:href="#ArialMT-74" x="600.195312"/>
      <use xlink:href="#ArialMT-69" x="627.978516"/>
      <use xlink:href="#ArialMT-6f" x="650.195312"/>
      <use xlink:href="#ArialMT-6e" x="705.810547"/>
     </g>
    </g>
    <g id="line2d_24">
     <path d="M 308.301875 77.717 
L 317.101875 77.717 
L 325.901875 77.717 
" style="fill: none; stroke: #4c72b0; stroke-width: 1.2; stroke-linecap: round"/>
    </g>
    <g id="text_24">
     <!-- Fluid -->
     <g style="fill: #262626" transform="translate(332.941875 80.797) scale(0.088 -0.088)">
      <defs>
       <path id="ArialMT-46" d="M 525 0 
L 525 4581 
L 3616 4581 
L 3616 4041 
L 1131 4041 
L 1131 2622 
L 3281 2622 
L 3281 2081 
L 1131 2081 
L 1131 0 
L 525 0 
z
" transform="scale(0.015625)"/>
       <path id="ArialMT-75" d="M 2597 0 
L 2597 488 
Q 2209 -75 1544 -75 
Q 1250 -75 995 37 
Q 741 150 617 320 
Q 494 491 444 738 
Q 409 903 409 1263 
L 409 3319 
L 972 3319 
L 972 1478 
Q 972 1038 1006 884 
Q 1059 663 1231 536 
Q 1403 409 1656 409 
Q 1909 409 2131 539 
Q 2353 669 2445 892 
Q 2538 1116 2538 1541 
L 2538 3319 
L 3100 3319 
L 3100 0 
L 2597 0 
z
" transform="scale(0.015625)"/>
       <path id="ArialMT-64" d="M 2575 0 
L 2575 419 
Q 2259 -75 1647 -75 
Q 1250 -75 917 144 
Q 584 363 401 755 
Q 219 1147 219 1656 
Q 219 2153 384 2558 
Q 550 2963 881 3178 
Q 1213 3394 1622 3394 
Q 1922 3394 2156 3267 
Q 2391 3141 2538 2938 
L 2538 4581 
L 3097 4581 
L 3097 0 
L 2575 0 
z
M 797 1656 
Q 797 1019 1065 703 
Q 1334 388 1700 388 
Q 2069 388 2326 689 
Q 2584 991 2584 1609 
Q 2584 2291 2321 2609 
Q 2059 2928 1675 2928 
Q 1300 2928 1048 2622 
Q 797 2316 797 1656 
z
" transform="scale(0.015625)"/>
      </defs>
      <use xlink:href="#ArialMT-46"/>
      <use xlink:href="#ArialMT-6c" x="61.083984"/>
      <use xlink:href="#ArialMT-75" x="83.300781"/>
      <use xlink:href="#ArialMT-69" x="138.916016"/>
      <use xlink:href="#ArialMT-64" x="161.132812"/>
     </g>
    </g>
   </g>
  </g>
 </g>
 <defs>
  <clipPath id="p8c3c4caea7">
   <rect x="57.6" y="41.472" width="357.12" height="266.112"/>
  </clipPath>
 </defs>
</svg>
