<?xml version="1.0" encoding="utf-8" standalone="no"?>
<!DOCTYPE svg PUBLIC "-//W3C//DTD SVG 1.1//EN"
  "http://www.w3.org/Graphics/SVG/1.1/DTD/svg11.dtd">
<svg xmlns:xlink="http://www.w3.org/1999/xlink" width="460.8pt" height="345.6pt" viewBox="0 0 460.8 345.6" xmlns="http://www.w3.org/2000/svg" version="1.1">
 <metadata>
  <rdf:RDF xmlns:dc="http://purl.org/dc/elements/1.1/" xmlns:cc="http://creativecommons.org/ns#" xmlns:rdf="http://www.w3.org/1999/02/22-rdf-syntax-ns#">
   <cc:Work>
    <dc:type rdf:resource="http://purl.org/dc/dcmitype/StillImage"/>
    <dc:date>2024-06-23T12:19:43.014713</dc:date>
    <dc:format>image/svg+xml</dc:format>
    <dc:creator>
     <cc:Agent>
      <dc:title>Matplotlib v3.8.4, https://matplotlib.org/</dc:title>
     </cc:Agent>
    </dc:creator>
   </cc:Work>
  </rdf:RDF>
 </metadata>
 <defs>
  <style type="text/css">*{stroke-linejoin: round; stroke-linecap: butt}</style>
 </defs>
 <g id="figure_1">
  <g id="patch_1">
   <path d="M 0 345.6 
L 460.8 345.6 
L 460.8 0 
L 0 0 
z
" style="fill: #ffffff"/>
  </g>
  <g id="axes_1">
   <g id="patch_2">
    <path d="M 57.6 307.584 
L 414.72 307.584 
L 414.72 41.472 
L 57.6 41.472 
z
" style="fill: #eaeaf2"/>
   </g>
   <g id="matplotlib.axis_1">
    <g id="xtick_1">
     <g id="line2d_1">
      <path d="M 57.6 307.584 
L 57.6 41.472 
" clip-path="url(#pd515407e5a)" style="fill: none; stroke: #ffffff; stroke-width: 0.8; stroke-linecap: round"/>
     </g>
     <g id="text_1">
      <!-- 1.00 -->
      <g style="fill: #262626" transform="translate(47.869531 321.741812) scale(0.1 -0.1)">
       <defs>
        <path id="ArialMT-31" d="M 2384 0 
L 1822 0 
L 1822 3584 
Q 1619 3391 1289 3197 
Q 959 3003 697 2906 
L 697 3450 
Q 1169 3672 1522 3987 
Q 1875 4303 2022 4600 
L 2384 4600 
L 2384 0 
z
" transform="scale(0.015625)"/>
        <path id="ArialMT-2e" d="M 581 0 
L 581 641 
L 1222 641 
L 1222 0 
L 581 0 
z
" transform="scale(0.015625)"/>
        <path id="ArialMT-30" d="M 266 2259 
Q 266 3072 433 3567 
Q 600 4063 929 4331 
Q 1259 4600 1759 4600 
Q 2128 4600 2406 4451 
Q 2684 4303 2865 4023 
Q 3047 3744 3150 3342 
Q 3253 2941 3253 2259 
Q 3253 1453 3087 958 
Q 2922 463 2592 192 
Q 2263 -78 1759 -78 
Q 1097 -78 719 397 
Q 266 969 266 2259 
z
M 844 2259 
Q 844 1131 1108 757 
Q 1372 384 1759 384 
Q 2147 384 2411 759 
Q 2675 1134 2675 2259 
Q 2675 3391 2411 3762 
Q 2147 4134 1753 4134 
Q 1366 4134 1134 3806 
Q 844 3388 844 2259 
z
" transform="scale(0.015625)"/>
       </defs>
       <use xlink:href="#ArialMT-31"/>
       <use xlink:href="#ArialMT-2e" x="55.615234"/>
       <use xlink:href="#ArialMT-30" x="83.398438"/>
       <use xlink:href="#ArialMT-30" x="139.013672"/>
      </g>
     </g>
    </g>
    <g id="xtick_2">
     <g id="line2d_2">
      <path d="M 102.24 307.584 
L 102.24 41.472 
" clip-path="url(#pd515407e5a)" style="fill: none; stroke: #ffffff; stroke-width: 0.8; stroke-linecap: round"/>
     </g>
     <g id="text_2">
      <!-- 1.25 -->
      <g style="fill: #262626" transform="translate(92.509531 321.741812) scale(0.1 -0.1)">
       <defs>
        <path id="ArialMT-32" d="M 3222 541 
L 3222 0 
L 194 0 
Q 188 203 259 391 
Q 375 700 629 1000 
Q 884 1300 1366 1694 
Q 2113 2306 2375 2664 
Q 2638 3022 2638 3341 
Q 2638 3675 2398 3904 
Q 2159 4134 1775 4134 
Q 1369 4134 1125 3890 
Q 881 3647 878 3216 
L 300 3275 
Q 359 3922 746 4261 
Q 1134 4600 1788 4600 
Q 2447 4600 2831 4234 
Q 3216 3869 3216 3328 
Q 3216 3053 3103 2787 
Q 2991 2522 2730 2228 
Q 2469 1934 1863 1422 
Q 1356 997 1212 845 
Q 1069 694 975 541 
L 3222 541 
z
" transform="scale(0.015625)"/>
        <path id="ArialMT-35" d="M 266 1200 
L 856 1250 
Q 922 819 1161 601 
Q 1400 384 1738 384 
Q 2144 384 2425 690 
Q 2706 997 2706 1503 
Q 2706 1984 2436 2262 
Q 2166 2541 1728 2541 
Q 1456 2541 1237 2417 
Q 1019 2294 894 2097 
L 366 2166 
L 809 4519 
L 3088 4519 
L 3088 3981 
L 1259 3981 
L 1013 2750 
Q 1425 3038 1878 3038 
Q 2478 3038 2890 2622 
Q 3303 2206 3303 1553 
Q 3303 931 2941 478 
Q 2500 -78 1738 -78 
Q 1113 -78 717 272 
Q 322 622 266 1200 
z
" transform="scale(0.015625)"/>
       </defs>
       <use xlink:href="#ArialMT-31"/>
       <use xlink:href="#ArialMT-2e" x="55.615234"/>
       <use xlink:href="#ArialMT-32" x="83.398438"/>
       <use xlink:href="#ArialMT-35" x="139.013672"/>
      </g>
     </g>
    </g>
    <g id="xtick_3">
     <g id="line2d_3">
      <path d="M 146.88 307.584 
L 146.88 41.472 
" clip-path="url(#pd515407e5a)" style="fill: none; stroke: #ffffff; stroke-width: 0.8; stroke-linecap: round"/>
     </g>
     <g id="text_3">
      <!-- 1.50 -->
      <g style="fill: #262626" transform="translate(137.149531 321.741812) scale(0.1 -0.1)">
       <use xlink:href="#ArialMT-31"/>
       <use xlink:href="#ArialMT-2e" x="55.615234"/>
       <use xlink:href="#ArialMT-35" x="83.398438"/>
       <use xlink:href="#ArialMT-30" x="139.013672"/>
      </g>
     </g>
    </g>
    <g id="xtick_4">
     <g id="line2d_4">
      <path d="M 191.52 307.584 
L 191.52 41.472 
" clip-path="url(#pd515407e5a)" style="fill: none; stroke: #ffffff; stroke-width: 0.8; stroke-linecap: round"/>
     </g>
     <g id="text_4">
      <!-- 1.75 -->
      <g style="fill: #262626" transform="translate(181.789531 321.741812) scale(0.1 -0.1)">
       <defs>
        <path id="ArialMT-37" d="M 303 3981 
L 303 4522 
L 3269 4522 
L 3269 4084 
Q 2831 3619 2401 2847 
Q 1972 2075 1738 1259 
Q 1569 684 1522 0 
L 944 0 
Q 953 541 1156 1306 
Q 1359 2072 1739 2783 
Q 2119 3494 2547 3981 
L 303 3981 
z
" transform="scale(0.015625)"/>
       </defs>
       <use xlink:href="#ArialMT-31"/>
       <use xlink:href="#ArialMT-2e" x="55.615234"/>
       <use xlink:href="#ArialMT-37" x="83.398438"/>
       <use xlink:href="#ArialMT-35" x="139.013672"/>
      </g>
     </g>
    </g>
    <g id="xtick_5">
     <g id="line2d_5">
      <path d="M 236.16 307.584 
L 236.16 41.472 
" clip-path="url(#pd515407e5a)" style="fill: none; stroke: #ffffff; stroke-width: 0.8; stroke-linecap: round"/>
     </g>
     <g id="text_5">
      <!-- 2.00 -->
      <g style="fill: #262626" transform="translate(226.429531 321.741812) scale(0.1 -0.1)">
       <use xlink:href="#ArialMT-32"/>
       <use xlink:href="#ArialMT-2e" x="55.615234"/>
       <use xlink:href="#ArialMT-30" x="83.398438"/>
       <use xlink:href="#ArialMT-30" x="139.013672"/>
      </g>
     </g>
    </g>
    <g id="xtick_6">
     <g id="line2d_6">
      <path d="M 280.8 307.584 
L 280.8 41.472 
" clip-path="url(#pd515407e5a)" style="fill: none; stroke: #ffffff; stroke-width: 0.8; stroke-linecap: round"/>
     </g>
     <g id="text_6">
      <!-- 2.25 -->
      <g style="fill: #262626" transform="translate(271.069531 321.741812) scale(0.1 -0.1)">
       <use xlink:href="#ArialMT-32"/>
       <use xlink:href="#ArialMT-2e" x="55.615234"/>
       <use xlink:href="#ArialMT-32" x="83.398438"/>
       <use xlink:href="#ArialMT-35" x="139.013672"/>
      </g>
     </g>
    </g>
    <g id="xtick_7">
     <g id="line2d_7">
      <path d="M 325.44 307.584 
L 325.44 41.472 
" clip-path="url(#pd515407e5a)" style="fill: none; stroke: #ffffff; stroke-width: 0.8; stroke-linecap: round"/>
     </g>
     <g id="text_7">
      <!-- 2.50 -->
      <g style="fill: #262626" transform="translate(315.709531 321.741812) scale(0.1 -0.1)">
       <use xlink:href="#ArialMT-32"/>
       <use xlink:href="#ArialMT-2e" x="55.615234"/>
       <use xlink:href="#ArialMT-35" x="83.398438"/>
       <use xlink:href="#ArialMT-30" x="139.013672"/>
      </g>
     </g>
    </g>
    <g id="xtick_8">
     <g id="line2d_8">
      <path d="M 370.08 307.584 
L 370.08 41.472 
" clip-path="url(#pd515407e5a)" style="fill: none; stroke: #ffffff; stroke-width: 0.8; stroke-linecap: round"/>
     </g>
     <g id="text_8">
      <!-- 2.75 -->
      <g style="fill: #262626" transform="translate(360.349531 321.741812) scale(0.1 -0.1)">
       <use xlink:href="#ArialMT-32"/>
       <use xlink:href="#ArialMT-2e" x="55.615234"/>
       <use xlink:href="#ArialMT-37" x="83.398438"/>
       <use xlink:href="#ArialMT-35" x="139.013672"/>
      </g>
     </g>
    </g>
    <g id="xtick_9">
     <g id="line2d_9">
      <path d="M 414.72 307.584 
L 414.72 41.472 
" clip-path="url(#pd515407e5a)" style="fill: none; stroke: #ffffff; stroke-width: 0.8; stroke-linecap: round"/>
     </g>
     <g id="text_9">
      <!-- 3.00 -->
      <g style="fill: #262626" transform="translate(404.989531 321.741812) scale(0.1 -0.1)">
       <defs>
        <path id="ArialMT-33" d="M 269 1209 
L 831 1284 
Q 928 806 1161 595 
Q 1394 384 1728 384 
Q 2125 384 2398 659 
Q 2672 934 2672 1341 
Q 2672 1728 2419 1979 
Q 2166 2231 1775 2231 
Q 1616 2231 1378 2169 
L 1441 2663 
Q 1497 2656 1531 2656 
Q 1891 2656 2178 2843 
Q 2466 3031 2466 3422 
Q 2466 3731 2256 3934 
Q 2047 4138 1716 4138 
Q 1388 4138 1169 3931 
Q 950 3725 888 3313 
L 325 3413 
Q 428 3978 793 4289 
Q 1159 4600 1703 4600 
Q 2078 4600 2393 4439 
Q 2709 4278 2876 4000 
Q 3044 3722 3044 3409 
Q 3044 3113 2884 2869 
Q 2725 2625 2413 2481 
Q 2819 2388 3044 2092 
Q 3269 1797 3269 1353 
Q 3269 753 2831 336 
Q 2394 -81 1725 -81 
Q 1122 -81 723 278 
Q 325 638 269 1209 
z
" transform="scale(0.015625)"/>
       </defs>
       <use xlink:href="#ArialMT-33"/>
       <use xlink:href="#ArialMT-2e" x="55.615234"/>
       <use xlink:href="#ArialMT-30" x="83.398438"/>
       <use xlink:href="#ArialMT-30" x="139.013672"/>
      </g>
     </g>
    </g>
    <g id="text_10">
     <!-- Particle diameter -->
     <g style="fill: #262626" transform="translate(198.6475 334.887125) scale(0.1 -0.1)">
      <defs>
       <path id="ArialMT-50" d="M 494 0 
L 494 4581 
L 2222 4581 
Q 2678 4581 2919 4538 
Q 3256 4481 3484 4323 
Q 3713 4166 3852 3881 
Q 3991 3597 3991 3256 
Q 3991 2672 3619 2267 
Q 3247 1863 2275 1863 
L 1100 1863 
L 1100 0 
L 494 0 
z
M 1100 2403 
L 2284 2403 
Q 2872 2403 3119 2622 
Q 3366 2841 3366 3238 
Q 3366 3525 3220 3729 
Q 3075 3934 2838 4000 
Q 2684 4041 2272 4041 
L 1100 4041 
L 1100 2403 
z
" transform="scale(0.015625)"/>
       <path id="ArialMT-61" d="M 2588 409 
Q 2275 144 1986 34 
Q 1697 -75 1366 -75 
Q 819 -75 525 192 
Q 231 459 231 875 
Q 231 1119 342 1320 
Q 453 1522 633 1644 
Q 813 1766 1038 1828 
Q 1203 1872 1538 1913 
Q 2219 1994 2541 2106 
Q 2544 2222 2544 2253 
Q 2544 2597 2384 2738 
Q 2169 2928 1744 2928 
Q 1347 2928 1158 2789 
Q 969 2650 878 2297 
L 328 2372 
Q 403 2725 575 2942 
Q 747 3159 1072 3276 
Q 1397 3394 1825 3394 
Q 2250 3394 2515 3294 
Q 2781 3194 2906 3042 
Q 3031 2891 3081 2659 
Q 3109 2516 3109 2141 
L 3109 1391 
Q 3109 606 3145 398 
Q 3181 191 3288 0 
L 2700 0 
Q 2613 175 2588 409 
z
M 2541 1666 
Q 2234 1541 1622 1453 
Q 1275 1403 1131 1340 
Q 988 1278 909 1158 
Q 831 1038 831 891 
Q 831 666 1001 516 
Q 1172 366 1500 366 
Q 1825 366 2078 508 
Q 2331 650 2450 897 
Q 2541 1088 2541 1459 
L 2541 1666 
z
" transform="scale(0.015625)"/>
       <path id="ArialMT-72" d="M 416 0 
L 416 3319 
L 922 3319 
L 922 2816 
Q 1116 3169 1280 3281 
Q 1444 3394 1641 3394 
Q 1925 3394 2219 3213 
L 2025 2691 
Q 1819 2813 1613 2813 
Q 1428 2813 1281 2702 
Q 1134 2591 1072 2394 
Q 978 2094 978 1738 
L 978 0 
L 416 0 
z
" transform="scale(0.015625)"/>
       <path id="ArialMT-74" d="M 1650 503 
L 1731 6 
Q 1494 -44 1306 -44 
Q 1000 -44 831 53 
Q 663 150 594 308 
Q 525 466 525 972 
L 525 2881 
L 113 2881 
L 113 3319 
L 525 3319 
L 525 4141 
L 1084 4478 
L 1084 3319 
L 1650 3319 
L 1650 2881 
L 1084 2881 
L 1084 941 
Q 1084 700 1114 631 
Q 1144 563 1211 522 
Q 1278 481 1403 481 
Q 1497 481 1650 503 
z
" transform="scale(0.015625)"/>
       <path id="ArialMT-69" d="M 425 3934 
L 425 4581 
L 988 4581 
L 988 3934 
L 425 3934 
z
M 425 0 
L 425 3319 
L 988 3319 
L 988 0 
L 425 0 
z
" transform="scale(0.015625)"/>
       <path id="ArialMT-63" d="M 2588 1216 
L 3141 1144 
Q 3050 572 2676 248 
Q 2303 -75 1759 -75 
Q 1078 -75 664 370 
Q 250 816 250 1647 
Q 250 2184 428 2587 
Q 606 2991 970 3192 
Q 1334 3394 1763 3394 
Q 2303 3394 2647 3120 
Q 2991 2847 3088 2344 
L 2541 2259 
Q 2463 2594 2264 2762 
Q 2066 2931 1784 2931 
Q 1359 2931 1093 2626 
Q 828 2322 828 1663 
Q 828 994 1084 691 
Q 1341 388 1753 388 
Q 2084 388 2306 591 
Q 2528 794 2588 1216 
z
" transform="scale(0.015625)"/>
       <path id="ArialMT-6c" d="M 409 0 
L 409 4581 
L 972 4581 
L 972 0 
L 409 0 
z
" transform="scale(0.015625)"/>
       <path id="ArialMT-65" d="M 2694 1069 
L 3275 997 
Q 3138 488 2766 206 
Q 2394 -75 1816 -75 
Q 1088 -75 661 373 
Q 234 822 234 1631 
Q 234 2469 665 2931 
Q 1097 3394 1784 3394 
Q 2450 3394 2872 2941 
Q 3294 2488 3294 1666 
Q 3294 1616 3291 1516 
L 816 1516 
Q 847 969 1125 678 
Q 1403 388 1819 388 
Q 2128 388 2347 550 
Q 2566 713 2694 1069 
z
M 847 1978 
L 2700 1978 
Q 2663 2397 2488 2606 
Q 2219 2931 1791 2931 
Q 1403 2931 1139 2672 
Q 875 2413 847 1978 
z
" transform="scale(0.015625)"/>
       <path id="ArialMT-20" transform="scale(0.015625)"/>
       <path id="ArialMT-64" d="M 2575 0 
L 2575 419 
Q 2259 -75 1647 -75 
Q 1250 -75 917 144 
Q 584 363 401 755 
Q 219 1147 219 1656 
Q 219 2153 384 2558 
Q 550 2963 881 3178 
Q 1213 3394 1622 3394 
Q 1922 3394 2156 3267 
Q 2391 3141 2538 2938 
L 2538 4581 
L 3097 4581 
L 3097 0 
L 2575 0 
z
M 797 1656 
Q 797 1019 1065 703 
Q 1334 388 1700 388 
Q 2069 388 2326 689 
Q 2584 991 2584 1609 
Q 2584 2291 2321 2609 
Q 2059 2928 1675 2928 
Q 1300 2928 1048 2622 
Q 797 2316 797 1656 
z
" transform="scale(0.015625)"/>
       <path id="ArialMT-6d" d="M 422 0 
L 422 3319 
L 925 3319 
L 925 2853 
Q 1081 3097 1340 3245 
Q 1600 3394 1931 3394 
Q 2300 3394 2536 3241 
Q 2772 3088 2869 2813 
Q 3263 3394 3894 3394 
Q 4388 3394 4653 3120 
Q 4919 2847 4919 2278 
L 4919 0 
L 4359 0 
L 4359 2091 
Q 4359 2428 4304 2576 
Q 4250 2725 4106 2815 
Q 3963 2906 3769 2906 
Q 3419 2906 3187 2673 
Q 2956 2441 2956 1928 
L 2956 0 
L 2394 0 
L 2394 2156 
Q 2394 2531 2256 2718 
Q 2119 2906 1806 2906 
Q 1569 2906 1367 2781 
Q 1166 2656 1075 2415 
Q 984 2175 984 1722 
L 984 0 
L 422 0 
z
" transform="scale(0.015625)"/>
      </defs>
      <use xlink:href="#ArialMT-50"/>
      <use xlink:href="#ArialMT-61" x="66.699219"/>
      <use xlink:href="#ArialMT-72" x="122.314453"/>
      <use xlink:href="#ArialMT-74" x="155.615234"/>
      <use xlink:href="#ArialMT-69" x="183.398438"/>
      <use xlink:href="#ArialMT-63" x="205.615234"/>
      <use xlink:href="#ArialMT-6c" x="255.615234"/>
      <use xlink:href="#ArialMT-65" x="277.832031"/>
      <use xlink:href="#ArialMT-20" x="333.447266"/>
      <use xlink:href="#ArialMT-64" x="361.230469"/>
      <use xlink:href="#ArialMT-69" x="416.845703"/>
      <use xlink:href="#ArialMT-61" x="439.0625"/>
      <use xlink:href="#ArialMT-6d" x="494.677734"/>
      <use xlink:href="#ArialMT-65" x="577.978516"/>
      <use xlink:href="#ArialMT-74" x="633.59375"/>
      <use xlink:href="#ArialMT-65" x="661.376953"/>
      <use xlink:href="#ArialMT-72" x="716.992188"/>
     </g>
    </g>
    <g id="text_11">
     <!-- 1e−6 -->
     <g style="fill: #262626" transform="translate(392.196563 333.887125) scale(0.1 -0.1)">
      <defs>
       <path id="ArialMT-2212" d="M 3381 1997 
L 356 1997 
L 356 2522 
L 3381 2522 
L 3381 1997 
z
" transform="scale(0.015625)"/>
       <path id="ArialMT-36" d="M 3184 3459 
L 2625 3416 
Q 2550 3747 2413 3897 
Q 2184 4138 1850 4138 
Q 1581 4138 1378 3988 
Q 1113 3794 959 3422 
Q 806 3050 800 2363 
Q 1003 2672 1297 2822 
Q 1591 2972 1913 2972 
Q 2475 2972 2870 2558 
Q 3266 2144 3266 1488 
Q 3266 1056 3080 686 
Q 2894 316 2569 119 
Q 2244 -78 1831 -78 
Q 1128 -78 684 439 
Q 241 956 241 2144 
Q 241 3472 731 4075 
Q 1159 4600 1884 4600 
Q 2425 4600 2770 4297 
Q 3116 3994 3184 3459 
z
M 888 1484 
Q 888 1194 1011 928 
Q 1134 663 1356 523 
Q 1578 384 1822 384 
Q 2178 384 2434 671 
Q 2691 959 2691 1453 
Q 2691 1928 2437 2201 
Q 2184 2475 1800 2475 
Q 1419 2475 1153 2201 
Q 888 1928 888 1484 
z
" transform="scale(0.015625)"/>
      </defs>
      <use xlink:href="#ArialMT-31"/>
      <use xlink:href="#ArialMT-65" x="55.615234"/>
      <use xlink:href="#ArialMT-2212" x="111.230469"/>
      <use xlink:href="#ArialMT-36" x="169.628906"/>
     </g>
    </g>
   </g>
   <g id="matplotlib.axis_2">
    <g id="ytick_1">
     <g id="line2d_10">
      <path d="M 57.6 307.584 
L 414.72 307.584 
" clip-path="url(#pd515407e5a)" style="fill: none; stroke: #ffffff; stroke-width: 0.8; stroke-linecap: round"/>
     </g>
     <g id="text_12">
      <!-- 0 -->
      <g style="fill: #262626" transform="translate(45.039062 311.162906) scale(0.1 -0.1)">
       <use xlink:href="#ArialMT-30"/>
      </g>
     </g>
    </g>
    <g id="ytick_2">
     <g id="line2d_11">
      <path d="M 57.6 254.563079 
L 414.72 254.563079 
" clip-path="url(#pd515407e5a)" style="fill: none; stroke: #ffffff; stroke-width: 0.8; stroke-linecap: round"/>
     </g>
     <g id="text_13">
      <!-- 200 -->
      <g style="fill: #262626" transform="translate(33.917187 258.141986) scale(0.1 -0.1)">
       <use xlink:href="#ArialMT-32"/>
       <use xlink:href="#ArialMT-30" x="55.615234"/>
       <use xlink:href="#ArialMT-30" x="111.230469"/>
      </g>
     </g>
    </g>
    <g id="ytick_3">
     <g id="line2d_12">
      <path d="M 57.6 201.542159 
L 414.72 201.542159 
" clip-path="url(#pd515407e5a)" style="fill: none; stroke: #ffffff; stroke-width: 0.8; stroke-linecap: round"/>
     </g>
     <g id="text_14">
      <!-- 400 -->
      <g style="fill: #262626" transform="translate(33.917187 205.121065) scale(0.1 -0.1)">
       <defs>
        <path id="ArialMT-34" d="M 2069 0 
L 2069 1097 
L 81 1097 
L 81 1613 
L 2172 4581 
L 2631 4581 
L 2631 1613 
L 3250 1613 
L 3250 1097 
L 2631 1097 
L 2631 0 
L 2069 0 
z
M 2069 1613 
L 2069 3678 
L 634 1613 
L 2069 1613 
z
" transform="scale(0.015625)"/>
       </defs>
       <use xlink:href="#ArialMT-34"/>
       <use xlink:href="#ArialMT-30" x="55.615234"/>
       <use xlink:href="#ArialMT-30" x="111.230469"/>
      </g>
     </g>
    </g>
    <g id="ytick_4">
     <g id="line2d_13">
      <path d="M 57.6 148.521238 
L 414.72 148.521238 
" clip-path="url(#pd515407e5a)" style="fill: none; stroke: #ffffff; stroke-width: 0.8; stroke-linecap: round"/>
     </g>
     <g id="text_15">
      <!-- 600 -->
      <g style="fill: #262626" transform="translate(33.917187 152.100145) scale(0.1 -0.1)">
       <use xlink:href="#ArialMT-36"/>
       <use xlink:href="#ArialMT-30" x="55.615234"/>
       <use xlink:href="#ArialMT-30" x="111.230469"/>
      </g>
     </g>
    </g>
    <g id="ytick_5">
     <g id="line2d_14">
      <path d="M 57.6 95.500318 
L 414.72 95.500318 
" clip-path="url(#pd515407e5a)" style="fill: none; stroke: #ffffff; stroke-width: 0.8; stroke-linecap: round"/>
     </g>
     <g id="text_16">
      <!-- 800 -->
      <g style="fill: #262626" transform="translate(33.917187 99.079224) scale(0.1 -0.1)">
       <defs>
        <path id="ArialMT-38" d="M 1131 2484 
Q 781 2613 612 2850 
Q 444 3088 444 3419 
Q 444 3919 803 4259 
Q 1163 4600 1759 4600 
Q 2359 4600 2725 4251 
Q 3091 3903 3091 3403 
Q 3091 3084 2923 2848 
Q 2756 2613 2416 2484 
Q 2838 2347 3058 2040 
Q 3278 1734 3278 1309 
Q 3278 722 2862 322 
Q 2447 -78 1769 -78 
Q 1091 -78 675 323 
Q 259 725 259 1325 
Q 259 1772 486 2073 
Q 713 2375 1131 2484 
z
M 1019 3438 
Q 1019 3113 1228 2906 
Q 1438 2700 1772 2700 
Q 2097 2700 2305 2904 
Q 2513 3109 2513 3406 
Q 2513 3716 2298 3927 
Q 2084 4138 1766 4138 
Q 1444 4138 1231 3931 
Q 1019 3725 1019 3438 
z
M 838 1322 
Q 838 1081 952 856 
Q 1066 631 1291 507 
Q 1516 384 1775 384 
Q 2178 384 2440 643 
Q 2703 903 2703 1303 
Q 2703 1709 2433 1975 
Q 2163 2241 1756 2241 
Q 1359 2241 1098 1978 
Q 838 1716 838 1322 
z
" transform="scale(0.015625)"/>
       </defs>
       <use xlink:href="#ArialMT-38"/>
       <use xlink:href="#ArialMT-30" x="55.615234"/>
       <use xlink:href="#ArialMT-30" x="111.230469"/>
      </g>
     </g>
    </g>
    <g id="ytick_6">
     <g id="line2d_15">
      <path d="M 57.6 42.479397 
L 414.72 42.479397 
" clip-path="url(#pd515407e5a)" style="fill: none; stroke: #ffffff; stroke-width: 0.8; stroke-linecap: round"/>
     </g>
     <g id="text_17">
      <!-- 1000 -->
      <g style="fill: #262626" transform="translate(28.35625 46.058304) scale(0.1 -0.1)">
       <use xlink:href="#ArialMT-31"/>
       <use xlink:href="#ArialMT-30" x="55.615234"/>
       <use xlink:href="#ArialMT-30" x="111.230469"/>
       <use xlink:href="#ArialMT-30" x="166.845703"/>
      </g>
     </g>
    </g>
    <g id="text_18">
     <!-- Count -->
     <g style="fill: #262626" transform="translate(22.36875 187.869406) rotate(-90) scale(0.1 -0.1)">
      <defs>
       <path id="ArialMT-43" d="M 3763 1606 
L 4369 1453 
Q 4178 706 3683 314 
Q 3188 -78 2472 -78 
Q 1731 -78 1267 223 
Q 803 525 561 1097 
Q 319 1669 319 2325 
Q 319 3041 592 3573 
Q 866 4106 1370 4382 
Q 1875 4659 2481 4659 
Q 3169 4659 3637 4309 
Q 4106 3959 4291 3325 
L 3694 3184 
Q 3534 3684 3231 3912 
Q 2928 4141 2469 4141 
Q 1941 4141 1586 3887 
Q 1231 3634 1087 3207 
Q 944 2781 944 2328 
Q 944 1744 1114 1308 
Q 1284 872 1643 656 
Q 2003 441 2422 441 
Q 2931 441 3284 734 
Q 3638 1028 3763 1606 
z
" transform="scale(0.015625)"/>
       <path id="ArialMT-6f" d="M 213 1659 
Q 213 2581 725 3025 
Q 1153 3394 1769 3394 
Q 2453 3394 2887 2945 
Q 3322 2497 3322 1706 
Q 3322 1066 3130 698 
Q 2938 331 2570 128 
Q 2203 -75 1769 -75 
Q 1072 -75 642 372 
Q 213 819 213 1659 
z
M 791 1659 
Q 791 1022 1069 705 
Q 1347 388 1769 388 
Q 2188 388 2466 706 
Q 2744 1025 2744 1678 
Q 2744 2294 2464 2611 
Q 2184 2928 1769 2928 
Q 1347 2928 1069 2612 
Q 791 2297 791 1659 
z
" transform="scale(0.015625)"/>
       <path id="ArialMT-75" d="M 2597 0 
L 2597 488 
Q 2209 -75 1544 -75 
Q 1250 -75 995 37 
Q 741 150 617 320 
Q 494 491 444 738 
Q 409 903 409 1263 
L 409 3319 
L 972 3319 
L 972 1478 
Q 972 1038 1006 884 
Q 1059 663 1231 536 
Q 1403 409 1656 409 
Q 1909 409 2131 539 
Q 2353 669 2445 892 
Q 2538 1116 2538 1541 
L 2538 3319 
L 3100 3319 
L 3100 0 
L 2597 0 
z
" transform="scale(0.015625)"/>
       <path id="ArialMT-6e" d="M 422 0 
L 422 3319 
L 928 3319 
L 928 2847 
Q 1294 3394 1984 3394 
Q 2284 3394 2536 3286 
Q 2788 3178 2913 3003 
Q 3038 2828 3088 2588 
Q 3119 2431 3119 2041 
L 3119 0 
L 2556 0 
L 2556 2019 
Q 2556 2363 2490 2533 
Q 2425 2703 2258 2804 
Q 2091 2906 1866 2906 
Q 1506 2906 1245 2678 
Q 984 2450 984 1813 
L 984 0 
L 422 0 
z
" transform="scale(0.015625)"/>
      </defs>
      <use xlink:href="#ArialMT-43"/>
      <use xlink:href="#ArialMT-6f" x="72.216797"/>
      <use xlink:href="#ArialMT-75" x="127.832031"/>
      <use xlink:href="#ArialMT-6e" x="183.447266"/>
      <use xlink:href="#ArialMT-74" x="239.0625"/>
     </g>
    </g>
   </g>
   <g id="patch_3">
    <path d="M 62.015708 307.584 
L 68.910524 307.584 
L 68.910524 307.053791 
L 62.015708 307.053791 
z
" clip-path="url(#pd515407e5a)" style="fill: #1f77b4; fill-opacity: 0.5; stroke: #ffffff; stroke-width: 0.649309; stroke-linejoin: miter"/>
   </g>
   <g id="patch_4">
    <path d="M 68.910524 307.584 
L 75.80534 307.584 
L 75.80534 306.523582 
L 68.910524 306.523582 
z
" clip-path="url(#pd515407e5a)" style="fill: #1f77b4; fill-opacity: 0.5; stroke: #ffffff; stroke-width: 0.649309; stroke-linejoin: miter"/>
   </g>
   <g id="patch_5">
    <path d="M 75.80534 307.584 
L 82.700156 307.584 
L 82.700156 306.258477 
L 75.80534 306.258477 
z
" clip-path="url(#pd515407e5a)" style="fill: #1f77b4; fill-opacity: 0.5; stroke: #ffffff; stroke-width: 0.649309; stroke-linejoin: miter"/>
   </g>
   <g id="patch_6">
    <path d="M 82.700156 307.584 
L 89.594972 307.584 
L 89.594972 305.463163 
L 82.700156 305.463163 
z
" clip-path="url(#pd515407e5a)" style="fill: #1f77b4; fill-opacity: 0.5; stroke: #ffffff; stroke-width: 0.649309; stroke-linejoin: miter"/>
   </g>
   <g id="patch_7">
    <path d="M 89.594972 307.584 
L 96.489788 307.584 
L 96.489788 304.932954 
L 89.594972 304.932954 
z
" clip-path="url(#pd515407e5a)" style="fill: #1f77b4; fill-opacity: 0.5; stroke: #ffffff; stroke-width: 0.649309; stroke-linejoin: miter"/>
   </g>
   <g id="patch_8">
    <path d="M 96.489788 307.584 
L 103.384604 307.584 
L 103.384604 301.751699 
L 96.489788 301.751699 
z
" clip-path="url(#pd515407e5a)" style="fill: #1f77b4; fill-opacity: 0.5; stroke: #ffffff; stroke-width: 0.649309; stroke-linejoin: miter"/>
   </g>
   <g id="patch_9">
    <path d="M 103.384604 307.584 
L 110.27942 307.584 
L 110.27942 301.486594 
L 103.384604 301.486594 
z
" clip-path="url(#pd515407e5a)" style="fill: #1f77b4; fill-opacity: 0.5; stroke: #ffffff; stroke-width: 0.649309; stroke-linejoin: miter"/>
   </g>
   <g id="patch_10">
    <path d="M 110.27942 307.584 
L 117.174236 307.584 
L 117.174236 297.510025 
L 110.27942 297.510025 
z
" clip-path="url(#pd515407e5a)" style="fill: #1f77b4; fill-opacity: 0.5; stroke: #ffffff; stroke-width: 0.649309; stroke-linejoin: miter"/>
   </g>
   <g id="patch_11">
    <path d="M 117.174236 307.584 
L 124.069052 307.584 
L 124.069052 292.738142 
L 117.174236 292.738142 
z
" clip-path="url(#pd515407e5a)" style="fill: #1f77b4; fill-opacity: 0.5; stroke: #ffffff; stroke-width: 0.649309; stroke-linejoin: miter"/>
   </g>
   <g id="patch_12">
    <path d="M 124.069052 307.584 
L 130.963868 307.584 
L 130.963868 282.664167 
L 124.069052 282.664167 
z
" clip-path="url(#pd515407e5a)" style="fill: #1f77b4; fill-opacity: 0.5; stroke: #ffffff; stroke-width: 0.649309; stroke-linejoin: miter"/>
   </g>
   <g id="patch_13">
    <path d="M 130.963868 307.584 
L 137.858683 307.584 
L 137.858683 274.711029 
L 130.963868 274.711029 
z
" clip-path="url(#pd515407e5a)" style="fill: #1f77b4; fill-opacity: 0.5; stroke: #ffffff; stroke-width: 0.649309; stroke-linejoin: miter"/>
   </g>
   <g id="patch_14">
    <path d="M 137.858683 307.584 
L 144.753499 307.584 
L 144.753499 267.553205 
L 137.858683 267.553205 
z
" clip-path="url(#pd515407e5a)" style="fill: #1f77b4; fill-opacity: 0.5; stroke: #ffffff; stroke-width: 0.649309; stroke-linejoin: miter"/>
   </g>
   <g id="patch_15">
    <path d="M 144.753499 307.584 
L 151.648315 307.584 
L 151.648315 251.11672 
L 144.753499 251.11672 
z
" clip-path="url(#pd515407e5a)" style="fill: #1f77b4; fill-opacity: 0.5; stroke: #ffffff; stroke-width: 0.649309; stroke-linejoin: miter"/>
   </g>
   <g id="patch_16">
    <path d="M 151.648315 307.584 
L 158.543131 307.584 
L 158.543131 240.77764 
L 151.648315 240.77764 
z
" clip-path="url(#pd515407e5a)" style="fill: #1f77b4; fill-opacity: 0.5; stroke: #ffffff; stroke-width: 0.649309; stroke-linejoin: miter"/>
   </g>
   <g id="patch_17">
    <path d="M 158.543131 307.584 
L 165.437947 307.584 
L 165.437947 213.736971 
L 158.543131 213.736971 
z
" clip-path="url(#pd515407e5a)" style="fill: #1f77b4; fill-opacity: 0.5; stroke: #ffffff; stroke-width: 0.649309; stroke-linejoin: miter"/>
   </g>
   <g id="patch_18">
    <path d="M 165.437947 307.584 
L 172.332763 307.584 
L 172.332763 201.542159 
L 165.437947 201.542159 
z
" clip-path="url(#pd515407e5a)" style="fill: #1f77b4; fill-opacity: 0.5; stroke: #ffffff; stroke-width: 0.649309; stroke-linejoin: miter"/>
   </g>
   <g id="patch_19">
    <path d="M 172.332763 307.584 
L 179.227579 307.584 
L 179.227579 171.320234 
L 172.332763 171.320234 
z
" clip-path="url(#pd515407e5a)" style="fill: #1f77b4; fill-opacity: 0.5; stroke: #ffffff; stroke-width: 0.649309; stroke-linejoin: miter"/>
   </g>
   <g id="patch_20">
    <path d="M 179.227579 307.584 
L 186.122395 307.584 
L 186.122395 158.330109 
L 179.227579 158.330109 
z
" clip-path="url(#pd515407e5a)" style="fill: #1f77b4; fill-opacity: 0.5; stroke: #ffffff; stroke-width: 0.649309; stroke-linejoin: miter"/>
   </g>
   <g id="patch_21">
    <path d="M 186.122395 307.584 
L 193.017211 307.584 
L 193.017211 132.349858 
L 186.122395 132.349858 
z
" clip-path="url(#pd515407e5a)" style="fill: #1f77b4; fill-opacity: 0.5; stroke: #ffffff; stroke-width: 0.649309; stroke-linejoin: miter"/>
   </g>
   <g id="patch_22">
    <path d="M 193.017211 307.584 
L 199.912027 307.584 
L 199.912027 106.634711 
L 193.017211 106.634711 
z
" clip-path="url(#pd515407e5a)" style="fill: #1f77b4; fill-opacity: 0.5; stroke: #ffffff; stroke-width: 0.649309; stroke-linejoin: miter"/>
   </g>
   <g id="patch_23">
    <path d="M 199.912027 307.584 
L 206.806843 307.584 
L 206.806843 96.295632 
L 199.912027 96.295632 
z
" clip-path="url(#pd515407e5a)" style="fill: #1f77b4; fill-opacity: 0.5; stroke: #ffffff; stroke-width: 0.649309; stroke-linejoin: miter"/>
   </g>
   <g id="patch_24">
    <path d="M 206.806843 307.584 
L 213.701659 307.584 
L 213.701659 71.375799 
L 206.806843 71.375799 
z
" clip-path="url(#pd515407e5a)" style="fill: #1f77b4; fill-opacity: 0.5; stroke: #ffffff; stroke-width: 0.649309; stroke-linejoin: miter"/>
   </g>
   <g id="patch_25">
    <path d="M 213.701659 307.584 
L 220.596475 307.584 
L 220.596475 57.325255 
L 213.701659 57.325255 
z
" clip-path="url(#pd515407e5a)" style="fill: #1f77b4; fill-opacity: 0.5; stroke: #ffffff; stroke-width: 0.649309; stroke-linejoin: miter"/>
   </g>
   <g id="patch_26">
    <path d="M 220.596475 307.584 
L 227.491291 307.584 
L 227.491291 54.144 
L 220.596475 54.144 
z
" clip-path="url(#pd515407e5a)" style="fill: #1f77b4; fill-opacity: 0.5; stroke: #ffffff; stroke-width: 0.649309; stroke-linejoin: miter"/>
   </g>
   <g id="patch_27">
    <path d="M 227.491291 307.584 
L 234.386107 307.584 
L 234.386107 54.409105 
L 227.491291 54.409105 
z
" clip-path="url(#pd515407e5a)" style="fill: #1f77b4; fill-opacity: 0.5; stroke: #ffffff; stroke-width: 0.649309; stroke-linejoin: miter"/>
   </g>
   <g id="patch_28">
    <path d="M 234.386107 307.584 
L 241.280923 307.584 
L 241.280923 71.375799 
L 234.386107 71.375799 
z
" clip-path="url(#pd515407e5a)" style="fill: #1f77b4; fill-opacity: 0.5; stroke: #ffffff; stroke-width: 0.649309; stroke-linejoin: miter"/>
   </g>
   <g id="patch_29">
    <path d="M 241.280923 307.584 
L 248.175739 307.584 
L 248.175739 89.137808 
L 241.280923 89.137808 
z
" clip-path="url(#pd515407e5a)" style="fill: #1f77b4; fill-opacity: 0.5; stroke: #ffffff; stroke-width: 0.649309; stroke-linejoin: miter"/>
   </g>
   <g id="patch_30">
    <path d="M 248.175739 307.584 
L 255.070555 307.584 
L 255.070555 111.936803 
L 248.175739 111.936803 
z
" clip-path="url(#pd515407e5a)" style="fill: #1f77b4; fill-opacity: 0.5; stroke: #ffffff; stroke-width: 0.649309; stroke-linejoin: miter"/>
   </g>
   <g id="patch_31">
    <path d="M 255.070555 307.584 
L 261.965371 307.584 
L 261.965371 125.457138 
L 255.070555 125.457138 
z
" clip-path="url(#pd515407e5a)" style="fill: #1f77b4; fill-opacity: 0.5; stroke: #ffffff; stroke-width: 0.649309; stroke-linejoin: miter"/>
   </g>
   <g id="patch_32">
    <path d="M 261.965371 307.584 
L 268.860187 307.584 
L 268.860187 142.423833 
L 261.965371 142.423833 
z
" clip-path="url(#pd515407e5a)" style="fill: #1f77b4; fill-opacity: 0.5; stroke: #ffffff; stroke-width: 0.649309; stroke-linejoin: miter"/>
   </g>
   <g id="patch_33">
    <path d="M 268.860187 307.584 
L 275.755003 307.584 
L 275.755003 163.897305 
L 268.860187 163.897305 
z
" clip-path="url(#pd515407e5a)" style="fill: #1f77b4; fill-opacity: 0.5; stroke: #ffffff; stroke-width: 0.649309; stroke-linejoin: miter"/>
   </g>
   <g id="patch_34">
    <path d="M 275.755003 307.584 
L 282.649819 307.584 
L 282.649819 190.407766 
L 275.755003 190.407766 
z
" clip-path="url(#pd515407e5a)" style="fill: #1f77b4; fill-opacity: 0.5; stroke: #ffffff; stroke-width: 0.649309; stroke-linejoin: miter"/>
   </g>
   <g id="patch_35">
    <path d="M 282.649819 307.584 
L 289.544634 307.584 
L 289.544634 216.122912 
L 282.649819 216.122912 
z
" clip-path="url(#pd515407e5a)" style="fill: #1f77b4; fill-opacity: 0.5; stroke: #ffffff; stroke-width: 0.649309; stroke-linejoin: miter"/>
   </g>
   <g id="patch_36">
    <path d="M 289.544634 307.584 
L 296.43945 307.584 
L 296.43945 226.727096 
L 289.544634 226.727096 
z
" clip-path="url(#pd515407e5a)" style="fill: #1f77b4; fill-opacity: 0.5; stroke: #ffffff; stroke-width: 0.649309; stroke-linejoin: miter"/>
   </g>
   <g id="patch_37">
    <path d="M 296.43945 307.584 
L 303.334266 307.584 
L 303.334266 256.153707 
L 296.43945 256.153707 
z
" clip-path="url(#pd515407e5a)" style="fill: #1f77b4; fill-opacity: 0.5; stroke: #ffffff; stroke-width: 0.649309; stroke-linejoin: miter"/>
   </g>
   <g id="patch_38">
    <path d="M 303.334266 307.584 
L 310.229082 307.584 
L 310.229082 256.949021 
L 303.334266 256.949021 
z
" clip-path="url(#pd515407e5a)" style="fill: #1f77b4; fill-opacity: 0.5; stroke: #ffffff; stroke-width: 0.649309; stroke-linejoin: miter"/>
   </g>
   <g id="patch_39">
    <path d="M 310.229082 307.584 
L 317.123898 307.584 
L 317.123898 271.794879 
L 310.229082 271.794879 
z
" clip-path="url(#pd515407e5a)" style="fill: #1f77b4; fill-opacity: 0.5; stroke: #ffffff; stroke-width: 0.649309; stroke-linejoin: miter"/>
   </g>
   <g id="patch_40">
    <path d="M 317.123898 307.584 
L 324.018714 307.584 
L 324.018714 283.459481 
L 317.123898 283.459481 
z
" clip-path="url(#pd515407e5a)" style="fill: #1f77b4; fill-opacity: 0.5; stroke: #ffffff; stroke-width: 0.649309; stroke-linejoin: miter"/>
   </g>
   <g id="patch_41">
    <path d="M 324.018714 307.584 
L 330.91353 307.584 
L 330.91353 287.701155 
L 324.018714 287.701155 
z
" clip-path="url(#pd515407e5a)" style="fill: #1f77b4; fill-opacity: 0.5; stroke: #ffffff; stroke-width: 0.649309; stroke-linejoin: miter"/>
   </g>
   <g id="patch_42">
    <path d="M 330.91353 307.584 
L 337.808346 307.584 
L 337.808346 296.979816 
L 330.91353 296.979816 
z
" clip-path="url(#pd515407e5a)" style="fill: #1f77b4; fill-opacity: 0.5; stroke: #ffffff; stroke-width: 0.649309; stroke-linejoin: miter"/>
   </g>
   <g id="patch_43">
    <path d="M 337.808346 307.584 
L 344.703162 307.584 
L 344.703162 297.77513 
L 337.808346 297.77513 
z
" clip-path="url(#pd515407e5a)" style="fill: #1f77b4; fill-opacity: 0.5; stroke: #ffffff; stroke-width: 0.649309; stroke-linejoin: miter"/>
   </g>
   <g id="patch_44">
    <path d="M 344.703162 307.584 
L 351.597978 307.584 
L 351.597978 302.812117 
L 344.703162 302.812117 
z
" clip-path="url(#pd515407e5a)" style="fill: #1f77b4; fill-opacity: 0.5; stroke: #ffffff; stroke-width: 0.649309; stroke-linejoin: miter"/>
   </g>
   <g id="patch_45">
    <path d="M 351.597978 307.584 
L 358.492794 307.584 
L 358.492794 304.932954 
L 351.597978 304.932954 
z
" clip-path="url(#pd515407e5a)" style="fill: #1f77b4; fill-opacity: 0.5; stroke: #ffffff; stroke-width: 0.649309; stroke-linejoin: miter"/>
   </g>
   <g id="patch_46">
    <path d="M 358.492794 307.584 
L 365.38761 307.584 
L 365.38761 306.258477 
L 358.492794 306.258477 
z
" clip-path="url(#pd515407e5a)" style="fill: #1f77b4; fill-opacity: 0.5; stroke: #ffffff; stroke-width: 0.649309; stroke-linejoin: miter"/>
   </g>
   <g id="patch_47">
    <path d="M 365.38761 307.584 
L 372.282426 307.584 
L 372.282426 305.993372 
L 365.38761 305.993372 
z
" clip-path="url(#pd515407e5a)" style="fill: #1f77b4; fill-opacity: 0.5; stroke: #ffffff; stroke-width: 0.649309; stroke-linejoin: miter"/>
   </g>
   <g id="patch_48">
    <path d="M 372.282426 307.584 
L 379.177242 307.584 
L 379.177242 307.584 
L 372.282426 307.584 
z
" clip-path="url(#pd515407e5a)" style="fill: #1f77b4; fill-opacity: 0.5; stroke: #ffffff; stroke-width: 0.649309; stroke-linejoin: miter"/>
   </g>
   <g id="patch_49">
    <path d="M 379.177242 307.584 
L 386.072058 307.584 
L 386.072058 307.318895 
L 379.177242 307.318895 
z
" clip-path="url(#pd515407e5a)" style="fill: #1f77b4; fill-opacity: 0.5; stroke: #ffffff; stroke-width: 0.649309; stroke-linejoin: miter"/>
   </g>
   <g id="patch_50">
    <path d="M 386.072058 307.584 
L 392.966874 307.584 
L 392.966874 307.053791 
L 386.072058 307.053791 
z
" clip-path="url(#pd515407e5a)" style="fill: #1f77b4; fill-opacity: 0.5; stroke: #ffffff; stroke-width: 0.649309; stroke-linejoin: miter"/>
   </g>
   <g id="patch_51">
    <path d="M 392.966874 307.584 
L 399.86169 307.584 
L 399.86169 307.053791 
L 392.966874 307.053791 
z
" clip-path="url(#pd515407e5a)" style="fill: #1f77b4; fill-opacity: 0.5; stroke: #ffffff; stroke-width: 0.649309; stroke-linejoin: miter"/>
   </g>
   <g id="patch_52">
    <path d="M 399.86169 307.584 
L 406.756506 307.584 
L 406.756506 307.318895 
L 399.86169 307.318895 
z
" clip-path="url(#pd515407e5a)" style="fill: #1f77b4; fill-opacity: 0.5; stroke: #ffffff; stroke-width: 0.649309; stroke-linejoin: miter"/>
   </g>
   <g id="line2d_16">
    <path d="M 62.015708 307.205818 
L 81.071732 306.096216 
L 86.268829 305.448652 
L 91.465927 304.485658 
L 98.39539 302.852169 
L 103.592488 301.478589 
L 107.057219 300.341291 
L 110.521951 298.846514 
L 112.254317 297.922652 
L 113.986683 296.858324 
L 115.719048 295.634715 
L 117.451414 294.234512 
L 119.18378 292.647435 
L 120.916146 290.876406 
L 124.380877 286.881093 
L 138.239804 269.731887 
L 139.97217 267.242193 
L 141.704536 264.508985 
L 143.436901 261.516224 
L 146.901633 254.819146 
L 150.366365 247.387256 
L 153.831096 239.305485 
L 157.295828 230.407346 
L 160.76056 220.666755 
L 165.957657 205.059059 
L 178.084218 167.698268 
L 185.013681 147.740461 
L 190.210778 131.513238 
L 193.67551 120.784902 
L 207.534437 79.40874 
L 209.266802 74.939424 
L 210.999168 71.084705 
L 212.731534 67.909013 
L 214.4639 65.394732 
L 216.196266 63.453315 
L 217.928632 61.953606 
L 219.660997 60.761599 
L 221.393363 59.781594 
L 223.125729 58.986352 
L 224.858095 58.426257 
L 226.590461 58.214664 
L 228.322826 58.495079 
L 230.055192 59.401346 
L 231.787558 61.022766 
L 233.519924 63.382738 
L 235.25229 66.434523 
L 236.984656 70.072951 
L 238.717021 74.157368 
L 242.181753 83.085932 
L 254.308314 115.068784 
L 266.434874 146.815912 
L 269.899606 157.239968 
L 273.364338 168.987175 
L 282.026167 200.097662 
L 285.490898 211.104142 
L 288.95563 221.255047 
L 292.420362 230.953334 
L 295.885093 239.91645 
L 297.617459 243.893154 
L 299.349825 247.461139 
L 301.082191 250.649234 
L 304.546922 256.282421 
L 309.74402 264.431788 
L 314.941117 272.735444 
L 318.405849 277.838229 
L 321.870581 282.377406 
L 325.335312 286.424132 
L 328.800044 290.056007 
L 332.264776 293.180615 
L 333.997141 294.506727 
L 335.729507 295.674159 
L 339.194239 297.64094 
L 346.123702 301.040898 
L 349.588434 302.575641 
L 353.053165 303.833527 
L 356.517897 304.776584 
L 359.982629 305.456067 
L 365.179726 306.143234 
L 373.841555 306.948124 
L 379.038653 307.186645 
L 387.700482 307.187454 
L 399.827042 307.301895 
L 406.756506 307.396785 
L 406.756506 307.396785 
" clip-path="url(#pd515407e5a)" style="fill: none; stroke: #1f77b4; stroke-width: 1.5; stroke-linecap: round"/>
   </g>
   <g id="patch_53">
    <path d="M 57.6 307.584 
L 57.6 41.472 
" style="fill: none; stroke: #000000; stroke-width: 0.8; stroke-linejoin: miter; stroke-linecap: square"/>
   </g>
   <g id="patch_54">
    <path d="M 414.72 307.584 
L 414.72 41.472 
" style="fill: none; stroke: #000000; stroke-width: 0.8; stroke-linejoin: miter; stroke-linecap: square"/>
   </g>
   <g id="patch_55">
    <path d="M 57.6 307.584 
L 414.72 307.584 
" style="fill: none; stroke: #000000; stroke-width: 0.8; stroke-linejoin: miter; stroke-linecap: square"/>
   </g>
   <g id="patch_56">
    <path d="M 57.6 41.472 
L 414.72 41.472 
" style="fill: none; stroke: #000000; stroke-width: 0.8; stroke-linejoin: miter; stroke-linecap: square"/>
   </g>
   <g id="text_19">
    <!-- Gaussian -->
    <g style="fill: #262626" transform="translate(210.81375 35.472) scale(0.12 -0.12)">
     <defs>
      <path id="ArialMT-47" d="M 2638 1797 
L 2638 2334 
L 4578 2338 
L 4578 638 
Q 4131 281 3656 101 
Q 3181 -78 2681 -78 
Q 2006 -78 1454 211 
Q 903 500 622 1047 
Q 341 1594 341 2269 
Q 341 2938 620 3517 
Q 900 4097 1425 4378 
Q 1950 4659 2634 4659 
Q 3131 4659 3532 4498 
Q 3934 4338 4162 4050 
Q 4391 3763 4509 3300 
L 3963 3150 
Q 3859 3500 3706 3700 
Q 3553 3900 3268 4020 
Q 2984 4141 2638 4141 
Q 2222 4141 1919 4014 
Q 1616 3888 1430 3681 
Q 1244 3475 1141 3228 
Q 966 2803 966 2306 
Q 966 1694 1177 1281 
Q 1388 869 1791 669 
Q 2194 469 2647 469 
Q 3041 469 3416 620 
Q 3791 772 3984 944 
L 3984 1797 
L 2638 1797 
z
" transform="scale(0.015625)"/>
      <path id="ArialMT-73" d="M 197 991 
L 753 1078 
Q 800 744 1014 566 
Q 1228 388 1613 388 
Q 2000 388 2187 545 
Q 2375 703 2375 916 
Q 2375 1106 2209 1216 
Q 2094 1291 1634 1406 
Q 1016 1563 777 1677 
Q 538 1791 414 1992 
Q 291 2194 291 2438 
Q 291 2659 392 2848 
Q 494 3038 669 3163 
Q 800 3259 1026 3326 
Q 1253 3394 1513 3394 
Q 1903 3394 2198 3281 
Q 2494 3169 2634 2976 
Q 2775 2784 2828 2463 
L 2278 2388 
Q 2241 2644 2061 2787 
Q 1881 2931 1553 2931 
Q 1166 2931 1000 2803 
Q 834 2675 834 2503 
Q 834 2394 903 2306 
Q 972 2216 1119 2156 
Q 1203 2125 1616 2013 
Q 2213 1853 2448 1751 
Q 2684 1650 2818 1456 
Q 2953 1263 2953 975 
Q 2953 694 2789 445 
Q 2625 197 2315 61 
Q 2006 -75 1616 -75 
Q 969 -75 630 194 
Q 291 463 197 991 
z
" transform="scale(0.015625)"/>
     </defs>
     <use xlink:href="#ArialMT-47"/>
     <use xlink:href="#ArialMT-61" x="77.783203"/>
     <use xlink:href="#ArialMT-75" x="133.398438"/>
     <use xlink:href="#ArialMT-73" x="189.013672"/>
     <use xlink:href="#ArialMT-73" x="239.013672"/>
     <use xlink:href="#ArialMT-69" x="289.013672"/>
     <use xlink:href="#ArialMT-61" x="311.230469"/>
     <use xlink:href="#ArialMT-6e" x="366.845703"/>
    </g>
   </g>
  </g>
 </g>
 <defs>
  <clipPath id="pd515407e5a">
   <rect x="57.6" y="41.472" width="357.12" height="266.112"/>
  </clipPath>
 </defs>
</svg>
