<?xml version="1.0" encoding="utf-8" standalone="no"?>
<!DOCTYPE svg PUBLIC "-//W3C//DTD SVG 1.1//EN"
  "http://www.w3.org/Graphics/SVG/1.1/DTD/svg11.dtd">
<svg xmlns:xlink="http://www.w3.org/1999/xlink" width="460.8pt" height="345.6pt" viewBox="0 0 460.8 345.6" xmlns="http://www.w3.org/2000/svg" version="1.1">
 <metadata>
  <rdf:RDF xmlns:dc="http://purl.org/dc/elements/1.1/" xmlns:cc="http://creativecommons.org/ns#" xmlns:rdf="http://www.w3.org/1999/02/22-rdf-syntax-ns#">
   <cc:Work>
    <dc:type rdf:resource="http://purl.org/dc/dcmitype/StillImage"/>
    <dc:date>2024-06-29T00:12:11.340804</dc:date>
    <dc:format>image/svg+xml</dc:format>
    <dc:creator>
     <cc:Agent>
      <dc:title>Matplotlib v3.8.4, https://matplotlib.org/</dc:title>
     </cc:Agent>
    </dc:creator>
   </cc:Work>
  </rdf:RDF>
 </metadata>
 <defs>
  <style type="text/css">*{stroke-linejoin: round; stroke-linecap: butt}</style>
 </defs>
 <g id="figure_1">
  <g id="patch_1">
   <path d="M 0 345.6 
L 460.8 345.6 
L 460.8 0 
L 0 0 
z
" style="fill: #ffffff"/>
  </g>
  <g id="axes_1">
   <g id="patch_2">
    <path d="M 57.6 307.584 
L 414.72 307.584 
L 414.72 41.472 
L 57.6 41.472 
z
" style="fill: #eaeaf2"/>
   </g>
   <g id="matplotlib.axis_1">
    <g id="xtick_1">
     <g id="line2d_1">
      <path d="M 69.6743 307.584 
L 69.6743 41.472 
" clip-path="url(#p014d87beda)" style="fill: none; stroke: #ffffff; stroke-width: 0.8; stroke-linecap: round"/>
     </g>
     <g id="text_1">
      <!-- 1.00 -->
      <g style="fill: #262626" transform="translate(59.943831 321.741812) scale(0.1 -0.1)">
       <defs>
        <path id="ArialMT-31" d="M 2384 0 
L 1822 0 
L 1822 3584 
Q 1619 3391 1289 3197 
Q 959 3003 697 2906 
L 697 3450 
Q 1169 3672 1522 3987 
Q 1875 4303 2022 4600 
L 2384 4600 
L 2384 0 
z
" transform="scale(0.015625)"/>
        <path id="ArialMT-2e" d="M 581 0 
L 581 641 
L 1222 641 
L 1222 0 
L 581 0 
z
" transform="scale(0.015625)"/>
        <path id="ArialMT-30" d="M 266 2259 
Q 266 3072 433 3567 
Q 600 4063 929 4331 
Q 1259 4600 1759 4600 
Q 2128 4600 2406 4451 
Q 2684 4303 2865 4023 
Q 3047 3744 3150 3342 
Q 3253 2941 3253 2259 
Q 3253 1453 3087 958 
Q 2922 463 2592 192 
Q 2263 -78 1759 -78 
Q 1097 -78 719 397 
Q 266 969 266 2259 
z
M 844 2259 
Q 844 1131 1108 757 
Q 1372 384 1759 384 
Q 2147 384 2411 759 
Q 2675 1134 2675 2259 
Q 2675 3391 2411 3762 
Q 2147 4134 1753 4134 
Q 1366 4134 1134 3806 
Q 844 3388 844 2259 
z
" transform="scale(0.015625)"/>
       </defs>
       <use xlink:href="#ArialMT-31"/>
       <use xlink:href="#ArialMT-2e" x="55.615234"/>
       <use xlink:href="#ArialMT-30" x="83.398438"/>
       <use xlink:href="#ArialMT-30" x="139.013672"/>
      </g>
     </g>
    </g>
    <g id="xtick_2">
     <g id="line2d_2">
      <path d="M 111.713359 307.584 
L 111.713359 41.472 
" clip-path="url(#p014d87beda)" style="fill: none; stroke: #ffffff; stroke-width: 0.8; stroke-linecap: round"/>
     </g>
     <g id="text_2">
      <!-- 1.25 -->
      <g style="fill: #262626" transform="translate(101.98289 321.741812) scale(0.1 -0.1)">
       <defs>
        <path id="ArialMT-32" d="M 3222 541 
L 3222 0 
L 194 0 
Q 188 203 259 391 
Q 375 700 629 1000 
Q 884 1300 1366 1694 
Q 2113 2306 2375 2664 
Q 2638 3022 2638 3341 
Q 2638 3675 2398 3904 
Q 2159 4134 1775 4134 
Q 1369 4134 1125 3890 
Q 881 3647 878 3216 
L 300 3275 
Q 359 3922 746 4261 
Q 1134 4600 1788 4600 
Q 2447 4600 2831 4234 
Q 3216 3869 3216 3328 
Q 3216 3053 3103 2787 
Q 2991 2522 2730 2228 
Q 2469 1934 1863 1422 
Q 1356 997 1212 845 
Q 1069 694 975 541 
L 3222 541 
z
" transform="scale(0.015625)"/>
        <path id="ArialMT-35" d="M 266 1200 
L 856 1250 
Q 922 819 1161 601 
Q 1400 384 1738 384 
Q 2144 384 2425 690 
Q 2706 997 2706 1503 
Q 2706 1984 2436 2262 
Q 2166 2541 1728 2541 
Q 1456 2541 1237 2417 
Q 1019 2294 894 2097 
L 366 2166 
L 809 4519 
L 3088 4519 
L 3088 3981 
L 1259 3981 
L 1013 2750 
Q 1425 3038 1878 3038 
Q 2478 3038 2890 2622 
Q 3303 2206 3303 1553 
Q 3303 931 2941 478 
Q 2500 -78 1738 -78 
Q 1113 -78 717 272 
Q 322 622 266 1200 
z
" transform="scale(0.015625)"/>
       </defs>
       <use xlink:href="#ArialMT-31"/>
       <use xlink:href="#ArialMT-2e" x="55.615234"/>
       <use xlink:href="#ArialMT-32" x="83.398438"/>
       <use xlink:href="#ArialMT-35" x="139.013672"/>
      </g>
     </g>
    </g>
    <g id="xtick_3">
     <g id="line2d_3">
      <path d="M 153.752419 307.584 
L 153.752419 41.472 
" clip-path="url(#p014d87beda)" style="fill: none; stroke: #ffffff; stroke-width: 0.8; stroke-linecap: round"/>
     </g>
     <g id="text_3">
      <!-- 1.50 -->
      <g style="fill: #262626" transform="translate(144.02195 321.741812) scale(0.1 -0.1)">
       <use xlink:href="#ArialMT-31"/>
       <use xlink:href="#ArialMT-2e" x="55.615234"/>
       <use xlink:href="#ArialMT-35" x="83.398438"/>
       <use xlink:href="#ArialMT-30" x="139.013672"/>
      </g>
     </g>
    </g>
    <g id="xtick_4">
     <g id="line2d_4">
      <path d="M 195.791478 307.584 
L 195.791478 41.472 
" clip-path="url(#p014d87beda)" style="fill: none; stroke: #ffffff; stroke-width: 0.8; stroke-linecap: round"/>
     </g>
     <g id="text_4">
      <!-- 1.75 -->
      <g style="fill: #262626" transform="translate(186.061009 321.741812) scale(0.1 -0.1)">
       <defs>
        <path id="ArialMT-37" d="M 303 3981 
L 303 4522 
L 3269 4522 
L 3269 4084 
Q 2831 3619 2401 2847 
Q 1972 2075 1738 1259 
Q 1569 684 1522 0 
L 944 0 
Q 953 541 1156 1306 
Q 1359 2072 1739 2783 
Q 2119 3494 2547 3981 
L 303 3981 
z
" transform="scale(0.015625)"/>
       </defs>
       <use xlink:href="#ArialMT-31"/>
       <use xlink:href="#ArialMT-2e" x="55.615234"/>
       <use xlink:href="#ArialMT-37" x="83.398438"/>
       <use xlink:href="#ArialMT-35" x="139.013672"/>
      </g>
     </g>
    </g>
    <g id="xtick_5">
     <g id="line2d_5">
      <path d="M 237.830538 307.584 
L 237.830538 41.472 
" clip-path="url(#p014d87beda)" style="fill: none; stroke: #ffffff; stroke-width: 0.8; stroke-linecap: round"/>
     </g>
     <g id="text_5">
      <!-- 2.00 -->
      <g style="fill: #262626" transform="translate(228.100069 321.741812) scale(0.1 -0.1)">
       <use xlink:href="#ArialMT-32"/>
       <use xlink:href="#ArialMT-2e" x="55.615234"/>
       <use xlink:href="#ArialMT-30" x="83.398438"/>
       <use xlink:href="#ArialMT-30" x="139.013672"/>
      </g>
     </g>
    </g>
    <g id="xtick_6">
     <g id="line2d_6">
      <path d="M 279.869597 307.584 
L 279.869597 41.472 
" clip-path="url(#p014d87beda)" style="fill: none; stroke: #ffffff; stroke-width: 0.8; stroke-linecap: round"/>
     </g>
     <g id="text_6">
      <!-- 2.25 -->
      <g style="fill: #262626" transform="translate(270.139128 321.741812) scale(0.1 -0.1)">
       <use xlink:href="#ArialMT-32"/>
       <use xlink:href="#ArialMT-2e" x="55.615234"/>
       <use xlink:href="#ArialMT-32" x="83.398438"/>
       <use xlink:href="#ArialMT-35" x="139.013672"/>
      </g>
     </g>
    </g>
    <g id="xtick_7">
     <g id="line2d_7">
      <path d="M 321.908657 307.584 
L 321.908657 41.472 
" clip-path="url(#p014d87beda)" style="fill: none; stroke: #ffffff; stroke-width: 0.8; stroke-linecap: round"/>
     </g>
     <g id="text_7">
      <!-- 2.50 -->
      <g style="fill: #262626" transform="translate(312.178188 321.741812) scale(0.1 -0.1)">
       <use xlink:href="#ArialMT-32"/>
       <use xlink:href="#ArialMT-2e" x="55.615234"/>
       <use xlink:href="#ArialMT-35" x="83.398438"/>
       <use xlink:href="#ArialMT-30" x="139.013672"/>
      </g>
     </g>
    </g>
    <g id="xtick_8">
     <g id="line2d_8">
      <path d="M 363.947716 307.584 
L 363.947716 41.472 
" clip-path="url(#p014d87beda)" style="fill: none; stroke: #ffffff; stroke-width: 0.8; stroke-linecap: round"/>
     </g>
     <g id="text_8">
      <!-- 2.75 -->
      <g style="fill: #262626" transform="translate(354.217247 321.741812) scale(0.1 -0.1)">
       <use xlink:href="#ArialMT-32"/>
       <use xlink:href="#ArialMT-2e" x="55.615234"/>
       <use xlink:href="#ArialMT-37" x="83.398438"/>
       <use xlink:href="#ArialMT-35" x="139.013672"/>
      </g>
     </g>
    </g>
    <g id="xtick_9">
     <g id="line2d_9">
      <path d="M 405.986776 307.584 
L 405.986776 41.472 
" clip-path="url(#p014d87beda)" style="fill: none; stroke: #ffffff; stroke-width: 0.8; stroke-linecap: round"/>
     </g>
     <g id="text_9">
      <!-- 3.00 -->
      <g style="fill: #262626" transform="translate(396.256307 321.741812) scale(0.1 -0.1)">
       <defs>
        <path id="ArialMT-33" d="M 269 1209 
L 831 1284 
Q 928 806 1161 595 
Q 1394 384 1728 384 
Q 2125 384 2398 659 
Q 2672 934 2672 1341 
Q 2672 1728 2419 1979 
Q 2166 2231 1775 2231 
Q 1616 2231 1378 2169 
L 1441 2663 
Q 1497 2656 1531 2656 
Q 1891 2656 2178 2843 
Q 2466 3031 2466 3422 
Q 2466 3731 2256 3934 
Q 2047 4138 1716 4138 
Q 1388 4138 1169 3931 
Q 950 3725 888 3313 
L 325 3413 
Q 428 3978 793 4289 
Q 1159 4600 1703 4600 
Q 2078 4600 2393 4439 
Q 2709 4278 2876 4000 
Q 3044 3722 3044 3409 
Q 3044 3113 2884 2869 
Q 2725 2625 2413 2481 
Q 2819 2388 3044 2092 
Q 3269 1797 3269 1353 
Q 3269 753 2831 336 
Q 2394 -81 1725 -81 
Q 1122 -81 723 278 
Q 325 638 269 1209 
z
" transform="scale(0.015625)"/>
       </defs>
       <use xlink:href="#ArialMT-33"/>
       <use xlink:href="#ArialMT-2e" x="55.615234"/>
       <use xlink:href="#ArialMT-30" x="83.398438"/>
       <use xlink:href="#ArialMT-30" x="139.013672"/>
      </g>
     </g>
    </g>
    <g id="text_10">
     <!-- Particle diameter -->
     <g style="fill: #262626" transform="translate(198.6475 334.887125) scale(0.1 -0.1)">
      <defs>
       <path id="ArialMT-50" d="M 494 0 
L 494 4581 
L 2222 4581 
Q 2678 4581 2919 4538 
Q 3256 4481 3484 4323 
Q 3713 4166 3852 3881 
Q 3991 3597 3991 3256 
Q 3991 2672 3619 2267 
Q 3247 1863 2275 1863 
L 1100 1863 
L 1100 0 
L 494 0 
z
M 1100 2403 
L 2284 2403 
Q 2872 2403 3119 2622 
Q 3366 2841 3366 3238 
Q 3366 3525 3220 3729 
Q 3075 3934 2838 4000 
Q 2684 4041 2272 4041 
L 1100 4041 
L 1100 2403 
z
" transform="scale(0.015625)"/>
       <path id="ArialMT-61" d="M 2588 409 
Q 2275 144 1986 34 
Q 1697 -75 1366 -75 
Q 819 -75 525 192 
Q 231 459 231 875 
Q 231 1119 342 1320 
Q 453 1522 633 1644 
Q 813 1766 1038 1828 
Q 1203 1872 1538 1913 
Q 2219 1994 2541 2106 
Q 2544 2222 2544 2253 
Q 2544 2597 2384 2738 
Q 2169 2928 1744 2928 
Q 1347 2928 1158 2789 
Q 969 2650 878 2297 
L 328 2372 
Q 403 2725 575 2942 
Q 747 3159 1072 3276 
Q 1397 3394 1825 3394 
Q 2250 3394 2515 3294 
Q 2781 3194 2906 3042 
Q 3031 2891 3081 2659 
Q 3109 2516 3109 2141 
L 3109 1391 
Q 3109 606 3145 398 
Q 3181 191 3288 0 
L 2700 0 
Q 2613 175 2588 409 
z
M 2541 1666 
Q 2234 1541 1622 1453 
Q 1275 1403 1131 1340 
Q 988 1278 909 1158 
Q 831 1038 831 891 
Q 831 666 1001 516 
Q 1172 366 1500 366 
Q 1825 366 2078 508 
Q 2331 650 2450 897 
Q 2541 1088 2541 1459 
L 2541 1666 
z
" transform="scale(0.015625)"/>
       <path id="ArialMT-72" d="M 416 0 
L 416 3319 
L 922 3319 
L 922 2816 
Q 1116 3169 1280 3281 
Q 1444 3394 1641 3394 
Q 1925 3394 2219 3213 
L 2025 2691 
Q 1819 2813 1613 2813 
Q 1428 2813 1281 2702 
Q 1134 2591 1072 2394 
Q 978 2094 978 1738 
L 978 0 
L 416 0 
z
" transform="scale(0.015625)"/>
       <path id="ArialMT-74" d="M 1650 503 
L 1731 6 
Q 1494 -44 1306 -44 
Q 1000 -44 831 53 
Q 663 150 594 308 
Q 525 466 525 972 
L 525 2881 
L 113 2881 
L 113 3319 
L 525 3319 
L 525 4141 
L 1084 4478 
L 1084 3319 
L 1650 3319 
L 1650 2881 
L 1084 2881 
L 1084 941 
Q 1084 700 1114 631 
Q 1144 563 1211 522 
Q 1278 481 1403 481 
Q 1497 481 1650 503 
z
" transform="scale(0.015625)"/>
       <path id="ArialMT-69" d="M 425 3934 
L 425 4581 
L 988 4581 
L 988 3934 
L 425 3934 
z
M 425 0 
L 425 3319 
L 988 3319 
L 988 0 
L 425 0 
z
" transform="scale(0.015625)"/>
       <path id="ArialMT-63" d="M 2588 1216 
L 3141 1144 
Q 3050 572 2676 248 
Q 2303 -75 1759 -75 
Q 1078 -75 664 370 
Q 250 816 250 1647 
Q 250 2184 428 2587 
Q 606 2991 970 3192 
Q 1334 3394 1763 3394 
Q 2303 3394 2647 3120 
Q 2991 2847 3088 2344 
L 2541 2259 
Q 2463 2594 2264 2762 
Q 2066 2931 1784 2931 
Q 1359 2931 1093 2626 
Q 828 2322 828 1663 
Q 828 994 1084 691 
Q 1341 388 1753 388 
Q 2084 388 2306 591 
Q 2528 794 2588 1216 
z
" transform="scale(0.015625)"/>
       <path id="ArialMT-6c" d="M 409 0 
L 409 4581 
L 972 4581 
L 972 0 
L 409 0 
z
" transform="scale(0.015625)"/>
       <path id="ArialMT-65" d="M 2694 1069 
L 3275 997 
Q 3138 488 2766 206 
Q 2394 -75 1816 -75 
Q 1088 -75 661 373 
Q 234 822 234 1631 
Q 234 2469 665 2931 
Q 1097 3394 1784 3394 
Q 2450 3394 2872 2941 
Q 3294 2488 3294 1666 
Q 3294 1616 3291 1516 
L 816 1516 
Q 847 969 1125 678 
Q 1403 388 1819 388 
Q 2128 388 2347 550 
Q 2566 713 2694 1069 
z
M 847 1978 
L 2700 1978 
Q 2663 2397 2488 2606 
Q 2219 2931 1791 2931 
Q 1403 2931 1139 2672 
Q 875 2413 847 1978 
z
" transform="scale(0.015625)"/>
       <path id="ArialMT-20" transform="scale(0.015625)"/>
       <path id="ArialMT-64" d="M 2575 0 
L 2575 419 
Q 2259 -75 1647 -75 
Q 1250 -75 917 144 
Q 584 363 401 755 
Q 219 1147 219 1656 
Q 219 2153 384 2558 
Q 550 2963 881 3178 
Q 1213 3394 1622 3394 
Q 1922 3394 2156 3267 
Q 2391 3141 2538 2938 
L 2538 4581 
L 3097 4581 
L 3097 0 
L 2575 0 
z
M 797 1656 
Q 797 1019 1065 703 
Q 1334 388 1700 388 
Q 2069 388 2326 689 
Q 2584 991 2584 1609 
Q 2584 2291 2321 2609 
Q 2059 2928 1675 2928 
Q 1300 2928 1048 2622 
Q 797 2316 797 1656 
z
" transform="scale(0.015625)"/>
       <path id="ArialMT-6d" d="M 422 0 
L 422 3319 
L 925 3319 
L 925 2853 
Q 1081 3097 1340 3245 
Q 1600 3394 1931 3394 
Q 2300 3394 2536 3241 
Q 2772 3088 2869 2813 
Q 3263 3394 3894 3394 
Q 4388 3394 4653 3120 
Q 4919 2847 4919 2278 
L 4919 0 
L 4359 0 
L 4359 2091 
Q 4359 2428 4304 2576 
Q 4250 2725 4106 2815 
Q 3963 2906 3769 2906 
Q 3419 2906 3187 2673 
Q 2956 2441 2956 1928 
L 2956 0 
L 2394 0 
L 2394 2156 
Q 2394 2531 2256 2718 
Q 2119 2906 1806 2906 
Q 1569 2906 1367 2781 
Q 1166 2656 1075 2415 
Q 984 2175 984 1722 
L 984 0 
L 422 0 
z
" transform="scale(0.015625)"/>
      </defs>
      <use xlink:href="#ArialMT-50"/>
      <use xlink:href="#ArialMT-61" x="66.699219"/>
      <use xlink:href="#ArialMT-72" x="122.314453"/>
      <use xlink:href="#ArialMT-74" x="155.615234"/>
      <use xlink:href="#ArialMT-69" x="183.398438"/>
      <use xlink:href="#ArialMT-63" x="205.615234"/>
      <use xlink:href="#ArialMT-6c" x="255.615234"/>
      <use xlink:href="#ArialMT-65" x="277.832031"/>
      <use xlink:href="#ArialMT-20" x="333.447266"/>
      <use xlink:href="#ArialMT-64" x="361.230469"/>
      <use xlink:href="#ArialMT-69" x="416.845703"/>
      <use xlink:href="#ArialMT-61" x="439.0625"/>
      <use xlink:href="#ArialMT-6d" x="494.677734"/>
      <use xlink:href="#ArialMT-65" x="577.978516"/>
      <use xlink:href="#ArialMT-74" x="633.59375"/>
      <use xlink:href="#ArialMT-65" x="661.376953"/>
      <use xlink:href="#ArialMT-72" x="716.992188"/>
     </g>
    </g>
    <g id="text_11">
     <!-- 1e−6 -->
     <g style="fill: #262626" transform="translate(392.196563 333.887125) scale(0.1 -0.1)">
      <defs>
       <path id="ArialMT-2212" d="M 3381 1997 
L 356 1997 
L 356 2522 
L 3381 2522 
L 3381 1997 
z
" transform="scale(0.015625)"/>
       <path id="ArialMT-36" d="M 3184 3459 
L 2625 3416 
Q 2550 3747 2413 3897 
Q 2184 4138 1850 4138 
Q 1581 4138 1378 3988 
Q 1113 3794 959 3422 
Q 806 3050 800 2363 
Q 1003 2672 1297 2822 
Q 1591 2972 1913 2972 
Q 2475 2972 2870 2558 
Q 3266 2144 3266 1488 
Q 3266 1056 3080 686 
Q 2894 316 2569 119 
Q 2244 -78 1831 -78 
Q 1128 -78 684 439 
Q 241 956 241 2144 
Q 241 3472 731 4075 
Q 1159 4600 1884 4600 
Q 2425 4600 2770 4297 
Q 3116 3994 3184 3459 
z
M 888 1484 
Q 888 1194 1011 928 
Q 1134 663 1356 523 
Q 1578 384 1822 384 
Q 2178 384 2434 671 
Q 2691 959 2691 1453 
Q 2691 1928 2437 2201 
Q 2184 2475 1800 2475 
Q 1419 2475 1153 2201 
Q 888 1928 888 1484 
z
" transform="scale(0.015625)"/>
      </defs>
      <use xlink:href="#ArialMT-31"/>
      <use xlink:href="#ArialMT-65" x="55.615234"/>
      <use xlink:href="#ArialMT-2212" x="111.230469"/>
      <use xlink:href="#ArialMT-36" x="169.628906"/>
     </g>
    </g>
   </g>
   <g id="matplotlib.axis_2">
    <g id="ytick_1">
     <g id="line2d_10">
      <path d="M 57.6 307.584 
L 414.72 307.584 
" clip-path="url(#p014d87beda)" style="fill: none; stroke: #ffffff; stroke-width: 0.8; stroke-linecap: round"/>
     </g>
     <g id="text_12">
      <!-- 0 -->
      <g style="fill: #262626" transform="translate(45.039062 311.162906) scale(0.1 -0.1)">
       <use xlink:href="#ArialMT-30"/>
      </g>
     </g>
    </g>
    <g id="ytick_2">
     <g id="line2d_11">
      <path d="M 57.6 270.037333 
L 414.72 270.037333 
" clip-path="url(#p014d87beda)" style="fill: none; stroke: #ffffff; stroke-width: 0.8; stroke-linecap: round"/>
     </g>
     <g id="text_13">
      <!-- 100 -->
      <g style="fill: #262626" transform="translate(33.917187 273.61624) scale(0.1 -0.1)">
       <use xlink:href="#ArialMT-31"/>
       <use xlink:href="#ArialMT-30" x="55.615234"/>
       <use xlink:href="#ArialMT-30" x="111.230469"/>
      </g>
     </g>
    </g>
    <g id="ytick_3">
     <g id="line2d_12">
      <path d="M 57.6 232.490667 
L 414.72 232.490667 
" clip-path="url(#p014d87beda)" style="fill: none; stroke: #ffffff; stroke-width: 0.8; stroke-linecap: round"/>
     </g>
     <g id="text_14">
      <!-- 200 -->
      <g style="fill: #262626" transform="translate(33.917187 236.069573) scale(0.1 -0.1)">
       <use xlink:href="#ArialMT-32"/>
       <use xlink:href="#ArialMT-30" x="55.615234"/>
       <use xlink:href="#ArialMT-30" x="111.230469"/>
      </g>
     </g>
    </g>
    <g id="ytick_4">
     <g id="line2d_13">
      <path d="M 57.6 194.944 
L 414.72 194.944 
" clip-path="url(#p014d87beda)" style="fill: none; stroke: #ffffff; stroke-width: 0.8; stroke-linecap: round"/>
     </g>
     <g id="text_15">
      <!-- 300 -->
      <g style="fill: #262626" transform="translate(33.917187 198.522906) scale(0.1 -0.1)">
       <use xlink:href="#ArialMT-33"/>
       <use xlink:href="#ArialMT-30" x="55.615234"/>
       <use xlink:href="#ArialMT-30" x="111.230469"/>
      </g>
     </g>
    </g>
    <g id="ytick_5">
     <g id="line2d_14">
      <path d="M 57.6 157.397333 
L 414.72 157.397333 
" clip-path="url(#p014d87beda)" style="fill: none; stroke: #ffffff; stroke-width: 0.8; stroke-linecap: round"/>
     </g>
     <g id="text_16">
      <!-- 400 -->
      <g style="fill: #262626" transform="translate(33.917187 160.97624) scale(0.1 -0.1)">
       <defs>
        <path id="ArialMT-34" d="M 2069 0 
L 2069 1097 
L 81 1097 
L 81 1613 
L 2172 4581 
L 2631 4581 
L 2631 1613 
L 3250 1613 
L 3250 1097 
L 2631 1097 
L 2631 0 
L 2069 0 
z
M 2069 1613 
L 2069 3678 
L 634 1613 
L 2069 1613 
z
" transform="scale(0.015625)"/>
       </defs>
       <use xlink:href="#ArialMT-34"/>
       <use xlink:href="#ArialMT-30" x="55.615234"/>
       <use xlink:href="#ArialMT-30" x="111.230469"/>
      </g>
     </g>
    </g>
    <g id="ytick_6">
     <g id="line2d_15">
      <path d="M 57.6 119.850667 
L 414.72 119.850667 
" clip-path="url(#p014d87beda)" style="fill: none; stroke: #ffffff; stroke-width: 0.8; stroke-linecap: round"/>
     </g>
     <g id="text_17">
      <!-- 500 -->
      <g style="fill: #262626" transform="translate(33.917187 123.429573) scale(0.1 -0.1)">
       <use xlink:href="#ArialMT-35"/>
       <use xlink:href="#ArialMT-30" x="55.615234"/>
       <use xlink:href="#ArialMT-30" x="111.230469"/>
      </g>
     </g>
    </g>
    <g id="ytick_7">
     <g id="line2d_16">
      <path d="M 57.6 82.304 
L 414.72 82.304 
" clip-path="url(#p014d87beda)" style="fill: none; stroke: #ffffff; stroke-width: 0.8; stroke-linecap: round"/>
     </g>
     <g id="text_18">
      <!-- 600 -->
      <g style="fill: #262626" transform="translate(33.917187 85.882906) scale(0.1 -0.1)">
       <use xlink:href="#ArialMT-36"/>
       <use xlink:href="#ArialMT-30" x="55.615234"/>
       <use xlink:href="#ArialMT-30" x="111.230469"/>
      </g>
     </g>
    </g>
    <g id="ytick_8">
     <g id="line2d_17">
      <path d="M 57.6 44.757333 
L 414.72 44.757333 
" clip-path="url(#p014d87beda)" style="fill: none; stroke: #ffffff; stroke-width: 0.8; stroke-linecap: round"/>
     </g>
     <g id="text_19">
      <!-- 700 -->
      <g style="fill: #262626" transform="translate(33.917187 48.33624) scale(0.1 -0.1)">
       <use xlink:href="#ArialMT-37"/>
       <use xlink:href="#ArialMT-30" x="55.615234"/>
       <use xlink:href="#ArialMT-30" x="111.230469"/>
      </g>
     </g>
    </g>
    <g id="text_20">
     <!-- Count -->
     <g style="fill: #262626" transform="translate(27.929687 187.869406) rotate(-90) scale(0.1 -0.1)">
      <defs>
       <path id="ArialMT-43" d="M 3763 1606 
L 4369 1453 
Q 4178 706 3683 314 
Q 3188 -78 2472 -78 
Q 1731 -78 1267 223 
Q 803 525 561 1097 
Q 319 1669 319 2325 
Q 319 3041 592 3573 
Q 866 4106 1370 4382 
Q 1875 4659 2481 4659 
Q 3169 4659 3637 4309 
Q 4106 3959 4291 3325 
L 3694 3184 
Q 3534 3684 3231 3912 
Q 2928 4141 2469 4141 
Q 1941 4141 1586 3887 
Q 1231 3634 1087 3207 
Q 944 2781 944 2328 
Q 944 1744 1114 1308 
Q 1284 872 1643 656 
Q 2003 441 2422 441 
Q 2931 441 3284 734 
Q 3638 1028 3763 1606 
z
" transform="scale(0.015625)"/>
       <path id="ArialMT-6f" d="M 213 1659 
Q 213 2581 725 3025 
Q 1153 3394 1769 3394 
Q 2453 3394 2887 2945 
Q 3322 2497 3322 1706 
Q 3322 1066 3130 698 
Q 2938 331 2570 128 
Q 2203 -75 1769 -75 
Q 1072 -75 642 372 
Q 213 819 213 1659 
z
M 791 1659 
Q 791 1022 1069 705 
Q 1347 388 1769 388 
Q 2188 388 2466 706 
Q 2744 1025 2744 1678 
Q 2744 2294 2464 2611 
Q 2184 2928 1769 2928 
Q 1347 2928 1069 2612 
Q 791 2297 791 1659 
z
" transform="scale(0.015625)"/>
       <path id="ArialMT-75" d="M 2597 0 
L 2597 488 
Q 2209 -75 1544 -75 
Q 1250 -75 995 37 
Q 741 150 617 320 
Q 494 491 444 738 
Q 409 903 409 1263 
L 409 3319 
L 972 3319 
L 972 1478 
Q 972 1038 1006 884 
Q 1059 663 1231 536 
Q 1403 409 1656 409 
Q 1909 409 2131 539 
Q 2353 669 2445 892 
Q 2538 1116 2538 1541 
L 2538 3319 
L 3100 3319 
L 3100 0 
L 2597 0 
z
" transform="scale(0.015625)"/>
       <path id="ArialMT-6e" d="M 422 0 
L 422 3319 
L 928 3319 
L 928 2847 
Q 1294 3394 1984 3394 
Q 2284 3394 2536 3286 
Q 2788 3178 2913 3003 
Q 3038 2828 3088 2588 
Q 3119 2431 3119 2041 
L 3119 0 
L 2556 0 
L 2556 2019 
Q 2556 2363 2490 2533 
Q 2425 2703 2258 2804 
Q 2091 2906 1866 2906 
Q 1506 2906 1245 2678 
Q 984 2450 984 1813 
L 984 0 
L 422 0 
z
" transform="scale(0.015625)"/>
      </defs>
      <use xlink:href="#ArialMT-43"/>
      <use xlink:href="#ArialMT-6f" x="72.216797"/>
      <use xlink:href="#ArialMT-75" x="127.832031"/>
      <use xlink:href="#ArialMT-6e" x="183.447266"/>
      <use xlink:href="#ArialMT-74" x="239.0625"/>
     </g>
    </g>
   </g>
   <g id="patch_3">
    <path d="M 130.279534 307.584 
L 147.914812 307.584 
L 147.914812 305.3312 
L 130.279534 305.3312 
z
" clip-path="url(#p014d87beda)" style="fill: #1f77b4; fill-opacity: 0.5; stroke: #ffffff; stroke-linejoin: miter"/>
   </g>
   <g id="patch_4">
    <path d="M 147.914812 307.584 
L 165.55009 307.584 
L 165.55009 302.327467 
L 147.914812 302.327467 
z
" clip-path="url(#p014d87beda)" style="fill: #1f77b4; fill-opacity: 0.5; stroke: #ffffff; stroke-linejoin: miter"/>
   </g>
   <g id="patch_5">
    <path d="M 165.55009 307.584 
L 183.185367 307.584 
L 183.185367 296.695467 
L 165.55009 296.695467 
z
" clip-path="url(#p014d87beda)" style="fill: #1f77b4; fill-opacity: 0.5; stroke: #ffffff; stroke-linejoin: miter"/>
   </g>
   <g id="patch_6">
    <path d="M 183.185367 307.584 
L 200.820645 307.584 
L 200.820645 291.438933 
L 183.185367 291.438933 
z
" clip-path="url(#p014d87beda)" style="fill: #1f77b4; fill-opacity: 0.5; stroke: #ffffff; stroke-linejoin: miter"/>
   </g>
   <g id="patch_7">
    <path d="M 200.820645 307.584 
L 218.455923 307.584 
L 218.455923 283.554133 
L 200.820645 283.554133 
z
" clip-path="url(#p014d87beda)" style="fill: #1f77b4; fill-opacity: 0.5; stroke: #ffffff; stroke-linejoin: miter"/>
   </g>
   <g id="patch_8">
    <path d="M 218.455923 307.584 
L 236.091201 307.584 
L 236.091201 291.438933 
L 218.455923 291.438933 
z
" clip-path="url(#p014d87beda)" style="fill: #1f77b4; fill-opacity: 0.5; stroke: #ffffff; stroke-linejoin: miter"/>
   </g>
   <g id="patch_9">
    <path d="M 236.091201 307.584 
L 253.726479 307.584 
L 253.726479 288.4352 
L 236.091201 288.4352 
z
" clip-path="url(#p014d87beda)" style="fill: #1f77b4; fill-opacity: 0.5; stroke: #ffffff; stroke-linejoin: miter"/>
   </g>
   <g id="patch_10">
    <path d="M 253.726479 307.584 
L 271.361757 307.584 
L 271.361757 294.442667 
L 253.726479 294.442667 
z
" clip-path="url(#p014d87beda)" style="fill: #1f77b4; fill-opacity: 0.5; stroke: #ffffff; stroke-linejoin: miter"/>
   </g>
   <g id="patch_11">
    <path d="M 271.361757 307.584 
L 288.997035 307.584 
L 288.997035 295.569067 
L 271.361757 295.569067 
z
" clip-path="url(#p014d87beda)" style="fill: #1f77b4; fill-opacity: 0.5; stroke: #ffffff; stroke-linejoin: miter"/>
   </g>
   <g id="patch_12">
    <path d="M 288.997035 307.584 
L 306.632312 307.584 
L 306.632312 297.821867 
L 288.997035 297.821867 
z
" clip-path="url(#p014d87beda)" style="fill: #1f77b4; fill-opacity: 0.5; stroke: #ffffff; stroke-linejoin: miter"/>
   </g>
   <g id="patch_13">
    <path d="M 306.632312 307.584 
L 324.26759 307.584 
L 324.26759 303.829333 
L 306.632312 303.829333 
z
" clip-path="url(#p014d87beda)" style="fill: #1f77b4; fill-opacity: 0.5; stroke: #ffffff; stroke-linejoin: miter"/>
   </g>
   <g id="patch_14">
    <path d="M 324.26759 307.584 
L 341.902868 307.584 
L 341.902868 306.082133 
L 324.26759 306.082133 
z
" clip-path="url(#p014d87beda)" style="fill: #1f77b4; fill-opacity: 0.5; stroke: #ffffff; stroke-linejoin: miter"/>
   </g>
   <g id="patch_15">
    <path d="M 341.902868 307.584 
L 359.538146 307.584 
L 359.538146 306.4576 
L 341.902868 306.4576 
z
" clip-path="url(#p014d87beda)" style="fill: #1f77b4; fill-opacity: 0.5; stroke: #ffffff; stroke-linejoin: miter"/>
   </g>
   <g id="patch_16">
    <path d="M 73.832727 307.584 
L 78.341818 307.584 
L 78.341818 307.208533 
L 73.832727 307.208533 
z
" clip-path="url(#p014d87beda)" style="fill: #ff7f0e; fill-opacity: 0.5; stroke: #ffffff; stroke-width: 0.450909; stroke-linejoin: miter"/>
   </g>
   <g id="patch_17">
    <path d="M 78.341818 307.584 
L 82.850909 307.584 
L 82.850909 306.082133 
L 78.341818 306.082133 
z
" clip-path="url(#p014d87beda)" style="fill: #ff7f0e; fill-opacity: 0.5; stroke: #ffffff; stroke-width: 0.450909; stroke-linejoin: miter"/>
   </g>
   <g id="patch_18">
    <path d="M 82.850909 307.584 
L 87.36 307.584 
L 87.36 306.833067 
L 82.850909 306.833067 
z
" clip-path="url(#p014d87beda)" style="fill: #ff7f0e; fill-opacity: 0.5; stroke: #ffffff; stroke-width: 0.450909; stroke-linejoin: miter"/>
   </g>
   <g id="patch_19">
    <path d="M 87.36 307.584 
L 91.869091 307.584 
L 91.869091 306.082133 
L 87.36 306.082133 
z
" clip-path="url(#p014d87beda)" style="fill: #ff7f0e; fill-opacity: 0.5; stroke: #ffffff; stroke-width: 0.450909; stroke-linejoin: miter"/>
   </g>
   <g id="patch_20">
    <path d="M 91.869091 307.584 
L 96.378182 307.584 
L 96.378182 307.208533 
L 91.869091 307.208533 
z
" clip-path="url(#p014d87beda)" style="fill: #ff7f0e; fill-opacity: 0.5; stroke: #ffffff; stroke-width: 0.450909; stroke-linejoin: miter"/>
   </g>
   <g id="patch_21">
    <path d="M 96.378182 307.584 
L 100.887273 307.584 
L 100.887273 304.955733 
L 96.378182 304.955733 
z
" clip-path="url(#p014d87beda)" style="fill: #ff7f0e; fill-opacity: 0.5; stroke: #ffffff; stroke-width: 0.450909; stroke-linejoin: miter"/>
   </g>
   <g id="patch_22">
    <path d="M 100.887273 307.584 
L 105.396364 307.584 
L 105.396364 304.2048 
L 100.887273 304.2048 
z
" clip-path="url(#p014d87beda)" style="fill: #ff7f0e; fill-opacity: 0.5; stroke: #ffffff; stroke-width: 0.450909; stroke-linejoin: miter"/>
   </g>
   <g id="patch_23">
    <path d="M 105.396364 307.584 
L 109.905455 307.584 
L 109.905455 302.702933 
L 105.396364 302.702933 
z
" clip-path="url(#p014d87beda)" style="fill: #ff7f0e; fill-opacity: 0.5; stroke: #ffffff; stroke-width: 0.450909; stroke-linejoin: miter"/>
   </g>
   <g id="patch_24">
    <path d="M 109.905455 307.584 
L 114.414545 307.584 
L 114.414545 301.952 
L 109.905455 301.952 
z
" clip-path="url(#p014d87beda)" style="fill: #ff7f0e; fill-opacity: 0.5; stroke: #ffffff; stroke-width: 0.450909; stroke-linejoin: miter"/>
   </g>
   <g id="patch_25">
    <path d="M 114.414545 307.584 
L 118.923636 307.584 
L 118.923636 301.952 
L 114.414545 301.952 
z
" clip-path="url(#p014d87beda)" style="fill: #ff7f0e; fill-opacity: 0.5; stroke: #ffffff; stroke-width: 0.450909; stroke-linejoin: miter"/>
   </g>
   <g id="patch_26">
    <path d="M 118.923636 307.584 
L 123.432727 307.584 
L 123.432727 298.5728 
L 118.923636 298.5728 
z
" clip-path="url(#p014d87beda)" style="fill: #ff7f0e; fill-opacity: 0.5; stroke: #ffffff; stroke-width: 0.450909; stroke-linejoin: miter"/>
   </g>
   <g id="patch_27">
    <path d="M 123.432727 307.584 
L 127.941818 307.584 
L 127.941818 295.944533 
L 123.432727 295.944533 
z
" clip-path="url(#p014d87beda)" style="fill: #ff7f0e; fill-opacity: 0.5; stroke: #ffffff; stroke-width: 0.450909; stroke-linejoin: miter"/>
   </g>
   <g id="patch_28">
    <path d="M 127.941818 307.584 
L 132.450909 307.584 
L 132.450909 291.063467 
L 127.941818 291.063467 
z
" clip-path="url(#p014d87beda)" style="fill: #ff7f0e; fill-opacity: 0.5; stroke: #ffffff; stroke-width: 0.450909; stroke-linejoin: miter"/>
   </g>
   <g id="patch_29">
    <path d="M 132.450909 307.584 
L 136.96 307.584 
L 136.96 285.056 
L 132.450909 285.056 
z
" clip-path="url(#p014d87beda)" style="fill: #ff7f0e; fill-opacity: 0.5; stroke: #ffffff; stroke-width: 0.450909; stroke-linejoin: miter"/>
   </g>
   <g id="patch_30">
    <path d="M 136.96 307.584 
L 141.469091 307.584 
L 141.469091 276.795733 
L 136.96 276.795733 
z
" clip-path="url(#p014d87beda)" style="fill: #ff7f0e; fill-opacity: 0.5; stroke: #ffffff; stroke-width: 0.450909; stroke-linejoin: miter"/>
   </g>
   <g id="patch_31">
    <path d="M 141.469091 307.584 
L 145.978182 307.584 
L 145.978182 274.542933 
L 141.469091 274.542933 
z
" clip-path="url(#p014d87beda)" style="fill: #ff7f0e; fill-opacity: 0.5; stroke: #ffffff; stroke-width: 0.450909; stroke-linejoin: miter"/>
   </g>
   <g id="patch_32">
    <path d="M 145.978182 307.584 
L 150.487273 307.584 
L 150.487273 266.658133 
L 145.978182 266.658133 
z
" clip-path="url(#p014d87beda)" style="fill: #ff7f0e; fill-opacity: 0.5; stroke: #ffffff; stroke-width: 0.450909; stroke-linejoin: miter"/>
   </g>
   <g id="patch_33">
    <path d="M 150.487273 307.584 
L 154.996364 307.584 
L 154.996364 265.531733 
L 150.487273 265.531733 
z
" clip-path="url(#p014d87beda)" style="fill: #ff7f0e; fill-opacity: 0.5; stroke: #ffffff; stroke-width: 0.450909; stroke-linejoin: miter"/>
   </g>
   <g id="patch_34">
    <path d="M 154.996364 307.584 
L 159.505455 307.584 
L 159.505455 241.877333 
L 154.996364 241.877333 
z
" clip-path="url(#p014d87beda)" style="fill: #ff7f0e; fill-opacity: 0.5; stroke: #ffffff; stroke-width: 0.450909; stroke-linejoin: miter"/>
   </g>
   <g id="patch_35">
    <path d="M 159.505455 307.584 
L 164.014545 307.584 
L 164.014545 240 
L 159.505455 240 
z
" clip-path="url(#p014d87beda)" style="fill: #ff7f0e; fill-opacity: 0.5; stroke: #ffffff; stroke-width: 0.450909; stroke-linejoin: miter"/>
   </g>
   <g id="patch_36">
    <path d="M 164.014545 307.584 
L 168.523636 307.584 
L 168.523636 226.107733 
L 164.014545 226.107733 
z
" clip-path="url(#p014d87beda)" style="fill: #ff7f0e; fill-opacity: 0.5; stroke: #ffffff; stroke-width: 0.450909; stroke-linejoin: miter"/>
   </g>
   <g id="patch_37">
    <path d="M 168.523636 307.584 
L 173.032727 307.584 
L 173.032727 208.4608 
L 168.523636 208.4608 
z
" clip-path="url(#p014d87beda)" style="fill: #ff7f0e; fill-opacity: 0.5; stroke: #ffffff; stroke-width: 0.450909; stroke-linejoin: miter"/>
   </g>
   <g id="patch_38">
    <path d="M 173.032727 307.584 
L 177.541818 307.584 
L 177.541818 197.1968 
L 173.032727 197.1968 
z
" clip-path="url(#p014d87beda)" style="fill: #ff7f0e; fill-opacity: 0.5; stroke: #ffffff; stroke-width: 0.450909; stroke-linejoin: miter"/>
   </g>
   <g id="patch_39">
    <path d="M 177.541818 307.584 
L 182.050909 307.584 
L 182.050909 173.5424 
L 177.541818 173.5424 
z
" clip-path="url(#p014d87beda)" style="fill: #ff7f0e; fill-opacity: 0.5; stroke: #ffffff; stroke-width: 0.450909; stroke-linejoin: miter"/>
   </g>
   <g id="patch_40">
    <path d="M 182.050909 307.584 
L 186.56 307.584 
L 186.56 168.285867 
L 182.050909 168.285867 
z
" clip-path="url(#p014d87beda)" style="fill: #ff7f0e; fill-opacity: 0.5; stroke: #ffffff; stroke-width: 0.450909; stroke-linejoin: miter"/>
   </g>
   <g id="patch_41">
    <path d="M 186.56 307.584 
L 191.069091 307.584 
L 191.069091 159.274667 
L 186.56 159.274667 
z
" clip-path="url(#p014d87beda)" style="fill: #ff7f0e; fill-opacity: 0.5; stroke: #ffffff; stroke-width: 0.450909; stroke-linejoin: miter"/>
   </g>
   <g id="patch_42">
    <path d="M 191.069091 307.584 
L 195.578182 307.584 
L 195.578182 143.1296 
L 191.069091 143.1296 
z
" clip-path="url(#p014d87beda)" style="fill: #ff7f0e; fill-opacity: 0.5; stroke: #ffffff; stroke-width: 0.450909; stroke-linejoin: miter"/>
   </g>
   <g id="patch_43">
    <path d="M 195.578182 307.584 
L 200.087273 307.584 
L 200.087273 109.713067 
L 195.578182 109.713067 
z
" clip-path="url(#p014d87beda)" style="fill: #ff7f0e; fill-opacity: 0.5; stroke: #ffffff; stroke-width: 0.450909; stroke-linejoin: miter"/>
   </g>
   <g id="patch_44">
    <path d="M 200.087273 307.584 
L 204.596364 307.584 
L 204.596364 119.099733 
L 200.087273 119.099733 
z
" clip-path="url(#p014d87beda)" style="fill: #ff7f0e; fill-opacity: 0.5; stroke: #ffffff; stroke-width: 0.450909; stroke-linejoin: miter"/>
   </g>
   <g id="patch_45">
    <path d="M 204.596364 307.584 
L 209.105455 307.584 
L 209.105455 96.571733 
L 204.596364 96.571733 
z
" clip-path="url(#p014d87beda)" style="fill: #ff7f0e; fill-opacity: 0.5; stroke: #ffffff; stroke-width: 0.450909; stroke-linejoin: miter"/>
   </g>
   <g id="patch_46">
    <path d="M 209.105455 307.584 
L 213.614545 307.584 
L 213.614545 73.668267 
L 209.105455 73.668267 
z
" clip-path="url(#p014d87beda)" style="fill: #ff7f0e; fill-opacity: 0.5; stroke: #ffffff; stroke-width: 0.450909; stroke-linejoin: miter"/>
   </g>
   <g id="patch_47">
    <path d="M 213.614545 307.584 
L 218.123636 307.584 
L 218.123636 66.158933 
L 213.614545 66.158933 
z
" clip-path="url(#p014d87beda)" style="fill: #ff7f0e; fill-opacity: 0.5; stroke: #ffffff; stroke-width: 0.450909; stroke-linejoin: miter"/>
   </g>
   <g id="patch_48">
    <path d="M 218.123636 307.584 
L 222.632727 307.584 
L 222.632727 65.032533 
L 218.123636 65.032533 
z
" clip-path="url(#p014d87beda)" style="fill: #ff7f0e; fill-opacity: 0.5; stroke: #ffffff; stroke-width: 0.450909; stroke-linejoin: miter"/>
   </g>
   <g id="patch_49">
    <path d="M 222.632727 307.584 
L 227.141818 307.584 
L 227.141818 62.404267 
L 222.632727 62.404267 
z
" clip-path="url(#p014d87beda)" style="fill: #ff7f0e; fill-opacity: 0.5; stroke: #ffffff; stroke-width: 0.450909; stroke-linejoin: miter"/>
   </g>
   <g id="patch_50">
    <path d="M 227.141818 307.584 
L 231.650909 307.584 
L 231.650909 62.779733 
L 227.141818 62.779733 
z
" clip-path="url(#p014d87beda)" style="fill: #ff7f0e; fill-opacity: 0.5; stroke: #ffffff; stroke-width: 0.450909; stroke-linejoin: miter"/>
   </g>
   <g id="patch_51">
    <path d="M 231.650909 307.584 
L 236.16 307.584 
L 236.16 54.144 
L 231.650909 54.144 
z
" clip-path="url(#p014d87beda)" style="fill: #ff7f0e; fill-opacity: 0.5; stroke: #ffffff; stroke-width: 0.450909; stroke-linejoin: miter"/>
   </g>
   <g id="patch_52">
    <path d="M 236.16 307.584 
L 240.669091 307.584 
L 240.669091 74.794667 
L 236.16 74.794667 
z
" clip-path="url(#p014d87beda)" style="fill: #ff7f0e; fill-opacity: 0.5; stroke: #ffffff; stroke-width: 0.450909; stroke-linejoin: miter"/>
   </g>
   <g id="patch_53">
    <path d="M 240.669091 307.584 
L 245.178182 307.584 
L 245.178182 86.434133 
L 240.669091 86.434133 
z
" clip-path="url(#p014d87beda)" style="fill: #ff7f0e; fill-opacity: 0.5; stroke: #ffffff; stroke-width: 0.450909; stroke-linejoin: miter"/>
   </g>
   <g id="patch_54">
    <path d="M 245.178182 307.584 
L 249.687273 307.584 
L 249.687273 94.318933 
L 245.178182 94.318933 
z
" clip-path="url(#p014d87beda)" style="fill: #ff7f0e; fill-opacity: 0.5; stroke: #ffffff; stroke-width: 0.450909; stroke-linejoin: miter"/>
   </g>
   <g id="patch_55">
    <path d="M 249.687273 307.584 
L 254.196364 307.584 
L 254.196364 111.214933 
L 249.687273 111.214933 
z
" clip-path="url(#p014d87beda)" style="fill: #ff7f0e; fill-opacity: 0.5; stroke: #ffffff; stroke-width: 0.450909; stroke-linejoin: miter"/>
   </g>
   <g id="patch_56">
    <path d="M 254.196364 307.584 
L 258.705455 307.584 
L 258.705455 119.850667 
L 254.196364 119.850667 
z
" clip-path="url(#p014d87beda)" style="fill: #ff7f0e; fill-opacity: 0.5; stroke: #ffffff; stroke-width: 0.450909; stroke-linejoin: miter"/>
   </g>
   <g id="patch_57">
    <path d="M 258.705455 307.584 
L 263.214545 307.584 
L 263.214545 142.754133 
L 258.705455 142.754133 
z
" clip-path="url(#p014d87beda)" style="fill: #ff7f0e; fill-opacity: 0.5; stroke: #ffffff; stroke-width: 0.450909; stroke-linejoin: miter"/>
   </g>
   <g id="patch_58">
    <path d="M 263.214545 307.584 
L 267.723636 307.584 
L 267.723636 140.501333 
L 263.214545 140.501333 
z
" clip-path="url(#p014d87beda)" style="fill: #ff7f0e; fill-opacity: 0.5; stroke: #ffffff; stroke-width: 0.450909; stroke-linejoin: miter"/>
   </g>
   <g id="patch_59">
    <path d="M 267.723636 307.584 
L 272.232727 307.584 
L 272.232727 155.52 
L 267.723636 155.52 
z
" clip-path="url(#p014d87beda)" style="fill: #ff7f0e; fill-opacity: 0.5; stroke: #ffffff; stroke-width: 0.450909; stroke-linejoin: miter"/>
   </g>
   <g id="patch_60">
    <path d="M 272.232727 307.584 
L 276.741818 307.584 
L 276.741818 179.925333 
L 272.232727 179.925333 
z
" clip-path="url(#p014d87beda)" style="fill: #ff7f0e; fill-opacity: 0.5; stroke: #ffffff; stroke-width: 0.450909; stroke-linejoin: miter"/>
   </g>
   <g id="patch_61">
    <path d="M 276.741818 307.584 
L 281.250909 307.584 
L 281.250909 198.3232 
L 276.741818 198.3232 
z
" clip-path="url(#p014d87beda)" style="fill: #ff7f0e; fill-opacity: 0.5; stroke: #ffffff; stroke-width: 0.450909; stroke-linejoin: miter"/>
   </g>
   <g id="patch_62">
    <path d="M 281.250909 307.584 
L 285.76 307.584 
L 285.76 213.717333 
L 281.250909 213.717333 
z
" clip-path="url(#p014d87beda)" style="fill: #ff7f0e; fill-opacity: 0.5; stroke: #ffffff; stroke-width: 0.450909; stroke-linejoin: miter"/>
   </g>
   <g id="patch_63">
    <path d="M 285.76 307.584 
L 290.269091 307.584 
L 290.269091 215.594667 
L 285.76 215.594667 
z
" clip-path="url(#p014d87beda)" style="fill: #ff7f0e; fill-opacity: 0.5; stroke: #ffffff; stroke-width: 0.450909; stroke-linejoin: miter"/>
   </g>
   <g id="patch_64">
    <path d="M 290.269091 307.584 
L 294.778182 307.584 
L 294.778182 236.996267 
L 290.269091 236.996267 
z
" clip-path="url(#p014d87beda)" style="fill: #ff7f0e; fill-opacity: 0.5; stroke: #ffffff; stroke-width: 0.450909; stroke-linejoin: miter"/>
   </g>
   <g id="patch_65">
    <path d="M 294.778182 307.584 
L 299.287273 307.584 
L 299.287273 262.528 
L 294.778182 262.528 
z
" clip-path="url(#p014d87beda)" style="fill: #ff7f0e; fill-opacity: 0.5; stroke: #ffffff; stroke-width: 0.450909; stroke-linejoin: miter"/>
   </g>
   <g id="patch_66">
    <path d="M 299.287273 307.584 
L 303.796364 307.584 
L 303.796364 250.888533 
L 299.287273 250.888533 
z
" clip-path="url(#p014d87beda)" style="fill: #ff7f0e; fill-opacity: 0.5; stroke: #ffffff; stroke-width: 0.450909; stroke-linejoin: miter"/>
   </g>
   <g id="patch_67">
    <path d="M 303.796364 307.584 
L 308.305455 307.584 
L 308.305455 260.650667 
L 303.796364 260.650667 
z
" clip-path="url(#p014d87beda)" style="fill: #ff7f0e; fill-opacity: 0.5; stroke: #ffffff; stroke-width: 0.450909; stroke-linejoin: miter"/>
   </g>
   <g id="patch_68">
    <path d="M 308.305455 307.584 
L 312.814545 307.584 
L 312.814545 269.661867 
L 308.305455 269.661867 
z
" clip-path="url(#p014d87beda)" style="fill: #ff7f0e; fill-opacity: 0.5; stroke: #ffffff; stroke-width: 0.450909; stroke-linejoin: miter"/>
   </g>
   <g id="patch_69">
    <path d="M 312.814545 307.584 
L 317.323636 307.584 
L 317.323636 280.5504 
L 312.814545 280.5504 
z
" clip-path="url(#p014d87beda)" style="fill: #ff7f0e; fill-opacity: 0.5; stroke: #ffffff; stroke-width: 0.450909; stroke-linejoin: miter"/>
   </g>
   <g id="patch_70">
    <path d="M 317.323636 307.584 
L 321.832727 307.584 
L 321.832727 287.3088 
L 317.323636 287.3088 
z
" clip-path="url(#p014d87beda)" style="fill: #ff7f0e; fill-opacity: 0.5; stroke: #ffffff; stroke-width: 0.450909; stroke-linejoin: miter"/>
   </g>
   <g id="patch_71">
    <path d="M 321.832727 307.584 
L 326.341818 307.584 
L 326.341818 288.810667 
L 321.832727 288.810667 
z
" clip-path="url(#p014d87beda)" style="fill: #ff7f0e; fill-opacity: 0.5; stroke: #ffffff; stroke-width: 0.450909; stroke-linejoin: miter"/>
   </g>
   <g id="patch_72">
    <path d="M 326.341818 307.584 
L 330.850909 307.584 
L 330.850909 296.32 
L 326.341818 296.32 
z
" clip-path="url(#p014d87beda)" style="fill: #ff7f0e; fill-opacity: 0.5; stroke: #ffffff; stroke-width: 0.450909; stroke-linejoin: miter"/>
   </g>
   <g id="patch_73">
    <path d="M 330.850909 307.584 
L 335.36 307.584 
L 335.36 297.821867 
L 330.850909 297.821867 
z
" clip-path="url(#p014d87beda)" style="fill: #ff7f0e; fill-opacity: 0.5; stroke: #ffffff; stroke-width: 0.450909; stroke-linejoin: miter"/>
   </g>
   <g id="patch_74">
    <path d="M 335.36 307.584 
L 339.869091 307.584 
L 339.869091 297.070933 
L 335.36 297.070933 
z
" clip-path="url(#p014d87beda)" style="fill: #ff7f0e; fill-opacity: 0.5; stroke: #ffffff; stroke-width: 0.450909; stroke-linejoin: miter"/>
   </g>
   <g id="patch_75">
    <path d="M 339.869091 307.584 
L 344.378182 307.584 
L 344.378182 302.702933 
L 339.869091 302.702933 
z
" clip-path="url(#p014d87beda)" style="fill: #ff7f0e; fill-opacity: 0.5; stroke: #ffffff; stroke-width: 0.450909; stroke-linejoin: miter"/>
   </g>
   <g id="patch_76">
    <path d="M 344.378182 307.584 
L 348.887273 307.584 
L 348.887273 304.2048 
L 344.378182 304.2048 
z
" clip-path="url(#p014d87beda)" style="fill: #ff7f0e; fill-opacity: 0.5; stroke: #ffffff; stroke-width: 0.450909; stroke-linejoin: miter"/>
   </g>
   <g id="patch_77">
    <path d="M 348.887273 307.584 
L 353.396364 307.584 
L 353.396364 304.580267 
L 348.887273 304.580267 
z
" clip-path="url(#p014d87beda)" style="fill: #ff7f0e; fill-opacity: 0.5; stroke: #ffffff; stroke-width: 0.450909; stroke-linejoin: miter"/>
   </g>
   <g id="patch_78">
    <path d="M 353.396364 307.584 
L 357.905455 307.584 
L 357.905455 306.4576 
L 353.396364 306.4576 
z
" clip-path="url(#p014d87beda)" style="fill: #ff7f0e; fill-opacity: 0.5; stroke: #ffffff; stroke-width: 0.450909; stroke-linejoin: miter"/>
   </g>
   <g id="patch_79">
    <path d="M 357.905455 307.584 
L 362.414545 307.584 
L 362.414545 306.4576 
L 357.905455 306.4576 
z
" clip-path="url(#p014d87beda)" style="fill: #ff7f0e; fill-opacity: 0.5; stroke: #ffffff; stroke-width: 0.450909; stroke-linejoin: miter"/>
   </g>
   <g id="patch_80">
    <path d="M 362.414545 307.584 
L 366.923636 307.584 
L 366.923636 306.4576 
L 362.414545 306.4576 
z
" clip-path="url(#p014d87beda)" style="fill: #ff7f0e; fill-opacity: 0.5; stroke: #ffffff; stroke-width: 0.450909; stroke-linejoin: miter"/>
   </g>
   <g id="patch_81">
    <path d="M 366.923636 307.584 
L 371.432727 307.584 
L 371.432727 307.584 
L 366.923636 307.584 
z
" clip-path="url(#p014d87beda)" style="fill: #ff7f0e; fill-opacity: 0.5; stroke: #ffffff; stroke-width: 0.450909; stroke-linejoin: miter"/>
   </g>
   <g id="patch_82">
    <path d="M 371.432727 307.584 
L 375.941818 307.584 
L 375.941818 307.208533 
L 371.432727 307.208533 
z
" clip-path="url(#p014d87beda)" style="fill: #ff7f0e; fill-opacity: 0.5; stroke: #ffffff; stroke-width: 0.450909; stroke-linejoin: miter"/>
   </g>
   <g id="patch_83">
    <path d="M 375.941818 307.584 
L 380.450909 307.584 
L 380.450909 307.208533 
L 375.941818 307.208533 
z
" clip-path="url(#p014d87beda)" style="fill: #ff7f0e; fill-opacity: 0.5; stroke: #ffffff; stroke-width: 0.450909; stroke-linejoin: miter"/>
   </g>
   <g id="patch_84">
    <path d="M 380.450909 307.584 
L 384.96 307.584 
L 384.96 307.208533 
L 380.450909 307.208533 
z
" clip-path="url(#p014d87beda)" style="fill: #ff7f0e; fill-opacity: 0.5; stroke: #ffffff; stroke-width: 0.450909; stroke-linejoin: miter"/>
   </g>
   <g id="patch_85">
    <path d="M 384.96 307.584 
L 389.469091 307.584 
L 389.469091 307.208533 
L 384.96 307.208533 
z
" clip-path="url(#p014d87beda)" style="fill: #ff7f0e; fill-opacity: 0.5; stroke: #ffffff; stroke-width: 0.450909; stroke-linejoin: miter"/>
   </g>
   <g id="patch_86">
    <path d="M 389.469091 307.584 
L 393.978182 307.584 
L 393.978182 307.208533 
L 389.469091 307.208533 
z
" clip-path="url(#p014d87beda)" style="fill: #ff7f0e; fill-opacity: 0.5; stroke: #ffffff; stroke-width: 0.450909; stroke-linejoin: miter"/>
   </g>
   <g id="patch_87">
    <path d="M 393.978182 307.584 
L 398.487273 307.584 
L 398.487273 307.208533 
L 393.978182 307.208533 
z
" clip-path="url(#p014d87beda)" style="fill: #ff7f0e; fill-opacity: 0.5; stroke: #ffffff; stroke-width: 0.450909; stroke-linejoin: miter"/>
   </g>
   <g id="line2d_18">
    <path d="M 130.279534 306.14272 
L 137.191854 305.290945 
L 144.104174 304.230496 
L 151.016494 302.942515 
L 156.77676 301.666619 
L 162.537027 300.193916 
L 169.449347 298.194025 
L 179.817827 294.904772 
L 189.034254 292.012213 
L 194.79452 290.428124 
L 199.402733 289.394395 
L 204.010947 288.632872 
L 207.467107 288.260825 
L 212.07532 288.029398 
L 216.683533 288.06535 
L 222.4438 288.380989 
L 235.116387 289.440247 
L 248.941027 290.684837 
L 255.853347 291.563406 
L 262.765667 292.687467 
L 275.438253 295.065859 
L 304.239586 300.590944 
L 316.912173 303.15554 
L 323.824493 304.320163 
L 330.736813 305.2445 
L 337.649133 305.920435 
L 344.561453 306.376268 
L 354.929933 306.804601 
L 359.538146 306.955692 
L 359.538146 306.955692 
" clip-path="url(#p014d87beda)" style="fill: none; stroke: #1f77b4; stroke-width: 1.5; stroke-linecap: round"/>
   </g>
   <g id="line2d_19">
    <path d="M 73.832727 307.212043 
L 91.778456 306.120706 
L 96.672746 305.483802 
L 101.567035 304.53666 
L 108.092755 302.930059 
L 112.987044 301.579089 
L 116.249904 300.460512 
L 119.512764 298.990341 
L 121.144194 298.081686 
L 122.775624 297.034879 
L 124.407053 295.831411 
L 126.038483 294.454256 
L 127.669913 292.893304 
L 130.932773 289.248601 
L 135.827063 282.99491 
L 145.615642 270.354967 
L 147.247072 267.906255 
L 148.878502 265.218038 
L 150.509931 262.274542 
L 153.772791 255.687703 
L 157.035651 248.378149 
L 160.298511 240.429411 
L 163.56137 231.677743 
L 166.82423 222.097492 
L 171.71852 206.746712 
L 183.138529 170.000914 
L 189.664249 150.371631 
L 194.558538 134.411522 
L 197.821398 123.859784 
L 210.872837 83.164711 
L 212.504267 78.768964 
L 214.135697 74.977697 
L 215.767127 71.854281 
L 217.398556 69.381387 
L 219.029986 67.471927 
L 220.661416 65.996905 
L 222.292846 64.824519 
L 223.924276 63.860646 
L 225.555706 63.078495 
L 227.187136 62.527619 
L 228.818566 62.319509 
L 230.449995 62.595308 
L 232.081425 63.486657 
L 233.712855 65.081387 
L 235.344285 67.402512 
L 236.975715 70.404062 
L 238.607145 73.982598 
L 241.870005 82.309334 
L 266.341453 149.4623 
L 269.604312 159.714767 
L 272.867172 171.268604 
L 281.024322 201.866985 
L 284.287181 212.692288 
L 287.550041 222.676099 
L 290.812901 232.214744 
L 294.075761 241.03032 
L 295.70719 244.941563 
L 297.33862 248.450815 
L 298.97005 251.586432 
L 302.23291 257.126891 
L 308.75863 267.890315 
L 312.021489 273.309083 
L 315.284349 278.327872 
L 318.547209 282.79233 
L 321.810069 286.772443 
L 325.072928 290.344534 
L 328.335788 293.417708 
L 329.967218 294.721991 
L 333.230078 296.885358 
L 336.492937 298.668143 
L 343.018657 301.929909 
L 346.281517 303.316067 
L 349.544376 304.395608 
L 352.807236 305.185033 
L 356.070096 305.750066 
L 360.964386 306.34536 
L 367.490105 306.958591 
L 372.384395 307.193186 
L 380.541544 307.193982 
L 391.961553 307.306538 
L 398.487273 307.399867 
L 398.487273 307.399867 
" clip-path="url(#p014d87beda)" style="fill: none; stroke: #ff7f0e; stroke-width: 1.5; stroke-linecap: round"/>
   </g>
   <g id="patch_88">
    <path d="M 57.6 307.584 
L 57.6 41.472 
" style="fill: none; stroke: #000000; stroke-width: 0.8; stroke-linejoin: miter; stroke-linecap: square"/>
   </g>
   <g id="patch_89">
    <path d="M 414.72 307.584 
L 414.72 41.472 
" style="fill: none; stroke: #000000; stroke-width: 0.8; stroke-linejoin: miter; stroke-linecap: square"/>
   </g>
   <g id="patch_90">
    <path d="M 57.6 307.584 
L 414.72 307.584 
" style="fill: none; stroke: #000000; stroke-width: 0.8; stroke-linejoin: miter; stroke-linecap: square"/>
   </g>
   <g id="patch_91">
    <path d="M 57.6 41.472 
L 414.72 41.472 
" style="fill: none; stroke: #000000; stroke-width: 0.8; stroke-linejoin: miter; stroke-linecap: square"/>
   </g>
   <g id="legend_1">
    <g id="patch_92">
     <path d="M 319.024688 78.007937 
L 407.72 78.007937 
Q 409.72 78.007937 409.72 76.007937 
L 409.72 48.472 
Q 409.72 46.472 407.72 46.472 
L 319.024688 46.472 
Q 317.024688 46.472 317.024688 48.472 
L 317.024688 76.007937 
Q 317.024688 78.007937 319.024688 78.007937 
z
" style="fill: #eaeaf2; opacity: 0.8; stroke: #cccccc; stroke-linejoin: miter"/>
    </g>
    <g id="patch_93">
     <path d="M 321.024688 57.629812 
L 341.024688 57.629812 
L 341.024688 50.629812 
L 321.024688 50.629812 
z
" style="fill: #1f77b4; fill-opacity: 0.5; stroke: #ffffff; stroke-linejoin: miter"/>
    </g>
    <g id="text_21">
     <!-- Fitted data -->
     <g style="fill: #262626" transform="translate(349.024688 57.629812) scale(0.1 -0.1)">
      <defs>
       <path id="ArialMT-46" d="M 525 0 
L 525 4581 
L 3616 4581 
L 3616 4041 
L 1131 4041 
L 1131 2622 
L 3281 2622 
L 3281 2081 
L 1131 2081 
L 1131 0 
L 525 0 
z
" transform="scale(0.015625)"/>
      </defs>
      <use xlink:href="#ArialMT-46"/>
      <use xlink:href="#ArialMT-69" x="61.083984"/>
      <use xlink:href="#ArialMT-74" x="83.300781"/>
      <use xlink:href="#ArialMT-74" x="111.083984"/>
      <use xlink:href="#ArialMT-65" x="138.867188"/>
      <use xlink:href="#ArialMT-64" x="194.482422"/>
      <use xlink:href="#ArialMT-20" x="250.097656"/>
      <use xlink:href="#ArialMT-64" x="277.880859"/>
      <use xlink:href="#ArialMT-61" x="333.496094"/>
      <use xlink:href="#ArialMT-74" x="389.111328"/>
      <use xlink:href="#ArialMT-61" x="416.894531"/>
     </g>
    </g>
    <g id="patch_94">
     <path d="M 321.024688 71.90325 
L 341.024688 71.90325 
L 341.024688 64.90325 
L 321.024688 64.90325 
z
" style="fill: #ff7f0e; fill-opacity: 0.5; stroke: #ffffff; stroke-width: 0.450909; stroke-linejoin: miter"/>
    </g>
    <g id="text_22">
     <!-- Original data -->
     <g style="fill: #262626" transform="translate(349.024688 71.90325) scale(0.1 -0.1)">
      <defs>
       <path id="ArialMT-4f" d="M 309 2231 
Q 309 3372 921 4017 
Q 1534 4663 2503 4663 
Q 3138 4663 3647 4359 
Q 4156 4056 4423 3514 
Q 4691 2972 4691 2284 
Q 4691 1588 4409 1038 
Q 4128 488 3612 205 
Q 3097 -78 2500 -78 
Q 1853 -78 1343 234 
Q 834 547 571 1087 
Q 309 1628 309 2231 
z
M 934 2222 
Q 934 1394 1379 917 
Q 1825 441 2497 441 
Q 3181 441 3623 922 
Q 4066 1403 4066 2288 
Q 4066 2847 3877 3264 
Q 3688 3681 3323 3911 
Q 2959 4141 2506 4141 
Q 1863 4141 1398 3698 
Q 934 3256 934 2222 
z
" transform="scale(0.015625)"/>
       <path id="ArialMT-67" d="M 319 -275 
L 866 -356 
Q 900 -609 1056 -725 
Q 1266 -881 1628 -881 
Q 2019 -881 2231 -725 
Q 2444 -569 2519 -288 
Q 2563 -116 2559 434 
Q 2191 0 1641 0 
Q 956 0 581 494 
Q 206 988 206 1678 
Q 206 2153 378 2554 
Q 550 2956 876 3175 
Q 1203 3394 1644 3394 
Q 2231 3394 2613 2919 
L 2613 3319 
L 3131 3319 
L 3131 450 
Q 3131 -325 2973 -648 
Q 2816 -972 2473 -1159 
Q 2131 -1347 1631 -1347 
Q 1038 -1347 672 -1080 
Q 306 -813 319 -275 
z
M 784 1719 
Q 784 1066 1043 766 
Q 1303 466 1694 466 
Q 2081 466 2343 764 
Q 2606 1063 2606 1700 
Q 2606 2309 2336 2618 
Q 2066 2928 1684 2928 
Q 1309 2928 1046 2623 
Q 784 2319 784 1719 
z
" transform="scale(0.015625)"/>
      </defs>
      <use xlink:href="#ArialMT-4f"/>
      <use xlink:href="#ArialMT-72" x="77.783203"/>
      <use xlink:href="#ArialMT-69" x="111.083984"/>
      <use xlink:href="#ArialMT-67" x="133.300781"/>
      <use xlink:href="#ArialMT-69" x="188.916016"/>
      <use xlink:href="#ArialMT-6e" x="211.132812"/>
      <use xlink:href="#ArialMT-61" x="266.748047"/>
      <use xlink:href="#ArialMT-6c" x="322.363281"/>
      <use xlink:href="#ArialMT-20" x="344.580078"/>
      <use xlink:href="#ArialMT-64" x="372.363281"/>
      <use xlink:href="#ArialMT-61" x="427.978516"/>
      <use xlink:href="#ArialMT-74" x="483.59375"/>
      <use xlink:href="#ArialMT-61" x="511.376953"/>
     </g>
    </g>
   </g>
  </g>
 </g>
 <defs>
  <clipPath id="p014d87beda">
   <rect x="57.6" y="41.472" width="357.12" height="266.112"/>
  </clipPath>
 </defs>
</svg>
