<?xml version="1.0" encoding="utf-8" standalone="no"?>
<!DOCTYPE svg PUBLIC "-//W3C//DTD SVG 1.1//EN"
  "http://www.w3.org/Graphics/SVG/1.1/DTD/svg11.dtd">
<svg xmlns:xlink="http://www.w3.org/1999/xlink" width="460.8pt" height="345.6pt" viewBox="0 0 460.8 345.6" xmlns="http://www.w3.org/2000/svg" version="1.1">
 <metadata>
  <rdf:RDF xmlns:dc="http://purl.org/dc/elements/1.1/" xmlns:cc="http://creativecommons.org/ns#" xmlns:rdf="http://www.w3.org/1999/02/22-rdf-syntax-ns#">
   <cc:Work>
    <dc:type rdf:resource="http://purl.org/dc/dcmitype/StillImage"/>
    <dc:date>2024-06-23T17:52:48.200978</dc:date>
    <dc:format>image/svg+xml</dc:format>
    <dc:creator>
     <cc:Agent>
      <dc:title>Matplotlib v3.8.4, https://matplotlib.org/</dc:title>
     </cc:Agent>
    </dc:creator>
   </cc:Work>
  </rdf:RDF>
 </metadata>
 <defs>
  <style type="text/css">*{stroke-linejoin: round; stroke-linecap: butt}</style>
 </defs>
 <g id="figure_1">
  <g id="patch_1">
   <path d="M 0 345.6 
L 460.8 345.6 
L 460.8 0 
L 0 0 
z
" style="fill: #ffffff"/>
  </g>
  <g id="axes_1">
   <g id="patch_2">
    <path d="M 57.6 307.584 
L 414.72 307.584 
L 414.72 41.472 
L 57.6 41.472 
z
" style="fill: #eaeaf2"/>
   </g>
   <g id="matplotlib.axis_1">
    <g id="xtick_1">
     <g id="line2d_1">
      <path d="M 67.135749 307.584 
L 67.135749 41.472 
" clip-path="url(#pcf6674ff14)" style="fill: none; stroke: #ffffff; stroke-width: 0.8; stroke-linecap: round"/>
     </g>
     <g id="text_1">
      <!-- 1.0 -->
      <g style="fill: #262626" transform="translate(60.185749 321.741812) scale(0.1 -0.1)">
       <defs>
        <path id="ArialMT-31" d="M 2384 0 
L 1822 0 
L 1822 3584 
Q 1619 3391 1289 3197 
Q 959 3003 697 2906 
L 697 3450 
Q 1169 3672 1522 3987 
Q 1875 4303 2022 4600 
L 2384 4600 
L 2384 0 
z
" transform="scale(0.015625)"/>
        <path id="ArialMT-2e" d="M 581 0 
L 581 641 
L 1222 641 
L 1222 0 
L 581 0 
z
" transform="scale(0.015625)"/>
        <path id="ArialMT-30" d="M 266 2259 
Q 266 3072 433 3567 
Q 600 4063 929 4331 
Q 1259 4600 1759 4600 
Q 2128 4600 2406 4451 
Q 2684 4303 2865 4023 
Q 3047 3744 3150 3342 
Q 3253 2941 3253 2259 
Q 3253 1453 3087 958 
Q 2922 463 2592 192 
Q 2263 -78 1759 -78 
Q 1097 -78 719 397 
Q 266 969 266 2259 
z
M 844 2259 
Q 844 1131 1108 757 
Q 1372 384 1759 384 
Q 2147 384 2411 759 
Q 2675 1134 2675 2259 
Q 2675 3391 2411 3762 
Q 2147 4134 1753 4134 
Q 1366 4134 1134 3806 
Q 844 3388 844 2259 
z
" transform="scale(0.015625)"/>
       </defs>
       <use xlink:href="#ArialMT-31"/>
       <use xlink:href="#ArialMT-2e" x="55.615234"/>
       <use xlink:href="#ArialMT-30" x="83.398438"/>
      </g>
     </g>
    </g>
    <g id="xtick_2">
     <g id="line2d_2">
      <path d="M 127.252282 307.584 
L 127.252282 41.472 
" clip-path="url(#pcf6674ff14)" style="fill: none; stroke: #ffffff; stroke-width: 0.8; stroke-linecap: round"/>
     </g>
     <g id="text_2">
      <!-- 1.2 -->
      <g style="fill: #262626" transform="translate(120.302282 321.741812) scale(0.1 -0.1)">
       <defs>
        <path id="ArialMT-32" d="M 3222 541 
L 3222 0 
L 194 0 
Q 188 203 259 391 
Q 375 700 629 1000 
Q 884 1300 1366 1694 
Q 2113 2306 2375 2664 
Q 2638 3022 2638 3341 
Q 2638 3675 2398 3904 
Q 2159 4134 1775 4134 
Q 1369 4134 1125 3890 
Q 881 3647 878 3216 
L 300 3275 
Q 359 3922 746 4261 
Q 1134 4600 1788 4600 
Q 2447 4600 2831 4234 
Q 3216 3869 3216 3328 
Q 3216 3053 3103 2787 
Q 2991 2522 2730 2228 
Q 2469 1934 1863 1422 
Q 1356 997 1212 845 
Q 1069 694 975 541 
L 3222 541 
z
" transform="scale(0.015625)"/>
       </defs>
       <use xlink:href="#ArialMT-31"/>
       <use xlink:href="#ArialMT-2e" x="55.615234"/>
       <use xlink:href="#ArialMT-32" x="83.398438"/>
      </g>
     </g>
    </g>
    <g id="xtick_3">
     <g id="line2d_3">
      <path d="M 187.368814 307.584 
L 187.368814 41.472 
" clip-path="url(#pcf6674ff14)" style="fill: none; stroke: #ffffff; stroke-width: 0.8; stroke-linecap: round"/>
     </g>
     <g id="text_3">
      <!-- 1.4 -->
      <g style="fill: #262626" transform="translate(180.418814 321.741812) scale(0.1 -0.1)">
       <defs>
        <path id="ArialMT-34" d="M 2069 0 
L 2069 1097 
L 81 1097 
L 81 1613 
L 2172 4581 
L 2631 4581 
L 2631 1613 
L 3250 1613 
L 3250 1097 
L 2631 1097 
L 2631 0 
L 2069 0 
z
M 2069 1613 
L 2069 3678 
L 634 1613 
L 2069 1613 
z
" transform="scale(0.015625)"/>
       </defs>
       <use xlink:href="#ArialMT-31"/>
       <use xlink:href="#ArialMT-2e" x="55.615234"/>
       <use xlink:href="#ArialMT-34" x="83.398438"/>
      </g>
     </g>
    </g>
    <g id="xtick_4">
     <g id="line2d_4">
      <path d="M 247.485347 307.584 
L 247.485347 41.472 
" clip-path="url(#pcf6674ff14)" style="fill: none; stroke: #ffffff; stroke-width: 0.8; stroke-linecap: round"/>
     </g>
     <g id="text_4">
      <!-- 1.6 -->
      <g style="fill: #262626" transform="translate(240.535347 321.741812) scale(0.1 -0.1)">
       <defs>
        <path id="ArialMT-36" d="M 3184 3459 
L 2625 3416 
Q 2550 3747 2413 3897 
Q 2184 4138 1850 4138 
Q 1581 4138 1378 3988 
Q 1113 3794 959 3422 
Q 806 3050 800 2363 
Q 1003 2672 1297 2822 
Q 1591 2972 1913 2972 
Q 2475 2972 2870 2558 
Q 3266 2144 3266 1488 
Q 3266 1056 3080 686 
Q 2894 316 2569 119 
Q 2244 -78 1831 -78 
Q 1128 -78 684 439 
Q 241 956 241 2144 
Q 241 3472 731 4075 
Q 1159 4600 1884 4600 
Q 2425 4600 2770 4297 
Q 3116 3994 3184 3459 
z
M 888 1484 
Q 888 1194 1011 928 
Q 1134 663 1356 523 
Q 1578 384 1822 384 
Q 2178 384 2434 671 
Q 2691 959 2691 1453 
Q 2691 1928 2437 2201 
Q 2184 2475 1800 2475 
Q 1419 2475 1153 2201 
Q 888 1928 888 1484 
z
" transform="scale(0.015625)"/>
       </defs>
       <use xlink:href="#ArialMT-31"/>
       <use xlink:href="#ArialMT-2e" x="55.615234"/>
       <use xlink:href="#ArialMT-36" x="83.398438"/>
      </g>
     </g>
    </g>
    <g id="xtick_5">
     <g id="line2d_5">
      <path d="M 307.601879 307.584 
L 307.601879 41.472 
" clip-path="url(#pcf6674ff14)" style="fill: none; stroke: #ffffff; stroke-width: 0.8; stroke-linecap: round"/>
     </g>
     <g id="text_5">
      <!-- 1.8 -->
      <g style="fill: #262626" transform="translate(300.651879 321.741812) scale(0.1 -0.1)">
       <defs>
        <path id="ArialMT-38" d="M 1131 2484 
Q 781 2613 612 2850 
Q 444 3088 444 3419 
Q 444 3919 803 4259 
Q 1163 4600 1759 4600 
Q 2359 4600 2725 4251 
Q 3091 3903 3091 3403 
Q 3091 3084 2923 2848 
Q 2756 2613 2416 2484 
Q 2838 2347 3058 2040 
Q 3278 1734 3278 1309 
Q 3278 722 2862 322 
Q 2447 -78 1769 -78 
Q 1091 -78 675 323 
Q 259 725 259 1325 
Q 259 1772 486 2073 
Q 713 2375 1131 2484 
z
M 1019 3438 
Q 1019 3113 1228 2906 
Q 1438 2700 1772 2700 
Q 2097 2700 2305 2904 
Q 2513 3109 2513 3406 
Q 2513 3716 2298 3927 
Q 2084 4138 1766 4138 
Q 1444 4138 1231 3931 
Q 1019 3725 1019 3438 
z
M 838 1322 
Q 838 1081 952 856 
Q 1066 631 1291 507 
Q 1516 384 1775 384 
Q 2178 384 2440 643 
Q 2703 903 2703 1303 
Q 2703 1709 2433 1975 
Q 2163 2241 1756 2241 
Q 1359 2241 1098 1978 
Q 838 1716 838 1322 
z
" transform="scale(0.015625)"/>
       </defs>
       <use xlink:href="#ArialMT-31"/>
       <use xlink:href="#ArialMT-2e" x="55.615234"/>
       <use xlink:href="#ArialMT-38" x="83.398438"/>
      </g>
     </g>
    </g>
    <g id="xtick_6">
     <g id="line2d_6">
      <path d="M 367.718411 307.584 
L 367.718411 41.472 
" clip-path="url(#pcf6674ff14)" style="fill: none; stroke: #ffffff; stroke-width: 0.8; stroke-linecap: round"/>
     </g>
     <g id="text_6">
      <!-- 2.0 -->
      <g style="fill: #262626" transform="translate(360.768411 321.741812) scale(0.1 -0.1)">
       <use xlink:href="#ArialMT-32"/>
       <use xlink:href="#ArialMT-2e" x="55.615234"/>
       <use xlink:href="#ArialMT-30" x="83.398438"/>
      </g>
     </g>
    </g>
    <g id="text_7">
     <!-- Particle diameter -->
     <g style="fill: #262626" transform="translate(198.6475 334.887125) scale(0.1 -0.1)">
      <defs>
       <path id="ArialMT-50" d="M 494 0 
L 494 4581 
L 2222 4581 
Q 2678 4581 2919 4538 
Q 3256 4481 3484 4323 
Q 3713 4166 3852 3881 
Q 3991 3597 3991 3256 
Q 3991 2672 3619 2267 
Q 3247 1863 2275 1863 
L 1100 1863 
L 1100 0 
L 494 0 
z
M 1100 2403 
L 2284 2403 
Q 2872 2403 3119 2622 
Q 3366 2841 3366 3238 
Q 3366 3525 3220 3729 
Q 3075 3934 2838 4000 
Q 2684 4041 2272 4041 
L 1100 4041 
L 1100 2403 
z
" transform="scale(0.015625)"/>
       <path id="ArialMT-61" d="M 2588 409 
Q 2275 144 1986 34 
Q 1697 -75 1366 -75 
Q 819 -75 525 192 
Q 231 459 231 875 
Q 231 1119 342 1320 
Q 453 1522 633 1644 
Q 813 1766 1038 1828 
Q 1203 1872 1538 1913 
Q 2219 1994 2541 2106 
Q 2544 2222 2544 2253 
Q 2544 2597 2384 2738 
Q 2169 2928 1744 2928 
Q 1347 2928 1158 2789 
Q 969 2650 878 2297 
L 328 2372 
Q 403 2725 575 2942 
Q 747 3159 1072 3276 
Q 1397 3394 1825 3394 
Q 2250 3394 2515 3294 
Q 2781 3194 2906 3042 
Q 3031 2891 3081 2659 
Q 3109 2516 3109 2141 
L 3109 1391 
Q 3109 606 3145 398 
Q 3181 191 3288 0 
L 2700 0 
Q 2613 175 2588 409 
z
M 2541 1666 
Q 2234 1541 1622 1453 
Q 1275 1403 1131 1340 
Q 988 1278 909 1158 
Q 831 1038 831 891 
Q 831 666 1001 516 
Q 1172 366 1500 366 
Q 1825 366 2078 508 
Q 2331 650 2450 897 
Q 2541 1088 2541 1459 
L 2541 1666 
z
" transform="scale(0.015625)"/>
       <path id="ArialMT-72" d="M 416 0 
L 416 3319 
L 922 3319 
L 922 2816 
Q 1116 3169 1280 3281 
Q 1444 3394 1641 3394 
Q 1925 3394 2219 3213 
L 2025 2691 
Q 1819 2813 1613 2813 
Q 1428 2813 1281 2702 
Q 1134 2591 1072 2394 
Q 978 2094 978 1738 
L 978 0 
L 416 0 
z
" transform="scale(0.015625)"/>
       <path id="ArialMT-74" d="M 1650 503 
L 1731 6 
Q 1494 -44 1306 -44 
Q 1000 -44 831 53 
Q 663 150 594 308 
Q 525 466 525 972 
L 525 2881 
L 113 2881 
L 113 3319 
L 525 3319 
L 525 4141 
L 1084 4478 
L 1084 3319 
L 1650 3319 
L 1650 2881 
L 1084 2881 
L 1084 941 
Q 1084 700 1114 631 
Q 1144 563 1211 522 
Q 1278 481 1403 481 
Q 1497 481 1650 503 
z
" transform="scale(0.015625)"/>
       <path id="ArialMT-69" d="M 425 3934 
L 425 4581 
L 988 4581 
L 988 3934 
L 425 3934 
z
M 425 0 
L 425 3319 
L 988 3319 
L 988 0 
L 425 0 
z
" transform="scale(0.015625)"/>
       <path id="ArialMT-63" d="M 2588 1216 
L 3141 1144 
Q 3050 572 2676 248 
Q 2303 -75 1759 -75 
Q 1078 -75 664 370 
Q 250 816 250 1647 
Q 250 2184 428 2587 
Q 606 2991 970 3192 
Q 1334 3394 1763 3394 
Q 2303 3394 2647 3120 
Q 2991 2847 3088 2344 
L 2541 2259 
Q 2463 2594 2264 2762 
Q 2066 2931 1784 2931 
Q 1359 2931 1093 2626 
Q 828 2322 828 1663 
Q 828 994 1084 691 
Q 1341 388 1753 388 
Q 2084 388 2306 591 
Q 2528 794 2588 1216 
z
" transform="scale(0.015625)"/>
       <path id="ArialMT-6c" d="M 409 0 
L 409 4581 
L 972 4581 
L 972 0 
L 409 0 
z
" transform="scale(0.015625)"/>
       <path id="ArialMT-65" d="M 2694 1069 
L 3275 997 
Q 3138 488 2766 206 
Q 2394 -75 1816 -75 
Q 1088 -75 661 373 
Q 234 822 234 1631 
Q 234 2469 665 2931 
Q 1097 3394 1784 3394 
Q 2450 3394 2872 2941 
Q 3294 2488 3294 1666 
Q 3294 1616 3291 1516 
L 816 1516 
Q 847 969 1125 678 
Q 1403 388 1819 388 
Q 2128 388 2347 550 
Q 2566 713 2694 1069 
z
M 847 1978 
L 2700 1978 
Q 2663 2397 2488 2606 
Q 2219 2931 1791 2931 
Q 1403 2931 1139 2672 
Q 875 2413 847 1978 
z
" transform="scale(0.015625)"/>
       <path id="ArialMT-20" transform="scale(0.015625)"/>
       <path id="ArialMT-64" d="M 2575 0 
L 2575 419 
Q 2259 -75 1647 -75 
Q 1250 -75 917 144 
Q 584 363 401 755 
Q 219 1147 219 1656 
Q 219 2153 384 2558 
Q 550 2963 881 3178 
Q 1213 3394 1622 3394 
Q 1922 3394 2156 3267 
Q 2391 3141 2538 2938 
L 2538 4581 
L 3097 4581 
L 3097 0 
L 2575 0 
z
M 797 1656 
Q 797 1019 1065 703 
Q 1334 388 1700 388 
Q 2069 388 2326 689 
Q 2584 991 2584 1609 
Q 2584 2291 2321 2609 
Q 2059 2928 1675 2928 
Q 1300 2928 1048 2622 
Q 797 2316 797 1656 
z
" transform="scale(0.015625)"/>
       <path id="ArialMT-6d" d="M 422 0 
L 422 3319 
L 925 3319 
L 925 2853 
Q 1081 3097 1340 3245 
Q 1600 3394 1931 3394 
Q 2300 3394 2536 3241 
Q 2772 3088 2869 2813 
Q 3263 3394 3894 3394 
Q 4388 3394 4653 3120 
Q 4919 2847 4919 2278 
L 4919 0 
L 4359 0 
L 4359 2091 
Q 4359 2428 4304 2576 
Q 4250 2725 4106 2815 
Q 3963 2906 3769 2906 
Q 3419 2906 3187 2673 
Q 2956 2441 2956 1928 
L 2956 0 
L 2394 0 
L 2394 2156 
Q 2394 2531 2256 2718 
Q 2119 2906 1806 2906 
Q 1569 2906 1367 2781 
Q 1166 2656 1075 2415 
Q 984 2175 984 1722 
L 984 0 
L 422 0 
z
" transform="scale(0.015625)"/>
      </defs>
      <use xlink:href="#ArialMT-50"/>
      <use xlink:href="#ArialMT-61" x="66.699219"/>
      <use xlink:href="#ArialMT-72" x="122.314453"/>
      <use xlink:href="#ArialMT-74" x="155.615234"/>
      <use xlink:href="#ArialMT-69" x="183.398438"/>
      <use xlink:href="#ArialMT-63" x="205.615234"/>
      <use xlink:href="#ArialMT-6c" x="255.615234"/>
      <use xlink:href="#ArialMT-65" x="277.832031"/>
      <use xlink:href="#ArialMT-20" x="333.447266"/>
      <use xlink:href="#ArialMT-64" x="361.230469"/>
      <use xlink:href="#ArialMT-69" x="416.845703"/>
      <use xlink:href="#ArialMT-61" x="439.0625"/>
      <use xlink:href="#ArialMT-6d" x="494.677734"/>
      <use xlink:href="#ArialMT-65" x="577.978516"/>
      <use xlink:href="#ArialMT-74" x="633.59375"/>
      <use xlink:href="#ArialMT-65" x="661.376953"/>
      <use xlink:href="#ArialMT-72" x="716.992188"/>
     </g>
    </g>
    <g id="text_8">
     <!-- 1e−6 -->
     <g style="fill: #262626" transform="translate(392.196563 333.887125) scale(0.1 -0.1)">
      <defs>
       <path id="ArialMT-2212" d="M 3381 1997 
L 356 1997 
L 356 2522 
L 3381 2522 
L 3381 1997 
z
" transform="scale(0.015625)"/>
      </defs>
      <use xlink:href="#ArialMT-31"/>
      <use xlink:href="#ArialMT-65" x="55.615234"/>
      <use xlink:href="#ArialMT-2212" x="111.230469"/>
      <use xlink:href="#ArialMT-36" x="169.628906"/>
     </g>
    </g>
   </g>
   <g id="matplotlib.axis_2">
    <g id="ytick_1">
     <g id="line2d_7">
      <path d="M 57.6 307.584 
L 414.72 307.584 
" clip-path="url(#pcf6674ff14)" style="fill: none; stroke: #ffffff; stroke-width: 0.8; stroke-linecap: round"/>
     </g>
     <g id="text_9">
      <!-- 0 -->
      <g style="fill: #262626" transform="translate(45.039062 311.162906) scale(0.1 -0.1)">
       <use xlink:href="#ArialMT-30"/>
      </g>
     </g>
    </g>
    <g id="ytick_2">
     <g id="line2d_8">
      <path d="M 57.6 272.432821 
L 414.72 272.432821 
" clip-path="url(#pcf6674ff14)" style="fill: none; stroke: #ffffff; stroke-width: 0.8; stroke-linecap: round"/>
     </g>
     <g id="text_10">
      <!-- 100 -->
      <g style="fill: #262626" transform="translate(33.917187 276.011727) scale(0.1 -0.1)">
       <use xlink:href="#ArialMT-31"/>
       <use xlink:href="#ArialMT-30" x="55.615234"/>
       <use xlink:href="#ArialMT-30" x="111.230469"/>
      </g>
     </g>
    </g>
    <g id="ytick_3">
     <g id="line2d_9">
      <path d="M 57.6 237.281642 
L 414.72 237.281642 
" clip-path="url(#pcf6674ff14)" style="fill: none; stroke: #ffffff; stroke-width: 0.8; stroke-linecap: round"/>
     </g>
     <g id="text_11">
      <!-- 200 -->
      <g style="fill: #262626" transform="translate(33.917187 240.860548) scale(0.1 -0.1)">
       <use xlink:href="#ArialMT-32"/>
       <use xlink:href="#ArialMT-30" x="55.615234"/>
       <use xlink:href="#ArialMT-30" x="111.230469"/>
      </g>
     </g>
    </g>
    <g id="ytick_4">
     <g id="line2d_10">
      <path d="M 57.6 202.130463 
L 414.72 202.130463 
" clip-path="url(#pcf6674ff14)" style="fill: none; stroke: #ffffff; stroke-width: 0.8; stroke-linecap: round"/>
     </g>
     <g id="text_12">
      <!-- 300 -->
      <g style="fill: #262626" transform="translate(33.917187 205.709369) scale(0.1 -0.1)">
       <defs>
        <path id="ArialMT-33" d="M 269 1209 
L 831 1284 
Q 928 806 1161 595 
Q 1394 384 1728 384 
Q 2125 384 2398 659 
Q 2672 934 2672 1341 
Q 2672 1728 2419 1979 
Q 2166 2231 1775 2231 
Q 1616 2231 1378 2169 
L 1441 2663 
Q 1497 2656 1531 2656 
Q 1891 2656 2178 2843 
Q 2466 3031 2466 3422 
Q 2466 3731 2256 3934 
Q 2047 4138 1716 4138 
Q 1388 4138 1169 3931 
Q 950 3725 888 3313 
L 325 3413 
Q 428 3978 793 4289 
Q 1159 4600 1703 4600 
Q 2078 4600 2393 4439 
Q 2709 4278 2876 4000 
Q 3044 3722 3044 3409 
Q 3044 3113 2884 2869 
Q 2725 2625 2413 2481 
Q 2819 2388 3044 2092 
Q 3269 1797 3269 1353 
Q 3269 753 2831 336 
Q 2394 -81 1725 -81 
Q 1122 -81 723 278 
Q 325 638 269 1209 
z
" transform="scale(0.015625)"/>
       </defs>
       <use xlink:href="#ArialMT-33"/>
       <use xlink:href="#ArialMT-30" x="55.615234"/>
       <use xlink:href="#ArialMT-30" x="111.230469"/>
      </g>
     </g>
    </g>
    <g id="ytick_5">
     <g id="line2d_11">
      <path d="M 57.6 166.979284 
L 414.72 166.979284 
" clip-path="url(#pcf6674ff14)" style="fill: none; stroke: #ffffff; stroke-width: 0.8; stroke-linecap: round"/>
     </g>
     <g id="text_13">
      <!-- 400 -->
      <g style="fill: #262626" transform="translate(33.917187 170.558191) scale(0.1 -0.1)">
       <use xlink:href="#ArialMT-34"/>
       <use xlink:href="#ArialMT-30" x="55.615234"/>
       <use xlink:href="#ArialMT-30" x="111.230469"/>
      </g>
     </g>
    </g>
    <g id="ytick_6">
     <g id="line2d_12">
      <path d="M 57.6 131.828105 
L 414.72 131.828105 
" clip-path="url(#pcf6674ff14)" style="fill: none; stroke: #ffffff; stroke-width: 0.8; stroke-linecap: round"/>
     </g>
     <g id="text_14">
      <!-- 500 -->
      <g style="fill: #262626" transform="translate(33.917187 135.407012) scale(0.1 -0.1)">
       <defs>
        <path id="ArialMT-35" d="M 266 1200 
L 856 1250 
Q 922 819 1161 601 
Q 1400 384 1738 384 
Q 2144 384 2425 690 
Q 2706 997 2706 1503 
Q 2706 1984 2436 2262 
Q 2166 2541 1728 2541 
Q 1456 2541 1237 2417 
Q 1019 2294 894 2097 
L 366 2166 
L 809 4519 
L 3088 4519 
L 3088 3981 
L 1259 3981 
L 1013 2750 
Q 1425 3038 1878 3038 
Q 2478 3038 2890 2622 
Q 3303 2206 3303 1553 
Q 3303 931 2941 478 
Q 2500 -78 1738 -78 
Q 1113 -78 717 272 
Q 322 622 266 1200 
z
" transform="scale(0.015625)"/>
       </defs>
       <use xlink:href="#ArialMT-35"/>
       <use xlink:href="#ArialMT-30" x="55.615234"/>
       <use xlink:href="#ArialMT-30" x="111.230469"/>
      </g>
     </g>
    </g>
    <g id="ytick_7">
     <g id="line2d_13">
      <path d="M 57.6 96.676926 
L 414.72 96.676926 
" clip-path="url(#pcf6674ff14)" style="fill: none; stroke: #ffffff; stroke-width: 0.8; stroke-linecap: round"/>
     </g>
     <g id="text_15">
      <!-- 600 -->
      <g style="fill: #262626" transform="translate(33.917187 100.255833) scale(0.1 -0.1)">
       <use xlink:href="#ArialMT-36"/>
       <use xlink:href="#ArialMT-30" x="55.615234"/>
       <use xlink:href="#ArialMT-30" x="111.230469"/>
      </g>
     </g>
    </g>
    <g id="ytick_8">
     <g id="line2d_14">
      <path d="M 57.6 61.525748 
L 414.72 61.525748 
" clip-path="url(#pcf6674ff14)" style="fill: none; stroke: #ffffff; stroke-width: 0.8; stroke-linecap: round"/>
     </g>
     <g id="text_16">
      <!-- 700 -->
      <g style="fill: #262626" transform="translate(33.917187 65.104654) scale(0.1 -0.1)">
       <defs>
        <path id="ArialMT-37" d="M 303 3981 
L 303 4522 
L 3269 4522 
L 3269 4084 
Q 2831 3619 2401 2847 
Q 1972 2075 1738 1259 
Q 1569 684 1522 0 
L 944 0 
Q 953 541 1156 1306 
Q 1359 2072 1739 2783 
Q 2119 3494 2547 3981 
L 303 3981 
z
" transform="scale(0.015625)"/>
       </defs>
       <use xlink:href="#ArialMT-37"/>
       <use xlink:href="#ArialMT-30" x="55.615234"/>
       <use xlink:href="#ArialMT-30" x="111.230469"/>
      </g>
     </g>
    </g>
    <g id="text_17">
     <!-- Count -->
     <g style="fill: #262626" transform="translate(27.929687 187.869406) rotate(-90) scale(0.1 -0.1)">
      <defs>
       <path id="ArialMT-43" d="M 3763 1606 
L 4369 1453 
Q 4178 706 3683 314 
Q 3188 -78 2472 -78 
Q 1731 -78 1267 223 
Q 803 525 561 1097 
Q 319 1669 319 2325 
Q 319 3041 592 3573 
Q 866 4106 1370 4382 
Q 1875 4659 2481 4659 
Q 3169 4659 3637 4309 
Q 4106 3959 4291 3325 
L 3694 3184 
Q 3534 3684 3231 3912 
Q 2928 4141 2469 4141 
Q 1941 4141 1586 3887 
Q 1231 3634 1087 3207 
Q 944 2781 944 2328 
Q 944 1744 1114 1308 
Q 1284 872 1643 656 
Q 2003 441 2422 441 
Q 2931 441 3284 734 
Q 3638 1028 3763 1606 
z
" transform="scale(0.015625)"/>
       <path id="ArialMT-6f" d="M 213 1659 
Q 213 2581 725 3025 
Q 1153 3394 1769 3394 
Q 2453 3394 2887 2945 
Q 3322 2497 3322 1706 
Q 3322 1066 3130 698 
Q 2938 331 2570 128 
Q 2203 -75 1769 -75 
Q 1072 -75 642 372 
Q 213 819 213 1659 
z
M 791 1659 
Q 791 1022 1069 705 
Q 1347 388 1769 388 
Q 2188 388 2466 706 
Q 2744 1025 2744 1678 
Q 2744 2294 2464 2611 
Q 2184 2928 1769 2928 
Q 1347 2928 1069 2612 
Q 791 2297 791 1659 
z
" transform="scale(0.015625)"/>
       <path id="ArialMT-75" d="M 2597 0 
L 2597 488 
Q 2209 -75 1544 -75 
Q 1250 -75 995 37 
Q 741 150 617 320 
Q 494 491 444 738 
Q 409 903 409 1263 
L 409 3319 
L 972 3319 
L 972 1478 
Q 972 1038 1006 884 
Q 1059 663 1231 536 
Q 1403 409 1656 409 
Q 1909 409 2131 539 
Q 2353 669 2445 892 
Q 2538 1116 2538 1541 
L 2538 3319 
L 3100 3319 
L 3100 0 
L 2597 0 
z
" transform="scale(0.015625)"/>
       <path id="ArialMT-6e" d="M 422 0 
L 422 3319 
L 928 3319 
L 928 2847 
Q 1294 3394 1984 3394 
Q 2284 3394 2536 3286 
Q 2788 3178 2913 3003 
Q 3038 2828 3088 2588 
Q 3119 2431 3119 2041 
L 3119 0 
L 2556 0 
L 2556 2019 
Q 2556 2363 2490 2533 
Q 2425 2703 2258 2804 
Q 2091 2906 1866 2906 
Q 1506 2906 1245 2678 
Q 984 2450 984 1813 
L 984 0 
L 422 0 
z
" transform="scale(0.015625)"/>
      </defs>
      <use xlink:href="#ArialMT-43"/>
      <use xlink:href="#ArialMT-6f" x="72.216797"/>
      <use xlink:href="#ArialMT-75" x="127.832031"/>
      <use xlink:href="#ArialMT-6e" x="183.447266"/>
      <use xlink:href="#ArialMT-74" x="239.0625"/>
     </g>
    </g>
   </g>
   <g id="patch_3">
    <path d="M 113.317041 307.584 
L 121.177134 307.584 
L 121.177134 306.880976 
L 113.317041 306.880976 
z
" clip-path="url(#pcf6674ff14)" style="fill: #1f77b4; fill-opacity: 0.5; stroke: #ffffff; stroke-width: 0.983802; stroke-linejoin: miter"/>
   </g>
   <g id="patch_4">
    <path d="M 121.177134 307.584 
L 129.037226 307.584 
L 129.037226 307.232488 
L 121.177134 307.232488 
z
" clip-path="url(#pcf6674ff14)" style="fill: #1f77b4; fill-opacity: 0.5; stroke: #ffffff; stroke-width: 0.983802; stroke-linejoin: miter"/>
   </g>
   <g id="patch_5">
    <path d="M 129.037226 307.584 
L 136.897318 307.584 
L 136.897318 305.826441 
L 129.037226 305.826441 
z
" clip-path="url(#pcf6674ff14)" style="fill: #1f77b4; fill-opacity: 0.5; stroke: #ffffff; stroke-width: 0.983802; stroke-linejoin: miter"/>
   </g>
   <g id="patch_6">
    <path d="M 136.897318 307.584 
L 144.757411 307.584 
L 144.757411 306.529465 
L 136.897318 306.529465 
z
" clip-path="url(#pcf6674ff14)" style="fill: #1f77b4; fill-opacity: 0.5; stroke: #ffffff; stroke-width: 0.983802; stroke-linejoin: miter"/>
   </g>
   <g id="patch_7">
    <path d="M 144.757411 307.584 
L 152.617503 307.584 
L 152.617503 304.771906 
L 144.757411 304.771906 
z
" clip-path="url(#pcf6674ff14)" style="fill: #1f77b4; fill-opacity: 0.5; stroke: #ffffff; stroke-width: 0.983802; stroke-linejoin: miter"/>
   </g>
   <g id="patch_8">
    <path d="M 152.617503 307.584 
L 160.477595 307.584 
L 160.477595 304.420394 
L 152.617503 304.420394 
z
" clip-path="url(#pcf6674ff14)" style="fill: #1f77b4; fill-opacity: 0.5; stroke: #ffffff; stroke-width: 0.983802; stroke-linejoin: miter"/>
   </g>
   <g id="patch_9">
    <path d="M 160.477595 307.584 
L 168.337687 307.584 
L 168.337687 301.6083 
L 160.477595 301.6083 
z
" clip-path="url(#pcf6674ff14)" style="fill: #1f77b4; fill-opacity: 0.5; stroke: #ffffff; stroke-width: 0.983802; stroke-linejoin: miter"/>
   </g>
   <g id="patch_10">
    <path d="M 168.337687 307.584 
L 176.19778 307.584 
L 176.19778 303.365859 
L 168.337687 303.365859 
z
" clip-path="url(#pcf6674ff14)" style="fill: #1f77b4; fill-opacity: 0.5; stroke: #ffffff; stroke-width: 0.983802; stroke-linejoin: miter"/>
   </g>
   <g id="patch_11">
    <path d="M 176.19778 307.584 
L 184.057872 307.584 
L 184.057872 296.687135 
L 176.19778 296.687135 
z
" clip-path="url(#pcf6674ff14)" style="fill: #1f77b4; fill-opacity: 0.5; stroke: #ffffff; stroke-width: 0.983802; stroke-linejoin: miter"/>
   </g>
   <g id="patch_12">
    <path d="M 184.057872 307.584 
L 191.917964 307.584 
L 191.917964 297.038646 
L 184.057872 297.038646 
z
" clip-path="url(#pcf6674ff14)" style="fill: #1f77b4; fill-opacity: 0.5; stroke: #ffffff; stroke-width: 0.983802; stroke-linejoin: miter"/>
   </g>
   <g id="patch_13">
    <path d="M 191.917964 307.584 
L 199.778056 307.584 
L 199.778056 292.820505 
L 191.917964 292.820505 
z
" clip-path="url(#pcf6674ff14)" style="fill: #1f77b4; fill-opacity: 0.5; stroke: #ffffff; stroke-width: 0.983802; stroke-linejoin: miter"/>
   </g>
   <g id="patch_14">
    <path d="M 199.778056 307.584 
L 207.638149 307.584 
L 207.638149 282.978175 
L 199.778056 282.978175 
z
" clip-path="url(#pcf6674ff14)" style="fill: #1f77b4; fill-opacity: 0.5; stroke: #ffffff; stroke-width: 0.983802; stroke-linejoin: miter"/>
   </g>
   <g id="patch_15">
    <path d="M 207.638149 307.584 
L 215.498241 307.584 
L 215.498241 280.517592 
L 207.638149 280.517592 
z
" clip-path="url(#pcf6674ff14)" style="fill: #1f77b4; fill-opacity: 0.5; stroke: #ffffff; stroke-width: 0.983802; stroke-linejoin: miter"/>
   </g>
   <g id="patch_16">
    <path d="M 215.498241 307.584 
L 223.358333 307.584 
L 223.358333 285.790269 
L 215.498241 285.790269 
z
" clip-path="url(#pcf6674ff14)" style="fill: #1f77b4; fill-opacity: 0.5; stroke: #ffffff; stroke-width: 0.983802; stroke-linejoin: miter"/>
   </g>
   <g id="patch_17">
    <path d="M 223.358333 307.584 
L 231.218425 307.584 
L 231.218425 265.402585 
L 223.358333 265.402585 
z
" clip-path="url(#pcf6674ff14)" style="fill: #1f77b4; fill-opacity: 0.5; stroke: #ffffff; stroke-width: 0.983802; stroke-linejoin: miter"/>
   </g>
   <g id="patch_18">
    <path d="M 231.218425 307.584 
L 239.078518 307.584 
L 239.078518 256.614791 
L 231.218425 256.614791 
z
" clip-path="url(#pcf6674ff14)" style="fill: #1f77b4; fill-opacity: 0.5; stroke: #ffffff; stroke-width: 0.983802; stroke-linejoin: miter"/>
   </g>
   <g id="patch_19">
    <path d="M 239.078518 307.584 
L 246.93861 307.584 
L 246.93861 260.129908 
L 239.078518 260.129908 
z
" clip-path="url(#pcf6674ff14)" style="fill: #1f77b4; fill-opacity: 0.5; stroke: #ffffff; stroke-width: 0.983802; stroke-linejoin: miter"/>
   </g>
   <g id="patch_20">
    <path d="M 246.93861 307.584 
L 254.798702 307.584 
L 254.798702 260.48142 
L 246.93861 260.48142 
z
" clip-path="url(#pcf6674ff14)" style="fill: #1f77b4; fill-opacity: 0.5; stroke: #ffffff; stroke-width: 0.983802; stroke-linejoin: miter"/>
   </g>
   <g id="patch_21">
    <path d="M 254.798702 307.584 
L 262.658794 307.584 
L 262.658794 233.415012 
L 254.798702 233.415012 
z
" clip-path="url(#pcf6674ff14)" style="fill: #1f77b4; fill-opacity: 0.5; stroke: #ffffff; stroke-width: 0.983802; stroke-linejoin: miter"/>
   </g>
   <g id="patch_22">
    <path d="M 262.658794 307.584 
L 270.518887 307.584 
L 270.518887 224.97873 
L 262.658794 224.97873 
z
" clip-path="url(#pcf6674ff14)" style="fill: #1f77b4; fill-opacity: 0.5; stroke: #ffffff; stroke-width: 0.983802; stroke-linejoin: miter"/>
   </g>
   <g id="patch_23">
    <path d="M 270.518887 307.584 
L 278.378979 307.584 
L 278.378979 217.596982 
L 270.518887 217.596982 
z
" clip-path="url(#pcf6674ff14)" style="fill: #1f77b4; fill-opacity: 0.5; stroke: #ffffff; stroke-width: 0.983802; stroke-linejoin: miter"/>
   </g>
   <g id="patch_24">
    <path d="M 278.378979 307.584 
L 286.239071 307.584 
L 286.239071 211.26977 
L 278.378979 211.26977 
z
" clip-path="url(#pcf6674ff14)" style="fill: #1f77b4; fill-opacity: 0.5; stroke: #ffffff; stroke-width: 0.983802; stroke-linejoin: miter"/>
   </g>
   <g id="patch_25">
    <path d="M 286.239071 307.584 
L 294.099163 307.584 
L 294.099163 257.669326 
L 286.239071 257.669326 
z
" clip-path="url(#pcf6674ff14)" style="fill: #1f77b4; fill-opacity: 0.5; stroke: #ffffff; stroke-width: 0.983802; stroke-linejoin: miter"/>
   </g>
   <g id="patch_26">
    <path d="M 294.099163 307.584 
L 301.959256 307.584 
L 301.959256 205.645581 
L 294.099163 205.645581 
z
" clip-path="url(#pcf6674ff14)" style="fill: #1f77b4; fill-opacity: 0.5; stroke: #ffffff; stroke-width: 0.983802; stroke-linejoin: miter"/>
   </g>
   <g id="patch_27">
    <path d="M 301.959256 307.584 
L 309.819348 307.584 
L 309.819348 202.833487 
L 301.959256 202.833487 
z
" clip-path="url(#pcf6674ff14)" style="fill: #1f77b4; fill-opacity: 0.5; stroke: #ffffff; stroke-width: 0.983802; stroke-linejoin: miter"/>
   </g>
   <g id="patch_28">
    <path d="M 309.819348 307.584 
L 317.67944 307.584 
L 317.67944 204.591046 
L 309.819348 204.591046 
z
" clip-path="url(#pcf6674ff14)" style="fill: #1f77b4; fill-opacity: 0.5; stroke: #ffffff; stroke-width: 0.983802; stroke-linejoin: miter"/>
   </g>
   <g id="patch_29">
    <path d="M 317.67944 307.584 
L 325.539532 307.584 
L 325.539532 208.809187 
L 317.67944 208.809187 
z
" clip-path="url(#pcf6674ff14)" style="fill: #1f77b4; fill-opacity: 0.5; stroke: #ffffff; stroke-width: 0.983802; stroke-linejoin: miter"/>
   </g>
   <g id="patch_30">
    <path d="M 325.539532 307.584 
L 333.399625 307.584 
L 333.399625 215.839423 
L 325.539532 215.839423 
z
" clip-path="url(#pcf6674ff14)" style="fill: #1f77b4; fill-opacity: 0.5; stroke: #ffffff; stroke-width: 0.983802; stroke-linejoin: miter"/>
   </g>
   <g id="patch_31">
    <path d="M 333.399625 307.584 
L 341.259717 307.584 
L 341.259717 226.736288 
L 333.399625 226.736288 
z
" clip-path="url(#pcf6674ff14)" style="fill: #1f77b4; fill-opacity: 0.5; stroke: #ffffff; stroke-width: 0.983802; stroke-linejoin: miter"/>
   </g>
   <g id="patch_32">
    <path d="M 341.259717 307.584 
L 349.119809 307.584 
L 349.119809 239.039201 
L 341.259717 239.039201 
z
" clip-path="url(#pcf6674ff14)" style="fill: #1f77b4; fill-opacity: 0.5; stroke: #ffffff; stroke-width: 0.983802; stroke-linejoin: miter"/>
   </g>
   <g id="patch_33">
    <path d="M 349.119809 307.584 
L 356.979902 307.584 
L 356.979902 246.069437 
L 349.119809 246.069437 
z
" clip-path="url(#pcf6674ff14)" style="fill: #1f77b4; fill-opacity: 0.5; stroke: #ffffff; stroke-width: 0.983802; stroke-linejoin: miter"/>
   </g>
   <g id="patch_34">
    <path d="M 356.979902 307.584 
L 364.839994 307.584 
L 364.839994 252.748161 
L 356.979902 252.748161 
z
" clip-path="url(#pcf6674ff14)" style="fill: #1f77b4; fill-opacity: 0.5; stroke: #ffffff; stroke-width: 0.983802; stroke-linejoin: miter"/>
   </g>
   <g id="patch_35">
    <path d="M 364.839994 307.584 
L 372.700086 307.584 
L 372.700086 241.148272 
L 364.839994 241.148272 
z
" clip-path="url(#pcf6674ff14)" style="fill: #1f77b4; fill-opacity: 0.5; stroke: #ffffff; stroke-width: 0.983802; stroke-linejoin: miter"/>
   </g>
   <g id="patch_36">
    <path d="M 73.832727 307.584 
L 78.905455 307.584 
L 78.905455 307.232488 
L 73.832727 307.232488 
z
" clip-path="url(#pcf6674ff14)" style="fill: #ff7f0e; fill-opacity: 0.5; stroke: #ffffff; stroke-width: 0.507273; stroke-linejoin: miter"/>
   </g>
   <g id="patch_37">
    <path d="M 78.905455 307.584 
L 83.978182 307.584 
L 83.978182 307.232488 
L 78.905455 307.232488 
z
" clip-path="url(#pcf6674ff14)" style="fill: #ff7f0e; fill-opacity: 0.5; stroke: #ffffff; stroke-width: 0.507273; stroke-linejoin: miter"/>
   </g>
   <g id="patch_38">
    <path d="M 83.978182 307.584 
L 89.050909 307.584 
L 89.050909 306.880976 
L 83.978182 306.880976 
z
" clip-path="url(#pcf6674ff14)" style="fill: #ff7f0e; fill-opacity: 0.5; stroke: #ffffff; stroke-width: 0.507273; stroke-linejoin: miter"/>
   </g>
   <g id="patch_39">
    <path d="M 89.050909 307.584 
L 94.123636 307.584 
L 94.123636 306.177953 
L 89.050909 306.177953 
z
" clip-path="url(#pcf6674ff14)" style="fill: #ff7f0e; fill-opacity: 0.5; stroke: #ffffff; stroke-width: 0.507273; stroke-linejoin: miter"/>
   </g>
   <g id="patch_40">
    <path d="M 94.123636 307.584 
L 99.196364 307.584 
L 99.196364 306.529465 
L 94.123636 306.529465 
z
" clip-path="url(#pcf6674ff14)" style="fill: #ff7f0e; fill-opacity: 0.5; stroke: #ffffff; stroke-width: 0.507273; stroke-linejoin: miter"/>
   </g>
   <g id="patch_41">
    <path d="M 99.196364 307.584 
L 104.269091 307.584 
L 104.269091 306.177953 
L 99.196364 306.177953 
z
" clip-path="url(#pcf6674ff14)" style="fill: #ff7f0e; fill-opacity: 0.5; stroke: #ffffff; stroke-width: 0.507273; stroke-linejoin: miter"/>
   </g>
   <g id="patch_42">
    <path d="M 104.269091 307.584 
L 109.341818 307.584 
L 109.341818 306.529465 
L 104.269091 306.529465 
z
" clip-path="url(#pcf6674ff14)" style="fill: #ff7f0e; fill-opacity: 0.5; stroke: #ffffff; stroke-width: 0.507273; stroke-linejoin: miter"/>
   </g>
   <g id="patch_43">
    <path d="M 109.341818 307.584 
L 114.414545 307.584 
L 114.414545 305.826441 
L 109.341818 305.826441 
z
" clip-path="url(#pcf6674ff14)" style="fill: #ff7f0e; fill-opacity: 0.5; stroke: #ffffff; stroke-width: 0.507273; stroke-linejoin: miter"/>
   </g>
   <g id="patch_44">
    <path d="M 114.414545 307.584 
L 119.487273 307.584 
L 119.487273 305.474929 
L 114.414545 305.474929 
z
" clip-path="url(#pcf6674ff14)" style="fill: #ff7f0e; fill-opacity: 0.5; stroke: #ffffff; stroke-width: 0.507273; stroke-linejoin: miter"/>
   </g>
   <g id="patch_45">
    <path d="M 119.487273 307.584 
L 124.56 307.584 
L 124.56 306.177953 
L 119.487273 306.177953 
z
" clip-path="url(#pcf6674ff14)" style="fill: #ff7f0e; fill-opacity: 0.5; stroke: #ffffff; stroke-width: 0.507273; stroke-linejoin: miter"/>
   </g>
   <g id="patch_46">
    <path d="M 124.56 307.584 
L 129.632727 307.584 
L 129.632727 304.420394 
L 124.56 304.420394 
z
" clip-path="url(#pcf6674ff14)" style="fill: #ff7f0e; fill-opacity: 0.5; stroke: #ffffff; stroke-width: 0.507273; stroke-linejoin: miter"/>
   </g>
   <g id="patch_47">
    <path d="M 129.632727 307.584 
L 134.705455 307.584 
L 134.705455 303.71737 
L 129.632727 303.71737 
z
" clip-path="url(#pcf6674ff14)" style="fill: #ff7f0e; fill-opacity: 0.5; stroke: #ffffff; stroke-width: 0.507273; stroke-linejoin: miter"/>
   </g>
   <g id="patch_48">
    <path d="M 134.705455 307.584 
L 139.778182 307.584 
L 139.778182 298.444693 
L 134.705455 298.444693 
z
" clip-path="url(#pcf6674ff14)" style="fill: #ff7f0e; fill-opacity: 0.5; stroke: #ffffff; stroke-width: 0.507273; stroke-linejoin: miter"/>
   </g>
   <g id="patch_49">
    <path d="M 139.778182 307.584 
L 144.850909 307.584 
L 144.850909 300.905276 
L 139.778182 300.905276 
z
" clip-path="url(#pcf6674ff14)" style="fill: #ff7f0e; fill-opacity: 0.5; stroke: #ffffff; stroke-width: 0.507273; stroke-linejoin: miter"/>
   </g>
   <g id="patch_50">
    <path d="M 144.850909 307.584 
L 149.923636 307.584 
L 149.923636 298.796205 
L 144.850909 298.796205 
z
" clip-path="url(#pcf6674ff14)" style="fill: #ff7f0e; fill-opacity: 0.5; stroke: #ffffff; stroke-width: 0.507273; stroke-linejoin: miter"/>
   </g>
   <g id="patch_51">
    <path d="M 149.923636 307.584 
L 154.996364 307.584 
L 154.996364 298.444693 
L 149.923636 298.444693 
z
" clip-path="url(#pcf6674ff14)" style="fill: #ff7f0e; fill-opacity: 0.5; stroke: #ffffff; stroke-width: 0.507273; stroke-linejoin: miter"/>
   </g>
   <g id="patch_52">
    <path d="M 154.996364 307.584 
L 160.069091 307.584 
L 160.069091 294.578064 
L 154.996364 294.578064 
z
" clip-path="url(#pcf6674ff14)" style="fill: #ff7f0e; fill-opacity: 0.5; stroke: #ffffff; stroke-width: 0.507273; stroke-linejoin: miter"/>
   </g>
   <g id="patch_53">
    <path d="M 160.069091 307.584 
L 165.141818 307.584 
L 165.141818 296.687135 
L 160.069091 296.687135 
z
" clip-path="url(#pcf6674ff14)" style="fill: #ff7f0e; fill-opacity: 0.5; stroke: #ffffff; stroke-width: 0.507273; stroke-linejoin: miter"/>
   </g>
   <g id="patch_54">
    <path d="M 165.141818 307.584 
L 170.214545 307.584 
L 170.214545 299.499229 
L 165.141818 299.499229 
z
" clip-path="url(#pcf6674ff14)" style="fill: #ff7f0e; fill-opacity: 0.5; stroke: #ffffff; stroke-width: 0.507273; stroke-linejoin: miter"/>
   </g>
   <g id="patch_55">
    <path d="M 170.214545 307.584 
L 175.287273 307.584 
L 175.287273 291.414458 
L 170.214545 291.414458 
z
" clip-path="url(#pcf6674ff14)" style="fill: #ff7f0e; fill-opacity: 0.5; stroke: #ffffff; stroke-width: 0.507273; stroke-linejoin: miter"/>
   </g>
   <g id="patch_56">
    <path d="M 175.287273 307.584 
L 180.36 307.584 
L 180.36 287.196316 
L 175.287273 287.196316 
z
" clip-path="url(#pcf6674ff14)" style="fill: #ff7f0e; fill-opacity: 0.5; stroke: #ffffff; stroke-width: 0.507273; stroke-linejoin: miter"/>
   </g>
   <g id="patch_57">
    <path d="M 180.36 307.584 
L 185.432727 307.584 
L 185.432727 288.602363 
L 180.36 288.602363 
z
" clip-path="url(#pcf6674ff14)" style="fill: #ff7f0e; fill-opacity: 0.5; stroke: #ffffff; stroke-width: 0.507273; stroke-linejoin: miter"/>
   </g>
   <g id="patch_58">
    <path d="M 185.432727 307.584 
L 190.505455 307.584 
L 190.505455 281.220616 
L 185.432727 281.220616 
z
" clip-path="url(#pcf6674ff14)" style="fill: #ff7f0e; fill-opacity: 0.5; stroke: #ffffff; stroke-width: 0.507273; stroke-linejoin: miter"/>
   </g>
   <g id="patch_59">
    <path d="M 190.505455 307.584 
L 195.578182 307.584 
L 195.578182 273.487356 
L 190.505455 273.487356 
z
" clip-path="url(#pcf6674ff14)" style="fill: #ff7f0e; fill-opacity: 0.5; stroke: #ffffff; stroke-width: 0.507273; stroke-linejoin: miter"/>
   </g>
   <g id="patch_60">
    <path d="M 195.578182 307.584 
L 200.650909 307.584 
L 200.650909 270.32375 
L 195.578182 270.32375 
z
" clip-path="url(#pcf6674ff14)" style="fill: #ff7f0e; fill-opacity: 0.5; stroke: #ffffff; stroke-width: 0.507273; stroke-linejoin: miter"/>
   </g>
   <g id="patch_61">
    <path d="M 200.650909 307.584 
L 205.723636 307.584 
L 205.723636 273.838868 
L 200.650909 273.838868 
z
" clip-path="url(#pcf6674ff14)" style="fill: #ff7f0e; fill-opacity: 0.5; stroke: #ffffff; stroke-width: 0.507273; stroke-linejoin: miter"/>
   </g>
   <g id="patch_62">
    <path d="M 205.723636 307.584 
L 210.796364 307.584 
L 210.796364 258.723861 
L 205.723636 258.723861 
z
" clip-path="url(#pcf6674ff14)" style="fill: #ff7f0e; fill-opacity: 0.5; stroke: #ffffff; stroke-width: 0.507273; stroke-linejoin: miter"/>
   </g>
   <g id="patch_63">
    <path d="M 210.796364 307.584 
L 215.869091 307.584 
L 215.869091 253.099673 
L 210.796364 253.099673 
z
" clip-path="url(#pcf6674ff14)" style="fill: #ff7f0e; fill-opacity: 0.5; stroke: #ffffff; stroke-width: 0.507273; stroke-linejoin: miter"/>
   </g>
   <g id="patch_64">
    <path d="M 215.869091 307.584 
L 220.941818 307.584 
L 220.941818 246.77246 
L 215.869091 246.77246 
z
" clip-path="url(#pcf6674ff14)" style="fill: #ff7f0e; fill-opacity: 0.5; stroke: #ffffff; stroke-width: 0.507273; stroke-linejoin: miter"/>
   </g>
   <g id="patch_65">
    <path d="M 220.941818 307.584 
L 226.014545 307.584 
L 226.014545 243.608854 
L 220.941818 243.608854 
z
" clip-path="url(#pcf6674ff14)" style="fill: #ff7f0e; fill-opacity: 0.5; stroke: #ffffff; stroke-width: 0.507273; stroke-linejoin: miter"/>
   </g>
   <g id="patch_66">
    <path d="M 226.014545 307.584 
L 231.087273 307.584 
L 231.087273 232.711989 
L 226.014545 232.711989 
z
" clip-path="url(#pcf6674ff14)" style="fill: #ff7f0e; fill-opacity: 0.5; stroke: #ffffff; stroke-width: 0.507273; stroke-linejoin: miter"/>
   </g>
   <g id="patch_67">
    <path d="M 231.087273 307.584 
L 236.16 307.584 
L 236.16 225.330241 
L 231.087273 225.330241 
z
" clip-path="url(#pcf6674ff14)" style="fill: #ff7f0e; fill-opacity: 0.5; stroke: #ffffff; stroke-width: 0.507273; stroke-linejoin: miter"/>
   </g>
   <g id="patch_68">
    <path d="M 236.16 307.584 
L 241.232727 307.584 
L 241.232727 211.972793 
L 236.16 211.972793 
z
" clip-path="url(#pcf6674ff14)" style="fill: #ff7f0e; fill-opacity: 0.5; stroke: #ffffff; stroke-width: 0.507273; stroke-linejoin: miter"/>
   </g>
   <g id="patch_69">
    <path d="M 241.232727 307.584 
L 246.305455 307.584 
L 246.305455 204.591046 
L 241.232727 204.591046 
z
" clip-path="url(#pcf6674ff14)" style="fill: #ff7f0e; fill-opacity: 0.5; stroke: #ffffff; stroke-width: 0.507273; stroke-linejoin: miter"/>
   </g>
   <g id="patch_70">
    <path d="M 246.305455 307.584 
L 251.378182 307.584 
L 251.378182 192.288133 
L 246.305455 192.288133 
z
" clip-path="url(#pcf6674ff14)" style="fill: #ff7f0e; fill-opacity: 0.5; stroke: #ffffff; stroke-width: 0.507273; stroke-linejoin: miter"/>
   </g>
   <g id="patch_71">
    <path d="M 251.378182 307.584 
L 256.450909 307.584 
L 256.450909 182.094291 
L 251.378182 182.094291 
z
" clip-path="url(#pcf6674ff14)" style="fill: #ff7f0e; fill-opacity: 0.5; stroke: #ffffff; stroke-width: 0.507273; stroke-linejoin: miter"/>
   </g>
   <g id="patch_72">
    <path d="M 256.450909 307.584 
L 261.523636 307.584 
L 261.523636 157.839978 
L 256.450909 157.839978 
z
" clip-path="url(#pcf6674ff14)" style="fill: #ff7f0e; fill-opacity: 0.5; stroke: #ffffff; stroke-width: 0.507273; stroke-linejoin: miter"/>
   </g>
   <g id="patch_73">
    <path d="M 261.523636 307.584 
L 266.596364 307.584 
L 266.596364 151.161254 
L 261.523636 151.161254 
z
" clip-path="url(#pcf6674ff14)" style="fill: #ff7f0e; fill-opacity: 0.5; stroke: #ffffff; stroke-width: 0.507273; stroke-linejoin: miter"/>
   </g>
   <g id="patch_74">
    <path d="M 266.596364 307.584 
L 271.669091 307.584 
L 271.669091 155.379395 
L 266.596364 155.379395 
z
" clip-path="url(#pcf6674ff14)" style="fill: #ff7f0e; fill-opacity: 0.5; stroke: #ffffff; stroke-width: 0.507273; stroke-linejoin: miter"/>
   </g>
   <g id="patch_75">
    <path d="M 271.669091 307.584 
L 276.741818 307.584 
L 276.741818 135.694735 
L 271.669091 135.694735 
z
" clip-path="url(#pcf6674ff14)" style="fill: #ff7f0e; fill-opacity: 0.5; stroke: #ffffff; stroke-width: 0.507273; stroke-linejoin: miter"/>
   </g>
   <g id="patch_76">
    <path d="M 276.741818 307.584 
L 281.814545 307.584 
L 281.814545 132.882641 
L 276.741818 132.882641 
z
" clip-path="url(#pcf6674ff14)" style="fill: #ff7f0e; fill-opacity: 0.5; stroke: #ffffff; stroke-width: 0.507273; stroke-linejoin: miter"/>
   </g>
   <g id="patch_77">
    <path d="M 281.814545 307.584 
L 286.887273 307.584 
L 286.887273 111.08891 
L 281.814545 111.08891 
z
" clip-path="url(#pcf6674ff14)" style="fill: #ff7f0e; fill-opacity: 0.5; stroke: #ffffff; stroke-width: 0.507273; stroke-linejoin: miter"/>
   </g>
   <g id="patch_78">
    <path d="M 286.887273 307.584 
L 291.96 307.584 
L 291.96 97.37995 
L 286.887273 97.37995 
z
" clip-path="url(#pcf6674ff14)" style="fill: #ff7f0e; fill-opacity: 0.5; stroke: #ffffff; stroke-width: 0.507273; stroke-linejoin: miter"/>
   </g>
   <g id="patch_79">
    <path d="M 291.96 307.584 
L 297.032727 307.584 
L 297.032727 86.483085 
L 291.96 86.483085 
z
" clip-path="url(#pcf6674ff14)" style="fill: #ff7f0e; fill-opacity: 0.5; stroke: #ffffff; stroke-width: 0.507273; stroke-linejoin: miter"/>
   </g>
   <g id="patch_80">
    <path d="M 297.032727 307.584 
L 302.105455 307.584 
L 302.105455 75.937731 
L 297.032727 75.937731 
z
" clip-path="url(#pcf6674ff14)" style="fill: #ff7f0e; fill-opacity: 0.5; stroke: #ffffff; stroke-width: 0.507273; stroke-linejoin: miter"/>
   </g>
   <g id="patch_81">
    <path d="M 302.105455 307.584 
L 307.178182 307.584 
L 307.178182 81.913431 
L 302.105455 81.913431 
z
" clip-path="url(#pcf6674ff14)" style="fill: #ff7f0e; fill-opacity: 0.5; stroke: #ffffff; stroke-width: 0.507273; stroke-linejoin: miter"/>
   </g>
   <g id="patch_82">
    <path d="M 307.178182 307.584 
L 312.250909 307.584 
L 312.250909 59.065165 
L 307.178182 59.065165 
z
" clip-path="url(#pcf6674ff14)" style="fill: #ff7f0e; fill-opacity: 0.5; stroke: #ffffff; stroke-width: 0.507273; stroke-linejoin: miter"/>
   </g>
   <g id="patch_83">
    <path d="M 312.250909 307.584 
L 317.323636 307.584 
L 317.323636 67.149936 
L 312.250909 67.149936 
z
" clip-path="url(#pcf6674ff14)" style="fill: #ff7f0e; fill-opacity: 0.5; stroke: #ffffff; stroke-width: 0.507273; stroke-linejoin: miter"/>
   </g>
   <g id="patch_84">
    <path d="M 317.323636 307.584 
L 322.396364 307.584 
L 322.396364 54.144 
L 317.323636 54.144 
z
" clip-path="url(#pcf6674ff14)" style="fill: #ff7f0e; fill-opacity: 0.5; stroke: #ffffff; stroke-width: 0.507273; stroke-linejoin: miter"/>
   </g>
   <g id="patch_85">
    <path d="M 322.396364 307.584 
L 327.469091 307.584 
L 327.469091 55.550047 
L 322.396364 55.550047 
z
" clip-path="url(#pcf6674ff14)" style="fill: #ff7f0e; fill-opacity: 0.5; stroke: #ffffff; stroke-width: 0.507273; stroke-linejoin: miter"/>
   </g>
   <g id="patch_86">
    <path d="M 327.469091 307.584 
L 332.541818 307.584 
L 332.541818 67.85296 
L 327.469091 67.85296 
z
" clip-path="url(#pcf6674ff14)" style="fill: #ff7f0e; fill-opacity: 0.5; stroke: #ffffff; stroke-width: 0.507273; stroke-linejoin: miter"/>
   </g>
   <g id="patch_87">
    <path d="M 332.541818 307.584 
L 337.614545 307.584 
L 337.614545 99.840533 
L 332.541818 99.840533 
z
" clip-path="url(#pcf6674ff14)" style="fill: #ff7f0e; fill-opacity: 0.5; stroke: #ffffff; stroke-width: 0.507273; stroke-linejoin: miter"/>
   </g>
   <g id="patch_88">
    <path d="M 337.614545 307.584 
L 342.687273 307.584 
L 342.687273 98.434485 
L 337.614545 98.434485 
z
" clip-path="url(#pcf6674ff14)" style="fill: #ff7f0e; fill-opacity: 0.5; stroke: #ffffff; stroke-width: 0.507273; stroke-linejoin: miter"/>
   </g>
   <g id="patch_89">
    <path d="M 342.687273 307.584 
L 347.76 307.584 
L 347.76 136.397759 
L 342.687273 136.397759 
z
" clip-path="url(#pcf6674ff14)" style="fill: #ff7f0e; fill-opacity: 0.5; stroke: #ffffff; stroke-width: 0.507273; stroke-linejoin: miter"/>
   </g>
   <g id="patch_90">
    <path d="M 347.76 307.584 
L 352.832727 307.584 
L 352.832727 172.251961 
L 347.76 172.251961 
z
" clip-path="url(#pcf6674ff14)" style="fill: #ff7f0e; fill-opacity: 0.5; stroke: #ffffff; stroke-width: 0.507273; stroke-linejoin: miter"/>
   </g>
   <g id="patch_91">
    <path d="M 352.832727 307.584 
L 357.905455 307.584 
L 357.905455 200.021393 
L 352.832727 200.021393 
z
" clip-path="url(#pcf6674ff14)" style="fill: #ff7f0e; fill-opacity: 0.5; stroke: #ffffff; stroke-width: 0.507273; stroke-linejoin: miter"/>
   </g>
   <g id="patch_92">
    <path d="M 357.905455 307.584 
L 362.978182 307.584 
L 362.978182 217.948494 
L 357.905455 217.948494 
z
" clip-path="url(#pcf6674ff14)" style="fill: #ff7f0e; fill-opacity: 0.5; stroke: #ffffff; stroke-width: 0.507273; stroke-linejoin: miter"/>
   </g>
   <g id="patch_93">
    <path d="M 362.978182 307.584 
L 368.050909 307.584 
L 368.050909 255.911767 
L 362.978182 255.911767 
z
" clip-path="url(#pcf6674ff14)" style="fill: #ff7f0e; fill-opacity: 0.5; stroke: #ffffff; stroke-width: 0.507273; stroke-linejoin: miter"/>
   </g>
   <g id="patch_94">
    <path d="M 368.050909 307.584 
L 373.123636 307.584 
L 373.123636 275.244915 
L 368.050909 275.244915 
z
" clip-path="url(#pcf6674ff14)" style="fill: #ff7f0e; fill-opacity: 0.5; stroke: #ffffff; stroke-width: 0.507273; stroke-linejoin: miter"/>
   </g>
   <g id="patch_95">
    <path d="M 373.123636 307.584 
L 378.196364 307.584 
L 378.196364 286.141781 
L 373.123636 286.141781 
z
" clip-path="url(#pcf6674ff14)" style="fill: #ff7f0e; fill-opacity: 0.5; stroke: #ffffff; stroke-width: 0.507273; stroke-linejoin: miter"/>
   </g>
   <g id="patch_96">
    <path d="M 378.196364 307.584 
L 383.269091 307.584 
L 383.269091 295.984111 
L 378.196364 295.984111 
z
" clip-path="url(#pcf6674ff14)" style="fill: #ff7f0e; fill-opacity: 0.5; stroke: #ffffff; stroke-width: 0.507273; stroke-linejoin: miter"/>
   </g>
   <g id="patch_97">
    <path d="M 383.269091 307.584 
L 388.341818 307.584 
L 388.341818 301.6083 
L 383.269091 301.6083 
z
" clip-path="url(#pcf6674ff14)" style="fill: #ff7f0e; fill-opacity: 0.5; stroke: #ffffff; stroke-width: 0.507273; stroke-linejoin: miter"/>
   </g>
   <g id="patch_98">
    <path d="M 388.341818 307.584 
L 393.414545 307.584 
L 393.414545 301.256788 
L 388.341818 301.256788 
z
" clip-path="url(#pcf6674ff14)" style="fill: #ff7f0e; fill-opacity: 0.5; stroke: #ffffff; stroke-width: 0.507273; stroke-linejoin: miter"/>
   </g>
   <g id="patch_99">
    <path d="M 393.414545 307.584 
L 398.487273 307.584 
L 398.487273 305.123417 
L 393.414545 305.123417 
z
" clip-path="url(#pcf6674ff14)" style="fill: #ff7f0e; fill-opacity: 0.5; stroke: #ffffff; stroke-width: 0.507273; stroke-linejoin: miter"/>
   </g>
   <g id="line2d_15">
    <path d="M 113.317041 307.274298 
L 125.047933 306.846542 
L 135.475392 306.226923 
L 143.295986 305.572399 
L 149.813148 304.802554 
L 157.633743 303.661343 
L 164.150904 302.534456 
L 169.364634 301.423616 
L 174.578364 300.056736 
L 179.792093 298.396381 
L 183.70239 296.93499 
L 187.612687 295.272316 
L 191.522985 293.412693 
L 196.736714 290.673986 
L 203.253876 286.936331 
L 209.771038 282.908458 
L 216.2882 278.568547 
L 222.805362 273.902729 
L 228.019091 269.894724 
L 231.929388 266.606007 
L 235.839686 262.977509 
L 241.053415 257.695937 
L 248.874009 249.706459 
L 255.391171 243.459442 
L 264.515198 235.092242 
L 272.335792 227.827362 
L 278.852954 221.804697 
L 282.763251 218.56256 
L 285.370116 216.631365 
L 287.976981 214.887676 
L 291.887278 212.603267 
L 294.494143 211.295735 
L 297.101008 210.172841 
L 299.707872 209.258651 
L 302.314737 208.582505 
L 304.921602 208.17163 
L 307.528467 208.046457 
L 310.135332 208.220086 
L 312.742196 208.700882 
L 315.349061 209.495739 
L 317.955926 210.611914 
L 320.562791 212.056534 
L 323.169655 213.833885 
L 325.77652 215.940965 
L 328.383385 218.361941 
L 330.99025 221.062733 
L 334.900547 225.511557 
L 345.328006 237.797675 
L 350.541735 243.378583 
L 355.755465 248.94493 
L 358.36233 252.045538 
L 360.969195 255.585656 
L 363.576059 259.728202 
L 366.182924 264.574941 
L 368.789789 270.111196 
L 372.700086 279.293684 
L 372.700086 279.293684 
" clip-path="url(#pcf6674ff14)" style="fill: none; stroke: #1f77b4; stroke-width: 1.5; stroke-linecap: round"/>
   </g>
   <g id="line2d_16">
    <path d="M 73.832727 307.351346 
L 83.621307 306.947318 
L 91.778456 306.655443 
L 108.092755 306.173497 
L 114.618474 305.800927 
L 119.512764 305.357783 
L 122.775624 304.90539 
L 126.038483 304.25767 
L 129.301343 303.397755 
L 137.458492 300.970429 
L 140.721352 300.24423 
L 152.141361 298.070602 
L 157.035651 296.994835 
L 165.1928 295.487397 
L 166.82423 294.99493 
L 168.45566 294.368878 
L 171.71852 292.741405 
L 176.61281 289.770573 
L 179.875669 287.621498 
L 183.138529 285.188776 
L 186.401389 282.330458 
L 194.558538 274.610842 
L 201.084258 268.975211 
L 204.347117 265.624821 
L 207.609977 261.686 
L 214.135697 252.993199 
L 222.292846 242.15029 
L 225.555706 237.383302 
L 228.818566 232.141746 
L 232.081425 226.481718 
L 235.344285 220.467306 
L 238.607145 214.067612 
L 241.870005 207.213445 
L 245.132864 199.862379 
L 248.395724 192.014698 
L 258.184303 167.821153 
L 259.815733 164.320634 
L 263.078593 158.090792 
L 271.235742 143.974471 
L 274.498602 137.396764 
L 277.761462 129.9324 
L 281.024322 121.67203 
L 289.181471 100.283463 
L 290.812901 96.485642 
L 292.444331 92.998851 
L 294.075761 89.848325 
L 295.70719 87.028529 
L 297.33862 84.501484 
L 300.60148 80.046201 
L 310.390059 67.635588 
L 312.021489 65.851322 
L 313.652919 64.306325 
L 315.284349 63.055739 
L 316.915779 62.150182 
L 318.547209 61.642553 
L 320.178639 61.593264 
L 321.810069 62.070639 
L 323.441498 63.145587 
L 325.072928 64.882072 
L 326.704358 67.326517 
L 328.335788 70.499773 
L 329.967218 74.394581 
L 331.598648 78.979821 
L 333.230078 84.210596 
L 334.861508 90.04095 
L 336.492937 96.434585 
L 338.124367 103.369168 
L 341.387227 118.806843 
L 344.650087 136.126188 
L 357.701526 208.954855 
L 362.595815 233.860205 
L 365.858675 249.29964 
L 367.490105 256.391539 
L 369.121535 262.933917 
L 370.752965 268.862376 
L 372.384395 274.150756 
L 374.015825 278.809541 
L 375.647254 282.877307 
L 377.278684 286.409152 
L 378.910114 289.465852 
L 380.541544 292.10622 
L 382.172974 294.383418 
L 383.804404 296.344511 
L 385.435834 298.031744 
L 387.067264 299.483997 
L 388.698693 300.737369 
L 390.330123 301.82465 
L 393.592983 303.608028 
L 396.855843 304.987506 
L 398.487273 305.548355 
L 398.487273 305.548355 
" clip-path="url(#pcf6674ff14)" style="fill: none; stroke: #ff7f0e; stroke-width: 1.5; stroke-linecap: round"/>
   </g>
   <g id="patch_100">
    <path d="M 57.6 307.584 
L 57.6 41.472 
" style="fill: none; stroke: #000000; stroke-width: 0.8; stroke-linejoin: miter; stroke-linecap: square"/>
   </g>
   <g id="patch_101">
    <path d="M 414.72 307.584 
L 414.72 41.472 
" style="fill: none; stroke: #000000; stroke-width: 0.8; stroke-linejoin: miter; stroke-linecap: square"/>
   </g>
   <g id="patch_102">
    <path d="M 57.6 307.584 
L 414.72 307.584 
" style="fill: none; stroke: #000000; stroke-width: 0.8; stroke-linejoin: miter; stroke-linecap: square"/>
   </g>
   <g id="patch_103">
    <path d="M 57.6 41.472 
L 414.72 41.472 
" style="fill: none; stroke: #000000; stroke-width: 0.8; stroke-linejoin: miter; stroke-linecap: square"/>
   </g>
   <g id="legend_1">
    <g id="patch_104">
     <path d="M 64.6 78.007937 
L 153.295312 78.007937 
Q 155.295312 78.007937 155.295312 76.007937 
L 155.295312 48.472 
Q 155.295312 46.472 153.295312 46.472 
L 64.6 46.472 
Q 62.6 46.472 62.6 48.472 
L 62.6 76.007937 
Q 62.6 78.007937 64.6 78.007937 
z
" style="fill: #eaeaf2; opacity: 0.8; stroke: #cccccc; stroke-linejoin: miter"/>
    </g>
    <g id="patch_105">
     <path d="M 66.6 57.629812 
L 86.6 57.629812 
L 86.6 50.629812 
L 66.6 50.629812 
z
" style="fill: #1f77b4; fill-opacity: 0.5; stroke: #ffffff; stroke-width: 0.983802; stroke-linejoin: miter"/>
    </g>
    <g id="text_18">
     <!-- Fitted data -->
     <g style="fill: #262626" transform="translate(94.6 57.629812) scale(0.1 -0.1)">
      <defs>
       <path id="ArialMT-46" d="M 525 0 
L 525 4581 
L 3616 4581 
L 3616 4041 
L 1131 4041 
L 1131 2622 
L 3281 2622 
L 3281 2081 
L 1131 2081 
L 1131 0 
L 525 0 
z
" transform="scale(0.015625)"/>
      </defs>
      <use xlink:href="#ArialMT-46"/>
      <use xlink:href="#ArialMT-69" x="61.083984"/>
      <use xlink:href="#ArialMT-74" x="83.300781"/>
      <use xlink:href="#ArialMT-74" x="111.083984"/>
      <use xlink:href="#ArialMT-65" x="138.867188"/>
      <use xlink:href="#ArialMT-64" x="194.482422"/>
      <use xlink:href="#ArialMT-20" x="250.097656"/>
      <use xlink:href="#ArialMT-64" x="277.880859"/>
      <use xlink:href="#ArialMT-61" x="333.496094"/>
      <use xlink:href="#ArialMT-74" x="389.111328"/>
      <use xlink:href="#ArialMT-61" x="416.894531"/>
     </g>
    </g>
    <g id="patch_106">
     <path d="M 66.6 71.90325 
L 86.6 71.90325 
L 86.6 64.90325 
L 66.6 64.90325 
z
" style="fill: #ff7f0e; fill-opacity: 0.5; stroke: #ffffff; stroke-width: 0.507273; stroke-linejoin: miter"/>
    </g>
    <g id="text_19">
     <!-- Original data -->
     <g style="fill: #262626" transform="translate(94.6 71.90325) scale(0.1 -0.1)">
      <defs>
       <path id="ArialMT-4f" d="M 309 2231 
Q 309 3372 921 4017 
Q 1534 4663 2503 4663 
Q 3138 4663 3647 4359 
Q 4156 4056 4423 3514 
Q 4691 2972 4691 2284 
Q 4691 1588 4409 1038 
Q 4128 488 3612 205 
Q 3097 -78 2500 -78 
Q 1853 -78 1343 234 
Q 834 547 571 1087 
Q 309 1628 309 2231 
z
M 934 2222 
Q 934 1394 1379 917 
Q 1825 441 2497 441 
Q 3181 441 3623 922 
Q 4066 1403 4066 2288 
Q 4066 2847 3877 3264 
Q 3688 3681 3323 3911 
Q 2959 4141 2506 4141 
Q 1863 4141 1398 3698 
Q 934 3256 934 2222 
z
" transform="scale(0.015625)"/>
       <path id="ArialMT-67" d="M 319 -275 
L 866 -356 
Q 900 -609 1056 -725 
Q 1266 -881 1628 -881 
Q 2019 -881 2231 -725 
Q 2444 -569 2519 -288 
Q 2563 -116 2559 434 
Q 2191 0 1641 0 
Q 956 0 581 494 
Q 206 988 206 1678 
Q 206 2153 378 2554 
Q 550 2956 876 3175 
Q 1203 3394 1644 3394 
Q 2231 3394 2613 2919 
L 2613 3319 
L 3131 3319 
L 3131 450 
Q 3131 -325 2973 -648 
Q 2816 -972 2473 -1159 
Q 2131 -1347 1631 -1347 
Q 1038 -1347 672 -1080 
Q 306 -813 319 -275 
z
M 784 1719 
Q 784 1066 1043 766 
Q 1303 466 1694 466 
Q 2081 466 2343 764 
Q 2606 1063 2606 1700 
Q 2606 2309 2336 2618 
Q 2066 2928 1684 2928 
Q 1309 2928 1046 2623 
Q 784 2319 784 1719 
z
" transform="scale(0.015625)"/>
      </defs>
      <use xlink:href="#ArialMT-4f"/>
      <use xlink:href="#ArialMT-72" x="77.783203"/>
      <use xlink:href="#ArialMT-69" x="111.083984"/>
      <use xlink:href="#ArialMT-67" x="133.300781"/>
      <use xlink:href="#ArialMT-69" x="188.916016"/>
      <use xlink:href="#ArialMT-6e" x="211.132812"/>
      <use xlink:href="#ArialMT-61" x="266.748047"/>
      <use xlink:href="#ArialMT-6c" x="322.363281"/>
      <use xlink:href="#ArialMT-20" x="344.580078"/>
      <use xlink:href="#ArialMT-64" x="372.363281"/>
      <use xlink:href="#ArialMT-61" x="427.978516"/>
      <use xlink:href="#ArialMT-74" x="483.59375"/>
      <use xlink:href="#ArialMT-61" x="511.376953"/>
     </g>
    </g>
   </g>
  </g>
 </g>
 <defs>
  <clipPath id="pcf6674ff14">
   <rect x="57.6" y="41.472" width="357.12" height="266.112"/>
  </clipPath>
 </defs>
</svg>
